<svg width="247" height="219" viewBox="0 0 247 219" fill="none" xmlns="http://www.w3.org/2000/svg">
<rect x="0.544678" y="0.308838" width="245.911" height="217.95" rx="14.3388" fill="url(#paint0_linear_34_1182)"/>
<path d="M51.0986 123.132H61.8818V118.575H51.0986V123.132Z" fill="#EBEBEB"/>
<path d="M57.1174 112.83L62.4601 112.716L65.1722 112.671C66.0803 112.65 66.9925 112.671 67.9006 112.65H68.0798V112.834L68.1042 117.39V117.594H67.9087L62.5171 117.57C60.7213 117.57 58.9213 117.521 57.1255 117.5H57.0115V117.39C57.0115 116.617 57.0441 115.847 57.0644 115.09L57.1174 112.83ZM57.1174 112.83L57.1744 115.13C57.1744 115.892 57.2192 116.641 57.2273 117.386L57.1174 117.276C58.9132 117.256 60.7131 117.211 62.509 117.207L67.9087 117.183L67.7051 117.386V112.83L67.9087 113.029C67.021 113.029 66.1333 113.029 65.2414 113.005L62.5619 112.96L57.1174 112.83Z" fill="#EBEBEB"/>
<path d="M45.1043 112.83L50.447 112.716L53.1591 112.671C54.0672 112.65 54.9753 112.671 55.8875 112.65H56.0667V112.834L56.0911 117.39V117.594H55.8875L50.4959 117.57C48.696 117.57 46.9001 117.521 45.1043 117.5H44.9902V117.39C44.9902 116.617 45.0269 115.847 45.0432 115.09L45.1043 112.83ZM45.1043 112.83L45.1613 115.13C45.1613 115.892 45.2061 116.641 45.2142 117.386L45.1043 117.276C46.9001 117.256 48.696 117.211 50.4959 117.207L55.8875 117.183L55.6839 117.386V112.83L55.8671 113.013C54.9753 113.013 54.0917 113.013 53.1998 112.988L50.5203 112.944L45.1043 112.83Z" fill="#EBEBEB"/>
<path d="M120.876 57.0559H131.659V52.4991H120.876V57.0559Z" fill="#EBEBEB"/>
<path d="M206.185 114.532L211.532 114.418L214.244 114.373C215.152 114.352 216.06 114.373 216.968 114.348H217.152V114.532L217.172 119.088V119.292H216.952L211.56 119.268C209.765 119.268 207.969 119.219 206.169 119.198H206.059V119.088C206.059 118.315 206.095 117.545 206.112 116.788L206.185 114.532ZM206.185 114.532L206.246 116.832C206.246 117.594 206.291 118.343 206.299 119.088L206.185 118.979C207.985 118.958 209.781 118.913 211.577 118.909L216.968 118.885L216.769 119.088L216.789 114.532L216.968 114.715C216.081 114.715 215.197 114.715 214.305 114.69L211.626 114.646L206.185 114.532Z" fill="#EBEBEB"/>
<path d="M135.679 156.948H146.462V152.391H135.679V156.948Z" fill="#EBEBEB"/>
<path d="M126.886 46.7535L132.249 46.6517L134.962 46.6069C135.87 46.6069 136.778 46.6069 137.69 46.6069H137.869V46.7902L137.889 51.347V51.5506H137.686L132.294 51.5262C130.494 51.5262 128.698 51.4814 126.903 51.457H126.789V51.347C126.789 50.5733 126.825 49.8036 126.842 49.0462L126.886 46.7535ZM126.886 46.7535L126.947 49.0584C126.947 49.8158 126.992 50.5651 127 51.3104L126.89 51.2004C128.686 51.2004 130.482 51.1352 132.282 51.1352L137.674 51.1067L137.47 51.3104L137.49 46.7535L137.674 46.9368C136.782 46.9368 135.898 46.9368 135.006 46.9124L132.327 46.8676L126.886 46.7535Z" fill="#EBEBEB"/>
<path d="M73.0068 152.529H59.3404L51.5217 113.538L64.0316 107.788L73.0068 152.529Z" fill="#DBDBDB"/>
<path d="M112.125 152.529H73.0072L64.032 107.788H103.15L112.125 152.529Z" fill="#EBEBEB"/>
<path d="M65.9903 131.611H45.0469V174.585H65.9903V131.611Z" fill="#DBDBDB"/>
<path d="M122.175 174.585H116.454L107.927 131.611H122.175V174.585Z" fill="#DBDBDB"/>
<path d="M77.4988 131.611H65.9907V174.585H77.4988V131.611Z" fill="#EBEBEB"/>
<path d="M133.684 131.611H122.176V174.585H133.684V131.611Z" fill="#EBEBEB"/>
<path d="M122.175 152.53H77.499V174.581H122.175V152.53Z" fill="#EBEBEB"/>
<path d="M122.175 142.997H77.499V152.619H122.175V142.997Z" fill="#EBEBEB"/>
<path d="M68.8123 131.61L73.1573 131.533L77.4983 131.476H77.6286V131.61L77.6816 136.648V141.677C77.6816 145.028 77.706 148.38 77.6816 151.735C77.6571 155.091 77.6816 158.438 77.6245 161.794C77.5675 165.149 77.5512 168.497 77.4779 171.852C77.4074 168.497 77.3599 165.144 77.3354 161.794C77.2906 158.438 77.2866 155.087 77.2743 151.735C77.2621 148.384 77.2743 145.028 77.2743 141.677V136.648L77.3232 131.619L77.4535 131.749L73.1125 131.696L68.8123 131.61Z" fill="#DBDBDB"/>
<path d="M122.175 131.611C122.264 134.974 122.305 138.338 122.342 141.706L122.391 151.801L122.342 161.896L122.281 166.946L122.175 171.991L122.069 166.946L122.008 161.896L121.959 151.801L122.008 141.706C122.045 138.338 122.069 134.974 122.175 131.611Z" fill="#DBDBDB"/>
<path d="M122.175 152.53C118.453 152.619 114.731 152.66 111.005 152.697L99.8392 152.745L88.6773 152.697L83.0943 152.635L77.499 152.53L83.0861 152.424L88.6691 152.363L99.8392 152.314L111.005 152.363C114.74 152.399 118.453 152.44 122.175 152.53Z" fill="#DBDBDB"/>
<path d="M122.175 142.996C118.453 143.086 114.731 143.127 111.005 143.163L99.8387 143.212L88.6767 143.163L83.0937 143.102L77.5066 142.996L83.0937 142.89L88.6767 142.829L99.8468 142.781L111.013 142.829C114.739 142.866 118.453 142.907 122.175 142.996Z" fill="#DBDBDB"/>
<path d="M53.008 174.581L52.723 178.062L52.0633 186.109H49.0295L48.3698 178.062L48.0847 174.581H53.008Z" fill="#C7C7C7"/>
<path d="M48.0847 174.581H53.008L52.723 178.062H48.3698L48.0847 174.581Z" fill="#A6A6A6"/>
<path d="M74.2085 174.581L73.9234 178.062L73.2637 186.109H70.2299L69.5702 178.062L69.2852 174.581H74.2085Z" fill="#C7C7C7"/>
<path d="M69.2852 174.581H74.2085L73.9234 178.062H69.5702L69.2852 174.581Z" fill="#A6A6A6"/>
<path d="M109.368 174.581L109.087 178.062L108.427 186.109H105.393L104.734 178.062L104.449 174.581H109.368Z" fill="#C7C7C7"/>
<path d="M104.449 174.581H109.368L109.087 178.062H104.734L104.449 174.581Z" fill="#A6A6A6"/>
<path d="M130.576 174.581L130.291 178.062L129.632 186.109H126.598L125.938 178.062L125.653 174.581H130.576Z" fill="#C7C7C7"/>
<path d="M130.576 174.581L130.291 178.062H125.938L125.653 174.581H130.576Z" fill="#A6A6A6"/>
<path d="M123.259 49.0787H53.3589V52.08H123.259V49.0787Z" fill="#EBEBEB"/>
<path d="M63.5229 63.8934H60.7986L59.7073 52.0798H63.5229V63.8934Z" fill="#EBEBEB"/>
<path d="M113.094 63.8934H115.818L116.91 52.0798H113.094V63.8934Z" fill="#EBEBEB"/>
<path d="M59.7073 52.0798H63.5189V56.148H60.0819L59.7073 52.0798Z" fill="#DBDBDB"/>
<path d="M116.91 52.0798L116.535 56.148H113.094V52.0798H116.91Z" fill="#DBDBDB"/>
<path d="M201.926 136.888H162.104V186.109H201.926V136.888Z" fill="#EBEBEB"/>
<path d="M203.852 134.844H160.173V136.888H203.852V134.844Z" fill="#DBDBDB"/>
<path d="M217.591 134.844H203.855V136.888H217.591V134.844Z" fill="#EBEBEB"/>
<path d="M215.417 136.888H201.925V186.109H215.417V136.888Z" fill="#DBDBDB"/>
<path d="M197.638 159.741H166.391V142.076H197.638V159.741ZM166.493 159.64H197.536V142.178H166.493V159.64Z" fill="#C7C7C7"/>
<path d="M183.739 147.24H177.655V150.738H183.739V147.24Z" fill="#C7C7C7"/>
<path d="M185.596 150.522H179.402V147.452H185.596V150.522ZM179.487 150.42H185.469V147.57H179.487V150.42Z" fill="#C7C7C7"/>
<path d="M197.638 181.927H166.391V164.262H197.638V181.927ZM166.493 181.825H197.536V164.364H166.493V181.825Z" fill="#C7C7C7"/>
<path d="M183.739 169.425H177.655V172.923H183.739V169.425Z" fill="#C7C7C7"/>
<path d="M185.596 172.708H179.402V169.633H185.596V172.708ZM179.487 172.606H185.469V169.755H179.487V172.606Z" fill="#C7C7C7"/>
<path d="M217.791 186.109L195.98 186.207L174.165 186.244L130.535 186.313L86.9053 186.244L65.0944 186.207L43.2795 186.109L65.0944 186.007L86.9053 185.975L130.535 185.906L174.165 185.975L195.98 186.007L217.791 186.109Z" fill="#263238"/>
<path d="M207.541 186.109H209.874L193.532 99.7537H187.721L207.541 186.109Z" fill="#455A64"/>
<path d="M187.721 99.7537L190.653 112.524H195.947L193.537 99.7659L193.532 99.7537H187.721Z" fill="#37474F"/>
<path d="M183.702 186.109H186.035L185.514 99.7537H179.707L183.702 186.109Z" fill="#455A64"/>
<path d="M179.707 99.7537L180.297 112.524H185.591L185.514 99.7659V99.7537H179.707Z" fill="#37474F"/>
<path d="M162.197 186.109H159.867L172.732 99.7537H178.543L162.197 186.109Z" fill="#455A64"/>
<path d="M170.83 112.524H176.124L178.543 99.7537H172.732L172.727 99.7659L170.83 112.524Z" fill="#37474F"/>
<path d="M166.982 150.799H200.891V149.113H166.982V150.799Z" fill="#455A64"/>
<path d="M217.605 67.7714C218.796 43.6778 205.889 23.4602 188.777 22.6143C171.664 21.7684 156.827 40.6145 155.636 64.7081C154.445 88.8017 167.351 109.019 184.464 109.865C201.576 110.711 216.413 91.865 217.605 67.7714Z" fill="#099AF6"/>
<path d="M182.008 22.1819L189.289 22.6339L183.743 109.824L176.458 109.372L182.008 22.1819Z" fill="#099AF6"/>
<g opacity="0.1">
<path opacity="0.1" d="M182.008 22.1819L189.289 22.6339L183.743 109.824L176.458 109.372L182.008 22.1819Z" fill="black"/>
</g>
<path d="M210.901 67.3554C212.092 43.2618 199.186 23.0443 182.074 22.1983C164.961 21.3524 150.124 40.1984 148.933 64.2921C147.742 88.3857 160.648 108.603 177.76 109.449C194.873 110.295 209.71 91.449 210.901 67.3554Z" fill="#099AF6"/>
<path d="M204.089 67.0187C205.018 48.224 194.949 32.453 181.599 31.7931C168.25 31.1332 156.674 45.8343 155.745 64.6289C154.816 83.4236 164.885 99.1946 178.235 99.8545C191.584 100.514 203.16 85.8134 204.089 67.0187Z" fill="white"/>
<path d="M197.341 66.6849C198.011 53.1331 190.753 41.7615 181.13 41.2858C171.507 40.8101 163.163 51.4104 162.493 64.9622C161.823 78.5141 169.081 89.8856 178.704 90.3613C188.327 90.837 196.671 80.2367 197.341 66.6849Z" fill="#099AF6"/>
<path d="M190.525 66.3482C190.932 58.0976 186.514 51.1744 180.656 50.8848C174.797 50.5952 169.718 57.0489 169.31 65.2995C168.902 73.5501 173.32 80.4733 179.179 80.7629C185.037 81.0525 190.117 74.5988 190.525 66.3482Z" fill="white"/>
<path d="M184.626 64.9771C184.879 68.6421 182.973 71.961 180.367 72.4375C177.761 72.9139 175.452 70.3525 175.203 66.7078C174.955 63.0632 176.857 59.724 179.459 59.2435C182.061 58.7629 184.374 61.3121 184.626 64.9771Z" fill="#099AF6"/>
<path opacity="0.4" d="M210.901 67.3554C212.092 43.2618 199.186 23.0443 182.074 22.1983C164.961 21.3524 150.124 40.1984 148.933 64.2921C147.742 88.3857 160.648 108.603 177.76 109.449C194.873 110.295 209.71 91.449 210.901 67.3554Z" fill="white"/>
<path d="M150.673 161.896C150.813 158.338 150.764 154.775 150.526 151.223C150.001 143.896 148.883 136.623 147.183 129.477C146.25 125.454 145.102 121.495 143.905 117.545C143.868 117.423 143.681 117.46 143.713 117.582C147.411 131.513 150.449 145.892 150.229 160.373C150.172 164.445 149.704 168.407 149.317 172.435C149.317 172.545 149.484 172.585 149.508 172.476C150.282 169.047 150.53 165.435 150.673 161.896Z" fill="#099AF6"/>
<path d="M143.713 117.598C143.713 117.598 138.105 131.826 139.36 135.17C140.614 138.513 143.204 139.242 143.204 139.242C143.204 139.242 139.775 144.129 142.169 148.73C144.564 153.332 149.907 153.108 150.245 158.312C150.245 158.296 150.542 136.526 143.713 117.598Z" fill="#099AF6"/>
<path d="M149.638 149.309C149.646 149.283 149.646 149.256 149.638 149.231C148.901 139.518 147.077 129.918 144.202 120.612C144.202 120.587 144.149 120.612 144.157 120.612C145.265 124.774 146.246 128.957 147.101 133.162C146.348 132.449 145.428 131.937 144.426 131.672C144.405 131.672 144.397 131.692 144.426 131.7C145.48 132.087 146.426 132.719 147.187 133.545C147.354 134.36 147.512 135.174 147.663 136.021C146.413 134.62 144.674 133.928 142.935 133.268C142.911 133.268 142.899 133.297 142.935 133.305C144.747 134.042 146.547 134.991 147.777 136.563C148.203 138.924 148.578 141.293 148.901 143.669C147.995 142.721 146.834 142.056 145.558 141.755C145.521 141.755 145.497 141.804 145.537 141.816C146.854 142.195 148.031 142.949 148.925 143.986H148.95C149.06 144.821 149.166 145.66 149.263 146.495C148.563 145.903 147.772 145.426 146.922 145.082C146.902 145.082 146.889 145.11 146.922 145.118C147.789 145.494 148.584 146.021 149.268 146.674C149.278 146.678 149.29 146.678 149.3 146.674C149.39 147.488 149.483 148.27 149.565 149.068C148.302 147.543 146.665 146.372 144.813 145.672C144.805 145.669 144.797 145.67 144.789 145.673C144.782 145.677 144.777 145.683 144.774 145.69C144.771 145.698 144.772 145.706 144.775 145.714C144.778 145.721 144.785 145.726 144.792 145.729C146.621 146.537 148.228 147.775 149.475 149.337C149.489 149.354 149.508 149.367 149.529 149.374C149.55 149.38 149.572 149.38 149.593 149.374C149.715 150.595 149.825 151.817 149.915 153.039C149.915 153.039 149.944 153.059 149.944 153.039C149.825 151.821 149.76 150.563 149.638 149.309Z" fill="#263238"/>
<path d="M145.134 130.271C144.119 129.64 142.96 129.278 141.766 129.22C141.761 129.22 141.756 129.223 141.752 129.226C141.748 129.23 141.746 129.235 141.746 129.241C141.746 129.246 141.748 129.251 141.752 129.255C141.756 129.259 141.761 129.261 141.766 129.261C142.919 129.478 144.039 129.843 145.098 130.348C145.138 130.369 145.175 130.3 145.134 130.271Z" fill="#263238"/>
<path d="M145.815 145.334C145.035 144.887 144.176 144.593 143.286 144.467C143.253 144.467 143.253 144.512 143.286 144.516C144.156 144.69 144.998 144.984 145.786 145.391C145.819 145.408 145.847 145.351 145.815 145.334Z" fill="#263238"/>
<path d="M165.406 135.402C163.037 137.041 160.861 138.943 158.919 141.071C156.918 143.325 155.374 145.945 154.37 148.787C152.241 154.713 151.096 160.947 150.982 167.243C150.908 170.728 151.243 174.211 151.98 177.619C151.985 177.645 151.999 177.668 152.021 177.682C152.043 177.697 152.07 177.703 152.096 177.698C152.122 177.693 152.145 177.678 152.159 177.657C152.174 177.635 152.18 177.608 152.175 177.582C151.258 171.568 151.292 165.448 152.277 159.444C153.238 153.556 154.753 147.154 158.491 142.37C160.527 139.767 163.068 137.719 165.581 135.602C165.711 135.488 165.544 135.304 165.406 135.402Z" fill="#099AF6"/>
<path d="M151.797 163.004C153.147 160.821 154.734 158.794 156.529 156.96C159.33 154.155 161.692 152.163 162.059 150.31C162.425 148.458 159.249 147.089 159.249 147.089C159.249 147.089 163.13 147.786 164.188 146.157C165.247 144.528 165.764 135.097 165.764 135.097C165.764 135.097 158.719 140.138 155.425 147.203C152.131 154.269 151.797 163.004 151.797 163.004Z" fill="#099AF6"/>
<path d="M163.251 143.946C162.786 143.879 162.315 143.862 161.847 143.897C161.835 143.9 161.826 143.907 161.819 143.916C161.812 143.925 161.808 143.936 161.808 143.948C161.808 143.959 161.812 143.97 161.819 143.98C161.826 143.989 161.835 143.995 161.847 143.999C162.311 143.999 162.779 143.974 163.243 143.999C163.249 143.997 163.254 143.995 163.258 143.99C163.262 143.986 163.265 143.981 163.266 143.975C163.267 143.969 163.266 143.963 163.263 143.958C163.261 143.953 163.257 143.949 163.251 143.946Z" fill="#263238"/>
<path d="M158.169 153.096C157.425 153.114 156.689 153.261 155.995 153.532C155.995 153.532 155.995 153.568 155.995 153.564C156.716 153.393 157.441 153.324 158.169 153.202C158.183 153.202 158.197 153.196 158.207 153.186C158.217 153.176 158.222 153.163 158.222 153.149C158.222 153.135 158.217 153.121 158.207 153.111C158.197 153.102 158.183 153.096 158.169 153.096Z" fill="#263238"/>
<path d="M156.646 149.936C156.336 149.932 156.027 149.96 155.722 150.017C155.694 150.017 155.694 150.074 155.722 150.074C156.031 150.09 156.341 150.075 156.646 150.029C156.703 150.021 156.703 149.936 156.646 149.936Z" fill="#263238"/>
<path d="M131.114 145.412C133.41 146.19 135.611 147.227 137.674 148.502C139.815 149.863 141.671 151.626 143.139 153.694C146.238 157.996 148.613 162.776 150.167 167.845C151.03 170.65 151.565 173.546 151.76 176.474C151.755 176.493 151.745 176.51 151.73 176.523C151.715 176.535 151.696 176.541 151.676 176.541C151.657 176.541 151.638 176.535 151.623 176.523C151.608 176.51 151.597 176.493 151.593 176.474C150.942 171.394 149.499 166.448 147.317 161.814C145.175 157.274 142.475 152.448 138.358 149.435C136.106 147.806 133.577 146.727 131.056 145.595C130.885 145.55 130.979 145.367 131.114 145.412Z" fill="#099AF6"/>
<path d="M148.502 164.604C146.905 163.15 145.153 161.877 143.277 160.808C140.358 159.18 137.983 158.121 137.263 156.704C136.542 155.286 138.794 153.446 138.794 153.446C138.794 153.446 135.813 154.904 134.579 153.833C133.345 152.762 130.747 145.244 130.747 145.244C130.747 145.244 137.625 147.688 141.921 152.652C146.217 157.616 148.502 164.604 148.502 164.604Z" fill="#099AF6"/>
<path d="M136.79 149.83C136.483 149.809 136.173 149.826 135.87 149.883C135.863 149.883 135.855 149.886 135.85 149.891C135.845 149.896 135.842 149.904 135.842 149.911C135.842 149.919 135.845 149.926 135.85 149.931C135.855 149.937 135.863 149.94 135.87 149.94C136.171 149.907 136.469 149.919 136.774 149.911C136.785 149.913 136.796 149.911 136.805 149.905C136.814 149.899 136.821 149.889 136.823 149.879C136.825 149.868 136.823 149.857 136.817 149.847C136.811 149.838 136.801 149.832 136.79 149.83Z" fill="#263238"/>
<path d="M157.371 185.954H141.848L144.059 169.739L144.625 165.585H154.59L155.156 169.739L157.371 185.954Z" fill="#455A64"/>
<path d="M155.156 169.739H144.06L144.626 165.585H154.59L155.156 169.739Z" fill="#263238"/>
<path d="M156.015 164.14H143.2V167.662H156.015V164.14Z" fill="#455A64"/>
<path d="M156.255 57.2283L48.2505 63.5693L49.3935 83.0377L157.398 76.6967L156.255 57.2283Z" fill="#099AF6"/>
<path d="M155.941 51.905L157.709 82.015L179.589 65.6243L155.941 51.905Z" fill="#099AF6"/>
<g opacity="0.5">
<path opacity="0.5" d="M179.589 65.6241L157.709 82.0107L157.396 76.6965L49.3921 83.0369L48.2478 63.5676L156.251 57.2272L155.938 51.9048L179.589 65.6241Z" fill="white"/>
<path opacity="0.5" d="M48.4348 84.1161L47.1724 62.6147L155.172 56.2743L154.813 50.0804L181.434 65.5182L156.801 83.9654L156.438 77.7756L48.4348 84.1161ZM49.3225 64.5287L50.3487 81.9659L158.352 75.6174L158.613 80.0601L177.752 65.73L157.065 53.7373L157.326 58.1842L49.3225 64.5287Z" fill="#099AF6"/>
</g>
<path d="M103.267 165.341C103.267 165.341 102.86 181.471 102.86 181.483C102.86 184.464 102.933 187.078 103.092 188.406V188.43C103.097 188.75 103.174 189.064 103.316 189.351C104.208 189.949 128.038 190.572 128.877 190.312C129.716 190.051 129.044 187.64 128.14 186.879C127.236 186.117 118.224 181.85 118.224 181.85L118.485 165.728L103.267 165.341Z" fill="#EB9481"/>
<path d="M102.832 178.282C102.832 178.282 102.86 181.471 102.856 181.483C102.856 184.464 102.93 187.078 103.088 188.406V188.43C103.129 188.745 103.204 189.053 103.312 189.351C104.204 189.949 128.035 190.572 128.874 190.312C129.713 190.051 129.041 187.64 128.137 186.879C127.233 186.117 118.225 181.85 118.225 181.85V178.592L102.832 178.282Z" fill="white"/>
<path d="M119.683 181.85C118.099 181.589 116.168 181.874 114.983 183.027C114.938 183.072 115.004 183.133 115.052 183.116C116.553 182.597 118.106 182.239 119.683 182.049C119.706 182.045 119.726 182.032 119.741 182.014C119.756 181.996 119.764 181.973 119.764 181.95C119.764 181.926 119.756 181.903 119.741 181.885C119.726 181.867 119.706 181.855 119.683 181.85Z" fill="#263238"/>
<path d="M120.847 182.51C119.259 182.249 117.333 182.534 116.148 183.682C116.103 183.727 116.168 183.792 116.217 183.776C117.718 183.256 119.27 182.899 120.847 182.709C120.87 182.704 120.891 182.692 120.906 182.674C120.921 182.656 120.929 182.633 120.929 182.609C120.929 182.586 120.921 182.563 120.906 182.545C120.891 182.527 120.87 182.514 120.847 182.51Z" fill="#263238"/>
<path d="M121.996 183.173C120.408 182.912 118.482 183.193 117.297 184.346C117.252 184.391 117.297 184.456 117.366 184.439C118.865 183.919 120.416 183.562 121.992 183.372C122.015 183.368 122.036 183.356 122.051 183.338C122.066 183.32 122.075 183.298 122.075 183.274C122.076 183.251 122.068 183.228 122.054 183.209C122.039 183.191 122.019 183.178 121.996 183.173Z" fill="#263238"/>
<path d="M128.89 190.348C128.051 190.605 104.22 189.986 103.328 189.387C102.986 189.168 102.872 185.69 102.86 181.483V181.349L118.237 181.577V181.838C118.237 181.838 127.252 186.154 128.165 186.92C129.077 187.685 129.728 190.092 128.89 190.348Z" fill="#37474F"/>
<path d="M102.856 181.349V181.483C102.877 185.69 102.987 189.168 103.329 189.387C103.736 189.66 108.9 189.937 114.479 190.137C121.161 190.373 128.434 190.491 128.89 190.348C129.729 190.092 129.053 187.677 128.153 186.916C127.253 186.154 118.225 181.85 118.225 181.85V181.593L113.11 181.504L102.856 181.349Z" fill="#099AF6"/>
<path d="M128.641 189.416C124.63 189.212 108.418 188.773 104.436 188.879C104.403 188.879 104.403 188.903 104.436 188.903C108.41 189.192 124.622 189.502 128.641 189.481C128.727 189.481 128.727 189.42 128.641 189.416Z" fill="#263238"/>
<path opacity="0.1" d="M113.11 181.504C113.485 184.077 114.059 187.873 114.478 190.137C121.161 190.373 128.434 190.491 128.89 190.349C129.729 190.092 129.053 187.677 128.153 186.916C127.253 186.154 118.225 181.85 118.225 181.85V181.593L113.11 181.504Z" fill="black"/>
<path d="M101.471 181.569L118.717 181.736C118.717 181.736 119.695 153.637 119.768 144.296C119.853 133.598 119.247 101.537 119.247 101.537H106.354C106.354 101.537 102.897 108.611 104.872 116.564L105.417 145.188L101.471 181.569Z" fill="#263238"/>
<path d="M102.75 178.551C103.205 178.49 103.663 178.453 104.123 178.441C104.632 178.405 105.141 178.368 105.65 178.348C106.631 178.303 107.612 178.287 108.594 178.282C110.577 178.282 112.556 178.282 114.535 178.352C115.663 178.388 116.787 178.433 117.911 178.498C117.956 178.498 117.952 178.568 117.911 178.568C115.948 178.641 113.981 178.669 112.019 178.71C110.056 178.751 108.093 178.783 106.134 178.747C105.568 178.747 105.006 178.747 104.444 178.698C103.882 178.649 103.308 178.698 102.758 178.616C102.726 178.612 102.71 178.559 102.75 178.551Z" fill="#37474F"/>
<path d="M117.475 163.052C117.675 158.41 117.825 153.763 117.952 149.121C118.204 139.828 118.271 130.534 118.151 121.239C118.086 116.026 117.948 110.814 117.793 105.601C117.793 105.54 117.878 105.544 117.882 105.601C118.375 114.931 118.567 124.28 118.575 133.622C118.583 142.964 118.404 152.216 117.931 161.488C117.675 166.697 117.357 171.913 116.868 177.105C116.868 177.15 116.795 177.15 116.795 177.105C117.007 172.426 117.272 167.743 117.475 163.052Z" fill="#37474F"/>
<path d="M121.715 167.902C121.715 167.902 121.845 183.495 121.845 183.507C121.845 186.488 121.914 189.102 122.073 190.45C122.07 190.457 122.07 190.464 122.073 190.471C122.073 190.791 122.15 191.106 122.297 191.391C122.295 191.398 122.295 191.405 122.297 191.411C123.185 192.01 147.015 192.633 147.854 192.368C148.693 192.104 148.025 189.701 147.117 188.939C146.209 188.178 137.189 183.861 137.189 183.861L136.912 168.277L121.715 167.902Z" fill="#EB9481"/>
<path d="M121.816 180.302C121.816 180.302 121.845 183.495 121.845 183.507C121.845 186.488 121.914 189.102 122.073 190.45C122.07 190.457 122.07 190.464 122.073 190.471C122.11 190.785 122.186 191.094 122.297 191.391C122.295 191.398 122.295 191.405 122.297 191.411C123.184 192.01 147.015 192.633 147.854 192.368C148.693 192.104 148.025 189.701 147.117 188.939C146.209 188.178 137.189 183.861 137.189 183.861L137.209 180.604L121.816 180.302Z" fill="white"/>
<path d="M138.671 183.885C137.083 183.625 135.157 183.906 133.972 185.058C133.927 185.103 133.972 185.168 134.041 185.152C135.54 184.632 137.091 184.274 138.667 184.085C138.69 184.081 138.711 184.069 138.726 184.051C138.741 184.033 138.75 184.01 138.751 183.987C138.751 183.963 138.743 183.94 138.729 183.922C138.714 183.903 138.694 183.89 138.671 183.885Z" fill="#263238"/>
<path d="M139.828 184.533C138.24 184.272 136.314 184.553 135.129 185.706C135.084 185.751 135.129 185.816 135.198 185.799C136.697 185.279 138.248 184.922 139.824 184.733C139.847 184.728 139.868 184.716 139.883 184.698C139.898 184.681 139.907 184.658 139.908 184.634C139.908 184.611 139.9 184.588 139.886 184.57C139.871 184.551 139.851 184.538 139.828 184.533Z" fill="#263238"/>
<path d="M140.984 185.197C139.396 184.936 137.466 185.197 136.285 186.37C136.236 186.415 136.285 186.48 136.354 186.464C137.853 185.943 139.404 185.586 140.98 185.397C141.003 185.392 141.024 185.38 141.039 185.363C141.055 185.345 141.063 185.322 141.064 185.299C141.064 185.275 141.056 185.252 141.042 185.234C141.027 185.215 141.007 185.202 140.984 185.197Z" fill="#263238"/>
<path d="M147.874 192.368C147.035 192.629 123.209 192.01 122.317 191.411C121.975 191.187 121.861 187.71 121.845 183.507C121.845 183.462 121.845 183.418 121.845 183.373L137.221 183.601V183.861C137.221 183.861 146.233 188.178 147.145 188.94C148.058 189.701 148.717 192.116 147.874 192.368Z" fill="#099AF6"/>
<path d="M147.63 191.44C143.615 191.236 127.408 190.796 123.421 190.902C123.392 190.902 123.388 190.902 123.421 190.927C127.395 191.216 143.611 191.521 147.63 191.505C147.724 191.505 147.724 191.444 147.63 191.44Z" fill="#263238"/>
<path d="M113.835 118.022C113.835 118.022 120.909 140.321 121.039 144.418C121.145 147.912 120.701 183.764 120.701 183.764L138.619 183.869C138.619 183.869 137.108 147.309 136.827 143.668C136.306 136.86 130.34 118.168 126.076 101.517H106.758C106.758 101.517 106.925 110.24 110.891 116.543C110.891 116.543 112.703 117.374 113.835 118.022Z" fill="#263238"/>
<path d="M26.3545 216.825H220.287" stroke="#263238" stroke-width="0.716941"/>
<path d="M121.662 180.461C123.73 180.4 125.876 180.339 127.945 180.392C130.014 180.445 132.058 180.473 134.106 180.595C135.267 180.665 136.427 180.705 137.588 180.819C137.625 180.819 137.625 180.88 137.588 180.88C135.519 181.003 133.443 180.978 131.374 180.958C129.305 180.937 127.265 180.917 125.213 180.823C124.048 180.77 122.891 180.713 121.731 180.632C121.592 180.628 121.527 180.465 121.662 180.461Z" fill="#37474F"/>
<path d="M123.946 105.259C124.586 107.389 132.498 136.615 133.312 140.859C134.127 145.102 135.23 172.964 135.153 177.431C135.153 177.985 135.133 178.539 135.112 179.093C135.112 179.104 135.108 179.114 135.1 179.122C135.093 179.129 135.082 179.133 135.072 179.133C135.061 179.133 135.05 179.129 135.043 179.122C135.035 179.114 135.031 179.104 135.031 179.093C134.909 174.654 133.724 145.415 132.962 141.062C132.249 136.786 124.366 107.735 123.816 105.292C123.816 105.276 123.821 105.261 123.831 105.249C123.84 105.237 123.853 105.228 123.868 105.225C123.883 105.221 123.899 105.222 123.913 105.229C123.927 105.235 123.939 105.246 123.946 105.259Z" fill="#37474F"/>
<path d="M118.265 118.453C117.374 118.447 116.484 118.366 115.606 118.213C114.735 118.024 113.875 117.788 113.028 117.509C112.195 117.32 111.35 117.184 110.499 117.101C109.643 116.977 108.809 116.728 108.024 116.364C107.987 116.364 107.958 116.401 107.995 116.417C108.756 116.828 109.55 117.172 110.369 117.447C111.216 117.716 112.104 117.753 112.967 117.965C113.837 118.223 114.723 118.427 115.618 118.575C116.501 118.683 117.395 118.667 118.273 118.527C118.31 118.506 118.298 118.453 118.265 118.453Z" fill="#37474F"/>
<path d="M119.393 136.192C119.222 135.528 119.063 134.869 118.884 134.209C118.522 132.877 118.155 131.546 117.752 130.226C116.938 127.604 116.196 124.965 115.353 122.359C114.873 120.877 114.441 119.382 113.879 117.928C113.877 117.921 113.871 117.915 113.864 117.911C113.857 117.908 113.848 117.907 113.841 117.91C113.833 117.913 113.827 117.918 113.823 117.926C113.82 117.933 113.82 117.941 113.822 117.949C114.107 119.301 114.506 120.624 114.865 121.956C115.223 123.287 115.606 124.615 115.993 125.942C116.754 128.573 117.504 131.212 118.338 133.826C118.569 134.559 118.811 135.29 119.063 136.017C119.32 136.758 119.523 137.524 119.833 138.245C119.853 138.285 119.906 138.269 119.898 138.245C119.78 137.54 119.568 136.868 119.393 136.192Z" fill="#37474F"/>
<path d="M121.511 79.9179C120.216 80.0889 117.985 77.7474 117.288 76.09C117.414 75.2159 117.584 74.3488 117.797 73.4919C117.964 72.6775 118.127 71.7286 118.205 70.8694L123.462 72.7345C123.044 73.7815 122.756 74.8755 122.603 75.9922C122.594 76.1102 122.594 76.2286 122.603 76.3465C122.603 76.3465 122.603 76.3832 122.603 76.4076C122.66 77.0795 122.765 79.755 121.511 79.9179Z" fill="#EB9481"/>
<path d="M117.341 75.6624C120.102 76.5909 122.101 75.0353 123.014 74.0824C123.238 73.3086 123.474 72.7345 123.474 72.7345L118.217 70.8694C118.127 71.7286 117.964 72.6612 117.809 73.4919C117.614 74.4041 117.427 75.1982 117.341 75.6624Z" fill="#263238"/>
<path d="M125.103 64.5331C125.759 66.4307 124.948 72.0178 123.625 73.3046C121.711 75.1738 118.473 75.4629 116.861 73.1377C115.301 70.8817 116.486 63.6209 117.972 62.44C120.159 60.7011 124.134 61.7192 125.103 64.5331Z" fill="#EB9481"/>
<path d="M119.601 68.0881C119.601 68.0881 119.629 68.1085 119.625 68.1248C119.564 68.4994 119.56 68.9392 119.886 69.1103C119.886 69.1103 119.886 69.1347 119.886 69.1103C119.471 69.0207 119.483 68.4343 119.601 68.0881Z" fill="#263238"/>
<path d="M119.988 67.7378C120.603 67.7663 120.493 68.992 119.927 68.9595C119.361 68.9269 119.475 67.7093 119.988 67.7378Z" fill="#263238"/>
<path d="M117.476 67.8967C117.476 67.8967 117.443 67.8967 117.443 67.9252C117.443 68.308 117.333 68.7397 116.979 68.8333V68.8578C117.402 68.8333 117.516 68.2592 117.476 67.8967Z" fill="#263238"/>
<path d="M117.182 67.469C116.576 67.3712 116.425 68.5888 116.983 68.6906C117.541 68.7924 117.679 67.5545 117.182 67.469Z" fill="#263238"/>
<path d="M120.521 67.2207C120.358 67.1637 120.216 67.0822 120.061 67.013C119.906 66.9438 119.735 66.8827 119.654 66.7076C119.63 66.6556 119.623 66.597 119.636 66.5411C119.648 66.4851 119.679 66.4349 119.723 66.3981C119.822 66.3409 119.934 66.3108 120.049 66.3108C120.163 66.3108 120.276 66.3409 120.375 66.3981C120.594 66.4818 120.774 66.6445 120.88 66.8542C120.901 66.9046 120.908 66.9604 120.898 67.0145C120.888 67.0686 120.862 67.1184 120.823 67.1577C120.785 67.197 120.736 67.224 120.682 67.2352C120.628 67.2464 120.572 67.2414 120.521 67.2207Z" fill="#263238"/>
<path d="M116.75 66.8134C116.921 66.8134 117.08 66.7605 117.247 66.732C117.426 66.7244 117.599 66.6603 117.74 66.5487C117.774 66.5029 117.793 66.4472 117.793 66.3899C117.793 66.3327 117.774 66.2769 117.74 66.2311C117.66 66.1488 117.56 66.0892 117.45 66.0584C117.34 66.0276 117.223 66.0268 117.113 66.056C116.878 66.0799 116.66 66.1902 116.502 66.3655C116.468 66.4084 116.447 66.4605 116.442 66.5152C116.438 66.5699 116.449 66.6247 116.476 66.6727C116.503 66.7207 116.543 66.7597 116.592 66.7848C116.64 66.8098 116.696 66.8198 116.75 66.8134Z" fill="#263238"/>
<path d="M119.402 70.3969C119.293 70.5384 119.156 70.6558 119 70.7413C118.844 70.8269 118.671 70.8788 118.493 70.8937C118.338 70.9163 118.18 70.9163 118.025 70.8937L117.94 70.8734L117.854 70.853C117.835 70.8469 117.819 70.835 117.807 70.8189C117.795 70.8028 117.789 70.7833 117.789 70.7634C117.787 70.7513 117.787 70.7389 117.789 70.7268V70.6779C117.809 70.3847 117.874 69.9449 117.874 69.9449C117.764 69.9897 117.198 70.1852 117.219 70.0345C117.37 68.7227 117.652 67.4294 118.062 66.174C118.064 66.1668 118.069 66.1606 118.075 66.1562C118.081 66.1518 118.089 66.1494 118.096 66.1494C118.104 66.1494 118.111 66.1518 118.118 66.1562C118.124 66.1606 118.128 66.1668 118.131 66.174C118.001 67.3957 117.659 68.5685 117.508 69.7861C117.708 69.7113 117.918 69.6661 118.131 69.6517C118.172 69.6517 117.988 70.5028 117.988 70.6331C118.225 70.6778 118.469 70.6745 118.705 70.6235C118.94 70.5724 119.164 70.4746 119.361 70.3358C119.402 70.3399 119.426 70.3684 119.402 70.3969Z" fill="#263238"/>
<path d="M118.212 70.7429C118.355 70.9648 118.551 71.1469 118.783 71.2723C118.909 71.334 119.051 71.3553 119.19 71.3334C119.499 71.2804 119.532 71.0035 119.495 70.7632C119.475 70.6337 119.441 70.5067 119.393 70.3845C119.047 70.625 118.634 70.7504 118.212 70.7429Z" fill="#263238"/>
<path d="M118.782 71.2725C118.909 71.3342 119.051 71.3555 119.19 71.3336C119.499 71.2806 119.532 71.0037 119.495 70.7634C119.336 70.7562 119.18 70.8024 119.051 70.8947C118.922 70.987 118.827 71.12 118.782 71.2725Z" fill="#FF98B9"/>
<path d="M123.645 68.2347C123.339 67.0741 124.121 65.2212 123.588 64.6756C122.439 63.4905 119.784 65.4289 118.062 65.3231C116.339 65.2172 115.908 64.1014 116.303 62.7698C116.698 61.4381 117.911 60.6074 119.805 60.4567C121.453 60.3806 123.075 60.8849 124.39 61.882C124.39 61.882 124.015 61.1775 124.19 60.978C124.366 60.7784 125.135 61.487 125.363 61.7924C125.529 62.0403 125.649 62.3163 125.718 62.6069C125.97 62.5618 126.228 62.5536 126.483 62.5824C126.853 62.6351 127.193 62.8151 127.444 63.0915C127.469 63.1973 126.854 63.2299 126.426 63.2218C126.426 63.2218 127.147 64.3335 127.069 65.2335C126.992 66.1334 125.29 70.3237 124.952 70.3482C124.512 70.3645 123.771 68.6908 123.645 68.2347Z" fill="#263238"/>
<path d="M126.272 63.0916C126.272 63.0916 126.235 63.0916 126.247 63.0916C126.638 63.4532 126.921 63.9174 127.062 64.4313C127.193 65.0503 127.155 65.6931 126.952 66.2923C126.543 67.431 126.015 68.5231 125.376 69.5501C125.374 69.5536 125.373 69.5574 125.372 69.5613C125.372 69.5652 125.372 69.5692 125.373 69.573C125.374 69.5768 125.376 69.5803 125.379 69.5834C125.381 69.5864 125.384 69.589 125.388 69.5908C125.391 69.5927 125.395 69.5939 125.399 69.5943C125.403 69.5947 125.407 69.5943 125.411 69.5931C125.415 69.592 125.418 69.5901 125.421 69.5876C125.424 69.5852 125.427 69.5821 125.429 69.5786C126.176 68.5047 126.75 67.3202 127.131 66.0683C127.4 65.0259 127.237 63.7553 126.272 63.0916Z" fill="#263238"/>
<path d="M123.697 64.2236C123.194 64.1299 122.678 64.1299 122.174 64.2236C121.707 64.3526 121.257 64.5386 120.835 64.7774C119.867 65.2809 118.778 65.5011 117.691 65.4127V65.433C118.68 65.5883 119.694 65.4466 120.603 65.0258C121.053 64.7904 121.518 64.5837 121.995 64.4068C122.551 64.2902 123.121 64.2627 123.685 64.3254C123.692 64.3262 123.699 64.3257 123.705 64.3239C123.712 64.322 123.718 64.319 123.723 64.3148C123.728 64.3106 123.733 64.3055 123.736 64.2996C123.739 64.2937 123.741 64.2873 123.742 64.2806C123.743 64.2739 123.743 64.2671 123.741 64.2607C123.739 64.2542 123.736 64.2481 123.732 64.2428C123.727 64.2375 123.722 64.2331 123.716 64.2298C123.711 64.2265 123.704 64.2244 123.697 64.2236Z" fill="#263238"/>
<path d="M123.397 61.3116C122.744 60.9266 122.039 60.6385 121.304 60.4565C120.604 60.2562 119.875 60.1804 119.149 60.2325C117.899 60.3465 116.706 61.0469 116.331 62.3093C116.127 62.9489 116.169 63.6417 116.45 64.2518C116.455 64.2583 116.462 64.2629 116.469 64.2649C116.477 64.2669 116.486 64.2662 116.493 64.263C116.501 64.2597 116.507 64.254 116.511 64.2468C116.515 64.2396 116.516 64.2313 116.515 64.2233C116.289 63.6639 116.251 63.0464 116.406 62.4635C116.561 61.8805 116.9 61.3635 117.374 60.9899C118.449 60.1755 119.874 60.2081 121.129 60.4972C121.909 60.6894 122.668 60.9623 123.393 61.3116C123.393 61.3116 123.401 61.3116 123.397 61.3116Z" fill="#263238"/>
<path d="M124.015 69.0981C124.015 69.0981 125.237 67.2819 126.051 67.7177C126.866 68.1534 125.974 70.7677 125.021 71.1424C124.903 71.1983 124.774 71.2297 124.643 71.2346C124.512 71.2396 124.381 71.218 124.259 71.1712C124.136 71.1245 124.025 71.0534 123.93 70.9624C123.836 70.8714 123.761 70.7622 123.71 70.6415L124.015 69.0981Z" fill="#EB9481"/>
<path d="M103.373 105.947C103.426 106.016 128.214 108.26 128.466 108.024C128.812 107.694 127.334 82.8903 122.907 77.8245C121.82 76.5743 117.972 75.0757 116.705 75.8535C113.419 77.8897 111.391 82.4546 110.092 85.1138C109.127 87.0847 107.889 90.4769 106.741 93.9627C104.847 99.7086 103.19 105.699 103.373 105.947Z" fill="#81AAE8"/>
<path d="M118.326 83.1471C118.393 83.57 118.519 83.9812 118.701 84.3688C118.876 84.7588 119.104 85.1232 119.377 85.452C119.312 85.0287 119.186 84.6171 119.002 84.2303C118.827 83.8402 118.6 83.4757 118.326 83.1471ZM122.496 99.3912C122.564 99.8144 122.691 100.226 122.875 100.613C123.046 101.006 123.274 101.373 123.551 101.7C123.408 100.852 123.045 100.057 122.496 99.3953V99.3912ZM112.202 98.6134C112.269 99.0367 112.396 99.4481 112.58 99.8351C112.751 100.229 112.98 100.594 113.261 100.918C113.194 100.495 113.065 100.083 112.878 99.6966C112.705 99.3053 112.477 98.9406 112.202 98.6134ZM105.149 103.736C105.995 103.589 106.788 103.224 107.449 102.678C106.603 102.822 105.809 103.187 105.149 103.736ZM121.938 90.8844C122.361 90.8176 122.773 90.6915 123.16 90.5097C123.552 90.3365 123.917 90.1074 124.243 89.8297C123.82 89.8972 123.409 90.0248 123.022 90.2084C122.63 90.3796 122.265 90.6073 121.938 90.8844ZM115.284 78.3216C115.707 78.2548 116.119 78.1287 116.506 77.9469C116.899 77.7735 117.265 77.5445 117.593 77.2668C116.748 77.4159 115.954 77.779 115.289 78.3216H115.284ZM122.366 80.1703C122.616 79.8241 122.816 79.4444 122.961 79.0423C123.063 78.7642 123.142 78.4782 123.197 78.1872L123.083 78.0324C122.909 78.3142 122.764 78.613 122.651 78.9242C122.496 79.3234 122.4 79.7433 122.366 80.1703ZM112.483 90.3509C112.733 90.0033 112.933 89.6222 113.077 89.2188C113.231 88.8205 113.327 88.4023 113.362 87.9768C113.113 88.3234 112.913 88.7031 112.768 89.1048C112.613 89.5072 112.518 89.9295 112.483 90.359V90.3509ZM110.939 106.64L111.172 106.66C111.205 106.501 111.227 106.339 111.237 106.176C111.123 106.331 111.024 106.496 110.939 106.668V106.64ZM126.259 107.597C126.509 107.251 126.709 106.871 126.854 106.469C127.009 106.07 127.105 105.65 127.139 105.223C126.645 105.925 126.342 106.743 126.259 107.597ZM106.472 94.7815C106.57 94.8276 106.668 94.8684 106.765 94.9036C107.165 95.0572 107.585 95.1532 108.011 95.1887C107.665 94.9382 107.283 94.7393 106.879 94.5982L106.57 94.4923L106.472 94.7815ZM116.921 104.628C117.623 105.123 118.441 105.427 119.296 105.508C118.949 105.259 118.57 105.06 118.168 104.917C117.768 104.761 117.349 104.663 116.921 104.628ZM116.107 94.8548C116.454 95.1058 116.835 95.306 117.239 95.4493C117.631 95.6024 118.042 95.6984 118.461 95.7344C117.76 95.2391 116.941 94.9358 116.087 94.8548H116.107ZM124.98 84.0023C125.188 84.1618 125.412 84.2983 125.648 84.4095C125.624 84.3036 125.595 84.2018 125.571 84.096C125.373 84.05 125.171 84.0214 124.968 84.0105L124.98 84.0023ZM111.64 82.0191C111.995 82.1495 112.366 82.229 112.743 82.2553C112.452 82.0395 112.133 81.8642 111.795 81.7341L111.64 82.0191Z" fill="white"/>
<path d="M120.733 81.726C127.09 83.2368 136.985 84.7313 140.243 82.6708C141.909 81.6161 145.777 72.3803 146.857 67.1963C147.138 65.8484 136.081 63.9589 135.731 65.3842C135.259 67.3063 134.151 73.3657 133.606 74.3186C133.292 74.8643 126.276 75.6788 120.623 76.5747C113.994 77.6334 115.574 80.5003 120.733 81.726Z" fill="#EB9481"/>
<path d="M137.543 53.6927C137.811 53.7193 138.068 53.8117 138.291 53.9616C138.514 54.1116 138.696 54.3144 138.822 54.552C139.151 54.1361 139.615 53.848 140.133 53.7375C141.058 53.5787 141.709 54.9592 141.709 54.9592C142.141 54.5956 142.671 54.37 143.232 54.3117C144.132 54.2506 144.992 55.5334 144.992 55.5334C145.276 55.4442 145.578 55.4224 145.873 55.4698C146.167 55.5171 146.447 55.6323 146.69 55.8062C148.404 57.2437 147.867 65.0909 146.49 68.2224L136.02 66.6424C136.02 66.6424 134.616 60.7295 134.848 58.9052C135.035 57.4025 135.915 53.538 137.543 53.6927Z" fill="#EB9481"/>
<path d="M138.765 54.5765C138.229 56.1744 137.892 57.8319 137.759 59.512C137.759 59.5487 137.812 59.5568 137.816 59.512C137.987 57.8831 138.606 56.2217 138.842 54.5887C138.863 54.552 138.793 54.5358 138.765 54.5765Z" fill="#263238"/>
<path d="M141.575 54.9876C141.472 55.3576 141.42 55.7398 141.42 56.1238C141.392 56.531 141.375 56.9382 141.359 57.3454C141.335 58.1599 141.328 58.9743 141.339 59.7888C141.339 59.8254 141.396 59.8336 141.4 59.7888C141.424 58.9743 141.465 58.1599 141.53 57.3454C141.559 56.9382 141.595 56.531 141.632 56.1238C141.692 55.7455 141.71 55.3617 141.685 54.9795C141.681 54.9676 141.673 54.9574 141.662 54.9504C141.652 54.9435 141.639 54.9403 141.627 54.9412C141.614 54.9421 141.602 54.9472 141.593 54.9556C141.584 54.964 141.577 54.9752 141.575 54.9876Z" fill="#263238"/>
<path d="M144.979 55.578C144.893 55.9128 144.865 56.2597 144.894 56.6042C144.894 56.9748 144.894 57.3453 144.894 57.7159C144.873 58.457 144.857 59.1982 144.812 59.9353C144.812 59.976 144.869 59.98 144.869 59.9353C144.918 59.186 144.975 58.4326 145.016 57.6833C145.036 57.3127 145.057 56.9422 145.073 56.5757C145.119 56.2392 145.105 55.8974 145.032 55.5658C145.032 55.5658 144.987 55.5617 144.979 55.578Z" fill="#263238"/>
<path d="M129.623 84.6824L129.216 74.7258C129.216 74.7258 122.268 75.1738 118.331 76.6194C114.393 78.0651 115.733 80.2111 119.552 81.7015C123.372 83.192 129.623 84.6824 129.623 84.6824Z" fill="#099AF6"/>
<path d="M127.99 75.2431C127.591 75.0876 127.171 74.9915 126.744 74.958C127.091 75.209 127.472 75.4092 127.876 75.5526C128.274 75.7076 128.692 75.8036 129.118 75.8376C128.773 75.585 128.393 75.3847 127.99 75.2431ZM122.651 78.9081C122.498 79.3078 122.402 79.7274 122.366 80.1542C122.616 79.8065 122.817 79.4255 122.961 79.0221C123.113 78.6303 123.208 78.219 123.246 77.8004C122.996 78.1471 122.796 78.5267 122.651 78.9284V78.9081ZM129.46 80.822C129.111 80.8952 128.772 81.0086 128.45 81.16C128.057 81.3317 127.691 81.5594 127.363 81.836C127.786 81.7692 128.197 81.6431 128.584 81.4613C128.897 81.3217 129.193 81.1483 129.468 80.9442L129.46 80.822ZM116.555 77.5642C116.374 77.7151 116.221 77.8971 116.103 78.1018C116.237 78.0529 116.372 78 116.51 77.9429C116.903 77.7696 117.27 77.5406 117.598 77.2629C117.238 77.3177 116.887 77.4204 116.555 77.5683V77.5642Z" fill="white"/>
<path d="M127.428 75.3122C127.381 78.1367 127.527 80.9612 127.864 83.7661H127.929C127.949 81.4531 127.64 76.8433 127.521 75.3122C127.526 75.2836 127.428 75.2836 127.428 75.3122Z" fill="#263238"/>
<path d="M129.57 83.4324C129.635 83.8397 129.672 84.2469 129.725 84.6785V84.8089L129.582 84.7804C128.711 84.5971 127.839 84.422 126.976 84.2102C126.113 83.9985 125.249 83.7786 124.394 83.5343C123.539 83.2899 122.684 83.0374 121.845 82.7442C121.006 82.451 120.163 82.1578 119.344 81.7954L121.926 82.4714C122.786 82.6954 123.645 82.9193 124.5 83.1515L127.069 83.8519C127.925 84.0799 128.776 84.3446 129.631 84.5849L129.509 84.6867C129.541 84.2672 129.541 83.8519 129.57 83.4324Z" fill="#263238"/>
<path d="M121.608 82.5689C121.291 82.646 120.963 82.6667 120.639 82.6299C120.314 82.6005 119.999 82.5064 119.711 82.353C119.874 82.353 120.032 82.3734 120.191 82.3856L120.66 82.4263C120.978 82.4565 121.295 82.5041 121.608 82.5689Z" fill="#263238"/>
<path d="M61.0591 181.487C59.6582 180.73 57.7605 180.375 56.2823 181.08C56.2253 181.104 56.2823 181.186 56.3149 181.186C57.8849 181.18 59.4509 181.344 60.9858 181.674C61.0094 181.68 61.0342 181.676 61.0556 181.665C61.0771 181.653 61.0937 181.635 61.1025 181.612C61.1114 181.59 61.1118 181.565 61.1039 181.542C61.0959 181.519 61.08 181.499 61.0591 181.487Z" fill="#263238"/>
<path d="M61.9267 182.481C60.5259 181.723 58.6282 181.369 57.15 182.074C57.093 182.098 57.15 182.179 57.1826 182.179C58.7552 182.172 60.324 182.334 61.8616 182.664C61.8833 182.665 61.9047 182.659 61.9227 182.647C61.9407 182.635 61.9544 182.617 61.9617 182.596C61.969 182.576 61.9695 182.554 61.9632 182.533C61.9569 182.512 61.9441 182.494 61.9267 182.481Z" fill="#263238"/>
<path d="M62.794 183.479C61.3932 182.721 59.4955 182.367 58.0173 183.071C57.9603 183.096 58.0173 183.177 58.054 183.177C59.6256 183.174 61.1931 183.34 62.7289 183.674C62.7548 183.683 62.7831 183.681 62.8075 183.668C62.832 183.656 62.8506 183.635 62.8592 183.609C62.8678 183.583 62.8658 183.555 62.8536 183.53C62.8414 183.506 62.82 183.487 62.794 183.479Z" fill="#263238"/>
<path d="M63.6655 184.468C62.2606 183.711 60.367 183.356 58.8848 184.061C58.8277 184.085 58.8848 184.167 58.9214 184.167C60.4931 184.163 62.0605 184.33 63.5963 184.664C63.6222 184.673 63.6507 184.671 63.6756 184.659C63.7004 184.648 63.7195 184.626 63.7287 184.6C63.7378 184.575 63.7363 184.546 63.7245 184.521C63.7127 184.496 63.6915 184.477 63.6655 184.468Z" fill="#263238"/>
<path d="M64.9197 178.922C64.5939 177.928 63.3845 177.94 62.5945 178.262C61.2489 178.843 60.0793 179.767 59.2023 180.941C59.1973 180.945 59.1932 180.95 59.1903 180.956C59.1875 180.961 59.186 180.968 59.186 180.974C59.186 180.98 59.1875 180.987 59.1903 180.992C59.1932 180.998 59.1973 181.003 59.2023 181.007C59.1697 181.121 59.2308 181.275 59.3734 181.267C60.7538 181.206 62.2239 181.312 63.5515 180.831C64.3374 180.55 65.2292 179.862 64.9197 178.922ZM61.4624 180.75C60.7864 180.795 60.1145 180.807 59.4263 180.88C60.0901 180.359 60.7253 179.813 61.4624 179.357C61.8024 179.133 62.1575 178.933 62.5253 178.759C63.0994 178.498 65.1315 178.201 64.3415 179.752C63.9017 180.628 62.2687 180.693 61.4624 180.75Z" fill="#263238"/>
<path d="M55.5373 179.337C56.6002 180.253 58.0214 180.681 59.2879 181.226C59.3168 181.236 59.3476 181.239 59.3778 181.234C59.408 181.23 59.4367 181.218 59.4614 181.2C59.4861 181.182 59.5061 181.158 59.5199 181.131C59.5336 181.104 59.5406 181.074 59.5403 181.043C59.5469 181.043 59.5534 181.042 59.5594 181.039C59.5653 181.037 59.5705 181.033 59.5745 181.027C59.5785 181.022 59.5812 181.016 59.5823 181.01C59.5835 181.003 59.583 180.997 59.5811 180.99C59.1792 179.582 58.4138 178.304 57.3617 177.285C56.7386 176.698 55.6147 176.258 54.955 177.073C54.2953 177.887 54.9184 178.799 55.5373 179.337ZM55.2075 178.058C55.0202 176.328 56.8364 177.325 57.2436 177.773C57.5228 178.069 57.7839 178.382 58.0255 178.71C58.5304 179.39 58.9336 180.127 59.3693 180.848C58.7625 180.542 58.1476 180.29 57.5205 180.009C56.8038 179.671 55.3093 178.999 55.2075 178.058Z" fill="#263238"/>
<path d="M45.349 179.353C45.2594 179.895 45.1698 180.424 45.0884 180.937C44.5508 184.232 44.2332 186.773 44.4816 187.005C45.239 187.726 67.9742 192.299 68.8253 192.185C69.6764 192.071 69.428 189.652 68.6869 188.772C68.2349 188.239 65.1278 185.942 62.7618 184.228C61.2388 183.128 60.0253 182.261 60.0253 182.261L64.5862 167.519L49.299 164.502C49.299 164.502 45.5119 178.482 45.349 179.353Z" fill="#FFC4C0"/>
<path d="M68.8253 192.185C67.9742 192.287 45.239 187.726 44.4816 187.005C44.2332 186.769 44.5508 184.232 45.0884 180.938C45.1698 180.429 45.2553 179.895 45.349 179.354C45.4019 179.048 45.9028 177.142 46.5259 174.793C48.7411 175.233 57.6308 177.02 61.4017 177.778L60.0171 182.257C60.0171 182.257 61.2388 183.12 62.7537 184.224C65.1196 185.938 68.2267 188.231 68.6747 188.769C69.424 189.652 69.6724 192.075 68.8253 192.185Z" fill="#EBEBEB"/>
<path d="M69.0124 192.332C68.4504 192.397 58.5916 190.438 51.4448 188.834C49.7915 188.463 48.2848 188.109 47.0712 187.807C45.3976 187.4 44.2818 187.066 44.123 186.916C43.846 186.647 45.589 177.325 45.8944 176.246L61.0105 179.374L60.1227 182.167C60.1227 182.167 68.1287 187.934 68.8902 188.838C69.6517 189.742 69.8798 192.222 69.0124 192.332Z" fill="#099AF6"/>
<path d="M68.6581 191.289C64.7772 190.401 49.0544 187.143 45.1532 186.549C45.1206 186.549 45.1165 186.549 45.1532 186.573C48.9729 187.551 64.7243 190.67 68.6418 191.354C68.7232 191.366 68.7232 191.309 68.6581 191.289Z" fill="#263238"/>
<path d="M64.5654 175.798C64.7283 175.721 69.1589 156.703 71.1787 148.95C74.0944 137.759 76.9205 119.52 77.7676 115.721C79.5161 111.346 80.7038 106.768 81.3023 102.095H62.9202C62.9202 102.095 58.1028 111.31 60.5787 117.826C60.8068 118.425 57.3698 141.445 55.5902 145.187C54.055 148.412 47.0386 172.031 47.0386 172.031L64.5654 175.798Z" fill="#37474F"/>
<path d="M64.4679 171.901C64.0199 171.739 63.5394 171.657 63.0752 171.535C62.6109 171.413 62.0938 171.287 61.601 171.177C60.6155 170.953 59.6301 170.741 58.6446 170.525C56.6696 170.097 54.6905 169.711 52.7114 169.303C52.1684 169.192 51.6254 169.086 51.0825 168.986C50.5478 168.855 50.0028 168.772 49.4536 168.737C49.4485 168.74 49.4442 168.744 49.4413 168.749C49.4383 168.754 49.4368 168.76 49.4368 168.766C49.4368 168.772 49.4383 168.777 49.4413 168.782C49.4442 168.787 49.4485 168.792 49.4536 168.794C49.902 168.962 50.3638 169.092 50.8341 169.181C51.3227 169.303 51.8155 169.417 52.3082 169.527C53.2774 169.747 54.2466 169.971 55.2198 170.183C57.1745 170.59 59.1332 171.042 61.0961 171.441C61.654 171.551 62.2078 171.665 62.7697 171.759C63.3317 171.853 63.8855 171.999 64.4475 172.04C64.4964 172.036 64.5493 171.93 64.4679 171.901Z" fill="#263238"/>
<path d="M72.9582 114.878C72.6039 116.792 72.3107 118.718 71.9931 120.636C71.8342 121.617 71.6184 122.586 71.4555 123.564C71.2926 124.541 71.142 125.486 70.9872 126.447C70.3628 130.315 69.7452 134.183 69.1344 138.049C68.8303 139.971 68.5222 141.89 68.21 143.807C67.9231 145.698 67.5357 147.572 67.0494 149.422C66.5444 151.271 65.9499 153.087 65.3838 154.924L63.6531 160.552C62.5089 164.282 62.6717 164.917 61.6455 168.696C61.5193 169.164 61.389 169.633 61.2383 170.101C61.2379 170.111 61.2411 170.122 61.2474 170.13C61.2537 170.138 61.2626 170.144 61.2727 170.146C61.2828 170.149 61.2934 170.148 61.3027 170.143C61.3121 170.138 61.3195 170.131 61.3238 170.121C62.5903 166.424 62.4152 165.789 63.5921 162.058C64.7689 158.328 65.9743 154.631 67.0942 150.9C67.6369 149.085 68.0707 147.238 68.3932 145.37C68.719 143.448 69.004 141.522 69.3135 139.596C69.9216 135.73 70.5393 131.863 71.1664 127.994C71.4677 126.097 71.8017 124.195 72.0378 122.293C72.2822 120.314 72.6243 118.347 72.9175 116.376C72.9908 115.892 73.06 115.411 73.1251 114.926C73.1251 114.817 72.9785 114.772 72.9582 114.878Z" fill="#263238"/>
<path d="M88.7664 182.754C87.1986 182.452 85.2846 182.68 84.0793 183.788C84.0345 183.833 84.0793 183.898 84.1485 183.882C85.6473 183.407 87.1928 183.096 88.7582 182.953C88.7815 182.95 88.8028 182.938 88.8185 182.92C88.8342 182.903 88.8433 182.88 88.8442 182.857C88.8452 182.833 88.8379 182.81 88.8238 182.791C88.8096 182.772 88.7893 182.759 88.7664 182.754Z" fill="#263238"/>
<path d="M89.8992 183.442C88.3355 183.141 86.4174 183.369 85.2161 184.476C85.1673 184.521 85.2161 184.586 85.2813 184.57C86.7828 184.096 88.331 183.784 89.8992 183.642C89.9222 183.637 89.9429 183.624 89.9578 183.606C89.9726 183.588 89.9807 183.565 89.9807 183.542C89.9807 183.518 89.9726 183.496 89.9578 183.477C89.9429 183.459 89.9222 183.447 89.8992 183.442Z" fill="#263238"/>
<path d="M91.0145 184.13C89.4508 183.829 87.5368 184.057 86.3315 185.165C86.2867 185.209 86.3315 185.275 86.4007 185.258C87.8995 184.784 89.445 184.473 91.0104 184.33C91.0336 184.326 91.0545 184.314 91.0698 184.296C91.085 184.278 91.0936 184.255 91.0941 184.232C91.0946 184.208 91.0869 184.185 91.0724 184.167C91.0579 184.148 91.0375 184.135 91.0145 184.13Z" fill="#263238"/>
<path d="M92.1424 184.818C90.5786 184.517 88.6606 184.745 87.4593 185.853C87.4104 185.897 87.4593 185.963 87.5245 185.946C89.0233 185.473 90.5688 185.161 92.1342 185.018C92.1575 185.014 92.1788 185.003 92.1945 184.985C92.2101 184.967 92.2192 184.945 92.2202 184.921C92.2211 184.898 92.2139 184.875 92.1997 184.856C92.1855 184.837 92.1653 184.824 92.1424 184.818Z" fill="#263238"/>
<path d="M91.6788 179.154C91.068 178.303 89.9196 178.673 89.264 179.219C88.15 180.174 87.3072 181.406 86.8207 182.79C86.8181 182.796 86.8169 182.803 86.8172 182.809C86.8175 182.815 86.8193 182.822 86.8225 182.827C86.8257 182.833 86.8301 182.837 86.8355 182.841C86.8408 182.844 86.8469 182.847 86.8532 182.847C86.8532 182.965 86.9632 183.096 87.0976 183.047C88.3966 182.575 89.8382 182.232 90.9499 181.377C91.6137 180.881 92.2571 179.956 91.6788 179.154ZM88.9301 181.931C88.2989 182.175 87.6595 182.391 87.0365 182.66C87.5129 181.968 87.9568 181.255 88.5025 180.624C88.7594 180.307 89.0384 180.009 89.3373 179.732C89.8056 179.325 91.6585 178.421 91.3734 180.139C91.2105 181.068 89.6834 181.634 88.9301 181.931Z" fill="#263238"/>
<path d="M82.8539 182.359C84.1407 182.917 85.623 182.896 86.9953 183.039C87.0258 183.039 87.056 183.033 87.0834 183.019C87.1109 183.006 87.1348 182.987 87.1534 182.963C87.172 182.939 87.1847 182.91 87.1905 182.88C87.1963 182.851 87.195 182.82 87.1867 182.79C87.1912 182.786 87.1947 182.781 87.1971 182.776C87.1995 182.77 87.2008 182.764 87.2008 182.758C87.2008 182.752 87.1995 182.746 87.1971 182.74C87.1947 182.734 87.1912 182.729 87.1867 182.725C86.38 181.501 85.2666 180.51 83.9575 179.85C83.1878 179.484 81.9824 179.398 81.5996 180.371C81.2169 181.345 82.1005 182.033 82.8539 182.359ZM82.1616 181.239C81.4653 179.643 83.4769 180.058 84.0348 180.351C84.3918 180.547 84.7347 180.767 85.061 181.011C85.7492 181.508 86.3519 182.09 86.9831 182.64C86.3153 182.53 85.6434 182.477 84.9674 182.391C84.157 182.298 82.5363 182.118 82.1616 181.239Z" fill="#263238"/>
<path d="M73.0804 180.95C73.0804 181.878 73.4876 191.167 73.7686 191.346C74.6523 191.908 97.8436 191.973 98.654 191.708C99.4643 191.444 98.7558 189.106 97.8395 188.389C97.2939 187.95 93.804 186.3 91.1489 185.079C89.4426 184.293 88.0825 183.682 88.0825 183.682L88.1558 180.958L88.3675 168.566H73.056C73.056 168.566 72.9786 174.927 73.0804 180.95Z" fill="#FFC4C0"/>
<path d="M98.658 191.709C97.8435 191.973 74.6522 191.904 73.7726 191.346C73.4835 191.163 73.0926 181.878 73.0803 180.954C73.0803 180.339 73.0803 179.732 73.0559 179.105H88.2005L88.1679 180.954L88.0906 183.67L91.1569 185.071C93.808 186.292 97.2979 187.95 97.8476 188.386C98.7557 189.106 99.4643 191.44 98.658 191.709Z" fill="#EBEBEB"/>
<path d="M99.204 191.896C98.6665 192.075 88.6162 192.075 81.2862 191.896C79.5922 191.855 78.0285 191.802 76.8068 191.745C75.0842 191.66 73.9277 191.562 73.7404 191.44C73.4146 191.232 72.9545 181.748 73.0441 180.632L88.3638 180.709L88.4208 183.629C88.4208 183.629 97.4815 187.754 98.4059 188.491C99.3303 189.229 100.035 191.623 99.204 191.896Z" fill="#099AF6"/>
<path d="M98.6503 190.947C94.6718 190.825 78.615 190.707 74.6731 190.886C74.6446 190.886 74.6405 190.91 74.6731 190.91C78.615 191.118 94.6718 191.106 98.6503 191.012C98.7358 191.008 98.7358 190.947 98.6503 190.947Z" fill="#263238"/>
<path d="M70.3525 118.539C70.3525 118.539 72.9709 144.234 73.0116 144.837C73.0116 145.077 71.8877 176.478 71.8877 176.478H89.2069C89.2069 176.478 88.5879 147.052 88.3232 143.424C88.2947 143.017 87.1748 116.881 82.1334 102.095H62.8962C62.8962 102.095 63.0632 110.781 67.0133 117.064C68.1526 117.494 69.2674 117.986 70.3525 118.539Z" fill="#37474F"/>
<path d="M88.1113 173.233C87.6348 173.164 87.1502 173.18 86.6697 173.155C86.1892 173.131 85.6639 173.107 85.1589 173.094C84.149 173.074 83.1228 173.066 82.1292 173.054C80.0931 173.029 78.0895 173.054 76.0697 173.054H74.4164C73.8598 173.033 73.3024 173.062 72.7508 173.139C72.7223 173.139 72.7264 173.192 72.7508 173.2C73.2223 173.274 73.6989 173.31 74.1761 173.306C74.6811 173.326 75.186 173.339 75.691 173.347C76.6846 173.367 77.6782 173.392 78.6759 173.404C80.6754 173.428 82.6789 173.465 84.6825 173.457C85.2526 173.457 85.8186 173.457 86.3887 173.436C86.9588 173.416 87.5289 173.436 88.0909 173.371C88.1642 173.359 88.1968 173.245 88.1113 173.233Z" fill="#263238"/>
<path d="M84.1982 146.275C83.7421 137.019 82.7688 127.803 81.5431 118.624C80.8752 113.595 80.0893 108.574 78.7292 103.679C78.7292 103.679 78.6925 103.679 78.6966 103.679C79.7572 108.157 80.5567 112.693 81.0911 117.264C81.6612 121.784 82.2069 126.313 82.667 130.849C83.5996 140.052 84.0149 149.288 84.0719 158.54C84.1045 163.744 83.9661 166.196 83.8195 171.396C83.8195 171.445 83.8928 171.441 83.8968 171.396C84.6502 162.144 84.638 155.543 84.1982 146.275Z" fill="#263238"/>
<path d="M83.2569 105.675C83.2569 105.667 83.2539 105.66 83.2486 105.655C83.2432 105.649 83.236 105.646 83.2284 105.646C83.2209 105.646 83.2136 105.649 83.2083 105.655C83.2029 105.66 83.1999 105.667 83.1999 105.675C83.2732 106.77 83.4605 107.963 82.9719 108.998C82.5443 109.906 81.7258 110.419 80.9724 111.034C80.9724 111.054 80.9724 111.091 81.005 111.083C82.0027 110.781 83.0004 110.227 83.3954 109.201C83.8352 108.065 83.5949 106.815 83.2569 105.675Z" fill="#263238"/>
<path d="M74.9171 117.973C74.1139 117.949 73.3101 117.976 72.5104 118.054C71.7272 118.095 70.942 118.082 70.1607 118.013C69.7688 117.973 69.3798 117.907 68.996 117.818C68.5888 117.724 68.2223 117.578 67.8273 117.468C67.4686 117.389 67.0959 117.403 66.7441 117.508C66.3369 117.602 65.9297 117.667 65.4858 117.724C64.5216 117.865 63.5441 117.889 62.5742 117.797C62.5375 117.797 62.5212 117.85 62.5742 117.859C63.3898 118.029 64.2208 118.115 65.0541 118.115C65.4811 118.106 65.9069 118.067 66.3287 118.001C66.716 117.888 67.1186 117.835 67.5219 117.846C67.9175 117.952 68.3064 118.081 68.6866 118.233C69.0739 118.342 69.4686 118.422 69.8675 118.473C70.6665 118.579 71.4743 118.604 72.2783 118.547C73.1852 118.526 74.0857 118.389 74.9578 118.14C74.9799 118.134 74.999 118.12 75.0108 118.101C75.0227 118.081 75.0263 118.058 75.0209 118.036C75.0155 118.014 75.0015 117.994 74.9821 117.983C74.9626 117.971 74.9392 117.967 74.9171 117.973Z" fill="#263238"/>
<path d="M72.592 138.998C72.44 137.334 72.2771 135.669 72.1033 134.005C71.7531 130.674 71.4233 127.343 71.0812 124.012C70.8857 122.123 70.7473 120.217 70.4378 118.344C70.4378 118.295 70.3523 118.295 70.3563 118.344C70.3808 120.013 70.56 121.683 70.7025 123.348C70.845 125.014 70.9916 126.679 71.1464 128.345C71.4599 131.676 71.7572 135.011 72.1481 138.338C72.2594 139.28 72.3762 140.23 72.4983 141.189C72.6246 142.133 72.7915 143.074 72.9056 144.019C72.9056 144.028 72.909 144.036 72.9151 144.042C72.9212 144.048 72.9295 144.051 72.9381 144.051C72.9468 144.051 72.9551 144.048 72.9612 144.042C72.9673 144.036 72.9707 144.028 72.9707 144.019C72.8241 142.349 72.7467 140.663 72.592 138.998Z" fill="#263238"/>
<path d="M72.7262 81.2087C72.8566 81.567 74.913 83.7416 76.5867 83.4525C77.1324 83.3588 76.7496 80.3576 76.7496 80.3576L76.77 80.1295L77.0835 76.941L73.1457 75.0515L72.5796 74.8071C72.5796 74.8071 72.5511 75.6867 72.5308 76.7781C72.5308 76.831 72.5308 76.8799 72.5308 76.9369C72.5308 76.9939 72.5308 77.055 72.5308 77.112V77.6088C72.5308 77.7391 72.5308 77.8613 72.5308 77.9916C72.5308 78.1219 72.5308 78.2563 72.5308 78.3988C72.5297 79.3389 72.595 80.2778 72.7262 81.2087Z" fill="#FFC4C0"/>
<path d="M72.5308 76.7861C72.9512 77.6194 73.5483 78.351 74.2804 78.9298C75.0126 79.5086 75.8622 79.9208 76.7699 80.1376L77.0835 76.949L73.1457 75.0595L72.5796 74.8152C72.5796 74.8152 72.5511 75.6866 72.5308 76.7861Z" fill="#263238"/>
<path d="M81.9787 97.074L82.1334 102.095H62.9207C62.9207 102.095 65.1848 87.2111 70.2507 81.7339C72.7836 78.9811 75.4753 79.4983 77.373 81.4204C77.8494 81.9091 83.0985 88.7504 83.7012 91.6417C84.2265 94.1664 81.9787 97.074 81.9787 97.074Z" fill="#81AAE8"/>
<path opacity="0.1" d="M82.1128 101.497H63.0222C63.0467 101.342 63.0792 101.163 63.1159 100.959H82.1006L82.1128 101.497ZM82.0517 99.4604H63.3969C63.3602 99.6477 63.3236 99.8269 63.291 99.9979H82.068L82.0517 99.4604ZM82.0069 97.9578H63.7104C63.6697 98.141 63.6331 98.3202 63.5964 98.4953H82.0232L82.0069 97.9578ZM64.0525 96.451C64.0118 96.6343 63.967 96.8135 63.9263 96.9886H82.0436C82.1209 96.8868 82.2513 96.6994 82.406 96.451H64.0525ZM64.4231 94.9484L64.2887 95.4859H82.9476C83.0372 95.3149 83.1186 95.1357 83.2001 94.9484H64.4231ZM64.8303 93.4457L64.6837 93.9833H83.5462C83.5951 93.8082 83.6399 93.629 83.6765 93.4457H64.8303ZM83.758 91.9431H65.2701C65.2131 92.1223 65.1601 92.3014 65.1072 92.4806H83.7906C83.7887 92.2995 83.7764 92.1187 83.7539 91.939L83.758 91.9431ZM83.31 90.4404H65.7506C65.6895 90.6196 65.6325 90.7988 65.5714 90.978H83.5136C83.4566 90.8029 83.3833 90.6318 83.306 90.4364L83.31 90.4404ZM82.5607 88.9337H66.28C66.2108 89.1129 66.1456 89.2921 66.0805 89.4753H82.8417C82.7562 89.2921 82.6585 89.1129 82.5689 88.9296L82.5607 88.9337ZM81.6771 87.4311H66.8786C66.8026 87.6102 66.7293 87.7894 66.6587 87.9686H82.0028C81.897 87.7867 81.787 87.6062 81.673 87.427L81.6771 87.4311ZM80.7079 85.9284H67.5505C67.465 86.1076 67.3795 86.2868 67.2981 86.4659H81.0581L80.7079 85.9284ZM79.6735 84.4258H68.3365C68.2347 84.6009 68.1329 84.78 68.0392 84.9633H80.04C79.9179 84.776 79.7916 84.5968 79.6695 84.4217L79.6735 84.4258ZM78.5781 82.9231H69.2812C69.155 83.0982 69.0369 83.2774 68.9188 83.4606H78.969L78.5781 82.9231ZM77.3931 81.4205H70.5314C70.4391 81.5128 70.3454 81.6105 70.2504 81.7137C70.1554 81.8168 70.0821 81.8983 70.0305 81.958H77.8329C77.6211 81.6729 77.4664 81.4978 77.389 81.4164L77.3931 81.4205ZM74.9009 79.9137H73.0602C72.6047 80.0248 72.1691 80.2062 71.7694 80.4513H76.1836C75.7841 80.2076 75.3504 80.0251 74.8968 79.9097L74.9009 79.9137Z" fill="#030402"/>
<path d="M75.699 85.6189C79.14 86.9383 91.9634 89.8744 94.6633 87.6306C98.9025 84.1081 102.217 77.7961 103.928 72.6203C104.518 70.8204 93.2177 69.2689 92.5987 71.3009C91.7843 73.9479 89.7481 78.7653 89.2065 79.592C88.6649 80.4186 80.9969 80.5571 75.8252 81.0417C71.5087 81.4448 71.3335 83.9493 75.699 85.6189Z" fill="#FFC4C0"/>
<path d="M93.9425 59.2756C94.2514 59.1715 94.5848 59.1644 94.8978 59.2554C95.2109 59.3464 95.4885 59.5311 95.6935 59.7846C96.029 59.3456 96.5072 59.0375 97.0455 58.9131C98.0065 58.7421 98.6988 60.1715 98.6988 60.1715C99.141 59.7875 99.6889 59.5461 100.271 59.4792C101.207 59.4059 102.111 60.7497 102.111 60.7497C102.713 60.6213 103.34 60.7138 103.879 61.0103C105.284 61.8655 105.316 64.374 105.357 65.9703C105.398 67.5666 104.009 72.1275 103.834 73.0234L94.0117 73.9722C94.0117 73.9722 90.9982 69.7371 91.6091 64.3699C91.7923 62.7736 92.7778 59.7113 93.9425 59.2756Z" fill="#FFC4C0"/>
<path d="M95.5306 59.854C94.9279 61.4829 94.8424 63.2177 94.6592 64.9362C94.6615 64.9424 94.6657 64.9478 94.6711 64.9516C94.6766 64.9554 94.6831 64.9574 94.6897 64.9574C94.6964 64.9574 94.7029 64.9554 94.7083 64.9516C94.7138 64.9478 94.7179 64.9424 94.7203 64.9362C94.8831 63.2218 95.38 61.5644 95.6121 59.8622C95.6202 59.8255 95.5469 59.8092 95.5306 59.854Z" fill="#263238"/>
<path d="M98.5645 60.2001C98.4627 60.5853 98.4134 60.9825 98.4179 61.381C98.3935 61.7882 98.3772 62.2239 98.365 62.6434C98.365 63.4863 98.365 64.3334 98.365 65.1763C98.365 65.213 98.422 65.2211 98.422 65.1763C98.4437 64.3347 98.4804 63.4931 98.532 62.6515C98.5591 62.2307 98.5917 61.8113 98.6297 61.3932C98.6879 60.9996 98.7016 60.6008 98.6704 60.2041C98.6654 60.1946 98.658 60.1866 98.6489 60.1808C98.6398 60.1751 98.6294 60.1718 98.6187 60.1714C98.6079 60.171 98.5972 60.1734 98.5877 60.1785C98.5782 60.1835 98.5702 60.1909 98.5645 60.2001Z" fill="#263238"/>
<path d="M102.116 60.7742C102.031 61.1245 102.005 61.4864 102.038 61.8452C102.038 62.2321 102.038 62.6148 102.038 63.0017C102.038 63.7714 102.018 64.5369 101.981 65.3066C101.981 65.3473 102.038 65.3514 102.038 65.3066C102.083 64.5247 102.136 63.7429 102.169 62.9651C102.169 62.5578 102.201 62.1954 102.214 61.8126C102.259 61.4636 102.242 61.1094 102.165 60.7661C102.164 60.7596 102.16 60.7538 102.155 60.75C102.149 60.7462 102.143 60.7446 102.136 60.7457C102.13 60.7468 102.124 60.7504 102.12 60.7557C102.116 60.7611 102.115 60.7677 102.116 60.7742Z" fill="#263238"/>
<path d="M90.2246 76.7864L99.3667 84.2263C99.3667 84.2263 95.889 88.156 93.9995 88.5592C92.11 88.9623 81.8846 88.3759 76.0817 86.0303C70.2788 83.6847 71.7611 81.4084 76.0003 80.9115C80.2395 80.4147 88.0948 79.4822 88.3513 79.3274C88.6079 79.1727 90.2246 76.7864 90.2246 76.7864Z" fill="#099AF6"/>
<path opacity="0.1" d="M76.9328 86.3521C76.645 86.2516 76.3641 86.1458 76.0899 86.0344C75.7926 85.9123 75.5116 85.7942 75.251 85.6761L72.3068 83.2694C72.2447 83.0475 72.2576 82.8113 72.3434 82.5975L76.9328 86.3521ZM73.4592 81.5754C73.2865 81.6566 73.1216 81.7534 72.9665 81.8645L79.3395 87.0729C79.7467 87.1747 80.1539 87.2724 80.5367 87.3579L73.4592 81.5754ZM75.1858 81.0419C74.9496 81.0867 74.7297 81.1356 74.518 81.1926L82.5688 87.7814C82.9271 87.8466 83.2855 87.9077 83.6438 87.9647L75.1858 81.0419ZM77.2219 80.7731L76.4767 80.8586L85.4641 88.1886C85.798 88.2334 86.132 88.2742 86.4577 88.3067L77.2219 80.7731ZM79.2947 80.5288L78.5576 80.6184L88.1966 88.4941L89.1291 88.5674L79.2947 80.5288ZM81.3675 80.2804L80.6304 80.37L90.7662 88.6529L91.6417 88.6773L81.3675 80.2804ZM83.4321 80.0238L82.695 80.1175L93.1403 88.6692C93.3942 88.6599 93.6472 88.634 93.8977 88.5918L83.4321 80.0238ZM85.4682 79.7632L84.7352 79.861L94.9158 88.1724C95.0746 88.0828 95.2334 87.981 95.3963 87.871L85.4682 79.7632ZM87.5043 79.4863L86.7794 79.5881L96.1781 87.2724C96.3207 87.1624 96.4632 87.0443 96.5854 86.9263L87.5043 79.4863ZM88.8766 78.6719C88.7545 78.8388 88.6445 78.9854 88.5509 79.0791L97.3306 86.2584L97.7378 85.8838L88.8766 78.6719ZM89.7522 77.4502L89.4427 77.89L98.4016 85.22L98.7721 84.8128L89.7522 77.4502Z" fill="#030402"/>
<path d="M97.2818 85.1465C94.8385 82.9923 92.3626 80.8422 89.7156 78.9364C89.7102 78.9326 89.7035 78.9311 89.697 78.9323C89.6906 78.9334 89.6848 78.9371 89.681 78.9425C89.6772 78.9479 89.6757 78.9546 89.6769 78.9611C89.678 78.9675 89.6817 78.9733 89.6871 78.9771C92.0653 81.2046 94.6552 83.2081 97.237 85.1913C97.2696 85.2157 97.3103 85.1709 97.2818 85.1465Z" fill="#263238"/>
<path d="M71.1952 68.035C71.0304 68.1598 70.8327 68.2336 70.6265 68.2474C70.4202 68.2611 70.2145 68.2142 70.0346 68.1124C69.5215 67.9088 68.8659 67.3794 68.308 67.75C67.6809 68.1572 67.9008 69.0653 68.198 69.6028C68.4858 70.0555 68.7416 70.5276 68.9636 71.0159C69.1398 71.4875 69.2308 71.9866 69.2324 72.49C69.2324 73.504 68.6786 74.4406 68.7437 75.4505C68.8292 76.6722 69.9654 77.5518 70.9346 78.1056C71.9038 78.6595 73.0847 78.8834 74.1923 79.2703C75.1221 79.6262 75.9474 80.2104 76.5922 80.969C77.2369 81.7276 77.6804 82.6363 77.8818 83.6113C77.992 84.09 78.0561 84.5782 78.0732 85.0691C78.0732 85.5944 78.0365 86.1238 78.0732 86.6491C78.0894 86.9469 78.1766 87.2364 78.3274 87.4935C78.4783 87.7507 78.6886 87.968 78.9406 88.1274C79.4217 88.3803 79.9445 88.5445 80.4839 88.612C80.501 88.6167 80.5164 88.6263 80.5283 88.6394C80.5402 88.6526 80.5481 88.6689 80.5511 88.6864C80.5541 88.7039 80.552 88.7219 80.5452 88.7383C80.5383 88.7546 80.527 88.7687 80.5124 88.7789C80.2187 88.9819 79.9112 89.1642 79.5921 89.3246C79.3169 89.4837 79.0126 89.5861 78.6972 89.626C78.3819 89.6659 78.0617 89.6423 77.7555 89.5567C77.0633 89.3124 76.6479 88.6649 76.2692 88.0785C75.8531 87.3765 75.2679 86.79 74.567 86.3722C73.8432 85.9893 73.0597 85.7319 72.2499 85.6107C70.6821 85.342 69.0776 85.4234 67.518 85.0936C66.7618 84.9594 66.0405 84.6738 65.3974 84.2539C64.7543 83.834 64.2026 83.2886 63.7756 82.6502C63.3563 82.0015 63.0788 81.2716 62.9611 80.5082C62.874 79.6744 62.918 78.8322 63.0915 78.012C63.4182 76.2538 63.5344 74.463 63.4376 72.6774C63.3766 71.8361 63.2706 70.9987 63.12 70.1689C62.9616 69.3944 62.8838 68.6056 62.8878 67.8151C62.9043 67.1299 63.1012 66.4611 63.4587 65.8762C63.8162 65.2914 64.3216 64.8112 64.924 64.484C65.5165 64.1368 66.1884 63.9476 66.8752 63.9348C67.5619 63.9219 68.2404 64.0858 68.8455 64.4107C70.8083 65.5306 71.4517 67.7825 71.1952 68.035Z" fill="#263238"/>
<path d="M69.0083 76.3425C69.2323 76.8843 69.5646 77.3747 69.9847 77.7836C70.4048 78.1925 70.904 78.5114 71.4516 78.7207C72.5715 79.1279 73.8013 79.1524 74.9415 79.5352C76.0015 79.8477 76.9461 80.4651 77.6577 81.3106C78.2598 82.1559 78.574 83.1725 78.5536 84.2101C78.5943 85.3829 78.4762 86.5516 78.6025 87.7203C78.6025 87.7407 78.5699 87.7488 78.5658 87.7203C78.1586 85.6842 78.9445 83.4038 77.6699 81.5835C76.8925 80.5741 75.7908 79.8636 74.5506 79.5718C73.4715 79.2664 72.3068 79.2379 71.2684 78.794C70.7472 78.5568 70.2787 78.2177 69.8906 77.7967C69.5024 77.3757 69.2024 76.8813 69.0083 76.3425Z" fill="#263238"/>
<path d="M62.7615 81.9742C62.6567 81.2905 62.6788 80.5934 62.8266 79.9177C62.9773 79.1033 63.1687 78.2888 63.3438 77.4744C63.2013 78.1707 63.0832 78.8752 62.961 79.5797C62.8229 80.2421 62.7777 80.9206 62.8266 81.5955C62.9184 82.2615 63.159 82.8984 63.5305 83.4589C63.902 84.0193 64.395 84.4889 64.9727 84.8329C66.1455 85.5537 67.4812 85.6921 68.825 85.6962C70.0194 85.675 71.2139 85.7335 72.4004 85.8713C73.7304 86.0171 75.015 86.4403 76.1713 87.1133C76.1713 87.1133 76.1713 87.154 76.1713 87.1418C73.842 85.7776 71.1706 85.8469 68.5644 85.8509C67.2751 85.9124 65.9951 85.6044 64.875 84.9632C64.3355 84.6378 63.8692 84.2042 63.5055 83.6898C63.1418 83.1754 62.8884 82.5913 62.7615 81.9742Z" fill="#263238"/>
<path d="M70.3809 69.3424C70.4542 69.3424 71.4479 68.2999 71.5537 68.1981C71.6596 68.0963 72.7103 67.123 72.7265 67.0538C72.386 66.7123 71.9858 66.4363 71.5456 66.2393C71.2809 66.1823 70.4909 66.842 70.3606 66.9642C70.2303 67.0863 69.5461 67.8682 69.6113 68.137C69.7933 68.5818 70.054 68.9901 70.3809 69.3424Z" fill="#099AF6"/>
<path d="M81.2291 71.4234C82.7032 76.8516 79.645 78.3991 78.4437 78.6638C77.3686 78.904 73.724 79.7918 71.7001 74.5427C69.6762 69.2936 71.7327 66.8951 74.1434 66.1091C76.5542 65.3232 79.759 65.991 81.2291 71.4234Z" fill="#FFC4C0"/>
<path d="M80.6425 70.3239C80.5122 70.3239 80.39 70.3239 80.2353 70.3239C80.0942 70.3438 79.9506 70.315 79.8281 70.2424C79.7953 70.2138 79.7727 70.1752 79.7639 70.1325C79.7551 70.0899 79.7605 70.0455 79.7792 70.0062C79.8305 69.9335 79.9 69.8757 79.9808 69.8385C80.0616 69.8013 80.1508 69.7861 80.2394 69.7945C80.4199 69.7866 80.597 69.8461 80.7362 69.9614C80.7633 69.988 80.783 70.0212 80.7932 70.0578C80.8034 70.0944 80.8037 70.133 80.7942 70.1698C80.7847 70.2065 80.7657 70.2401 80.7391 70.2672C80.7124 70.2942 80.6791 70.3138 80.6425 70.3239Z" fill="#263238"/>
<path d="M77.1201 71.2196C77.2409 71.1761 77.3592 71.1258 77.4744 71.0689C77.6092 71.0324 77.7281 70.9522 77.8124 70.8409C77.8318 70.8017 77.8376 70.7572 77.8287 70.7144C77.8199 70.6715 77.7969 70.6329 77.7635 70.6047C77.6878 70.5595 77.6013 70.5356 77.5131 70.5356C77.4249 70.5356 77.3384 70.5595 77.2626 70.6047C77.0874 70.6611 76.9413 70.7839 76.8554 70.9468C76.8421 70.984 76.8394 71.0243 76.8478 71.063C76.8562 71.1017 76.8752 71.1372 76.9028 71.1656C76.9304 71.194 76.9653 71.2142 77.0037 71.2237C77.0421 71.2332 77.0825 71.2318 77.1201 71.2196Z" fill="#263238"/>
<path d="M78.1994 72.4167C78.1994 72.4167 78.1749 72.4412 78.1994 72.4575C78.293 72.828 78.3378 73.2719 78.0283 73.4674C78.0283 73.4674 78.0283 73.4918 78.0283 73.4877C78.4152 73.3411 78.35 72.7547 78.1994 72.4167Z" fill="#263238"/>
<path d="M77.7796 72.1034C77.1688 72.1889 77.3724 73.4065 77.9547 73.3251C78.5371 73.2436 78.2927 72.026 77.7796 72.1034Z" fill="#263238"/>
<path d="M77.5521 72.2092C77.4584 72.2988 77.377 72.4372 77.2507 72.4739C77.1245 72.5105 76.9697 72.4087 76.8435 72.3028C76.8842 72.539 77.0145 72.7589 77.2507 72.7508C77.4869 72.7426 77.6132 72.5065 77.6294 72.258C77.6376 72.2295 77.5887 72.1725 77.5521 72.2092Z" fill="#263238"/>
<path d="M80.1863 71.8425C80.1863 71.8425 80.2189 71.8425 80.223 71.871C80.2759 72.2497 80.4022 72.6855 80.7646 72.7425V72.7628C80.337 72.7751 80.1782 72.209 80.1863 71.8425Z" fill="#263238"/>
<path d="M80.4555 71.3908C81.0582 71.2361 81.3148 72.4455 80.761 72.5881C80.2071 72.7306 79.9547 71.5171 80.4555 71.3908Z" fill="#263238"/>
<path d="M80.7282 71.415C80.8341 71.4598 80.9563 71.5535 81.0703 71.5372C81.1843 71.5209 81.2739 71.3662 81.3309 71.2236C81.3309 71.2236 81.3309 71.2236 81.3554 71.2236C81.4083 71.4557 81.3839 71.7123 81.1721 71.8019C80.9604 71.8915 80.7853 71.7204 80.6834 71.5005C80.6631 71.468 80.6834 71.3987 80.7282 71.415Z" fill="#263238"/>
<path d="M80.0316 73.6668C80.0316 73.6668 80.2148 74.2125 80.2678 74.4812C80.2678 74.5057 80.2107 74.5301 80.1212 74.5545C79.9017 74.6399 79.6629 74.6634 79.431 74.6225C79.1991 74.5816 78.9828 74.4778 78.8058 74.3224C78.8017 74.3175 78.7993 74.3114 78.7991 74.305C78.7989 74.2987 78.8008 74.2924 78.8045 74.2872C78.8083 74.2821 78.8137 74.2783 78.8198 74.2766C78.8259 74.2748 78.8325 74.2752 78.8384 74.2776C79.2235 74.4439 79.6521 74.481 80.0601 74.3835C80.0601 74.3061 79.7099 73.4591 79.7506 73.4469C79.9596 73.4257 80.1705 73.4326 80.3777 73.4673C80.0234 72.3189 79.49 71.2316 79.156 70.0832C79.1529 70.0748 79.153 70.0655 79.1564 70.0571C79.1597 70.0487 79.166 70.0418 79.174 70.0378C79.1821 70.0338 79.1914 70.0329 79.2001 70.0352C79.2088 70.0376 79.2163 70.0431 79.2212 70.0507C79.8315 71.1961 80.3267 72.3992 80.6994 73.6424C80.7279 73.7849 80.1456 73.6912 80.0316 73.6668Z" fill="#263238"/>
<path d="M80.0603 74.3428C79.9673 74.5948 79.8117 74.819 79.6083 74.9943C79.4917 75.0867 79.3495 75.1407 79.201 75.1491C78.8834 75.1491 78.7938 74.8966 78.7694 74.6482C78.753 74.5129 78.753 74.3762 78.7694 74.241C79.1771 74.4145 79.6304 74.4502 80.0603 74.3428Z" fill="#263238"/>
<path d="M79.6087 75.0028C79.4921 75.0952 79.3499 75.1492 79.2014 75.1576C78.8838 75.1576 78.7942 74.9051 78.7698 74.6567C78.9281 74.611 79.0973 74.6204 79.2496 74.6833C79.402 74.7461 79.5286 74.8588 79.6087 75.0028Z" fill="#FF98B9"/>
<path d="M72.506 76.2857C72.9825 76.2002 72.506 73.203 72.506 73.203C72.506 73.203 74.3711 72.2053 74.4566 69.371C74.5578 70.1958 74.4163 71.0322 74.0494 71.7777C74.0494 71.7777 77.3072 70.7637 78.1501 67.7055C78.1501 67.7055 77.8732 69.2326 77.4497 69.8394C78.2417 69.4152 78.8663 68.7346 79.2211 67.9091C79.2211 67.9091 80.1211 69.3996 80.6586 69.7538C80.6586 69.7538 80.0437 64.1016 74.1023 65.6531C73.0349 65.9123 72.0592 66.4601 71.2821 67.2365C70.505 68.0129 69.9564 68.988 69.6962 70.0552C69.2686 71.8755 69.8754 74.0378 70.6246 75.2513C71.0929 75.9721 72.506 76.2857 72.506 76.2857Z" fill="#263238"/>
<path d="M74.0168 73.655C74.0168 73.655 72.6363 72.0262 71.8789 72.523C71.1215 73.0198 72.2861 75.4835 73.239 75.7441C73.3601 75.7858 73.4882 75.8026 73.6159 75.7937C73.7436 75.7847 73.8681 75.7501 73.9822 75.692C74.0962 75.6338 74.1973 75.5533 74.2795 75.4552C74.3618 75.3571 74.4234 75.2435 74.4607 75.121L74.0168 73.655Z" fill="#FFC4C0"/>
<defs>
<linearGradient id="paint0_linear_34_1182" x1="123.5" y1="0.308838" x2="123.858" y2="262.709" gradientUnits="userSpaceOnUse">
<stop stop-color="white"/>
<stop offset="1" stop-color="white" stop-opacity="0"/>
</linearGradient>
</defs>
</svg>
