<svg width="314" height="256" viewBox="0 0 314 256" fill="none" xmlns="http://www.w3.org/2000/svg">
<rect x="0.5" y="0.803955" width="312.802" height="254.556" rx="14.3817" fill="#E9EEF9"/>
<mask id="mask0_34_969" style="mask-type:alpha" maskUnits="userSpaceOnUse" x="0" y="0" width="314" height="256">
<rect x="0.5" y="0.803955" width="312.802" height="254.556" rx="14.3817" fill="#F3F3F3"/>
</mask>
<g mask="url(#mask0_34_969)">
<rect x="197.529" y="-7.8252" width="115.773" height="124.961" rx="8.62902" fill="#5A7EC1"/>
<path d="M302.223 54.6836C302.223 55.6931 301.821 56.6613 301.104 57.3751C300.387 58.089 299.415 58.49 298.402 58.49H256.365C255.351 58.49 254.379 58.089 253.663 57.3751C252.946 56.6613 252.543 55.6931 252.543 54.6836C252.543 53.674 252.946 52.7059 253.663 51.992C254.379 51.2782 255.351 50.8771 256.365 50.8771H298.402C299.415 50.8771 300.387 51.2782 301.104 51.992C301.821 52.7059 302.223 53.674 302.223 54.6836ZM256.365 28.0385H298.402C299.415 28.0385 300.387 27.6375 301.104 26.9236C301.821 26.2098 302.223 25.2416 302.223 24.232C302.223 23.2225 301.821 22.2543 301.104 21.5405C300.387 20.8266 299.415 20.4256 298.402 20.4256H256.365C255.351 20.4256 254.379 20.8266 253.663 21.5405C252.946 22.2543 252.543 23.2225 252.543 24.232C252.543 25.2416 252.946 26.2098 253.663 26.9236C254.379 27.6375 255.351 28.0385 256.365 28.0385ZM298.402 81.3287H256.365C255.351 81.3287 254.379 81.7297 253.663 82.4436C252.946 83.1574 252.543 84.1256 252.543 85.1351C252.543 86.1446 252.946 87.1128 253.663 87.8267C254.379 88.5405 255.351 88.9416 256.365 88.9416H298.402C299.415 88.9416 300.387 88.5405 301.104 87.8267C301.821 87.1128 302.223 86.1446 302.223 85.1351C302.223 84.1256 301.821 83.1574 301.104 82.4436C300.387 81.7297 299.415 81.3287 298.402 81.3287ZM236.588 13.8119L222.592 26.6587L216.907 21.4248C216.156 20.7689 215.176 20.4323 214.179 20.487C213.181 20.5418 212.244 20.9836 211.57 21.7177C210.895 22.4519 210.536 23.4201 210.57 24.4148C210.603 25.4095 211.026 26.3516 211.748 27.0393L220.012 34.6522C220.717 35.2946 221.637 35.651 222.592 35.6514C223.562 35.6537 224.498 35.2977 225.219 34.6522L241.747 19.4264C242.13 19.0924 242.442 18.6857 242.665 18.23C242.888 17.7744 243.017 17.279 243.045 16.7729C243.073 16.2669 242.999 15.7604 242.828 15.2831C242.657 14.8059 242.392 14.3674 242.048 13.9936C241.704 13.6197 241.289 13.318 240.827 13.106C240.365 12.894 239.865 12.7761 239.357 12.7592C238.848 12.7423 238.341 12.8267 237.866 13.0075C237.391 13.1882 236.956 13.4617 236.588 13.8119ZM236.588 44.2634L222.592 57.1102L216.907 51.8763C216.54 51.5261 216.105 51.2526 215.63 51.0719C215.155 50.8911 214.648 50.8067 214.139 50.8236C213.631 50.8405 213.131 50.9584 212.669 51.1704C212.206 51.3824 211.791 51.6841 211.448 52.058C211.104 52.4318 210.839 52.8703 210.668 53.3475C210.497 53.8248 210.423 54.3313 210.451 54.8374C210.479 55.3434 210.608 55.8388 210.831 56.2944C211.054 56.7501 211.366 57.1568 211.748 57.4908L220.012 65.1037C220.717 65.7461 221.637 66.1026 222.592 66.1029C223.562 66.1053 224.498 65.7492 225.219 65.1037L241.747 49.8779C242.13 49.5439 242.442 49.1372 242.665 48.6815C242.888 48.2259 243.017 47.7305 243.045 47.2245C243.073 46.7184 242.999 46.2119 242.828 45.7347C242.657 45.2574 242.392 44.819 242.048 44.4451C241.704 44.0713 241.289 43.7695 240.827 43.5575C240.365 43.3456 239.865 43.2277 239.357 43.2107C238.848 43.1938 238.341 43.2782 237.866 43.459C237.391 43.6398 236.956 43.9133 236.588 44.2634ZM236.588 74.715L222.592 87.5617L216.907 82.3279C216.54 81.9777 216.105 81.7042 215.63 81.5234C215.155 81.3426 214.648 81.2582 214.139 81.2751C213.631 81.2921 213.131 81.41 212.669 81.6219C212.206 81.8339 211.791 82.1357 211.448 82.5095C211.104 82.8834 210.839 83.3218 210.668 83.7991C210.497 84.2763 210.423 84.7829 210.451 85.2889C210.479 85.7949 210.608 86.2903 210.831 86.746C211.054 87.2016 211.366 87.6084 211.748 87.9424L220.012 95.5552C220.717 96.1976 221.637 96.5541 222.592 96.5544C223.562 96.5568 224.498 96.2008 225.219 95.5552L241.747 80.3295C242.47 79.6418 242.893 78.6997 242.926 77.705C242.96 76.7103 242.601 75.7421 241.926 75.0079C241.251 74.2737 240.315 73.832 239.317 73.7772C238.319 73.7224 237.34 74.0591 236.588 74.715Z" fill="#E9EEF9"/>
</g>
</svg>
