<svg width="313" height="256" viewBox="0 0 313 256" fill="none" xmlns="http://www.w3.org/2000/svg">
<mask id="mask0_34_984" style="mask-type:alpha" maskUnits="userSpaceOnUse" x="0" y="0" width="313" height="256">
<rect x="0.0991211" y="0.803955" width="312.802" height="254.556" rx="14.3817" fill="#F3F3F3"/>
</mask>
<g mask="url(#mask0_34_984)">
<circle cx="276.947" cy="40.3536" r="60.4031" fill="#5A7EC1"/>
<line x1="287.71" y1="27.6417" x2="250.596" y2="27.6417" stroke="#E9EEF9" stroke-width="5.75268" stroke-linecap="round"/>
<line x1="264.235" y1="56.9628" x2="301.349" y2="56.9628" stroke="#E9EEF9" stroke-width="5.75268" stroke-linecap="round"/>
<path d="M303.639 26.1814C303.953 26.4668 303.953 26.9611 303.639 27.2465L284.969 44.185C284.507 44.6043 283.766 44.2764 283.766 43.6525L283.766 9.77543C283.766 9.15151 284.507 8.82363 284.969 9.24287L303.639 26.1814Z" fill="#E9EEF9"/>
<path d="M248.306 58.4224C247.992 58.1371 247.992 57.6427 248.306 57.3573L266.976 40.4188C267.438 39.9996 268.179 40.3274 268.179 40.9514L268.179 74.8284C268.179 75.4523 267.438 75.7802 266.976 75.3609L248.306 58.4224Z" fill="#E9EEF9"/>
</g>
</svg>
