<svg width="31" height="30" viewBox="0 0 31 30" fill="none" xmlns="http://www.w3.org/2000/svg">
<circle cx="15.6539" cy="15" r="12" fill="white"/>
<path d="M15.6539 1.66663C13.0168 1.66663 10.4389 2.44861 8.24629 3.9137C6.05364 5.37878 4.34467 7.46116 3.3355 9.89751C2.32633 12.3339 2.06229 15.0147 2.57676 17.6012C3.09123 20.1876 4.36111 22.5634 6.22581 24.428C8.09051 26.2927 10.4663 27.5626 13.0527 28.0771C15.6391 28.5916 18.32 28.3275 20.7563 27.3184C23.1927 26.3092 25.2751 24.6002 26.7402 22.4076C28.2052 20.2149 28.9872 17.637 28.9872 15C28.9872 11.4637 27.5825 8.07235 25.082 5.57187C22.5815 3.07138 19.1901 1.66663 15.6539 1.66663ZM21.0706 23.2666H10.4372C10.1773 23.2661 9.92694 23.1683 9.73537 22.9926C9.5438 22.8169 9.42485 22.5759 9.40188 22.317C9.37891 22.0581 9.45359 21.7999 9.61123 21.5932C9.76888 21.3865 9.99811 21.2463 10.2539 21.2C10.3789 21.2 11.6872 20.7916 11.6872 18.25V15.8333H9.6039C9.38288 15.8333 9.17092 15.7455 9.01464 15.5892C8.85836 15.4329 8.77056 15.221 8.77056 15C8.77056 14.7789 8.85836 14.567 9.01464 14.4107C9.17092 14.2544 9.38288 14.1666 9.6039 14.1666H11.6872V9.89996C11.6706 9.25834 11.7809 8.61976 12.0117 8.02085C12.2424 7.42195 12.5892 6.87452 13.0321 6.40996C13.475 5.94541 14.0052 5.57288 14.5924 5.31375C15.1796 5.05463 15.8122 4.91401 16.4539 4.89996C17.1199 4.90496 17.7773 5.05172 18.3822 5.33047C18.9871 5.60921 19.5257 6.01357 19.9622 6.51663C20.0547 6.61895 20.1261 6.73848 20.1724 6.8684C20.2187 6.99832 20.2389 7.13609 20.2319 7.27383C20.225 7.41157 20.1909 7.54659 20.1318 7.67118C20.0727 7.79577 19.9896 7.90749 19.8872 7.99996C19.7849 8.09243 19.6654 8.16385 19.5355 8.21012C19.4055 8.2564 19.2678 8.27663 19.13 8.26967C18.9923 8.2627 18.8573 8.22868 18.7327 8.16953C18.6081 8.11039 18.4964 8.02728 18.4039 7.92496C18.1676 7.64572 17.8743 7.42021 17.5438 7.26355C17.2132 7.10689 16.853 7.0227 16.4872 7.01663C15.7496 7.04485 15.0532 7.36405 14.5504 7.90439C14.0475 8.44474 13.7791 9.16224 13.8039 9.89996V14.1666H16.3039C16.5249 14.1666 16.7369 14.2544 16.8932 14.4107C17.0494 14.567 17.1372 14.7789 17.1372 15C17.1372 15.221 17.0494 15.4329 16.8932 15.5892C16.7369 15.7455 16.5249 15.8333 16.3039 15.8333H13.8039V18.25C13.824 19.2656 13.6012 20.2713 13.1539 21.1833H21.0706C21.3468 21.1833 21.6118 21.293 21.8071 21.4884C22.0025 21.6837 22.1122 21.9487 22.1122 22.225C22.1122 22.5012 22.0025 22.7662 21.8071 22.9615C21.6118 23.1569 21.3468 23.2666 21.0706 23.2666Z" fill="#F92D2D"/>
</svg>
