<svg width="200" height="200" viewBox="0 0 200 200" fill="none" xmlns="http://www.w3.org/2000/svg">
<path d="M123.685 16.5535L134.984 26.4786C135.867 27.2543 136.932 27.7938 138.081 28.0472L152.782 31.2864C155.063 31.7889 156.939 33.3993 157.774 35.5724L163.158 49.5814C163.579 50.6755 164.272 51.6464 165.171 52.4018L176.691 62.0718C178.478 63.5718 179.39 65.8652 179.116 68.1737L177.351 83.0561C177.213 84.2187 177.375 85.3977 177.82 86.4824L183.519 100.368C184.402 102.522 184.14 104.972 182.821 106.887L174.312 119.235C173.647 120.2 173.24 121.317 173.128 122.482L171.701 137.402C171.479 139.717 170.104 141.762 168.04 142.845L157.774 157.051C156.734 157.597 152.171 161.051 152.171 152.154L143.945 164.69C142.669 166.635 140.494 167.807 138.159 167.811L123.109 167.831C121.933 167.832 120.778 168.131 119.751 168.7L106.609 175.981C104.571 177.11 102.096 177.141 100.025 176.063L86.6751 169.115C85.6322 168.572 84.4683 168.302 83.2932 168.33L68.247 168.687C65.9131 168.743 63.7054 167.625 62.3726 165.713L53.7817 153.387C53.1107 152.425 52.2049 151.647 51.15 151.128L37.6469 144.48C35.5522 143.449 34.1168 141.439 33.8281 139.131L31.9639 124.253C31.8182 123.091 31.3787 121.983 30.6862 121.036L21.8191 108.906C20.4435 107.024 20.1096 104.581 20.9301 102.406L26.2205 88.3832C26.6338 87.2878 26.7605 86.1049 26.5885 84.9461L24.3891 70.1128C24.0478 67.8121 24.8915 65.4972 26.6338 63.9532L37.8663 53.9975C38.7436 53.2197 39.4081 52.2329 39.7964 51.128L44.7684 36.9893C45.5393 34.7959 47.3673 33.139 49.6327 32.5796L64.2342 28.9724C65.3748 28.691 66.4241 28.1247 67.2838 27.3275L78.288 17.1228C79.9949 15.5396 82.3886 14.9199 84.6575 15.4732L99.2831 19.0413C100.425 19.3196 101.62 19.3054 102.754 18.9982L117.269 15.0642C119.521 14.4541 121.933 15.0138 123.685 16.5535Z" fill="#5A7EC1"/>
<path d="M74.4531 106.922C80.629 113.098 91.9918 124.461 91.9918 124.461L135.353 81.0988" stroke="white" stroke-width="5.28798" stroke-miterlimit="10"/>
<path d="M99.9102 12.5492C99.9102 6.6913 99.9102 0 99.9102 0V12.5492Z" fill="#2B7CCF"/>
<path d="M99.9102 12.5492C99.9102 6.6913 99.9102 0 99.9102 0" stroke="#435FAA" stroke-width="2.84036" stroke-miterlimit="10"/>
<path d="M100.089 200C100.089 200 100.089 193.309 100.089 187.451V200Z" fill="#2B7CCF"/>
<path d="M100.089 200C100.089 200 100.089 193.309 100.089 187.451" stroke="#435FAA" stroke-width="2.84036" stroke-miterlimit="10"/>
<path d="M187.45 99.9103C193.308 99.9103 200 99.9103 200 99.9103H187.45Z" fill="#2B7CCF"/>
<path d="M187.45 99.9103C193.308 99.9103 200 99.9103 200 99.9103" stroke="#435FAA" stroke-width="2.84036" stroke-miterlimit="10"/>
<path d="M0 100.09C0 100.09 6.6913 100.09 12.5492 100.09H0Z" fill="#2B7CCF"/>
<path d="M0 100.09C0 100.09 6.6913 100.09 12.5492 100.09" stroke="#435FAA" stroke-width="2.84036" stroke-miterlimit="10"/>
<path d="M161.901 161.774C166.043 165.916 170.775 170.648 170.775 170.648L161.901 161.774Z" fill="#2B7CCF"/>
<path d="M161.901 161.774C166.043 165.916 170.775 170.648 170.775 170.648" stroke="#435FAA" stroke-width="2.84036" stroke-miterlimit="10"/>
<path d="M29.2263 29.3528C29.2263 29.3528 33.9574 34.0843 38.0999 38.2267L29.2263 29.3528Z" fill="#2B7CCF"/>
<path d="M29.2263 29.3528C29.2263 29.3528 33.9574 34.0843 38.0999 38.2267" stroke="#435FAA" stroke-width="2.84036" stroke-miterlimit="10"/>
<path d="M161.774 38.0997C165.916 33.9573 170.648 29.2262 170.648 29.2262L161.774 38.0997Z" fill="#2B7CCF"/>
<path d="M161.774 38.0997C165.916 33.9573 170.648 29.2262 170.648 29.2262" stroke="#435FAA" stroke-width="2.84036" stroke-miterlimit="10"/>
<path d="M29.3528 170.774C29.3528 170.774 34.0839 166.043 38.2263 161.9L29.3528 170.774Z" fill="#2B7CCF"/>
<path d="M29.3528 170.774C29.3528 170.774 34.0839 166.043 38.2263 161.9" stroke="#435FAA" stroke-width="2.84036" stroke-miterlimit="10"/>
</svg>
