<svg width="20" height="19" viewBox="0 0 20 19" fill="none" xmlns="http://www.w3.org/2000/svg">
<g clip-path="url(#clip0_405_14695)">
<path d="M9.87151 4.18005C3.39518 4.18005 0 8.77205 0 9.50005C0 10.2283 3.39518 14.8201 9.87151 14.8201C16.3474 14.8201 19.743 10.2283 19.743 9.50005C19.743 8.77205 16.3474 4.18005 9.87151 4.18005ZM9.87151 13.5925C7.44852 13.5925 5.48399 11.7603 5.48399 9.50005C5.48399 7.23985 7.44852 5.40765 9.87151 5.40765C12.2945 5.40765 14.2588 7.23985 14.2588 9.50005C14.2588 11.7603 12.2945 13.5925 9.87151 13.5925ZM12.0651 9.50005C12.0651 10.6301 11.0827 11.5465 9.87151 11.5465C8.65991 11.5465 7.67796 10.6301 7.67796 9.50005C7.67796 8.37005 8.65991 7.45385 9.87151 7.45385C10.5261 7.45385 9.46979 9.07545 9.87151 9.50005C10.213 9.86065 12.0651 8.98105 12.0651 9.50005Z" fill="#6F8A9C"/>
<line x1="0.5" y1="-0.5" x2="23.703" y2="-0.5" transform="matrix(0.815725 0.57844 -0.607926 0.793993 0 3)" stroke="#6F8A9C" stroke-linecap="round"/>
</g>
<defs>
<clipPath id="clip0_405_14695">
<rect width="19.743" height="19" fill="white"/>
</clipPath>
</defs>
</svg>
