<svg width="110" height="104" viewBox="0 0 110 104" fill="none" xmlns="http://www.w3.org/2000/svg">
<path d="M57.9722 102.954C86.1261 102.954 108.949 80.1309 108.949 51.9771C108.949 23.8232 86.1261 1 57.9722 1C29.8183 1 6.99512 23.8232 6.99512 51.9771C6.99512 80.1309 29.8183 102.954 57.9722 102.954Z" fill="white" stroke="#5A7EC1" stroke-width="1.93987" stroke-linejoin="round"/>
<path d="M51.9771 102.954C80.1309 102.954 102.954 80.1309 102.954 51.9771C102.954 23.8232 80.1309 1 51.9771 1C23.8232 1 1 23.8232 1 51.9771C1 80.1309 23.8232 102.954 51.9771 102.954Z" fill="white" stroke="#5A7EC1" stroke-width="1.93987" stroke-linejoin="round"/>
<path d="M51.9774 92.9623C74.6129 92.9623 92.9626 74.6126 92.9626 51.9771C92.9626 29.3416 74.6129 10.9919 51.9774 10.9919C29.3419 10.9919 10.9922 29.3416 10.9922 51.9771C10.9922 74.6126 29.3419 92.9623 51.9774 92.9623Z" fill="white" stroke="#5A7EC1" stroke-width="1.93987" stroke-linejoin="round"/>
<path d="M14.5229 51.9893C14.5289 41.4258 18.6121 31.2723 25.9212 23.6457C33.2303 16.0191 43.2011 11.5081 53.7549 11.0532C53.1664 11.0532 52.5779 11.0532 51.9894 11.0532C46.5483 10.9591 41.143 11.9495 36.0887 13.9666C31.0345 15.9838 26.4325 18.9872 22.5514 22.8018C18.6703 26.6164 15.5876 31.1657 13.4834 36.1843C11.3791 41.2029 10.2954 46.5904 10.2954 52.0323C10.2954 57.4742 11.3791 62.8616 13.4834 67.8802C15.5876 72.8988 18.6703 77.4481 22.5514 81.2627C26.4325 85.0773 31.0345 88.0808 36.0887 90.0979C41.143 92.115 46.5483 93.1054 51.9894 93.0113C52.5779 93.0113 53.1664 93.0113 53.7549 93.0113C43.1863 92.5558 33.2029 88.0328 25.8915 80.3879C18.5801 72.7429 14.5067 62.5677 14.5229 51.9893Z" fill="white" stroke="#5A7EC1" stroke-width="1.93987" stroke-linejoin="round"/>
<path d="M64.264 44.249V39.1856C64.264 30.9469 60.2304 26.2513 52.3595 26.2513C44.4886 26.2513 40.4918 30.9469 40.4918 39.1856C40.4918 48.1477 43.9492 51.5192 45.7146 56.5948H40.8106V62.8352H46.769C46.6218 68.1315 43.6059 71.221 39.7808 71.221V78.2705H63.7858V70.9145H49.8585C51.07 69.9263 52.0621 68.6964 52.7714 67.3031C53.4807 65.9098 53.8916 64.384 53.9778 62.8229H62.3514V56.5948H53.4629C52.0653 51.0165 48.5589 47.8535 48.5589 38.6707C48.5589 34.9927 50.0179 33.5951 52.5925 33.5951C55.1671 33.5951 56.6383 34.9927 56.6383 38.6707V44.249H64.264Z" fill="#5A7EC1"/>
</svg>
