<svg width="301" height="292" viewBox="0 0 301 292" fill="none" xmlns="http://www.w3.org/2000/svg">
<g clip-path="url(#clip0_427_25074)">
<path d="M109.018 65.4558H125.033V201.389C125.033 203.522 125.455 205.633 126.275 207.604C127.095 209.574 128.296 211.365 129.811 212.873C131.326 214.381 133.124 215.577 135.103 216.393C137.083 217.209 139.204 217.629 141.346 217.629H263.791V217.785C263.791 219.918 263.369 222.029 262.55 224C261.73 225.97 260.528 227.761 259.013 229.269C257.499 230.777 255.7 231.973 253.721 232.789C251.742 233.605 249.62 234.025 247.478 234.025H109.018C106.875 234.025 104.754 233.605 102.775 232.789C100.796 231.973 98.9971 230.777 97.4823 229.269C95.9675 227.761 94.7658 225.97 93.946 224C93.1262 222.029 92.7043 219.918 92.7043 217.785V81.6964C92.7043 77.3891 94.423 73.2583 97.4823 70.2126C100.542 67.1669 104.691 65.4558 109.018 65.4558Z" fill="#F2F2F2"/>
<path d="M33.0967 281.475C32.8131 281.488 32.5324 281.413 32.2926 281.262C32.0528 281.111 31.8655 280.89 31.756 280.63C31.6465 280.369 31.6202 280.081 31.6805 279.805C31.7409 279.529 31.885 279.278 32.0935 279.086L32.1883 278.711C32.1758 278.68 32.1632 278.65 32.1506 278.62C31.865 277.949 31.3863 277.376 30.7748 276.974C30.1633 276.573 29.4463 276.36 28.7136 276.363C27.981 276.365 27.2655 276.583 26.657 276.99C26.0486 277.396 25.5742 277.972 25.2936 278.646C24.1721 281.335 22.7443 284.028 22.3927 286.872C22.2378 288.128 22.3031 289.402 22.5857 290.637C19.9516 284.917 18.5838 278.699 18.575 272.407C18.5745 270.828 18.6626 269.25 18.839 267.68C18.9848 266.394 19.187 265.116 19.4457 263.848C20.8576 256.967 23.8888 250.518 28.2905 245.03C30.4209 243.872 32.1438 242.093 33.227 239.931C33.6194 239.154 33.8968 238.324 34.0504 237.468C33.8101 237.499 33.1443 233.855 33.3255 233.632C32.9906 233.126 32.3912 232.874 32.0254 232.38C30.2063 229.925 27.6999 230.354 26.3915 233.69C23.5965 235.095 23.5694 237.424 25.2845 239.664C26.3756 241.089 26.5255 243.017 27.4828 244.543C27.3843 244.669 27.2819 244.79 27.1834 244.916C25.3829 247.221 23.8137 249.696 22.4982 252.305C22.8181 249.382 22.4363 246.424 21.3841 243.676C20.3178 241.115 18.319 238.958 16.5589 236.745C16.0934 236.15 15.4612 235.706 14.7422 235.469C14.0233 235.232 13.2499 235.212 12.5198 235.412C11.7896 235.613 11.1356 236.024 10.6402 236.595C10.1449 237.165 9.83056 237.869 9.73692 238.617C9.73332 238.65 9.72983 238.682 9.72639 238.715C9.98782 238.862 10.2437 239.017 10.4941 239.182C10.8087 239.392 11.0524 239.691 11.1934 240.04C11.3344 240.389 11.366 240.773 11.2842 241.141C11.2024 241.509 11.0109 241.843 10.7348 242.101C10.4587 242.358 10.111 242.527 9.73711 242.584L9.6988 242.59C9.79193 243.528 9.95657 244.458 10.1913 245.371C7.93326 254.064 12.8082 257.231 19.7688 257.373C19.9225 257.451 20.0722 257.53 20.2259 257.604C18.9041 261.333 18.0751 265.217 17.7596 269.159C17.5809 271.485 17.5915 273.821 17.7911 276.144L17.7792 276.062C17.2749 273.478 15.8903 271.146 13.8592 269.461C10.8425 266.994 6.58044 266.085 3.32594 264.102C2.98007 263.881 2.57789 263.763 2.16686 263.762C1.75583 263.761 1.3531 263.877 1.00614 264.097C0.659184 264.316 0.382473 264.63 0.208672 265.001C0.0348701 265.371 -0.0287933 265.784 0.0252037 266.19L0.0385323 266.276C0.523682 266.473 0.996059 266.7 1.4529 266.955C1.71434 267.102 1.97023 267.257 2.22062 267.422C2.53518 267.631 2.77893 267.93 2.91991 268.28C3.06089 268.629 3.09255 269.013 3.01072 269.381C2.92889 269.749 2.73738 270.083 2.46131 270.341C2.18525 270.598 1.83748 270.767 1.46358 270.824L1.42528 270.83C1.39771 270.834 1.37406 270.838 1.34653 270.842C2.17548 272.812 3.33892 274.626 4.78592 276.203C6.19779 283.792 12.2618 284.512 18.7484 282.302H18.7524C19.4641 285.381 20.4953 288.378 21.8294 291.245H32.8212C32.8607 291.123 32.8961 290.998 32.9315 290.876C31.9141 290.94 30.8927 290.879 29.89 290.696C30.7056 289.7 31.5211 288.696 32.3366 287.699C32.3548 287.681 32.3719 287.661 32.3879 287.64C32.8015 287.131 33.2192 286.625 33.6328 286.115L33.6331 286.114C33.6551 284.551 33.4749 282.992 33.097 281.475L33.0967 281.475Z" fill="#F2F2F2"/>
<path d="M154.164 46.9651C153.762 47.5704 153.234 48.0817 152.614 48.4637C151.995 48.8456 151.3 49.089 150.577 49.1771C149.854 49.2653 149.12 49.1959 148.426 48.974C147.733 48.752 147.096 48.3828 146.56 47.8917L123.707 58.156L119.301 52.5612L146.533 40.5676C147.431 39.7307 148.605 39.2506 149.834 39.2183C151.064 39.186 152.262 39.6037 153.203 40.3923C154.143 41.1808 154.761 42.2855 154.938 43.4969C155.115 44.7084 154.839 45.9424 154.164 46.9651H154.164Z" fill="#A0616A"/>
<path d="M56.0893 53.3657L53.8228 66.1524C53.717 66.7489 53.7377 67.3609 53.8836 67.949C54.0295 68.537 54.2973 69.0883 54.6698 69.5672C55.0423 70.0462 55.5112 70.4424 56.0466 70.7302C56.582 71.0181 57.1719 71.1913 57.7785 71.2388L96.2916 74.2539L141.562 54.0835L136.155 43.865L96.8563 56.2544L56.0893 53.3657Z" fill="#3366FF"/>
<path d="M146.226 44.202H284.687C293.696 44.202 301 51.4732 301 60.4426V196.531C301 205.5 293.696 212.772 284.687 212.772H146.226C137.217 212.772 129.913 205.5 129.913 196.531V60.4426C129.913 51.4732 137.217 44.202 146.226 44.202Z" fill="#F2F2F2"/>
<path d="M284.687 47.5416C286.388 47.5416 288.073 47.8753 289.646 48.5236C291.218 49.1719 292.646 50.1222 293.85 51.3202C295.053 52.5181 296.007 53.9403 296.659 55.5054C297.31 57.0706 297.645 58.7482 297.645 60.4423V196.531C297.645 199.952 296.28 203.234 293.85 205.653C291.419 208.072 288.123 209.432 284.687 209.432H196.318C188.038 209.432 179.839 207.808 172.19 204.654C164.54 201.499 157.589 196.876 151.735 191.047C145.88 185.218 141.236 178.299 138.067 170.683C134.899 163.068 133.268 154.906 133.268 146.663V60.4423C133.268 58.7482 133.603 57.0706 134.254 55.5054C134.905 53.9403 135.86 52.5181 137.063 51.3202C138.267 50.1222 139.695 49.1719 141.267 48.5236C142.839 47.8753 144.525 47.5416 146.226 47.5416H284.687Z" fill="white"/>
<path d="M176.75 88.842H254.465C255.178 88.842 255.862 88.56 256.367 88.058C256.871 87.556 257.154 86.8752 257.154 86.1652C257.154 85.4553 256.871 84.7744 256.367 84.2724C255.862 83.7704 255.178 83.4884 254.465 83.4884H176.75C176.037 83.4884 175.353 83.7704 174.849 84.2724C174.345 84.7744 174.062 85.4553 174.062 86.1652C174.062 86.8752 174.345 87.556 174.849 88.058C175.353 88.56 176.037 88.842 176.75 88.842Z" fill="#F2F2F2"/>
<path d="M176.75 145.925H254.465C255.178 145.925 255.862 145.643 256.367 145.141C256.871 144.639 257.154 143.958 257.154 143.248C257.154 142.538 256.871 141.857 256.367 141.355C255.862 140.853 255.178 140.571 254.465 140.571H176.75C176.037 140.571 175.353 140.853 174.849 141.355C174.345 141.857 174.062 142.538 174.062 143.248C174.062 143.958 174.345 144.639 174.849 145.141C175.353 145.643 176.037 145.925 176.75 145.925Z" fill="#F2F2F2"/>
<path d="M145.192 117.402H286.024C286.737 117.402 287.421 117.12 287.925 116.618C288.429 116.116 288.712 115.435 288.712 114.725C288.712 114.015 288.429 113.334 287.925 112.832C287.421 112.33 286.737 112.048 286.024 112.048H145.192C144.479 112.048 143.795 112.33 143.291 112.832C142.786 113.334 142.503 114.015 142.503 114.725C142.503 115.435 142.786 116.116 143.291 116.618C143.795 117.12 144.479 117.402 145.192 117.402Z" fill="#F2F2F2"/>
<path d="M60.9551 109.724L74.9846 139.48L21.0157 134.038L32.2813 105.473L60.9551 109.724Z" fill="#A0616A"/>
<path d="M48.4078 280.749L53.5249 280.705L55.7898 260.599L48.2383 260.662L48.4078 280.749Z" fill="#A0616A"/>
<path d="M64.798 288.849C64.8026 289.453 64.5663 290.034 64.1411 290.464C63.7159 290.895 63.1365 291.14 62.5299 291.146L52.3563 291.231L50.5753 287.637L49.9212 291.249L46.0824 291.284L47.0518 278.4L48.3873 278.311L53.8348 277.937L55.5923 277.82L55.6231 281.465L63.7956 286.984C64.1017 287.191 64.3529 287.469 64.5275 287.793C64.7021 288.118 64.7949 288.48 64.798 288.849Z" fill="#2F2E41"/>
<path d="M105.035 280.771L109.914 279.233L106.145 259.352L98.9445 261.621L105.035 280.771Z" fill="#A0616A"/>
<path d="M123.092 283.72C123.275 284.296 123.221 284.921 122.941 285.457C122.662 285.993 122.18 286.397 121.602 286.58L111.903 289.636L109.14 286.722L109.581 290.366L105.921 291.522L103.046 278.923L104.296 278.448L109.393 276.497L111.038 275.871L112.143 279.347L121.584 282.231C121.938 282.339 122.26 282.531 122.522 282.791C122.785 283.05 122.981 283.369 123.092 283.72Z" fill="#2F2E41"/>
<path d="M23.4736 125.67L72.5445 134.622C72.5445 134.622 80.4153 140.483 78.3098 142.582C76.2043 144.681 75.8778 144.356 77.261 145.733C78.6443 147.11 81.6352 148.951 81.6647 150.156C81.6941 151.361 103.653 205.407 103.653 205.407C103.653 205.407 101.213 204.193 103.043 206.015C104.873 207.836 104.873 209.342 104.873 209.342L113.413 266.741L99.5442 267.554L85.964 215.224L55.673 166.337C55.673 166.337 52.6674 209.932 52.5413 212.831C52.4152 215.731 50.5853 212.087 52.4153 215.731C54.2452 219.374 55.4651 216.945 54.2452 219.374C53.0252 221.803 58.6399 271.255 58.6399 271.255H45.981L18.831 168.755C18.831 168.755 9.17139 139.452 23.4736 125.67Z" fill="#2F2E41"/>
<path d="M37.9293 43.6829L57.5856 41.6497L62.6783 48.2319L68.6111 51.3777C71.1217 52.7089 73.194 54.7319 74.5803 57.2048C75.9665 59.6776 76.6079 62.4956 76.4278 65.3218L69.4945 105.473C69.4945 105.473 75.3509 118.602 71.3245 121.869C67.298 125.137 74.4375 133.229 65.8347 129.156C57.2318 125.083 20.0864 129.764 20.0864 129.764L28.0161 107.295L22.0924 85.2165L21.4404 66.704C21.3186 63.2447 22.3497 59.8424 24.3732 57.0275C26.3967 54.2125 29.2987 52.1432 32.627 51.1419L33.4553 50.8927L37.9293 43.6829Z" fill="#3366FF"/>
<path d="M10.868 28.6808C10.7393 34.1966 12.8098 39.5374 15.7844 44.2285C16.6681 41.4899 18.257 38.9975 19.914 36.6214C19.0787 41.7614 19.9684 47.0322 22.4454 51.6181C22.5327 51.6802 22.6232 51.738 22.7164 51.7911C25.1409 53.243 28.2148 53.8311 30.8377 52.7825C25.4184 46.9669 24.7288 37.3314 29.2722 30.8083C30.5585 28.9574 32.2221 27.3204 33.0188 25.214C34.2768 21.8531 33.0676 18.1527 32.3047 14.6486C31.5914 11.3873 31.4666 7.50645 33.6643 5.11637C33.4296 4.78236 33.1098 4.51649 32.7379 4.346C32.3659 4.17551 31.9552 4.10653 31.5476 4.14613C30.1926 4.33668 29.2063 5.50922 28.5781 6.71686C27.9499 7.92446 27.5356 9.2629 26.6601 10.306C25.0389 12.2583 22.278 12.7199 19.9513 13.7488C14.3165 16.2475 11.0031 22.5433 10.868 28.6808Z" fill="#2F2E41"/>
<path d="M156.038 291.277C156.039 291.372 156.02 291.466 155.984 291.554C155.947 291.642 155.894 291.722 155.826 291.789C155.759 291.856 155.679 291.909 155.591 291.946C155.502 291.982 155.408 292 155.313 292H0.811462C0.618942 292 0.434341 291.924 0.298203 291.788C0.162079 291.653 0.0855865 291.469 0.0855865 291.277C0.0855865 291.086 0.162079 290.902 0.298203 290.766C0.434341 290.631 0.618942 290.555 0.811462 290.555H155.313C155.408 290.554 155.502 290.573 155.591 290.609C155.679 290.645 155.759 290.699 155.826 290.766C155.894 290.833 155.947 290.913 155.984 291C156.02 291.088 156.039 291.182 156.038 291.277Z" fill="#CCCCCC"/>
<path d="M9.65156 156.52C6.61963 156.52 4.16177 154.073 4.16177 151.054C4.16177 148.036 6.61963 145.589 9.65156 145.589C12.6835 145.589 15.1414 148.036 15.1414 151.054C15.1414 154.073 12.6835 156.52 9.65156 156.52Z" fill="#3366FF"/>
<path d="M58.2986 25.5273C57.9766 24.4053 60.196 31.2637 59.125 31.3875C54.2473 31.9446 47.5514 34.8447 44.1541 36.1977C44.0011 36.18 43.848 36.1623 43.6996 36.1402C43.3351 36.1004 42.9796 36.043 42.6286 35.9767C34.7181 34.4866 31.676 22.3891 31.676 22.2786C31.676 21.7348 32.9871 6.79773 35.0525 6.57668C35.595 6.51808 36.1402 6.48856 36.6859 6.48825H41.8111C42.8717 6.26073 43.9467 6.10562 45.0285 6.02399H45.0375C55.3554 5.24137 63.491 11.5022 62.7305 19.1205C62.726 19.1294 62.717 19.1382 62.7125 19.1471C62.492 19.4743 62.2985 19.7838 62.1276 20.08C61.9611 20.3586 61.8216 20.6238 61.7001 20.8759C60.7596 22.8214 63.1771 25.2694 61.5741 25.7263C59.4422 26.334 67.1812 46.3085 58.7427 46.3085C62.8474 47.4703 59.1868 28.6224 58.2986 25.5273Z" fill="#2F2E41"/>
<path d="M49.0878 37.2474C42.386 37.2474 36.9532 31.8388 36.9532 25.1669C36.9532 18.495 42.386 13.0863 49.0878 13.0863C55.7896 13.0863 61.2224 18.495 61.2224 25.1669C61.2224 31.8388 55.7896 37.2474 49.0878 37.2474Z" fill="#A0616A"/>
<path d="M62.7305 19.7793C62.528 19.8854 62.33 19.9827 62.1275 20.0799C61.916 20.1816 61.7045 20.2833 61.493 20.3762C57.4297 22.2111 54.1224 22.4145 52.1155 19.7793C52.0618 18.3927 51.749 17.0282 51.1931 15.7557C51.2913 17.1777 50.9148 18.5922 50.1221 19.7793H46.0813C41.9191 22.5295 39.7817 22.8169 42.6705 31.8456C43.476 34.3615 46.6786 49.0011 45.4187 51.1721C45.0542 51.1323 41.1766 35.0973 40.8256 35.031C32.9151 33.541 27.8888 20.5663 28.5323 19.8323C28.5291 17.7451 29.0112 15.6855 29.9407 13.8146C31.1167 11.4444 32.9499 9.45898 35.2235 8.0932C36.5787 7.439 37.9916 6.9106 39.4442 6.51471C39.4802 6.50586 39.5117 6.49701 39.5477 6.48818C39.9932 6.36879 40.4477 6.25826 40.9022 6.1654C41.841 5.96803 42.7906 5.82483 43.746 5.73652C43.8135 5.73209 43.881 5.72766 43.944 5.72766C44.3255 5.72855 44.6999 5.83083 45.0284 6.02392C45.0329 6.02392 45.0329 6.02833 45.0374 6.02833C45.2722 6.16491 45.4772 6.34679 45.6404 6.56332C45.9278 6.92764 46.0832 7.37791 46.0814 7.84115H50.5811C50.7476 7.84115 50.9141 7.84556 51.0806 7.8544C54.0838 7.95657 56.9406 9.17077 59.092 11.2594C61.2433 13.348 62.5344 16.1607 62.7125 19.147C62.726 19.3592 62.7305 19.567 62.7305 19.7793Z" fill="#2F2E41"/>
<path d="M36.1988 15.9175C31.7836 15.9175 28.2044 12.3542 28.2044 7.95875C28.2044 3.56325 31.7836 0 36.1988 0C40.6139 0 44.1931 3.56325 44.1931 7.95875C44.1931 12.3542 40.6139 15.9175 36.1988 15.9175Z" fill="#2F2E41"/>
<path d="M9.58979 153.308C9.19964 152.696 8.94777 152.006 8.85163 151.287C8.75549 150.568 8.81738 149.837 9.03298 149.145C9.24858 148.452 9.61274 147.814 10.1003 147.275C10.5879 146.736 11.1873 146.309 11.8569 146.024L11.8173 121.064L18.7492 119.356L18.5785 149.001C18.9775 150.159 18.9361 151.422 18.4619 152.552C17.9878 153.681 17.114 154.598 16.006 155.129C14.898 155.66 13.6329 155.768 12.4503 155.433C11.2678 155.097 10.25 154.341 9.58979 153.308V153.308Z" fill="#A0616A"/>
<path d="M43.917 61.6231L33.13 54.3248C32.6267 53.9843 32.0575 53.7524 31.4589 53.6438C30.8603 53.5353 30.2455 53.5525 29.654 53.6945C29.0625 53.8365 28.5073 54.1 28.0242 54.4682C27.541 54.8364 27.1405 55.3011 26.8484 55.8325L8.30291 89.5711L8.23203 138.948L19.8106 138.225L24.5637 97.4601L43.917 61.6231Z" fill="#3366FF"/>
<path d="M126.763 173.602H242.048C244.556 173.602 246.961 174.594 248.734 176.359C250.507 178.124 251.503 180.518 251.503 183.014C251.503 185.511 250.507 187.905 248.734 189.67C246.961 191.435 244.556 192.427 242.048 192.427H126.763C124.255 192.427 121.85 191.435 120.077 189.67C118.304 187.905 117.308 185.511 117.308 183.014C117.308 180.518 118.304 178.124 120.077 176.359C121.85 174.594 124.255 173.602 126.763 173.602Z" fill="white"/>
<path d="M126.763 193.034H242.048C244.718 193.034 247.278 191.979 249.165 190.099C251.053 188.22 252.113 185.672 252.113 183.014C252.113 180.357 251.053 177.808 249.165 175.929C247.278 174.05 244.718 172.995 242.048 172.995H126.763C124.093 172.995 121.533 174.05 119.646 175.929C117.758 177.808 116.698 180.357 116.698 183.014C116.698 185.672 117.758 188.22 119.646 190.099C121.533 191.979 124.093 193.034 126.763 193.034ZM242.048 174.209C244.394 174.209 246.644 175.137 248.303 176.788C249.961 178.439 250.893 180.679 250.893 183.014C250.893 185.35 249.961 187.589 248.303 189.241C246.644 190.892 244.394 191.82 242.048 191.82H126.763C124.417 191.82 122.167 190.892 120.509 189.241C118.85 187.589 117.918 185.35 117.918 183.014C117.918 180.679 118.85 178.439 120.509 176.788C122.167 175.137 124.417 174.209 126.763 174.209H242.048Z" fill="#3366FF"/>
<path d="M119.965 214.679H170.841C171.554 214.679 172.238 214.397 172.742 213.895C173.246 213.393 173.53 212.712 173.53 212.002C173.53 211.292 173.246 210.611 172.742 210.109C172.238 209.607 171.554 209.325 170.841 209.325H119.965C119.252 209.325 118.568 209.607 118.064 210.109C117.559 210.611 117.276 211.292 117.276 212.002C117.276 212.712 117.559 213.393 118.064 213.895C118.568 214.397 119.252 214.679 119.965 214.679Z" fill="#3366FF"/>
</g>
<defs>
<clipPath id="clip0_427_25074">
<rect width="301" height="292" fill="white" transform="matrix(-1 0 0 1 301 0)"/>
</clipPath>
</defs>
</svg>
