<svg width="111" height="33" viewBox="0 0 111 33" fill="none" xmlns="http://www.w3.org/2000/svg">
<g clip-path="url(#clip0_37_11833)">
<path d="M7.33464 32.8998L0.707031 0.945557H5.40159L10.3263 26.637L21.5564 0.945557H26.7112L11.8911 32.8998H7.33464Z" fill="#B7B7B6"/>
<path d="M33.1759 8.64842L26.4102 23.5741H35.6382L33.1759 8.64842ZM24.5232 27.7341L22.1759 32.8998H17.5273L32.1863 0.945557H36.0985L41.6675 32.8998H37.2031L36.3286 27.7341H24.5232Z" fill="#B7B7B6"/>
<path d="M57.869 28.6484V32.8998H44.4297V0.945557H48.9862V28.6484H57.869Z" fill="#B7B7B6"/>
<path d="M75.6368 8.64842L68.8711 23.5741H78.0992L75.6368 8.64842ZM66.9841 27.7341L64.6368 32.8998H59.9883L74.6473 0.945557H78.5594L84.1284 32.8998H79.664L78.7895 27.7341H66.9841Z" fill="#B7B7B6"/>
<path d="M96.5329 15.917C101.227 15.917 102.976 13.5398 102.976 10.5227C102.976 7.50556 101.227 5.17413 96.5329 5.17413H91.4471V15.8941L96.5329 15.917ZM94.2316 20.1684H91.4471V32.8998H86.8906V0.945557H97.2693C103.989 0.945557 107.556 5.33413 107.556 10.5227C107.556 15.1398 104.748 19.1398 99.4094 19.9627L110.478 32.877H104.955L94.2316 20.1684Z" fill="#B7B7B6"/>
</g>
<defs>
<clipPath id="clip0_37_11833">
<rect width="110" height="32" fill="white" transform="translate(0.5 0.922119)"/>
</clipPath>
</defs>
</svg>
