<svg width="35" height="35" viewBox="0 0 35 35" fill="none" xmlns="http://www.w3.org/2000/svg">
<path d="M27.7769 0.54541L28.9786 1.37229C30.7386 2.58568 32.2627 4.10976 33.4761 5.86979L34.3044 7.07145L31.9025 8.72666L31.0742 7.52499C30.0621 6.05724 28.7911 4.7862 27.3233 3.77416L26.1217 2.94583L27.7769 0.54541ZM17.7888 6.25624C18.1492 5.8959 18.5843 5.61906 19.0635 5.44527C19.5426 5.27148 20.054 5.20498 20.5617 5.25046C21.0693 5.29594 21.5608 5.45229 22.0014 5.70847C22.442 5.96466 22.821 6.31444 23.1117 6.73312C23.7823 6.26494 24.5964 6.04775 25.4111 6.11962C26.2258 6.19148 26.9893 6.54781 27.5676 7.12615C28.1459 7.70449 28.5023 8.46793 28.5741 9.28267C28.646 10.0974 28.4288 10.9114 27.9606 11.5821C28.3792 11.8728 28.7289 12.2519 28.9849 12.6926C29.241 13.1333 29.3972 13.6248 29.4425 14.1324C29.4879 14.64 29.4212 15.1515 29.2473 15.6305C29.0734 16.1096 28.7965 16.5447 28.4361 16.905L27.825 17.5175C28.2348 17.8119 28.5756 18.1919 28.8239 18.6311C29.0722 19.0703 29.222 19.5583 29.263 20.0612C29.3039 20.5641 29.235 21.0699 29.061 21.5435C28.8869 22.0171 28.612 22.4472 28.2552 22.804L21.9552 29.104C19.9888 31.0703 17.3219 32.1749 14.541 32.1749C11.7602 32.1749 9.09327 31.0703 7.12688 29.104L5.89459 27.8731C4.2563 26.2345 3.2069 24.0995 2.91034 21.8014C2.61379 19.5034 3.08678 17.1718 4.25543 15.171L7.50168 9.61187C7.82925 9.05125 8.32309 8.6064 8.91476 8.33896C9.50642 8.07152 10.1666 7.99473 10.8039 8.11924C11.4411 8.24374 12.0239 8.56337 12.4714 9.03384C12.9189 9.5043 13.209 10.1023 13.3015 10.745L17.7888 6.25624ZM26.3754 14.8429C26.4767 14.736 26.5324 14.5937 26.5304 14.4464C26.5285 14.2991 26.4692 14.1583 26.3651 14.054C26.261 13.9498 26.1204 13.8902 25.9731 13.888C25.8258 13.8858 25.6834 13.9412 25.5763 14.0423L17.9375 21.681L15.874 19.619L25.5048 9.98812C25.602 9.88044 25.6542 9.73953 25.6504 9.59451C25.6467 9.44949 25.5875 9.31143 25.4849 9.20885C25.3823 9.10627 25.2443 9.04701 25.0992 9.0433C24.9542 9.0396 24.8133 9.09174 24.7056 9.18895L15.0748 18.8198L13.0127 16.7577L20.65 9.12041C20.7511 9.01327 20.8065 8.87091 20.8043 8.7236C20.8021 8.57629 20.7425 8.43564 20.6383 8.33156C20.534 8.22748 20.3932 8.16817 20.2459 8.16624C20.0986 8.16432 19.9563 8.21992 19.8494 8.32124L11.8752 16.2954C11.648 16.5229 11.3521 16.669 11.0334 16.7111C10.7146 16.7531 10.3909 16.6888 10.1125 16.5281C9.83405 16.3673 9.61647 16.1192 9.49352 15.8221C9.37057 15.525 9.34912 15.1957 9.43251 14.8852L10.4067 11.2467C10.4191 11.1973 10.4134 11.1452 10.3907 11.0997C10.3679 11.0542 10.3297 11.0183 10.2828 10.9985C10.2359 10.9788 10.1835 10.9765 10.1351 10.9921C10.0867 11.0076 10.0454 11.04 10.0188 11.0833L6.77251 16.644C5.92949 18.0881 5.58847 19.7708 5.8027 21.4293C6.01693 23.0877 6.77435 24.6285 7.95668 25.811L9.18751 27.0433C10.6069 28.4624 12.5318 29.2596 14.5389 29.2596C16.5459 29.2596 18.4708 28.4624 19.8902 27.0433L26.1902 20.7433C26.2893 20.6366 26.3433 20.4957 26.3407 20.3501C26.3381 20.2045 26.2791 20.0656 26.1762 19.9625C26.0734 19.8594 25.9345 19.8002 25.7889 19.7974C25.6433 19.7945 25.5023 19.8481 25.3954 19.9471L20.7988 24.5437L18.7367 22.4802L26.3754 14.8429Z" fill="#5A7EC1"/>
</svg>
