<svg width="240" height="240" viewBox="0 0 240 240" fill="none" xmlns="http://www.w3.org/2000/svg">
<path d="M240 120C240 186.274 186.274 240 120 240C53.7258 240 0 186.274 0 120C0 53.7258 53.7258 0 120 0C186.274 0 240 53.7258 240 120ZM60 120C60 153.137 86.8629 180 120 180C153.137 180 180 153.137 180 120C180 86.8629 153.137 60 120 60C86.8629 60 60 86.8629 60 120Z" fill="#71B7F0"/>
<path d="M120 0C145.102 2.99337e-07 169.572 7.87179 189.966 22.5074C210.359 37.143 225.65 57.8055 233.686 81.5865C241.721 105.368 242.097 131.07 234.759 155.075C227.422 179.081 212.742 200.182 192.784 215.407C172.827 230.632 148.597 239.215 123.506 239.949C98.4149 240.682 73.7254 233.529 52.9127 219.495C32.1 205.462 16.2122 185.255 7.48533 161.719C-1.2415 138.183 -2.36785 112.502 4.26481 88.2925L62.1324 104.146C58.8161 116.251 59.3792 129.091 63.7427 140.859C68.1061 152.627 76.05 162.731 86.4564 169.748C96.8627 176.764 109.207 180.341 121.753 179.974C134.299 179.608 146.413 175.316 156.392 167.703C166.371 160.091 173.711 149.541 177.38 137.538C181.048 125.535 180.86 112.684 176.843 100.793C172.825 88.9027 165.18 78.5715 154.983 71.2537C144.786 63.9359 132.551 60 120 60V0Z" fill="#16C782"/>
</svg>
