<svg width="314" height="256" viewBox="0 0 314 256" fill="none" xmlns="http://www.w3.org/2000/svg">
<rect x="0.5" y="0.484375" width="312.802" height="254.556" rx="14.3817" fill="#E9EEF9"/>
<mask id="mask0_34_921" style="mask-type:alpha" maskUnits="userSpaceOnUse" x="0" y="0" width="314" height="256">
<rect x="0.5" y="0.484375" width="312.802" height="254.556" rx="14.3817" fill="#E9EEF9"/>
</mask>
<g mask="url(#mask0_34_921)">
<path d="M244.605 47.4623C245.395 46.9978 246.05 46.3343 246.505 45.5376C246.96 44.741 247.198 43.839 247.196 42.9215V-3.78353C247.204 -4.61948 247.009 -5.44481 246.629 -6.18929C246.249 -6.93377 245.696 -7.57535 245.015 -8.05945C244.334 -8.54354 243.547 -8.85581 242.72 -8.96969C241.893 -9.08357 241.051 -8.99568 240.265 -8.71351C227.144 -4.03334 215.789 4.59274 207.753 15.984C199.717 27.3753 195.392 40.9752 195.372 54.9221C195.379 59.0547 195.748 63.1788 196.473 67.247C196.629 68.0597 196.974 68.8241 197.481 69.4779C197.987 70.1317 198.641 70.6564 199.388 71.0094C200.078 71.335 200.829 71.5118 201.591 71.5283C202.502 71.5228 203.396 71.2766 204.182 70.8148L244.605 47.4623ZM236.831 4.06551V39.9376L205.802 57.906C205.737 56.8681 205.737 55.8951 205.737 54.9221C205.757 44.4034 208.669 34.0933 214.154 25.1224C219.639 16.1515 227.485 8.86622 236.831 4.06551Z" fill="#5A7EC1"/>
<path d="M321.924 21.3303C321.857 21.2577 321.811 21.1674 321.794 21.07L321.532 20.7447C315.56 10.549 307.013 2.09066 296.742 -3.78829C286.472 -9.66724 274.836 -12.7618 262.993 -12.7639C261.609 -12.7639 260.281 -12.2155 259.302 -11.2393C258.323 -10.2632 257.773 -8.93921 257.773 -7.5587V51.9109L206.151 81.6458C205.55 81.9773 205.02 82.4254 204.595 82.9638C204.17 83.5021 203.857 84.1199 203.674 84.7807C203.492 85.4415 203.444 86.132 203.533 86.8116C203.622 87.4912 203.847 88.1461 204.193 88.7379V88.868L204.389 89.1933C211.917 102.042 223.483 112.058 237.297 117.691C251.111 123.325 266.401 124.262 280.803 120.358C295.205 116.453 307.914 107.925 316.964 96.0925C326.014 84.2602 330.899 69.7838 330.865 54.9039C330.881 43.1258 327.798 31.5494 321.924 21.3303Z" fill="#5A7EC1"/>
</g>
</svg>
