<svg width="16" height="244" viewBox="0 0 16 244" fill="none" xmlns="http://www.w3.org/2000/svg">
<path d="M0 242C0 243.105 0.895431 244 2 244H14C15.1046 244 16 243.105 16 242V23C16 21.8954 15.1046 21 14 21H2C0.895431 21 0 21.8954 0 23V242Z" fill="#EA3943"/>
<path d="M0 176.959C0 178.064 0.895431 178.959 2 178.959H14C15.1046 178.959 16 178.064 16 176.959V23.0007C16 21.8961 15.1046 21.0007 14 21.0007H2C0.895431 21.0007 0 21.8961 0 23.0007V176.959Z" fill="#63B3F4"/>
<path d="M0 102.625C0 103.73 0.895431 104.625 2 104.625H14C15.1046 104.625 16 103.73 16 102.625V23C16 21.8954 15.1046 21 14 21H2C0.895431 21 0 21.8954 0 23V102.625Z" fill="#16C782"/>
</svg>
