<svg width="16" height="236" viewBox="0 0 16 236" fill="none" xmlns="http://www.w3.org/2000/svg">
<path d="M0 234C0 235.105 0.895431 236 2 236H14C15.1046 236 16 235.105 16 234V23C16 21.8954 15.1046 21 14 21H2C0.895431 21 0 21.8954 0 23V234Z" fill="#EA3943"/>
<path d="M0 171.291C0 172.396 0.895431 173.291 2 173.291H14C15.1046 173.291 16 172.396 16 171.291V22.9993C16 21.8948 15.1046 20.9993 14 20.9993H2C0.895431 20.9993 0 21.8948 0 22.9993V171.291Z" fill="#63B3F4"/>
<path d="M0 99.625C0 100.73 0.895431 101.625 2 101.625H14C15.1046 101.625 16 100.73 16 99.625V23C16 21.8954 15.1046 21 14 21H2C0.895431 21 0 21.8954 0 23V99.625Z" fill="#16C782"/>
</svg>
