<svg width="16" height="268" viewBox="0 0 16 268" fill="none" xmlns="http://www.w3.org/2000/svg">
<path d="M0 266C0 267.105 0.895431 268 2 268H14C15.1046 268 16 267.105 16 266V23C16 21.8954 15.1046 21 14 21H2C0.895431 21 0 21.8954 0 23V266Z" fill="#EA3943"/>
<path d="M0 193.959C0 195.064 0.895431 195.959 2 195.959H14C15.1046 195.959 16 195.064 16 193.959V23.0007C16 21.8961 15.1046 21.0007 14 21.0007H2C0.895431 21.0007 0 21.8961 0 23.0007V193.959Z" fill="#63B3F4"/>
<path d="M0 111.625C0 112.73 0.895431 113.625 2 113.625H14C15.1046 113.625 16 112.73 16 111.625V23C16 21.8954 15.1046 21 14 21H2C0.895431 21 0 21.8954 0 23V111.625Z" fill="#16C782"/>
</svg>
