<svg width="17" height="233" viewBox="0 0 17 233" fill="none" xmlns="http://www.w3.org/2000/svg">
<path d="M0.181641 18C0.181641 16.8954 1.07707 16 2.18164 16H14.1816C15.2862 16 16.1816 16.8954 16.1816 18V231C16.1816 232.105 15.2862 233 14.1816 233H2.18164C1.07707 233 0.181641 232.105 0.181641 231V18Z" fill="#EA3943"/>
<path d="M0.181641 81.291C0.181641 80.1864 1.07707 79.291 2.18164 79.291H14.1816C15.2862 79.291 16.1816 80.1864 16.1816 81.291V230.999C16.1816 232.104 15.2862 232.999 14.1816 232.999H2.18164C1.07707 232.999 0.181641 232.104 0.181641 230.999V81.291Z" fill="#63B3F4"/>
<path d="M0.181641 153.625C0.181641 152.52 1.07707 151.625 2.18164 151.625H14.1816C15.2862 151.625 16.1816 152.52 16.1816 153.625V231C16.1816 232.105 15.2862 233 14.1816 233H2.18164C1.07707 233 0.181641 232.105 0.181641 231V153.625Z" fill="#16C782"/>
</svg>
