<svg width="16" height="252" viewBox="0 0 16 252" fill="none" xmlns="http://www.w3.org/2000/svg">
<path d="M0 250C0 251.105 0.895431 252 2 252H14C15.1046 252 16 251.105 16 250V23C16 21.8954 15.1046 21 14 21H2C0.895431 21 0 21.8954 0 23V250Z" fill="#EA3943"/>
<path d="M0 182.625C0 183.73 0.895431 184.625 2 184.625H14C15.1046 184.625 16 183.73 16 182.625V23C16 21.8954 15.1046 21 14 21H2C0.895431 21 0 21.8954 0 23V182.625Z" fill="#63B3F4"/>
<path d="M0 105.625C0 106.73 0.895431 107.625 2 107.625H14C15.1046 107.625 16 106.73 16 105.625V23C16 21.8954 15.1046 21 14 21H2C0.895431 21 0 21.8954 0 23V105.625Z" fill="#16C782"/>
</svg>
