<svg width="16" height="292" viewBox="0 0 16 292" fill="none" xmlns="http://www.w3.org/2000/svg">
<path d="M0 290C0 291.105 0.895431 292 2 292H14C15.1046 292 16 291.105 16 290V23C16 21.8954 15.1046 21 14 21H2C0.895431 21 0 21.8954 0 23V290Z" fill="#EA3943"/>
<path d="M0 210.959C0 212.064 0.895431 212.959 2 212.959H14C15.1046 212.959 16 212.064 16 210.959V23.0006C16 21.8961 15.1046 21.0006 14 21.0006H2C0.895431 21.0006 0 21.8961 0 23.0006V210.959Z" fill="#63B3F4"/>
<path d="M0 120.625C0 121.73 0.895431 122.625 2 122.625H14C15.1046 122.625 16 121.73 16 120.625V23C16 21.8954 15.1046 21 14 21H2C0.895431 21 0 21.8954 0 23V120.625Z" fill="#16C782"/>
</svg>
