<svg width="16" height="260" viewBox="0 0 16 260" fill="none" xmlns="http://www.w3.org/2000/svg">
<path d="M0 258C0 259.105 0.895431 260 2 260H14C15.1046 260 16 259.105 16 258V23C16 21.8954 15.1046 21 14 21H2C0.895431 21 0 21.8954 0 23V258Z" fill="#EA3943"/>
<path d="M0 188.291C0 189.396 0.895431 190.291 2 190.291H14C15.1046 190.291 16 189.396 16 188.291V22.9993C16 21.8948 15.1046 20.9993 14 20.9993H2C0.895431 20.9993 0 21.8948 0 22.9993V188.291Z" fill="#63B3F4"/>
<path d="M0 108.625C0 109.73 0.895431 110.625 2 110.625H14C15.1046 110.625 16 109.73 16 108.625V23C16 21.8954 15.1046 21 14 21H2C0.895431 21 0 21.8954 0 23V108.625Z" fill="#16C782"/>
</svg>
