<svg width="49" height="49" viewBox="0 0 49 49" fill="none" xmlns="http://www.w3.org/2000/svg">
<circle cx="24.2916" cy="24.9484" r="19.2" fill="#5A7EC1"/>
<path d="M24.2916 3.61499C20.0723 3.61499 15.9477 4.86617 12.4394 7.2103C8.93118 9.55444 6.19683 12.8863 4.58216 16.7844C2.9675 20.6826 2.54502 24.972 3.36818 29.1102C4.19133 33.2485 6.22313 37.0497 9.20665 40.0333C12.1902 43.0168 15.9914 45.0486 20.1297 45.8717C24.2679 46.6949 28.5574 46.2724 32.4555 44.6578C36.3537 43.0431 39.6855 40.3087 42.0296 36.8005C44.3737 33.2922 45.6249 29.1677 45.6249 24.9483C45.6249 19.2904 43.3773 13.8642 39.3765 9.86338C35.3758 5.8626 29.9495 3.61499 24.2916 3.61499ZM32.9583 38.175H15.9449C15.529 38.1741 15.1285 38.0177 14.822 37.7366C14.5154 37.4555 14.3251 37.0699 14.2884 36.6556C14.2516 36.2413 14.3711 35.8283 14.6233 35.4976C14.8756 35.1669 15.2423 34.9424 15.6516 34.8683C15.8516 34.8683 17.9449 34.215 17.9449 30.1483V26.2817H14.6116C14.258 26.2817 13.9188 26.1412 13.6688 25.8911C13.4187 25.6411 13.2783 25.3019 13.2783 24.9483C13.2783 24.5947 13.4187 24.2556 13.6688 24.0055C13.9188 23.7555 14.258 23.615 14.6116 23.615H17.9449V16.7883C17.9184 15.7617 18.0948 14.74 18.464 13.7818C18.8333 12.8235 19.3881 11.9476 20.0967 11.2043C20.8053 10.461 21.6537 9.86499 22.5932 9.45039C23.5328 9.03579 24.5449 8.8108 25.5716 8.78832C26.6372 8.79633 27.689 9.03114 28.6568 9.47714C29.6247 9.92313 30.4865 10.5701 31.1849 11.375C31.3329 11.5387 31.4471 11.73 31.5212 11.9378C31.5952 12.1457 31.6276 12.3661 31.6165 12.5865C31.6053 12.8069 31.5509 13.0229 31.4562 13.2223C31.3616 13.4216 31.2286 13.6004 31.0649 13.7483C30.9012 13.8963 30.71 14.0105 30.5021 14.0846C30.2942 14.1586 30.0738 14.191 29.8534 14.1799C29.633 14.1687 29.417 14.1143 29.2176 14.0196C29.0183 13.925 28.8395 13.792 28.6916 13.6283C28.3135 13.1815 27.8443 12.8207 27.3154 12.5701C26.7865 12.3194 26.2101 12.1847 25.6249 12.175C24.4448 12.2202 23.3305 12.7309 22.526 13.5954C21.7214 14.46 21.292 15.608 21.3316 16.7883V23.615H25.3316C25.6852 23.615 26.0244 23.7555 26.2744 24.0055C26.5245 24.2556 26.6649 24.5947 26.6649 24.9483C26.6649 25.3019 26.5245 25.6411 26.2744 25.8911C26.0244 26.1412 25.6852 26.2817 25.3316 26.2817H21.3316V30.1483C21.3638 31.7733 21.0072 33.3824 20.2916 34.8417H32.9583C33.4003 34.8417 33.8242 35.0172 34.1368 35.3298C34.4493 35.6424 34.6249 36.0663 34.6249 36.5083C34.6249 36.9503 34.4493 37.3743 34.1368 37.6868C33.8242 37.9994 33.4003 38.175 32.9583 38.175Z" fill="#F92D2D"/>
</svg>
