<svg width="24" height="24" viewBox="0 0 24 24" fill="none" xmlns="http://www.w3.org/2000/svg">
<path d="M21.3094 2.95312H2.69063C1.91719 2.95312 1.26562 3.57656 1.26562 4.35V17.6156C1.26562 18.3891 1.91719 19.0312 2.69063 19.0312H8.71875V20.1094H6.53906C6.41474 20.1094 6.29551 20.1588 6.20761 20.2467C6.1197 20.3346 6.07031 20.4538 6.07031 20.5781C6.07031 20.7024 6.1197 20.8217 6.20761 20.9096C6.29551 20.9975 6.41474 21.0469 6.53906 21.0469H17.4328C17.5571 21.0469 17.6764 20.9975 17.7643 20.9096C17.8522 20.8217 17.9016 20.7024 17.9016 20.5781C17.9016 20.4538 17.8522 20.3346 17.7643 20.2467C17.6764 20.1588 17.5571 20.1094 17.4328 20.1094H15.2812V19.0312H21.3094C22.0828 19.0312 22.7344 18.3891 22.7344 17.6156V4.35C22.7344 3.57656 22.0828 2.95312 21.3094 2.95312ZM14.3438 20.1094H9.65625V19.0312H14.3438V20.1094ZM21.7969 17.6156C21.7926 17.7427 21.7396 17.8633 21.6489 17.9523C21.5581 18.0413 21.4365 18.092 21.3094 18.0938H2.69063C2.56349 18.092 2.44191 18.0413 2.35114 17.9523C2.26036 17.8633 2.20735 17.7427 2.20312 17.6156V15.75H21.7969V17.6156ZM2.20312 14.8125V4.35C2.20312 4.09219 2.43281 3.89062 2.69063 3.89062H21.3047C21.5625 3.89062 21.7922 4.09219 21.7922 4.35V14.8125H2.20312Z" fill="white"/>
<path d="M10.9219 17.1562H13.0781C13.2024 17.1562 13.3217 17.1069 13.4096 17.019C13.4975 16.931 13.5469 16.8118 13.5469 16.6875C13.5469 16.5632 13.4975 16.444 13.4096 16.356C13.3217 16.2681 13.2024 16.2188 13.0781 16.2188H10.9219C10.7976 16.2188 10.6783 16.2681 10.5904 16.356C10.5025 16.444 10.4531 16.5632 10.4531 16.6875C10.4531 16.8118 10.5025 16.931 10.5904 17.019C10.6783 17.1069 10.7976 17.1562 10.9219 17.1562Z" fill="white"/>
</svg>
