<svg width="48" height="49" viewBox="0 0 48 49" fill="none" xmlns="http://www.w3.org/2000/svg">
<circle cx="24" cy="24.5" r="24" fill="#181D47"/>
<path d="M33.5536 18.38C33.6474 18.38 33.7374 18.3421 33.8037 18.2746C33.87 18.2071 33.9072 18.1155 33.9072 18.02V16.8212C33.9069 16.5085 33.7847 16.2088 33.5675 15.9877C33.3504 15.7666 33.056 15.6422 32.7488 15.6419H30.8486L30.4151 14.3394C30.3856 14.2508 30.3234 14.1774 30.2417 14.1346C30.16 14.0919 30.0652 14.0832 29.9773 14.1104L19.6854 17.2957C19.6002 17.3273 19.5302 17.391 19.4897 17.4736C19.4493 17.5563 19.4415 17.6515 19.4679 17.7398C19.4944 17.8281 19.5531 17.9027 19.632 17.9483C19.7108 17.9939 19.8039 18.0069 19.8919 17.9847L29.8557 14.9003L30.8054 17.7551C30.8356 17.8455 30.8997 17.92 30.9838 17.9623C31.0679 18.0045 31.165 18.0111 31.2538 17.9804C31.3426 17.9498 31.4158 17.8845 31.4574 17.7988C31.4989 17.7132 31.5053 17.6143 31.4752 17.5239L31.0883 16.3611H32.7495C32.9985 16.3611 33.2007 16.5671 33.2007 16.8205V18.02C33.2 18.2187 33.3585 18.38 33.5536 18.38Z" fill="white"/>
<path d="M36.3753 23.7803C36.2815 23.7803 36.1916 23.8182 36.1253 23.8857C36.0589 23.9532 36.0217 24.0448 36.0217 24.1403C36.0217 24.2358 36.0589 24.3273 36.1253 24.3949C36.1916 24.4624 36.2815 24.5003 36.3753 24.5003C36.6235 24.5003 36.7289 24.6076 36.7289 24.8603V29.1803C36.7289 29.433 36.6235 29.5403 36.3753 29.5403H30.7177C30.4694 29.5403 30.3641 29.433 30.3641 29.1803V25.5803C30.3641 25.3276 30.4694 25.2203 30.7177 25.2203H34.9609C35.0547 25.2203 35.1446 25.1824 35.2109 25.1149C35.2772 25.0473 35.3145 24.9558 35.3145 24.8603V20.5403C35.3145 19.8844 34.8979 19.4603 34.2537 19.4603H12.684C11.812 19.4603 11.2696 18.908 11.2696 18.0203C11.2696 17.1325 11.812 16.5803 12.684 16.5803H16.2737L14.1338 17.2988C14.0881 17.3123 14.0455 17.3349 14.0086 17.3655C13.9717 17.396 13.9412 17.4339 13.919 17.4767C13.8968 17.5195 13.8833 17.5665 13.8794 17.6147C13.8754 17.663 13.881 17.7115 13.8959 17.7575C13.9108 17.8035 13.9347 17.846 13.9661 17.8823C13.9975 17.9187 14.0357 17.9483 14.0786 17.9692C14.1215 17.9902 14.1681 18.0022 14.2156 18.0044C14.2631 18.0066 14.3105 17.999 14.3551 17.9821L27.1689 13.6816C27.213 13.6667 27.2538 13.6432 27.289 13.6123C27.3242 13.5814 27.353 13.5437 27.3739 13.5015C27.3948 13.4592 27.4073 13.4132 27.4107 13.366C27.4141 13.3188 27.4084 13.2714 27.3938 13.2265C27.3792 13.1816 27.3561 13.1401 27.3257 13.1043C27.2954 13.0684 27.2584 13.0391 27.2169 13.0178C27.1754 12.9965 27.1302 12.9838 27.0839 12.9803C27.0375 12.9769 26.991 12.9827 26.9469 12.9976L18.3897 15.8704C18.3734 15.8675 18.3586 15.8603 18.3416 15.8603H12.684C11.4153 15.8603 10.5624 16.7286 10.5624 18.0203V33.8603C10.5624 35.152 11.4153 36.0203 12.684 36.0203H34.2537C34.8979 36.0203 35.3145 35.5962 35.3145 34.9403V31.3403C35.3145 31.2448 35.2772 31.1532 35.2109 31.0857C35.1446 31.0182 35.0547 30.9803 34.9609 30.9803C34.8671 30.9803 34.7772 31.0182 34.7108 31.0857C34.6445 31.1532 34.6073 31.2448 34.6073 31.3403V34.9403C34.6073 35.193 34.5019 35.3003 34.2537 35.3003H12.684C11.812 35.3003 11.2696 34.7481 11.2696 33.8603V19.6849C11.6324 19.9967 12.1126 20.1803 12.684 20.1803H34.2537C34.5019 20.1803 34.6073 20.2876 34.6073 20.5403V24.5003H30.7177C30.0734 24.5003 29.6569 24.9244 29.6569 25.5803V29.1803C29.6569 29.8362 30.0734 30.2603 30.7177 30.2603H36.3753C37.0195 30.2603 37.4361 29.8362 37.4361 29.1803V24.8603C37.4361 24.2044 37.0195 23.7803 36.3753 23.7803Z" fill="white"/>
<path d="M33.1937 28.1C33.5842 28.1 33.9009 27.7777 33.9009 27.38C33.9009 26.9824 33.5842 26.66 33.1937 26.66C32.8031 26.66 32.4865 26.9824 32.4865 27.38C32.4865 27.7777 32.8031 28.1 33.1937 28.1Z" fill="white"/>
</svg>
