<svg width="21" height="14" viewBox="0 0 21 14" fill="none" xmlns="http://www.w3.org/2000/svg">
<path d="M18.6861 5.34345L17.7505 5.2388C17.6672 5.08589 17.5731 4.93587 17.4691 4.79001L18.02 4.28165C18.4993 3.8375 18.4223 3.23762 17.8388 2.8565L16.7146 2.11492C16.3968 1.90534 15.9756 1.78988 15.5286 1.78988C15.1766 1.78988 14.84 1.86142 14.5575 1.9955L13.7838 2.35896C13.5445 2.28434 13.3017 2.21841 13.0573 2.16145L12.9026 1.55685C12.7664 1.02137 12.07 0.632812 11.2466 0.632812H9.65829C8.835 0.632812 8.1386 1.02137 8.00278 1.55579L7.84017 2.18404C7.61053 2.23935 7.3841 2.3022 7.16236 2.37238L6.40274 2.01153C6.11792 1.87628 5.77997 1.80485 5.42533 1.80485C4.97395 1.80485 4.55257 1.9205 4.23833 2.13056L3.11149 2.87137C2.52955 3.25519 2.45329 3.85458 2.93029 4.29652L3.49013 4.8153C3.38694 4.96175 3.29415 5.11244 3.21218 5.26622L2.29537 5.36826C1.48364 5.45813 0.894531 5.91745 0.894531 6.46046V7.50806C0.894531 8.05107 1.48364 8.51038 2.2939 8.60006L3.24643 8.70722C3.3303 8.85878 3.42573 9.00822 3.53199 9.15437L2.98693 9.65442C2.50759 10.0986 2.58458 10.6985 3.16813 11.0796L4.29234 11.8212C4.61009 12.0307 5.03132 12.1462 5.47832 12.1462C5.83032 12.1462 6.16695 12.0747 6.44929 11.9407L7.23584 11.5714C7.4425 11.6347 7.65678 11.6928 7.87676 11.745L8.03264 12.3619C8.1689 12.8973 8.86529 13.2859 9.68858 13.2859H11.2806C12.1039 13.2859 12.8004 12.8973 12.9364 12.3626L13.095 11.7455C13.3269 11.6905 13.5543 11.6285 13.7755 11.5598L14.5437 11.922C14.8285 12.0573 15.1665 12.1288 15.5211 12.1288C15.968 12.1288 16.3892 12.0134 16.707 11.8038L17.8312 11.0622C18.4133 10.6784 18.4894 10.079 18.0124 9.63705L17.4609 9.12628C17.5677 8.97704 17.6621 8.82712 17.7434 8.67807L18.6776 8.57535C19.4893 8.48548 20.0784 8.02616 20.0784 7.48315V6.43767C20.0876 5.89408 19.5028 5.43419 18.6861 5.34345ZM18.9544 7.48315C18.9544 7.66261 18.7597 7.81446 18.4921 7.8441L17.253 7.98031C17.0244 8.00541 16.84 8.11179 16.7714 8.25804C16.6613 8.4933 16.5101 8.73377 16.3223 8.9724C16.2161 9.10697 16.233 9.26732 16.3665 9.39069L17.0967 10.067C17.2542 10.213 17.2289 10.4111 17.0364 10.538L15.9122 11.2795C15.8052 11.3501 15.67 11.3874 15.5211 11.3874C15.4038 11.3874 15.293 11.3643 15.199 11.3197L14.178 10.8383C13.9902 10.7494 13.746 10.7382 13.541 10.809C13.1976 10.9275 12.8327 11.0273 12.4564 11.1052C12.2369 11.1505 12.0766 11.2718 12.0384 11.421L11.828 12.2392C11.783 12.4161 11.5528 12.5445 11.2806 12.5445H9.68858C9.41635 12.5445 9.18627 12.4161 9.14133 12.2396L8.93482 11.4224C8.89705 11.2725 8.73723 11.1511 8.51768 11.1053C8.1468 11.0281 7.79363 10.9324 7.46768 10.8207C7.37883 10.7903 7.28267 10.7753 7.18695 10.7753C7.06313 10.7753 6.93989 10.8004 6.83437 10.8499L5.79504 11.3378C5.70137 11.3823 5.59482 11.4048 5.47832 11.4048C5.32946 11.4048 5.19423 11.3675 5.08723 11.2969L3.96097 10.5541C3.7688 10.4286 3.74436 10.2311 3.90111 10.0858L4.62692 9.41994C4.76348 9.29493 4.78017 9.13275 4.6701 8.99634C4.48554 8.76804 4.33259 8.52863 4.21535 8.28468C4.14598 8.14085 3.96288 8.03572 3.73748 8.01033L2.48139 7.8691C2.21326 7.83937 2.0186 7.68752 2.0186 7.50806V6.46046C2.0186 6.281 2.21326 6.12915 2.48183 6.09941L3.70572 5.9632C3.93448 5.93781 4.11875 5.83114 4.18681 5.68441C4.30229 5.43515 4.45085 5.19411 4.62839 4.96821C4.73406 4.83393 4.71708 4.67397 4.58404 4.5505L3.84608 3.86665C3.68845 3.72069 3.71377 3.5226 3.90565 3.39604L5.03367 2.65455L5.03776 2.65175C5.13919 2.58369 5.27677 2.54624 5.42533 2.54624C5.54272 2.54624 5.65366 2.56941 5.74587 2.61323L6.75987 3.09466C6.9497 3.18482 7.19588 3.19563 7.40196 3.12304C7.74811 3.00131 8.11109 2.90043 8.48051 2.8232C8.69859 2.77754 8.85798 2.65696 8.89676 2.50791L9.11104 1.67945C9.15597 1.5026 9.3862 1.3742 9.65843 1.3742H11.2468C11.5188 1.3742 11.7491 1.5026 11.7942 1.67974L12.0007 2.48726C12.0393 2.63824 12.2013 2.75968 12.424 2.80447C12.8035 2.88054 13.182 2.98325 13.5492 3.10991C13.7532 3.18019 13.9963 3.16918 14.1843 3.08104L15.212 2.59827C15.3055 2.55377 15.4121 2.53128 15.5287 2.53128C15.6774 2.53128 15.8127 2.56854 15.9198 2.6392L17.0459 3.38195C17.2381 3.50744 17.2627 3.70495 17.1049 3.85101L16.3744 4.52512C16.2404 4.64907 16.2237 4.8099 16.3307 4.94466C16.5105 5.17113 16.6616 5.41179 16.7799 5.66008C16.8488 5.80488 17.0325 5.91049 17.2588 5.93569L18.4981 6.07441L18.4992 6.07451C18.7666 6.10414 18.9582 6.25377 18.9544 6.43034V7.48315Z" fill="white" fill-opacity="0.5"/>
<path d="M10.4858 4.5C8.42908 4.5 6.75586 5.60359 6.75586 6.96011C6.75586 8.31662 8.42908 9.42021 10.4858 9.42021C12.5425 9.42021 14.2157 8.31662 14.2157 6.96011C14.2157 5.60359 12.5425 4.5 10.4858 4.5ZM10.4858 8.67882C9.04892 8.67882 7.87992 7.90779 7.87992 6.96011C7.87992 6.01242 9.04892 5.24139 10.4858 5.24139C11.9226 5.24139 13.0916 6.01242 13.0916 6.96011C13.0916 7.90779 11.9226 8.67882 10.4858 8.67882Z" fill="white" fill-opacity="0.5"/>
</svg>
