<svg width="862" height="452" viewBox="0 0 862 452" fill="none" xmlns="http://www.w3.org/2000/svg">
<line x1="4.10056" y1="0.339844" x2="4.10056" y2="32.13" stroke="#16C782" stroke-width="0.912058"/>
<line x1="11.0302" y1="23.1895" x2="11.0302" y2="115.58" stroke="#16C782" stroke-width="0.912058"/>
<line x1="17.9619" y1="52" x2="17.9619" y2="87.764" stroke="#16C782" stroke-width="0.912058"/>
<line x1="24.8916" y1="56.9668" x2="24.8916" y2="95.7111" stroke="#16C782" stroke-width="0.912058"/>
<line x1="31.8232" y1="59.9473" x2="31.8232" y2="93.7243" stroke="#EA3943" stroke-width="0.912058"/>
<line x1="38.7549" y1="67.8945" x2="38.7549" y2="126.508" stroke="#EA3943" stroke-width="0.912058"/>
<line x1="45.6845" y1="107.633" x2="45.6845" y2="156.312" stroke="#EA3943" stroke-width="0.912058"/>
<line x1="51.626" y1="117.566" x2="51.626" y2="144.389" stroke="#16C782" stroke-width="0.912058"/>
<line x1="58.5556" y1="123.527" x2="58.5556" y2="161.278" stroke="#16C782" stroke-width="0.912058"/>
<line x1="65.4873" y1="84.7832" x2="65.4873" y2="161.278" stroke="#16C782" stroke-width="0.912058"/>
<line x1="72.417" y1="72.8613" x2="72.417" y2="96.704" stroke="#EA3943" stroke-width="0.912058"/>
<line x1="79.3486" y1="57.959" x2="79.3486" y2="91.7361" stroke="#EA3943" stroke-width="0.912058"/>
<line x1="86.2783" y1="75.8418" x2="86.2783" y2="106.639" stroke="#EA3943" stroke-width="0.912058"/>
<line x1="93.2099" y1="48.0254" x2="93.2099" y2="99.6844" stroke="#EA3943" stroke-width="0.912058"/>
<line x1="127.864" y1="48.0254" x2="127.864" y2="100.678" stroke="#EA3943" stroke-width="0.912058"/>
<line x1="135.784" y1="44.0508" x2="135.784" y2="76.8344" stroke="#EA3943" stroke-width="0.912058"/>
<line x1="141.726" y1="40.0781" x2="141.726" y2="76.8355" stroke="#EA3943" stroke-width="0.912058"/>
<line x1="147.665" y1="32.1309" x2="147.665" y2="58.9538" stroke="#16C782" stroke-width="0.912058"/>
<line x1="154.597" y1="28.1563" x2="154.597" y2="66.9005" stroke="#16C782" stroke-width="0.912058"/>
<line x1="161.528" y1="31.1367" x2="161.528" y2="94.7171" stroke="#16C782" stroke-width="0.912058"/>
<line x1="168.458" y1="57.959" x2="168.458" y2="84.782" stroke="#16C782" stroke-width="0.912058"/>
<line x1="175.39" y1="48.0254" x2="175.39" y2="146.376" stroke="#EA3943" stroke-width="0.912058"/>
<line x1="183.31" y1="115.58" x2="183.31" y2="175.187" stroke="#EA3943" stroke-width="0.912058"/>
<line x1="189.251" y1="113.592" x2="189.251" y2="142.402" stroke="#EA3943" stroke-width="0.912058"/>
<line x1="196.181" y1="122.533" x2="196.181" y2="167.238" stroke="#16C782" stroke-width="0.912058"/>
<line x1="203.112" y1="132.469" x2="203.112" y2="195.056" stroke="#16C782" stroke-width="0.912058"/>
<line x1="210.042" y1="164.258" x2="210.042" y2="211.943" stroke="#16C782" stroke-width="0.912058"/>
<line x1="216.974" y1="172.205" x2="216.974" y2="212.936" stroke="#16C782" stroke-width="0.912058"/>
<line x1="223.905" y1="175.186" x2="223.905" y2="314.268" stroke="#16C782" stroke-width="0.912058"/>
<line x1="230.835" y1="202.01" x2="230.835" y2="285.459" stroke="#EA3943" stroke-width="0.912058"/>
<line x1="237.767" y1="208.963" x2="237.767" y2="300.36" stroke="#EA3943" stroke-width="0.912058"/>
<line x1="243.706" y1="243.734" x2="243.706" y2="282.479" stroke="#EA3943" stroke-width="0.912058"/>
<line x1="250.638" y1="249.693" x2="250.638" y2="325.195" stroke="#EA3943" stroke-width="0.912058"/>
<line x1="257.567" y1="232.807" x2="257.567" y2="290.426" stroke="#EA3943" stroke-width="0.912058"/>
<line x1="264.499" y1="232.807" x2="264.499" y2="269.564" stroke="#16C782" stroke-width="0.912058"/>
<line x1="278.36" y1="227.838" x2="278.36" y2="262.608" stroke="#16C782" stroke-width="0.912058"/>
<line x1="271.429" y1="223.865" x2="271.429" y2="255.655" stroke="#16C782" stroke-width="0.912058"/>
<line x1="285.292" y1="243.734" x2="285.292" y2="288.439" stroke="#16C782" stroke-width="0.912058"/>
<line x1="292.222" y1="259.629" x2="292.222" y2="298.373" stroke="#EA3943" stroke-width="0.912058"/>
<line x1="299.153" y1="268.57" x2="299.153" y2="301.354" stroke="#EA3943" stroke-width="0.912058"/>
<line x1="306.083" y1="257.643" x2="306.083" y2="293.407" stroke="#16C782" stroke-width="0.912058"/>
<line x1="313.015" y1="253.668" x2="313.015" y2="277.511" stroke="#16C782" stroke-width="0.912058"/>
<line x1="319.944" y1="250.687" x2="319.944" y2="275.524" stroke="#16C782" stroke-width="0.912058"/>
<line x1="326.876" y1="237.773" x2="326.876" y2="262.61" stroke="#EA3943" stroke-width="0.912058"/>
<line x1="332.815" y1="239.76" x2="332.815" y2="279.497" stroke="#EA3943" stroke-width="0.912058"/>
<line x1="339.747" y1="253.668" x2="339.747" y2="286.452" stroke="#EA3943" stroke-width="0.912058"/>
<line x1="346.679" y1="268.57" x2="346.679" y2="282.479" stroke="#16C782" stroke-width="0.912058"/>
<line x1="353.608" y1="265.59" x2="353.608" y2="302.347" stroke="#16C782" stroke-width="0.912058"/>
<line x1="360.54" y1="293.406" x2="360.54" y2="326.19" stroke="#16C782" stroke-width="0.912058"/>
<line x1="367.47" y1="257.643" x2="367.47" y2="311.289" stroke="#16C782" stroke-width="0.912058"/>
<line x1="374.401" y1="248.701" x2="374.401" y2="276.518" stroke="#16C782" stroke-width="0.912058"/>
<line x1="381.331" y1="256.648" x2="381.331" y2="275.524" stroke="#EA3943" stroke-width="0.912058"/>
<line x1="388.263" y1="258.635" x2="388.263" y2="288.438" stroke="#EA3943" stroke-width="0.912058"/>
<line x1="395.192" y1="238.766" x2="395.192" y2="287.444" stroke="#EA3943" stroke-width="0.912058"/>
<line x1="402.124" y1="221.879" x2="402.124" y2="246.715" stroke="#16C782" stroke-width="0.912058"/>
<line x1="409.054" y1="218.896" x2="409.054" y2="238.765" stroke="#16C782" stroke-width="0.912058"/>
<line x1="415.985" y1="227.838" x2="415.985" y2="253.667" stroke="#16C782" stroke-width="0.912058"/>
<line x1="422.917" y1="236.779" x2="422.917" y2="260.622" stroke="#16C782" stroke-width="0.912058"/>
<line x1="428.856" y1="250.688" x2="428.856" y2="283.471" stroke="#16C782" stroke-width="0.912058"/>
<line x1="435.788" y1="269.562" x2="435.788" y2="287.444" stroke="#16C782" stroke-width="0.912058"/>
<line x1="442.718" y1="272.543" x2="442.718" y2="302.346" stroke="#16C782" stroke-width="0.912058"/>
<line x1="449.649" y1="276.518" x2="449.649" y2="323.209" stroke="#16C782" stroke-width="0.912058"/>
<line x1="456.579" y1="285.457" x2="456.579" y2="344.07" stroke="#EA3943" stroke-width="0.912058"/>
<line x1="100.142" y1="42.0645" x2="100.142" y2="58.953" stroke="#16C782" stroke-width="0.912058"/>
<line x1="107.071" y1="48.0254" x2="107.071" y2="72.8615" stroke="#16C782" stroke-width="0.912058"/>
<line x1="114.003" y1="38.0918" x2="114.003" y2="63.9213" stroke="#16C782" stroke-width="0.912058"/>
<line x1="120.933" y1="55.9727" x2="120.933" y2="99.6842" stroke="#16C782" stroke-width="0.912058"/>
<line x1="723.909" y1="207.969" x2="723.909" y2="221.877" stroke="#EA3943" stroke-width="0.912058"/>
<line x1="791.237" y1="128.494" x2="791.237" y2="142.402" stroke="#EA3943" stroke-width="0.912058"/>
<line x1="858.563" y1="29.1504" x2="858.563" y2="43.0586" stroke="#EA3943" stroke-width="0.912058"/>
<line x1="716.978" y1="208.963" x2="716.978" y2="250.688" stroke="#EA3943" stroke-width="0.912058"/>
<line x1="784.306" y1="129.488" x2="784.306" y2="171.213" stroke="#EA3943" stroke-width="0.912058"/>
<line x1="851.634" y1="30.1426" x2="851.634" y2="71.8672" stroke="#EA3943" stroke-width="0.912058"/>
<line x1="710.048" y1="225.852" x2="710.048" y2="241.747" stroke="#EA3943" stroke-width="0.912058"/>
<line x1="777.374" y1="146.377" x2="777.374" y2="162.272" stroke="#EA3943" stroke-width="0.912058"/>
<line x1="844.702" y1="47.0312" x2="844.702" y2="62.9263" stroke="#EA3943" stroke-width="0.912058"/>
<line x1="703.116" y1="222.871" x2="703.116" y2="245.72" stroke="#EA3943" stroke-width="0.912058"/>
<line x1="770.444" y1="143.396" x2="770.444" y2="166.246" stroke="#EA3943" stroke-width="0.912058"/>
<line x1="837.772" y1="44.0508" x2="837.772" y2="66.9" stroke="#EA3943" stroke-width="0.912058"/>
<line x1="697.177" y1="237.773" x2="697.177" y2="270.557" stroke="#16C782" stroke-width="0.912058"/>
<line x1="764.503" y1="138.428" x2="764.503" y2="171.211" stroke="#16C782" stroke-width="0.912058"/>
<line x1="831.831" y1="58.9531" x2="831.831" y2="91.7368" stroke="#16C782" stroke-width="0.912058"/>
<line x1="690.245" y1="226.846" x2="690.245" y2="282.479" stroke="#16C782" stroke-width="0.912058"/>
<line x1="757.573" y1="127.5" x2="757.573" y2="183.133" stroke="#16C782" stroke-width="0.912058"/>
<line x1="824.899" y1="48.0254" x2="824.899" y2="103.658" stroke="#16C782" stroke-width="0.912058"/>
<line x1="683.315" y1="279.498" x2="683.315" y2="296.387" stroke="#16C782" stroke-width="0.912058"/>
<line x1="750.642" y1="180.152" x2="750.642" y2="197.041" stroke="#16C782" stroke-width="0.912058"/>
<line x1="817.97" y1="100.678" x2="817.97" y2="117.566" stroke="#16C782" stroke-width="0.912058"/>
<line x1="676.384" y1="288.439" x2="676.384" y2="301.354" stroke="#16C782" stroke-width="0.912058"/>
<line x1="743.712" y1="189.094" x2="743.712" y2="202.009" stroke="#16C782" stroke-width="0.912058"/>
<line x1="811.038" y1="109.619" x2="811.038" y2="122.534" stroke="#16C782" stroke-width="0.912058"/>
<line x1="669.452" y1="297.379" x2="669.452" y2="316.254" stroke="#16C782" stroke-width="0.912058"/>
<line x1="736.78" y1="198.035" x2="736.78" y2="216.911" stroke="#16C782" stroke-width="0.912058"/>
<line x1="804.108" y1="118.561" x2="804.108" y2="137.436" stroke="#16C782" stroke-width="0.912058"/>
<line x1="662.522" y1="308.307" x2="662.522" y2="319.235" stroke="#16C782" stroke-width="0.912058"/>
<line x1="729.851" y1="208.963" x2="729.851" y2="219.891" stroke="#16C782" stroke-width="0.912058"/>
<line x1="797.177" y1="129.488" x2="797.177" y2="140.416" stroke="#16C782" stroke-width="0.912058"/>
<line x1="655.591" y1="305.326" x2="655.591" y2="341.09" stroke="#EA3943" stroke-width="0.912058"/>
<line x1="648.661" y1="324.203" x2="648.661" y2="343.079" stroke="#16C782" stroke-width="0.912058"/>
<line x1="641.729" y1="316.254" x2="641.729" y2="332.149" stroke="#16C782" stroke-width="0.912058"/>
<line x1="634.8" y1="310.295" x2="634.8" y2="325.197" stroke="#16C782" stroke-width="0.912058"/>
<line x1="627.868" y1="315.262" x2="627.868" y2="324.203" stroke="#EA3943" stroke-width="0.912058"/>
<line x1="620.938" y1="312.281" x2="620.938" y2="326.189" stroke="#EA3943" stroke-width="0.912058"/>
<line x1="614.007" y1="302.348" x2="614.007" y2="325.197" stroke="#EA3943" stroke-width="0.912058"/>
<line x1="608.065" y1="303.34" x2="608.065" y2="320.228" stroke="#EA3943" stroke-width="0.912058"/>
<line x1="601.136" y1="301.354" x2="601.136" y2="314.268" stroke="#16C782" stroke-width="0.912058"/>
<line x1="594.204" y1="287.445" x2="594.204" y2="309.301" stroke="#16C782" stroke-width="0.912058"/>
<line x1="587.274" y1="287.445" x2="587.274" y2="302.347" stroke="#16C782" stroke-width="0.912058"/>
<line x1="580.343" y1="291.418" x2="580.343" y2="305.326" stroke="#16C782" stroke-width="0.912058"/>
<line x1="573.413" y1="293.406" x2="573.413" y2="313.275" stroke="#EA3943" stroke-width="0.912058"/>
<line x1="566.481" y1="294.398" x2="566.481" y2="314.267" stroke="#EA3943" stroke-width="0.912058"/>
<line x1="559.552" y1="283.471" x2="559.552" y2="297.379" stroke="#EA3943" stroke-width="0.912058"/>
<line x1="552.62" y1="282.479" x2="552.62" y2="300.361" stroke="#16C782" stroke-width="0.912058"/>
<line x1="545.69" y1="281.484" x2="545.69" y2="304.334" stroke="#16C782" stroke-width="0.912058"/>
<line x1="538.759" y1="274.529" x2="538.759" y2="291.418" stroke="#16C782" stroke-width="0.912058"/>
<line x1="531.829" y1="284.465" x2="531.829" y2="302.347" stroke="#16C782" stroke-width="0.912058"/>
<line x1="524.897" y1="294.398" x2="524.897" y2="308.307" stroke="#16C782" stroke-width="0.912058"/>
<line x1="517.966" y1="283.471" x2="517.966" y2="308.307" stroke="#EA3943" stroke-width="0.912058"/>
<line x1="512.026" y1="272.543" x2="512.026" y2="294.399" stroke="#EA3943" stroke-width="0.912058"/>
<line x1="505.095" y1="267.576" x2="505.095" y2="292.412" stroke="#EA3943" stroke-width="0.912058"/>
<line x1="498.165" y1="280.49" x2="498.165" y2="296.385" stroke="#16C782" stroke-width="0.912058"/>
<line x1="491.233" y1="286.451" x2="491.233" y2="315.261" stroke="#16C782" stroke-width="0.912058"/>
<line x1="484.304" y1="307.314" x2="484.304" y2="335.131" stroke="#16C782" stroke-width="0.912058"/>
<line x1="477.372" y1="278.504" x2="477.372" y2="323.209" stroke="#16C782" stroke-width="0.912058"/>
<line x1="470.44" y1="281.484" x2="470.44" y2="312.281" stroke="#EA3943" stroke-width="0.912058"/>
<line x1="463.511" y1="284.465" x2="463.511" y2="319.235" stroke="#EA3943" stroke-width="0.912058"/>
<rect x="1.66406" y="12.2617" width="4.95054" height="15.8951" fill="#16C782"/>
<rect x="8.59375" y="27.1621" width="4.95054" height="39.7377" fill="#16C782"/>
<rect x="15.5254" y="65.9062" width="4.95054" height="6.9541" fill="#16C782"/>
<rect x="22.457" y="62.9277" width="4.95054" height="9.93443" fill="#16C782"/>
<rect x="29.3867" y="62.9277" width="4.95054" height="28.8099" fill="#EA3943"/>
<rect x="36.3184" y="90.7422" width="4.95054" height="22.8492" fill="#EA3943"/>
<rect x="43.248" y="112.6" width="4.95054" height="5.96066" fill="#EA3943"/>
<rect x="49.1895" y="117.566" width="4.95054" height="11.9213" fill="#16C782"/>
<rect x="56.1191" y="128.494" width="4.95054" height="11.9213" fill="#16C782"/>
<rect x="63.0508" y="87.7637" width="4.95054" height="52.6525" fill="#16C782"/>
<rect x="69.9805" y="77.8281" width="4.95054" height="11.9213" fill="#EA3943"/>
<rect x="76.9121" y="77.8281" width="4.95054" height="2.98033" fill="#EA3943"/>
<rect x="83.8438" y="79.8164" width="4.95054" height="13.9082" fill="#EA3943"/>
<rect x="90.7734" y="50.0117" width="4.95054" height="43.7115" fill="#EA3943"/>
<rect x="125.428" y="52.9922" width="4.95054" height="44.7049" fill="#EA3943"/>
<rect x="132.357" y="52.9922" width="4.95054" height="11.9213" fill="#EA3943"/>
<rect x="139.289" y="53.9863" width="4.95054" height="10.9279" fill="#EA3943"/>
<rect x="145.23" y="38.0918" width="4.95054" height="16.8885" fill="#16C782"/>
<rect x="152.16" y="38.0918" width="4.95054" height="7.94755" fill="#16C782"/>
<rect x="159.092" y="44.0508" width="4.95054" height="26.823" fill="#16C782"/>
<rect x="166.021" y="60.9395" width="4.95054" height="9.93443" fill="#16C782"/>
<rect x="172.953" y="60.9395" width="4.95054" height="76.4951" fill="#EA3943"/>
<rect x="179.883" y="133.461" width="4.95054" height="3.97377" fill="#EA3943"/>
<rect x="186.814" y="131.475" width="4.95054" height="2.98033" fill="#EA3943"/>
<rect x="193.744" y="131.475" width="4.95054" height="33.7771" fill="#16C782"/>
<rect x="200.676" y="163.264" width="4.95054" height="3.97377" fill="#16C782"/>
<rect x="207.607" y="166.246" width="4.95054" height="30.7967" fill="#16C782"/>
<rect x="0.673828" y="440.436" width="5.94065" height="10.9279" fill="#16C782"/>
<rect x="7.60547" y="407.652" width="5.94065" height="43.7115" fill="#16C782"/>
<rect x="14.5352" y="428.514" width="5.94065" height="22.8492" fill="#16C782"/>
<rect x="21.4668" y="435.469" width="5.94065" height="15.8951" fill="#16C782"/>
<rect x="28.3965" y="422.553" width="5.94065" height="28.8099" fill="#16C782"/>
<rect x="35.3281" y="424.541" width="5.94065" height="26.823" fill="#16C782"/>
<rect x="42.2578" y="411.625" width="4.95054" height="39.7377" fill="#EA3943"/>
<rect x="55.1289" y="436.461" width="5.94065" height="14.9016" fill="#EA3943"/>
<rect x="48.1992" y="438.449" width="5.94065" height="12.9148" fill="#EA3943"/>
<rect x="62.0605" y="430.502" width="5.94065" height="20.8623" fill="#EA3943"/>
<rect x="68.9922" y="436.461" width="5.94065" height="14.9016" fill="#EA3943"/>
<rect x="75.9219" y="435.469" width="5.94065" height="15.8951" fill="#EA3943"/>
<rect x="82.8535" y="436.461" width="5.94065" height="14.9016" fill="#16C782"/>
<rect x="89.7832" y="434.475" width="5.94065" height="16.8885" fill="#16C782"/>
<rect x="96.7148" y="442.422" width="5.94065" height="8.94099" fill="#16C782"/>
<rect x="103.645" y="444.408" width="5.94065" height="6.9541" fill="#16C782"/>
<rect x="110.576" y="438.449" width="5.94065" height="12.9148" fill="#16C782"/>
<rect x="117.506" y="431.494" width="5.94065" height="19.8689" fill="#EA3943"/>
<rect x="124.438" y="431.494" width="5.94065" height="19.8689" fill="#EA3943"/>
<rect x="131.367" y="433.48" width="5.94065" height="17.882" fill="#16C782"/>
<rect x="138.299" y="436.461" width="4.95054" height="14.9016" fill="#16C782"/>
<rect x="144.24" y="440.436" width="5.94065" height="10.9279" fill="#16C782"/>
<rect x="151.17" y="441.43" width="5.94065" height="9.93443" fill="#16C782"/>
<rect x="158.102" y="428.514" width="5.94065" height="22.8492" fill="#16C782"/>
<rect x="165.031" y="436.461" width="5.94065" height="14.9016" fill="#16C782"/>
<rect x="171.963" y="429.508" width="5.94065" height="21.8557" fill="#16C782"/>
<rect x="178.893" y="419.572" width="5.94065" height="31.7902" fill="#EA3943"/>
<rect x="185.824" y="436.461" width="5.94065" height="14.9016" fill="#EA3943"/>
<rect x="192.754" y="438.449" width="5.94065" height="12.9148" fill="#EA3943"/>
<rect x="199.686" y="431.494" width="5.94065" height="19.8689" fill="#16C782"/>
<rect x="206.617" y="409.639" width="5.94065" height="41.7246" fill="#16C782"/>
<rect x="213.547" y="429.508" width="5.94065" height="21.8557" fill="#16C782"/>
<rect x="220.479" y="342.084" width="5.94065" height="109.279" fill="#16C782"/>
<rect x="227.408" y="400.697" width="5.94065" height="50.6656" fill="#EA3943"/>
<rect x="234.34" y="406.658" width="4.95054" height="44.7049" fill="#EA3943"/>
<rect x="240.279" y="431.494" width="5.94065" height="19.8689" fill="#EA3943"/>
<rect x="247.211" y="418.58" width="5.94065" height="32.7836" fill="#EA3943"/>
<rect x="254.141" y="416.594" width="5.94065" height="34.7705" fill="#EA3943"/>
<rect x="261.072" y="431.494" width="5.94065" height="19.8689" fill="#16C782"/>
<rect x="268.004" y="436.461" width="5.94065" height="14.9016" fill="#16C782"/>
<rect x="274.934" y="436.461" width="5.94065" height="14.9016" fill="#16C782"/>
<rect x="281.865" y="429.508" width="5.94065" height="21.8557" fill="#16C782"/>
<rect x="288.795" y="435.469" width="5.94065" height="15.8951" fill="#EA3943"/>
<rect x="295.727" y="440.436" width="5.94065" height="10.9279" fill="#EA3943"/>
<rect x="302.656" y="435.469" width="5.94065" height="15.8951" fill="#16C782"/>
<rect x="309.588" y="435.469" width="5.94065" height="15.8951" fill="#16C782"/>
<rect x="316.518" y="436.461" width="5.94065" height="14.9016" fill="#16C782"/>
<rect x="323.449" y="436.461" width="4.95054" height="14.9016" fill="#EA3943"/>
<rect x="329.391" y="430.502" width="5.94065" height="20.8623" fill="#EA3943"/>
<rect x="336.32" y="436.461" width="5.94065" height="14.9016" fill="#EA3943"/>
<rect x="343.252" y="441.43" width="5.94065" height="9.93443" fill="#16C782"/>
<rect x="350.182" y="433.48" width="5.94065" height="17.882" fill="#16C782"/>
<rect x="357.113" y="419.572" width="5.94065" height="31.7902" fill="#16C782"/>
<rect x="364.043" y="421.561" width="5.94065" height="29.8033" fill="#16C782"/>
<rect x="370.975" y="431.494" width="5.94065" height="19.8689" fill="#16C782"/>
<rect x="377.904" y="437.455" width="5.94065" height="13.9082" fill="#EA3943"/>
<rect x="384.836" y="437.455" width="5.94065" height="13.9082" fill="#EA3943"/>
<rect x="391.768" y="438.449" width="5.94065" height="12.9148" fill="#EA3943"/>
<rect x="398.697" y="429.508" width="5.94065" height="21.8557" fill="#16C782"/>
<rect x="405.629" y="436.461" width="5.94065" height="14.9016" fill="#16C782"/>
<rect x="412.559" y="436.461" width="5.94065" height="14.9016" fill="#16C782"/>
<rect x="419.49" y="438.449" width="4.95054" height="12.9148" fill="#16C782"/>
<rect x="425.43" y="436.461" width="5.94065" height="14.9016" fill="#16C782"/>
<rect x="432.361" y="439.441" width="5.94065" height="11.9213" fill="#16C782"/>
<rect x="439.291" y="437.455" width="5.94065" height="13.9082" fill="#16C782"/>
<rect x="446.223" y="421.561" width="5.94065" height="29.8033" fill="#16C782"/>
<rect x="453.154" y="417.586" width="5.94065" height="33.7771" fill="#EA3943"/>
<rect x="460.084" y="430.502" width="5.94065" height="20.8623" fill="#EA3943"/>
<rect x="467.016" y="434.475" width="5.94065" height="16.8885" fill="#EA3943"/>
<rect x="473.945" y="433.48" width="5.94065" height="17.882" fill="#16C782"/>
<rect x="480.877" y="439.441" width="5.94065" height="11.9213" fill="#16C782"/>
<rect x="487.807" y="439.441" width="5.94065" height="11.9213" fill="#16C782"/>
<rect x="494.738" y="439.441" width="5.94065" height="11.9213" fill="#16C782"/>
<rect x="501.668" y="439.441" width="5.94065" height="11.9213" fill="#EA3943"/>
<rect x="508.6" y="439.441" width="4.95054" height="11.9213" fill="#EA3943"/>
<rect x="514.541" y="439.441" width="5.94065" height="11.9213" fill="#EA3943"/>
<rect x="521.471" y="443.416" width="5.94065" height="7.94755" fill="#16C782"/>
<rect x="542.264" y="442.422" width="5.94065" height="8.94099" fill="#16C782"/>
<rect x="549.193" y="442.422" width="5.94065" height="8.94099" fill="#16C782"/>
<rect x="563.055" y="440.436" width="5.94065" height="10.9279" fill="#EA3943"/>
<rect x="569.986" y="444.408" width="5.94065" height="6.9541" fill="#EA3943"/>
<rect x="583.848" y="444.408" width="5.94065" height="6.9541" fill="#16C782"/>
<rect x="590.779" y="444.408" width="5.94065" height="6.9541" fill="#16C782"/>
<rect x="597.709" y="444.408" width="5.94065" height="6.9541" fill="#16C782"/>
<rect x="604.641" y="441.43" width="4.95054" height="9.93443" fill="#EA3943"/>
<rect x="610.58" y="442.422" width="5.94065" height="8.94099" fill="#EA3943"/>
<rect x="617.512" y="444.408" width="5.94065" height="6.9541" fill="#EA3943"/>
<rect x="638.303" y="442.422" width="5.94065" height="8.94099" fill="#16C782"/>
<rect x="645.234" y="438.449" width="5.94065" height="12.9148" fill="#16C782"/>
<rect x="652.166" y="434.475" width="5.94065" height="16.8885" fill="#EA3943"/>
<rect x="659.096" y="442.422" width="5.94065" height="8.94099" fill="#16C782"/>
<rect x="726.424" y="442.422" width="5.94065" height="8.94099" fill="#16C782"/>
<rect x="793.75" y="442.422" width="5.94065" height="8.94099" fill="#16C782"/>
<rect x="666.027" y="443.416" width="5.94065" height="7.94755" fill="#16C782"/>
<rect x="733.354" y="443.416" width="5.94065" height="7.94755" fill="#16C782"/>
<rect x="800.682" y="443.416" width="5.94065" height="7.94755" fill="#16C782"/>
<rect x="679.889" y="443.416" width="5.94065" height="7.94755" fill="#16C782"/>
<rect x="747.215" y="443.416" width="5.94065" height="7.94755" fill="#16C782"/>
<rect x="814.543" y="443.416" width="5.94065" height="7.94755" fill="#16C782"/>
<rect x="686.818" y="420.566" width="5.94065" height="30.7967" fill="#16C782"/>
<rect x="754.146" y="420.566" width="5.94065" height="30.7967" fill="#16C782"/>
<rect x="821.475" y="420.566" width="5.94065" height="30.7967" fill="#16C782"/>
<rect x="693.75" y="430.502" width="4.95054" height="20.8623" fill="#16C782"/>
<rect x="761.076" y="430.502" width="4.95054" height="20.8623" fill="#16C782"/>
<rect x="828.404" y="430.502" width="4.95054" height="20.8623" fill="#16C782"/>
<rect x="699.691" y="437.455" width="5.94065" height="13.9082" fill="#EA3943"/>
<rect x="767.018" y="437.455" width="5.94065" height="13.9082" fill="#EA3943"/>
<rect x="834.346" y="437.455" width="5.94065" height="13.9082" fill="#EA3943"/>
<rect x="706.621" y="442.422" width="5.94065" height="8.94099" fill="#EA3943"/>
<rect x="773.949" y="442.422" width="5.94065" height="8.94099" fill="#EA3943"/>
<rect x="841.275" y="442.422" width="5.94065" height="8.94099" fill="#EA3943"/>
<rect x="713.553" y="438.449" width="5.94065" height="12.9148" fill="#EA3943"/>
<rect x="780.879" y="438.449" width="5.94065" height="12.9148" fill="#EA3943"/>
<rect x="848.207" y="438.449" width="5.94065" height="12.9148" fill="#EA3943"/>
<rect x="214.537" y="196.049" width="4.95054" height="7.94755" fill="#16C782"/>
<rect x="221.469" y="203.002" width="4.95054" height="63.5804" fill="#16C782"/>
<rect x="228.398" y="225.852" width="4.95054" height="40.7312" fill="#EA3943"/>
<rect x="235.33" y="226.846" width="4.95054" height="33.7771" fill="#EA3943"/>
<rect x="241.27" y="255.654" width="4.95054" height="5.96066" fill="#EA3943"/>
<rect x="248.201" y="258.635" width="4.95054" height="29.8033" fill="#EA3943"/>
<rect x="255.131" y="244.727" width="4.95054" height="42.7181" fill="#EA3943"/>
<rect x="262.062" y="244.727" width="4.95054" height="7.94755" fill="#16C782"/>
<rect x="275.924" y="239.76" width="4.95054" height="8.94099" fill="#16C782"/>
<rect x="268.994" y="239.76" width="4.95054" height="10.9279" fill="#16C782"/>
<rect x="282.855" y="247.707" width="4.95054" height="29.8033" fill="#16C782"/>
<rect x="289.785" y="276.518" width="4.95054" height="11.9213" fill="#EA3943"/>
<rect x="296.717" y="277.51" width="4.95054" height="10.9279" fill="#EA3943"/>
<rect x="303.646" y="259.629" width="4.95054" height="18.8754" fill="#16C782"/>
<rect x="310.578" y="260.621" width="4.95054" height="6.9541" fill="#16C782"/>
<rect x="317.508" y="257.643" width="4.95054" height="9.93443" fill="#16C782"/>
<rect x="324.439" y="240.754" width="4.95054" height="17.882" fill="#EA3943"/>
<rect x="330.381" y="240.754" width="4.95054" height="24.8361" fill="#EA3943"/>
<rect x="337.311" y="264.596" width="4.95054" height="14.9016" fill="#EA3943"/>
<rect x="344.242" y="275.523" width="4.95054" height="3.97377" fill="#16C782"/>
<rect x="351.172" y="275.523" width="4.95054" height="23.8426" fill="#16C782"/>
<rect x="358.104" y="298.373" width="4.95054" height="2.98033" fill="#16C782"/>
<rect x="365.033" y="259.629" width="4.95054" height="41.7246" fill="#16C782"/>
<rect x="371.965" y="259.629" width="4.95054" height="7.94755" fill="#16C782"/>
<rect x="378.895" y="259.629" width="4.95054" height="7.94755" fill="#EA3943"/>
<rect x="385.826" y="259.629" width="4.95054" height="19.8689" fill="#EA3943"/>
<rect x="392.756" y="242.74" width="4.95054" height="36.7574" fill="#EA3943"/>
<rect x="399.688" y="226.846" width="4.95054" height="16.8885" fill="#16C782"/>
<rect x="406.619" y="226.846" width="4.95054" height="4.96722" fill="#16C782"/>
<rect x="413.549" y="230.818" width="4.95054" height="19.8689" fill="#16C782"/>
<rect x="420.48" y="249.693" width="4.95054" height="3.97377" fill="#16C782"/>
<rect x="426.42" y="251.682" width="4.95054" height="24.8361" fill="#16C782"/>
<rect x="433.352" y="275.523" width="4.95054" height="3.97377" fill="#16C782"/>
<rect x="440.281" y="277.51" width="4.95054" height="1.98689" fill="#16C782"/>
<rect x="447.213" y="277.51" width="4.95054" height="41.7246" fill="#16C782"/>
<rect x="454.145" y="309.301" width="4.95054" height="9.93443" fill="#EA3943"/>
<rect x="97.7051" y="49.0195" width="4.95054" height="1.98689" fill="#16C782"/>
<rect x="104.635" y="49.0195" width="4.95054" height="13.9082" fill="#16C782"/>
<rect x="111.566" y="55.9727" width="4.95054" height="6.9541" fill="#16C782"/>
<rect x="118.496" y="55.9727" width="4.95054" height="41.7246" fill="#16C782"/>
<rect x="721.473" y="209.957" width="4.95054" height="6.9541" fill="#EA3943"/>
<rect x="788.801" y="130.48" width="4.95054" height="6.9541" fill="#EA3943"/>
<rect x="856.127" y="31.1367" width="4.95054" height="6.9541" fill="#EA3943"/>
<rect x="714.543" y="209.957" width="4.95054" height="22.8492" fill="#EA3943"/>
<rect x="781.869" y="130.48" width="4.95054" height="22.8492" fill="#EA3943"/>
<rect x="849.197" y="31.1367" width="4.95054" height="22.8492" fill="#EA3943"/>
<rect x="707.611" y="231.812" width="4.95054" height="1.98689" fill="#EA3943"/>
<rect x="774.939" y="152.336" width="4.95054" height="1.98689" fill="#EA3943"/>
<rect x="842.266" y="52.9922" width="4.95054" height="1.98689" fill="#EA3943"/>
<rect x="700.68" y="231.812" width="4.95054" height="7.94755" fill="#EA3943"/>
<rect x="768.008" y="152.336" width="4.95054" height="7.94755" fill="#EA3943"/>
<rect x="835.336" y="52.9922" width="4.95054" height="7.94755" fill="#EA3943"/>
<rect x="694.74" y="237.773" width="4.95054" height="23.8426" fill="#16C782"/>
<rect x="762.066" y="138.428" width="4.95054" height="23.8426" fill="#16C782"/>
<rect x="829.395" y="58.9531" width="4.95054" height="23.8426" fill="#16C782"/>
<rect x="687.809" y="260.621" width="4.95054" height="19.8689" fill="#16C782"/>
<rect x="755.137" y="161.277" width="4.95054" height="19.8689" fill="#16C782"/>
<rect x="822.465" y="81.8027" width="4.95054" height="19.8689" fill="#16C782"/>
<rect x="680.879" y="279.498" width="4.95054" height="12.9148" fill="#16C782"/>
<rect x="748.205" y="180.152" width="4.95054" height="12.9148" fill="#16C782"/>
<rect x="815.533" y="100.678" width="4.95054" height="12.9148" fill="#16C782"/>
<rect x="673.947" y="291.418" width="4.95054" height="6.9541" fill="#16C782"/>
<rect x="741.275" y="192.074" width="4.95054" height="6.9541" fill="#16C782"/>
<rect x="808.602" y="112.6" width="4.95054" height="6.9541" fill="#16C782"/>
<rect x="667.018" y="297.379" width="4.95054" height="14.9016" fill="#16C782"/>
<rect x="734.344" y="198.035" width="4.95054" height="14.9016" fill="#16C782"/>
<rect x="801.672" y="118.561" width="4.95054" height="14.9016" fill="#16C782"/>
<rect x="660.086" y="311.287" width="4.95054" height="2.98033" fill="#16C782"/>
<rect x="727.414" y="211.943" width="4.95054" height="2.98033" fill="#16C782"/>
<rect x="794.74" y="132.469" width="4.95054" height="2.98033" fill="#16C782"/>
<rect x="653.156" y="313.275" width="4.95054" height="24.8361" fill="#EA3943"/>
<rect x="646.225" y="327.184" width="4.95054" height="10.9279" fill="#16C782"/>
<rect x="639.293" y="317.248" width="4.95054" height="10.9279" fill="#16C782"/>
<rect x="632.363" y="317.248" width="4.95054" height="3.97377" fill="#16C782"/>
<rect x="625.432" y="319.236" width="4.95054" height="2.98033" fill="#16C782"/>
<rect x="618.502" y="316.254" width="4.95054" height="5.96066" fill="#EA3943"/>
<rect x="611.57" y="306.32" width="4.95054" height="10.9279" fill="#EA3943"/>
<rect x="605.631" y="306.32" width="4.95054" height="1.98689" fill="#EA3943"/>
<rect x="598.699" y="303.34" width="4.95054" height="4.96722" fill="#16C782"/>
<rect x="591.77" y="291.418" width="4.95054" height="12.9148" fill="#16C782"/>
<rect x="584.838" y="291.418" width="4.95054" height="8.94099" fill="#16C782"/>
<rect x="577.906" y="296.387" width="4.95054" height="3.97377" fill="#16C782"/>
<rect x="570.977" y="296.387" width="4.95054" height="9.93443" fill="#EA3943"/>
<rect x="564.045" y="295.393" width="4.95054" height="10.9279" fill="#EA3943"/>
<rect x="557.115" y="291.418" width="4.95054" height="4.96722" fill="#EA3943"/>
<rect x="550.184" y="291.418" width="4.95054" height="6.9541" fill="#16C782"/>
<rect x="543.254" y="281.484" width="4.95054" height="16.8885" fill="#16C782"/>
<rect x="536.322" y="281.484" width="4.95054" height="6.9541" fill="#16C782"/>
<rect x="529.393" y="287.445" width="4.95054" height="9.93443" fill="#16C782"/>
<rect x="522.461" y="296.387" width="4.95054" height="3.97377" fill="#16C782"/>
<rect x="515.529" y="283.471" width="4.95054" height="15.8951" fill="#EA3943"/>
<rect x="509.59" y="274.529" width="4.95054" height="9.93443" fill="#EA3943"/>
<rect x="502.658" y="274.529" width="4.95054" height="15.8951" fill="#EA3943"/>
<rect x="495.729" y="286.451" width="4.95054" height="3.97377" fill="#16C782"/>
<rect x="488.797" y="287.445" width="4.95054" height="24.8361" fill="#16C782"/>
<rect x="481.867" y="312.281" width="4.95054" height="7.94755" fill="#16C782"/>
<rect x="474.936" y="287.445" width="4.95054" height="32.7836" fill="#16C782"/>
<rect x="468.006" y="287.445" width="4.95054" height="10.9279" fill="#EA3943"/>
<rect x="461.074" y="297.379" width="4.95054" height="12.9148" fill="#EA3943"/>
</svg>
