<svg width="28" height="28" viewBox="0 0 28 28" fill="none" xmlns="http://www.w3.org/2000/svg">
<circle cx="14" cy="14" r="12" fill="white"/>
<path d="M14 1.55554C11.5387 1.55554 9.13271 2.2854 7.08623 3.65281C5.03975 5.02022 3.44471 6.96378 2.50282 9.2377C1.56093 11.5116 1.31449 14.0138 1.79466 16.4278C2.27484 18.8418 3.46005 21.0592 5.20044 22.7995C6.94083 24.5399 9.15822 25.7251 11.5722 26.2053C13.9862 26.6855 16.4883 26.439 18.7623 25.4972C21.0362 24.5553 22.9798 22.9602 24.3472 20.9137C25.7146 18.8673 26.4444 16.4613 26.4444 14C26.4444 10.6995 25.1333 7.53422 22.7995 5.20044C20.4658 2.86665 17.3005 1.55554 14 1.55554ZM20.2767 7.70776L15.3533 15.5555H17.1111C17.3174 15.5555 17.5152 15.6375 17.6611 15.7833C17.8069 15.9292 17.8889 16.127 17.8889 16.3333C17.8889 16.5396 17.8069 16.7374 17.6611 16.8833C17.5152 17.0292 17.3174 17.1111 17.1111 17.1111H14.9722V18.6667H17.1111C17.3174 18.6667 17.5152 18.7486 17.6611 18.8945C17.8069 19.0403 17.8889 19.2381 17.8889 19.4444C17.8889 19.6507 17.8069 19.8485 17.6611 19.9944C17.5152 20.1403 17.3174 20.2222 17.1111 20.2222H14.9722V22.3611C14.9722 22.6189 14.8698 22.8662 14.6875 23.0486C14.5051 23.2309 14.2578 23.3333 14 23.3333C13.7421 23.3333 13.4949 23.2309 13.3125 23.0486C13.1302 22.8662 13.0278 22.6189 13.0278 22.3611V20.2222H10.8889C10.6826 20.2222 10.4848 20.1403 10.3389 19.9944C10.193 19.8485 10.1111 19.6507 10.1111 19.4444C10.1111 19.2381 10.193 19.0403 10.3389 18.8945C10.4848 18.7486 10.6826 18.6667 10.8889 18.6667H13.0278V17.1111H10.8889C10.6826 17.1111 10.4848 17.0292 10.3389 16.8833C10.193 16.7374 10.1111 16.5396 10.1111 16.3333C10.1111 16.127 10.193 15.9292 10.3389 15.7833C10.4848 15.6375 10.6826 15.5555 10.8889 15.5555H12.6467L7.72333 7.70776C7.6554 7.5995 7.60947 7.47891 7.58815 7.35289C7.56683 7.22687 7.57054 7.09789 7.59907 6.9733C7.6276 6.84872 7.68038 6.73097 7.75442 6.62679C7.82845 6.5226 7.92228 6.43402 8.03055 6.3661C8.13881 6.29817 8.2594 6.25224 8.38542 6.23092C8.51144 6.2096 8.64042 6.21331 8.76501 6.24184C8.88959 6.27037 9.00734 6.32316 9.11152 6.39719C9.21571 6.47122 9.30429 6.56505 9.37221 6.67332L14 14.0622L18.6278 6.6811C18.6957 6.57283 18.7843 6.479 18.8885 6.40497C18.9926 6.33093 19.1104 6.27815 19.235 6.24962C19.3596 6.22109 19.4885 6.21738 19.6146 6.2387C19.7406 6.26002 19.8612 6.30595 19.9694 6.37387C20.0777 6.4418 20.1715 6.53038 20.2456 6.63456C20.3196 6.73875 20.3724 6.8565 20.4009 6.98108C20.4294 7.10567 20.4332 7.23465 20.4118 7.36067C20.3905 7.48669 20.3446 7.60727 20.2767 7.71554V7.70776Z" fill="#099AF6"/>
</svg>
