<svg width="12" height="12" viewBox="0 0 12 12" fill="none" xmlns="http://www.w3.org/2000/svg">
<path d="M9.83344 7.31741V9.71782C9.8333 10.0575 9.69831 10.3831 9.45815 10.6233C9.218 10.8635 8.89231 10.9984 8.55268 10.9986H2.28078C2.11197 10.9985 1.94484 10.9651 1.78899 10.9002C1.63314 10.8354 1.49164 10.7403 1.37262 10.6206C1.25361 10.5009 1.15942 10.3588 1.09548 10.2026C1.03154 10.0464 0.999097 9.87906 1.00002 9.71025V3.44539C0.999018 3.27684 1.03147 3.10978 1.09551 2.95387C1.15955 2.79796 1.25389 2.65631 1.37307 2.53713C1.49225 2.41795 1.6339 2.32361 1.78981 2.25957C1.94571 2.19554 2.11278 2.16308 2.28132 2.16409H4.6812" stroke="#EBEBEB" stroke-width="0.5" stroke-linecap="round" stroke-linejoin="round"/>
<path d="M9.8325 4.37618L7.62401 2.16715M3.20703 8.05682V6.88634C3.20811 6.69334 3.28488 6.5079 3.42058 6.37112L8.5739 1.2178C8.64236 1.14879 8.72379 1.09401 8.81352 1.05663C8.90325 1.01925 8.99949 1 9.0967 1C9.1939 1 9.29014 1.01925 9.37987 1.05663C9.4696 1.09401 9.55104 1.14879 9.61949 1.2178L10.7824 2.3807C10.8515 2.44908 10.9064 2.5305 10.9439 2.62023C10.9814 2.70997 11.0006 2.80625 11.0006 2.90349C11.0006 3.00074 10.9814 3.09702 10.9439 3.18676C10.9064 3.27649 10.8515 3.35791 10.7824 3.42629L5.62907 8.57961C5.49201 8.71565 5.30696 8.79235 5.11385 8.79316H3.94337C3.74808 8.79316 3.56079 8.71558 3.4227 8.57749C3.28461 8.4394 3.20703 8.25211 3.20703 8.05682Z" stroke="#EBEBEB" stroke-width="0.5" stroke-linecap="round" stroke-linejoin="round"/>
</svg>
