<svg width="49" height="49" viewBox="0 0 49 49" fill="none" xmlns="http://www.w3.org/2000/svg">
<ellipse cx="24.2907" cy="24.3429" rx="20.5714" ry="20.5714" fill="white"/>
<path d="M24.2909 3.00952C20.0715 3.00952 15.9469 4.2607 12.4387 6.60484C8.93045 8.94897 6.1961 12.2808 4.58143 16.1789C2.96676 20.0771 2.54429 24.3665 3.36744 28.5048C4.19059 32.643 6.2224 36.4443 9.20592 39.4278C12.1894 42.4113 15.9907 44.4431 20.1289 45.2663C24.2672 46.0894 28.5566 45.667 32.4548 44.0523C36.3529 42.4376 39.6847 39.7033 42.0289 36.195C44.373 32.6868 45.6242 28.5622 45.6242 24.3429C45.6242 18.6849 43.3766 13.2587 39.3758 9.25791C35.375 5.25713 29.9488 3.00952 24.2909 3.00952ZM35.0509 13.5562L26.6109 27.0095H29.6242C29.9778 27.0095 30.317 27.15 30.567 27.4C30.8171 27.6501 30.9575 27.9892 30.9575 28.3429C30.9575 28.6965 30.8171 29.0356 30.567 29.2857C30.317 29.5357 29.9778 29.6762 29.6242 29.6762H25.9575V32.3429H29.6242C29.9778 32.3429 30.317 32.4833 30.567 32.7334C30.8171 32.9834 30.9575 33.3226 30.9575 33.6762C30.9575 34.0298 30.8171 34.3689 30.567 34.619C30.317 34.869 29.9778 35.0095 29.6242 35.0095H25.9575V38.6762C25.9575 39.1182 25.7819 39.5421 25.4694 39.8547C25.1568 40.1673 24.7329 40.3429 24.2909 40.3429C23.8488 40.3429 23.4249 40.1673 23.1123 39.8547C22.7998 39.5421 22.6242 39.1182 22.6242 38.6762V35.0095H18.9575C18.6039 35.0095 18.2648 34.869 18.0147 34.619C17.7647 34.3689 17.6242 34.0298 17.6242 33.6762C17.6242 33.3226 17.7647 32.9834 18.0147 32.7334C18.2648 32.4833 18.6039 32.3429 18.9575 32.3429H22.6242V29.6762H18.9575C18.6039 29.6762 18.2648 29.5357 18.0147 29.2857C17.7647 29.0356 17.6242 28.6965 17.6242 28.3429C17.6242 27.9892 17.7647 27.6501 18.0147 27.4C18.2648 27.15 18.6039 27.0095 18.9575 27.0095H21.9709L13.5309 13.5562C13.4144 13.3706 13.3357 13.1639 13.2991 12.9478C13.2626 12.7318 13.2689 12.5107 13.3178 12.2971C13.3668 12.0835 13.4572 11.8817 13.5842 11.7031C13.7111 11.5245 13.8719 11.3726 14.0575 11.2562C14.2431 11.1397 14.4498 11.061 14.6659 11.0245C14.8819 10.9879 15.103 10.9943 15.3166 11.0432C15.5302 11.0921 15.732 11.1826 15.9106 11.3095C16.0892 11.4364 16.2411 11.5973 16.3575 11.7829L24.2909 24.4495L32.2242 11.7962C32.3406 11.6106 32.4925 11.4497 32.6711 11.3228C32.8497 11.1959 33.0515 11.1054 33.2651 11.0565C33.4787 11.0076 33.6998 11.0012 33.9158 11.0378C34.1319 11.0743 34.3386 11.1531 34.5242 11.2695C34.7098 11.386 34.8706 11.5378 34.9976 11.7164C35.1245 11.895 35.215 12.0969 35.2639 12.3104C35.3128 12.524 35.3191 12.7451 35.2826 12.9612C35.246 13.1772 35.1673 13.3839 35.0509 13.5695V13.5562Z" fill="#099AF6"/>
</svg>
