<svg width="961" height="452" viewBox="0 0 961 452" fill="none" xmlns="http://www.w3.org/2000/svg">
<line x1="0.287109" y1="0.86233" x2="881.26" y2="0.86233" stroke="white" stroke-opacity="0.1" stroke-width="0.912058"/>
<line x1="0.287109" y1="35.4795" x2="881.26" y2="35.4795" stroke="white" stroke-opacity="0.1" stroke-width="0.912058"/>
<line x1="0.287109" y1="70.0987" x2="881.26" y2="70.0987" stroke="white" stroke-opacity="0.1" stroke-width="0.912058"/>
<line x1="0.287109" y1="104.716" x2="881.26" y2="104.716" stroke="white" stroke-opacity="0.1" stroke-width="0.912058"/>
<line x1="0.287109" y1="139.335" x2="881.26" y2="139.335" stroke="white" stroke-opacity="0.1" stroke-width="0.912058"/>
<line x1="0.287109" y1="173.952" x2="881.26" y2="173.952" stroke="white" stroke-opacity="0.1" stroke-width="0.912058"/>
<line x1="0.287109" y1="208.571" x2="881.26" y2="208.571" stroke="white" stroke-opacity="0.1" stroke-width="0.912058"/>
<line x1="0.287109" y1="243.189" x2="881.26" y2="243.189" stroke="white" stroke-opacity="0.1" stroke-width="0.912058"/>
<line x1="0.287109" y1="277.806" x2="881.26" y2="277.806" stroke="white" stroke-opacity="0.1" stroke-width="0.912058"/>
<line x1="0.287109" y1="312.425" x2="881.26" y2="312.425" stroke="#FF971D" stroke-width="0.912058" stroke-dasharray="1.82 1.82"/>
<line x1="0.287109" y1="347.042" x2="881.26" y2="347.042" stroke="white" stroke-opacity="0.1" stroke-width="0.912058"/>
<line x1="0.287109" y1="381.661" x2="881.26" y2="381.661" stroke="white" stroke-opacity="0.1" stroke-width="0.912058"/>
<line x1="0.287109" y1="416.278" x2="881.26" y2="416.278" stroke="white" stroke-opacity="0.1" stroke-width="0.912058"/>
<line x1="0.287109" y1="450.896" x2="960.448" y2="450.896" stroke="white" stroke-opacity="0.1" stroke-width="0.912058"/>
<line x1="92.7998" y1="1.31836" x2="92.7998" y2="451.352" stroke="white" stroke-opacity="0.1" stroke-width="0.912058"/>
<line x1="170.999" y1="1.31836" x2="170.999" y2="451.352" stroke="white" stroke-opacity="0.1" stroke-width="0.912058"/>
<line x1="249.198" y1="1.31836" x2="249.198" y2="451.352" stroke="white" stroke-opacity="0.1" stroke-width="0.912058"/>
<line x1="327.395" y1="1.31836" x2="327.395" y2="451.352" stroke="white" stroke-opacity="0.1" stroke-width="0.912058"/>
<line x1="405.595" y1="1.31836" x2="405.595" y2="451.352" stroke="white" stroke-opacity="0.1" stroke-width="0.912058"/>
<line x1="483.794" y1="1.31836" x2="483.794" y2="451.352" stroke="white" stroke-opacity="0.1" stroke-width="0.912058"/>
<line x1="561.991" y1="1.31836" x2="561.991" y2="451.352" stroke="white" stroke-opacity="0.1" stroke-width="0.912058"/>
<line x1="640.19" y1="1.31836" x2="640.19" y2="451.352" stroke="white" stroke-opacity="0.1" stroke-width="0.912058"/>
<line x1="796.589" y1="1.31836" x2="796.589" y2="451.352" stroke="white" stroke-opacity="0.1" stroke-width="0.912058"/>
<line x1="874.788" y1="1.31836" x2="874.788" y2="451.352" stroke="white" stroke-opacity="0.1" stroke-width="0.912058"/>
<line x1="718.39" y1="1.31836" x2="718.39" y2="451.352" stroke="white" stroke-opacity="0.1" stroke-width="0.912058"/>
<line x1="14.6006" y1="1.31836" x2="14.6006" y2="451.352" stroke="white" stroke-opacity="0.1" stroke-width="0.912058"/>
</svg>
