<svg width="21" height="11" viewBox="0 0 21 11" fill="none" xmlns="http://www.w3.org/2000/svg">
<path d="M19.3907 1.86239C18.9966 1.59007 18.4524 1.42916 17.8331 1.42916H14.7178V1.4044C14.7178 1.09495 14.5301 0.79788 14.211 0.599831C13.892 0.389405 13.4604 0.265625 12.9912 0.265625H7.36108C6.87314 0.265625 6.4415 0.389405 6.12246 0.599831C5.80342 0.810258 5.61575 1.09495 5.61575 1.4044V1.42916H2.5192C1.89988 1.42916 1.35564 1.59007 0.961533 1.86239C0.567426 2.12233 0.304688 2.49367 0.304688 2.88977V9.05402C0.304687 9.46249 0.548659 9.82146 0.961533 10.0814C1.35564 10.3413 1.91865 10.5146 2.5192 10.5146H17.8331C18.4524 10.5146 18.9966 10.3537 19.3907 10.0814C19.7848 9.82146 20.0476 9.45011 20.0476 9.05402V2.88977C20.0476 2.48129 19.8036 2.12233 19.3907 1.86239ZM19.0717 9.05402H19.0529C19.0529 9.27682 18.9216 9.47487 18.6964 9.62341C18.4712 9.77194 18.1709 9.85859 17.8331 9.85859H2.5192C2.18139 9.85859 1.88112 9.77194 1.65591 9.62341C1.43071 9.47487 1.29934 9.27682 1.29934 9.05402V2.88977C1.29934 2.66696 1.43071 2.46891 1.65591 2.32038C1.88112 2.17184 2.18139 2.08519 2.5192 2.08519H6.14123C6.42273 2.08519 6.64794 1.93666 6.64794 1.75099V1.39202C6.64794 1.25587 6.72301 1.13209 6.85438 1.04544C6.98574 0.958794 7.17341 0.909282 7.37985 0.909282H12.9912C13.1976 0.909282 13.3853 0.958794 13.5167 1.04544C13.648 1.13209 13.7231 1.25587 13.7231 1.39202V1.75099C13.7231 1.93666 13.9483 2.08519 14.2298 2.08519H17.8518C18.1897 2.08519 18.4899 2.17184 18.7151 2.32038C18.9403 2.46891 19.0717 2.66696 19.0717 2.88977V9.05402Z" fill="white" fill-opacity="0.5"/>
<path d="M10.1753 2.92578C8.89912 2.92578 7.73557 3.27237 6.90982 3.817C6.0653 4.37401 5.55859 5.12907 5.55859 5.97077C5.55859 6.81248 6.08407 7.57992 6.90982 8.12455C7.75433 8.68156 8.89912 9.01577 10.1753 9.01577C11.4514 9.01577 12.615 8.66918 13.4407 8.12455C14.2853 7.56754 14.792 6.81248 14.792 5.97077C14.792 5.12907 14.2665 4.36163 13.4407 3.817C12.615 3.27237 11.4514 2.92578 10.1753 2.92578ZM12.7276 7.66656C12.0707 8.08741 11.1699 8.35973 10.1753 8.35973C9.18063 8.35973 8.27981 8.08741 7.62296 7.66656C6.96612 7.23333 6.57201 6.63919 6.57201 5.98315C6.57201 5.32712 6.98489 4.73297 7.62296 4.29974C8.27981 3.86651 9.18063 3.60657 10.1753 3.60657C11.1699 3.60657 12.0707 3.87889 12.7276 4.29974C13.3844 4.73297 13.7785 5.32712 13.7785 5.98315C13.7973 6.63919 13.3844 7.23333 12.7276 7.66656Z" fill="white" fill-opacity="0.5"/>
<path d="M16.8571 4.12711C17.365 4.12711 17.7767 3.85556 17.7767 3.52059C17.7767 3.18561 17.365 2.91406 16.8571 2.91406C16.3492 2.91406 15.9375 3.18561 15.9375 3.52059C15.9375 3.85556 16.3492 4.12711 16.8571 4.12711Z" fill="white" fill-opacity="0.5"/>
</svg>
