<svg width="58" height="11" viewBox="0 0 58 11" fill="none" xmlns="http://www.w3.org/2000/svg">
<path d="M52.9778 0.265625L51.9173 0.963957L55.129 3.08581H45.5541C41.8357 3.08581 38.8105 5.0811 38.8105 7.53363V10.993H40.3091V7.53363C40.3091 5.62611 42.662 4.07422 45.5541 4.07422H55.129L51.9173 6.19607L52.9778 6.8944L57.9946 3.58004L52.9778 0.265625Z" fill="white" fill-opacity="0.5"/>
<path d="M5.45965 0.265625L6.52023 0.963957L3.30852 3.08581H12.8834C16.6018 3.08581 19.627 5.0811 19.627 7.53363V10.993H18.1284V7.53363C18.1284 5.62611 15.7755 4.07422 12.8834 4.07422H3.30852L6.52023 6.19607L5.45965 6.8944L0.442949 3.58004L5.45965 0.265625Z" fill="white" fill-opacity="0.5"/>
</svg>
