<svg width="32" height="32" viewBox="0 0 32 32" fill="none" xmlns="http://www.w3.org/2000/svg">
<path d="M19.3685 0.977783V2.75556C25.5159 3.64445 30.3159 9.24445 30.3159 16C30.3159 22.7556 25.5159 28.3556 19.3685 29.2445V31.0222C26.4422 30.1333 32.0001 23.7333 32.0001 16C32.0001 8.26667 26.4422 1.86667 19.3685 0.977783Z" fill="#81D4FA"/>
<path d="M7.57895 23.1111H1.68421C0.757895 23.1111 0 22.3111 0 21.3334V10.6667C0 9.68892 0.757895 8.88892 1.68421 8.88892H7.57895V23.1111Z" fill="#546E7A"/>
<path d="M17.6842 32L7.57898 23.1111V8.88889L17.6842 0V32Z" fill="#78909C"/>
<path d="M19.3685 10.0445V11.9112C20.8843 12.6223 21.8948 14.1334 21.8948 16.0001C21.8948 17.8667 20.8843 19.3778 19.3685 20.0889V21.9556C21.8106 21.1556 23.5791 18.8445 23.5791 16.0001C23.5791 13.1556 21.8106 10.8445 19.3685 10.0445Z" fill="#03A9F4"/>
<path d="M19.3685 5.51105V7.28883C23.2422 8.08882 26.1054 11.7333 26.1054 15.9999C26.1054 20.2666 23.2422 23.911 19.3685 24.711V26.4888C24.1685 25.5999 27.7896 21.2444 27.7896 15.9999C27.7896 10.7555 24.1685 6.31105 19.3685 5.51105Z" fill="#4FC3F7"/>
</svg>
