<svg width="25" height="299" viewBox="0 0 25 299" fill="none" xmlns="http://www.w3.org/2000/svg">
<g opacity="0.5">
<path d="M9.6367 51.7687L9.74932 52.0606H10.0621H22.2277C22.3213 52.0606 22.3981 52.0788 22.4533 52.1016C22.3981 52.1245 22.3213 52.1427 22.2277 52.1427H10.0622H9.74937L9.63674 52.4345C9.44692 52.9264 8.80121 53.4138 7.81912 53.5786C7.09533 53.7001 6.36934 53.615 5.78824 53.3872C5.1985 53.1561 4.81476 52.8035 4.67238 52.4345L4.55976 52.1427H4.24693H2.63258C2.53897 52.1427 2.4622 52.1245 2.407 52.1016C2.4622 52.0788 2.53897 52.0606 2.63258 52.0606H4.24688H4.55971L4.67233 51.7687C4.86215 51.2768 5.50786 50.7895 6.48996 50.6246C7.21375 50.5031 7.93973 50.5883 8.52084 50.816C9.11058 51.0472 9.49432 51.3997 9.6367 51.7687ZM22.5391 52.1551C22.539 52.1552 22.5381 52.1542 22.5369 52.1523C22.5386 52.1541 22.5392 52.1551 22.5391 52.1551ZM22.5368 52.051C22.5381 52.049 22.539 52.0481 22.5391 52.0481C22.5392 52.0481 22.5386 52.0491 22.5368 52.051ZM2.32118 52.0481C2.3213 52.0481 2.32218 52.049 2.32344 52.051C2.32168 52.0491 2.32105 52.0481 2.32118 52.0481ZM2.32344 52.1523C2.32219 52.1543 2.32131 52.1552 2.32118 52.1552C2.32106 52.1551 2.32169 52.1542 2.32344 52.1523Z" stroke="white" stroke-width="0.912058"/>
<path d="M19.4343 46.798L19.5469 47.0899H19.8597H22.2277C22.3213 47.0899 22.3981 47.1081 22.4533 47.1309C22.3981 47.1538 22.3213 47.172 22.2277 47.172H19.8597H19.5469L19.4343 47.4639C19.2445 47.9558 18.5988 48.4431 17.6167 48.608C16.8929 48.7295 16.1669 48.6443 15.5858 48.4165C14.996 48.1854 14.6123 47.8328 14.4699 47.4639L14.3573 47.172H14.0445H2.63258C2.53896 47.172 2.46217 47.1538 2.40697 47.1309C2.46217 47.1081 2.53896 47.0899 2.63258 47.0899H14.0445H14.3573L14.4699 46.798C14.6597 46.3061 15.3055 45.8188 16.2875 45.6539C17.0113 45.5324 17.7373 45.6176 18.3184 45.8453C18.9082 46.0765 19.2919 46.429 19.4343 46.798ZM22.5391 47.1845C22.539 47.1845 22.5381 47.1835 22.5368 47.1816C22.5386 47.1834 22.5392 47.1844 22.5391 47.1845ZM22.5368 47.0803C22.5381 47.0783 22.539 47.0774 22.5391 47.0774C22.5392 47.0774 22.5386 47.0784 22.5368 47.0803ZM2.32118 47.0774C2.32131 47.0774 2.32219 47.0783 2.32344 47.0803C2.32169 47.0784 2.32106 47.0774 2.32118 47.0774ZM2.32344 47.1816C2.32219 47.1835 2.32131 47.1845 2.32118 47.1845C2.32106 47.1844 2.32169 47.1835 2.32344 47.1816Z" stroke="white" stroke-width="0.912058"/>
<path d="M17.9269 56.7394L18.0396 57.0313H18.3524H22.2277C22.3213 57.0313 22.3981 57.0495 22.4533 57.0723C22.3981 57.0952 22.3213 57.1134 22.2277 57.1134H18.3524H18.0396L17.927 57.4052C17.7372 57.8971 17.0915 58.3845 16.1094 58.5493C15.3856 58.6708 14.6596 58.5857 14.0785 58.3579C13.4887 58.1268 13.105 57.7742 12.9626 57.4052L12.85 57.1134H12.5372H2.63258C2.53898 57.1134 2.46222 57.0952 2.40701 57.0723C2.46222 57.0495 2.53898 57.0313 2.63258 57.0313H12.5371H12.85L12.9626 56.7394C13.1524 56.2475 13.7981 55.7602 14.7802 55.5953C15.504 55.4738 16.23 55.559 16.8111 55.7867C17.4008 56.0179 17.7846 56.3705 17.9269 56.7394ZM22.5391 57.1259C22.539 57.1259 22.5381 57.1249 22.5369 57.123C22.5386 57.1248 22.5392 57.1258 22.5391 57.1259ZM22.5369 57.0217C22.5381 57.0197 22.539 57.0188 22.5391 57.0188C22.5392 57.0188 22.5386 57.0198 22.5369 57.0217ZM2.32118 57.0188C2.32131 57.0188 2.32218 57.0197 2.32344 57.0217C2.32169 57.0198 2.32106 57.0188 2.32118 57.0188ZM2.32344 57.123C2.32218 57.125 2.3213 57.1259 2.32118 57.1259C2.32105 57.1258 2.32168 57.1249 2.32344 57.123Z" stroke="white" stroke-width="0.912058"/>
</g>
<path opacity="0.5" d="M5.71484 0.224609V2.47843H6.83391V0.975884H11.8697V11.4938H9.07204V12.245H15.7864V11.4938H12.9888V0.975884H18.0246V2.47843H19.1437V0.224609L5.71484 0.224609Z" fill="white"/>
<g opacity="0.5">
<path d="M12.4301 81.2051C6.61228 81.2051 1.87891 84.327 1.87891 88.1643C1.87891 92.0015 6.61228 95.1235 12.4301 95.1235C18.248 95.1235 22.9814 92.0015 22.9814 88.1643C22.9814 84.327 18.248 81.2051 12.4301 81.2051ZM12.4301 94.5183C7.11782 94.5183 2.7964 91.6681 2.7964 88.1643C2.7964 84.6605 7.11782 81.8102 12.4301 81.8102C17.7424 81.8102 22.0639 84.6605 22.0639 88.1643C22.0639 91.6681 17.7424 94.5183 12.4301 94.5183Z" fill="white"/>
<path d="M10.1353 86.9546C10.1353 86.4541 9.51783 86.0469 8.75906 86.0469C8.00029 86.0469 7.38281 86.4541 7.38281 86.9546C7.38281 87.4551 8.00029 87.8623 8.75906 87.8623C9.51783 87.8623 10.1353 87.4551 10.1353 86.9546ZM8.30031 86.9546C8.30031 86.7879 8.50629 86.652 8.75906 86.652C9.01183 86.652 9.21781 86.7879 9.21781 86.9546C9.21781 87.1213 9.01183 87.2572 8.75906 87.2572C8.50629 87.2572 8.30031 87.1213 8.30031 86.9546Z" fill="white"/>
<path d="M16.0989 86.0469C15.3401 86.0469 14.7227 86.4541 14.7227 86.9546C14.7227 87.4551 15.3401 87.8623 16.0989 87.8623C16.8577 87.8623 17.4751 87.4551 17.4751 86.9546C17.4751 86.4541 16.8577 86.0469 16.0989 86.0469ZM16.0989 87.2572C15.8461 87.2572 15.6402 87.1213 15.6402 86.9546C15.6402 86.7879 15.8461 86.652 16.0989 86.652C16.3517 86.652 16.5577 86.7879 16.5577 86.9546C16.5577 87.1213 16.3517 87.2572 16.0989 87.2572Z" fill="white"/>
<path d="M16.866 89.7549C16.677 89.6433 16.3866 89.6542 16.2182 89.7785C15.2613 90.4838 13.8813 90.888 12.4312 90.888C10.9816 90.888 9.60122 90.4838 8.64427 89.7785C8.47499 89.6542 8.18552 89.6433 7.99652 89.7549C7.80751 89.8663 7.79191 90.0575 7.96073 90.1821C9.09155 91.0154 10.721 91.4932 12.4312 91.4932C14.1419 91.4932 15.7714 91.0151 16.9017 90.1821C17.0706 90.0575 17.0545 89.8663 16.866 89.7549Z" fill="white"/>
</g>
<path opacity="0.5" d="M17.8557 243.432C16.7825 242.7 15.4152 242.201 13.9266 241.999C12.438 241.797 10.8951 241.901 9.49285 242.297C8.09064 242.693 6.89216 243.364 6.04898 244.225C5.2058 245.086 4.75579 246.098 4.75586 247.133V253.725C4.75586 253.776 4.7858 253.826 4.8391 253.862C4.8924 253.898 4.96469 253.919 5.04007 253.919H9.30318C9.37856 253.919 9.45085 253.898 9.50415 253.862C9.55744 253.826 9.58739 253.776 9.58739 253.725V247.133C9.58739 246.619 9.88682 246.126 10.4198 245.762C10.9528 245.399 11.6757 245.195 12.4295 245.195C13.1832 245.195 13.9061 245.399 14.4391 245.762C14.9721 246.126 15.2715 246.619 15.2715 247.133V253.725C15.2715 253.776 15.3015 253.826 15.3548 253.862C15.4081 253.898 15.4804 253.919 15.5557 253.919H19.8189C19.8942 253.919 19.9665 253.898 20.0198 253.862C20.0731 253.826 20.1031 253.776 20.1031 253.725V247.133C20.1058 246.446 19.9086 245.764 19.5228 245.129C19.1371 244.494 18.5704 243.917 17.8557 243.432ZM9.01897 253.531H5.32427V251.98H9.01897V253.531ZM19.5347 253.531H15.84V251.98H19.5347V253.531ZM19.5347 251.592H15.84V247.133C15.84 246.516 15.4806 245.924 14.841 245.488C14.2015 245.052 13.334 244.807 12.4295 244.807C11.5249 244.807 10.6575 245.052 10.0179 245.488C9.37829 245.924 9.01897 246.516 9.01897 247.133V251.592H5.32427V247.133C5.32427 244.461 8.51166 242.286 12.4295 242.286C13.3625 242.286 14.2865 242.412 15.1485 242.655C16.0105 242.899 16.7938 243.256 17.4536 243.706C18.1134 244.156 18.6367 244.69 18.9938 245.278C19.3509 245.867 19.5347 246.497 19.5347 247.133V251.592Z" fill="white"/>
<g opacity="0.5">
<path d="M21.8324 175.635L15.9316 171.588C17.3925 170.659 18.304 169.357 18.304 167.917C18.304 165.104 14.8351 162.816 10.571 162.816C6.30687 162.816 2.83789 165.104 2.83789 167.917C2.83789 170.729 6.30687 173.017 10.571 173.017C12.1618 173.017 13.6417 172.699 14.8725 172.153L20.8537 176.256C20.987 176.347 21.165 176.393 21.3431 176.393C21.5124 176.393 21.682 176.352 21.8136 176.268C22.0839 176.097 22.0923 175.813 21.8324 175.635ZM4.19568 167.917C4.19568 165.598 7.05564 163.712 10.571 163.712C14.0863 163.712 16.9463 165.598 16.9463 167.917C16.9463 170.235 14.0863 172.122 10.571 172.122C7.05564 172.122 4.19568 170.235 4.19568 167.917Z" fill="white"/>
<path d="M14.033 167.469H11.2498V165.633C11.2498 165.386 10.9459 165.186 10.5709 165.186C10.1958 165.186 9.89197 165.386 9.89197 165.633V167.469H7.10858C6.73356 167.469 6.42969 167.669 6.42969 167.917C6.42969 168.164 6.73356 168.365 7.10858 168.365H9.89188V170.2C9.89188 170.448 10.1957 170.648 10.5708 170.648C10.9458 170.648 11.2497 170.448 11.2497 170.2V168.365H14.033C14.408 168.365 14.7119 168.164 14.7119 167.917C14.7119 167.669 14.408 167.469 14.033 167.469Z" fill="white"/>
</g>
<g opacity="0.5">
<path d="M0.980568 126.985L0.98082 126.982C0.988365 126.893 1.02281 126.806 1.08214 126.726C1.14146 126.646 1.22447 126.574 1.3263 126.515L2.94957 125.556C2.95898 125.549 2.96925 125.542 2.98027 125.535L5.17276 124.243C5.18249 124.235 5.19312 124.228 5.20455 124.221L7.32574 122.97L18.1226 116.589C18.2221 116.529 18.3389 116.482 18.4659 116.453C18.5929 116.423 18.7277 116.41 18.8624 116.415C18.999 116.419 19.133 116.441 19.2564 116.48C19.3798 116.519 19.4902 116.574 19.581 116.641L24.304 120.118C24.3952 120.185 24.4655 120.263 24.5107 120.347C24.556 120.432 24.5754 120.522 24.5677 120.611L24.5675 120.614C24.5597 120.703 24.5253 120.79 24.4663 120.87C24.4072 120.95 24.3247 121.021 24.2235 121.08L7.4258 131.007C7.32633 131.067 7.20966 131.114 7.08261 131.144C6.95557 131.174 6.82071 131.187 6.68593 131.182C6.54929 131.178 6.41534 131.155 6.29193 131.116C6.16852 131.078 6.05814 131.023 5.96727 130.955L1.24428 127.478C1.15307 127.412 1.08279 127.334 1.03752 127.249C0.992253 127.165 0.972894 127.075 0.980568 126.985ZM3.44934 125.84C3.43989 125.848 3.42974 125.854 3.41897 125.861L1.76314 126.839C1.72609 126.861 1.69587 126.887 1.67428 126.916C1.65268 126.945 1.64014 126.976 1.63741 127.009L1.63732 127.01C1.63463 127.042 1.64179 127.075 1.6584 127.106C1.675 127.137 1.70071 127.165 1.73405 127.189L6.45744 130.666C6.49043 130.69 6.53061 130.71 6.5756 130.725C6.62058 130.739 6.66945 130.747 6.71931 130.749C6.76765 130.751 6.81604 130.746 6.86163 130.735C6.90722 130.724 6.94908 130.708 6.98473 130.686L23.7855 120.757L23.7856 120.756C23.8223 120.735 23.8523 120.709 23.8738 120.68C23.8953 120.652 23.9079 120.62 23.9108 120.589C23.9135 120.556 23.9064 120.523 23.8898 120.492C23.8732 120.461 23.8475 120.433 23.8141 120.409L19.0909 116.931C19.0579 116.906 19.0177 116.886 18.9727 116.872C18.9277 116.858 18.8789 116.849 18.829 116.848C18.7807 116.846 18.7323 116.851 18.6867 116.861C18.6411 116.872 18.5992 116.889 18.5636 116.91L5.67434 124.525C5.66463 124.533 5.65411 124.54 5.64287 124.547L3.44934 125.84Z" fill="white"/>
<path d="M13.9927 119.112C13.9963 119.069 14.019 119.028 14.0581 118.994C14.0971 118.96 14.1507 118.934 14.2121 118.92C14.2734 118.905 14.3398 118.903 14.4028 118.914C14.4658 118.925 14.5226 118.947 14.566 118.979L15.2958 119.517C15.3522 119.56 15.3807 119.616 15.3753 119.672C15.3698 119.729 15.3307 119.782 15.2665 119.82C15.2023 119.858 15.118 119.878 15.0319 119.875C14.9457 119.873 14.8646 119.848 14.8059 119.806L14.0762 119.269C14.0473 119.248 14.0251 119.223 14.0108 119.196C13.9964 119.169 13.9903 119.141 13.9927 119.112Z" fill="white"/>
<path d="M11.7448 120.441C11.7483 120.398 11.7711 120.357 11.8101 120.323C11.8492 120.288 11.9028 120.263 11.9641 120.248C12.0255 120.234 12.0919 120.232 12.1549 120.243C12.2179 120.254 12.2747 120.276 12.3181 120.308L13.4871 121.168C13.5159 121.189 13.5381 121.214 13.5524 121.241C13.5667 121.268 13.5729 121.296 13.5705 121.325C13.5681 121.353 13.5572 121.381 13.5385 121.407C13.5198 121.433 13.4936 121.456 13.4615 121.475C13.4293 121.494 13.3917 121.508 13.351 121.518C13.3102 121.527 13.267 121.531 13.2239 121.53C13.1808 121.528 13.1385 121.521 13.0996 121.509C13.0606 121.496 13.0258 121.479 12.9969 121.458L11.8283 120.598C11.77 120.555 11.74 120.498 11.7448 120.441Z" fill="white"/>
<path d="M9.49757 121.769C9.50115 121.726 9.5239 121.685 9.56294 121.65C9.60199 121.616 9.65558 121.59 9.71694 121.576C9.7783 121.562 9.84468 121.56 9.90768 121.57C9.97068 121.581 10.0275 121.604 10.0709 121.636L10.8016 122.173C10.858 122.216 10.8866 122.272 10.8811 122.329C10.8756 122.386 10.8366 122.439 10.7724 122.477C10.7081 122.515 10.6239 122.534 10.5377 122.532C10.4516 122.529 10.3704 122.504 10.3118 122.463L9.58205 121.925C9.55304 121.904 9.53065 121.879 9.51615 121.852C9.50166 121.826 9.49534 121.797 9.49757 121.769Z" fill="white"/>
<path d="M7.24904 123.097C7.25261 123.055 7.27536 123.013 7.31441 122.979C7.35345 122.945 7.40705 122.919 7.46841 122.905C7.52977 122.89 7.59615 122.889 7.65915 122.899C7.72215 122.91 7.77894 122.933 7.82235 122.965L8.99099 123.825C9.04741 123.868 9.07597 123.924 9.0705 123.981C9.06503 124.037 9.02597 124.091 8.96175 124.129C8.89752 124.166 8.81326 124.186 8.72711 124.184C8.64096 124.181 8.55982 124.156 8.50117 124.115L7.33255 123.254C7.30366 123.233 7.2814 123.208 7.26706 123.181C7.25273 123.154 7.2466 123.126 7.24904 123.097Z" fill="white"/>
<path d="M5.00051 124.427C5.00409 124.384 5.02683 124.343 5.06588 124.308C5.10493 124.274 5.15852 124.248 5.21988 124.234C5.28124 124.22 5.34762 124.218 5.41062 124.229C5.47362 124.239 5.53041 124.262 5.57383 124.294L6.30359 124.831C6.36002 124.874 6.38857 124.93 6.3831 124.987C6.37763 125.043 6.33858 125.096 6.27435 125.134C6.21012 125.172 6.12586 125.192 6.03972 125.189C5.95357 125.187 5.87243 125.162 5.81377 125.12L5.084 124.583C5.02579 124.541 4.99575 124.484 5.00051 124.427Z" fill="white"/>
<path d="M2.7547 125.754C2.75828 125.711 2.78103 125.67 2.82007 125.635C2.85912 125.601 2.91271 125.575 2.97407 125.561C3.03543 125.547 3.10181 125.545 3.16481 125.555C3.22781 125.566 3.28461 125.589 3.32802 125.621L4.49669 126.481C4.55493 126.524 4.58499 126.58 4.58024 126.637C4.5755 126.695 4.53634 126.749 4.47138 126.787C4.40643 126.826 4.32099 126.845 4.23387 126.842C4.14676 126.839 4.06509 126.813 4.00685 126.77L2.83819 125.91C2.80926 125.889 2.78699 125.864 2.77265 125.837C2.75832 125.811 2.75222 125.782 2.7547 125.754Z" fill="white"/>
<path d="M18.0505 119.773C18.0665 119.585 18.1666 119.404 18.3383 119.253C18.5101 119.103 18.7456 118.989 19.0153 118.926C19.2849 118.864 19.5766 118.855 19.8536 118.902C20.1306 118.948 20.3803 119.048 20.5715 119.188C20.7307 119.305 20.8438 119.446 20.9006 119.599C20.9575 119.751 20.9564 119.911 20.8974 120.063C20.8385 120.215 20.7235 120.355 20.5626 120.471C20.4018 120.587 20.2001 120.675 19.9754 120.727C19.7507 120.779 19.51 120.794 19.2746 120.77C19.0393 120.746 18.8165 120.684 18.6261 120.59C18.4357 120.495 18.2835 120.371 18.1831 120.229C18.0827 120.087 18.0371 119.93 18.0505 119.773ZM20.082 119.477C19.9779 119.401 19.8416 119.346 19.6903 119.32C19.5391 119.295 19.3797 119.299 19.2324 119.333C19.0851 119.367 18.9564 119.43 18.8627 119.512C18.769 119.594 18.7144 119.693 18.7058 119.796C18.6973 119.899 18.7352 120.001 18.8147 120.09C18.8942 120.178 19.0118 120.249 19.1526 120.294C19.2933 120.339 19.451 120.355 19.6056 120.34C19.7601 120.325 19.9047 120.281 20.0209 120.212C20.1767 120.12 20.2707 119.991 20.2822 119.853C20.2936 119.715 20.2216 119.58 20.082 119.477Z" fill="white"/>
</g>
<g opacity="0.5">
<path d="M19.1061 290.169H8.26256V288.218C8.26256 286.699 10.1318 285.462 12.4295 285.462C14.7271 285.462 16.5964 286.699 16.5964 288.218C16.5964 288.368 16.7799 288.49 17.0064 288.49C17.2328 288.49 17.4163 288.368 17.4163 288.218C17.4163 286.4 15.1793 284.92 12.4295 284.92C9.67967 284.92 7.4428 286.4 7.4428 288.218V290.169H5.75302C5.20313 290.169 4.75586 290.465 4.75586 290.829V297.926C4.75586 298.29 5.20313 298.585 5.75302 298.585H19.1061C19.6558 298.585 20.1031 298.29 20.1031 297.926V290.829C20.1031 290.465 19.6558 290.169 19.1061 290.169ZM19.2833 297.926C19.2833 297.99 19.204 298.043 19.1061 298.043H5.75302C5.65513 298.043 5.57562 297.99 5.57562 297.926V290.829C5.57562 290.764 5.65513 290.712 5.75302 290.712H19.1061C19.204 290.712 19.2833 290.764 19.2833 290.829V297.926Z" fill="white"/>
<path d="M12.427 292.891C11.5819 292.891 10.8945 293.353 10.8945 293.922C10.8945 294.394 11.3685 294.789 12.0103 294.912V295.647C12.0103 295.802 12.1968 295.927 12.427 295.927C12.657 295.927 12.8436 295.802 12.8436 295.647V294.913C13.4879 294.789 13.964 294.394 13.964 293.922C13.964 293.353 13.2745 292.891 12.427 292.891ZM12.427 294.395C12.0414 294.395 11.7279 294.183 11.7279 293.922C11.7279 293.662 12.0414 293.451 12.427 293.451C12.815 293.451 13.1306 293.662 13.1306 293.922C13.1306 294.183 12.815 294.395 12.427 294.395Z" fill="white"/>
</g>
<g opacity="0.5">
<path d="M18.6152 204.532C17.0457 204.532 15.7676 203.689 15.7676 202.654C15.7676 201.618 17.0457 200.775 18.6152 200.775C20.1849 200.775 21.4629 201.618 21.4629 202.654C21.4629 203.689 20.1849 204.532 18.6152 204.532ZM18.6152 201.527C17.6736 201.527 16.9066 202.032 16.9066 202.654C16.9066 203.275 17.6736 203.781 18.6152 203.781C19.5568 203.781 20.3238 203.275 20.3238 202.654C20.3238 202.032 19.5568 201.527 18.6152 201.527Z" fill="white"/>
<path d="M18.6152 212.795C17.0457 212.795 15.7676 211.953 15.7676 210.917C15.7676 209.882 17.0457 209.039 18.6152 209.039C20.1849 209.039 21.4629 209.882 21.4629 210.917C21.4629 211.953 20.1849 212.795 18.6152 212.795ZM18.6152 209.79C17.6736 209.79 16.9066 210.296 16.9066 210.917C16.9066 211.539 17.6736 212.044 18.6152 212.044C19.5568 212.044 20.3238 211.539 20.3238 210.917C20.3238 210.296 19.5568 209.79 18.6152 209.79Z" fill="white"/>
<path d="M7.6035 208.663C6.03382 208.663 4.75586 207.82 4.75586 206.784C4.75586 205.749 6.03382 204.906 7.6035 204.906C9.17318 204.906 10.4511 205.749 10.4511 206.784C10.4511 207.82 9.17318 208.663 7.6035 208.663ZM7.6035 205.658C6.66189 205.658 5.89492 206.163 5.89492 206.784C5.89492 207.406 6.66189 207.911 7.6035 207.911C8.54511 207.911 9.31209 207.406 9.31209 206.784C9.31209 206.163 8.54511 205.658 7.6035 205.658Z" fill="white"/>
<path d="M9.58564 206.421C9.38737 206.421 9.19451 206.353 9.0905 206.231C8.93477 206.051 9.02974 205.822 9.3031 205.719L16.3494 203.069C16.6219 202.966 16.9705 203.029 17.1254 203.21C17.2811 203.39 17.1861 203.619 16.9128 203.722L9.86652 206.372C9.77767 206.405 9.68131 206.421 9.58564 206.421Z" fill="white"/>
<path d="M16.6323 210.552C16.5366 210.552 16.4401 210.536 16.3512 210.502L9.305 207.853C9.03163 207.75 8.9368 207.521 9.0924 207.34C9.24729 207.16 9.59518 207.097 9.86855 207.2L16.9147 209.85C17.188 209.952 17.283 210.182 17.1274 210.362C17.0226 210.484 16.8297 210.552 16.6323 210.552Z" fill="white"/>
</g>
</svg>
