<svg width="21" height="14" viewBox="0 0 21 14" fill="none" xmlns="http://www.w3.org/2000/svg">
<g opacity="0.5">
<path d="M10.7213 11.793C10.3456 11.793 10.041 11.9939 10.041 12.2417V13.5175C10.041 13.7653 10.3456 13.9662 10.7213 13.9662C11.0971 13.9662 11.4016 13.7653 11.4016 13.5175V12.2417C11.4016 11.9938 11.097 11.793 10.7213 11.793Z" fill="white"/>
<path d="M10.7213 2.98972C11.0971 2.98972 11.4016 2.78882 11.4016 2.54101V1.26512C11.4016 1.01731 11.0971 0.816406 10.7213 0.816406C10.3456 0.816406 10.041 1.01731 10.041 1.26512V2.54101C10.041 2.78882 10.3456 2.98972 10.7213 2.98972Z" fill="white"/>
<path d="M5.04226 10.5024L3.67401 11.4044C3.40823 11.5796 3.40814 11.8637 3.67374 12.0389C3.80663 12.1266 3.98079 12.1704 4.15495 12.1704C4.32902 12.1704 4.503 12.1266 4.63588 12.0391L6.00413 11.1371C6.26991 10.9619 6.27 10.6778 6.00441 10.5026C5.73863 10.3273 5.30795 10.3273 5.04226 10.5024Z" fill="white"/>
<path d="M15.9205 4.40882C16.0946 4.40882 16.2686 4.36503 16.4015 4.27744L17.7696 3.37547C18.0353 3.20024 18.0354 2.91617 17.7698 2.74088C17.5041 2.56558 17.0734 2.56552 16.8076 2.74082L15.4396 3.64278C15.1739 3.81796 15.1738 4.10208 15.4394 4.27732C15.5722 4.36503 15.7463 4.40882 15.9205 4.40882Z" fill="white"/>
<path d="M4.04881 7.39207C4.04881 7.14426 3.74421 6.94336 3.36849 6.94336H1.43422C1.05851 6.94336 0.753906 7.14426 0.753906 7.39207C0.753906 7.63988 1.05851 7.84078 1.43422 7.84078H3.36849C3.74421 7.84078 4.04881 7.63988 4.04881 7.39207Z" fill="white"/>
<path d="M20.01 6.94336H18.0748C17.699 6.94336 17.3945 7.14426 17.3945 7.39207C17.3945 7.63988 17.699 7.84078 18.0748 7.84078H20.01C20.3858 7.84078 20.6903 7.63988 20.6903 7.39207C20.6903 7.14432 20.3858 6.94336 20.01 6.94336Z" fill="white"/>
<path d="M5.0414 4.27737C5.17419 4.36495 5.34836 4.40875 5.52243 4.40875C5.6965 4.40875 5.87066 4.36495 6.00345 4.27737C6.26914 4.10213 6.26914 3.81801 6.00345 3.64277L4.63593 2.7408C4.37024 2.56557 3.93947 2.56557 3.67387 2.7408C3.40819 2.91604 3.40819 3.20016 3.67387 3.37534L5.0414 4.27737Z" fill="white"/>
<path d="M16.4037 10.5026C16.138 10.3273 15.7072 10.3273 15.4415 10.5025C15.1758 10.6777 15.1758 10.9619 15.4414 11.137L16.8088 12.039C16.9417 12.1266 17.1157 12.1704 17.2899 12.1704C17.464 12.1704 17.6381 12.1266 17.7709 12.0391C18.0367 11.8638 18.0367 11.5797 17.771 11.4045L16.4037 10.5026Z" fill="white"/>
<path d="M10.7227 3.89844C7.80303 3.89844 5.42773 5.46521 5.42773 7.39102C5.42773 9.31676 7.80303 10.8835 10.7227 10.8835C13.6426 10.8835 16.0181 9.31676 16.0181 7.39102C16.0181 5.46521 13.6425 3.89844 10.7227 3.89844ZM10.7227 9.98606C8.55328 9.98606 6.78836 8.82192 6.78836 7.39102C6.78836 5.96005 8.55328 4.79586 10.7227 4.79586C12.8923 4.79586 14.6574 5.96005 14.6574 7.39102C14.6574 8.82192 12.8923 9.98606 10.7227 9.98606Z" fill="white"/>
</g>
</svg>
