<svg width="17" height="12" viewBox="0 0 17 12" fill="none" xmlns="http://www.w3.org/2000/svg">
<path d="M10.75 6C10.75 6.59674 10.5129 7.16903 10.091 7.59099C9.66903 8.01295 9.09674 8.25 8.5 8.25C7.90326 8.25 7.33097 8.01295 6.90901 7.59099C6.48705 7.16903 6.25 6.59674 6.25 6C6.25 5.40326 6.48705 4.83097 6.90901 4.40901C7.33097 3.98705 7.90326 3.75 8.5 3.75C9.09674 3.75 9.66903 3.98705 10.091 4.40901C10.5129 4.83097 10.75 5.40326 10.75 6Z" stroke="#5A7EC1" stroke-width="1.125" stroke-linecap="round" stroke-linejoin="round"/>
<path d="M1 6C2.2 2.92725 5.002 0.75 8.5 0.75C11.998 0.75 14.8 2.92725 16 6C14.8 9.07275 11.998 11.25 8.5 11.25C5.002 11.25 2.2 9.07275 1 6Z" stroke="#5A7EC1" stroke-width="1.125" stroke-linecap="round" stroke-linejoin="round"/>
</svg>
