<svg width="50" height="50" viewBox="0 0 50 50" fill="none" xmlns="http://www.w3.org/2000/svg">
<rect x="0.5" y="0.5" width="49" height="49" rx="4.5" stroke="#099AF6"/>
<path d="M25.1487 14C27.1002 14 28.9717 14.7748 30.3516 16.154C31.7315 17.5332 32.5068 19.4038 32.5068 21.3543C32.5068 29.5314 35.4912 31.1429 36.2973 31.1429H14C14.8233 31.1429 17.7905 29.5143 17.7905 21.3543C17.7905 19.4038 18.5658 17.5332 19.9457 16.154C21.3256 14.7748 23.1972 14 25.1487 14V14Z" stroke="black" stroke-width="1.71429" stroke-linecap="round" stroke-linejoin="round"/>
<path d="M22.5762 34.28C22.7244 34.8492 23.0575 35.3532 23.523 35.7129C23.9886 36.0726 24.5605 36.2677 25.1489 36.2677C25.7374 36.2677 26.3092 36.0726 26.7748 35.7129C27.2404 35.3532 27.5734 34.8492 27.7217 34.28" stroke="black" stroke-width="1.71429" stroke-linecap="round" stroke-linejoin="round"/>
<circle cx="33.1428" cy="16.75" r="3.75" fill="#FF4D00"/>
</svg>
