<svg width="20" height="20" viewBox="0 0 20 20" fill="none" xmlns="http://www.w3.org/2000/svg">
<path d="M13.334 0.571289L12.167 3.80682C13.2441 7.36164 13.2441 12.6378 12.167 16.1928L13.334 19.428C17.2172 18.0548 20.0001 14.3531 20.0001 9.99939C20.0001 5.64632 17.2172 1.94448 13.334 0.571289Z" fill="#518D51"/>
<path d="M13.3339 3.80726V0.57168C12.291 0.202826 11.1693 0.000244141 10 0.000244141C11.542 0.000286363 9.40395 5.22605 13.3339 3.80726Z" fill="#E4E4E4"/>
<path d="M10.0002 20C11.1696 20 12.2912 19.7975 13.3341 19.4286V16.1934C9.44363 15.805 10.0002 20 10.0002 20Z" fill="#E4E4E4"/>
<path d="M0 9.99978C0 14.3681 2.80166 18.0798 6.70523 19.4416V0.558594C2.80166 1.92073 0 5.63214 0 9.99978Z" fill="#589F58"/>
<path d="M13.334 3.80713V16.1931C14.4113 12.6381 14.4113 7.3619 13.334 3.80713Z" fill="#589F58"/>
<path d="M13.3337 16.1931V3.80721C12.6529 1.55976 11.5418 0.000244141 9.99984 0.000244141C8.84502 0.000244141 7.7369 0.198562 6.70508 0.558718V19.4418C7.7369 19.802 8.84498 19.9999 9.99984 19.9999C11.5418 19.9999 12.6529 18.4404 13.3337 16.1931Z" fill="#F3F4F5"/>
</svg>
