<svg width="46" height="46" viewBox="0 0 46 46" fill="none" xmlns="http://www.w3.org/2000/svg">
<path d="M17.0832 20.3765C17.3437 20.2237 17.5595 20.0053 17.7093 19.7431C17.8591 19.481 17.9377 19.1841 17.9372 18.8822V3.51173C17.9395 3.23662 17.8754 2.96501 17.7503 2.72C17.6251 2.475 17.4427 2.26385 17.2184 2.10454C16.9941 1.94523 16.7346 1.84246 16.462 1.80498C16.1895 1.76751 15.9119 1.79643 15.6529 1.88929C11.3292 3.42952 7.5871 6.26832 4.93884 10.0172C2.29059 13.766 0.865585 18.2416 0.858887 22.8315C0.861199 24.1916 0.982635 25.5488 1.2218 26.8876C1.27311 27.1551 1.38687 27.4066 1.55381 27.6218C1.72074 27.8369 1.93614 28.0096 2.18245 28.1258C2.40976 28.2329 2.65704 28.2911 2.90828 28.2966C3.20861 28.2947 3.50315 28.2137 3.76219 28.0617L17.0832 20.3765ZM14.5215 6.09482V17.9002L4.29589 23.8135C4.27454 23.472 4.27454 23.1517 4.27454 22.8315C4.2811 19.3699 5.24076 15.9768 7.04828 13.0246C8.85581 10.0723 11.4414 7.67471 14.5215 6.09482Z" fill="#C9CDFF"/>
<path d="M42.3378 11.8159C42.3157 11.7921 42.3009 11.7625 42.2951 11.7305L42.2097 11.6238C40.2559 8.27857 37.4601 5.50341 34.1005 3.57453C30.7409 1.64566 26.9347 0.630337 23.0607 0.629639C22.6078 0.629639 22.1734 0.80957 21.8531 1.12985C21.5328 1.45013 21.3529 1.88452 21.3529 2.33747V21.8494L4.46673 31.6054C4.26991 31.7141 4.09683 31.8611 3.95767 32.0378C3.81851 32.2144 3.71608 32.4171 3.65641 32.6339C3.59674 32.8507 3.58103 33.0773 3.6102 33.3003C3.63938 33.5232 3.71285 33.7381 3.8263 33.9323V33.975L3.89034 34.0817C6.35291 38.2972 10.1363 41.5835 14.655 43.4319C19.1736 45.2803 24.1755 45.5878 28.8865 44.3067C33.5975 43.0256 37.7549 40.2275 40.7153 36.3453C43.6756 32.4631 45.2738 27.7135 45.2624 22.8314C45.2676 18.967 44.2592 15.1688 42.3378 11.8159Z" fill="#7782FF"/>
</svg>
