<svg width="37" height="37" viewBox="0 0 37 37" fill="none" xmlns="http://www.w3.org/2000/svg">
<rect x="1.49512" y="19.2407" width="9.34811" height="17.258" rx="2.87634" fill="#FFB1F3"/>
<rect x="13.7195" y="11.3308" width="10.0672" height="25.168" rx="2.87634" fill="#FB5BE1"/>
<rect x="26.6631" y="1.98267" width="9.34811" height="34.5161" rx="2.87634" fill="#FFB1F3"/>
<circle cx="6.52865" cy="7.0162" r="6.47177" fill="#434343"/>
<path fill-rule="evenodd" clip-rule="evenodd" d="M5.61594 4.338L8.90296 5.15998C9.10466 5.21042 9.22183 5.41336 9.16466 5.61326L8.23301 8.87089C8.17584 9.07079 7.96597 9.19196 7.76427 9.14152C7.56256 9.09108 7.44539 8.88813 7.50256 8.68823L8.1843 6.30445L4.44375 8.46406C4.26673 8.56626 4.04038 8.50561 3.93817 8.32859C3.83597 8.15157 3.89662 7.92521 4.07364 7.82301L7.81419 5.6634L5.40891 5.06192C5.2072 5.01148 5.09003 4.80853 5.1472 4.60863C5.20437 4.40872 5.41423 4.28756 5.61594 4.338Z" fill="white"/>
</svg>
