<svg width="46" height="46" viewBox="0 0 46 46" fill="none" xmlns="http://www.w3.org/2000/svg">
<circle cx="22.7496" cy="23.2406" r="22.2916" fill="#8AE79F"/>
<line x1="26.7046" y1="18.5664" x2="13.042" y2="18.5664" stroke="#469B59" stroke-width="2.15726" stroke-linecap="round"/>
<line x1="18.0757" y1="29.3528" x2="31.7383" y2="29.3528" stroke="#469B59" stroke-width="2.15726" stroke-linecap="round"/>
<path d="M32.2299 17.6743C32.5444 17.9597 32.5444 18.4541 32.2299 18.7395L26.4688 23.9663C26.0067 24.3856 25.2665 24.0577 25.2665 23.4338L25.2665 12.98C25.2665 12.3561 26.0067 12.0282 26.4688 12.4475L32.2299 17.6743Z" fill="#469B59"/>
<path d="M12.5504 30.2449C12.2358 29.9596 12.2358 29.4652 12.5504 29.1798L18.3115 23.9529C18.7736 23.5337 19.5138 23.8616 19.5138 24.4855L19.5138 34.9393C19.5138 35.5632 18.7736 35.8911 18.3115 35.4718L12.5504 30.2449Z" fill="#469B59"/>
</svg>
