<svg width="37" height="34" viewBox="0 0 37 34" fill="none" xmlns="http://www.w3.org/2000/svg">
<path d="M36.8262 17.2517C36.8262 17.6468 36.6687 18.0256 36.3883 18.3049C36.1078 18.5843 35.7275 18.7412 35.3309 18.7412H18.8816C18.485 18.7412 18.1047 18.5843 17.8242 18.3049C17.5438 18.0256 17.3862 17.6468 17.3862 17.2517C17.3862 16.8567 17.5438 16.4778 17.8242 16.1985C18.1047 15.9192 18.485 15.7623 18.8816 15.7623H35.3309C35.7275 15.7623 36.1078 15.9192 36.3883 16.1985C36.6687 16.4778 36.8262 16.8567 36.8262 17.2517ZM18.8816 6.82539H35.3309C35.7275 6.82539 36.1078 6.66846 36.3883 6.38913C36.6687 6.1098 36.8262 5.73094 36.8262 5.33591C36.8262 4.94087 36.6687 4.56202 36.3883 4.28269C36.1078 4.00336 35.7275 3.84643 35.3309 3.84643H18.8816C18.485 3.84643 18.1047 4.00336 17.8242 4.28269C17.5438 4.56202 17.3862 4.94087 17.3862 5.33591C17.3862 5.73094 17.5438 6.1098 17.8242 6.38913C18.1047 6.66846 18.485 6.82539 18.8816 6.82539ZM35.3309 27.6781H18.8816C18.485 27.6781 18.1047 27.835 17.8242 28.1143C17.5438 28.3937 17.3862 28.7725 17.3862 29.1675C17.3862 29.5626 17.5438 29.9414 17.8242 30.2208C18.1047 30.5001 18.485 30.657 18.8816 30.657H35.3309C35.7275 30.657 36.1078 30.5001 36.3883 30.2208C36.6687 29.9414 36.8262 29.5626 36.8262 29.1675C36.8262 28.7725 36.6687 28.3937 36.3883 28.1143C36.1078 27.835 35.7275 27.6781 35.3309 27.6781ZM11.143 1.25846L5.66613 6.28545L3.44174 4.23742C3.14767 3.98076 2.76437 3.84903 2.37397 3.87046C1.98356 3.89189 1.61712 4.06476 1.35313 4.35205C1.08915 4.63933 0.948632 5.01818 0.961686 5.40741C0.97474 5.79664 1.14033 6.1653 1.42297 6.4344L4.65674 9.41335C4.93234 9.66473 5.29244 9.80421 5.66613 9.80434C6.0456 9.80526 6.41192 9.66595 6.69421 9.41335L13.1618 3.45544C13.3115 3.32475 13.4335 3.16558 13.5207 2.98728C13.6079 2.80898 13.6584 2.61514 13.6694 2.41713C13.6803 2.21911 13.6515 2.02091 13.5845 1.83415C13.5175 1.6474 13.4138 1.47584 13.2794 1.32955C13.1449 1.18326 12.9825 1.06518 12.8017 0.982232C12.6208 0.899289 12.4252 0.853155 12.2262 0.846534C12.0272 0.839912 11.8289 0.872939 11.6429 0.943675C11.4569 1.01441 11.2869 1.12143 11.143 1.25846ZM11.143 13.1743L5.66613 18.2013L3.44174 16.1532C3.29781 16.0162 3.12786 15.9092 2.94186 15.8385C2.75585 15.7677 2.55754 15.7347 2.35855 15.7413C2.15956 15.7479 1.9639 15.7941 1.78304 15.877C1.60219 15.96 1.43979 16.078 1.30537 16.2243C1.17094 16.3706 1.0672 16.5422 1.00023 16.7289C0.933253 16.9157 0.904397 17.1139 0.915351 17.3119C0.926305 17.5099 0.976848 17.7038 1.06402 17.8821C1.15118 18.0604 1.27322 18.2195 1.42297 18.3502L4.65674 21.3292C4.93234 21.5805 5.29244 21.72 5.66613 21.7202C6.0456 21.7211 6.41192 21.5818 6.69421 21.3292L13.1618 15.3713C13.3115 15.2406 13.4335 15.0814 13.5207 14.9031C13.6079 14.7248 13.6584 14.531 13.6694 14.3329C13.6803 14.1349 13.6515 13.9367 13.5845 13.75C13.5175 13.5632 13.4138 13.3917 13.2794 13.2454C13.1449 13.0991 12.9825 12.981 12.8017 12.8981C12.6208 12.8151 12.4252 12.769 12.2262 12.7624C12.0272 12.7557 11.8289 12.7888 11.6429 12.8595C11.4569 12.9302 11.2869 13.0373 11.143 13.1743ZM11.143 25.0901L5.66613 30.1171L3.44174 28.0691C3.29781 27.932 3.12786 27.825 2.94186 27.7543C2.75585 27.6835 2.55754 27.6505 2.35855 27.6571C2.15956 27.6637 1.9639 27.7099 1.78304 27.7928C1.60219 27.8758 1.43979 27.9939 1.30537 28.1401C1.17094 28.2864 1.0672 28.458 1.00023 28.6447C0.933253 28.8315 0.904397 29.0297 0.915351 29.2277C0.926305 29.4257 0.976848 29.6196 1.06402 29.7979C1.15118 29.9762 1.27322 30.1353 1.42297 30.266L4.65674 33.245C4.93234 33.4964 5.29244 33.6359 5.66613 33.636C6.0456 33.6369 6.41192 33.4976 6.69421 33.245L13.1618 27.2871C13.4444 27.018 13.61 26.6493 13.623 26.2601C13.6361 25.8709 13.4956 25.492 13.2316 25.2047C12.9676 24.9174 12.6012 24.7446 12.2108 24.7231C11.8204 24.7017 11.4371 24.8334 11.143 25.0901Z" fill="#27CAEA"/>
</svg>
