<svg width="24" height="24" viewBox="0 0 24 24" fill="none" xmlns="http://www.w3.org/2000/svg">
<path d="M21 5.5V18.5C21 19.163 20.7366 19.7989 20.2678 20.2678C19.7989 20.7366 19.163 21 18.5 21H5.5C4.83696 21 4.20107 20.7366 3.73223 20.2678C3.26339 19.7989 3 19.163 3 18.5V16.5C3 16.3674 3.05268 16.2402 3.14645 16.1464C3.24021 16.0527 3.36739 16 3.5 16C3.63261 16 3.75979 16.0527 3.85355 16.1464C3.94732 16.2402 4 16.3674 4 16.5V18.5C4 18.8978 4.15804 19.2794 4.43934 19.5607C4.72064 19.842 5.10218 20 5.5 20H18.5C18.8978 20 19.2794 19.842 19.5607 19.5607C19.842 19.2794 20 18.8978 20 18.5V5.5C20 5.10218 19.842 4.72064 19.5607 4.43934C19.2794 4.15804 18.8978 4 18.5 4H5.5C5.10218 4 4.72064 4.15804 4.43934 4.43934C4.15804 4.72064 4 5.10218 4 5.5V7.5C4 7.63261 3.94732 7.75979 3.85355 7.85355C3.75979 7.94732 3.63261 8 3.5 8C3.36739 8 3.24021 7.94732 3.14645 7.85355C3.05268 7.75979 3 7.63261 3 7.5V5.5C3 4.83696 3.26339 4.20107 3.73223 3.73223C4.20107 3.26339 4.83696 3 5.5 3H18.5C19.163 3 19.7989 3.26339 20.2678 3.73223C20.7366 4.20107 21 4.83696 21 5.5Z" fill="white"/>
<path d="M12.4995 12.0008C12.4995 12.1334 12.4468 12.2606 12.353 12.3544C12.2592 12.4482 12.1321 12.5008 11.9995 12.5008H5.20946L7.84946 15.1508C7.89729 15.1957 7.93541 15.2499 7.96147 15.3101C7.98753 15.3703 8.00098 15.4352 8.00098 15.5008C8.00098 15.5664 7.98753 15.6313 7.96147 15.6915C7.93541 15.7517 7.89729 15.8059 7.84946 15.8508C7.80457 15.8987 7.75035 15.9368 7.69015 15.9628C7.62996 15.9889 7.56506 16.0024 7.49946 16.0024C7.43386 16.0024 7.36896 15.9889 7.30877 15.9628C7.24857 15.9368 7.19435 15.8987 7.14946 15.8508L3.64946 12.3508C3.59883 12.3086 3.56078 12.2532 3.53946 12.1908C3.48945 12.0691 3.48945 11.9326 3.53946 11.8108C3.56078 11.7484 3.59883 11.6931 3.64946 11.6508L7.14946 8.15083C7.24229 8.05801 7.36818 8.00586 7.49946 8.00586C7.63074 8.00586 7.75663 8.05801 7.84946 8.15083C7.94229 8.24366 7.99443 8.36956 7.99443 8.50083C7.99443 8.63211 7.94229 8.75801 7.84946 8.85083L5.20946 11.5008H11.9995C12.1321 11.5008 12.2592 11.5535 12.353 11.6473C12.4468 11.741 12.4995 11.8682 12.4995 12.0008Z" fill="white"/>
</svg>
