<svg width="49" height="54" viewBox="0 0 49 54" fill="none" xmlns="http://www.w3.org/2000/svg">
<path fill-rule="evenodd" clip-rule="evenodd" d="M44.6211 27.2832C44.6211 39.4295 35.6671 49.2754 24.6211 49.2754C13.5751 49.2754 4.62109 39.4295 4.62109 27.2832C4.62109 15.1369 13.5751 5.29102 24.6211 5.29102C35.6671 5.29102 44.6211 15.1369 44.6211 27.2832Z" fill="#F6921A"/>
<path fill-rule="evenodd" clip-rule="evenodd" d="M24.6211 12.4395C25.0189 12.4395 25.4004 12.6132 25.6818 12.9226C25.9631 13.2319 26.1211 13.6514 26.1211 14.0889V14.786C29.3811 15.4282 32.1211 18.1222 32.1211 21.7861C32.1211 22.2236 31.9631 22.6431 31.6818 22.9524C31.4005 23.2618 31.0189 23.4355 30.6211 23.4355C30.2233 23.4355 29.8417 23.2618 29.5604 22.9524C29.2791 22.6431 29.1211 22.2236 29.1211 21.7861C29.1211 20.2951 27.9931 18.7138 26.1211 18.1508V25.7821C29.3811 26.4243 32.1211 29.1183 32.1211 32.7822C32.1211 36.4461 29.3811 39.1402 26.1211 39.7823V40.4795C26.1211 40.9169 25.9631 41.3365 25.6818 41.6458C25.4004 41.9551 25.0189 42.1289 24.6211 42.1289C24.2233 42.1289 23.8417 41.9551 23.5604 41.6458C23.2791 41.3365 23.1211 40.9169 23.1211 40.4795V39.7823C19.8611 39.1402 17.1211 36.4461 17.1211 32.7822C17.1211 32.3448 17.2791 31.9252 17.5604 31.6159C17.8417 31.3066 18.2233 31.1328 18.6211 31.1328C19.0189 31.1328 19.4004 31.3066 19.6818 31.6159C19.9631 31.9252 20.1211 32.3448 20.1211 32.7822C20.1211 34.2733 21.2491 35.8545 23.1211 36.4153V28.7862C19.8611 28.1441 17.1211 25.45 17.1211 21.7861C17.1211 18.1222 19.8611 15.4282 23.1211 14.786V14.0889C23.1211 13.6514 23.2791 13.2319 23.5604 12.9226C23.8417 12.6132 24.2233 12.4395 24.6211 12.4395ZM23.1211 18.1508C21.2491 18.7138 20.1211 20.2951 20.1211 21.7861C20.1211 23.2772 21.2491 24.8584 23.1211 25.4192V18.1508ZM29.1211 32.7822C29.1211 31.2912 27.9931 29.7099 26.1211 29.1491V36.4153C27.9931 35.8545 29.1211 34.2733 29.1211 32.7822Z" fill="#5A7EC1"/>
</svg>
