<svg width="49" height="54" viewBox="0 0 49 54" fill="none" xmlns="http://www.w3.org/2000/svg">
<path fill-rule="evenodd" clip-rule="evenodd" d="M44.6211 26.8379C44.6211 38.9842 35.6671 48.8301 24.6211 48.8301C13.5751 48.8301 4.62109 38.9842 4.62109 26.8379C4.62109 14.6916 13.5751 4.8457 24.6211 4.8457C35.6671 4.8457 44.6211 14.6916 44.6211 26.8379Z" fill="#F6921A"/>
<path fill-rule="evenodd" clip-rule="evenodd" d="M24.6211 11.9941C25.0189 11.9941 25.4004 12.1679 25.6818 12.4772C25.9631 12.7866 26.1211 13.2061 26.1211 13.6436V14.3407C29.3811 14.9829 32.1211 17.6769 32.1211 21.3408C32.1211 21.7783 31.9631 22.1978 31.6818 22.5071C31.4005 22.8165 31.0189 22.9902 30.6211 22.9902C30.2233 22.9902 29.8417 22.8165 29.5604 22.5071C29.2791 22.1978 29.1211 21.7783 29.1211 21.3408C29.1211 19.8497 27.9931 18.2685 26.1211 17.7055V25.3368C29.3811 25.979 32.1211 28.673 32.1211 32.3369C32.1211 36.0008 29.3811 38.6949 26.1211 39.337V40.0342C26.1211 40.4716 25.9631 40.8912 25.6818 41.2005C25.4004 41.5098 25.0189 41.6836 24.6211 41.6836C24.2233 41.6836 23.8417 41.5098 23.5604 41.2005C23.2791 40.8912 23.1211 40.4716 23.1211 40.0342V39.337C19.8611 38.6949 17.1211 36.0008 17.1211 32.3369C17.1211 31.8995 17.2791 31.4799 17.5604 31.1706C17.8417 30.8613 18.2233 30.6875 18.6211 30.6875C19.0189 30.6875 19.4004 30.8613 19.6818 31.1706C19.9631 31.4799 20.1211 31.8995 20.1211 32.3369C20.1211 33.828 21.2491 35.4092 23.1211 35.97V28.3409C19.8611 27.6988 17.1211 25.0047 17.1211 21.3408C17.1211 17.6769 19.8611 14.9829 23.1211 14.3407V13.6436C23.1211 13.2061 23.2791 12.7866 23.5604 12.4772C23.8417 12.1679 24.2233 11.9941 24.6211 11.9941ZM23.1211 17.7055C21.2491 18.2685 20.1211 19.8497 20.1211 21.3408C20.1211 22.8319 21.2491 24.4131 23.1211 24.9739V17.7055ZM29.1211 32.3369C29.1211 30.8458 27.9931 29.2646 26.1211 28.7038V35.97C27.9931 35.4092 29.1211 33.828 29.1211 32.3369Z" fill="#5A7EC1"/>
</svg>
