<svg width="49" height="54" viewBox="0 0 49 54" fill="none" xmlns="http://www.w3.org/2000/svg">
<path fill-rule="evenodd" clip-rule="evenodd" d="M44.293 26.9473C44.293 39.0936 35.339 48.9395 24.293 48.9395C13.247 48.9395 4.29297 39.0936 4.29297 26.9473C4.29297 14.801 13.247 4.95508 24.293 4.95508C35.339 4.95508 44.293 14.801 44.293 26.9473Z" fill="#F6921A"/>
<path fill-rule="evenodd" clip-rule="evenodd" d="M24.293 12.1035C24.6908 12.1035 25.0723 12.2773 25.3536 12.5866C25.6349 12.8959 25.793 13.3155 25.793 13.7529V14.4501C29.053 15.0923 31.793 17.7863 31.793 21.4502C31.793 21.8876 31.6349 22.3072 31.3536 22.6165C31.0723 22.9258 30.6908 23.0996 30.293 23.0996C29.8951 23.0996 29.5136 22.9258 29.2323 22.6165C28.951 22.3072 28.793 21.8876 28.793 21.4502C28.793 19.9591 27.665 18.3779 25.793 17.8149V25.4462C29.053 26.0883 31.793 28.7824 31.793 32.4463C31.793 36.1102 29.053 38.8042 25.793 39.4464V40.1436C25.793 40.581 25.6349 41.0005 25.3536 41.3099C25.0723 41.6192 24.6908 41.793 24.293 41.793C23.8951 41.793 23.5136 41.6192 23.2323 41.3099C22.951 41.0005 22.793 40.581 22.793 40.1436V39.4464C19.533 38.8042 16.793 36.1102 16.793 32.4463C16.793 32.0088 16.951 31.5893 17.2323 31.28C17.5136 30.9707 17.8951 30.7969 18.293 30.7969C18.6908 30.7969 19.0723 30.9707 19.3536 31.28C19.6349 31.5893 19.793 32.0088 19.793 32.4463C19.793 33.9374 20.921 35.5186 22.793 36.0794V28.4503C19.533 27.8081 16.793 25.1141 16.793 21.4502C16.793 17.7863 19.533 15.0923 22.793 14.4501V13.7529C22.793 13.3155 22.951 12.8959 23.2323 12.5866C23.5136 12.2773 23.8951 12.1035 24.293 12.1035ZM22.793 17.8149C20.921 18.3779 19.793 19.9591 19.793 21.4502C19.793 22.9413 20.921 24.5225 22.793 25.0833V17.8149ZM28.793 32.4463C28.793 30.9552 27.665 29.374 25.793 28.8132V36.0794C27.665 35.5186 28.793 33.9374 28.793 32.4463Z" fill="#5A7EC1"/>
</svg>
