<svg width="49" height="53" viewBox="0 0 49 53" fill="none" xmlns="http://www.w3.org/2000/svg">
<path fill-rule="evenodd" clip-rule="evenodd" d="M44.293 26.502C44.293 38.6482 35.339 48.4941 24.293 48.4941C13.247 48.4941 4.29297 38.6482 4.29297 26.502C4.29297 14.3557 13.247 4.50977 24.293 4.50977C35.339 4.50977 44.293 14.3557 44.293 26.502Z" fill="#F6921A"/>
<path fill-rule="evenodd" clip-rule="evenodd" d="M24.293 11.6582C24.6908 11.6582 25.0723 11.832 25.3536 12.1413C25.6349 12.4506 25.793 12.8702 25.793 13.3076V14.0048C29.053 14.6469 31.793 17.341 31.793 21.0049C31.793 21.4423 31.6349 21.8619 31.3536 22.1712C31.0723 22.4805 30.6908 22.6543 30.293 22.6543C29.8951 22.6543 29.5136 22.4805 29.2323 22.1712C28.951 21.8619 28.793 21.4423 28.793 21.0049C28.793 19.5138 27.665 17.9326 25.793 17.3696V25.0009C29.053 25.643 31.793 28.3371 31.793 32.001C31.793 35.6649 29.053 38.3589 25.793 39.0011V39.6982C25.793 40.1357 25.6349 40.5552 25.3536 40.8646C25.0723 41.1739 24.6908 41.3477 24.293 41.3477C23.8951 41.3477 23.5136 41.1739 23.2323 40.8646C22.951 40.5552 22.793 40.1357 22.793 39.6982V39.0011C19.533 38.3589 16.793 35.6649 16.793 32.001C16.793 31.5635 16.951 31.144 17.2323 30.8347C17.5136 30.5253 17.8951 30.3516 18.293 30.3516C18.6908 30.3516 19.0723 30.5253 19.3536 30.8347C19.6349 31.144 19.793 31.5635 19.793 32.001C19.793 33.492 20.921 35.0733 22.793 35.6341V28.005C19.533 27.3628 16.793 24.6688 16.793 21.0049C16.793 17.341 19.533 14.6469 22.793 14.0048V13.3076C22.793 12.8702 22.951 12.4506 23.2323 12.1413C23.5136 11.832 23.8951 11.6582 24.293 11.6582ZM22.793 17.3696C20.921 17.9326 19.793 19.5138 19.793 21.0049C19.793 22.496 20.921 24.0772 22.793 24.638V17.3696ZM28.793 32.001C28.793 30.5099 27.665 28.9287 25.793 28.3679V35.6341C27.665 35.0733 28.793 33.492 28.793 32.001Z" fill="#5A7EC1"/>
</svg>
