<svg width="49" height="49" viewBox="0 0 49 49" fill="none" xmlns="http://www.w3.org/2000/svg">
<path fill-rule="evenodd" clip-rule="evenodd" d="M44.2915 24.0969C44.2915 35.1429 35.3375 44.0969 24.2915 44.0969C13.2455 44.0969 4.2915 35.1429 4.2915 24.0969C4.2915 13.0509 13.2455 4.09692 24.2915 4.09692C35.3375 4.09692 44.2915 13.0509 44.2915 24.0969Z" fill="#F6921A"/>
<path fill-rule="evenodd" clip-rule="evenodd" d="M24.2915 10.597C24.6893 10.597 25.0709 10.7551 25.3522 11.0364C25.6335 11.3177 25.7915 11.6992 25.7915 12.097V12.731C29.0515 13.315 31.7915 15.765 31.7915 19.097C31.7915 19.4949 31.6335 19.8764 31.3522 20.1577C31.0709 20.439 30.6893 20.597 30.2915 20.597C29.8937 20.597 29.5122 20.439 29.2308 20.1577C28.9495 19.8764 28.7915 19.4949 28.7915 19.097C28.7915 17.741 27.6635 16.303 25.7915 15.791V22.731C29.0515 23.315 31.7915 25.765 31.7915 29.097C31.7915 32.429 29.0515 34.879 25.7915 35.463V36.097C25.7915 36.4949 25.6335 36.8764 25.3522 37.1577C25.0709 37.439 24.6893 37.597 24.2915 37.597C23.8937 37.597 23.5121 37.439 23.2308 37.1577C22.9495 36.8764 22.7915 36.4949 22.7915 36.097V35.463C19.5315 34.879 16.7915 32.429 16.7915 29.097C16.7915 28.6992 16.9495 28.3177 17.2308 28.0364C17.5121 27.7551 17.8937 27.597 18.2915 27.597C18.6893 27.597 19.0709 27.7551 19.3522 28.0364C19.6335 28.3177 19.7915 28.6992 19.7915 29.097C19.7915 30.453 20.9195 31.891 22.7915 32.401V25.463C19.5315 24.879 16.7915 22.429 16.7915 19.097C16.7915 15.765 19.5315 13.315 22.7915 12.731V12.097C22.7915 11.6992 22.9495 11.3177 23.2308 11.0364C23.5121 10.7551 23.8937 10.597 24.2915 10.597ZM22.7915 15.791C20.9195 16.303 19.7915 17.741 19.7915 19.097C19.7915 20.453 20.9195 21.891 22.7915 22.401V15.791ZM28.7915 29.097C28.7915 27.741 27.6635 26.303 25.7915 25.793V32.401C27.6635 31.891 28.7915 30.453 28.7915 29.097Z" fill="#5A7EC1"/>
</svg>
