<svg width="49" height="54" viewBox="0 0 49 54" fill="none" xmlns="http://www.w3.org/2000/svg">
<path fill-rule="evenodd" clip-rule="evenodd" d="M44.293 27.0566C44.293 39.2029 35.339 49.0488 24.293 49.0488C13.247 49.0488 4.29297 39.2029 4.29297 27.0566C4.29297 14.9104 13.247 5.06445 24.293 5.06445C35.339 5.06445 44.293 14.9104 44.293 27.0566Z" fill="#F6921A"/>
<path fill-rule="evenodd" clip-rule="evenodd" d="M24.293 12.2129C24.6908 12.2129 25.0723 12.3867 25.3536 12.696C25.6349 13.0053 25.793 13.4249 25.793 13.8623V14.5595C29.053 15.2016 31.793 17.8957 31.793 21.5596C31.793 21.997 31.6349 22.4166 31.3536 22.7259C31.0723 23.0352 30.6908 23.209 30.293 23.209C29.8951 23.209 29.5136 23.0352 29.2323 22.7259C28.951 22.4166 28.793 21.997 28.793 21.5596C28.793 20.0685 27.665 18.4873 25.793 17.9243V25.5556C29.053 26.1977 31.793 28.8918 31.793 32.5557C31.793 36.2196 29.053 38.9136 25.793 39.5558V40.2529C25.793 40.6904 25.6349 41.1099 25.3536 41.4192C25.0723 41.7286 24.6908 41.9023 24.293 41.9023C23.8951 41.9023 23.5136 41.7286 23.2323 41.4192C22.951 41.1099 22.793 40.6904 22.793 40.2529V39.5558C19.533 38.9136 16.793 36.2196 16.793 32.5557C16.793 32.1182 16.951 31.6987 17.2323 31.3894C17.5136 31.08 17.8951 30.9062 18.293 30.9062C18.6908 30.9062 19.0723 31.08 19.3536 31.3894C19.6349 31.6987 19.793 32.1182 19.793 32.5557C19.793 34.0467 20.921 35.628 22.793 36.1888V28.5597C19.533 27.9175 16.793 25.2235 16.793 21.5596C16.793 17.8957 19.533 15.2016 22.793 14.5595V13.8623C22.793 13.4249 22.951 13.0053 23.2323 12.696C23.5136 12.3867 23.8951 12.2129 24.293 12.2129ZM22.793 17.9243C20.921 18.4873 19.793 20.0685 19.793 21.5596C19.793 23.0506 20.921 24.6319 22.793 25.1927V17.9243ZM28.793 32.5557C28.793 31.0646 27.665 29.4834 25.793 28.9226V36.1888C27.665 35.628 28.793 34.0467 28.793 32.5557Z" fill="#5A7EC1"/>
</svg>
