<svg width="31" height="30" viewBox="0 0 31 30" fill="none" xmlns="http://www.w3.org/2000/svg">
<path fill-rule="evenodd" clip-rule="evenodd" d="M27.8462 15C27.8462 21.9037 22.2499 27.5 15.3462 27.5C8.44244 27.5 2.84619 21.9037 2.84619 15C2.84619 8.09625 8.44244 2.5 15.3462 2.5C22.2499 2.5 27.8462 8.09625 27.8462 15Z" fill="#F6921A"/>
<path fill-rule="evenodd" clip-rule="evenodd" d="M15.3462 6.5625C15.5948 6.5625 15.8333 6.66127 16.0091 6.83709C16.1849 7.0129 16.2837 7.25136 16.2837 7.5V7.89625C18.3212 8.26125 20.0337 9.7925 20.0337 11.875C20.0337 12.1236 19.9349 12.3621 19.7591 12.5379C19.5833 12.7137 19.3448 12.8125 19.0962 12.8125C18.8476 12.8125 18.6091 12.7137 18.4333 12.5379C18.2575 12.3621 18.1587 12.1236 18.1587 11.875C18.1587 11.0275 17.4537 10.1288 16.2837 9.80875V14.1463C18.3212 14.5113 20.0337 16.0425 20.0337 18.125C20.0337 20.2075 18.3212 21.7388 16.2837 22.1038V22.5C16.2837 22.7486 16.1849 22.9871 16.0091 23.1629C15.8333 23.3387 15.5948 23.4375 15.3462 23.4375C15.0976 23.4375 14.8591 23.3387 14.6833 23.1629C14.5075 22.9871 14.4087 22.7486 14.4087 22.5V22.1038C12.3712 21.7388 10.6587 20.2075 10.6587 18.125C10.6587 17.8764 10.7575 17.6379 10.9333 17.4621C11.1091 17.2863 11.3476 17.1875 11.5962 17.1875C11.8448 17.1875 12.0833 17.2863 12.2591 17.4621C12.4349 17.6379 12.5337 17.8764 12.5337 18.125C12.5337 18.9725 13.2387 19.8713 14.4087 20.19V15.8537C12.3712 15.4887 10.6587 13.9575 10.6587 11.875C10.6587 9.7925 12.3712 8.26125 14.4087 7.89625V7.5C14.4087 7.25136 14.5075 7.0129 14.6833 6.83709C14.8591 6.66127 15.0976 6.5625 15.3462 6.5625ZM14.4087 9.80875C13.2387 10.1288 12.5337 11.0275 12.5337 11.875C12.5337 12.7225 13.2387 13.6213 14.4087 13.94V9.80875ZM18.1587 18.125C18.1587 17.2775 17.4537 16.3787 16.2837 16.06V20.19C17.4537 19.8713 18.1587 18.9725 18.1587 18.125Z" fill="white"/>
</svg>
