<svg width="49" height="49" viewBox="0 0 49 49" fill="none" xmlns="http://www.w3.org/2000/svg">
<path fill-rule="evenodd" clip-rule="evenodd" d="M44.6221 24.136C44.6221 35.182 35.6681 44.136 24.6221 44.136C13.5761 44.136 4.62207 35.182 4.62207 24.136C4.62207 13.09 13.5761 4.13599 24.6221 4.13599C35.6681 4.13599 44.6221 13.09 44.6221 24.136Z" fill="#F6921A"/>
<path fill-rule="evenodd" clip-rule="evenodd" d="M24.6221 10.6361C25.0199 10.6361 25.4014 10.7941 25.6827 11.0754C25.964 11.3568 26.1221 11.7383 26.1221 12.1361V12.7701C29.3821 13.3541 32.1221 15.8041 32.1221 19.1361C32.1221 19.5339 31.964 19.9155 31.6827 20.1968C31.4014 20.4781 31.0199 20.6361 30.6221 20.6361C30.2242 20.6361 29.8427 20.4781 29.5614 20.1968C29.2801 19.9155 29.1221 19.5339 29.1221 19.1361C29.1221 17.7801 27.9941 16.3421 26.1221 15.8301V22.7701C29.3821 23.3541 32.1221 25.8041 32.1221 29.1361C32.1221 32.4681 29.3821 34.9181 26.1221 35.5021V36.1361C26.1221 36.5339 25.964 36.9155 25.6827 37.1968C25.4014 37.4781 25.0199 37.6361 24.6221 37.6361C24.2242 37.6361 23.8427 37.4781 23.5614 37.1968C23.2801 36.9155 23.1221 36.5339 23.1221 36.1361V35.5021C19.8621 34.9181 17.1221 32.4681 17.1221 29.1361C17.1221 28.7383 17.2801 28.3568 17.5614 28.0754C17.8427 27.7941 18.2242 27.6361 18.6221 27.6361C19.0199 27.6361 19.4014 27.7941 19.6827 28.0754C19.964 28.3568 20.1221 28.7383 20.1221 29.1361C20.1221 30.4921 21.2501 31.9301 23.1221 32.4401V25.5021C19.8621 24.9181 17.1221 22.4681 17.1221 19.1361C17.1221 15.8041 19.8621 13.3541 23.1221 12.7701V12.1361C23.1221 11.7383 23.2801 11.3568 23.5614 11.0754C23.8427 10.7941 24.2242 10.6361 24.6221 10.6361ZM23.1221 15.8301C21.2501 16.3421 20.1221 17.7801 20.1221 19.1361C20.1221 20.4921 21.2501 21.9301 23.1221 22.4401V15.8301ZM29.1221 29.1361C29.1221 27.7801 27.9941 26.3421 26.1221 25.8321V32.4401C27.9941 31.9301 29.1221 30.4921 29.1221 29.1361Z" fill="#5A7EC1"/>
</svg>
