<svg width="49" height="54" viewBox="0 0 49 54" fill="none" xmlns="http://www.w3.org/2000/svg">
<path fill-rule="evenodd" clip-rule="evenodd" d="M44.6211 26.7285C44.6211 38.8748 35.6671 48.7207 24.6211 48.7207C13.5751 48.7207 4.62109 38.8748 4.62109 26.7285C4.62109 14.5822 13.5751 4.73633 24.6211 4.73633C35.6671 4.73633 44.6211 14.5822 44.6211 26.7285Z" fill="#F6921A"/>
<path fill-rule="evenodd" clip-rule="evenodd" d="M24.6211 11.8848C25.0189 11.8848 25.4004 12.0585 25.6818 12.3679C25.9631 12.6772 26.1211 13.0967 26.1211 13.5342V14.2313C29.3811 14.8735 32.1211 17.5675 32.1211 21.2314C32.1211 21.6689 31.9631 22.0884 31.6818 22.3978C31.4005 22.7071 31.0189 22.8809 30.6211 22.8809C30.2233 22.8809 29.8417 22.7071 29.5604 22.3978C29.2791 22.0884 29.1211 21.6689 29.1211 21.2314C29.1211 19.7404 27.9931 18.1591 26.1211 17.5961V25.2274C29.3811 25.8696 32.1211 28.5636 32.1211 32.2275C32.1211 35.8914 29.3811 38.5855 26.1211 39.2276V39.9248C26.1211 40.3623 25.9631 40.7818 25.6818 41.0911C25.4004 41.4004 25.0189 41.5742 24.6211 41.5742C24.2233 41.5742 23.8417 41.4004 23.5604 41.0911C23.2791 40.7818 23.1211 40.3623 23.1211 39.9248V39.2276C19.8611 38.5855 17.1211 35.8914 17.1211 32.2275C17.1211 31.7901 17.2791 31.3706 17.5604 31.0612C17.8417 30.7519 18.2233 30.5781 18.6211 30.5781C19.0189 30.5781 19.4004 30.7519 19.6818 31.0612C19.9631 31.3706 20.1211 31.7901 20.1211 32.2275C20.1211 33.7186 21.2491 35.2998 23.1211 35.8606V28.2316C19.8611 27.5894 17.1211 24.8953 17.1211 21.2314C17.1211 17.5675 19.8611 14.8735 23.1211 14.2313V13.5342C23.1211 13.0967 23.2791 12.6772 23.5604 12.3679C23.8417 12.0585 24.2233 11.8848 24.6211 11.8848ZM23.1211 17.5961C21.2491 18.1591 20.1211 19.7404 20.1211 21.2314C20.1211 22.7225 21.2491 24.3038 23.1211 24.8646V17.5961ZM29.1211 32.2275C29.1211 30.7365 27.9931 29.1552 26.1211 28.5944V35.8606C27.9931 35.2998 29.1211 33.7186 29.1211 32.2275Z" fill="#5A7EC1"/>
</svg>
