<svg width="11" height="12" viewBox="0 0 11 12" fill="none" xmlns="http://www.w3.org/2000/svg">
<path fill-rule="evenodd" clip-rule="evenodd" d="M8.16336 0.903911C8.16336 0.542429 7.87032 0.24939 7.50884 0.24939C7.14736 0.24939 6.85432 0.542429 6.85432 0.903911V1.2418H4.23591V0.903911C4.23591 0.542429 3.94287 0.24939 3.58139 0.24939C3.21991 0.24939 2.92687 0.542429 2.92687 0.903911V1.2418H2.10872C1.1984 1.2418 0.472412 1.98579 0.472412 2.88871V4.87343V9.8354C0.472412 10.7383 1.1984 11.4823 2.10872 11.4823H8.9812C9.89151 11.4823 10.6175 10.7383 10.6175 9.8354V4.87343V2.88871C10.6175 1.98579 9.89151 1.2418 8.9812 1.2418H8.16336V0.903911ZM9.30846 4.21891V2.88871C9.30846 2.69546 9.15533 2.55084 8.9812 2.55084H8.16336V2.88868C8.16336 3.25016 7.87032 3.5432 7.50884 3.5432C7.14736 3.5432 6.85432 3.25016 6.85432 2.88868V2.55084H4.23591V2.88868C4.23591 3.25016 3.94287 3.5432 3.58139 3.5432C3.21991 3.5432 2.92687 3.25016 2.92687 2.88868V2.55084H2.10872C1.93459 2.55084 1.78146 2.69546 1.78146 2.88871V4.21891H9.30846ZM1.78146 5.52795H9.30846V9.8354C9.30846 10.0286 9.15533 10.1733 8.9812 10.1733H2.10872C1.93459 10.1733 1.78146 10.0286 1.78146 9.8354V5.52795Z" fill="white" fill-opacity="0.99"/>
</svg>
