<svg width="11" height="13" viewBox="0 0 11 13" fill="none" xmlns="http://www.w3.org/2000/svg">
<path fill-rule="evenodd" clip-rule="evenodd" d="M8.16451 1.15842C8.16451 0.796944 7.87147 0.503906 7.50999 0.503906C7.14851 0.503906 6.85547 0.796944 6.85547 1.15842V1.59492H4.23678V1.15842C4.23678 0.796944 3.94374 0.503906 3.58226 0.503906C3.22077 0.503906 2.92773 0.796944 2.92773 1.15842V1.59492H2.10896C1.1419 1.59492 0.472656 2.44331 0.472656 3.34068V5.52465V10.9793C0.472656 11.8767 1.1419 12.7251 2.10896 12.7251H8.98144C9.9485 12.7251 10.6177 11.8767 10.6177 10.9793V5.52465V3.34068C10.6177 2.44331 9.9485 1.59492 8.98144 1.59492H8.16451V1.15842ZM9.3087 4.87013V3.34068C9.3087 3.0327 9.09883 2.90396 8.98144 2.90396H8.16451V3.3409C8.16451 3.70238 7.87147 3.99541 7.50999 3.99541C7.14851 3.99541 6.85547 3.70238 6.85547 3.3409V2.90396H4.23678V3.3409C4.23678 3.70238 3.94374 3.99541 3.58226 3.99541C3.22077 3.99541 2.92773 3.70238 2.92773 3.3409V2.90396H2.10896C1.99158 2.90396 1.7817 3.0327 1.7817 3.34068V4.87013H9.3087ZM1.7817 6.17917H9.3087V10.9793C9.3087 11.2873 9.09883 11.416 8.98144 11.416H2.10896C1.99158 11.416 1.7817 11.2873 1.7817 10.9793V6.17917Z" fill="white" fill-opacity="0.99"/>
</svg>
