<svg width="11" height="13" viewBox="0 0 11 13" fill="none" xmlns="http://www.w3.org/2000/svg">
<path fill-rule="evenodd" clip-rule="evenodd" d="M8.16451 1.53733C8.16451 1.17585 7.87147 0.882812 7.50999 0.882812C7.14851 0.882812 6.85547 1.17585 6.85547 1.53733V1.875H4.23678V1.53733C4.23678 1.17585 3.94374 0.882812 3.58226 0.882812C3.22077 0.882812 2.92773 1.17585 2.92773 1.53733V1.875H2.10896C1.19864 1.875 0.472656 2.61899 0.472656 3.52191V5.50804V10.4686C0.472656 11.3715 1.19864 12.1155 2.10896 12.1155H8.98144C9.89176 12.1155 10.6177 11.3715 10.6177 10.4686V5.50804V3.52191C10.6177 2.61899 9.89176 1.875 8.98144 1.875H8.16451V1.53733ZM9.3087 4.85352V3.52191C9.3087 3.32866 9.15557 3.18404 8.98144 3.18404H8.16451V3.5221C8.16451 3.88359 7.87147 4.17663 7.50999 4.17663C7.14851 4.17663 6.85547 3.88359 6.85547 3.5221V3.18404H4.23678V3.5221C4.23678 3.88359 3.94374 4.17663 3.58226 4.17663C3.22077 4.17663 2.92773 3.88359 2.92773 3.5221V3.18404H2.10896C1.93483 3.18404 1.7817 3.32866 1.7817 3.52191V4.85352H9.3087ZM1.7817 6.16256H9.3087V10.4686C9.3087 10.6618 9.15557 10.8065 8.98144 10.8065H2.10896C1.93483 10.8065 1.7817 10.6618 1.7817 10.4686V6.16256Z" fill="white" fill-opacity="0.99"/>
</svg>
