<svg width="11" height="13" viewBox="0 0 11 13" fill="none" xmlns="http://www.w3.org/2000/svg">
<path fill-rule="evenodd" clip-rule="evenodd" d="M8.16451 0.812725C8.16451 0.451244 7.87147 0.158203 7.50999 0.158203C7.14851 0.158203 6.85547 0.451244 6.85547 0.812725V1.24922H4.23678V0.812725C4.23678 0.451244 3.94374 0.158203 3.58226 0.158203C3.22077 0.158203 2.92773 0.451244 2.92773 0.812725V1.24922H2.10896C1.1419 1.24922 0.472656 2.09761 0.472656 2.99498V5.17895V10.6336C0.472656 11.531 1.1419 12.3794 2.10896 12.3794H8.98144C9.9485 12.3794 10.6177 11.531 10.6177 10.6336V5.17895V2.99498C10.6177 2.09761 9.9485 1.24922 8.98144 1.24922H8.16451V0.812725ZM9.3087 4.52443V2.99498C9.3087 2.687 9.09883 2.55827 8.98144 2.55827H8.16451V2.9952C8.16451 3.35668 7.87147 3.64972 7.50999 3.64972C7.14851 3.64972 6.85547 3.35668 6.85547 2.9952V2.55827H4.23678V2.9952C4.23678 3.35668 3.94374 3.64972 3.58226 3.64972C3.22077 3.64972 2.92773 3.35668 2.92773 2.9952V2.55827H2.10896C1.99158 2.55827 1.7817 2.687 1.7817 2.99498V4.52443H9.3087ZM1.7817 5.83347H9.3087V10.6336C9.3087 10.9416 9.09883 11.0703 8.98144 11.0703H2.10896C1.99158 11.0703 1.7817 10.9416 1.7817 10.6336V5.83347Z" fill="white" fill-opacity="0.99"/>
</svg>
