<svg width="20" height="18" viewBox="0 0 20 18" fill="none" xmlns="http://www.w3.org/2000/svg">
<path d="M15.9958 4.77659C15.7912 3.5605 15.189 2.45068 14.2681 1.60847C13.2449 0.671808 11.9146 0.15625 10.5293 0.15625C9.45885 0.15625 8.41593 0.463223 7.52256 1.04175C6.77874 1.52189 6.16086 2.17125 5.72401 2.93475C5.53511 2.89933 5.33833 2.87965 5.14155 2.87965C3.46894 2.87965 2.10724 4.24135 2.10724 5.91396C2.10724 6.13042 2.13085 6.339 2.17021 6.54365C1.08793 7.33076 0.430695 8.59801 0.430695 9.94791C0.430695 11.0381 0.836057 12.0967 1.57594 12.935C2.3355 13.7929 3.33907 14.3006 4.40954 14.3597C4.42134 14.3597 4.42922 14.3597 4.44102 14.3597H7.8256C8.12076 14.3597 8.3569 14.1235 8.3569 13.8284C8.3569 13.5332 8.12076 13.2971 7.8256 13.2971H4.45677C2.84712 13.1987 1.49329 11.6677 1.49329 9.94397C1.49329 8.83021 2.0915 7.79122 3.05571 7.22844C3.28003 7.09857 3.37449 6.82701 3.28791 6.58301C3.20919 6.37049 3.16984 6.14616 3.16984 5.90609C3.16984 4.81988 4.05534 3.93438 5.14155 3.93438C5.37375 3.93438 5.60201 3.97374 5.81453 4.05245C6.07428 4.1469 6.36157 4.02883 6.47964 3.78089C7.21559 2.21848 8.80555 1.21098 10.5333 1.21098C12.8552 1.21098 14.7718 2.95049 14.9922 5.25673C15.0159 5.4968 15.1969 5.68964 15.433 5.72899C17.1843 6.02809 18.5067 7.64561 18.5067 9.49138C18.5067 11.4474 16.9679 13.1475 15.071 13.2931H12.1704C11.8753 13.2931 11.6391 13.5293 11.6391 13.8244C11.6391 14.1196 11.8753 14.3557 12.1704 14.3557H15.0906C15.1024 14.3557 15.1142 14.3557 15.13 14.3557C16.3303 14.2691 17.452 13.7182 18.2863 12.7972C19.1167 11.8842 19.5693 10.7114 19.5693 9.49138C19.5654 7.28354 18.058 5.3197 15.9958 4.77659Z" fill="#5A7EC1"/>
<path d="M13.1902 10.4491C13.3988 10.2405 13.3988 9.906 13.1902 9.69742L10.3763 6.8835C10.2779 6.78511 10.1401 6.72607 10.0024 6.72607C9.86463 6.72607 9.72689 6.78117 9.6285 6.8835L6.81458 9.69742C6.606 9.906 6.606 10.2405 6.81458 10.4491C6.9169 10.5514 7.05465 10.6065 7.18846 10.6065C7.32227 10.6065 7.46001 10.5554 7.56233 10.4491L9.47108 8.54036V17.3127C9.47108 17.6079 9.70721 17.844 10.0024 17.844C10.2975 17.844 10.5337 17.6079 10.5337 17.3127V8.54036L12.4424 10.4491C12.6471 10.6577 12.9816 10.6577 13.1902 10.4491Z" fill="#5A7EC1"/>
</svg>
