<svg width="247" height="219" viewBox="0 0 247 219" fill="none" xmlns="http://www.w3.org/2000/svg">
<rect x="0.675537" y="0.523682" width="245.911" height="217.95" rx="14.3388" fill="url(#paint0_linear_34_1027)"/>
<path d="M230.044 182.542H212.472V182.675H230.044V182.542Z" fill="#EBEBEB"/>
<path d="M167.079 183.986H162.469V184.118H167.079V183.986Z" fill="#EBEBEB"/>
<path d="M211.942 177.619H201.761V177.752H211.942V177.619Z" fill="#EBEBEB"/>
<path d="M42.1011 178.51H19.1873V178.643H42.1011V178.51Z" fill="#EBEBEB"/>
<path d="M50.1864 178.51H46.8281V178.643H50.1864V178.51Z" fill="#EBEBEB"/>
<path d="M110.806 180.749H61.1052V180.882H110.806V180.749Z" fill="#EBEBEB"/>
<path d="M117.092 150.344H14.6513C13.8487 150.343 13.0796 150.023 12.5126 149.455C11.9456 148.887 11.6272 148.117 11.6272 147.315V3.31155C11.6342 2.51364 11.9557 1.7507 12.5219 1.18846C13.0881 0.626219 13.8533 0.310083 14.6513 0.308716H117.092C117.896 0.308716 118.666 0.62788 119.235 1.196C119.803 1.76411 120.122 2.53464 120.122 3.33808V147.315C120.122 148.118 119.803 148.889 119.235 149.457C118.666 150.025 117.896 150.344 117.092 150.344ZM14.6513 0.414823C13.8839 0.416229 13.1485 0.722038 12.6064 1.26513C12.0643 1.80822 11.7598 2.54421 11.7598 3.31155V147.315C11.7598 148.082 12.0643 148.818 12.6064 149.361C13.1485 149.904 13.8839 150.21 14.6513 150.212H117.092C117.86 150.21 118.596 149.905 119.139 149.362C119.682 148.819 119.988 148.083 119.989 147.315V3.31155C119.988 2.54372 119.682 1.80774 119.139 1.2648C118.596 0.721866 117.86 0.416226 117.092 0.414823H14.6513Z" fill="#EBEBEB"/>
<path d="M231.853 150.344H129.406C128.603 150.343 127.834 150.023 127.266 149.455C126.698 148.888 126.378 148.118 126.377 147.315V3.31143C126.385 2.51303 126.708 1.7501 127.275 1.18801C127.842 0.625912 128.608 0.309946 129.406 0.308594H231.853C232.65 0.311355 233.414 0.628109 233.979 1.1902C234.544 1.75229 234.865 2.51443 234.872 3.31143V147.315C234.872 148.116 234.554 148.885 233.988 149.453C233.422 150.021 232.654 150.341 231.853 150.344ZM129.406 0.414701C128.638 0.416104 127.903 0.721744 127.36 1.26468C126.817 1.80762 126.511 2.5436 126.51 3.31143V147.315C126.511 148.083 126.817 148.819 127.36 149.362C127.903 149.905 128.638 150.21 129.406 150.212H231.853C232.621 150.21 233.357 149.905 233.9 149.362C234.443 148.819 234.748 148.083 234.75 147.315V3.31143C234.748 2.5436 234.443 1.80762 233.9 1.26468C233.357 0.721744 232.621 0.416104 231.853 0.414701H129.406Z" fill="#EBEBEB"/>
<path d="M70.6332 76.4351H67.0627V174.139H70.6332V76.4351Z" fill="#F5F5F5"/>
<path d="M84.7507 88.8389H81.1802V174.138H84.7507V88.8389Z" fill="#F5F5F5"/>
<path d="M98.7358 101.243H95.1653V174.139H98.7358V101.243Z" fill="#F5F5F5"/>
<path d="M112.726 92.9719H109.156V174.139H112.726V92.9719Z" fill="#F5F5F5"/>
<path d="M126.716 88.8389H123.146V174.138H126.716V88.8389Z" fill="#F5F5F5"/>
<path d="M140.702 80.5684H137.131V174.139H140.702V80.5684Z" fill="#F5F5F5"/>
<path d="M154.692 84.7063H151.121V174.139H154.692V84.7063Z" fill="#F5F5F5"/>
<path d="M168.682 80.5681H165.111V174.139H168.682V80.5681Z" fill="#F5F5F5"/>
<path d="M182.667 72.2974H179.097V174.134H182.667V72.2974Z" fill="#F5F5F5"/>
<path d="M196.657 64.032H193.087V174.139H196.657V64.032Z" fill="#F5F5F5"/>
<path d="M210.642 55.76H207.072V174.139H210.642V55.76Z" fill="#F5F5F5"/>
<path d="M96.9319 95.4336C96.7329 95.4257 96.5439 95.3444 96.4013 95.2055L66.5109 66.0632C66.3597 65.9154 66.2733 65.7136 66.2708 65.5022C66.2683 65.2908 66.3499 65.087 66.4977 64.9358C66.6454 64.7845 66.8472 64.6981 67.0586 64.6957C67.27 64.6932 67.4738 64.7748 67.6251 64.9225L97.0327 93.598L138.452 63.3574C138.612 63.2431 138.809 63.1918 139.004 63.2133C139.2 63.2348 139.381 63.3277 139.513 63.4741L153.073 78.8279L209.204 46.6668C209.295 46.6149 209.395 46.5814 209.499 46.5682C209.603 46.5551 209.708 46.5625 209.809 46.5901C209.91 46.6177 210.005 46.6649 210.088 46.729C210.17 46.7931 210.24 46.8729 210.292 46.9639C210.343 47.0548 210.377 47.155 210.39 47.2589C210.403 47.3628 210.396 47.4682 210.368 47.5692C210.341 47.6702 210.293 47.7648 210.229 47.8475C210.165 47.9303 210.085 47.9996 209.994 48.0515L153.301 80.5415C153.142 80.6315 152.957 80.6642 152.776 80.6343C152.596 80.6044 152.431 80.5136 152.309 80.377L138.802 65.0976L97.42 95.2798C97.2786 95.3834 97.1071 95.4375 96.9319 95.4336Z" fill="#F0F0F0"/>
<path d="M93.5632 173.529L67.4767 70.6525L68.7819 65.5116H67.4237V36.1305H63.9222V65.5116H62.564L63.8691 70.6525L37.7773 173.529H41.3903L63.9222 84.6745V174.07H67.4237V84.6745L89.9556 173.529H93.5632Z" fill="#E0E0E0"/>
<path d="M85.3284 69.6305C87.8908 58.774 81.1671 47.8959 70.3106 45.3335C59.4541 42.7712 48.576 49.4949 46.0136 60.3514C43.4512 71.2079 50.1749 82.086 61.0314 84.6484C71.8879 87.2107 82.766 80.487 85.3284 69.6305Z" fill="#E6E6E6"/>
<path d="M65.6731 82.239C75.1958 82.239 82.9155 74.5193 82.9155 64.9966C82.9155 55.4738 75.1958 47.7542 65.6731 47.7542C56.1504 47.7542 48.4307 55.4738 48.4307 64.9966C48.4307 74.5193 56.1504 82.239 65.6731 82.239Z" fill="#F5F5F5"/>
<path d="M65.6731 78.4944C73.1272 78.4944 79.17 72.4517 79.17 64.9976C79.17 57.5435 73.1272 51.5007 65.6731 51.5007C58.219 51.5007 52.1763 57.5435 52.1763 64.9976C52.1763 72.4517 58.219 78.4944 65.6731 78.4944Z" fill="#E6E6E6"/>
<path d="M69.9088 75.2142C75.553 72.8764 78.2332 66.4056 75.8953 60.7615C73.5574 55.1173 67.0867 52.437 61.4426 54.7749C55.7984 57.1128 53.1181 63.5835 55.456 69.2277C57.7939 74.8719 64.2646 77.5521 69.9088 75.2142Z" fill="#F5F5F5"/>
<path d="M73.1426 66.7543C74.1165 62.6279 71.5609 58.4932 67.4345 57.5193C63.3081 56.5454 59.1734 59.101 58.1995 63.2274C57.2256 67.3538 59.7812 71.4885 63.9076 72.4624C68.034 73.4364 72.1687 70.8807 73.1426 66.7543Z" fill="#E6E6E6"/>
<path d="M67.785 70.0881C70.5976 68.9231 71.9332 65.6986 70.7682 62.886C69.6032 60.0734 66.3787 58.7377 63.5661 59.9028C60.7535 61.0678 59.4178 64.2923 60.5828 67.1049C61.7479 69.9175 64.9724 71.2531 67.785 70.0881Z" fill="#F5F5F5"/>
<path d="M68.1718 64.9968C68.1718 65.4923 68.0248 65.9767 67.7494 66.3886C67.474 66.8005 67.0826 67.1214 66.6248 67.3108C66.1669 67.5002 65.6631 67.5495 65.1772 67.4524C64.6913 67.3554 64.2451 67.1164 63.8951 66.7656C63.5451 66.4149 63.3071 65.9682 63.211 65.4821C63.115 64.996 63.1654 64.4923 63.3557 64.0348C63.5461 63.5774 63.8678 63.1866 64.2803 62.9121C64.6928 62.6376 65.1775 62.4916 65.673 62.4927C66.0016 62.4927 66.327 62.5575 66.6305 62.6834C66.934 62.8093 67.2097 62.9938 67.4418 63.2264C67.6739 63.459 67.8579 63.7351 67.9831 64.0389C68.1084 64.3427 68.1725 64.6682 68.1718 64.9968Z" fill="#E6E6E6"/>
<path d="M39.751 48.3383L40.2974 51.9883L36.4988 53.2669L40.2974 55.2618L44.0854 53.9301L43.4223 50.3331L39.751 48.3383Z" fill="#E6E6E6"/>
<path d="M65.6727 65.5274C65.588 65.5264 65.5046 65.5065 65.4287 65.4691L38.2493 51.5372C38.1283 51.4708 38.038 51.3598 37.9975 51.2279C37.957 51.096 37.9695 50.9535 38.0323 50.8307C38.0951 50.7078 38.2033 50.6142 38.3339 50.5698C38.4646 50.5254 38.6074 50.5337 38.7321 50.5928L65.9114 64.5035C66.0364 64.5671 66.1311 64.6776 66.1748 64.8108C66.2186 64.944 66.2078 65.0891 66.1449 65.2144C66.1038 65.3059 66.0376 65.3838 65.9541 65.4392C65.8705 65.4946 65.7729 65.5252 65.6727 65.5274Z" fill="#E0E0E0"/>
<path d="M103.076 42.3058C103.073 41.5759 103.242 40.8555 103.569 40.2026C103.895 39.5498 104.371 38.9828 104.956 38.5472C105.542 38.1116 106.222 37.8196 106.941 37.6947C107.66 37.5698 108.399 37.6155 109.097 37.8281C108.89 36.4204 108.988 34.9846 109.386 33.6184C109.784 32.2522 110.471 30.9877 111.402 29.9112C112.332 28.8348 113.484 27.9715 114.778 27.3803C116.072 26.7891 117.479 26.4838 118.902 26.4853C119.512 26.485 120.121 26.5419 120.721 26.655C121.698 25.0505 123.169 23.8069 124.914 23.112C126.66 22.417 128.583 22.3084 130.395 22.8025C132.208 23.2965 133.81 24.3665 134.961 25.8509C136.112 27.3354 136.748 29.1538 136.775 31.032H136.924C139.04 31.032 141.07 31.8726 142.566 33.369C144.063 34.8654 144.903 36.895 144.903 39.0112C144.903 41.1274 144.063 43.157 142.566 44.6534C141.07 46.1498 139.04 46.9905 136.924 46.9905H107.617C106.399 46.9559 105.242 46.4468 104.394 45.5717C103.545 44.6965 103.072 43.5247 103.076 42.3058Z" fill="#F0F0F0"/>
<path d="M186.311 39.7383C186.311 39.1403 186.549 38.5668 186.972 38.144C187.395 37.7211 187.968 37.4836 188.566 37.4836C188.785 37.4855 189.003 37.5177 189.213 37.5791C189.18 37.3507 189.162 37.1202 189.16 36.8894C189.16 36.1875 189.314 35.4942 189.613 34.8588C189.911 34.2234 190.345 33.6616 190.885 33.2133C191.425 32.7649 192.057 32.4412 192.737 32.265C193.416 32.0889 194.126 32.0647 194.816 32.1941C195.289 31.4226 195.999 30.8255 196.84 30.4927C197.682 30.1599 198.608 30.1094 199.481 30.3487C200.353 30.5881 201.125 31.1044 201.678 31.82C202.232 32.5355 202.538 33.4116 202.551 34.3163H202.62C203.64 34.3163 204.619 34.7215 205.34 35.4428C206.061 36.1642 206.466 37.1425 206.466 38.1626C206.466 39.1828 206.061 40.1611 205.34 40.8824C204.619 41.6038 203.64 42.009 202.62 42.009H188.503C187.912 41.9937 187.352 41.7471 186.942 41.3223C186.532 40.8975 186.306 40.3286 186.311 39.7383Z" fill="#F0F0F0"/>
<path d="M41.6076 42.5445C41.6076 42.3455 41.6469 42.1484 41.7232 41.9646C41.7996 41.7808 41.9114 41.6139 42.0524 41.4734C42.1933 41.333 42.3607 41.2217 42.5447 41.146C42.7288 41.0703 42.926 41.0317 43.125 41.0324C43.2723 41.0321 43.4189 41.0535 43.56 41.0961C43.5369 40.9415 43.5245 40.7855 43.5229 40.6292C43.5298 39.7871 43.8674 38.9815 44.4629 38.386C45.0584 37.7906 45.864 37.453 46.7061 37.446C46.9056 37.4468 47.1045 37.4664 47.3003 37.5044C47.6152 36.9827 48.0916 36.578 48.6572 36.3515C49.2229 36.125 49.847 36.0891 50.4348 36.2493C51.0227 36.4094 51.5424 36.7569 51.915 37.2391C52.2876 37.7212 52.4928 38.3116 52.4996 38.9209H52.5473C53.213 38.9511 53.8414 39.2367 54.3018 39.7185C54.7622 40.2002 55.0191 40.8409 55.0191 41.5073C55.0191 42.1736 54.7622 42.8143 54.3018 43.2961C53.8414 43.7778 53.213 44.0635 52.5473 44.0936H43.0825C42.884 44.0888 42.6883 44.0449 42.5067 43.9645C42.3251 43.884 42.1611 43.7685 42.0241 43.6246C41.8871 43.4808 41.7799 43.3113 41.7084 43.126C41.6369 42.9407 41.6027 42.7431 41.6076 42.5445Z" fill="#F0F0F0"/>
<path d="M123.989 197.965C180.801 197.965 226.855 195.276 226.855 191.959C226.855 188.642 180.801 185.954 123.989 185.954C67.1783 185.954 21.1238 188.642 21.1238 191.959C21.1238 195.276 67.1783 197.965 123.989 197.965Z" fill="#F5F5F5"/>
<path d="M64.771 90.7969L68.4105 88.7172C68.4105 88.7172 69.8111 86.558 70.2302 86.4572C70.6493 86.3564 75.265 86.4572 75.265 86.4572C75.265 86.4572 74.57 89.4494 74.4957 90.0383C74.4214 90.6272 70.018 90.0383 70.018 90.0383L66.4528 92.1604L64.771 90.7969Z" fill="#EBB376"/>
<path d="M30.8748 187.588L27.0655 186.829C26.9975 186.829 26.9315 186.852 26.8783 186.894C26.8252 186.937 26.7883 186.996 26.7737 187.063L25.7498 190.872C25.7282 191.002 25.756 191.136 25.8276 191.246C25.8992 191.357 26.0095 191.437 26.1371 191.471H26.2485C27.5961 191.471 28.5776 191.365 30.2647 191.365C31.3257 191.365 34.4453 191.477 35.8831 191.477C37.3208 191.477 37.5118 190.055 36.9441 189.927C34.2914 189.349 32.3179 188.553 31.4743 187.805C31.3109 187.657 31.0955 187.578 30.8748 187.588Z" fill="#263238"/>
<path d="M77.4936 187.46H73.3342C73.2659 187.459 73.1993 187.482 73.146 187.524C73.0927 187.567 73.056 187.627 73.0424 187.694L72.3633 190.771C72.3434 190.901 72.3725 191.034 72.4451 191.144C72.5176 191.253 72.6284 191.332 72.7559 191.365H72.8673C74.2149 191.339 75.1911 191.259 76.8835 191.259C77.9445 191.259 81.0641 191.365 82.5018 191.365C83.9396 191.365 84.1253 189.949 83.5364 189.816C80.8837 189.243 78.9101 188.442 78.0666 187.694C77.9917 187.618 77.9023 187.559 77.8039 187.519C77.7054 187.479 77.5999 187.459 77.4936 187.46Z" fill="#263238"/>
<path d="M38.2176 117.382L55.8314 112.915C59.8264 121.637 74.4851 157.448 78.0397 187.243L72.0765 188.755C72.0765 188.755 61.5188 144.816 52.6641 131.988C52.6641 131.988 52.192 151.49 51.2317 154.328C50.4412 156.663 32.3128 187.895 32.3128 187.895L26.4238 187.232C26.4238 187.232 41.2258 155.358 42.0959 151.384C42.7113 148.678 40.0162 128.804 40.0162 128.804C39.544 127.032 38.8331 119.695 38.8331 119.695C38.8331 119.695 38.3025 117.748 38.2176 117.382Z" fill="#5A7EC1"/>
<path opacity="0.2" d="M52.6694 131.998C54.1641 134.26 55.4684 136.641 56.5689 139.118C55.3486 132.253 51.5659 125.605 51.5659 125.605L52.6694 131.998Z" fill="black"/>
<path opacity="0.3" d="M38.2176 117.382L55.8314 112.915C59.8264 121.637 74.4851 157.448 78.0397 187.243L72.0765 188.755C72.0765 188.755 61.5188 144.816 52.6641 131.988C52.6641 131.988 52.192 151.49 51.2317 154.328C50.4412 156.663 32.3128 187.895 32.3128 187.895L26.4238 187.232C26.4238 187.232 41.2258 155.358 42.0959 151.384C42.7113 148.678 40.0162 128.804 40.0162 128.804C39.544 127.032 38.8331 119.695 38.8331 119.695C38.8331 119.695 38.3025 117.748 38.2176 117.382Z" fill="black"/>
<path d="M68.8405 91.0995C68.8405 91.0995 60.8082 96.5215 58.6913 96.808C57.8478 96.9247 56.1076 96.6382 54.3091 96.2775C51.5822 95.6939 48.7385 94.8769 48.7385 94.8769L48.383 92.187L48.0063 89.3115C48.643 89.0993 56.9512 92.4948 58.1926 93.0253C59.4341 93.5558 67.4611 88.781 67.4611 88.781L68.8405 91.0995Z" fill="#263238"/>
<path d="M44.0005 116.141L44.5204 118.178L38.833 119.695L38.3025 117.584L44.0005 116.141Z" fill="black"/>
<path d="M52.9719 113.865L53.4653 115.796L45.1518 118.013L44.6318 115.981L52.9719 113.865Z" fill="black"/>
<path d="M56.7387 114.926L54.0914 115.632L53.6033 113.706L56.0331 113.09L56.7387 114.926Z" fill="black"/>
<path d="M48.4488 117.135L51.7297 116.302L51.1298 113.937L47.8489 114.769L48.4488 117.135Z" fill="white"/>
<path d="M56.0274 113.084L38.2969 117.583C37.4322 115.244 36.5515 112.888 35.692 110.591C35.0607 108.909 34.4399 107.259 33.8351 105.662C33.683 105.252 33.5292 104.849 33.3736 104.453L32.843 103.041C32.4504 102.009 32.072 101.013 31.7077 100.054L30.7315 97.5025L30.2699 96.2929L29.3945 94.0116L48.011 89.2898C54.1493 100.001 56.0274 113.084 56.0274 113.084Z" fill="#263238"/>
<path d="M36.1535 93.5554C38.0688 94.4732 41.6021 92.8551 41.6021 92.8551C41.6021 92.8551 42.7746 91.5605 42.0743 90.9876C40.6525 91.1733 40.7427 90.7064 40.228 89.9796C39.9338 89.5208 39.7319 89.009 39.6338 88.4728C39.5702 88.1767 39.5224 87.8774 39.4906 87.5762L33.9041 85.5708C35.172 87.6187 37.1403 91.4969 36.1535 93.5554Z" fill="#EBB376"/>
<path opacity="0.2" d="M35.6021 87.4014C36.6101 90.0806 39.0824 90.1602 40.2283 89.9798C39.9341 89.521 39.7322 89.0092 39.6341 88.473L35.6021 87.4014Z" fill="black"/>
<path d="M42.8808 77.2363C42.8808 77.2363 44.3398 81.6398 42.2336 83.7885C40.1273 85.9371 38.7002 77.5175 38.7002 77.5175L42.8808 77.2363Z" fill="#263238"/>
<path d="M35.8779 88.5845C36.5082 89.2422 37.3367 89.6751 38.2364 89.8169C39.1362 89.9587 40.0577 89.8016 40.8597 89.3697C41.9111 88.8263 42.7157 87.9022 43.1092 86.786C43.1622 86.6374 43.21 86.4783 43.2524 86.3191C43.9633 83.3534 43.5177 78.4566 40.2867 77.1409C39.5746 76.8473 38.7992 76.7408 38.0343 76.8315C37.2694 76.9222 36.5404 77.207 35.9167 77.659C35.293 78.111 34.7952 78.715 34.4709 79.4136C34.1465 80.1123 34.0063 80.8823 34.0635 81.6504C34.2545 84.9556 34.2121 86.8974 35.8779 88.5845Z" fill="#EBB376"/>
<path d="M39.0662 82.5899C39.0662 82.8552 39.2041 83.0727 39.3845 83.0727C39.5649 83.0727 39.6975 82.8552 39.7028 82.5899C39.7081 82.3246 39.5596 82.1018 39.3845 82.1018C39.2094 82.1018 39.0662 82.3193 39.0662 82.5899Z" fill="#263238"/>
<path d="M42.1013 82.5895C42.1013 82.8601 42.2446 83.0776 42.4196 83.0776C42.5947 83.0776 42.7327 82.8547 42.738 82.5895C42.7433 82.3242 42.5894 82.1067 42.4196 82.1067C42.2499 82.1067 42.1013 82.3348 42.1013 82.5895Z" fill="#263238"/>
<path d="M41.1354 82.7224C41.4526 83.5439 41.8829 84.3171 42.414 85.0196C42.2298 85.1516 42.0188 85.2414 41.796 85.2827C41.5732 85.3239 41.344 85.3156 41.1248 85.2584L41.1354 82.7224Z" fill="#D58745"/>
<path d="M43.2099 81.3482C43.1844 81.3612 43.1562 81.368 43.1277 81.368C43.0991 81.368 43.0709 81.3612 43.0454 81.3482C42.8885 81.2275 42.7055 81.1455 42.511 81.1086C42.3166 81.0718 42.1162 81.0811 41.926 81.136C41.8873 81.1507 41.8443 81.1495 41.8065 81.1326C41.7687 81.1157 41.7392 81.0845 41.7244 81.0458C41.7096 81.0071 41.7108 80.9641 41.7277 80.9263C41.7446 80.8885 41.7759 80.8589 41.8146 80.8442C42.0525 80.769 42.3051 80.7524 42.5508 80.7958C42.7965 80.8393 43.028 80.9414 43.2258 81.0935C43.2432 81.1048 43.2581 81.1194 43.2697 81.1365C43.2813 81.1537 43.2893 81.1729 43.2933 81.1933C43.2972 81.2136 43.2971 81.2345 43.2928 81.2547C43.2885 81.2749 43.2801 81.2941 43.2682 81.311C43.2504 81.3258 43.2308 81.3383 43.2099 81.3482Z" fill="#263238"/>
<path d="M38.4671 81.3852C38.4367 81.3812 38.4077 81.3703 38.3822 81.3534C38.353 81.3236 38.3367 81.2836 38.3367 81.2419C38.3367 81.2003 38.353 81.1603 38.3822 81.1305C38.5676 80.9608 38.7913 80.8383 39.0343 80.7737C39.2772 80.709 39.5322 80.704 39.7775 80.7592C39.8162 80.7714 39.8488 80.7981 39.8685 80.8336C39.8882 80.8691 39.8936 80.9108 39.8836 80.9501C39.8713 80.9903 39.8441 81.0241 39.8076 81.0448C39.7711 81.0655 39.728 81.0715 39.6873 81.0616C39.4938 81.0227 39.2938 81.0303 39.1038 81.0838C38.9138 81.1373 38.7392 81.2351 38.5944 81.3693C38.5754 81.3806 38.5543 81.3879 38.5324 81.3906C38.5105 81.3934 38.4882 81.3915 38.4671 81.3852Z" fill="#263238"/>
<path d="M36.4828 77.5549L36.8011 78.165C35.74 78.5736 36.0053 79.8256 36.2705 80.3827C36.8011 81.5817 36.191 83.5075 35.2944 84.3087C35.2944 84.3087 35.236 83.7781 34.7957 83.9267C34.3553 84.0752 34.61 86.8234 35.5437 88.0967C35.5437 88.0967 34.1696 86.9666 33.2889 84.1124C32.4772 81.4597 32.2862 79.2473 32.7902 78.1863L36.4828 77.5549Z" fill="#263238"/>
<path d="M32.6207 84.3673C32.8012 84.7377 33.053 85.069 33.3616 85.3421C33.6702 85.6152 34.0296 85.8248 34.4192 85.9589C35.4803 86.309 36.0108 85.3912 35.7986 84.3673C35.5758 83.4707 34.7747 82.1708 33.6765 82.2716C33.4449 82.2975 33.2235 82.3807 33.0322 82.5137C32.8409 82.6467 32.6858 82.8254 32.5809 83.0334C32.4761 83.2415 32.4248 83.4725 32.4318 83.7054C32.4387 83.9383 32.5037 84.1658 32.6207 84.3673Z" fill="#EBB376"/>
<path d="M36.451 89.9109C38.0108 91.0038 41.0507 91.3593 42.5415 89.3804C44.0324 87.4015 43.5549 84.2236 43.5549 84.2236C43.3836 84.9333 43.0575 85.5964 42.5999 86.1653C41.7563 85.1467 40.3239 85.725 40.3239 85.725C40.022 85.3321 39.5889 85.0609 39.1037 84.961C38.4087 84.892 36.451 85.0088 36.451 85.0088C35.825 84.6109 35.7984 82.8389 35.7984 82.8389L35.4164 83.1572C35.4164 83.1572 34.8859 88.8127 36.451 89.9109Z" fill="#263238"/>
<path d="M40.6211 78.6794C40.6211 78.6794 44.3349 76.8756 43.8945 75.0718C43.4542 73.2679 42.3719 75.3264 42.3719 75.3264C42.3719 75.3264 42.8706 73.9576 41.8944 73.7348C40.9182 73.512 41.2259 74.3874 40.6954 74.9126C40.1649 75.4378 35.0187 74.6739 33.3581 75.7031C31.6975 76.7323 32.9655 80.2922 32.9655 80.2922C33.9462 79.3076 35.1929 78.6306 36.5528 78.3441C37.9126 78.0576 39.3265 78.1742 40.6211 78.6794Z" fill="#263238"/>
<path opacity="0.2" d="M36.451 89.9109C38.0108 91.0038 41.0507 91.3593 42.5415 89.3804C44.0324 87.4015 43.5549 84.2236 43.5549 84.2236C43.3836 84.9333 43.0575 85.5964 42.5999 86.1653C41.7563 85.1467 40.3239 85.725 40.3239 85.725C40.022 85.3321 39.5889 85.0609 39.1037 84.961C38.4087 84.892 36.451 85.0088 36.451 85.0088C35.825 84.6109 35.7984 82.8389 35.7984 82.8389L35.4164 83.1572C35.4164 83.1572 34.8859 88.8127 36.451 89.9109Z" fill="white"/>
<path d="M40.483 86.7327C40.1974 87.1148 39.9403 87.5173 39.7137 87.937L39.4749 87.8468C38.4139 87.4595 38.0319 86.929 37.947 86.4515C37.9127 86.2202 37.9326 85.9841 38.0053 85.7618C38.044 85.6332 38.0993 85.5101 38.1698 85.3958C38.7279 85.9285 39.3936 86.3356 40.1222 86.5895C40.3397 86.685 40.483 86.7327 40.483 86.7327Z" fill="#263238"/>
<path d="M40.1222 86.5953L39.8835 86.9455C38.8755 86.5794 38.2123 86.1868 38.0054 85.7677C38.044 85.639 38.0993 85.516 38.1698 85.4016C38.7279 85.9344 39.3936 86.3414 40.1222 86.5953Z" fill="white"/>
<path d="M39.4747 87.8467C38.4136 87.4594 38.0317 86.9289 37.9468 86.4514C38.352 86.6091 38.727 86.8352 39.0556 87.1199C39.2682 87.3121 39.4149 87.5664 39.4747 87.8467Z" fill="#DE5753"/>
<path d="M42.3028 92.8606L41.9898 95.6088L47.7196 107.816L47.1519 109.435L45.2791 108.57L41.194 96.1181L38.1912 94.0861L40.377 92.8871L42.3028 92.8606Z" fill="#5A7EC1"/>
<path d="M36.2808 90.9829L40.0741 92.548L40.228 89.9802L43.0239 90.6699L43.2627 94.58L40.5728 93.4818L39.4481 95.9859L34.668 92.7921L36.2808 90.9829Z" fill="#263238"/>
<path opacity="0.2" d="M36.2808 90.9829L40.0741 92.548L40.228 89.9802L43.0239 90.6699L43.2627 94.58L40.5728 93.4818L39.4481 95.9859L34.668 92.7921L36.2808 90.9829Z" fill="white"/>
<path opacity="0.2" d="M32.838 103.042C32.4454 102.009 32.067 101.013 31.7026 100.055L30.7265 97.5029L30.2649 96.2933C30.7954 96.0333 32.1483 96.1872 32.525 96.8238C33.9044 99.2324 32.838 103.042 32.838 103.042Z" fill="black"/>
<path opacity="0.2" d="M39.4858 105.737C39.2592 106.779 38.8005 107.757 38.1437 108.597C37.4869 109.438 36.6491 110.119 35.6925 110.591C35.0611 108.909 34.4404 107.26 33.8356 105.663C33.6835 105.252 33.5297 104.849 33.374 104.453L32.8435 103.042L38.9871 103.822L39.4858 105.737Z" fill="black"/>
<path opacity="0.2" d="M54.3091 96.2565C51.5822 95.6729 48.7385 94.8558 48.7385 94.8558L48.3831 92.166C48.3831 92.166 53.3966 92.7019 54.3091 96.2565Z" fill="black"/>
<path d="M29.3895 158.939C29.2232 158.945 29.0593 158.898 28.9209 158.805C28.7825 158.713 28.6766 158.579 28.618 158.424C28.5595 158.268 28.5512 158.098 28.5944 157.937C28.6377 157.776 28.7302 157.633 28.8589 157.528C37.7136 150.259 37.5438 138.869 37.3794 127.85C37.252 119.541 37.1353 111.689 41.0454 106.352C46.5311 98.8504 68.5961 86.9505 72.2515 86.611C74.867 86.351 154.644 64.1799 196.466 52.4922C196.669 52.4352 196.887 52.4613 197.071 52.5648C197.255 52.6683 197.39 52.8406 197.447 53.0439C197.504 53.2473 197.478 53.4649 197.375 53.649C197.271 53.833 197.099 53.9685 196.896 54.0254C191.946 55.4101 75.6788 87.8949 72.4 88.1973C69.254 88.4891 47.4118 100.341 42.3293 107.297C38.7375 112.204 38.8489 119.796 38.971 127.828C39.1301 138.694 39.3158 151.013 29.867 158.764C29.7316 158.874 29.5637 158.935 29.3895 158.939Z" fill="#263238"/>
<path opacity="0.4" d="M196.922 54.02L186.014 57.0759C156.012 65.4478 75.1322 87.9531 72.4265 88.2025C69.2804 88.4943 47.4382 100.346 42.3557 107.302C38.764 112.209 38.8754 119.801 38.9974 127.834C39.1566 138.699 39.3423 151.018 29.8934 158.769C29.7448 158.892 29.5559 158.957 29.3629 158.949C29.1965 158.955 29.0327 158.908 28.8943 158.816C28.7559 158.723 28.65 158.59 28.5914 158.434C28.5329 158.278 28.5246 158.108 28.5678 157.947C28.611 157.787 28.7035 157.644 28.8323 157.538C37.687 150.27 37.5172 138.879 37.3527 127.86C37.2254 119.552 37.1087 111.7 41.0187 106.363C46.5045 98.8609 68.5695 86.961 72.2249 86.6215C74.6866 86.3774 145.365 66.7582 188.561 54.7044L196.439 52.5027C196.643 52.4457 196.86 52.4718 197.044 52.5753C197.228 52.6788 197.364 52.8511 197.421 53.0544C197.478 53.2578 197.452 53.4754 197.348 53.6595C197.245 53.8435 197.072 53.979 196.869 54.0359L196.922 54.02Z" fill="white"/>
<path opacity="0.2" d="M196.922 54.0203L186.015 57.0762C186.779 56.1793 187.653 55.3809 188.614 54.6994L196.493 52.4977C196.696 52.4407 196.914 52.4668 197.098 52.5703C197.282 52.6738 197.417 52.8461 197.474 53.0494C197.531 53.2528 197.505 53.4704 197.402 53.6545C197.298 53.8385 197.126 53.9739 196.922 54.0309V54.0203Z" fill="black"/>
<path d="M34.8115 104.188L38.9815 103.822C38.9815 103.822 41.162 102.442 41.5812 102.532C42.0003 102.623 46.1544 104.654 46.1544 104.654C46.1544 104.654 44.271 107.079 43.958 107.583C43.6449 108.087 39.8941 105.71 39.8941 105.71L35.7612 106.151L34.8115 104.188Z" fill="#EBB376"/>
<path d="M29.3895 94.0115C27.4955 95.3643 22.5615 106.394 23.0868 108.097C23.612 109.8 38.9657 106.442 38.9657 106.442L38.2866 103.572H30.0262L31.9891 100.473C31.9891 100.473 33.1988 99.2956 32.456 96.558C31.9202 94.5845 29.3895 94.0115 29.3895 94.0115Z" fill="#263238"/>
<path d="M189.356 95.1209L186.21 93.6301C186.21 93.6301 184.619 90.5848 184.152 90.0968C183.685 89.6087 181.43 91.5027 181.43 91.8316C181.43 92.1605 183.064 95.2376 183.489 95.4233C184.12 95.5161 184.762 95.5161 185.393 95.4233L188.386 96.8717L189.356 95.1209Z" fill="#9F5B53"/>
<path d="M196.699 76.2495L197.331 73.9948C197.331 73.9948 198.328 71.0556 198.222 70.3765C198.027 69.5727 197.775 68.7838 197.469 68.0156C197.469 68.0156 194.71 71.3739 194.71 71.793C194.71 72.2122 195.803 73.7348 195.803 73.7348L195.272 76.2495H196.699Z" fill="#9F5B53"/>
<path d="M199.124 93.0462C199.124 93.0462 196.747 90.0911 196.046 87.3429C195.346 84.5947 197.463 75.6711 197.463 75.6711L195.229 75.0769C195.229 75.0769 192.577 84.2074 192.487 87.5392C192.396 90.871 197.352 100.649 197.352 100.649L199.124 93.0462Z" fill="#5A7EC1"/>
<path opacity="0.2" d="M197.686 99.1794L197.346 100.628C197.346 100.628 195.638 97.2589 194.243 93.7998C195.695 94.8428 196.79 96.3083 197.378 97.9963C197.513 98.3816 197.616 98.7773 197.686 99.1794Z" fill="black"/>
<path d="M211.708 99.5186C211.678 100.135 211.604 100.749 211.485 101.354C211.241 102.681 210.827 104.246 210.355 105.97C210.1 106.877 209.825 107.848 209.581 108.872C208.397 113.472 207.755 115.302 206.88 121.175L190.089 117.191C190.996 112.163 192.38 107.234 194.222 102.468C194.71 101.2 195.283 99.9324 195.861 98.6803C196.788 96.7172 197.88 94.8359 199.124 93.0566C199.124 93.0566 201.84 95.5395 210.371 97.0304C211.406 97.1895 211.761 98.0914 211.708 99.5186Z" fill="#5A7EC1"/>
<path opacity="0.2" d="M209.596 97.604C209.596 98.1345 211.607 100.66 211.485 101.318C211.257 101.472 210.987 101.641 210.679 101.848C204.997 105.153 197.543 103.477 194.232 102.453C194.72 101.185 195.824 98.856 196.397 97.604L200.381 98.49C200.381 98.49 206.896 97.0045 209.596 97.604Z" fill="black"/>
<path d="M202.769 94.0596C203.379 93.8261 208.387 95.0729 208.016 95.179C207.644 95.2851 205.777 101.015 203.161 100.585C200.546 100.155 200.594 94.8872 202.769 94.0596Z" fill="#5A7EC1"/>
<path d="M180.093 187.938L176.942 188.622L175.101 181.375L178.258 180.691L180.093 187.938Z" fill="#9F5B53"/>
<path d="M176.157 187.307H180.078C180.142 187.307 180.204 187.329 180.253 187.37C180.302 187.41 180.336 187.467 180.348 187.53L180.985 190.4C180.999 190.461 181.001 190.525 180.99 190.587C180.979 190.649 180.956 190.708 180.921 190.761C180.887 190.814 180.843 190.859 180.791 190.895C180.739 190.93 180.681 190.955 180.619 190.967H180.513C179.245 190.967 178.322 190.867 176.73 190.867C175.749 190.867 172.788 190.967 171.425 190.967C170.061 190.967 169.897 189.631 170.449 189.509C172.937 188.978 174.81 188.214 175.605 187.503C175.68 187.435 175.767 187.383 175.862 187.35C175.956 187.316 176.057 187.301 176.157 187.307Z" fill="#263238"/>
<path d="M175.09 187.874C174.871 187.891 174.652 187.833 174.47 187.71C174.41 187.661 174.364 187.598 174.336 187.527C174.308 187.455 174.3 187.377 174.31 187.301C174.308 187.257 174.319 187.212 174.341 187.173C174.364 187.135 174.398 187.104 174.438 187.084C174.799 186.898 175.838 187.54 175.955 187.614C175.969 187.621 175.979 187.632 175.986 187.645C175.993 187.659 175.995 187.674 175.992 187.689C175.99 187.704 175.984 187.718 175.973 187.73C175.963 187.741 175.949 187.749 175.934 187.752C175.658 187.824 175.375 187.865 175.09 187.874ZM174.608 187.206C174.577 187.195 174.543 187.195 174.512 187.206C174.512 187.206 174.464 187.232 174.459 187.296C174.453 187.346 174.46 187.397 174.479 187.444C174.497 187.492 174.527 187.533 174.565 187.567C174.926 187.732 175.336 187.752 175.711 187.625C175.374 187.415 174.999 187.273 174.608 187.206Z" fill="#5A7EC1"/>
<path d="M175.913 187.757H175.876C175.547 187.577 174.899 186.866 174.963 186.526C174.975 186.469 175.007 186.418 175.052 186.381C175.097 186.344 175.154 186.324 175.212 186.325C175.27 186.317 175.33 186.322 175.385 186.339C175.441 186.357 175.493 186.386 175.536 186.425C175.907 186.728 175.987 187.656 175.992 187.699C175.993 187.712 175.99 187.726 175.984 187.738C175.977 187.751 175.967 187.761 175.955 187.768C175.948 187.77 175.94 187.77 175.933 187.768C175.925 187.766 175.918 187.762 175.913 187.757ZM175.266 186.447H175.228C175.128 186.447 175.122 186.505 175.117 186.526C175.075 186.738 175.488 187.274 175.817 187.524C175.799 187.162 175.671 186.814 175.451 186.526C175.427 186.501 175.399 186.481 175.367 186.467C175.335 186.453 175.3 186.446 175.266 186.447Z" fill="#5A7EC1"/>
<path d="M207.018 121.616C207.018 121.616 204.296 134.593 197.93 138.062C197.199 138.473 196.399 138.745 195.569 138.864C195.569 138.864 189.112 141.516 183.531 144.026C180.136 145.559 177.064 147.055 175.966 147.893C173.058 150.106 180.178 184.644 180.178 184.644L175.34 184.697C175.34 184.697 165.159 154.116 166.851 146.089C168.544 138.062 186.815 125.775 186.815 125.775L189.627 118.04L207.018 121.616Z" fill="#263238"/>
<path opacity="0.2" d="M197.93 138.079C197.199 138.489 196.399 138.761 195.569 138.88C195.569 138.88 189.112 141.532 183.531 144.042C187.123 137.437 193.527 133.145 193.527 133.145L197.93 138.079Z" fill="black"/>
<path d="M220.658 187.938L217.507 188.622L215.666 181.375L218.823 180.691L220.658 187.938Z" fill="#9F5B53"/>
<path d="M216.722 187.307H220.642C220.706 187.307 220.768 187.329 220.817 187.37C220.867 187.41 220.901 187.467 220.913 187.53L221.549 190.4C221.563 190.461 221.565 190.525 221.554 190.587C221.543 190.649 221.52 190.708 221.486 190.761C221.452 190.814 221.408 190.859 221.356 190.895C221.304 190.93 221.245 190.955 221.183 190.967H221.077C219.809 190.967 218.886 190.867 217.295 190.867C216.313 190.867 213.353 190.967 211.989 190.967C210.626 190.967 210.461 189.631 211.013 189.509C213.501 188.978 215.374 188.214 216.17 187.503C216.244 187.435 216.331 187.383 216.426 187.35C216.521 187.316 216.621 187.301 216.722 187.307Z" fill="#263238"/>
<path d="M215.655 187.874C215.436 187.891 215.217 187.833 215.035 187.71C214.975 187.661 214.929 187.598 214.901 187.527C214.873 187.455 214.864 187.377 214.875 187.301C214.873 187.257 214.884 187.212 214.906 187.173C214.929 187.135 214.962 187.104 215.003 187.084C215.363 186.898 216.403 187.54 216.52 187.614C216.533 187.621 216.544 187.632 216.551 187.645C216.558 187.659 216.56 187.674 216.557 187.689C216.555 187.704 216.549 187.718 216.538 187.73C216.528 187.741 216.514 187.749 216.499 187.752C216.223 187.824 215.94 187.865 215.655 187.874ZM215.172 187.206C215.142 187.195 215.108 187.195 215.077 187.206C215.077 187.206 215.029 187.232 215.024 187.296C215.018 187.346 215.025 187.397 215.044 187.444C215.062 187.492 215.092 187.533 215.13 187.567C215.491 187.732 215.901 187.752 216.276 187.625C215.939 187.415 215.564 187.273 215.172 187.206Z" fill="#5A7EC1"/>
<path d="M216.477 187.758H216.44C216.111 187.577 215.464 186.866 215.528 186.527C215.54 186.47 215.571 186.419 215.617 186.382C215.662 186.345 215.719 186.325 215.777 186.325C215.835 186.318 215.894 186.323 215.95 186.34C216.006 186.357 216.057 186.387 216.101 186.426C216.472 186.728 216.552 187.657 216.557 187.699C216.558 187.713 216.555 187.727 216.548 187.739C216.542 187.751 216.532 187.761 216.52 187.768C216.512 187.771 216.504 187.771 216.497 187.769C216.489 187.767 216.483 187.763 216.477 187.758ZM215.83 186.447H215.772C215.671 186.447 215.666 186.506 215.66 186.527C215.618 186.739 216.032 187.275 216.36 187.524C216.34 187.157 216.207 186.805 215.979 186.516C215.938 186.478 215.886 186.453 215.83 186.447Z" fill="#5A7EC1"/>
<path d="M208.106 96.8076C207.315 97.3382 203.671 97.1365 203.671 97.1365L201.978 98.9881L201.814 95.9269C201.814 95.9269 200.673 95.4548 200.986 95.1258C201.383 95.1554 201.781 95.1054 202.159 94.9787C202.536 94.8521 202.884 94.6514 203.182 94.3884C203.92 93.6668 204.063 92.505 204.053 91.3537C204.053 91.3537 204.053 91.3219 204.053 91.3113L207.167 89.7197L209.321 88.6108C208.307 90.7966 206.859 94.8977 208.106 96.8076Z" fill="#9F5B53"/>
<path opacity="0.2" d="M208.196 90.4467C207.167 93.0516 204.482 94.2135 203.161 94.3833C203.899 93.6617 204.042 92.4999 204.031 91.3486C204.034 91.3328 204.034 91.3166 204.031 91.3008L207.145 89.7092C207.151 90.1337 208.344 90.0488 208.196 90.4467Z" fill="black"/>
<path d="M210.175 90.3403C210.175 90.3403 212.196 91.4014 212.87 90.1334C213.544 88.8654 212.583 88.7911 213.575 88.3349C214.568 87.8786 215.979 87.5603 215.655 86.6C215.332 85.6397 214.329 85.5389 215.443 84.4779C216.557 83.4168 216.801 81.9207 215.135 81.6289C213.469 81.3371 214.106 80.0373 214.021 79.5067C213.936 78.9762 213.002 78.6048 211.989 78.817C210.976 79.0293 210.551 77.5278 209.925 77.061C209.299 76.5941 208.435 77.1671 208.206 77.7984C207.978 78.4297 207.379 77.5915 206.487 77.4854C205.596 77.3793 205.803 78.3183 205.527 79.1937C205.251 80.0691 204.705 79.5014 204.068 80.223C203.432 80.9445 203.373 85.8679 210.175 90.3403Z" fill="#263238"/>
<path d="M211.056 87.3161C209.533 89.7035 208.668 91.2792 206.96 92.0538C206.73 92.1598 206.492 92.2485 206.249 92.3191C202.928 93.2953 200.19 90.0961 201.066 86.9288C201.232 86.3571 201.445 85.8 201.702 85.263C202.891 82.7747 205.177 80.2282 207.91 80.5624C208.48 80.6276 209.032 80.8047 209.534 81.0836C210.036 81.3624 210.478 81.7376 210.835 82.1875C211.192 82.6374 211.456 83.1533 211.614 83.7056C211.771 84.2579 211.817 84.8358 211.751 85.4062C211.67 86.0881 211.433 86.742 211.056 87.3161Z" fill="#9F5B53"/>
<path d="M206.382 85.7247C206.27 85.9634 206.032 86.0696 205.883 85.99C205.735 85.9104 205.719 85.6504 205.841 85.4276C205.963 85.2048 206.196 85.0828 206.339 85.1623C206.483 85.2419 206.509 85.5072 206.382 85.7247Z" fill="#263238"/>
<path d="M203.808 84.3083C203.775 84.4081 203.705 84.4911 203.612 84.5396C203.518 84.5882 203.41 84.5985 203.309 84.5683C203.166 84.4834 203.145 84.2341 203.272 84.0059C203.4 83.7778 203.622 83.6611 203.771 83.746C203.92 83.8309 203.93 84.0908 203.808 84.3083Z" fill="#263238"/>
<path d="M204.567 84.8762C203.908 85.4182 203.178 85.868 202.397 86.2132C202.49 86.4118 202.626 86.5874 202.795 86.7277C202.964 86.868 203.161 86.9694 203.373 87.0249L204.567 84.8762Z" fill="#892B29"/>
<path d="M207.92 85.1303C207.893 85.1345 207.864 85.1313 207.838 85.1211C207.812 85.1108 207.789 85.0939 207.772 85.0719C207.664 84.9134 207.521 84.7826 207.353 84.6903C207.185 84.5981 206.998 84.5471 206.806 84.5414C206.784 84.5456 206.761 84.5448 206.739 84.5391C206.717 84.5335 206.697 84.523 206.679 84.5086C206.662 84.4942 206.648 84.4761 206.638 84.4556C206.629 84.4351 206.624 84.4128 206.624 84.3902C206.624 84.3676 206.629 84.3452 206.638 84.3248C206.648 84.3043 206.662 84.2862 206.679 84.2718C206.697 84.2573 206.717 84.2469 206.739 84.2412C206.761 84.2356 206.784 84.2348 206.806 84.239C207.048 84.2406 207.286 84.3008 207.499 84.4145C207.713 84.5281 207.895 84.6918 208.032 84.8915C208.044 84.9071 208.053 84.925 208.059 84.9442C208.064 84.9634 208.066 84.9835 208.063 85.0033C208.061 85.0231 208.055 85.0422 208.044 85.0595C208.034 85.0767 208.021 85.0918 208.005 85.1038C207.979 85.1193 207.95 85.1284 207.92 85.1303Z" fill="#263238"/>
<path d="M203.994 88.4467C204.35 88.5624 204.729 88.5906 205.099 88.5287C205.468 88.4668 205.817 88.3167 206.116 88.0912C206.13 88.0757 206.137 88.056 206.137 88.0355C206.137 88.015 206.13 87.9952 206.116 87.9798C206.101 87.9652 206.081 87.957 206.06 87.957C206.04 87.957 206.02 87.9652 206.005 87.9798C205.721 88.1834 205.395 88.3182 205.05 88.3734C204.706 88.4287 204.353 88.4029 204.02 88.2981C204.011 88.2939 204.001 88.2919 203.991 88.2921C203.981 88.2923 203.971 88.2948 203.961 88.2993C203.952 88.3039 203.944 88.3105 203.938 88.3185C203.932 88.3265 203.927 88.3359 203.925 88.3459C203.921 88.3552 203.919 88.3653 203.919 88.3755C203.919 88.3857 203.922 88.3958 203.926 88.4049C203.931 88.4141 203.937 88.4221 203.945 88.4284C203.953 88.4347 203.963 88.4391 203.973 88.4413L203.994 88.4467Z" fill="#263238"/>
<path d="M203.57 82.1068C203.561 82.0773 203.561 82.0461 203.57 82.0166C203.587 81.9804 203.618 81.9523 203.655 81.9384C203.693 81.9246 203.735 81.926 203.771 81.9423C203.994 82.042 204.189 82.1938 204.341 82.385C204.492 82.5762 204.595 82.801 204.641 83.0405C204.646 83.0806 204.634 83.1208 204.61 83.1525C204.585 83.1843 204.549 83.205 204.509 83.2103C204.469 83.2148 204.428 83.2035 204.397 83.1787C204.365 83.1539 204.344 83.1176 204.339 83.0777C204.297 82.8904 204.212 82.7156 204.09 82.5672C203.969 82.4189 203.814 82.3011 203.639 82.2235C203.62 82.2098 203.604 82.1924 203.592 82.1723C203.58 82.1523 203.572 82.1299 203.57 82.1068Z" fill="#263238"/>
<path d="M205.756 80.7858C206.53 80.8813 206.912 81.8469 206.912 81.8469C207.849 82.1892 208.754 82.6116 209.618 83.1095C209.881 83.3244 210.08 83.6087 210.19 83.9302C210.301 84.2517 210.319 84.5977 210.244 84.9293C210.217 85.1839 209.591 85.4174 209.591 85.4174C209.591 85.4174 208.445 88.1231 208.132 88.8711L208.292 91.37C210.397 90.0383 212.084 88.1384 213.157 85.8895C214.966 82.1227 207.416 78.8069 207.416 78.8069L205.756 80.7858Z" fill="#263238"/>
<path d="M210.599 91.0936C209.894 91.48 209.064 91.5715 208.292 91.3483C207.268 91.0406 207.326 89.9901 208.085 89.3163C208.764 88.7327 210.127 88.1545 210.918 88.8335C211.091 88.9813 211.224 89.1704 211.304 89.3831C211.385 89.5959 211.411 89.8256 211.379 90.0509C211.347 90.2762 211.259 90.4899 211.123 90.6722C210.987 90.8544 210.807 90.9994 210.599 91.0936Z" fill="#9F5B53"/>
<path d="M208.015 95.1788L203.798 96.3937L201.978 98.8607L202.471 95.8419C202.471 95.8419 202.02 95.1469 202.768 94.0593L200.201 94.5899L198.651 97.1789L201.665 96.4733L201.872 99.4814L203.628 97.4123L205.066 99.683L209.342 96.972L208.015 95.1788Z" fill="#5A7EC1"/>
<path opacity="0.2" d="M208.015 95.1788L203.798 96.3937L201.978 98.8607L202.471 95.8419C202.471 95.8419 202.02 95.1469 202.768 94.0593L200.201 94.5899L198.651 97.1789L201.665 96.4733L201.872 99.4814L203.628 97.4123L205.066 99.683L209.342 96.972L208.015 95.1788Z" fill="black"/>
<path d="M190.312 115.435L189.654 118.055L207.013 121.615L207.273 118.703L190.312 115.435Z" fill="black"/>
<path d="M198.062 116.809C197.924 116.613 194.062 115.78 193.696 116.056C193.696 116.056 192.948 118.64 193.075 118.91C193.203 119.181 196.959 119.706 197.32 119.78C197.68 119.855 198.2 117.027 198.062 116.809ZM197.001 119.462C196.715 119.404 193.627 118.974 193.521 118.751C193.415 118.528 194.052 116.406 194.052 116.406C194.354 116.178 197.527 116.862 197.638 117.022C197.749 117.181 197.288 119.494 197.001 119.435V119.462Z" fill="white"/>
<path d="M197.15 117.689L196.381 117.53C196.311 117.517 196.238 117.53 196.177 117.567C196.116 117.605 196.072 117.663 196.052 117.732C196.041 117.77 196.038 117.81 196.043 117.85C196.049 117.89 196.062 117.928 196.083 117.962C196.104 117.995 196.132 118.025 196.165 118.047C196.198 118.07 196.235 118.085 196.275 118.093L197.044 118.241C197.118 118.256 197.196 118.24 197.259 118.198C197.322 118.156 197.366 118.09 197.381 118.016C197.395 117.941 197.38 117.864 197.338 117.801C197.295 117.737 197.23 117.694 197.155 117.679L197.15 117.689Z" fill="white"/>
<path d="M207.013 121.615C207.013 121.615 207.347 141.245 206.795 146.975C206.243 152.705 220.547 184.065 220.547 184.065H215.915C215.915 184.065 201.882 161.103 198.667 154.037C195.452 146.97 193.075 130.109 193.075 130.109L207.013 121.615Z" fill="#263238"/>
<path d="M211.766 98.14C211.05 96.5166 200.052 98.9199 199.06 98.6387C198.068 98.3576 187.744 94.0337 187.744 94.0337L186.847 96.3362C186.847 96.3362 196.105 101.642 198.132 102.48C200.158 103.318 208.26 102.915 210.334 102.018C210.689 101.865 211.009 101.642 211.275 101.361C211.541 101.08 211.747 100.749 211.881 100.386C212.015 100.023 212.074 99.6374 212.054 99.2513C212.035 98.8652 211.937 98.4871 211.766 98.14Z" fill="#5A7EC1"/>
<path d="M209.82 55.9778L206.488 34.7563L188.938 47.1656L194.774 49.6379C189.139 62.5511 170.862 100.384 139.412 128.279C99.2559 163.905 43.0509 181.434 42.4885 181.603L45.5975 191.753C47.9849 191.02 104.529 173.407 146.474 136.2C179.897 106.554 198.689 67.4533 204.589 53.7655L209.82 55.9778Z" fill="#5A7EC1"/>
<path opacity="0.4" d="M206.636 52.264L206.488 34.7563L188.938 47.1656L194.774 49.6379C189.139 62.5511 170.862 100.384 139.412 128.279C99.2559 163.905 43.0509 181.434 42.4885 181.603L43.4753 188.039C45.8627 187.307 102.407 171.285 144.351 134.078C177.775 104.432 195.506 64.8006 201.405 51.1128L206.636 52.264Z" fill="white"/>
<path d="M203.57 56.8749C203.487 56.8755 203.405 56.863 203.326 56.8377L193.134 53.5431C193.029 53.5159 192.931 53.4676 192.845 53.401C192.76 53.3344 192.688 53.2511 192.636 53.156C192.584 53.061 192.552 52.9563 192.541 52.8483C192.531 52.7404 192.543 52.6315 192.576 52.5283C192.61 52.4251 192.664 52.3298 192.735 52.2482C192.807 52.1666 192.894 52.1006 192.992 52.054C193.09 52.0074 193.196 51.9814 193.305 51.9775C193.413 51.9735 193.521 51.9918 193.622 52.0311L203.814 55.3204C203.995 55.3779 204.15 55.4985 204.25 55.6603C204.35 55.8221 204.389 56.0145 204.36 56.2025C204.33 56.3905 204.234 56.5618 204.089 56.6851C203.944 56.8085 203.76 56.8758 203.57 56.8749Z" fill="#263238"/>
<path opacity="0.4" d="M203.57 56.8749C203.487 56.8755 203.405 56.863 203.326 56.8377L193.134 53.5431C193.029 53.5159 192.931 53.4676 192.845 53.401C192.76 53.3344 192.688 53.2511 192.636 53.156C192.584 53.061 192.552 52.9563 192.541 52.8483C192.531 52.7404 192.543 52.6315 192.576 52.5283C192.61 52.4251 192.664 52.3298 192.735 52.2482C192.807 52.1666 192.894 52.1006 192.992 52.054C193.09 52.0074 193.196 51.9814 193.305 51.9775C193.413 51.9735 193.521 51.9918 193.622 52.0311L203.814 55.3204C203.995 55.3779 204.15 55.4985 204.25 55.6603C204.35 55.8221 204.389 56.0145 204.36 56.2025C204.33 56.3905 204.234 56.5618 204.089 56.6851C203.944 56.8085 203.76 56.8758 203.57 56.8749Z" fill="white"/>
<path d="M81.5089 156.19C81.2979 156.19 81.0955 156.107 80.9462 155.957C80.797 155.808 80.7131 155.606 80.7131 155.395C80.7131 130.067 88.0717 126.746 89.4511 126.337L112.848 109.97L112.901 109.938L202.784 56.6406C202.965 56.5373 203.18 56.5094 203.382 56.5628C203.584 56.6162 203.756 56.7467 203.863 56.9261C203.969 57.1056 204.001 57.3197 203.951 57.5224C203.901 57.725 203.774 57.8999 203.596 58.0094L113.755 111.291L90.2469 127.738C90.1467 127.807 90.0327 127.854 89.9126 127.876C89.8543 127.876 82.3047 129.733 82.3047 155.411C82.3006 155.619 82.2149 155.817 82.0661 155.963C81.9173 156.109 81.7173 156.19 81.5089 156.19Z" fill="#263238"/>
<path opacity="0.4" d="M81.5089 156.19C81.2979 156.19 81.0955 156.107 80.9462 155.957C80.797 155.808 80.7131 155.606 80.7131 155.395C80.7131 130.067 88.0717 126.746 89.4511 126.337L112.848 109.97L112.901 109.938L202.784 56.6406C202.965 56.5373 203.18 56.5094 203.382 56.5628C203.584 56.6162 203.756 56.7467 203.863 56.9261C203.969 57.1056 204.001 57.3197 203.951 57.5224C203.901 57.725 203.774 57.8999 203.596 58.0094L113.755 111.291L90.2469 127.738C90.1467 127.807 90.0327 127.854 89.9126 127.876C89.8543 127.876 82.3047 129.733 82.3047 155.411C82.3006 155.619 82.2149 155.817 82.0661 155.963C81.9173 156.109 81.7173 156.19 81.5089 156.19Z" fill="white"/>
<path d="M87.6209 129.908C87.6209 129.908 83.5305 132.561 80.4215 133.362C79.6542 133.621 78.8308 133.667 78.0394 133.494C75.7263 132.762 77.1004 128.285 78.4798 125.457C78.7026 124.995 78.9254 124.581 79.1323 124.231L83.175 126.73C83.175 126.73 80.7239 130.226 81.0051 130.444C81.2863 130.661 85.0637 128.555 85.2494 128.486C85.4351 128.417 87.6209 129.908 87.6209 129.908Z" fill="#5A7EC1"/>
<path opacity="0.2" d="M87.6209 129.908C87.6209 129.908 83.5304 132.561 80.4215 133.362C79.5584 130.784 78.909 128.141 78.4797 125.457C78.7026 124.995 78.9254 124.581 79.1323 124.231L83.175 126.73C83.175 126.73 80.7239 130.226 81.0051 130.444C81.2863 130.661 85.0637 128.555 85.2494 128.486C85.4351 128.417 87.6209 129.908 87.6209 129.908Z" fill="black"/>
<path d="M107.542 114.512L109.94 112.39C110.132 111.784 110.396 111.203 110.725 110.66C110.985 110.443 115.352 110.103 115.352 110.103C115.352 110.103 115.437 112.411 115.092 113.01C114.747 113.61 111.182 113.87 111.182 113.87L109.272 115.711L107.542 114.512Z" fill="#EEC1BB"/>
<path d="M120.318 164.801C119.633 174.648 117.803 188.622 117.803 188.622L115.447 189.153C115.447 189.153 113.272 177.454 113.617 166.6C113.679 164.233 113.902 161.874 114.285 159.538C114.285 159.538 106.126 156.403 100.46 153.596C97.7539 152.259 95.6159 150.991 95.2073 150.174C93.9447 147.654 99.6851 141.733 99.6851 141.733C99.8655 141.877 103.33 144.084 107.362 146.699C112.715 150.169 119.066 154.36 120.095 155.405C120.71 156.005 120.657 159.888 120.318 164.801Z" fill="#EEC1BB"/>
<path opacity="0.2" d="M120.318 164.801C118.14 165.591 115.898 166.189 113.617 166.589C113.679 164.223 113.902 161.864 114.285 159.528C114.285 159.528 106.126 156.392 100.46 153.586L107.357 146.689C112.71 150.158 119.06 154.35 120.09 155.395C120.71 156.005 120.657 159.888 120.318 164.801Z" fill="black"/>
<path d="M101.95 140.089C101.95 140.089 124.588 153.103 127.666 156.042C130.743 158.981 148.505 186.447 148.505 186.447L147.009 187.874C147.009 187.874 132.26 175.215 126.376 163.183L101.972 151.389L101.95 140.089Z" fill="#EEC1BB"/>
<path d="M84.7294 116.061C84.766 116.086 84.8051 116.107 84.8462 116.124C85.402 116.439 86.0154 116.64 86.65 116.713C88.4963 116.878 89.6847 116.464 90.3637 115.541C91.3081 114.172 91.2869 111.986 90.767 109.413C90.5948 108.383 90.2599 107.388 89.7748 106.463C89.7748 106.463 89.7748 106.426 89.7748 106.421L89.7112 106.315C89.4159 105.797 88.9955 105.362 88.4886 105.048C87.9816 104.735 87.4042 104.554 86.8091 104.521C86.291 104.479 85.7697 104.493 85.2547 104.564C80.2146 105.216 80.4852 113.716 84.7294 116.061Z" fill="#EEC1BB"/>
<path opacity="0.2" d="M84.8669 116.124C85.4241 116.422 86.0361 116.602 86.6655 116.655C88.5064 116.819 89.6895 116.342 90.3792 115.413C89.3473 115.825 88.2098 115.89 87.1376 115.599C86.7441 115.508 86.335 115.508 85.9415 115.599C85.548 115.69 85.1805 115.87 84.8669 116.124Z" fill="black"/>
<path d="M84.5276 120.273C84.0872 121.695 85.907 122.448 85.907 122.448C89.0902 121.387 89.8064 119.833 89.8064 119.833C87.366 118.241 88.4376 114.559 88.4376 114.559L87.9071 114.772L84.1934 115.164C84.1934 115.164 85.0369 117.196 85.1324 117.652C85.5993 120.045 84.5276 120.273 84.5276 120.273Z" fill="#EBB376"/>
<path d="M89.8064 106.415C89.8064 106.415 90.581 109.922 87.4349 111.912C87.4349 111.912 86.5065 115.801 84.3896 116.156C81.5035 116.633 78.3786 112.872 78.7925 108.532C79.3336 102.919 87.5145 101.322 89.8064 106.415Z" fill="#263238"/>
<path d="M88.9731 110.66C88.8935 110.129 88.3206 109.238 87.477 109.487C86.6335 109.737 86.4159 112.002 88.676 112.188C89.0209 112.252 89.1588 111.827 88.9731 110.66Z" fill="#EBB376"/>
<path d="M147.518 184.76L145.078 186.638C145.028 186.678 144.993 186.734 144.978 186.797C144.964 186.859 144.971 186.925 144.998 186.983L146.24 189.636C146.266 189.692 146.304 189.742 146.35 189.784C146.396 189.825 146.45 189.858 146.509 189.878C146.568 189.899 146.63 189.908 146.692 189.904C146.754 189.901 146.815 189.885 146.871 189.858C146.903 189.844 146.933 189.826 146.961 189.805C147.948 189.015 147.98 188.893 149.237 187.927C150.006 187.333 152.42 185.614 153.481 184.792C154.542 183.969 153.874 182.808 153.365 183.046C151.073 184.107 149.12 184.675 148.059 184.595C147.865 184.581 147.672 184.639 147.518 184.76Z" fill="#263238"/>
<path d="M148.049 184.712C148.035 184.719 148.02 184.721 148.005 184.719C147.99 184.716 147.977 184.71 147.966 184.699C147.955 184.689 147.947 184.675 147.944 184.661C147.941 184.646 147.942 184.631 147.948 184.617C147.996 184.489 148.431 183.349 148.823 183.28C148.867 183.27 148.912 183.274 148.954 183.29C148.995 183.306 149.031 183.334 149.057 183.37C149.111 183.424 149.151 183.49 149.172 183.564C149.193 183.637 149.196 183.715 149.179 183.789C149.116 184.006 148.979 184.193 148.792 184.32C148.56 184.479 148.311 184.61 148.049 184.712ZM148.16 184.495C148.535 184.368 148.846 184.102 149.03 183.752C149.041 183.702 149.038 183.65 149.024 183.601C149.009 183.551 148.982 183.507 148.946 183.471C148.903 183.428 148.866 183.418 148.85 183.434C148.817 183.44 148.786 183.455 148.76 183.476C148.497 183.774 148.294 184.12 148.16 184.495Z" fill="#5A7EC1"/>
<path d="M148.043 184.739C148.03 184.739 148.017 184.736 148.005 184.731C147.993 184.725 147.983 184.717 147.974 184.707C147.974 184.67 147.444 183.89 147.555 183.423C147.568 183.366 147.592 183.312 147.625 183.265C147.659 183.218 147.702 183.177 147.751 183.147C147.797 183.111 147.853 183.091 147.911 183.091C147.968 183.091 148.025 183.111 148.07 183.147C148.33 183.375 148.25 184.325 148.096 184.67L148.07 184.696L148.043 184.739ZM147.688 183.433C147.686 183.8 147.795 184.159 148.001 184.463C148.128 184.066 148.109 183.637 147.948 183.253C147.948 183.253 147.889 183.195 147.815 183.253H147.783C147.731 183.3 147.697 183.364 147.688 183.433Z" fill="#5A7EC1"/>
<path d="M118.217 187.057L115.134 187.116C115.071 187.119 115.011 187.143 114.963 187.185C114.915 187.226 114.882 187.282 114.869 187.344L114.291 190.214C114.274 190.334 114.303 190.456 114.373 190.555C114.443 190.653 114.549 190.721 114.668 190.745C114.703 190.75 114.739 190.75 114.774 190.745C116.031 190.697 116.132 190.617 117.718 190.586C118.694 190.586 121.639 190.612 122.986 190.586C124.334 190.559 124.483 189.222 123.931 189.111C121.443 188.623 119.57 187.912 118.763 187.217C118.608 187.096 118.413 187.039 118.217 187.057Z" fill="#263238"/>
<path d="M118.493 187.396C118.477 187.394 118.463 187.386 118.452 187.375C118.442 187.363 118.435 187.348 118.434 187.333C118.43 187.319 118.431 187.303 118.437 187.29C118.443 187.276 118.453 187.265 118.466 187.258C118.577 187.184 119.601 186.526 119.962 186.701C120.003 186.72 120.038 186.75 120.062 186.787C120.087 186.825 120.1 186.869 120.1 186.914C120.111 186.989 120.102 187.066 120.075 187.137C120.048 187.209 120.004 187.272 119.946 187.322C119.768 187.451 119.55 187.513 119.331 187.497C119.048 187.496 118.767 187.462 118.493 187.396ZM118.71 187.285C119.086 187.405 119.495 187.377 119.851 187.205C119.888 187.171 119.917 187.128 119.933 187.08C119.95 187.031 119.954 186.98 119.946 186.93C119.946 186.871 119.914 186.845 119.898 186.845C119.865 186.837 119.831 186.837 119.798 186.845C119.411 186.922 119.042 187.071 118.71 187.285Z" fill="#5A7EC1"/>
<path d="M118.471 187.413C118.459 187.406 118.448 187.396 118.442 187.384C118.435 187.372 118.432 187.358 118.434 187.344C118.434 187.301 118.492 186.378 118.858 186.065C118.902 186.026 118.953 185.997 119.009 185.979C119.065 185.962 119.124 185.957 119.182 185.964C119.24 185.963 119.297 185.982 119.342 186.018C119.387 186.054 119.419 186.104 119.431 186.161C119.5 186.495 118.901 187.222 118.545 187.402H118.508C118.498 187.41 118.484 187.414 118.471 187.413ZM118.959 186.155C118.741 186.45 118.615 186.803 118.598 187.169C118.927 186.914 119.325 186.368 119.278 186.161C119.278 186.161 119.278 186.086 119.166 186.086H119.129C119.066 186.088 119.005 186.112 118.959 186.155Z" fill="#5A7EC1"/>
<path d="M101.319 136.603L90.0877 141.32C85.4455 129.78 79.1321 124.231 79.1321 124.231C83.631 118.835 91.9392 116.353 91.9392 116.353C93.1664 117.351 94.225 118.541 95.0747 119.875C96.0114 121.325 96.8276 122.849 97.5152 124.433C99.1839 128.353 100.458 132.43 101.319 136.603Z" fill="#5A7EC1"/>
<path d="M89.7004 108.76C89.7004 108.76 93.2285 105.163 89.849 102.792C86.4695 100.42 83.1165 103.587 83.1165 103.587C83.1165 103.587 75.0895 105.609 76.8508 110.941C78.6122 116.273 79.737 116.713 77.2169 119.482C74.6969 122.252 72.1291 126.337 74.7605 128.91C77.392 131.483 86.4642 128.724 89.1858 124.777C91.9075 120.83 86.9522 112.463 89.7004 108.76Z" fill="#263238"/>
<path d="M100.502 133.144L88.2998 137.33C88.2998 137.33 91.0002 150.62 92.9579 152.843C94.9156 155.066 108.004 165.358 109.855 164.546C111.707 163.735 123.989 152.843 123.989 152.843L103.208 138.593L100.502 133.144Z" fill="#263238"/>
<path d="M98.725 135.643L101.319 134.783L100.677 133.499L98.2209 134.364L98.725 135.643Z" fill="black"/>
<path d="M90.9683 136.916L88.3103 137.85L88.6658 138.985L91.2654 138.121L90.9683 136.916Z" fill="black"/>
<path d="M91.8223 137.935L98.2047 135.818L97.7272 134.534L91.4722 136.736L91.8223 137.935Z" fill="black"/>
<path opacity="0.2" d="M97.5149 124.454C94.8304 124.141 93.3184 120.103 93.3184 120.103C93.899 119.999 94.4854 119.93 95.0744 119.896C96.0111 121.346 96.8274 122.871 97.5149 124.454Z" fill="black"/>
<path d="M91.9394 116.353C94.8574 115.918 101.383 118.284 101.951 118.257C102.518 118.231 108.848 113.254 108.848 113.254L110.492 114.703C110.492 114.703 103.861 121.541 102.497 121.6C101.134 121.658 94.0085 121.143 94.0085 121.143C94.0085 121.143 92.2631 120.523 91.9288 118.947C91.7253 118.094 91.7289 117.204 91.9394 116.353Z" fill="#5A7EC1"/>
<path d="M26.4854 217.04H220.418" stroke="#263238" stroke-width="0.716941"/>
<defs>
<linearGradient id="paint0_linear_34_1027" x1="123.631" y1="0.523682" x2="123.989" y2="262.924" gradientUnits="userSpaceOnUse">
<stop stop-color="white"/>
<stop offset="1" stop-color="white" stop-opacity="0"/>
</linearGradient>
</defs>
</svg>
