<svg width="25" height="25" viewBox="0 0 25 25" fill="none" xmlns="http://www.w3.org/2000/svg">
<path d="M12.5 12.2628C11.8527 12.2628 11.22 12.474 10.6818 12.8695C10.1436 13.2651 9.7241 13.8273 9.47639 14.4852C9.22869 15.143 9.16388 15.8668 9.29016 16.5651C9.41644 17.2635 9.72813 17.9049 10.1858 18.4084C10.6435 18.9119 11.2267 19.2547 11.8615 19.3936C12.4964 19.5326 13.1544 19.4613 13.7524 19.1888C14.3504 18.9163 14.8616 18.4549 15.2212 17.8629C15.5808 17.2709 15.7727 16.5748 15.7727 15.8628C15.7727 14.908 15.4279 13.9924 14.8142 13.3172C14.2004 12.6421 13.368 12.2628 12.5 12.2628ZM12.5 17.0628C12.2842 17.0628 12.0733 16.9924 11.8939 16.8606C11.7145 16.7287 11.5747 16.5413 11.4921 16.322C11.4096 16.1028 11.388 15.8615 11.4301 15.6287C11.4721 15.3959 11.576 15.1821 11.7286 15.0143C11.8812 14.8465 12.0756 14.7322 12.2872 14.6859C12.4988 14.6396 12.7181 14.6633 12.9175 14.7542C13.1168 14.845 13.2872 14.9988 13.4071 15.1961C13.5269 15.3935 13.5909 15.6255 13.5909 15.8628C13.5909 16.1811 13.476 16.4863 13.2714 16.7113C13.0668 16.9364 12.7893 17.0628 12.5 17.0628ZM11.7255 9.51482C11.8292 9.62407 11.9515 9.7097 12.0855 9.76682C12.216 9.8303 12.3572 9.8631 12.5 9.8631C12.6428 9.8631 12.784 9.8303 12.9145 9.76682C13.0485 9.7097 13.1708 9.62407 13.2745 9.51482L15.7727 6.81482C15.9839 6.58249 16.1026 6.26738 16.1026 5.93882C16.1026 5.61025 15.9839 5.29515 15.7727 5.06282C15.5615 4.83049 15.2751 4.69997 14.9764 4.69997C14.6777 4.69997 14.3912 4.83049 14.18 5.06282L13.5909 5.77082V1.46282C13.5909 1.14456 13.476 0.839333 13.2714 0.614289C13.0668 0.389246 12.7893 0.262817 12.5 0.262817C12.2107 0.262817 11.9332 0.389246 11.7286 0.614289C11.524 0.839333 11.4091 1.14456 11.4091 1.46282V5.77082L10.82 5.06282C10.6088 4.83049 10.3223 4.69997 10.0236 4.69997C9.72494 4.69997 9.43848 4.83049 9.22727 5.06282C9.01606 5.29515 8.89741 5.61025 8.89741 5.93882C8.89741 6.26738 9.01606 6.58249 9.22727 6.81482L11.7255 9.51482ZM20.1364 15.8628C20.1364 15.6255 20.0724 15.3935 19.9525 15.1961C19.8326 14.9988 19.6623 14.845 19.4629 14.7542C19.2636 14.6633 19.0442 14.6396 18.8326 14.6859C18.621 14.7322 18.4266 14.8465 18.2741 15.0143C18.1215 15.1821 18.0176 15.3959 17.9755 15.6287C17.9334 15.8615 17.955 16.1028 18.0376 16.322C18.1202 16.5413 18.26 16.7287 18.4394 16.8606C18.6188 16.9924 18.8297 17.0628 19.0455 17.0628C19.3348 17.0628 19.6123 16.9364 19.8168 16.7113C20.0214 16.4863 20.1364 16.1811 20.1364 15.8628ZM21.2273 7.46282H17.9545C17.6652 7.46282 17.3877 7.58925 17.1832 7.81429C16.9786 8.03933 16.8636 8.34456 16.8636 8.66282C16.8636 8.98108 16.9786 9.2863 17.1832 9.51135C17.3877 9.73639 17.6652 9.86282 17.9545 9.86282H21.2273C21.5166 9.86282 21.7941 9.98925 21.9987 10.2143C22.2032 10.4393 22.3182 10.7446 22.3182 11.0628V20.6628C22.3182 20.9811 22.2032 21.2863 21.9987 21.5113C21.7941 21.7364 21.5166 21.8628 21.2273 21.8628H3.77273C3.4834 21.8628 3.20592 21.7364 3.00134 21.5113C2.79675 21.2863 2.68182 20.9811 2.68182 20.6628V11.0628C2.68182 10.7446 2.79675 10.4393 3.00134 10.2143C3.20592 9.98925 3.4834 9.86282 3.77273 9.86282H7.04545C7.33478 9.86282 7.61226 9.73639 7.81684 9.51135C8.02143 9.2863 8.13636 8.98108 8.13636 8.66282C8.13636 8.34456 8.02143 8.03933 7.81684 7.81429C7.61226 7.58925 7.33478 7.46282 7.04545 7.46282H3.77273C2.90475 7.46282 2.07232 7.8421 1.45856 8.51723C0.844804 9.19236 0.5 10.108 0.5 11.0628V20.6628C0.5 21.6176 0.844804 22.5333 1.45856 23.2084C2.07232 23.8835 2.90475 24.2628 3.77273 24.2628H21.2273C22.0953 24.2628 22.9277 23.8835 23.5414 23.2084C24.1552 22.5333 24.5 21.6176 24.5 20.6628V11.0628C24.5 10.108 24.1552 9.19236 23.5414 8.51723C22.9277 7.8421 22.0953 7.46282 21.2273 7.46282ZM4.86364 15.8628C4.86364 16.1002 4.92762 16.3322 5.04749 16.5295C5.16736 16.7268 5.33774 16.8806 5.53707 16.9715C5.73641 17.0623 5.95576 17.0861 6.16737 17.0398C6.37899 16.9935 6.57337 16.8792 6.72593 16.7113C6.8785 16.5435 6.9824 16.3297 7.02449 16.0969C7.06659 15.8641 7.04498 15.6229 6.96241 15.4036C6.87985 15.1843 6.74002 14.9969 6.56062 14.8651C6.38122 14.7332 6.17031 14.6628 5.95455 14.6628C5.66522 14.6628 5.38774 14.7892 5.18316 15.0143C4.97857 15.2393 4.86364 15.5446 4.86364 15.8628Z" fill="#5A7EC1"/>
</svg>
