<svg width="314" height="256" viewBox="0 0 314 256" fill="none" xmlns="http://www.w3.org/2000/svg">
<rect x="0.697998" y="0.484375" width="312.802" height="254.556" rx="14.3817" fill="#E9EEF9"/>
<mask id="mask0_34_952" style="mask-type:alpha" maskUnits="userSpaceOnUse" x="0" y="0" width="314" height="256">
<rect x="0.697998" y="0.484375" width="312.802" height="254.556" rx="14.3817" fill="#F3F3F3"/>
</mask>
<g mask="url(#mask0_34_952)">
<path d="M335.764 -1.84131H233.156C230.435 -1.84131 227.825 -0.767169 225.901 1.14481C223.976 3.05679 222.895 5.65 222.895 8.35395V45.7578C222.895 102.724 271.506 121.649 281.254 124.835C283.322 125.602 285.599 125.602 287.667 124.835C297.414 121.649 346.025 102.724 346.025 45.7578V8.35395C346.025 5.65 344.944 3.05679 343.02 1.14481C341.095 -0.767169 338.485 -1.84131 335.764 -1.84131ZM310.433 56.2716L292.733 62.0065L303.699 76.9808C304.095 77.5189 304.379 78.1299 304.536 78.7781C304.692 79.4263 304.717 80.099 304.61 80.757C304.502 81.415 304.265 82.0452 303.91 82.6112C303.556 83.1771 303.092 83.6674 302.545 84.0537C301.683 84.7192 300.622 85.0782 299.531 85.0732C298.72 85.0658 297.921 84.8722 297.198 84.5074C296.475 84.1426 295.847 83.6166 295.362 82.9705L284.46 67.9962L273.558 82.9705C273.073 83.6166 272.445 84.1426 271.722 84.5074C270.999 84.8722 270.201 85.0658 269.39 85.0732C268.298 85.0782 267.237 84.7192 266.375 84.0537C265.829 83.6674 265.365 83.1771 265.01 82.6112C264.656 82.0452 264.418 81.415 264.31 80.757C264.203 80.099 264.228 79.4263 264.385 78.7781C264.541 78.1299 264.825 77.5189 265.221 76.9808L276.187 62.0065L258.487 56.2716C257.198 55.8617 256.124 54.9618 255.499 53.7682C254.874 52.5746 254.75 51.184 255.153 49.8996C255.579 48.6135 256.497 47.5454 257.709 46.9255C258.92 46.3057 260.329 46.1838 261.63 46.5862L279.33 52.321V33.8421C279.33 32.4901 279.87 31.1935 280.832 30.2375C281.795 29.2815 283.099 28.7445 284.46 28.7445C285.821 28.7445 287.126 29.2815 288.088 30.2375C289.05 31.1935 289.591 32.4901 289.591 33.8421V52.321L307.29 46.5862C308.592 46.1838 310 46.3057 311.212 46.9255C312.423 47.5454 313.341 48.6135 313.768 49.8996C314.17 51.184 314.046 52.5746 313.421 53.7682C312.797 54.9618 311.722 55.8617 310.433 56.2716Z" fill="#5A7EC1"/>
</g>
</svg>
