<svg width="110" height="104" viewBox="0 0 110 104" fill="none" xmlns="http://www.w3.org/2000/svg">
<path d="M57.9722 102.954C86.1261 102.954 108.949 80.1309 108.949 51.9771C108.949 23.8232 86.1261 1 57.9722 1C29.8183 1 6.99512 23.8232 6.99512 51.9771C6.99512 80.1309 29.8183 102.954 57.9722 102.954Z" fill="white" stroke="#5A7EC1" stroke-width="1.93987" stroke-linejoin="round"/>
<path d="M51.9771 102.954C80.1309 102.954 102.954 80.1309 102.954 51.9771C102.954 23.8232 80.1309 1 51.9771 1C23.8232 1 1 23.8232 1 51.9771C1 80.1309 23.8232 102.954 51.9771 102.954Z" fill="white" stroke="#5A7EC1" stroke-width="1.93987" stroke-linejoin="round"/>
<path d="M51.9774 92.9623C74.6129 92.9623 92.9626 74.6126 92.9626 51.9771C92.9626 29.3416 74.6129 10.9919 51.9774 10.9919C29.3419 10.9919 10.9922 29.3416 10.9922 51.9771C10.9922 74.6126 29.3419 92.9623 51.9774 92.9623Z" fill="white" stroke="#5A7EC1" stroke-width="1.93987" stroke-linejoin="round"/>
<path d="M14.5229 51.9893C14.5289 41.4258 18.6121 31.2723 25.9212 23.6457C33.2303 16.0191 43.2011 11.5081 53.7549 11.0532C53.1664 11.0532 52.5779 11.0532 51.9894 11.0532C46.5483 10.9591 41.143 11.9495 36.0887 13.9666C31.0345 15.9838 26.4325 18.9872 22.5514 22.8018C18.6703 26.6164 15.5876 31.1657 13.4834 36.1843C11.3791 41.2029 10.2954 46.5904 10.2954 52.0323C10.2954 57.4742 11.3791 62.8616 13.4834 67.8802C15.5876 72.8988 18.6703 77.4481 22.5514 81.2627C26.4325 85.0773 31.0345 88.0808 36.0887 90.0979C41.143 92.115 46.5483 93.1054 51.9894 93.0113C52.5779 93.0113 53.1664 93.0113 53.7549 93.0113C43.1863 92.5558 33.2029 88.0328 25.8915 80.3879C18.5801 72.7429 14.5067 62.5677 14.5229 51.9893Z" fill="white" stroke="#5A7EC1" stroke-width="1.93987" stroke-linejoin="round"/>
<path d="M61.5521 50.1503C65.1565 48.4584 66.7749 45.0746 66.7749 39.7906V37.9516C66.7749 31.5641 64.4332 27.8003 59.1614 26.5743V17.9923H55.0298V26.1207H51.7809V18.0046H47.6493V26.1207H42.5981V77.6127H47.6493V84.9074H51.7809V77.6127H55.0298V84.9074H59.1614V77.2204C64.7152 75.9944 67.584 71.9731 67.584 65.4263V61.2334C67.584 55.7286 65.8921 51.8422 61.5521 50.1503ZM50.6775 33.4645H54.6007C57.4695 33.4645 58.7078 35.0828 58.7078 38.7608V41.6296C58.7078 45.7367 56.881 47.0608 53.8038 47.0608H50.6775V33.4645ZM59.5047 65.1443C59.5047 68.9572 58.0457 70.2076 55.324 70.2076H50.6775V54.4413H54.2819C57.9599 54.4413 59.4924 55.9125 59.4924 60.6939L59.5047 65.1443Z" fill="#5A7EC1"/>
</svg>
