<svg width="19" height="18" viewBox="0 0 19 18" fill="none" xmlns="http://www.w3.org/2000/svg">
<path d="M15.6312 11.1112V14.9512C15.6309 15.4945 15.415 16.0155 15.0308 16.3997C14.6466 16.7839 14.1256 16.9999 13.5823 17.0001H3.54892C3.27886 17 3.0115 16.9465 2.76217 16.8427C2.51285 16.739 2.28649 16.587 2.0961 16.3955C1.90571 16.2039 1.75503 15.9767 1.65274 15.7268C1.55045 15.4768 1.49855 15.2091 1.50004 14.9391V4.91697C1.49843 4.64734 1.55035 4.38008 1.65279 4.13067C1.75523 3.88126 1.90615 3.65466 2.09681 3.464C2.28747 3.27334 2.51407 3.12242 2.76348 3.01998C3.01289 2.91754 3.28016 2.86562 3.54978 2.86722H7.38895" stroke="white" stroke-width="1.125" stroke-linecap="round" stroke-linejoin="round"/>
<path d="M15.6312 6.401L12.0982 2.86713M5.03223 12.289V10.4166C5.03396 10.1078 5.15677 9.81119 5.37385 9.59238L13.6178 1.34842C13.7273 1.23802 13.8576 1.15039 14.0011 1.09059C14.1447 1.03079 14.2986 1 14.4541 1C14.6096 1 14.7636 1.03079 14.9071 1.09059C15.0507 1.15039 15.181 1.23802 15.2905 1.34842L17.1508 3.20876C17.2614 3.31815 17.3492 3.44839 17.4092 3.59195C17.4691 3.7355 17.5 3.88952 17.5 4.04509C17.5 4.20065 17.4691 4.35468 17.4092 4.49823C17.3492 4.64179 17.2614 4.77203 17.1508 4.88142L8.90685 13.1254C8.68758 13.343 8.39155 13.4657 8.08263 13.467H6.21018C5.89777 13.467 5.59815 13.3429 5.37724 13.122C5.15633 12.9011 5.03223 12.6015 5.03223 12.289Z" stroke="white" stroke-width="1.125" stroke-linecap="round" stroke-linejoin="round"/>
</svg>
