<svg width="42" height="43" viewBox="0 0 42 43" fill="none" xmlns="http://www.w3.org/2000/svg">
<circle cx="20.5508" cy="19.73" r="13.6626" fill="#FFE1BC"/>
<path d="M37.6291 0.224854H3.47254C2.56665 0.224854 1.69787 0.584716 1.05731 1.22528C0.416747 1.86583 0.0568848 2.73462 0.0568848 3.64051V16.1717C0.0568848 35.2567 16.2385 41.597 19.4834 42.6644C20.1718 42.9213 20.9298 42.9213 21.6182 42.6644C24.8631 41.597 41.0447 35.2567 41.0447 16.1717V3.64051C41.0447 2.73462 40.6849 1.86583 40.0443 1.22528C39.4038 0.584716 38.535 0.224854 37.6291 0.224854ZM29.1967 19.6941L23.3047 21.6154L26.9552 26.6321C27.0869 26.8124 27.1816 27.0171 27.2336 27.2343C27.2857 27.4515 27.2941 27.6768 27.2583 27.8973C27.2226 28.1177 27.1434 28.3288 27.0254 28.5184C26.9074 28.708 26.7529 28.8723 26.5709 29.0017C26.2841 29.2247 25.9308 29.345 25.5676 29.3433C25.2976 29.3408 25.0319 29.2759 24.7912 29.1537C24.5504 29.0315 24.3413 28.8553 24.1799 28.6388L20.5508 23.6221L16.9217 28.6388C16.7604 28.8553 16.5512 29.0315 16.3105 29.1537C16.0697 29.2759 15.804 29.3408 15.5341 29.3433C15.1708 29.345 14.8175 29.2247 14.5307 29.0017C14.3487 28.8723 14.1942 28.708 14.0762 28.5184C13.9582 28.3288 13.879 28.1177 13.8433 27.8973C13.8075 27.6768 13.8159 27.4515 13.868 27.2343C13.92 27.0171 14.0147 26.8124 14.1465 26.6321L17.7969 21.6154L11.9049 19.6941C11.4756 19.5567 11.118 19.2553 10.9101 18.8554C10.7022 18.4555 10.6607 17.9896 10.7948 17.5593C10.9368 17.1284 11.2424 16.7706 11.6457 16.5629C12.049 16.3553 12.5178 16.3144 12.951 16.4492L18.843 18.3705V12.1796C18.843 11.7267 19.0229 11.2923 19.3432 10.972C19.6635 10.6517 20.0979 10.4718 20.5508 10.4718C21.0038 10.4718 21.4381 10.6517 21.7584 10.972C22.0787 11.2923 22.2586 11.7267 22.2586 12.1796V18.3705L28.1506 16.4492C28.5838 16.3144 29.0526 16.3553 29.4559 16.5629C29.8593 16.7706 30.1648 17.1284 30.3068 17.5593C30.4409 17.9896 30.3995 18.4555 30.1915 18.8554C29.9836 19.2553 29.626 19.5567 29.1967 19.6941Z" fill="#FEBA66"/>
</svg>
