<svg width="32" height="32" viewBox="0 0 32 32" fill="none" xmlns="http://www.w3.org/2000/svg">
<path d="M8 14.6667C8 10.896 8 9.00935 9.172 7.83869C10.3427 6.66669 12.2293 6.66669 16 6.66669H20C23.7707 6.66669 25.6573 6.66669 26.828 7.83869C28 9.00935 28 10.896 28 14.6667V21.3334C28 25.104 28 26.9907 26.828 28.1614C25.6573 29.3334 23.7707 29.3334 20 29.3334H16C12.2293 29.3334 10.3427 29.3334 9.172 28.1614C8 26.9907 8 25.104 8 21.3334V14.6667Z" stroke="#181D47" stroke-width="0.770548"/>
<path d="M8 25.3334C6.93913 25.3334 5.92172 24.9119 5.17157 24.1618C4.42143 23.4116 4 22.3942 4 21.3334V13.3334C4 8.30535 4 5.79069 5.56267 4.22935C7.124 2.66669 9.63867 2.66669 14.6667 2.66669H20C21.0609 2.66669 22.0783 3.08811 22.8284 3.83826C23.5786 4.58841 24 5.60582 24 6.66669" stroke="#181D47" stroke-width="0.770548"/>
</svg>
