<svg width="247" height="219" viewBox="0 0 247 219" fill="none" xmlns="http://www.w3.org/2000/svg">
<rect x="0.544678" y="0.315918" width="245.911" height="217.95" rx="14.3388" fill="url(#paint0_linear_34_1182)"/>
<path d="M51.0986 123.139H61.8818V118.582H51.0986V123.139Z" fill="#EBEBEB"/>
<path d="M57.1174 112.837L62.4601 112.723L65.1722 112.678C66.0803 112.658 66.9925 112.678 67.9006 112.658H68.0798V112.841L68.1042 117.398V117.601H67.9087L62.5171 117.577C60.7213 117.577 58.9213 117.528 57.1255 117.508H57.0115V117.398C57.0115 116.624 57.0441 115.854 57.0644 115.097L57.1174 112.837ZM57.1174 112.837L57.1744 115.138C57.1744 115.899 57.2192 116.648 57.2273 117.394L57.1174 117.284C58.9132 117.263 60.7131 117.219 62.509 117.215L67.9087 117.19L67.7051 117.394V112.837L67.9087 113.036C67.021 113.036 66.1333 113.036 65.2414 113.012L62.5619 112.967L57.1174 112.837Z" fill="#EBEBEB"/>
<path d="M45.1043 112.837L50.447 112.723L53.1591 112.678C54.0672 112.658 54.9753 112.678 55.8875 112.658H56.0667V112.841L56.0911 117.398V117.601H55.8875L50.4959 117.577C48.696 117.577 46.9001 117.528 45.1043 117.508H44.9902V117.398C44.9902 116.624 45.0269 115.854 45.0432 115.097L45.1043 112.837ZM45.1043 112.837L45.1613 115.138C45.1613 115.899 45.2061 116.648 45.2142 117.394L45.1043 117.284C46.9001 117.263 48.696 117.219 50.4959 117.215L55.8875 117.19L55.6839 117.394V112.837L55.8671 113.02C54.9753 113.02 54.0917 113.02 53.1998 112.996L50.5203 112.951L45.1043 112.837Z" fill="#EBEBEB"/>
<path d="M120.876 57.063H131.659V52.5062H120.876V57.063Z" fill="#EBEBEB"/>
<path d="M206.185 114.539L211.532 114.425L214.244 114.38C215.152 114.36 216.06 114.38 216.968 114.356H217.152V114.539L217.172 119.096V119.3H216.952L211.56 119.275C209.765 119.275 207.969 119.226 206.169 119.206H206.059V119.096C206.059 118.322 206.095 117.553 206.112 116.795L206.185 114.539ZM206.185 114.539L206.246 116.84C206.246 117.602 206.291 118.351 206.299 119.096L206.185 118.986C207.985 118.966 209.781 118.921 211.577 118.917L216.968 118.892L216.769 119.096L216.789 114.539L216.968 114.722C216.081 114.722 215.197 114.722 214.305 114.698L211.626 114.653L206.185 114.539Z" fill="#EBEBEB"/>
<path d="M135.679 156.955H146.462V152.398H135.679V156.955Z" fill="#EBEBEB"/>
<path d="M126.886 46.7609L132.249 46.6591L134.962 46.6143C135.87 46.6143 136.778 46.6143 137.69 46.6143H137.869V46.7975L137.889 51.3543V51.5579H137.686L132.294 51.5335C130.494 51.5335 128.698 51.4887 126.903 51.4643H126.789V51.3543C126.789 50.5806 126.825 49.811 126.842 49.0535L126.886 46.7609ZM126.886 46.7609L126.947 49.0657C126.947 49.8232 126.992 50.5725 127 51.3177L126.89 51.2077C128.686 51.2077 130.482 51.1426 132.282 51.1426L137.674 51.1141L137.47 51.3177L137.49 46.7609L137.674 46.9441C136.782 46.9441 135.898 46.9441 135.006 46.9197L132.327 46.8749L126.886 46.7609Z" fill="#EBEBEB"/>
<path d="M73.0068 152.537H59.3404L51.5217 113.545L64.0316 107.795L73.0068 152.537Z" fill="#DBDBDB"/>
<path d="M112.125 152.537H73.0072L64.032 107.795H103.15L112.125 152.537Z" fill="#EBEBEB"/>
<path d="M65.9903 131.618H45.0469V174.592H65.9903V131.618Z" fill="#DBDBDB"/>
<path d="M122.175 174.592H116.454L107.927 131.618H122.175V174.592Z" fill="#DBDBDB"/>
<path d="M77.4988 131.618H65.9907V174.592H77.4988V131.618Z" fill="#EBEBEB"/>
<path d="M133.684 131.618H122.176V174.592H133.684V131.618Z" fill="#EBEBEB"/>
<path d="M122.175 152.537H77.499V174.588H122.175V152.537Z" fill="#EBEBEB"/>
<path d="M122.175 143.004H77.499V152.627H122.175V143.004Z" fill="#EBEBEB"/>
<path d="M68.8123 131.618L73.1573 131.54L77.4983 131.483H77.6286V131.618L77.6816 136.655V141.684C77.6816 145.036 77.706 148.387 77.6816 151.743C77.6571 155.098 77.6816 158.446 77.6245 161.801C77.5675 165.157 77.5512 168.504 77.4779 171.859C77.4074 168.504 77.3599 165.151 77.3354 161.801C77.2906 158.446 77.2866 155.094 77.2743 151.743C77.2621 148.391 77.2743 145.036 77.2743 141.684V136.655L77.3232 131.626L77.4535 131.756L73.1125 131.703L68.8123 131.618Z" fill="#DBDBDB"/>
<path d="M122.175 131.618C122.264 134.982 122.305 138.345 122.342 141.713L122.391 151.808L122.342 161.903L122.281 166.953L122.175 171.998L122.069 166.953L122.008 161.903L121.959 151.808L122.008 141.713C122.045 138.345 122.069 134.982 122.175 131.618Z" fill="#DBDBDB"/>
<path d="M122.175 152.537C118.453 152.626 114.731 152.667 111.005 152.704L99.8392 152.752L88.6773 152.704L83.0943 152.643L77.499 152.537L83.0861 152.431L88.6691 152.37L99.8392 152.321L111.005 152.37C114.74 152.406 118.453 152.447 122.175 152.537Z" fill="#DBDBDB"/>
<path d="M122.175 143.004C118.453 143.094 114.731 143.134 111.005 143.171L99.8387 143.22L88.6767 143.171L83.0937 143.11L77.5066 143.004L83.0937 142.898L88.6767 142.837L99.8468 142.788L111.013 142.837C114.739 142.874 118.453 142.914 122.175 143.004Z" fill="#DBDBDB"/>
<path d="M53.008 174.588L52.723 178.07L52.0633 186.116H49.0295L48.3698 178.07L48.0847 174.588H53.008Z" fill="#C7C7C7"/>
<path d="M48.0847 174.588H53.008L52.723 178.07H48.3698L48.0847 174.588Z" fill="#A6A6A6"/>
<path d="M74.2085 174.588L73.9234 178.07L73.2637 186.116H70.2299L69.5702 178.07L69.2852 174.588H74.2085Z" fill="#C7C7C7"/>
<path d="M69.2852 174.588H74.2085L73.9234 178.07H69.5702L69.2852 174.588Z" fill="#A6A6A6"/>
<path d="M109.368 174.588L109.087 178.07L108.427 186.116H105.393L104.734 178.07L104.449 174.588H109.368Z" fill="#C7C7C7"/>
<path d="M104.449 174.588H109.368L109.087 178.07H104.734L104.449 174.588Z" fill="#A6A6A6"/>
<path d="M130.576 174.588L130.291 178.07L129.632 186.116H126.598L125.938 178.07L125.653 174.588H130.576Z" fill="#C7C7C7"/>
<path d="M130.576 174.588L130.291 178.07H125.938L125.653 174.588H130.576Z" fill="#A6A6A6"/>
<path d="M123.259 49.0859H53.3589V52.0872H123.259V49.0859Z" fill="#EBEBEB"/>
<path d="M63.5229 63.9009H60.7986L59.7073 52.0874H63.5229V63.9009Z" fill="#EBEBEB"/>
<path d="M113.094 63.9009H115.818L116.91 52.0874H113.094V63.9009Z" fill="#EBEBEB"/>
<path d="M59.7073 52.0874H63.5189V56.1556H60.0819L59.7073 52.0874Z" fill="#DBDBDB"/>
<path d="M116.91 52.0874L116.535 56.1556H113.094V52.0874H116.91Z" fill="#DBDBDB"/>
<path d="M201.926 136.896H162.104V186.116H201.926V136.896Z" fill="#EBEBEB"/>
<path d="M203.852 134.851H160.173V136.895H203.852V134.851Z" fill="#DBDBDB"/>
<path d="M217.591 134.851H203.855V136.895H217.591V134.851Z" fill="#EBEBEB"/>
<path d="M215.417 136.896H201.925V186.116H215.417V136.896Z" fill="#DBDBDB"/>
<path d="M197.638 159.749H166.391V142.083H197.638V159.749ZM166.493 159.647H197.536V142.185H166.493V159.647Z" fill="#C7C7C7"/>
<path d="M183.739 147.247H177.655V150.745H183.739V147.247Z" fill="#C7C7C7"/>
<path d="M185.596 150.529H179.402V147.459H185.596V150.529ZM179.487 150.428H185.469V147.577H179.487V150.428Z" fill="#C7C7C7"/>
<path d="M197.638 181.934H166.391V164.269H197.638V181.934ZM166.493 181.833H197.536V164.371H166.493V181.833Z" fill="#C7C7C7"/>
<path d="M183.739 169.433H177.655V172.931H183.739V169.433Z" fill="#C7C7C7"/>
<path d="M185.596 172.715H179.402V169.641H185.596V172.715ZM179.487 172.613H185.469V169.763H179.487V172.613Z" fill="#C7C7C7"/>
<path d="M217.791 186.116L195.98 186.214L174.165 186.251L130.535 186.32L86.9053 186.251L65.0944 186.214L43.2795 186.116L65.0944 186.014L86.9053 185.982L130.535 185.913L174.165 185.982L195.98 186.014L217.791 186.116Z" fill="#263238"/>
<path d="M207.541 186.116H209.874L193.532 99.7607H187.721L207.541 186.116Z" fill="#455A64"/>
<path d="M187.721 99.7607L190.653 112.531H195.947L193.537 99.773L193.532 99.7607H187.721Z" fill="#37474F"/>
<path d="M183.702 186.116H186.035L185.514 99.7607H179.707L183.702 186.116Z" fill="#455A64"/>
<path d="M179.707 99.7607L180.297 112.531H185.591L185.514 99.773V99.7607H179.707Z" fill="#37474F"/>
<path d="M162.197 186.116H159.867L172.732 99.7607H178.543L162.197 186.116Z" fill="#455A64"/>
<path d="M170.83 112.531H176.124L178.543 99.7607H172.732L172.727 99.773L170.83 112.531Z" fill="#37474F"/>
<path d="M166.982 150.806H200.891V149.12H166.982V150.806Z" fill="#455A64"/>
<path d="M217.605 67.7782C218.796 43.6846 205.889 23.4671 188.777 22.6212C171.664 21.7753 156.827 40.6213 155.636 64.7149C154.445 88.8086 167.351 109.026 184.464 109.872C201.576 110.718 216.413 91.8719 217.605 67.7782Z" fill="#099AF6"/>
<path d="M182.008 22.189L189.289 22.641L183.743 109.831L176.458 109.379L182.008 22.189Z" fill="#099AF6"/>
<g opacity="0.1">
<path opacity="0.1" d="M182.008 22.189L189.289 22.641L183.743 109.831L176.458 109.379L182.008 22.189Z" fill="black"/>
</g>
<path d="M210.901 67.3622C212.092 43.2686 199.186 23.0511 182.074 22.2052C164.961 21.3593 150.124 40.2053 148.933 64.2989C147.742 88.3926 160.648 108.61 177.76 109.456C194.873 110.302 209.71 91.4559 210.901 67.3622Z" fill="#099AF6"/>
<path d="M204.089 67.0255C205.018 48.2309 194.949 32.4598 181.599 31.7999C168.25 31.14 156.674 45.8411 155.745 64.6358C154.816 83.4304 164.885 99.2015 178.235 99.8614C191.584 100.521 203.16 85.8202 204.089 67.0255Z" fill="white"/>
<path d="M197.341 66.6917C198.011 53.1399 190.753 41.7683 181.13 41.2926C171.507 40.8169 163.163 51.4173 162.493 64.9691C161.823 78.5209 169.081 89.8925 178.704 90.3682C188.327 90.8439 196.671 80.2436 197.341 66.6917Z" fill="#099AF6"/>
<path d="M190.525 66.3553C190.932 58.1047 186.514 51.1815 180.656 50.8919C174.797 50.6023 169.718 57.056 169.31 65.3066C168.902 73.5572 173.32 80.4804 179.179 80.77C185.037 81.0596 190.117 74.6059 190.525 66.3553Z" fill="white"/>
<path d="M184.626 64.9842C184.879 68.6492 182.973 71.9681 180.367 72.4445C177.761 72.921 175.452 70.3596 175.203 66.7149C174.955 63.0703 176.857 59.7311 179.459 59.2505C182.061 58.77 184.374 61.3192 184.626 64.9842Z" fill="#099AF6"/>
<path opacity="0.4" d="M210.901 67.3622C212.092 43.2686 199.186 23.0511 182.074 22.2052C164.961 21.3593 150.124 40.2053 148.933 64.2989C147.742 88.3926 160.648 108.61 177.76 109.456C194.873 110.302 209.71 91.4559 210.901 67.3622Z" fill="white"/>
<path d="M150.673 161.903C150.813 158.345 150.764 154.782 150.526 151.23C150.001 143.903 148.883 136.63 147.183 129.484C146.25 125.461 145.102 121.502 143.905 117.552C143.868 117.43 143.681 117.467 143.713 117.589C147.411 131.52 150.449 145.899 150.229 160.38C150.172 164.452 149.704 168.414 149.317 172.442C149.317 172.552 149.484 172.593 149.508 172.483C150.282 169.054 150.53 165.442 150.673 161.903Z" fill="#099AF6"/>
<path d="M143.713 117.605C143.713 117.605 138.105 131.834 139.36 135.177C140.614 138.52 143.204 139.249 143.204 139.249C143.204 139.249 139.775 144.136 142.169 148.738C144.564 153.339 149.907 153.115 150.245 158.32C150.245 158.303 150.542 136.533 143.713 117.605Z" fill="#099AF6"/>
<path d="M149.638 149.316C149.646 149.291 149.646 149.264 149.638 149.238C148.901 139.525 147.077 129.926 144.202 120.619C144.202 120.594 144.149 120.619 144.157 120.619C145.265 124.781 146.246 128.964 147.101 133.169C146.348 132.456 145.428 131.944 144.426 131.679C144.405 131.679 144.397 131.699 144.426 131.707C145.48 132.094 146.426 132.726 147.187 133.552C147.354 134.367 147.512 135.181 147.663 136.028C146.413 134.627 144.674 133.935 142.935 133.275C142.911 133.275 142.899 133.304 142.935 133.312C144.747 134.049 146.547 134.998 147.777 136.57C148.203 138.932 148.578 141.3 148.901 143.676C147.995 142.728 146.834 142.063 145.558 141.762C145.521 141.762 145.497 141.811 145.537 141.823C146.854 142.202 148.031 142.956 148.925 143.993H148.95C149.06 144.828 149.166 145.667 149.263 146.502C148.563 145.91 147.772 145.433 146.922 145.089C146.902 145.089 146.889 145.117 146.922 145.125C147.789 145.502 148.584 146.028 149.268 146.681C149.278 146.685 149.29 146.685 149.3 146.681C149.39 147.495 149.483 148.277 149.565 149.075C148.302 147.55 146.665 146.379 144.813 145.679C144.805 145.677 144.797 145.677 144.789 145.68C144.782 145.684 144.777 145.69 144.774 145.698C144.771 145.705 144.772 145.713 144.775 145.721C144.778 145.728 144.785 145.734 144.792 145.736C146.621 146.544 148.228 147.782 149.475 149.344C149.489 149.361 149.508 149.374 149.529 149.381C149.55 149.387 149.572 149.387 149.593 149.381C149.715 150.603 149.825 151.824 149.915 153.046C149.915 153.046 149.944 153.066 149.944 153.046C149.825 151.828 149.76 150.57 149.638 149.316Z" fill="#263238"/>
<path d="M145.134 130.278C144.119 129.647 142.96 129.286 141.766 129.228C141.761 129.228 141.756 129.23 141.752 129.234C141.748 129.237 141.746 129.242 141.746 129.248C141.746 129.253 141.748 129.258 141.752 129.262C141.756 129.266 141.761 129.268 141.766 129.268C142.919 129.485 144.039 129.85 145.098 130.356C145.138 130.376 145.175 130.307 145.134 130.278Z" fill="#263238"/>
<path d="M145.815 145.341C145.035 144.894 144.176 144.6 143.286 144.474C143.253 144.474 143.253 144.519 143.286 144.523C144.156 144.697 144.998 144.991 145.786 145.399C145.819 145.415 145.847 145.358 145.815 145.341Z" fill="#263238"/>
<path d="M165.406 135.41C163.037 137.049 160.861 138.95 158.919 141.078C156.918 143.332 155.374 145.953 154.37 148.795C152.241 154.721 151.096 160.955 150.982 167.25C150.908 170.736 151.243 174.218 151.98 177.626C151.985 177.652 151.999 177.675 152.021 177.69C152.043 177.705 152.07 177.711 152.096 177.706C152.122 177.701 152.145 177.686 152.159 177.664C152.174 177.642 152.18 177.616 152.175 177.59C151.258 171.576 151.292 165.455 152.277 159.452C153.238 153.564 154.753 147.162 158.491 142.377C160.527 139.775 163.068 137.727 165.581 135.609C165.711 135.495 165.544 135.312 165.406 135.41Z" fill="#099AF6"/>
<path d="M151.797 163.011C153.147 160.828 154.734 158.802 156.529 156.968C159.33 154.162 161.692 152.171 162.059 150.318C162.425 148.465 159.249 147.097 159.249 147.097C159.249 147.097 163.13 147.793 164.188 146.164C165.247 144.535 165.764 135.104 165.764 135.104C165.764 135.104 158.719 140.145 155.425 147.211C152.131 154.276 151.797 163.011 151.797 163.011Z" fill="#099AF6"/>
<path d="M163.251 143.953C162.786 143.886 162.315 143.869 161.847 143.904C161.835 143.907 161.826 143.914 161.819 143.923C161.812 143.932 161.808 143.943 161.808 143.955C161.808 143.966 161.812 143.978 161.819 143.987C161.826 143.996 161.835 144.003 161.847 144.006C162.311 144.006 162.779 143.981 163.243 144.006C163.249 144.005 163.254 144.002 163.258 143.997C163.262 143.993 163.265 143.988 163.266 143.982C163.267 143.976 163.266 143.97 163.263 143.965C163.261 143.96 163.257 143.956 163.251 143.953Z" fill="#263238"/>
<path d="M158.169 153.103C157.425 153.121 156.689 153.268 155.995 153.539C155.995 153.539 155.995 153.575 155.995 153.571C156.716 153.4 157.441 153.331 158.169 153.209C158.183 153.209 158.197 153.203 158.207 153.193C158.217 153.183 158.222 153.17 158.222 153.156C158.222 153.142 158.217 153.128 158.207 153.119C158.197 153.109 158.183 153.103 158.169 153.103Z" fill="#263238"/>
<path d="M156.646 149.943C156.336 149.94 156.027 149.967 155.722 150.025C155.694 150.025 155.694 150.082 155.722 150.082C156.031 150.097 156.341 150.082 156.646 150.037C156.703 150.029 156.703 149.943 156.646 149.943Z" fill="#263238"/>
<path d="M131.114 145.419C133.41 146.197 135.611 147.234 137.674 148.509C139.815 149.87 141.671 151.633 143.139 153.702C146.238 158.003 148.613 162.783 150.167 167.852C151.03 170.658 151.565 173.553 151.76 176.482C151.755 176.501 151.745 176.518 151.73 176.53C151.715 176.542 151.696 176.549 151.676 176.549C151.657 176.549 151.638 176.542 151.623 176.53C151.608 176.518 151.597 176.501 151.593 176.482C150.942 171.402 149.499 166.455 147.317 161.822C145.175 157.281 142.475 152.455 138.358 149.442C136.106 147.813 133.577 146.734 131.056 145.602C130.885 145.557 130.979 145.374 131.114 145.419Z" fill="#099AF6"/>
<path d="M148.502 164.611C146.905 163.158 145.153 161.885 143.277 160.816C140.358 159.187 137.983 158.128 137.263 156.711C136.542 155.294 138.794 153.453 138.794 153.453C138.794 153.453 135.813 154.911 134.579 153.84C133.345 152.769 130.747 145.252 130.747 145.252C130.747 145.252 137.625 147.695 141.921 152.659C146.217 157.623 148.502 164.611 148.502 164.611Z" fill="#099AF6"/>
<path d="M136.79 149.837C136.483 149.816 136.173 149.834 135.87 149.89C135.863 149.89 135.855 149.893 135.85 149.899C135.845 149.904 135.842 149.911 135.842 149.919C135.842 149.926 135.845 149.934 135.85 149.939C135.855 149.944 135.863 149.947 135.87 149.947C136.171 149.915 136.469 149.927 136.774 149.919C136.785 149.921 136.796 149.919 136.805 149.913C136.814 149.906 136.821 149.897 136.823 149.886C136.825 149.875 136.823 149.864 136.817 149.855C136.811 149.846 136.801 149.839 136.79 149.837Z" fill="#263238"/>
<path d="M157.371 185.962H141.848L144.059 169.746L144.625 165.592H154.59L155.156 169.746L157.371 185.962Z" fill="#455A64"/>
<path d="M155.156 169.746H144.06L144.626 165.592H154.59L155.156 169.746Z" fill="#263238"/>
<path d="M156.015 164.147H143.2V167.669H156.015V164.147Z" fill="#455A64"/>
<path d="M156.255 57.2352L48.2505 63.5762L49.3935 83.0445L157.398 76.7035L156.255 57.2352Z" fill="#099AF6"/>
<path d="M155.941 51.9121L157.709 82.0221L179.589 65.6314L155.941 51.9121Z" fill="#099AF6"/>
<g opacity="0.5">
<path opacity="0.5" d="M179.589 65.6309L157.709 82.0176L157.396 76.7033L49.3921 83.0438L48.2478 63.5745L156.251 57.234L155.938 51.9116L179.589 65.6309Z" fill="white"/>
<path opacity="0.5" d="M48.4348 84.123L47.1724 62.6217L155.172 56.2813L154.813 50.0874L181.434 65.5252L156.801 83.9724L156.438 77.7826L48.4348 84.123ZM49.3225 64.5356L50.3487 81.9729L158.352 75.6243L158.613 80.0671L177.752 65.737L157.065 53.7443L157.326 58.1911L49.3225 64.5356Z" fill="#099AF6"/>
</g>
<path d="M103.267 165.348C103.267 165.348 102.86 181.478 102.86 181.49C102.86 184.471 102.933 187.085 103.092 188.413V188.437C103.097 188.757 103.174 189.071 103.316 189.357C104.208 189.956 128.038 190.579 128.877 190.319C129.716 190.058 129.044 187.647 128.14 186.886C127.236 186.124 118.224 181.856 118.224 181.856L118.485 165.735L103.267 165.348Z" fill="#EB9481"/>
<path d="M102.832 178.29C102.832 178.29 102.86 181.478 102.856 181.49C102.856 184.471 102.93 187.086 103.088 188.413V188.438C103.129 188.752 103.204 189.06 103.312 189.358C104.204 189.956 128.035 190.58 128.874 190.319C129.713 190.058 129.041 187.648 128.137 186.886C127.233 186.125 118.225 181.857 118.225 181.857V178.599L102.832 178.29Z" fill="white"/>
<path d="M119.683 181.857C118.099 181.596 116.168 181.881 114.983 183.034C114.938 183.079 115.004 183.14 115.052 183.123C116.553 182.604 118.106 182.246 119.683 182.056C119.706 182.052 119.726 182.039 119.741 182.021C119.756 182.003 119.764 181.98 119.764 181.957C119.764 181.933 119.756 181.91 119.741 181.892C119.726 181.874 119.706 181.862 119.683 181.857Z" fill="#263238"/>
<path d="M120.847 182.517C119.259 182.256 117.333 182.541 116.148 183.689C116.103 183.734 116.168 183.799 116.217 183.783C117.718 183.263 119.27 182.906 120.847 182.716C120.87 182.712 120.891 182.699 120.906 182.681C120.921 182.663 120.929 182.64 120.929 182.616C120.929 182.593 120.921 182.57 120.906 182.552C120.891 182.534 120.87 182.521 120.847 182.517Z" fill="#263238"/>
<path d="M121.996 183.18C120.408 182.919 118.482 183.2 117.297 184.353C117.252 184.397 117.297 184.462 117.366 184.446C118.865 183.926 120.416 183.568 121.992 183.379C122.015 183.375 122.036 183.363 122.051 183.345C122.066 183.327 122.075 183.305 122.075 183.281C122.076 183.258 122.068 183.235 122.054 183.216C122.039 183.198 122.019 183.185 121.996 183.18Z" fill="#263238"/>
<path d="M128.89 190.356C128.051 190.612 104.22 189.993 103.328 189.395C102.986 189.175 102.872 185.697 102.86 181.49V181.356L118.237 181.584V181.845C118.237 181.845 127.252 186.161 128.165 186.927C129.077 187.692 129.728 190.099 128.89 190.356Z" fill="#37474F"/>
<path d="M102.856 181.356V181.49C102.877 185.697 102.987 189.175 103.329 189.395C103.736 189.667 108.9 189.944 114.479 190.144C121.161 190.38 128.434 190.498 128.89 190.356C129.729 190.099 129.053 187.684 128.153 186.923C127.253 186.161 118.225 181.857 118.225 181.857V181.6L113.11 181.511L102.856 181.356Z" fill="#099AF6"/>
<path d="M128.641 189.423C124.63 189.219 108.418 188.779 104.436 188.885C104.403 188.885 104.403 188.91 104.436 188.91C108.41 189.199 124.622 189.508 128.641 189.488C128.727 189.488 128.727 189.427 128.641 189.423Z" fill="#263238"/>
<path opacity="0.1" d="M113.11 181.511C113.485 184.084 114.059 187.88 114.478 190.144C121.161 190.38 128.434 190.498 128.89 190.356C129.729 190.099 129.053 187.684 128.153 186.923C127.253 186.161 118.225 181.857 118.225 181.857V181.6L113.11 181.511Z" fill="black"/>
<path d="M101.471 181.576L118.717 181.743C118.717 181.743 119.695 153.644 119.768 144.303C119.853 133.605 119.247 101.544 119.247 101.544H106.354C106.354 101.544 102.897 108.618 104.872 116.571L105.417 145.195L101.471 181.576Z" fill="#263238"/>
<path d="M102.75 178.558C103.205 178.497 103.663 178.46 104.123 178.448C104.632 178.412 105.141 178.375 105.65 178.355C106.631 178.31 107.612 178.294 108.594 178.29C110.577 178.29 112.556 178.29 114.535 178.359C115.663 178.395 116.787 178.44 117.911 178.505C117.956 178.505 117.952 178.575 117.911 178.575C115.948 178.648 113.981 178.676 112.019 178.717C110.056 178.758 108.093 178.79 106.134 178.754C105.568 178.754 105.006 178.754 104.444 178.705C103.882 178.656 103.308 178.705 102.758 178.623C102.726 178.619 102.71 178.566 102.75 178.558Z" fill="#37474F"/>
<path d="M117.475 163.059C117.675 158.417 117.825 153.77 117.952 149.128C118.204 139.835 118.271 130.541 118.151 121.246C118.086 116.033 117.948 110.821 117.793 105.608C117.793 105.547 117.878 105.551 117.882 105.608C118.375 114.938 118.567 124.288 118.575 133.629C118.583 142.971 118.404 152.223 117.931 161.495C117.675 166.704 117.357 171.92 116.868 177.112C116.868 177.157 116.795 177.157 116.795 177.112C117.007 172.433 117.272 167.75 117.475 163.059Z" fill="#37474F"/>
<path d="M121.715 167.91C121.715 167.91 121.845 183.502 121.845 183.514C121.845 186.495 121.914 189.11 122.073 190.458C122.07 190.464 122.07 190.471 122.073 190.478C122.073 190.798 122.15 191.114 122.297 191.398C122.295 191.405 122.295 191.412 122.297 191.419C123.185 192.017 147.015 192.64 147.854 192.376C148.693 192.111 148.025 189.708 147.117 188.947C146.209 188.185 137.189 183.869 137.189 183.869L136.912 168.284L121.715 167.91Z" fill="#EB9481"/>
<path d="M121.816 180.309C121.816 180.309 121.845 183.502 121.845 183.514C121.845 186.495 121.914 189.109 122.073 190.457C122.07 190.464 122.07 190.471 122.073 190.477C122.11 190.792 122.186 191.101 122.297 191.398C122.295 191.404 122.295 191.411 122.297 191.418C123.184 192.017 147.015 192.64 147.854 192.375C148.693 192.11 148.025 189.708 147.117 188.946C146.209 188.185 137.189 183.868 137.189 183.868L137.209 180.61L121.816 180.309Z" fill="white"/>
<path d="M138.671 183.893C137.083 183.632 135.157 183.913 133.972 185.065C133.927 185.11 133.972 185.175 134.041 185.159C135.54 184.639 137.091 184.281 138.667 184.092C138.69 184.088 138.711 184.076 138.726 184.058C138.741 184.04 138.75 184.018 138.751 183.994C138.751 183.971 138.743 183.948 138.729 183.929C138.714 183.911 138.694 183.898 138.671 183.893Z" fill="#263238"/>
<path d="M139.828 184.54C138.24 184.279 136.314 184.56 135.129 185.713C135.084 185.758 135.129 185.823 135.198 185.807C136.697 185.286 138.248 184.929 139.824 184.74C139.847 184.735 139.868 184.723 139.883 184.706C139.898 184.688 139.907 184.665 139.908 184.642C139.908 184.618 139.9 184.595 139.886 184.577C139.871 184.558 139.851 184.545 139.828 184.54Z" fill="#263238"/>
<path d="M140.984 185.204C139.396 184.944 137.466 185.204 136.285 186.377C136.236 186.422 136.285 186.487 136.354 186.471C137.853 185.95 139.404 185.593 140.98 185.404C141.003 185.4 141.024 185.387 141.039 185.37C141.055 185.352 141.063 185.329 141.064 185.306C141.064 185.282 141.056 185.259 141.042 185.241C141.027 185.222 141.007 185.209 140.984 185.204Z" fill="#263238"/>
<path d="M147.874 192.375C147.035 192.636 123.209 192.017 122.317 191.418C121.975 191.194 121.861 187.717 121.845 183.514C121.845 183.469 121.845 183.425 121.845 183.38L137.221 183.608V183.869C137.221 183.869 146.233 188.185 147.145 188.947C148.058 189.708 148.717 192.123 147.874 192.375Z" fill="#099AF6"/>
<path d="M147.63 191.447C143.615 191.243 127.408 190.803 123.421 190.909C123.392 190.909 123.388 190.909 123.421 190.934C127.395 191.223 143.611 191.528 147.63 191.512C147.724 191.512 147.724 191.451 147.63 191.447Z" fill="#263238"/>
<path d="M113.835 118.029C113.835 118.029 120.909 140.328 121.039 144.425C121.145 147.919 120.701 183.771 120.701 183.771L138.619 183.876C138.619 183.876 137.108 147.316 136.827 143.675C136.306 136.867 130.34 118.175 126.076 101.524H106.758C106.758 101.524 106.925 110.247 110.891 116.55C110.891 116.55 112.703 117.381 113.835 118.029Z" fill="#263238"/>
<path d="M26.3545 216.832H220.287" stroke="#263238" stroke-width="0.716941"/>
<path d="M121.662 180.468C123.73 180.407 125.876 180.346 127.945 180.399C130.014 180.452 132.058 180.481 134.106 180.603C135.267 180.672 136.427 180.713 137.588 180.827C137.625 180.827 137.625 180.888 137.588 180.888C135.519 181.01 133.443 180.985 131.374 180.965C129.305 180.945 127.265 180.924 125.213 180.831C124.048 180.778 122.891 180.721 121.731 180.639C121.592 180.635 121.527 180.472 121.662 180.468Z" fill="#37474F"/>
<path d="M123.946 105.266C124.586 107.396 132.498 136.622 133.312 140.866C134.127 145.109 135.23 172.971 135.153 177.438C135.153 177.992 135.133 178.546 135.112 179.1C135.112 179.11 135.108 179.121 135.1 179.128C135.093 179.136 135.082 179.14 135.072 179.14C135.061 179.14 135.05 179.136 135.043 179.128C135.035 179.121 135.031 179.11 135.031 179.1C134.909 174.661 133.724 145.422 132.962 141.069C132.249 136.793 124.366 107.742 123.816 105.299C123.816 105.283 123.821 105.268 123.831 105.256C123.84 105.244 123.853 105.235 123.868 105.232C123.883 105.228 123.899 105.229 123.913 105.235C123.927 105.242 123.939 105.253 123.946 105.266Z" fill="#37474F"/>
<path d="M118.265 118.46C117.374 118.454 116.484 118.373 115.606 118.22C114.735 118.03 113.875 117.795 113.028 117.515C112.195 117.327 111.35 117.191 110.499 117.108C109.643 116.983 108.809 116.735 108.024 116.371C107.987 116.371 107.958 116.408 107.995 116.424C108.756 116.835 109.55 117.179 110.369 117.454C111.216 117.723 112.104 117.76 112.967 117.971C113.837 118.23 114.723 118.434 115.618 118.582C116.501 118.69 117.395 118.674 118.273 118.533C118.31 118.513 118.298 118.46 118.265 118.46Z" fill="#37474F"/>
<path d="M119.393 136.199C119.222 135.535 119.063 134.876 118.884 134.216C118.522 132.884 118.155 131.553 117.752 130.233C116.938 127.611 116.196 124.972 115.353 122.366C114.873 120.883 114.441 119.389 113.879 117.935C113.877 117.928 113.871 117.921 113.864 117.918C113.857 117.915 113.848 117.914 113.841 117.917C113.833 117.92 113.827 117.925 113.823 117.932C113.82 117.94 113.82 117.948 113.822 117.955C114.107 119.307 114.506 120.631 114.865 121.963C115.223 123.294 115.606 124.622 115.993 125.949C116.754 128.58 117.504 131.219 118.338 133.833C118.569 134.566 118.811 135.296 119.063 136.024C119.32 136.765 119.523 137.531 119.833 138.251C119.853 138.292 119.906 138.276 119.898 138.251C119.78 137.547 119.568 136.875 119.393 136.199Z" fill="#37474F"/>
<path d="M121.511 79.9249C120.216 80.096 117.985 77.7544 117.288 76.0971C117.414 75.223 117.584 74.3559 117.797 73.499C117.964 72.6845 118.127 71.7357 118.205 70.8765L123.462 72.7415C123.044 73.7885 122.756 74.8825 122.603 75.9993C122.594 76.1173 122.594 76.2356 122.603 76.3536C122.603 76.3536 122.603 76.3903 122.603 76.4147C122.66 77.0866 122.765 79.7621 121.511 79.9249Z" fill="#EB9481"/>
<path d="M117.341 75.6695C120.102 76.5979 122.101 75.0423 123.014 74.0894C123.238 73.3157 123.474 72.7415 123.474 72.7415L118.217 70.8765C118.127 71.7357 117.964 72.6682 117.809 73.499C117.614 74.4112 117.427 75.2052 117.341 75.6695Z" fill="#263238"/>
<path d="M125.103 64.5399C125.759 66.4376 124.948 72.0247 123.625 73.3115C121.711 75.1806 118.473 75.4698 116.861 73.1445C115.301 70.8885 116.486 63.6277 117.972 62.4468C120.159 60.708 124.134 61.726 125.103 64.5399Z" fill="#EB9481"/>
<path d="M119.601 68.0952C119.601 68.0952 119.629 68.1156 119.625 68.1319C119.564 68.5065 119.56 68.9463 119.886 69.1173C119.886 69.1173 119.886 69.1418 119.886 69.1173C119.471 69.0278 119.483 68.4414 119.601 68.0952Z" fill="#263238"/>
<path d="M119.988 67.7451C120.603 67.7736 120.493 68.9994 119.927 68.9668C119.361 68.9342 119.475 67.7166 119.988 67.7451Z" fill="#263238"/>
<path d="M117.476 67.9038C117.476 67.9038 117.443 67.9038 117.443 67.9323C117.443 68.3151 117.333 68.7468 116.979 68.8404V68.8649C117.402 68.8404 117.516 68.2662 117.476 67.9038Z" fill="#263238"/>
<path d="M117.182 67.4758C116.576 67.3781 116.425 68.5957 116.983 68.6975C117.541 68.7993 117.679 67.5613 117.182 67.4758Z" fill="#263238"/>
<path d="M120.521 67.2278C120.358 67.1707 120.216 67.0893 120.061 67.0201C119.906 66.9508 119.735 66.8898 119.654 66.7147C119.63 66.6626 119.623 66.6041 119.636 66.5482C119.648 66.4922 119.679 66.442 119.723 66.4052C119.822 66.348 119.934 66.3179 120.049 66.3179C120.163 66.3179 120.276 66.348 120.375 66.4052C120.594 66.4889 120.774 66.6515 120.88 66.8613C120.901 66.9117 120.908 66.9675 120.898 67.0216C120.888 67.0756 120.862 67.1255 120.823 67.1648C120.785 67.2041 120.736 67.2311 120.682 67.2423C120.628 67.2535 120.572 67.2484 120.521 67.2278Z" fill="#263238"/>
<path d="M116.75 66.8208C116.921 66.8208 117.08 66.7678 117.247 66.7393C117.426 66.7318 117.599 66.6676 117.74 66.5561C117.774 66.5102 117.793 66.4545 117.793 66.3972C117.793 66.34 117.774 66.2843 117.74 66.2384C117.66 66.1561 117.56 66.0965 117.45 66.0657C117.34 66.0349 117.223 66.0341 117.113 66.0633C116.878 66.0872 116.66 66.1975 116.502 66.3728C116.468 66.4157 116.447 66.4678 116.442 66.5225C116.438 66.5772 116.449 66.632 116.476 66.68C116.503 66.728 116.543 66.767 116.592 66.7921C116.64 66.8171 116.696 66.8271 116.75 66.8208Z" fill="#263238"/>
<path d="M119.402 70.4042C119.293 70.5458 119.156 70.6631 119 70.7486C118.844 70.8342 118.671 70.8861 118.493 70.901C118.338 70.9236 118.18 70.9236 118.025 70.901L117.94 70.8807L117.854 70.8603C117.835 70.8543 117.819 70.8423 117.807 70.8262C117.795 70.8101 117.789 70.7907 117.789 70.7707C117.787 70.7586 117.787 70.7462 117.789 70.7341V70.6852C117.809 70.392 117.874 69.9522 117.874 69.9522C117.764 69.997 117.198 70.1925 117.219 70.0418C117.37 68.73 117.652 67.4368 118.062 66.1813C118.064 66.1742 118.069 66.1679 118.075 66.1635C118.081 66.1591 118.089 66.1567 118.096 66.1567C118.104 66.1567 118.111 66.1591 118.118 66.1635C118.124 66.1679 118.128 66.1742 118.131 66.1813C118.001 67.403 117.659 68.5758 117.508 69.7934C117.708 69.7186 117.918 69.6734 118.131 69.659C118.172 69.659 117.988 70.5101 117.988 70.6404C118.225 70.6851 118.469 70.6819 118.705 70.6308C118.94 70.5797 119.164 70.4819 119.361 70.3432C119.402 70.3472 119.426 70.3757 119.402 70.4042Z" fill="#263238"/>
<path d="M118.212 70.75C118.355 70.9719 118.551 71.154 118.783 71.2793C118.909 71.341 119.051 71.3624 119.19 71.3404C119.499 71.2875 119.532 71.0106 119.495 70.7703C119.475 70.6408 119.441 70.5138 119.393 70.3916C119.047 70.6321 118.634 70.7575 118.212 70.75Z" fill="#263238"/>
<path d="M118.782 71.2798C118.909 71.3415 119.051 71.3628 119.19 71.3409C119.499 71.2879 119.532 71.011 119.495 70.7708C119.336 70.7635 119.18 70.8097 119.051 70.902C118.922 70.9943 118.827 71.1274 118.782 71.2798Z" fill="#FF98B9"/>
<path d="M123.645 68.2415C123.339 67.0809 124.121 65.2281 123.588 64.6824C122.439 63.4974 119.784 65.4358 118.062 65.3299C116.339 65.224 115.908 64.1082 116.303 62.7766C116.698 61.445 117.911 60.6142 119.805 60.4636C121.453 60.3874 123.075 60.8918 124.39 61.8889C124.39 61.8889 124.015 61.1844 124.19 60.9848C124.366 60.7853 125.135 61.4938 125.363 61.7993C125.529 62.0472 125.649 62.3231 125.718 62.6137C125.97 62.5687 126.228 62.5604 126.483 62.5893C126.853 62.6419 127.193 62.8219 127.444 63.0983C127.469 63.2042 126.854 63.2368 126.426 63.2286C126.426 63.2286 127.147 64.3403 127.069 65.2403C126.992 66.1403 125.29 70.3306 124.952 70.355C124.512 70.3713 123.771 68.6976 123.645 68.2415Z" fill="#263238"/>
<path d="M126.272 63.0986C126.272 63.0986 126.235 63.0986 126.247 63.0986C126.638 63.4603 126.921 63.9245 127.062 64.4384C127.193 65.0574 127.155 65.7002 126.952 66.2994C126.543 67.4381 126.015 68.5301 125.376 69.5572C125.374 69.5607 125.373 69.5645 125.372 69.5684C125.372 69.5723 125.372 69.5763 125.373 69.5801C125.374 69.5839 125.376 69.5874 125.379 69.5904C125.381 69.5935 125.384 69.596 125.388 69.5979C125.391 69.5998 125.395 69.6009 125.399 69.6013C125.403 69.6017 125.407 69.6014 125.411 69.6002C125.415 69.5991 125.418 69.5972 125.421 69.5947C125.424 69.5922 125.427 69.5892 125.429 69.5857C126.176 68.5118 126.75 67.3273 127.131 66.0754C127.4 65.0329 127.237 63.7624 126.272 63.0986Z" fill="#263238"/>
<path d="M123.697 64.2309C123.194 64.1372 122.678 64.1372 122.174 64.2309C121.707 64.3599 121.257 64.5459 120.835 64.7847C119.867 65.2883 118.778 65.5085 117.691 65.42V65.4404C118.68 65.5957 119.694 65.4539 120.603 65.0331C121.053 64.7977 121.518 64.591 121.995 64.4142C122.551 64.2975 123.121 64.27 123.685 64.3327C123.692 64.3335 123.699 64.333 123.705 64.3312C123.712 64.3294 123.718 64.3263 123.723 64.3221C123.728 64.318 123.733 64.3128 123.736 64.3069C123.739 64.3011 123.741 64.2946 123.742 64.2879C123.743 64.2812 123.743 64.2745 123.741 64.268C123.739 64.2615 123.736 64.2554 123.732 64.2501C123.727 64.2448 123.722 64.2404 123.716 64.2371C123.711 64.2338 123.704 64.2317 123.697 64.2309Z" fill="#263238"/>
<path d="M123.397 61.3187C122.744 60.9336 122.039 60.6456 121.304 60.4635C120.604 60.2633 119.875 60.1875 119.149 60.2396C117.899 60.3536 116.706 61.054 116.331 62.3164C116.127 62.956 116.169 63.6488 116.45 64.2589C116.455 64.2653 116.462 64.2699 116.469 64.272C116.477 64.274 116.486 64.2733 116.493 64.2701C116.501 64.2668 116.507 64.2611 116.511 64.2539C116.515 64.2467 116.516 64.2384 116.515 64.2304C116.289 63.671 116.251 63.0535 116.406 62.4706C116.561 61.8876 116.9 61.3706 117.374 60.997C118.449 60.1826 119.874 60.2151 121.129 60.5043C121.909 60.6965 122.668 60.9694 123.393 61.3187C123.393 61.3187 123.401 61.3187 123.397 61.3187Z" fill="#263238"/>
<path d="M124.015 69.1052C124.015 69.1052 125.237 67.289 126.051 67.7247C126.866 68.1605 125.974 70.7748 125.021 71.1495C124.903 71.2054 124.774 71.2367 124.643 71.2417C124.512 71.2467 124.381 71.2251 124.259 71.1783C124.136 71.1315 124.025 71.0605 123.93 70.9695C123.836 70.8785 123.761 70.7693 123.71 70.6486L124.015 69.1052Z" fill="#EB9481"/>
<path d="M103.373 105.954C103.426 106.024 128.214 108.267 128.466 108.031C128.812 107.701 127.334 82.8974 122.907 77.8316C121.82 76.5814 117.972 75.0828 116.705 75.8606C113.419 77.8967 111.391 82.4617 110.092 85.1209C109.127 87.0918 107.889 90.484 106.741 93.9698C104.847 99.7157 103.19 105.706 103.373 105.954Z" fill="#81AAE8"/>
<path d="M118.326 83.1542C118.393 83.577 118.519 83.9883 118.701 84.3759C118.876 84.7659 119.104 85.1303 119.377 85.4591C119.312 85.0358 119.186 84.6242 119.002 84.2374C118.827 83.8473 118.6 83.4828 118.326 83.1542ZM122.496 99.3983C122.564 99.8215 122.691 100.233 122.875 100.62C123.046 101.013 123.274 101.38 123.551 101.707C123.408 100.86 123.045 100.065 122.496 99.4024V99.3983ZM112.202 98.6205C112.269 99.0438 112.396 99.4552 112.58 99.8422C112.751 100.236 112.98 100.601 113.261 100.925C113.194 100.502 113.065 100.09 112.878 99.7037C112.705 99.3124 112.477 98.9477 112.202 98.6205ZM105.149 103.743C105.995 103.596 106.788 103.231 107.449 102.685C106.603 102.829 105.809 103.194 105.149 103.743ZM121.938 90.8914C122.361 90.8247 122.773 90.6985 123.16 90.5168C123.552 90.3436 123.917 90.1145 124.243 89.8367C123.82 89.9043 123.409 90.0318 123.022 90.2155C122.63 90.3866 122.265 90.6144 121.938 90.8914ZM115.284 78.3286C115.707 78.2619 116.119 78.1357 116.506 77.954C116.899 77.7806 117.265 77.5516 117.593 77.2739C116.748 77.4229 115.954 77.786 115.289 78.3286H115.284ZM122.366 80.1774C122.616 79.8312 122.816 79.4515 122.961 79.0494C123.063 78.7713 123.142 78.4853 123.197 78.1943L123.083 78.0395C122.909 78.3213 122.764 78.6201 122.651 78.9313C122.496 79.3305 122.4 79.7503 122.366 80.1774ZM112.483 90.358C112.733 90.0104 112.933 89.6293 113.077 89.2259C113.231 88.8276 113.327 88.4094 113.362 87.9839C113.113 88.3305 112.913 88.7102 112.768 89.1119C112.613 89.5142 112.518 89.9366 112.483 90.3661V90.358ZM110.939 106.647L111.172 106.667C111.205 106.508 111.227 106.346 111.237 106.183C111.123 106.338 111.024 106.503 110.939 106.675V106.647ZM126.259 107.604C126.509 107.258 126.709 106.878 126.854 106.476C127.009 106.077 127.105 105.657 127.139 105.23C126.645 105.932 126.342 106.75 126.259 107.604ZM106.472 94.7886C106.57 94.8347 106.668 94.8754 106.765 94.9107C107.165 95.0643 107.585 95.1603 108.011 95.1958C107.665 94.9452 107.283 94.7463 106.879 94.6053L106.57 94.4994L106.472 94.7886ZM116.921 104.635C117.623 105.131 118.441 105.434 119.296 105.515C118.949 105.266 118.57 105.067 118.168 104.924C117.768 104.768 117.349 104.671 116.921 104.635ZM116.107 94.8619C116.454 95.1129 116.835 95.3131 117.239 95.4564C117.631 95.6095 118.042 95.7055 118.461 95.7415C117.76 95.2461 116.941 94.9429 116.087 94.8619H116.107ZM124.98 84.0094C125.188 84.1688 125.412 84.3054 125.648 84.4166C125.624 84.3107 125.595 84.2089 125.571 84.103C125.373 84.0571 125.171 84.0285 124.968 84.0175L124.98 84.0094ZM111.64 82.0262C111.995 82.1566 112.366 82.2361 112.743 82.2624C112.452 82.0466 112.133 81.8713 111.795 81.7412L111.64 82.0262Z" fill="white"/>
<path d="M120.733 81.7333C127.09 83.2441 136.985 84.7386 140.243 82.6781C141.909 81.6234 145.777 72.3876 146.857 67.2036C147.138 65.8557 136.081 63.9662 135.731 65.3915C135.259 67.3136 134.151 73.3731 133.606 74.326C133.292 74.8716 126.276 75.6861 120.623 76.582C113.994 77.6408 115.574 80.5076 120.733 81.7333Z" fill="#EB9481"/>
<path d="M137.543 53.6998C137.811 53.7264 138.068 53.8188 138.291 53.9687C138.514 54.1187 138.696 54.3215 138.822 54.5591C139.151 54.1432 139.615 53.8551 140.133 53.7446C141.058 53.5858 141.709 54.9663 141.709 54.9663C142.141 54.6027 142.671 54.3771 143.232 54.3188C144.132 54.2577 144.992 55.5405 144.992 55.5405C145.276 55.4513 145.578 55.4295 145.873 55.4768C146.167 55.5242 146.447 55.6394 146.69 55.8133C148.404 57.2508 147.867 65.098 146.49 68.2295L136.02 66.6495C136.02 66.6495 134.616 60.7366 134.848 58.9123C135.035 57.4096 135.915 53.5451 137.543 53.6998Z" fill="#EB9481"/>
<path d="M138.765 54.5834C138.229 56.1814 137.892 57.8389 137.759 59.519C137.759 59.5556 137.812 59.5638 137.816 59.519C137.987 57.8901 138.606 56.2286 138.842 54.5957C138.863 54.559 138.793 54.5427 138.765 54.5834Z" fill="#263238"/>
<path d="M141.575 54.9948C141.472 55.3648 141.42 55.747 141.42 56.131C141.392 56.5382 141.375 56.9454 141.359 57.3526C141.335 58.1671 141.328 58.9815 141.339 59.796C141.339 59.8326 141.396 59.8408 141.4 59.796C141.424 58.9815 141.465 58.1671 141.53 57.3526C141.559 56.9454 141.595 56.5382 141.632 56.131C141.692 55.7527 141.71 55.3689 141.685 54.9867C141.681 54.9748 141.673 54.9646 141.662 54.9576C141.652 54.9507 141.639 54.9475 141.627 54.9484C141.614 54.9493 141.602 54.9544 141.593 54.9628C141.584 54.9712 141.577 54.9824 141.575 54.9948Z" fill="#263238"/>
<path d="M144.979 55.5849C144.893 55.9198 144.865 56.2667 144.894 56.6111C144.894 56.9817 144.894 57.3523 144.894 57.7229C144.873 58.464 144.857 59.2051 144.812 59.9422C144.812 59.9829 144.869 59.987 144.869 59.9422C144.918 59.1929 144.975 58.4396 145.016 57.6903C145.036 57.3197 145.057 56.9491 145.073 56.5826C145.119 56.2462 145.105 55.9044 145.032 55.5727C145.032 55.5727 144.987 55.5686 144.979 55.5849Z" fill="#263238"/>
<path d="M129.623 84.6895L129.216 74.7329C129.216 74.7329 122.268 75.1809 118.331 76.6265C114.393 78.0721 115.733 80.2182 119.552 81.7086C123.372 83.1991 129.623 84.6895 129.623 84.6895Z" fill="#099AF6"/>
<path d="M127.99 75.2499C127.591 75.0944 127.171 74.9984 126.744 74.9648C127.091 75.2159 127.472 75.4161 127.876 75.5594C128.274 75.7144 128.692 75.8105 129.118 75.8444C128.773 75.5919 128.393 75.3915 127.99 75.2499ZM122.651 78.9149C122.498 79.3147 122.402 79.7342 122.366 80.161C122.616 79.8134 122.817 79.4323 122.961 79.0289C123.113 78.6371 123.208 78.2258 123.246 77.8073C122.996 78.1539 122.796 78.5335 122.651 78.9353V78.9149ZM129.46 80.8288C129.111 80.902 128.772 81.0155 128.45 81.1668C128.057 81.3385 127.691 81.5662 127.363 81.8428C127.786 81.7761 128.197 81.6499 128.584 81.4682C128.897 81.3286 129.193 81.1551 129.468 80.951L129.46 80.8288ZM116.555 77.5711C116.374 77.7219 116.221 77.904 116.103 78.1086C116.237 78.0597 116.372 78.0068 116.51 77.9498C116.903 77.7764 117.27 77.5474 117.598 77.2697C117.238 77.3245 116.887 77.4272 116.555 77.5751V77.5711Z" fill="white"/>
<path d="M127.428 75.3192C127.381 78.1438 127.527 80.9683 127.864 83.7732H127.929C127.949 81.4601 127.64 76.8504 127.521 75.3192C127.526 75.2907 127.428 75.2907 127.428 75.3192Z" fill="#263238"/>
<path d="M129.57 83.4398C129.635 83.847 129.672 84.2542 129.725 84.6859V84.8162L129.582 84.7877C128.711 84.6044 127.839 84.4293 126.976 84.2176C126.113 84.0058 125.249 83.7859 124.394 83.5416C123.539 83.2972 122.684 83.0448 121.845 82.7516C121.006 82.4584 120.163 82.1652 119.344 81.8027L121.926 82.4787C122.786 82.7027 123.645 82.9267 124.5 83.1588L127.069 83.8592C127.925 84.0873 128.776 84.3519 129.631 84.5922L129.509 84.694C129.541 84.2746 129.541 83.8592 129.57 83.4398Z" fill="#263238"/>
<path d="M121.608 82.5757C121.291 82.6528 120.963 82.6735 120.639 82.6368C120.314 82.6074 119.999 82.5132 119.711 82.3599C119.874 82.3599 120.032 82.3802 120.191 82.3924L120.66 82.4332C120.978 82.4633 121.295 82.5109 121.608 82.5757Z" fill="#263238"/>
<path d="M61.0591 181.495C59.6582 180.737 57.7605 180.383 56.2823 181.087C56.2253 181.112 56.2823 181.193 56.3149 181.193C57.8849 181.188 59.4509 181.351 60.9858 181.682C61.0094 181.687 61.0342 181.684 61.0556 181.672C61.0771 181.661 61.0937 181.642 61.1025 181.62C61.1114 181.597 61.1118 181.572 61.1039 181.549C61.0959 181.526 61.08 181.507 61.0591 181.495Z" fill="#263238"/>
<path d="M61.9267 182.488C60.5259 181.731 58.6282 181.377 57.15 182.081C57.093 182.106 57.15 182.187 57.1826 182.187C58.7552 182.179 60.324 182.342 61.8616 182.672C61.8833 182.673 61.9047 182.666 61.9227 182.654C61.9407 182.642 61.9544 182.624 61.9617 182.604C61.969 182.584 61.9695 182.561 61.9632 182.54C61.9569 182.52 61.9441 182.501 61.9267 182.488Z" fill="#263238"/>
<path d="M62.794 183.486C61.3932 182.728 59.4955 182.374 58.0173 183.079C57.9603 183.103 58.0173 183.185 58.054 183.185C59.6256 183.181 61.1931 183.348 62.7289 183.681C62.7548 183.69 62.7831 183.688 62.8075 183.676C62.832 183.664 62.8506 183.642 62.8592 183.616C62.8678 183.59 62.8658 183.562 62.8536 183.538C62.8414 183.513 62.82 183.495 62.794 183.486Z" fill="#263238"/>
<path d="M63.6655 184.475C62.2606 183.718 60.367 183.363 58.8848 184.068C58.8277 184.092 58.8848 184.174 58.9214 184.174C60.4931 184.17 62.0605 184.337 63.5963 184.671C63.6222 184.68 63.6507 184.678 63.6756 184.667C63.7004 184.655 63.7195 184.633 63.7287 184.608C63.7378 184.582 63.7363 184.553 63.7245 184.528C63.7127 184.503 63.6915 184.484 63.6655 184.475Z" fill="#263238"/>
<path d="M64.9197 178.929C64.5939 177.936 63.3845 177.948 62.5945 178.269C61.2489 178.851 60.0793 179.775 59.2023 180.949C59.1973 180.953 59.1932 180.958 59.1903 180.963C59.1875 180.969 59.186 180.975 59.186 180.982C59.186 180.988 59.1875 180.994 59.1903 181C59.1932 181.005 59.1973 181.01 59.2023 181.014C59.1697 181.128 59.2308 181.283 59.3734 181.275C60.7538 181.214 62.2239 181.32 63.5515 180.839C64.3374 180.558 65.2292 179.87 64.9197 178.929ZM61.4624 180.758C60.7864 180.802 60.1145 180.815 59.4263 180.888C60.0901 180.367 60.7253 179.821 61.4624 179.365C61.8024 179.141 62.1575 178.941 62.5253 178.766C63.0994 178.506 65.1315 178.208 64.3415 179.76C63.9017 180.635 62.2687 180.701 61.4624 180.758Z" fill="#263238"/>
<path d="M55.5373 179.344C56.6002 180.261 58.0214 180.688 59.2879 181.234C59.3168 181.244 59.3476 181.246 59.3778 181.242C59.408 181.237 59.4367 181.225 59.4614 181.207C59.4861 181.189 59.5061 181.166 59.5199 181.138C59.5336 181.111 59.5406 181.081 59.5403 181.051C59.5469 181.051 59.5534 181.05 59.5594 181.047C59.5653 181.044 59.5705 181.04 59.5745 181.035C59.5785 181.029 59.5812 181.023 59.5823 181.017C59.5835 181.01 59.583 181.004 59.5811 180.998C59.1792 179.589 58.4138 178.311 57.3617 177.292C56.7386 176.705 55.6147 176.266 54.955 177.08C54.2953 177.895 54.9184 178.807 55.5373 179.344ZM55.2075 178.066C55.0202 176.335 56.8364 177.333 57.2436 177.781C57.5228 178.077 57.7839 178.39 58.0255 178.717C58.5304 179.397 58.9336 180.134 59.3693 180.855C58.7625 180.55 58.1476 180.297 57.5205 180.016C56.8038 179.678 55.3093 179.006 55.2075 178.066Z" fill="#263238"/>
<path d="M45.349 179.361C45.2594 179.902 45.1698 180.432 45.0884 180.945C44.5508 184.239 44.2332 186.78 44.4816 187.012C45.239 187.733 67.9742 192.306 68.8253 192.192C69.6764 192.078 69.428 189.659 68.6869 188.78C68.2349 188.246 65.1278 185.95 62.7618 184.235C61.2388 183.136 60.0253 182.268 60.0253 182.268L64.5862 167.527L49.299 164.509C49.299 164.509 45.5119 178.489 45.349 179.361Z" fill="#FFC4C0"/>
<path d="M68.8253 192.192C67.9742 192.294 45.239 187.733 44.4816 187.012C44.2332 186.776 44.5508 184.239 45.0884 180.945C45.1698 180.436 45.2553 179.902 45.349 179.361C45.4019 179.055 45.9028 177.149 46.5259 174.8C48.7411 175.24 57.6308 177.027 61.4017 177.785L60.0171 182.264C60.0171 182.264 61.2388 183.127 62.7537 184.231C65.1196 185.945 68.2267 188.238 68.6747 188.776C69.424 189.659 69.6724 192.082 68.8253 192.192Z" fill="#EBEBEB"/>
<path d="M69.0124 192.339C68.4504 192.404 58.5916 190.445 51.4448 188.841C49.7915 188.47 48.2848 188.116 47.0712 187.814C45.3976 187.407 44.2818 187.073 44.123 186.923C43.846 186.654 45.589 177.333 45.8944 176.253L61.0105 179.381L60.1227 182.174C60.1227 182.174 68.1287 187.941 68.8902 188.845C69.6517 189.749 69.8798 192.229 69.0124 192.339Z" fill="#099AF6"/>
<path d="M68.6581 191.296C64.7772 190.408 49.0544 187.151 45.1532 186.556C45.1206 186.556 45.1165 186.556 45.1532 186.581C48.9729 187.558 64.7243 190.677 68.6418 191.361C68.7232 191.374 68.7232 191.317 68.6581 191.296Z" fill="#263238"/>
<path d="M64.5654 175.806C64.7283 175.728 69.1589 156.711 71.1787 148.958C74.0944 137.767 76.9205 119.528 77.7676 115.728C79.5161 111.354 80.7038 106.775 81.3023 102.103H62.9202C62.9202 102.103 58.1028 111.318 60.5787 117.834C60.8068 118.432 57.3698 141.452 55.5902 145.195C54.055 148.42 47.0386 172.039 47.0386 172.039L64.5654 175.806Z" fill="#37474F"/>
<path d="M64.4679 171.909C64.0199 171.746 63.5394 171.664 63.0752 171.542C62.6109 171.42 62.0938 171.294 61.601 171.184C60.6155 170.96 59.6301 170.748 58.6446 170.532C56.6696 170.105 54.6905 169.718 52.7114 169.311C52.1684 169.199 51.6254 169.093 51.0825 168.993C50.5478 168.863 50.0028 168.78 49.4536 168.745C49.4485 168.747 49.4442 168.752 49.4413 168.757C49.4383 168.762 49.4368 168.767 49.4368 168.773C49.4368 168.779 49.4383 168.785 49.4413 168.79C49.4442 168.795 49.4485 168.799 49.4536 168.802C49.902 168.969 50.3638 169.099 50.8341 169.189C51.3227 169.311 51.8155 169.425 52.3082 169.535C53.2774 169.755 54.2466 169.979 55.2198 170.19C57.1745 170.597 59.1332 171.05 61.0961 171.449C61.654 171.559 62.2078 171.673 62.7697 171.766C63.3317 171.86 63.8855 172.006 64.4475 172.047C64.4964 172.043 64.5493 171.937 64.4679 171.909Z" fill="#263238"/>
<path d="M72.9582 114.885C72.6039 116.799 72.3107 118.725 71.9931 120.643C71.8342 121.624 71.6184 122.594 71.4555 123.571C71.2926 124.548 71.142 125.493 70.9872 126.454C70.3628 130.323 69.7452 134.19 69.1344 138.056C68.8303 139.978 68.5222 141.897 68.21 143.814C67.9231 145.705 67.5357 147.58 67.0494 149.43C66.5444 151.278 65.9499 153.095 65.3838 154.931L63.6531 160.559C62.5089 164.289 62.6717 164.924 61.6455 168.703C61.5193 169.172 61.389 169.64 61.2383 170.108C61.2379 170.119 61.2411 170.129 61.2474 170.137C61.2537 170.145 61.2626 170.151 61.2727 170.154C61.2828 170.156 61.2934 170.155 61.3027 170.15C61.3121 170.146 61.3195 170.138 61.3238 170.129C62.5903 166.431 62.4152 165.796 63.5921 162.066C64.7689 158.336 65.9743 154.638 67.0942 150.908C67.6369 149.092 68.0707 147.245 68.3932 145.378C68.719 143.456 69.004 141.529 69.3135 139.603C69.9216 135.737 70.5393 131.87 71.1664 128.002C71.4677 126.104 71.8017 124.202 72.0378 122.3C72.2822 120.321 72.6243 118.354 72.9175 116.383C72.9908 115.899 73.06 115.418 73.1251 114.934C73.1251 114.824 72.9785 114.779 72.9582 114.885Z" fill="#263238"/>
<path d="M88.7664 182.761C87.1986 182.46 85.2846 182.688 84.0793 183.796C84.0345 183.84 84.0793 183.905 84.1485 183.889C85.6473 183.415 87.1928 183.104 88.7582 182.961C88.7815 182.957 88.8028 182.945 88.8185 182.928C88.8342 182.91 88.8433 182.888 88.8442 182.864C88.8452 182.841 88.8379 182.818 88.8238 182.799C88.8096 182.78 88.7893 182.767 88.7664 182.761Z" fill="#263238"/>
<path d="M89.8992 183.45C88.3355 183.148 86.4174 183.376 85.2161 184.484C85.1673 184.529 85.2161 184.594 85.2813 184.578C86.7828 184.103 88.331 183.792 89.8992 183.649C89.9222 183.645 89.9429 183.632 89.9578 183.614C89.9726 183.596 89.9807 183.573 89.9807 183.549C89.9807 183.526 89.9726 183.503 89.9578 183.485C89.9429 183.467 89.9222 183.454 89.8992 183.45Z" fill="#263238"/>
<path d="M91.0145 184.138C89.4508 183.836 87.5368 184.064 86.3315 185.172C86.2867 185.217 86.3315 185.282 86.4007 185.266C87.8995 184.791 89.445 184.48 91.0104 184.337C91.0336 184.333 91.0545 184.321 91.0698 184.303C91.085 184.285 91.0936 184.263 91.0941 184.239C91.0946 184.216 91.0869 184.193 91.0724 184.174C91.0579 184.156 91.0375 184.143 91.0145 184.138Z" fill="#263238"/>
<path d="M92.1424 184.826C90.5786 184.524 88.6606 184.752 87.4593 185.86C87.4104 185.905 87.4593 185.97 87.5245 185.954C89.0233 185.48 90.5688 185.169 92.1342 185.025C92.1575 185.022 92.1788 185.01 92.1945 184.992C92.2101 184.975 92.2192 184.952 92.2202 184.929C92.2211 184.905 92.2139 184.882 92.1997 184.863C92.1855 184.844 92.1653 184.831 92.1424 184.826Z" fill="#263238"/>
<path d="M91.6788 179.161C91.068 178.31 89.9196 178.681 89.264 179.226C88.15 180.182 87.3072 181.413 86.8207 182.798C86.8181 182.804 86.8169 182.81 86.8172 182.816C86.8175 182.823 86.8193 182.829 86.8225 182.834C86.8257 182.84 86.8301 182.845 86.8355 182.848C86.8408 182.852 86.8469 182.854 86.8532 182.855C86.8532 182.973 86.9632 183.103 87.0976 183.054C88.3966 182.582 89.8382 182.24 90.9499 181.385C91.6137 180.888 92.2571 179.963 91.6788 179.161ZM88.9301 181.938C88.2989 182.183 87.6595 182.399 87.0365 182.667C87.5129 181.975 87.9568 181.262 88.5025 180.631C88.7594 180.315 89.0384 180.017 89.3373 179.739C89.8056 179.332 91.6585 178.428 91.3734 180.147C91.2105 181.075 89.6834 181.641 88.9301 181.938Z" fill="#263238"/>
<path d="M82.8539 182.366C84.1407 182.924 85.623 182.904 86.9953 183.046C87.0258 183.047 87.056 183.04 87.0834 183.027C87.1109 183.014 87.1348 182.994 87.1534 182.97C87.172 182.946 87.1847 182.918 87.1905 182.888C87.1963 182.858 87.195 182.827 87.1867 182.798C87.1912 182.794 87.1947 182.788 87.1971 182.783C87.1995 182.777 87.2008 182.771 87.2008 182.765C87.2008 182.759 87.1995 182.753 87.1971 182.747C87.1947 182.742 87.1912 182.737 87.1867 182.733C86.38 181.509 85.2666 180.517 83.9575 179.858C83.1878 179.491 81.9824 179.406 81.5996 180.379C81.2169 181.352 82.1005 182.04 82.8539 182.366ZM82.1616 181.246C81.4653 179.65 83.4769 180.065 84.0348 180.358C84.3918 180.554 84.7347 180.775 85.061 181.018C85.7492 181.515 86.3519 182.097 86.9831 182.647C86.3153 182.537 85.6434 182.484 84.9674 182.399C84.157 182.305 82.5363 182.126 82.1616 181.246Z" fill="#263238"/>
<path d="M73.0804 180.957C73.0804 181.885 73.4876 191.174 73.7686 191.353C74.6523 191.915 97.8436 191.98 98.654 191.716C99.4643 191.451 98.7558 189.114 97.8395 188.397C97.2939 187.957 93.804 186.308 91.1489 185.086C89.4426 184.3 88.0825 183.689 88.0825 183.689L88.1558 180.965L88.3675 168.573H73.056C73.056 168.573 72.9786 174.934 73.0804 180.957Z" fill="#FFC4C0"/>
<path d="M98.658 191.716C97.8435 191.981 74.6522 191.911 73.7726 191.353C73.4835 191.17 73.0926 181.885 73.0803 180.961C73.0803 180.346 73.0803 179.739 73.0559 179.112H88.2005L88.1679 180.961L88.0906 183.677L91.1569 185.078C93.808 186.3 97.2979 187.957 97.8476 188.393C98.7557 189.114 99.4643 191.447 98.658 191.716Z" fill="#EBEBEB"/>
<path d="M99.204 191.903C98.6665 192.082 88.6162 192.082 81.2862 191.903C79.5922 191.862 78.0285 191.809 76.8068 191.752C75.0842 191.667 73.9277 191.569 73.7404 191.447C73.4146 191.239 72.9545 181.755 73.0441 180.639L88.3638 180.717L88.4208 183.636C88.4208 183.636 97.4815 187.761 98.4059 188.499C99.3303 189.236 100.035 191.63 99.204 191.903Z" fill="#099AF6"/>
<path d="M98.6503 190.954C94.6718 190.832 78.615 190.714 74.6731 190.893C74.6446 190.893 74.6405 190.917 74.6731 190.917C78.615 191.125 94.6718 191.113 98.6503 191.019C98.7358 191.015 98.7358 190.954 98.6503 190.954Z" fill="#263238"/>
<path d="M70.3525 118.546C70.3525 118.546 72.9709 144.242 73.0116 144.845C73.0116 145.085 71.8877 176.486 71.8877 176.486H89.2069C89.2069 176.486 88.5879 147.06 88.3232 143.432C88.2947 143.024 87.1748 116.889 82.1334 102.103H62.8962C62.8962 102.103 63.0632 110.789 67.0133 117.072C68.1526 117.502 69.2674 117.994 70.3525 118.546Z" fill="#37474F"/>
<path d="M88.1113 173.24C87.6348 173.171 87.1502 173.187 86.6697 173.162C86.1892 173.138 85.6639 173.114 85.1589 173.101C84.149 173.081 83.1228 173.073 82.1292 173.061C80.0931 173.036 78.0895 173.061 76.0697 173.061H74.4164C73.8598 173.04 73.3024 173.069 72.7508 173.146C72.7223 173.146 72.7264 173.199 72.7508 173.207C73.2223 173.281 73.6989 173.317 74.1761 173.313C74.6811 173.334 75.186 173.346 75.691 173.354C76.6846 173.374 77.6782 173.399 78.6759 173.411C80.6754 173.435 82.6789 173.472 84.6825 173.464C85.2526 173.464 85.8186 173.464 86.3887 173.443C86.9588 173.423 87.5289 173.443 88.0909 173.378C88.1642 173.366 88.1968 173.252 88.1113 173.24Z" fill="#263238"/>
<path d="M84.1982 146.282C83.7421 137.026 82.7688 127.81 81.5431 118.632C80.8752 113.602 80.0893 108.581 78.7292 103.687C78.7292 103.687 78.6925 103.687 78.6966 103.687C79.7572 108.165 80.5567 112.701 81.0911 117.271C81.6612 121.792 82.2069 126.32 82.667 130.856C83.5996 140.06 84.0149 149.295 84.0719 158.548C84.1045 163.752 83.9661 166.203 83.8195 171.404C83.8195 171.452 83.8928 171.448 83.8968 171.404C84.6502 162.151 84.638 155.55 84.1982 146.282Z" fill="#263238"/>
<path d="M83.2569 105.682C83.2569 105.675 83.2539 105.668 83.2486 105.662C83.2432 105.657 83.236 105.654 83.2284 105.654C83.2209 105.654 83.2136 105.657 83.2083 105.662C83.2029 105.668 83.1999 105.675 83.1999 105.682C83.2732 106.778 83.4605 107.971 82.9719 109.005C82.5443 109.913 81.7258 110.426 80.9724 111.041C80.9724 111.062 80.9724 111.098 81.005 111.09C82.0027 110.789 83.0004 110.235 83.3954 109.209C83.8352 108.073 83.5949 106.823 83.2569 105.682Z" fill="#263238"/>
<path d="M74.9171 117.98C74.1139 117.956 73.3101 117.983 72.5104 118.061C71.7272 118.102 70.942 118.089 70.1607 118.02C69.7688 117.98 69.3798 117.914 68.996 117.825C68.5888 117.731 68.2223 117.585 67.8273 117.475C67.4686 117.396 67.0959 117.41 66.7441 117.515C66.3369 117.609 65.9297 117.674 65.4858 117.731C64.5216 117.872 63.5441 117.896 62.5742 117.805C62.5375 117.805 62.5212 117.857 62.5742 117.866C63.3898 118.036 64.2208 118.122 65.0541 118.122C65.4811 118.113 65.9069 118.075 66.3287 118.008C66.716 117.895 67.1186 117.843 67.5219 117.853C67.9175 117.959 68.3064 118.088 68.6866 118.24C69.0739 118.349 69.4686 118.429 69.8675 118.481C70.6665 118.586 71.4743 118.611 72.2783 118.554C73.1852 118.533 74.0857 118.397 74.9578 118.147C74.9799 118.141 74.999 118.127 75.0108 118.108C75.0227 118.088 75.0263 118.065 75.0209 118.043C75.0155 118.021 75.0015 118.002 74.9821 117.99C74.9626 117.978 74.9392 117.974 74.9171 117.98Z" fill="#263238"/>
<path d="M72.592 139.005C72.44 137.341 72.2771 135.677 72.1033 134.013C71.7531 130.682 71.4233 127.351 71.0812 124.02C70.8857 122.13 70.7473 120.224 70.4378 118.351C70.4378 118.302 70.3523 118.302 70.3563 118.351C70.3808 120.021 70.56 121.69 70.7025 123.356C70.845 125.021 70.9916 126.687 71.1464 128.352C71.4599 131.684 71.7572 135.019 72.1481 138.346C72.2594 139.288 72.3762 140.238 72.4983 141.196C72.6246 142.141 72.7915 143.082 72.9056 144.026C72.9056 144.035 72.909 144.043 72.9151 144.05C72.9212 144.056 72.9295 144.059 72.9381 144.059C72.9468 144.059 72.9551 144.056 72.9612 144.05C72.9673 144.043 72.9707 144.035 72.9707 144.026C72.8241 142.357 72.7467 140.671 72.592 139.005Z" fill="#263238"/>
<path d="M72.7262 81.216C72.8566 81.5743 74.913 83.7489 76.5867 83.4598C77.1324 83.3661 76.7496 80.3649 76.7496 80.3649L76.77 80.1369L77.0835 76.9483L73.1457 75.0588L72.5796 74.8145C72.5796 74.8145 72.5511 75.6941 72.5308 76.7854C72.5308 76.8383 72.5308 76.8872 72.5308 76.9442C72.5308 77.0012 72.5308 77.0623 72.5308 77.1193V77.6161C72.5308 77.7465 72.5308 77.8686 72.5308 77.9989C72.5308 78.1292 72.5308 78.2636 72.5308 78.4062C72.5297 79.3462 72.595 80.2852 72.7262 81.216Z" fill="#FFC4C0"/>
<path d="M72.5308 76.7937C72.9512 77.627 73.5483 78.3585 74.2804 78.9374C75.0126 79.5162 75.8622 79.9284 76.7699 80.1451L77.0835 76.9566L73.1457 75.0671L72.5796 74.8228C72.5796 74.8228 72.5511 75.6942 72.5308 76.7937Z" fill="#263238"/>
<path d="M81.9787 97.0813L82.1334 102.102H62.9207C62.9207 102.102 65.1848 87.2184 70.2507 81.7413C72.7836 78.9884 75.4753 79.5056 77.373 81.4277C77.8494 81.9164 83.0985 88.7577 83.7012 91.649C84.2265 94.1738 81.9787 97.0813 81.9787 97.0813Z" fill="#81AAE8"/>
<path opacity="0.1" d="M82.1128 101.504H63.0222C63.0467 101.349 63.0792 101.17 63.1159 100.966H82.1006L82.1128 101.504ZM82.0517 99.4677H63.3969C63.3602 99.6551 63.3236 99.8342 63.291 100.005H82.068L82.0517 99.4677ZM82.0069 97.9651H63.7104C63.6697 98.1483 63.6331 98.3275 63.5964 98.5026H82.0232L82.0069 97.9651ZM64.0525 96.4584C64.0118 96.6416 63.967 96.8208 63.9263 96.9959H82.0436C82.1209 96.8941 82.2513 96.7068 82.406 96.4584H64.0525ZM64.4231 94.9557L64.2887 95.4932H82.9476C83.0372 95.3222 83.1186 95.143 83.2001 94.9557H64.4231ZM64.8303 93.4531L64.6837 93.9906H83.5462C83.5951 93.8155 83.6399 93.6363 83.6765 93.4531H64.8303ZM83.758 91.9504H65.2701C65.2131 92.1296 65.1601 92.3088 65.1072 92.4879H83.7906C83.7887 92.3069 83.7764 92.126 83.7539 91.9463L83.758 91.9504ZM83.31 90.4478H65.7506C65.6895 90.6269 65.6325 90.8061 65.5714 90.9853H83.5136C83.4566 90.8102 83.3833 90.6392 83.306 90.4437L83.31 90.4478ZM82.5607 88.941H66.28C66.2108 89.1202 66.1456 89.2994 66.0805 89.4826H82.8417C82.7562 89.2994 82.6585 89.1202 82.5689 88.937L82.5607 88.941ZM81.6771 87.4384H66.8786C66.8026 87.6176 66.7293 87.7967 66.6587 87.9759H82.0028C81.897 87.794 81.787 87.6135 81.673 87.4343L81.6771 87.4384ZM80.7079 85.9357H67.5505C67.465 86.1149 67.3795 86.2941 67.2981 86.4733H81.0581L80.7079 85.9357ZM79.6735 84.4331H68.3365C68.2347 84.6082 68.1329 84.7874 68.0392 84.9706H80.04C79.9179 84.7833 79.7916 84.6041 79.6695 84.429L79.6735 84.4331ZM78.5781 82.9304H69.2812C69.155 83.1055 69.0369 83.2847 68.9188 83.468H78.969L78.5781 82.9304ZM77.3931 81.4278H70.5314C70.4391 81.5201 70.3454 81.6178 70.2504 81.721C70.1554 81.8242 70.0821 81.9056 70.0305 81.9653H77.8329C77.6211 81.6803 77.4664 81.5052 77.389 81.4237L77.3931 81.4278ZM74.9009 79.9211H73.0602C72.6047 80.0321 72.1691 80.2135 71.7694 80.4586H76.1836C75.7841 80.2149 75.3504 80.0324 74.8968 79.917L74.9009 79.9211Z" fill="#030402"/>
<path d="M75.699 85.6262C79.14 86.9456 91.9634 89.8817 94.6633 87.6379C98.9025 84.1154 102.217 77.8035 103.928 72.6277C104.518 70.8277 93.2177 69.2762 92.5987 71.3083C91.7843 73.9552 89.7481 78.7727 89.2065 79.5993C88.6649 80.426 80.9969 80.5644 75.8252 81.049C71.5087 81.4522 71.3335 83.9566 75.699 85.6262Z" fill="#FFC4C0"/>
<path d="M93.9425 59.2829C94.2514 59.1788 94.5848 59.1718 94.8978 59.2628C95.2109 59.3538 95.4885 59.5384 95.6935 59.7919C96.029 59.353 96.5072 59.0448 97.0455 58.9205C98.0065 58.7494 98.6988 60.1788 98.6988 60.1788C99.141 59.7948 99.6889 59.5535 100.271 59.4865C101.207 59.4132 102.111 60.757 102.111 60.757C102.713 60.6286 103.34 60.7211 103.879 61.0177C105.284 61.8728 105.316 64.3813 105.357 65.9776C105.398 67.5739 104.009 72.1348 103.834 73.0307L94.0117 73.9795C94.0117 73.9795 90.9982 69.7444 91.6091 64.3772C91.7923 62.7809 92.7778 59.7186 93.9425 59.2829Z" fill="#FFC4C0"/>
<path d="M95.5306 59.8616C94.9279 61.4905 94.8424 63.2253 94.6592 64.9437C94.6615 64.95 94.6657 64.9554 94.6711 64.9592C94.6766 64.963 94.6831 64.965 94.6897 64.965C94.6964 64.965 94.7029 64.963 94.7083 64.9592C94.7138 64.9554 94.7179 64.95 94.7203 64.9437C94.8831 63.2293 95.38 61.5719 95.6121 59.8698C95.6202 59.8331 95.5469 59.8168 95.5306 59.8616Z" fill="#263238"/>
<path d="M98.5645 60.2074C98.4627 60.5926 98.4134 60.9899 98.4179 61.3883C98.3935 61.7955 98.3772 62.2313 98.365 62.6507C98.365 63.4937 98.365 64.3407 98.365 65.1836C98.365 65.2203 98.422 65.2284 98.422 65.1836C98.4437 64.342 98.4804 63.5004 98.532 62.6589C98.5591 62.2381 98.5917 61.8186 98.6297 61.4005C98.6879 61.007 98.7016 60.6081 98.6704 60.2114C98.6654 60.2019 98.658 60.1939 98.6489 60.1882C98.6398 60.1824 98.6294 60.1792 98.6187 60.1788C98.6079 60.1783 98.5972 60.1808 98.5877 60.1858C98.5782 60.1908 98.5702 60.1983 98.5645 60.2074Z" fill="#263238"/>
<path d="M102.116 60.7818C102.031 61.132 102.005 61.4939 102.038 61.8528C102.038 62.2396 102.038 62.6224 102.038 63.0093C102.038 63.7789 102.018 64.5445 101.981 65.3142C101.981 65.3549 102.038 65.359 102.038 65.3142C102.083 64.5323 102.136 63.7504 102.169 62.9726C102.169 62.5654 102.201 62.203 102.214 61.8202C102.259 61.4712 102.242 61.1169 102.165 60.7736C102.164 60.7671 102.16 60.7614 102.155 60.7575C102.149 60.7537 102.143 60.7522 102.136 60.7533C102.13 60.7543 102.124 60.758 102.12 60.7633C102.116 60.7686 102.115 60.7753 102.116 60.7818Z" fill="#263238"/>
<path d="M90.2246 76.7939L99.3667 84.2339C99.3667 84.2339 95.889 88.1636 93.9995 88.5667C92.11 88.9699 81.8846 88.3835 76.0817 86.0379C70.2788 83.6923 71.7611 81.4159 76.0003 80.9191C80.2395 80.4223 88.0948 79.4898 88.3513 79.335C88.6079 79.1803 90.2246 76.7939 90.2246 76.7939Z" fill="#099AF6"/>
<path opacity="0.1" d="M76.9328 86.3594C76.645 86.259 76.3641 86.1531 76.0899 86.0418C75.7926 85.9196 75.5116 85.8015 75.251 85.6834L72.3068 83.2767C72.2447 83.0548 72.2576 82.8186 72.3434 82.6048L76.9328 86.3594ZM73.4592 81.5827C73.2865 81.6639 73.1216 81.7607 72.9665 81.8718L79.3395 87.0802C79.7467 87.182 80.1539 87.2797 80.5367 87.3652L73.4592 81.5827ZM75.1858 81.0492C74.9496 81.094 74.7297 81.1429 74.518 81.1999L82.5688 87.7887C82.9271 87.8539 83.2855 87.915 83.6438 87.972L75.1858 81.0492ZM77.2219 80.7804L76.4767 80.866L85.4641 88.196C85.798 88.2408 86.132 88.2815 86.4577 88.3141L77.2219 80.7804ZM79.2947 80.5361L78.5576 80.6257L88.1966 88.5014L89.1291 88.5747L79.2947 80.5361ZM81.3675 80.2877L80.6304 80.3773L90.7662 88.6602L91.6417 88.6846L81.3675 80.2877ZM83.4321 80.0312L82.695 80.1248L93.1403 88.6765C93.3942 88.6672 93.6472 88.6414 93.8977 88.5991L83.4321 80.0312ZM85.4682 79.7705L84.7352 79.8683L94.9158 88.1797C95.0746 88.0901 95.2334 87.9883 95.3963 87.8783L85.4682 79.7705ZM87.5043 79.4936L86.7794 79.5954L96.1781 87.2797C96.3207 87.1698 96.4632 87.0517 96.5854 86.9336L87.5043 79.4936ZM88.8766 78.6792C88.7545 78.8461 88.6445 78.9927 88.5509 79.0864L97.3306 86.2657L97.7378 85.8911L88.8766 78.6792ZM89.7522 77.4575L89.4427 77.8973L98.4016 85.2273L98.7721 84.8201L89.7522 77.4575Z" fill="#030402"/>
<path d="M97.2818 85.1541C94.8385 82.9999 92.3626 80.8497 89.7156 78.9439C89.7102 78.9402 89.7035 78.9387 89.697 78.9398C89.6906 78.941 89.6848 78.9447 89.681 78.9501C89.6772 78.9555 89.6757 78.9621 89.6769 78.9686C89.678 78.9751 89.6817 78.9809 89.6871 78.9847C92.0653 81.2122 94.6552 83.2157 97.237 85.1989C97.2696 85.2233 97.3103 85.1785 97.2818 85.1541Z" fill="#263238"/>
<path d="M71.1952 68.0423C71.0304 68.1671 70.8327 68.2409 70.6265 68.2547C70.4202 68.2684 70.2145 68.2215 70.0346 68.1197C69.5215 67.9161 68.8659 67.3867 68.308 67.7573C67.6809 68.1645 67.9008 69.0726 68.198 69.6101C68.4858 70.0628 68.7416 70.535 68.9636 71.0232C69.1398 71.4948 69.2308 71.9939 69.2324 72.4974C69.2324 73.5113 68.6786 74.4479 68.7437 75.4579C68.8292 76.6795 69.9654 77.5591 70.9346 78.113C71.9038 78.6668 73.0847 78.8907 74.1923 79.2776C75.1221 79.6335 75.9474 80.2177 76.5922 80.9763C77.2369 81.7349 77.6804 82.6436 77.8818 83.6186C77.992 84.0973 78.0561 84.5855 78.0732 85.0764C78.0732 85.6018 78.0365 86.1312 78.0732 86.6565C78.0894 86.9542 78.1766 87.2437 78.3274 87.5009C78.4783 87.758 78.6886 87.9753 78.9406 88.1347C79.4217 88.3876 79.9445 88.5518 80.4839 88.6193C80.501 88.6241 80.5164 88.6336 80.5283 88.6468C80.5402 88.66 80.5481 88.6762 80.5511 88.6937C80.5541 88.7112 80.552 88.7292 80.5452 88.7456C80.5383 88.762 80.527 88.7761 80.5124 88.7862C80.2187 88.9892 79.9112 89.1716 79.5921 89.3319C79.3169 89.491 79.0126 89.5935 78.6972 89.6333C78.3819 89.6732 78.0617 89.6496 77.7555 89.564C77.0633 89.3197 76.6479 88.6722 76.2692 88.0858C75.8531 87.3839 75.2679 86.7973 74.567 86.3796C73.8432 85.9967 73.0597 85.7392 72.2499 85.6181C70.6821 85.3493 69.0776 85.4307 67.518 85.1009C66.7618 84.9667 66.0405 84.6811 65.3974 84.2612C64.7543 83.8414 64.2026 83.2959 63.7756 82.6575C63.3563 82.0089 63.0788 81.2789 62.9611 80.5156C62.874 79.6818 62.918 78.8395 63.0915 78.0193C63.4182 76.2611 63.5344 74.4703 63.4376 72.6847C63.3766 71.8434 63.2706 71.0061 63.12 70.1762C62.9616 69.4017 62.8838 68.6129 62.8878 67.8224C62.9043 67.1372 63.1012 66.4684 63.4587 65.8836C63.8162 65.2987 64.3216 64.8185 64.924 64.4914C65.5165 64.1441 66.1884 63.9549 66.8752 63.9421C67.5619 63.9293 68.2404 64.0932 68.8455 64.4181C70.8083 65.5379 71.4517 67.7899 71.1952 68.0423Z" fill="#263238"/>
<path d="M69.0083 76.3496C69.2323 76.8914 69.5646 77.3818 69.9847 77.7907C70.4048 78.1996 70.904 78.5185 71.4516 78.7278C72.5715 79.135 73.8013 79.1594 74.9415 79.5422C76.0015 79.8548 76.9461 80.4722 77.6577 81.3177C78.2598 82.163 78.574 83.1796 78.5536 84.2171C78.5943 85.3899 78.4762 86.5587 78.6025 87.7274C78.6025 87.7478 78.5699 87.7559 78.5658 87.7274C78.1586 85.6913 78.9445 83.4108 77.6699 81.5906C76.8925 80.5812 75.7908 79.8707 74.5506 79.5789C73.4715 79.2735 72.3068 79.245 71.2684 78.8011C70.7472 78.5639 70.2787 78.2248 69.8906 77.8038C69.5024 77.3828 69.2024 76.8883 69.0083 76.3496Z" fill="#263238"/>
<path d="M62.7615 81.9817C62.6567 81.2981 62.6788 80.6009 62.8266 79.9253C62.9773 79.1108 63.1687 78.2964 63.3438 77.4819C63.2013 78.1783 63.0832 78.8828 62.961 79.5873C62.8229 80.2497 62.7777 80.9281 62.8266 81.603C62.9184 82.2691 63.159 82.906 63.5305 83.4664C63.902 84.0269 64.395 84.4965 64.9727 84.8404C66.1455 85.5612 67.4812 85.6997 68.825 85.7038C70.0194 85.6826 71.2139 85.7411 72.4004 85.8789C73.7304 86.0247 75.015 86.4478 76.1713 87.1209C76.1713 87.1209 76.1713 87.1616 76.1713 87.1494C73.842 85.7852 71.1706 85.8544 68.5644 85.8585C67.2751 85.92 65.9951 85.612 64.875 84.9708C64.3355 84.6453 63.8692 84.2118 63.5055 83.6974C63.1418 83.183 62.8884 82.5988 62.7615 81.9817Z" fill="#263238"/>
<path d="M70.3809 69.3497C70.4542 69.3497 71.4479 68.3072 71.5537 68.2054C71.6596 68.1036 72.7103 67.1303 72.7265 67.0611C72.386 66.7197 71.9858 66.4436 71.5456 66.2466C71.2809 66.1896 70.4909 66.8493 70.3606 66.9715C70.2303 67.0937 69.5461 67.8755 69.6113 68.1443C69.7933 68.5891 70.054 68.9975 70.3809 69.3497Z" fill="#099AF6"/>
<path d="M81.2291 71.4304C82.7032 76.8587 79.645 78.4062 78.4437 78.6709C77.3686 78.9111 73.724 79.7989 71.7001 74.5498C69.6762 69.3007 71.7327 66.9021 74.1434 66.1162C76.5542 65.3303 79.759 65.9981 81.2291 71.4304Z" fill="#FFC4C0"/>
<path d="M80.6425 70.3309C80.5122 70.3309 80.39 70.3309 80.2353 70.3309C80.0942 70.3508 79.9506 70.3221 79.8281 70.2495C79.7953 70.2208 79.7727 70.1823 79.7639 70.1396C79.7551 70.097 79.7605 70.0526 79.7792 70.0133C79.8305 69.9406 79.9 69.8827 79.9808 69.8456C80.0616 69.8084 80.1508 69.7932 80.2394 69.8016C80.4199 69.7937 80.597 69.8532 80.7362 69.9685C80.7633 69.9951 80.783 70.0283 80.7932 70.0649C80.8034 70.1015 80.8037 70.1401 80.7942 70.1768C80.7847 70.2136 80.7657 70.2472 80.7391 70.2743C80.7124 70.3013 80.6791 70.3209 80.6425 70.3309Z" fill="#263238"/>
<path d="M77.1201 71.2269C77.2409 71.1834 77.3592 71.1331 77.4744 71.0763C77.6092 71.0397 77.7281 70.9595 77.8124 70.8482C77.8318 70.809 77.8376 70.7645 77.8287 70.7217C77.8199 70.6789 77.7969 70.6403 77.7635 70.612C77.6878 70.5668 77.6013 70.543 77.5131 70.543C77.4249 70.543 77.3384 70.5668 77.2626 70.612C77.0874 70.6685 76.9413 70.7912 76.8554 70.9541C76.8421 70.9914 76.8394 71.0316 76.8478 71.0703C76.8562 71.109 76.8752 71.1446 76.9028 71.173C76.9304 71.2014 76.9653 71.2215 77.0037 71.231C77.0421 71.2406 77.0825 71.2391 77.1201 71.2269Z" fill="#263238"/>
<path d="M78.1994 72.4243C78.1994 72.4243 78.1749 72.4487 78.1994 72.465C78.293 72.8356 78.3378 73.2795 78.0283 73.475C78.0283 73.475 78.0283 73.4994 78.0283 73.4953C78.4152 73.3487 78.35 72.7623 78.1994 72.4243Z" fill="#263238"/>
<path d="M77.7796 72.111C77.1688 72.1965 77.3724 73.4141 77.9547 73.3326C78.5371 73.2512 78.2927 72.0336 77.7796 72.111Z" fill="#263238"/>
<path d="M77.5521 72.2165C77.4584 72.3061 77.377 72.4445 77.2507 72.4812C77.1245 72.5178 76.9697 72.416 76.8435 72.3102C76.8842 72.5464 77.0145 72.7663 77.2507 72.7581C77.4869 72.75 77.6132 72.5138 77.6294 72.2654C77.6376 72.2369 77.5887 72.1799 77.5521 72.2165Z" fill="#263238"/>
<path d="M80.1863 71.8501C80.1863 71.8501 80.2189 71.8501 80.223 71.8786C80.2759 72.2573 80.4022 72.6931 80.7646 72.7501V72.7704C80.337 72.7826 80.1782 72.2166 80.1863 71.8501Z" fill="#263238"/>
<path d="M80.4555 71.3984C81.0582 71.2437 81.3148 72.4531 80.761 72.5956C80.2071 72.7382 79.9547 71.5247 80.4555 71.3984Z" fill="#263238"/>
<path d="M80.7282 71.4224C80.8341 71.4671 80.9563 71.5608 81.0703 71.5445C81.1843 71.5282 81.2739 71.3735 81.3309 71.231C81.3309 71.231 81.3309 71.231 81.3554 71.231C81.4083 71.4631 81.3839 71.7196 81.1721 71.8092C80.9604 71.8988 80.7853 71.7278 80.6834 71.5079C80.6631 71.4753 80.6834 71.4061 80.7282 71.4224Z" fill="#263238"/>
<path d="M80.0316 73.6739C80.0316 73.6739 80.2148 74.2195 80.2678 74.4883C80.2678 74.5127 80.2107 74.5372 80.1212 74.5616C79.9017 74.647 79.6629 74.6705 79.431 74.6296C79.1991 74.5886 78.9828 74.4848 78.8058 74.3295C78.8017 74.3246 78.7993 74.3185 78.7991 74.3121C78.7989 74.3057 78.8008 74.2995 78.8045 74.2943C78.8083 74.2891 78.8137 74.2854 78.8198 74.2836C78.8259 74.2819 78.8325 74.2823 78.8384 74.2847C79.2235 74.451 79.6521 74.4881 80.0601 74.3906C80.0601 74.3132 79.7099 73.4662 79.7506 73.454C79.9596 73.4328 80.1705 73.4396 80.3777 73.4743C80.0234 72.326 79.49 71.2387 79.156 70.0903C79.1529 70.0818 79.153 70.0725 79.1564 70.0642C79.1597 70.0558 79.166 70.0489 79.174 70.0449C79.1821 70.0409 79.1914 70.0399 79.2001 70.0423C79.2088 70.0447 79.2163 70.0502 79.2212 70.0577C79.8315 71.2031 80.3267 72.4063 80.6994 73.6494C80.7279 73.792 80.1456 73.6983 80.0316 73.6739Z" fill="#263238"/>
<path d="M80.0603 74.3503C79.9673 74.6023 79.8117 74.8265 79.6083 75.0019C79.4917 75.0942 79.3495 75.1483 79.201 75.1566C78.8834 75.1566 78.7938 74.9042 78.7694 74.6558C78.753 74.5205 78.753 74.3838 78.7694 74.2485C79.1771 74.422 79.6304 74.4578 80.0603 74.3503Z" fill="#263238"/>
<path d="M79.6087 75.0099C79.4921 75.1022 79.3499 75.1563 79.2014 75.1646C78.8838 75.1646 78.7942 74.9122 78.7698 74.6638C78.9281 74.6181 79.0973 74.6275 79.2496 74.6904C79.402 74.7532 79.5286 74.8659 79.6087 75.0099Z" fill="#FF98B9"/>
<path d="M72.506 76.2928C72.9825 76.2072 72.506 73.2101 72.506 73.2101C72.506 73.2101 74.3711 72.2124 74.4566 69.3781C74.5578 70.2029 74.4163 71.0393 74.0494 71.7848C74.0494 71.7848 77.3072 70.7708 78.1501 67.7126C78.1501 67.7126 77.8732 69.2397 77.4497 69.8464C78.2417 69.4222 78.8663 68.7417 79.2211 67.9162C79.2211 67.9162 80.1211 69.4066 80.6586 69.7609C80.6586 69.7609 80.0437 64.1087 74.1023 65.6602C73.0349 65.9194 72.0592 66.4672 71.2821 67.2436C70.505 68.0199 69.9564 68.995 69.6962 70.0623C69.2686 71.8825 69.8754 74.0449 70.6246 75.2584C71.0929 75.9792 72.506 76.2928 72.506 76.2928Z" fill="#263238"/>
<path d="M74.0168 73.6624C74.0168 73.6624 72.6363 72.0335 71.8789 72.5303C71.1215 73.0271 72.2861 75.4908 73.239 75.7514C73.3601 75.7931 73.4882 75.8099 73.6159 75.801C73.7436 75.792 73.8681 75.7575 73.9822 75.6993C74.0962 75.6412 74.1973 75.5606 74.2795 75.4625C74.3618 75.3644 74.4234 75.2508 74.4607 75.1284L74.0168 73.6624Z" fill="#FFC4C0"/>
<defs>
<linearGradient id="paint0_linear_34_1182" x1="123.5" y1="0.315918" x2="123.858" y2="262.716" gradientUnits="userSpaceOnUse">
<stop stop-color="white"/>
<stop offset="1" stop-color="white" stop-opacity="0"/>
</linearGradient>
</defs>
</svg>
