<svg width="20" height="21" viewBox="0 0 20 21" fill="none" xmlns="http://www.w3.org/2000/svg">
<circle cx="9.95534" cy="10.5032" r="7.85426" fill="white"/>
<path d="M9.95523 1.77637C8.2292 1.77637 6.54194 2.28819 5.10679 3.24712C3.67165 4.20605 2.5531 5.56902 1.89258 7.16366C1.23205 8.75831 1.05923 10.513 1.39596 12.2059C1.73269 13.8987 2.56386 15.4537 3.78434 16.6742C5.00483 17.8947 6.55982 18.7259 8.25269 19.0626C9.94555 19.3993 11.7003 19.2265 13.2949 18.566C14.8895 17.9055 16.2525 16.7869 17.2114 15.3518C18.1704 13.9166 18.6822 12.2294 18.6822 10.5033C18.6822 8.18879 17.7627 5.96906 16.1261 4.33243C14.4895 2.69581 12.2698 1.77637 9.95523 1.77637ZM13.5006 15.914H6.54081C6.37067 15.9137 6.20682 15.8497 6.08143 15.7347C5.95604 15.6197 5.87819 15.462 5.86315 15.2925C5.84812 15.123 5.89699 14.954 6.00018 14.8188C6.10336 14.6835 6.2534 14.5917 6.42082 14.5614C6.50263 14.5614 7.35896 14.2941 7.35896 12.6305V11.0488H5.99538C5.85072 11.0488 5.71198 10.9913 5.6097 10.889C5.50741 10.7867 5.44994 10.648 5.44994 10.5033C5.44994 10.3587 5.50741 10.2199 5.6097 10.1176C5.71198 10.0154 5.85072 9.95789 5.99538 9.95789H7.35896V7.16526C7.34809 6.74531 7.42025 6.32734 7.57131 5.93535C7.72236 5.54335 7.94934 5.18504 8.23921 4.88098C8.52908 4.57692 8.87614 4.33309 9.26048 4.16349C9.64481 3.99389 10.0589 3.90185 10.4788 3.89265C10.9148 3.89593 11.345 3.99198 11.7409 4.17443C12.1369 4.35688 12.4894 4.62153 12.7751 4.9508C12.8357 5.01777 12.8824 5.09601 12.9127 5.18104C12.943 5.26608 12.9562 5.35625 12.9517 5.4464C12.9471 5.53656 12.9248 5.62493 12.8861 5.70648C12.8474 5.78802 12.793 5.86115 12.726 5.92167C12.6591 5.9822 12.5808 6.02894 12.4958 6.05923C12.4108 6.08952 12.3206 6.10276 12.2304 6.0982C12.1403 6.09364 12.0519 6.07137 11.9704 6.03266C11.8888 5.99395 11.8157 5.93955 11.7552 5.87258C11.6005 5.68981 11.4086 5.54221 11.1922 5.43968C10.9758 5.33714 10.7401 5.28204 10.5007 5.27806C10.0179 5.29653 9.56209 5.50546 9.23296 5.85912C8.90382 6.21279 8.72815 6.68241 8.74437 7.16526V9.95789H10.3807C10.5253 9.95789 10.6641 10.0154 10.7664 10.1176C10.8686 10.2199 10.9261 10.3587 10.9261 10.5033C10.9261 10.648 10.8686 10.7867 10.7664 10.889C10.6641 10.9913 10.5253 11.0488 10.3807 11.0488H8.74437V12.6305C8.75754 13.2953 8.61168 13.9535 8.31893 14.5505H13.5006C13.6814 14.5505 13.8548 14.6223 13.9827 14.7501C14.1105 14.878 14.1824 15.0514 14.1824 15.2322C14.1824 15.4131 14.1105 15.5865 13.9827 15.7143C13.8548 15.8422 13.6814 15.914 13.5006 15.914Z" fill="#F92D2D"/>
</svg>
