<svg width="613" height="613" viewBox="0 0 613 613" fill="none" xmlns="http://www.w3.org/2000/svg">
<path d="M569.918 340.08C551.859 388.421 514.981 440.747 463.085 456.244C384.621 479.66 375.303 542.861 234.853 537C214.336 536.245 193.963 533.261 174.092 528.1C164.392 525.536 154.863 522.363 145.563 518.598C63.5068 485.361 20.7072 412.218 17.164 335.691C12.4807 235.024 82.706 187.051 128.35 158.963C173.994 130.876 229.005 22.068 367.113 26.69C388.204 27.3228 409.151 30.3835 429.541 35.8115C476.019 48.3902 523.257 76.2082 550.719 116.875C552.779 119.94 554.749 123.062 556.628 126.241C593.384 188.583 594.524 274.17 569.918 340.08Z" fill="#E2EAF8"/>
<path opacity="0.7" d="M569.918 340.08C551.859 388.421 514.981 440.747 463.085 456.244C384.621 479.66 375.303 542.861 234.853 537C214.336 536.245 193.963 533.261 174.092 528.1C164.392 525.536 154.863 522.363 145.563 518.598C63.5068 485.361 20.7072 412.218 17.164 335.691C12.4807 235.024 82.706 187.051 128.35 158.963C173.994 130.876 229.005 22.068 367.113 26.69C388.204 27.3228 409.151 30.3835 429.541 35.8115C476.019 48.3902 523.257 76.2082 550.719 116.875C552.779 119.94 554.749 123.062 556.628 126.241C593.384 188.583 594.524 274.17 569.918 340.08Z" fill="white"/>
<path d="M443.064 287.166C443.064 287.166 444.915 268.653 437.51 260.317C430.105 251.98 418.998 262.168 421.769 273.275C424.539 284.383 443.064 287.166 443.064 287.166Z" fill="#5A7EC1"/>
<path d="M421.744 369.639C421.744 369.639 424.674 340.828 413.162 327.808C401.65 314.788 384.314 330.701 388.642 348.012C392.97 365.323 421.744 369.639 421.744 369.639Z" fill="#5A7EC1"/>
<path d="M415.54 416.399C415.54 416.399 412.377 387.575 398.376 377.277C384.375 366.979 370.755 386.092 378.589 402.128C386.423 418.164 415.54 416.399 415.54 416.399Z" fill="#5A7EC1"/>
<path d="M444.915 440.526C427.874 443.812 412.598 468.467 412.598 468.467C412.598 468.467 438.123 482.578 452.088 471.483C466.052 460.388 461.969 437.253 444.915 440.526Z" fill="#5A7EC1"/>
<path d="M450.555 483.964C426.158 488.659 404.323 523.931 404.323 523.931C404.323 523.931 440.845 544.123 460.829 528.234C480.813 512.345 474.952 479.268 450.555 483.964Z" fill="#5A7EC1"/>
<path d="M410.71 468.859C411.482 468.859 411.936 468.859 411.936 468.859C411.936 468.859 411.777 467.486 411.397 465.181C413.346 454.257 415.32 440.514 417.661 424.086L418.642 417.245C425.287 420.395 444.388 428.119 455.753 419.059C469.717 407.951 465.635 384.829 448.581 388.115C436.248 390.481 424.846 404.053 419.488 411.347C420.996 400.926 422.639 389.721 424.49 377.988C424.809 376.002 425.164 373.942 425.557 371.797C432.116 376.639 448.164 386.778 460.571 380.599C476.509 372.643 477.343 349.165 459.983 348.834C447.478 348.601 433.575 359.39 426.783 365.446C429.235 353.088 432.753 338.817 436.444 324.718C440.428 327.71 451.045 334.661 459.211 330.591C469.46 325.478 469.975 310.423 458.83 310.215C450.727 310.055 441.74 317.105 437.425 320.979C440.391 309.749 443.456 298.776 446.239 289.103C450.825 292.352 460.437 297.955 467.952 294.203C478.189 289.091 478.716 274.036 467.572 273.827C460.486 273.692 452.725 279.05 447.956 282.998C452.026 268.935 455.214 258.563 456.035 255.878C460.179 253.132 472.684 244.55 474.768 239.413C475.366 237.944 475.668 236.372 475.658 234.786C475.647 233.2 475.325 231.632 474.708 230.17C474.092 228.709 473.193 227.384 472.065 226.27C470.936 225.156 469.599 224.275 468.13 223.678C466.661 223.08 465.088 222.778 463.502 222.789C461.916 222.799 460.348 223.122 458.887 223.738C457.426 224.354 456.1 225.253 454.986 226.381C453.872 227.51 452.991 228.847 452.394 230.316C450.396 235.22 453.068 249.135 454.221 254.542L453.485 254.309C453.375 254.64 449.219 268.077 443.861 286.7L443.53 287.031L443.714 287.19C440.833 297.244 437.584 308.78 434.482 320.562C434.654 314.972 434.323 302.981 428.757 296.729C421.401 288.392 410.244 298.58 413.027 309.688C415.479 319.618 430.559 322.879 433.722 323.468C429.566 339.32 425.667 355.43 423.105 368.83L422.529 369.418L422.933 369.762C422.418 372.459 421.965 375.058 421.585 377.51C418.949 394.208 416.681 409.852 414.744 423.657C412.892 436.591 411.286 447.858 409.729 457.384C407.424 448.152 402.949 435.72 394.735 429.676C380.747 419.366 367.113 438.491 374.948 454.527C380.943 466.787 399.382 468.638 407.719 468.822C407.4 470.465 407.093 472.035 406.775 473.53C405.549 479.476 403.513 495.856 401.539 513.829C398.793 500.588 392.345 478.434 378.773 468.467C358.764 453.755 339.259 481.082 350.464 504.021C359.868 523.281 390.738 524.593 400.399 524.52C397.751 549.616 395.397 574.516 395.213 576.428L398.107 576.698C398.193 575.828 406.382 489.297 409.619 474.18C409.987 472.488 410.342 470.784 410.71 468.859Z" fill="#5A7EC1"/>
<path d="M171.799 194.333C171.799 194.333 164.076 177.574 153.961 175.392C143.847 173.209 139.997 188.988 147.758 196.516C155.518 204.043 171.799 194.333 171.799 194.333Z" fill="#5A7EC1"/>
<path d="M195.755 277.481C195.755 277.481 183.716 251.33 167.962 247.946C152.208 244.562 146.176 269.132 158.277 280.864C170.377 292.597 195.755 277.481 195.755 277.481Z" fill="#5A7EC1"/>
<path d="M214.011 320.832C214.011 320.832 197.104 298.678 180.712 299.144C164.321 299.61 162.886 324.51 177.169 332.896C191.452 341.282 214.011 320.832 214.011 320.832Z" fill="#5A7EC1"/>
<path d="M249.65 322.021C237.562 335.863 237.562 366.5 237.562 366.5C237.562 366.5 265.135 361.768 270.836 343.354C276.537 324.939 261.751 308.167 249.65 322.021Z" fill="#5A7EC1"/>
<path d="M275.85 354.841C258.551 374.653 258.539 418.483 258.539 418.483C258.539 418.483 297.979 411.715 306.157 385.381C314.334 359.046 293.124 335.029 275.85 354.841Z" fill="#5A7EC1"/>
<path d="M236.226 368.07L237.182 367.248C237.182 367.248 236.373 366.194 234.938 364.539C231.064 354.081 225.805 341.245 219.515 325.932L216.892 319.545C223.819 317.877 243.018 311.956 247.664 296.937C253.377 278.547 238.58 261.751 226.479 275.605C217.738 285.609 215.322 304.404 214.648 314.04C210.664 304.305 206.409 293.811 202.057 282.74C201.334 280.877 200.586 278.915 199.838 276.855C207.525 276.659 225.498 274.747 232.388 261.481C241.277 244.415 230.243 224.162 216.107 235.184C205.919 243.104 200.108 261.212 197.656 270.738C193.512 258.735 189.196 244.477 185.151 230.28C189.846 230.206 201.861 229.139 206.397 220.41C212.098 209.45 205.024 196.466 195.952 203.528C189.356 208.665 185.629 220.447 184.072 226.491C180.884 215.138 177.942 203.908 175.293 193.965C180.602 193.72 191.121 192.175 195.302 184.157C201.003 173.209 193.929 160.214 184.856 167.288C179.094 171.775 175.514 181.325 173.675 187.713C169.997 173.246 167.349 162.47 166.675 159.662C168.649 154.672 174.435 139.323 173.553 133.646C172.498 126.817 166.589 122.833 160.361 124.745C154.133 126.658 149.952 133.744 151.006 140.573C151.852 146.029 160.925 155.959 164.492 159.748L163.781 160.03C163.855 160.373 167.202 174.374 172.155 193.5C172.094 193.794 172.057 194.002 172.057 194.002H172.29C174.975 204.337 178.113 216.07 181.473 228.048C178.837 223.242 172.584 213.336 164.995 211.742C154.893 209.548 151.019 225.327 158.792 232.854C165.731 239.585 179.474 232.548 182.306 230.978C186.855 247.002 191.746 263.087 196.368 276.034L196.197 276.904H196.687C197.635 279.512 198.559 281.964 199.458 284.26C205.588 300.002 211.644 314.604 216.928 327.489C221.832 339.553 226.197 350.072 229.691 359.083C223.242 352.831 213.447 345.291 203.823 345.597C187.443 346.038 185.996 370.963 200.279 379.349C211.203 385.761 226.969 375.315 233.774 370.068C234.338 371.646 234.865 373.166 235.355 374.629C237.292 380.465 243.839 395.471 251.22 411.899C242.405 402.557 226.185 388.127 210.284 388.605C186.855 389.23 184.77 424.895 205.208 436.885C222.372 446.951 247.86 427.984 255.596 421.634C265.956 444.449 276.438 466.91 277.26 468.638L279.712 466.983C279.344 466.186 242.846 388.152 237.918 373.341C237.464 371.588 236.863 369.86 236.226 368.07Z" fill="#5A7EC1"/>
<path d="M142.277 408.601C142.277 408.601 133.867 400.767 127.565 401.883C121.264 402.998 122.661 413.015 128.963 415.528C135.265 418.042 142.277 408.601 142.277 408.601Z" fill="#5A7EC1"/>
<path d="M175.71 450.862C175.71 450.862 162.604 438.602 152.723 440.404C142.841 442.206 145.171 457.752 154.917 461.663C164.664 465.574 175.71 450.862 175.71 450.862Z" fill="#5A7EC1"/>
<path d="M196.467 471.532C196.467 471.532 181.485 462.754 172.155 466.873C162.825 470.992 167.864 485.704 178.064 487.163C188.265 488.622 196.467 471.532 196.467 471.532Z" fill="#5A7EC1"/>
<path d="M217.284 463.808C213.606 474.634 220.815 492.3 220.815 492.3C220.815 492.3 235.527 483.056 234.534 471.103C233.541 459.149 220.986 452.97 217.284 463.808Z" fill="#5A7EC1"/>
<path d="M240.124 476.546C234.828 492.043 245.2 517.372 245.2 517.372C245.2 517.372 266.336 504.156 264.816 487.041C263.296 469.926 245.408 461.037 240.124 476.546Z" fill="#5A7EC1"/>
<path d="M220.422 493.514C220.655 493.073 220.778 492.815 220.778 492.815C220.778 492.815 220.055 492.398 218.841 491.785C214.145 486.673 208.089 480.518 200.843 473.175L197.827 470.11C201.42 467.511 211.08 459.566 210.222 449.819C209.168 437.854 196.675 431.687 192.972 442.525C190.3 450.359 193.34 461.761 195.228 467.474C190.631 462.803 185.714 457.764 180.59 452.406C179.719 451.499 178.837 450.543 177.917 449.537C182.294 447.613 192.2 442.267 193.046 432.986C194.137 421.057 183.005 411.985 177.451 421.67C173.454 428.646 174.386 440.453 175.208 446.521C169.985 440.575 164.174 433.379 158.436 426.121C161.133 424.968 167.803 421.523 168.354 415.418C169.053 407.755 161.906 401.932 158.35 408.16C155.763 412.684 156.389 420.346 156.928 424.196C152.404 418.397 148.027 412.647 144.19 407.522C147.194 406.125 152.882 402.753 153.397 397.138C154.096 389.476 146.948 383.652 143.393 389.868C141.125 393.816 141.321 400.166 141.775 404.286C136.209 396.832 132.163 391.229 131.121 389.77C131.121 386.435 130.79 376.223 128.938 373.158C126.719 369.48 122.367 368.572 119.241 371.147C117.682 372.55 116.663 374.455 116.361 376.531C116.058 378.606 116.492 380.722 117.586 382.512C119.351 385.454 126.928 389.047 129.846 390.371L129.502 390.702C129.637 390.886 134.86 398.168 142.24 408.013L142.302 408.332H142.437C146.421 413.652 151.019 419.697 155.763 425.778C153.115 423.632 147.181 419.427 142.424 420.273C136.074 421.401 137.52 431.405 143.822 433.906C149.413 436.15 155.677 428.843 156.94 427.273C163.34 435.438 169.96 443.555 175.673 449.917L175.784 450.457L176.078 450.359C177.231 451.585 178.346 452.811 179.413 453.963C186.695 461.577 193.598 468.577 199.691 474.805C205.392 480.592 210.357 485.631 214.501 489.995C209.303 487.911 201.885 485.888 196.405 488.304C187.063 492.423 192.114 507.135 202.327 508.594C210.136 509.71 216.757 500.012 219.429 495.329C220.141 496.113 220.803 496.873 221.416 497.597C223.868 500.502 231.224 507.625 239.364 515.325C232.082 512.027 219.319 507.539 210.259 511.536C196.908 517.433 204.129 538.508 218.731 540.568C230.991 542.309 241.215 525.366 244.17 519.885C255.535 530.588 266.888 541.046 267.758 541.843L268.788 540.31C268.396 539.943 228.931 503.53 222.605 496.174C221.967 495.304 221.207 494.397 220.422 493.514Z" fill="#5A7EC1"/>
<path d="M396.255 154.243C396.255 154.243 398.707 143.013 394.502 138.133C390.297 133.254 382.463 139.641 383.468 146.299C384.474 152.956 396.255 154.243 396.255 154.243Z" fill="#5A7EC1"/>
<path d="M376.934 204.546C376.934 204.546 380.759 187.051 374.212 179.437C367.665 171.824 355.442 181.791 357.048 192.163C358.654 202.535 376.934 204.546 376.934 204.546Z" fill="#5A7EC1"/>
<path d="M369.725 232.94C369.725 232.94 369.651 215.592 361.339 209.646C353.027 203.7 342.949 215.555 346.909 225.081C350.869 234.607 369.725 232.94 369.725 232.94Z" fill="#5A7EC1"/>
<path d="M386.999 246.916C375.781 249.258 364.281 264.485 364.281 264.485C364.281 264.485 379.753 272.478 389.512 265.478C399.271 258.478 398.205 244.575 386.999 246.916Z" fill="#5A7EC1"/>
<path d="M387.673 273.055C371.637 276.402 355.172 298.188 355.172 298.188C355.172 298.188 377.314 309.626 391.266 299.61C405.218 289.593 403.71 269.72 387.673 273.055Z" fill="#5A7EC1"/>
<path d="M363.031 264.816H363.816C363.816 264.816 363.816 263.995 363.717 262.634C365.716 255.989 367.923 247.64 370.546 237.66C370.898 236.303 371.266 234.918 371.65 233.504C375.72 235.269 387.477 239.536 395.422 233.823C405.23 226.822 404.114 212.981 392.97 215.261C384.866 216.953 376.603 225.388 372.655 229.973C374.335 223.635 376.161 216.83 378.16 209.695C378.491 208.469 378.859 207.243 379.263 205.931C383.15 208.714 392.749 214.513 401.209 210.516C412.034 205.38 414.155 191.17 402.998 191.33C394.956 191.452 385.271 198.269 380.477 202.069C382.929 194.542 386.141 185.837 389.476 177.243C391.842 178.971 398.205 182.944 403.746 180.32C410.686 177.022 412.046 167.901 404.887 168.06C399.676 168.134 393.411 172.584 390.358 175.011C393.043 168.158 395.765 161.464 398.217 155.555C400.951 157.418 406.799 160.606 411.85 158.179C418.802 154.881 420.15 145.759 412.99 145.919C408.442 145.919 403.084 149.388 399.762 151.865C403.354 143.283 406.1 136.956 406.824 135.301C409.68 133.56 418.311 128.117 420.015 124.966C422.051 121.166 420.604 116.973 416.791 115.587C414.796 114.976 412.651 115.075 410.722 115.869C408.792 116.663 407.198 118.101 406.211 119.94C404.58 122.968 405.352 131.305 405.732 134.541L405.279 134.419C405.181 134.627 401.601 142.829 396.868 154.206L396.636 154.415L396.746 154.501C394.196 160.631 391.339 167.68 388.519 174.864C389.022 171.493 389.611 164.247 386.46 160.581C382.255 155.677 374.408 162.089 375.426 168.734C376.345 174.693 385.81 176.348 387.808 176.642C384.057 186.315 380.452 196.135 377.878 204.301L377.473 204.668L377.706 204.865C377.191 206.507 376.725 208.089 376.308 209.572C373.476 219.724 370.963 229.188 368.756 237.611C366.684 245.482 364.882 252.323 363.227 258.11C362.381 252.581 360.334 245.163 355.466 241.669C347.154 235.735 337.076 247.578 341.024 257.104C344.052 264.399 355.797 265.135 361.155 265.073C360.849 266.079 360.53 267.023 360.223 267.93C358.997 271.608 356.545 281.502 354.093 292.45C353.223 284.506 350.575 271.24 342.52 265.478C330.64 256.982 316.21 273.925 321.862 287.546C326.606 298.997 346.382 299.144 352.622 298.899C349.202 314.126 345.989 329.23 345.744 330.382L347.596 330.493C347.706 329.953 358.875 277.481 361.989 268.273C362.32 266.974 362.675 265.895 363.031 264.816Z" fill="#5A7EC1"/>
<path d="M398.291 563.016H296.238V577.691H398.291V563.016Z" fill="white" stroke="#71B7F0" stroke-width="1.93987" stroke-linejoin="round"/>
<path d="M301.841 563.286V573.694" stroke="#71B7F0" stroke-width="1.93987" stroke-linejoin="round"/>
<path d="M307.42 577.029V565.517" stroke="#71B7F0" stroke-width="1.93987" stroke-linejoin="round"/>
<path d="M314.481 563.286V575.926" stroke="#71B7F0" stroke-width="1.93987" stroke-linejoin="round"/>
<path d="M322.279 562.918V572.199" stroke="#71B7F0" stroke-width="1.93987" stroke-linejoin="round"/>
<path d="M329.34 563.654V576.661" stroke="#71B7F0" stroke-width="1.93987" stroke-linejoin="round"/>
<path d="M336.402 577.029V569.232" stroke="#71B7F0" stroke-width="1.93987" stroke-linejoin="round"/>
<path d="M342.716 563.654V571.095" stroke="#71B7F0" stroke-width="1.93987" stroke-linejoin="round"/>
<path d="M351.629 574.81V570.347" stroke="#71B7F0" stroke-width="1.93987" stroke-linejoin="round"/>
<path d="M369.296 563.543H363.252V577.213H369.296V563.543Z" fill="#71B7F0" stroke="#71B7F0" stroke-width="1.93987" stroke-linejoin="round"/>
<path d="M373.427 563.543H371.515V577.213H373.427V563.543Z" fill="#71B7F0" stroke="#71B7F0" stroke-width="1.93987" stroke-linejoin="round"/>
<path d="M393.374 548.304H291.322V562.979H393.374V548.304Z" fill="white" stroke="#71B7F0" stroke-width="1.93987" stroke-linejoin="round"/>
<path d="M296.937 548.574V558.982" stroke="#71B7F0" stroke-width="1.93987" stroke-linejoin="round"/>
<path d="M302.515 562.317V550.805" stroke="#71B7F0" stroke-width="1.93987" stroke-linejoin="round"/>
<path d="M309.577 548.574V561.214" stroke="#71B7F0" stroke-width="1.93987" stroke-linejoin="round"/>
<path d="M317.375 548.206V557.487" stroke="#71B7F0" stroke-width="1.93987" stroke-linejoin="round"/>
<path d="M324.436 548.941V561.949" stroke="#71B7F0" stroke-width="1.93987" stroke-linejoin="round"/>
<path d="M331.498 562.317V554.52" stroke="#71B7F0" stroke-width="1.93987" stroke-linejoin="round"/>
<path d="M337.812 548.941V556.383" stroke="#71B7F0" stroke-width="1.93987" stroke-linejoin="round"/>
<path d="M346.725 560.098V555.635" stroke="#71B7F0" stroke-width="1.93987" stroke-linejoin="round"/>
<path d="M364.392 548.831H358.348V562.501H364.392V548.831Z" fill="#71B7F0" stroke="#71B7F0" stroke-width="1.93987" stroke-linejoin="round"/>
<path d="M368.523 548.831H366.611V562.501H368.523V548.831Z" fill="#71B7F0" stroke="#71B7F0" stroke-width="1.93987" stroke-linejoin="round"/>
<path d="M397.065 533.592H295.012V548.267H397.065V533.592Z" fill="white" stroke="#71B7F0" stroke-width="1.93987" stroke-linejoin="round"/>
<path d="M300.615 533.862V544.27" stroke="#71B7F0" stroke-width="1.93987" stroke-linejoin="round"/>
<path d="M306.194 547.605V536.093" stroke="#71B7F0" stroke-width="1.93987" stroke-linejoin="round"/>
<path d="M313.255 533.862V546.502" stroke="#71B7F0" stroke-width="1.93987" stroke-linejoin="round"/>
<path d="M321.053 533.494V542.775" stroke="#71B7F0" stroke-width="1.93987" stroke-linejoin="round"/>
<path d="M328.114 534.229V547.237" stroke="#71B7F0" stroke-width="1.93987" stroke-linejoin="round"/>
<path d="M335.176 547.605V539.808" stroke="#71B7F0" stroke-width="1.93987" stroke-linejoin="round"/>
<path d="M341.49 534.229V541.671" stroke="#71B7F0" stroke-width="1.93987" stroke-linejoin="round"/>
<path d="M350.403 545.386V540.923" stroke="#71B7F0" stroke-width="1.93987" stroke-linejoin="round"/>
<path d="M368.07 534.119H362.026V547.789H368.07V534.119Z" fill="#71B7F0" stroke="#71B7F0" stroke-width="1.93987" stroke-linejoin="round"/>
<path d="M372.201 534.119H370.289V547.789H372.201V534.119Z" fill="#71B7F0" stroke="#71B7F0" stroke-width="1.93987" stroke-linejoin="round"/>
<path d="M393.374 518.88H291.322V533.555H393.374V518.88Z" fill="white" stroke="#71B7F0" stroke-width="1.93987" stroke-linejoin="round"/>
<path d="M296.937 519.15V529.558" stroke="#71B7F0" stroke-width="1.93987" stroke-linejoin="round"/>
<path d="M302.515 532.893V521.381" stroke="#71B7F0" stroke-width="1.93987" stroke-linejoin="round"/>
<path d="M309.577 519.15V531.79" stroke="#71B7F0" stroke-width="1.93987" stroke-linejoin="round"/>
<path d="M317.375 518.782V528.063" stroke="#71B7F0" stroke-width="1.93987" stroke-linejoin="round"/>
<path d="M324.436 519.517V532.525" stroke="#71B7F0" stroke-width="1.93987" stroke-linejoin="round"/>
<path d="M331.498 532.893V525.096" stroke="#71B7F0" stroke-width="1.93987" stroke-linejoin="round"/>
<path d="M337.812 519.517V526.959" stroke="#71B7F0" stroke-width="1.93987" stroke-linejoin="round"/>
<path d="M346.725 530.674V526.211" stroke="#71B7F0" stroke-width="1.93987" stroke-linejoin="round"/>
<path d="M364.392 519.407H358.348V533.077H364.392V519.407Z" fill="#71B7F0" stroke="#71B7F0" stroke-width="1.93987" stroke-linejoin="round"/>
<path d="M368.523 519.407H366.611V533.077H368.523V519.407Z" fill="#71B7F0" stroke="#71B7F0" stroke-width="1.93987" stroke-linejoin="round"/>
<path d="M397.065 504.168H295.012V518.843H397.065V504.168Z" fill="white" stroke="#71B7F0" stroke-width="1.93987" stroke-linejoin="round"/>
<path d="M300.615 504.438V514.846" stroke="#71B7F0" stroke-width="1.93987" stroke-linejoin="round"/>
<path d="M306.194 518.181V506.669" stroke="#71B7F0" stroke-width="1.93987" stroke-linejoin="round"/>
<path d="M313.255 504.438V517.078" stroke="#71B7F0" stroke-width="1.93987" stroke-linejoin="round"/>
<path d="M321.053 504.07V513.351" stroke="#71B7F0" stroke-width="1.93987" stroke-linejoin="round"/>
<path d="M328.114 504.805V517.813" stroke="#71B7F0" stroke-width="1.93987" stroke-linejoin="round"/>
<path d="M335.176 518.181V510.384" stroke="#71B7F0" stroke-width="1.93987" stroke-linejoin="round"/>
<path d="M341.49 504.805V512.247" stroke="#71B7F0" stroke-width="1.93987" stroke-linejoin="round"/>
<path d="M350.403 515.962V511.499" stroke="#71B7F0" stroke-width="1.93987" stroke-linejoin="round"/>
<path d="M368.07 504.695H362.026V518.365H368.07V504.695Z" fill="#71B7F0" stroke="#71B7F0" stroke-width="1.93987" stroke-linejoin="round"/>
<path d="M372.201 504.695H370.289V518.365H372.201V504.695Z" fill="#71B7F0" stroke="#71B7F0" stroke-width="1.93987" stroke-linejoin="round"/>
<path d="M397.065 489.456H295.012V504.131H397.065V489.456Z" fill="white" stroke="#71B7F0" stroke-width="1.93987" stroke-linejoin="round"/>
<path d="M300.615 489.726V500.134" stroke="#71B7F0" stroke-width="1.93987" stroke-linejoin="round"/>
<path d="M306.194 503.469V491.957" stroke="#71B7F0" stroke-width="1.93987" stroke-linejoin="round"/>
<path d="M313.255 489.726V502.366" stroke="#71B7F0" stroke-width="1.93987" stroke-linejoin="round"/>
<path d="M321.053 489.358V498.639" stroke="#71B7F0" stroke-width="1.93987" stroke-linejoin="round"/>
<path d="M328.114 490.093V503.101" stroke="#71B7F0" stroke-width="1.93987" stroke-linejoin="round"/>
<path d="M335.176 503.469V495.672" stroke="#71B7F0" stroke-width="1.93987" stroke-linejoin="round"/>
<path d="M341.49 490.093V497.535" stroke="#71B7F0" stroke-width="1.93987" stroke-linejoin="round"/>
<path d="M350.403 501.25V496.787" stroke="#71B7F0" stroke-width="1.93987" stroke-linejoin="round"/>
<path d="M368.07 489.983H362.026V503.653H368.07V489.983Z" fill="#71B7F0" stroke="#71B7F0" stroke-width="1.93987" stroke-linejoin="round"/>
<path d="M372.201 489.983H370.289V503.653H372.201V489.983Z" fill="#71B7F0" stroke="#71B7F0" stroke-width="1.93987" stroke-linejoin="round"/>
<path d="M395.839 474.744H293.786V489.419H395.839V474.744Z" fill="white" stroke="#71B7F0" stroke-width="1.93987" stroke-linejoin="round"/>
<path d="M299.389 475.014V485.422" stroke="#71B7F0" stroke-width="1.93987" stroke-linejoin="round"/>
<path d="M304.967 488.757V477.245" stroke="#71B7F0" stroke-width="1.93987" stroke-linejoin="round"/>
<path d="M312.029 475.014V487.654" stroke="#71B7F0" stroke-width="1.93987" stroke-linejoin="round"/>
<path d="M319.827 474.646V483.927" stroke="#71B7F0" stroke-width="1.93987" stroke-linejoin="round"/>
<path d="M326.888 475.381V488.389" stroke="#71B7F0" stroke-width="1.93987" stroke-linejoin="round"/>
<path d="M333.95 488.757V480.96" stroke="#71B7F0" stroke-width="1.93987" stroke-linejoin="round"/>
<path d="M340.264 475.381V482.823" stroke="#71B7F0" stroke-width="1.93987" stroke-linejoin="round"/>
<path d="M349.177 486.538V482.075" stroke="#71B7F0" stroke-width="1.93987" stroke-linejoin="round"/>
<path d="M366.844 475.271H360.8V488.941H366.844V475.271Z" fill="#71B7F0" stroke="#71B7F0" stroke-width="1.93987" stroke-linejoin="round"/>
<path d="M370.975 475.271H369.063V488.941H370.975V475.271Z" fill="#71B7F0" stroke="#71B7F0" stroke-width="1.93987" stroke-linejoin="round"/>
<path d="M389.696 460.032H287.644V474.707H389.696V460.032Z" fill="white" stroke="#71B7F0" stroke-width="1.93987" stroke-linejoin="round"/>
<path d="M293.259 460.302V470.71" stroke="#71B7F0" stroke-width="1.93987" stroke-linejoin="round"/>
<path d="M298.837 474.045V462.533" stroke="#71B7F0" stroke-width="1.93987" stroke-linejoin="round"/>
<path d="M305.899 460.302V472.942" stroke="#71B7F0" stroke-width="1.93987" stroke-linejoin="round"/>
<path d="M313.697 459.934V469.215" stroke="#71B7F0" stroke-width="1.93987" stroke-linejoin="round"/>
<path d="M320.758 460.67V473.677" stroke="#71B7F0" stroke-width="1.93987" stroke-linejoin="round"/>
<path d="M327.82 474.045V466.248" stroke="#71B7F0" stroke-width="1.93987" stroke-linejoin="round"/>
<path d="M334.134 460.67V468.111" stroke="#71B7F0" stroke-width="1.93987" stroke-linejoin="round"/>
<path d="M343.047 471.826V467.363" stroke="#71B7F0" stroke-width="1.93987" stroke-linejoin="round"/>
<path d="M360.714 460.559H354.67V474.229H360.714V460.559Z" fill="#71B7F0" stroke="#71B7F0" stroke-width="1.93987" stroke-linejoin="round"/>
<path d="M364.845 460.559H362.933V474.229H364.845V460.559Z" fill="#71B7F0" stroke="#71B7F0" stroke-width="1.93987" stroke-linejoin="round"/>
<path d="M390.922 445.32H288.87V459.995H390.922V445.32Z" fill="white" stroke="#71B7F0" stroke-width="1.93987" stroke-linejoin="round"/>
<path d="M294.485 445.59V455.998" stroke="#71B7F0" stroke-width="1.93987" stroke-linejoin="round"/>
<path d="M300.064 459.333V447.821" stroke="#71B7F0" stroke-width="1.93987" stroke-linejoin="round"/>
<path d="M307.125 445.59V458.23" stroke="#71B7F0" stroke-width="1.93987" stroke-linejoin="round"/>
<path d="M314.923 445.222V454.503" stroke="#71B7F0" stroke-width="1.93987" stroke-linejoin="round"/>
<path d="M321.984 445.957V458.965" stroke="#71B7F0" stroke-width="1.93987" stroke-linejoin="round"/>
<path d="M329.046 459.333V451.536" stroke="#71B7F0" stroke-width="1.93987" stroke-linejoin="round"/>
<path d="M335.36 445.957V453.399" stroke="#71B7F0" stroke-width="1.93987" stroke-linejoin="round"/>
<path d="M344.273 457.114V452.651" stroke="#71B7F0" stroke-width="1.93987" stroke-linejoin="round"/>
<path d="M361.94 445.847H355.896V459.517H361.94V445.847Z" fill="#71B7F0" stroke="#71B7F0" stroke-width="1.93987" stroke-linejoin="round"/>
<path d="M366.071 445.847H364.159V459.517H366.071V445.847Z" fill="#71B7F0" stroke="#71B7F0" stroke-width="1.93987" stroke-linejoin="round"/>
<path d="M389.696 430.608H287.644V445.283H389.696V430.608Z" fill="white" stroke="#71B7F0" stroke-width="1.93987" stroke-linejoin="round"/>
<path d="M293.259 430.878V441.286" stroke="#71B7F0" stroke-width="1.93987" stroke-linejoin="round"/>
<path d="M298.837 444.621V433.109" stroke="#71B7F0" stroke-width="1.93987" stroke-linejoin="round"/>
<path d="M305.899 430.878V443.518" stroke="#71B7F0" stroke-width="1.93987" stroke-linejoin="round"/>
<path d="M313.697 430.51V439.791" stroke="#71B7F0" stroke-width="1.93987" stroke-linejoin="round"/>
<path d="M320.758 431.245V444.253" stroke="#71B7F0" stroke-width="1.93987" stroke-linejoin="round"/>
<path d="M327.82 444.621V436.824" stroke="#71B7F0" stroke-width="1.93987" stroke-linejoin="round"/>
<path d="M334.134 431.245V438.687" stroke="#71B7F0" stroke-width="1.93987" stroke-linejoin="round"/>
<path d="M343.047 442.402V437.939" stroke="#71B7F0" stroke-width="1.93987" stroke-linejoin="round"/>
<path d="M360.714 431.135H354.67V444.805H360.714V431.135Z" fill="#71B7F0" stroke="#71B7F0" stroke-width="1.93987" stroke-linejoin="round"/>
<path d="M364.845 431.135H362.933V444.805H364.845V431.135Z" fill="#71B7F0" stroke="#71B7F0" stroke-width="1.93987" stroke-linejoin="round"/>
<path d="M397.065 415.896H295.012V430.571H397.065V415.896Z" fill="white" stroke="#71B7F0" stroke-width="1.93987" stroke-linejoin="round"/>
<path d="M300.615 416.166V426.574" stroke="#71B7F0" stroke-width="1.93987" stroke-linejoin="round"/>
<path d="M306.194 429.909V418.397" stroke="#71B7F0" stroke-width="1.93987" stroke-linejoin="round"/>
<path d="M313.255 416.166V428.806" stroke="#71B7F0" stroke-width="1.93987" stroke-linejoin="round"/>
<path d="M321.053 415.798V425.079" stroke="#71B7F0" stroke-width="1.93987" stroke-linejoin="round"/>
<path d="M328.114 416.534V429.541" stroke="#71B7F0" stroke-width="1.93987" stroke-linejoin="round"/>
<path d="M335.176 429.909V422.112" stroke="#71B7F0" stroke-width="1.93987" stroke-linejoin="round"/>
<path d="M341.49 416.534V423.975" stroke="#71B7F0" stroke-width="1.93987" stroke-linejoin="round"/>
<path d="M350.403 427.69V423.227" stroke="#71B7F0" stroke-width="1.93987" stroke-linejoin="round"/>
<path d="M368.07 416.423H362.026V430.093H368.07V416.423Z" fill="#71B7F0" stroke="#71B7F0" stroke-width="1.93987" stroke-linejoin="round"/>
<path d="M372.201 416.423H370.289V430.093H372.201V416.423Z" fill="#71B7F0" stroke="#71B7F0" stroke-width="1.93987" stroke-linejoin="round"/>
<path d="M393.374 401.454H291.322V416.129H393.374V401.454Z" fill="white" stroke="#71B7F0" stroke-width="1.93987" stroke-linejoin="round"/>
<path d="M296.937 401.723V412.132" stroke="#71B7F0" stroke-width="1.93987" stroke-linejoin="round"/>
<path d="M302.515 415.479V403.955" stroke="#71B7F0" stroke-width="1.93987" stroke-linejoin="round"/>
<path d="M309.577 401.723V414.364" stroke="#71B7F0" stroke-width="1.93987" stroke-linejoin="round"/>
<path d="M317.375 401.356V410.649" stroke="#71B7F0" stroke-width="1.93987" stroke-linejoin="round"/>
<path d="M324.436 402.103V415.099" stroke="#71B7F0" stroke-width="1.93987" stroke-linejoin="round"/>
<path d="M331.498 415.479V407.67" stroke="#71B7F0" stroke-width="1.93987" stroke-linejoin="round"/>
<path d="M337.812 402.103V409.533" stroke="#71B7F0" stroke-width="1.93987" stroke-linejoin="round"/>
<path d="M346.725 413.248V408.785" stroke="#71B7F0" stroke-width="1.93987" stroke-linejoin="round"/>
<path d="M364.392 401.993H358.348V415.663H364.392V401.993Z" fill="#71B7F0" stroke="#71B7F0" stroke-width="1.93987" stroke-linejoin="round"/>
<path d="M368.523 401.993H366.611V415.663H368.523V401.993Z" fill="#71B7F0" stroke="#71B7F0" stroke-width="1.93987" stroke-linejoin="round"/>
<path d="M397.065 386.742H295.012V401.417H397.065V386.742Z" fill="white" stroke="#71B7F0" stroke-width="1.93987" stroke-linejoin="round"/>
<path d="M300.615 387.011V397.42" stroke="#71B7F0" stroke-width="1.93987" stroke-linejoin="round"/>
<path d="M306.194 400.767V389.243" stroke="#71B7F0" stroke-width="1.93987" stroke-linejoin="round"/>
<path d="M313.255 387.011V399.651" stroke="#71B7F0" stroke-width="1.93987" stroke-linejoin="round"/>
<path d="M321.053 386.644V395.937" stroke="#71B7F0" stroke-width="1.93987" stroke-linejoin="round"/>
<path d="M328.114 387.391V400.387" stroke="#71B7F0" stroke-width="1.93987" stroke-linejoin="round"/>
<path d="M335.176 400.767V392.958" stroke="#71B7F0" stroke-width="1.93987" stroke-linejoin="round"/>
<path d="M341.49 387.391V394.821" stroke="#71B7F0" stroke-width="1.93987" stroke-linejoin="round"/>
<path d="M350.403 398.536V394.073" stroke="#71B7F0" stroke-width="1.93987" stroke-linejoin="round"/>
<path d="M368.07 387.281H362.026V400.951H368.07V387.281Z" fill="#71B7F0" stroke="#71B7F0" stroke-width="1.93987" stroke-linejoin="round"/>
<path d="M372.201 387.281H370.289V400.951H372.201V387.281Z" fill="#71B7F0" stroke="#71B7F0" stroke-width="1.93987" stroke-linejoin="round"/>
<path d="M393.374 372.03H291.322V386.705H393.374V372.03Z" fill="white" stroke="#71B7F0" stroke-width="1.93987" stroke-linejoin="round"/>
<path d="M296.937 372.299V382.708" stroke="#71B7F0" stroke-width="1.93987" stroke-linejoin="round"/>
<path d="M302.515 386.055V374.531" stroke="#71B7F0" stroke-width="1.93987" stroke-linejoin="round"/>
<path d="M309.577 372.299V384.939" stroke="#71B7F0" stroke-width="1.93987" stroke-linejoin="round"/>
<path d="M317.375 371.932V381.225" stroke="#71B7F0" stroke-width="1.93987" stroke-linejoin="round"/>
<path d="M324.436 372.679V385.675" stroke="#71B7F0" stroke-width="1.93987" stroke-linejoin="round"/>
<path d="M331.498 386.055V378.246" stroke="#71B7F0" stroke-width="1.93987" stroke-linejoin="round"/>
<path d="M337.812 372.679V380.109" stroke="#71B7F0" stroke-width="1.93987" stroke-linejoin="round"/>
<path d="M346.725 383.824V379.361" stroke="#71B7F0" stroke-width="1.93987" stroke-linejoin="round"/>
<path d="M364.392 372.569H358.348V386.239H364.392V372.569Z" fill="#71B7F0" stroke="#71B7F0" stroke-width="1.93987" stroke-linejoin="round"/>
<path d="M368.523 372.569H366.611V386.239H368.523V372.569Z" fill="#71B7F0" stroke="#71B7F0" stroke-width="1.93987" stroke-linejoin="round"/>
<path d="M393.374 357.318H291.322V371.993H393.374V357.318Z" fill="white" stroke="#71B7F0" stroke-width="1.93987" stroke-linejoin="round"/>
<path d="M296.937 357.587V367.996" stroke="#71B7F0" stroke-width="1.93987" stroke-linejoin="round"/>
<path d="M302.515 371.343V359.819" stroke="#71B7F0" stroke-width="1.93987" stroke-linejoin="round"/>
<path d="M309.577 357.587V370.228" stroke="#71B7F0" stroke-width="1.93987" stroke-linejoin="round"/>
<path d="M317.375 357.22V366.513" stroke="#71B7F0" stroke-width="1.93987" stroke-linejoin="round"/>
<path d="M324.436 357.968V370.963" stroke="#71B7F0" stroke-width="1.93987" stroke-linejoin="round"/>
<path d="M331.498 371.343V363.534" stroke="#71B7F0" stroke-width="1.93987" stroke-linejoin="round"/>
<path d="M337.812 357.968V365.397" stroke="#71B7F0" stroke-width="1.93987" stroke-linejoin="round"/>
<path d="M346.725 369.112V364.649" stroke="#71B7F0" stroke-width="1.93987" stroke-linejoin="round"/>
<path d="M364.392 357.857H358.348V371.527H364.392V357.857Z" fill="#71B7F0" stroke="#71B7F0" stroke-width="1.93987" stroke-linejoin="round"/>
<path d="M368.523 357.857H366.611V371.527H368.523V357.857Z" fill="#71B7F0" stroke="#71B7F0" stroke-width="1.93987" stroke-linejoin="round"/>
<path d="M393.374 342.606H291.322V357.281H393.374V342.606Z" fill="white" stroke="#71B7F0" stroke-width="1.93987" stroke-linejoin="round"/>
<path d="M296.937 342.875V353.284" stroke="#71B7F0" stroke-width="1.93987" stroke-linejoin="round"/>
<path d="M302.515 356.631V345.107" stroke="#71B7F0" stroke-width="1.93987" stroke-linejoin="round"/>
<path d="M309.577 342.875V355.516" stroke="#71B7F0" stroke-width="1.93987" stroke-linejoin="round"/>
<path d="M317.375 342.508V351.801" stroke="#71B7F0" stroke-width="1.93987" stroke-linejoin="round"/>
<path d="M324.436 343.256V356.251" stroke="#71B7F0" stroke-width="1.93987" stroke-linejoin="round"/>
<path d="M331.498 356.631V348.822" stroke="#71B7F0" stroke-width="1.93987" stroke-linejoin="round"/>
<path d="M337.812 343.256V350.685" stroke="#71B7F0" stroke-width="1.93987" stroke-linejoin="round"/>
<path d="M346.725 354.4V349.937" stroke="#71B7F0" stroke-width="1.93987" stroke-linejoin="round"/>
<path d="M364.392 343.145H358.348V356.815H364.392V343.145Z" fill="#71B7F0" stroke="#71B7F0" stroke-width="1.93987" stroke-linejoin="round"/>
<path d="M368.523 343.145H366.611V356.815H368.523V343.145Z" fill="#71B7F0" stroke="#71B7F0" stroke-width="1.93987" stroke-linejoin="round"/>
<path d="M388.47 327.894H286.418V342.569H388.47V327.894Z" fill="white" stroke="#71B7F0" stroke-width="1.93987" stroke-linejoin="round"/>
<path d="M292.033 328.163V338.572" stroke="#71B7F0" stroke-width="1.93987" stroke-linejoin="round"/>
<path d="M297.612 341.919V330.395" stroke="#71B7F0" stroke-width="1.93987" stroke-linejoin="round"/>
<path d="M304.673 328.163V340.803" stroke="#71B7F0" stroke-width="1.93987" stroke-linejoin="round"/>
<path d="M312.471 327.796V337.089" stroke="#71B7F0" stroke-width="1.93987" stroke-linejoin="round"/>
<path d="M319.532 328.543V341.539" stroke="#71B7F0" stroke-width="1.93987" stroke-linejoin="round"/>
<path d="M326.594 341.919V334.11" stroke="#71B7F0" stroke-width="1.93987" stroke-linejoin="round"/>
<path d="M332.908 328.543V335.973" stroke="#71B7F0" stroke-width="1.93987" stroke-linejoin="round"/>
<path d="M341.821 339.688V335.225" stroke="#71B7F0" stroke-width="1.93987" stroke-linejoin="round"/>
<path d="M359.488 328.433H353.444V342.103H359.488V328.433Z" fill="#71B7F0" stroke="#71B7F0" stroke-width="1.93987" stroke-linejoin="round"/>
<path d="M363.619 328.433H361.707V342.103H363.619V328.433Z" fill="#71B7F0" stroke="#71B7F0" stroke-width="1.93987" stroke-linejoin="round"/>
<path d="M393.374 313.182H291.322V327.857H393.374V313.182Z" fill="white" stroke="#71B7F0" stroke-width="1.93987" stroke-linejoin="round"/>
<path d="M296.937 313.451V323.86" stroke="#71B7F0" stroke-width="1.93987" stroke-linejoin="round"/>
<path d="M302.515 327.207V315.683" stroke="#71B7F0" stroke-width="1.93987" stroke-linejoin="round"/>
<path d="M309.577 313.451V326.091" stroke="#71B7F0" stroke-width="1.93987" stroke-linejoin="round"/>
<path d="M317.375 313.084V322.377" stroke="#71B7F0" stroke-width="1.93987" stroke-linejoin="round"/>
<path d="M324.436 313.831V326.827" stroke="#71B7F0" stroke-width="1.93987" stroke-linejoin="round"/>
<path d="M331.498 327.207V319.398" stroke="#71B7F0" stroke-width="1.93987" stroke-linejoin="round"/>
<path d="M337.812 313.831V321.261" stroke="#71B7F0" stroke-width="1.93987" stroke-linejoin="round"/>
<path d="M346.725 324.976V320.513" stroke="#71B7F0" stroke-width="1.93987" stroke-linejoin="round"/>
<path d="M364.392 313.721H358.348V327.391H364.392V313.721Z" fill="#71B7F0" stroke="#71B7F0" stroke-width="1.93987" stroke-linejoin="round"/>
<path d="M368.523 313.721H366.611V327.391H368.523V313.721Z" fill="#71B7F0" stroke="#71B7F0" stroke-width="1.93987" stroke-linejoin="round"/>
<path d="M387.244 298.47H285.192V313.145H387.244V298.47Z" fill="white" stroke="#71B7F0" stroke-width="1.93987" stroke-linejoin="round"/>
<path d="M290.807 298.739V309.148" stroke="#71B7F0" stroke-width="1.93987" stroke-linejoin="round"/>
<path d="M296.385 312.495V300.971" stroke="#71B7F0" stroke-width="1.93987" stroke-linejoin="round"/>
<path d="M303.447 298.739V311.379" stroke="#71B7F0" stroke-width="1.93987" stroke-linejoin="round"/>
<path d="M311.245 298.372V307.665" stroke="#71B7F0" stroke-width="1.93987" stroke-linejoin="round"/>
<path d="M318.306 299.119V312.115" stroke="#71B7F0" stroke-width="1.93987" stroke-linejoin="round"/>
<path d="M325.368 312.495V304.686" stroke="#71B7F0" stroke-width="1.93987" stroke-linejoin="round"/>
<path d="M331.682 299.119V306.549" stroke="#71B7F0" stroke-width="1.93987" stroke-linejoin="round"/>
<path d="M340.595 310.264V305.801" stroke="#71B7F0" stroke-width="1.93987" stroke-linejoin="round"/>
<path d="M358.262 299.009H352.218V312.679H358.262V299.009Z" fill="#71B7F0" stroke="#71B7F0" stroke-width="1.93987" stroke-linejoin="round"/>
<path d="M362.393 299.009H360.481V312.679H362.393V299.009Z" fill="#71B7F0" stroke="#71B7F0" stroke-width="1.93987" stroke-linejoin="round"/>
<path d="M393.374 283.758H291.322V298.433H393.374V283.758Z" fill="white" stroke="#71B7F0" stroke-width="1.93987" stroke-linejoin="round"/>
<path d="M296.937 284.027V294.436" stroke="#71B7F0" stroke-width="1.93987" stroke-linejoin="round"/>
<path d="M302.515 297.783V286.259" stroke="#71B7F0" stroke-width="1.93987" stroke-linejoin="round"/>
<path d="M309.577 284.027V296.667" stroke="#71B7F0" stroke-width="1.93987" stroke-linejoin="round"/>
<path d="M317.375 283.66V292.953" stroke="#71B7F0" stroke-width="1.93987" stroke-linejoin="round"/>
<path d="M324.436 284.407V297.403" stroke="#71B7F0" stroke-width="1.93987" stroke-linejoin="round"/>
<path d="M331.498 297.783V289.974" stroke="#71B7F0" stroke-width="1.93987" stroke-linejoin="round"/>
<path d="M337.812 284.407V291.837" stroke="#71B7F0" stroke-width="1.93987" stroke-linejoin="round"/>
<path d="M346.725 295.552V291.089" stroke="#71B7F0" stroke-width="1.93987" stroke-linejoin="round"/>
<path d="M364.392 284.297H358.348V297.967H364.392V284.297Z" fill="#71B7F0" stroke="#71B7F0" stroke-width="1.93987" stroke-linejoin="round"/>
<path d="M368.523 284.297H366.611V297.967H368.523V284.297Z" fill="#71B7F0" stroke="#71B7F0" stroke-width="1.93987" stroke-linejoin="round"/>
<path d="M388.47 269.046H286.418V283.721H388.47V269.046Z" fill="white" stroke="#71B7F0" stroke-width="1.93987" stroke-linejoin="round"/>
<path d="M292.033 269.315V279.724" stroke="#71B7F0" stroke-width="1.93987" stroke-linejoin="round"/>
<path d="M297.612 283.071V271.547" stroke="#71B7F0" stroke-width="1.93987" stroke-linejoin="round"/>
<path d="M304.673 269.315V281.955" stroke="#71B7F0" stroke-width="1.93987" stroke-linejoin="round"/>
<path d="M312.471 268.948V278.241" stroke="#71B7F0" stroke-width="1.93987" stroke-linejoin="round"/>
<path d="M319.532 269.695V282.691" stroke="#71B7F0" stroke-width="1.93987" stroke-linejoin="round"/>
<path d="M326.594 283.071V275.262" stroke="#71B7F0" stroke-width="1.93987" stroke-linejoin="round"/>
<path d="M332.908 269.695V277.125" stroke="#71B7F0" stroke-width="1.93987" stroke-linejoin="round"/>
<path d="M341.821 280.84V276.377" stroke="#71B7F0" stroke-width="1.93987" stroke-linejoin="round"/>
<path d="M359.488 269.585H353.444V283.255H359.488V269.585Z" fill="#71B7F0" stroke="#71B7F0" stroke-width="1.93987" stroke-linejoin="round"/>
<path d="M363.619 269.585H361.707V283.255H363.619V269.585Z" fill="#71B7F0" stroke="#71B7F0" stroke-width="1.93987" stroke-linejoin="round"/>
<path d="M393.374 254.334H291.322V269.009H393.374V254.334Z" fill="white" stroke="#71B7F0" stroke-width="1.93987" stroke-linejoin="round"/>
<path d="M296.937 254.603V265.012" stroke="#71B7F0" stroke-width="1.93987" stroke-linejoin="round"/>
<path d="M302.515 268.359V256.835" stroke="#71B7F0" stroke-width="1.93987" stroke-linejoin="round"/>
<path d="M309.577 254.603V267.243" stroke="#71B7F0" stroke-width="1.93987" stroke-linejoin="round"/>
<path d="M317.375 254.236V263.529" stroke="#71B7F0" stroke-width="1.93987" stroke-linejoin="round"/>
<path d="M324.436 254.983V267.979" stroke="#71B7F0" stroke-width="1.93987" stroke-linejoin="round"/>
<path d="M331.498 268.359V260.55" stroke="#71B7F0" stroke-width="1.93987" stroke-linejoin="round"/>
<path d="M337.812 254.983V262.413" stroke="#71B7F0" stroke-width="1.93987" stroke-linejoin="round"/>
<path d="M346.725 266.128V261.665" stroke="#71B7F0" stroke-width="1.93987" stroke-linejoin="round"/>
<path d="M364.392 254.873H358.348V268.543H364.392V254.873Z" fill="#71B7F0" stroke="#71B7F0" stroke-width="1.93987" stroke-linejoin="round"/>
<path d="M368.523 254.873H366.611V268.543H368.523V254.873Z" fill="#71B7F0" stroke="#71B7F0" stroke-width="1.93987" stroke-linejoin="round"/>
<path d="M315.83 563.016H213.778V577.691H315.83V563.016Z" fill="white" stroke="#71B7F0" stroke-width="1.93987" stroke-linejoin="round"/>
<path d="M219.393 563.286V573.694" stroke="#71B7F0" stroke-width="1.93987" stroke-linejoin="round"/>
<path d="M224.959 577.029V565.517" stroke="#71B7F0" stroke-width="1.93987" stroke-linejoin="round"/>
<path d="M232.02 563.286V575.926" stroke="#71B7F0" stroke-width="1.93987" stroke-linejoin="round"/>
<path d="M239.83 562.918V572.199" stroke="#71B7F0" stroke-width="1.93987" stroke-linejoin="round"/>
<path d="M246.892 563.654V576.661" stroke="#71B7F0" stroke-width="1.93987" stroke-linejoin="round"/>
<path d="M253.941 577.029V569.232" stroke="#71B7F0" stroke-width="1.93987" stroke-linejoin="round"/>
<path d="M260.268 563.654V571.095" stroke="#71B7F0" stroke-width="1.93987" stroke-linejoin="round"/>
<path d="M269.181 574.81V570.347" stroke="#71B7F0" stroke-width="1.93987" stroke-linejoin="round"/>
<path d="M286.847 563.543H280.803V577.213H286.847V563.543Z" fill="#71B7F0" stroke="#71B7F0" stroke-width="1.93987" stroke-linejoin="round"/>
<path d="M290.979 563.543H289.066V577.213H290.979V563.543Z" fill="#71B7F0" stroke="#71B7F0" stroke-width="1.93987" stroke-linejoin="round"/>
<path d="M315.83 548.304H213.778V562.979H315.83V548.304Z" fill="white" stroke="#71B7F0" stroke-width="1.93987" stroke-linejoin="round"/>
<path d="M219.393 548.574V558.982" stroke="#71B7F0" stroke-width="1.93987" stroke-linejoin="round"/>
<path d="M224.959 562.317V550.805" stroke="#71B7F0" stroke-width="1.93987" stroke-linejoin="round"/>
<path d="M232.02 548.574V561.214" stroke="#71B7F0" stroke-width="1.93987" stroke-linejoin="round"/>
<path d="M239.83 548.206V557.487" stroke="#71B7F0" stroke-width="1.93987" stroke-linejoin="round"/>
<path d="M246.892 548.941V561.949" stroke="#71B7F0" stroke-width="1.93987" stroke-linejoin="round"/>
<path d="M253.941 562.317V554.52" stroke="#71B7F0" stroke-width="1.93987" stroke-linejoin="round"/>
<path d="M260.268 548.941V556.383" stroke="#71B7F0" stroke-width="1.93987" stroke-linejoin="round"/>
<path d="M269.181 560.098V555.635" stroke="#71B7F0" stroke-width="1.93987" stroke-linejoin="round"/>
<path d="M286.847 548.831H280.803V562.501H286.847V548.831Z" fill="#71B7F0" stroke="#71B7F0" stroke-width="1.93987" stroke-linejoin="round"/>
<path d="M290.979 548.831H289.066V562.501H290.979V548.831Z" fill="#71B7F0" stroke="#71B7F0" stroke-width="1.93987" stroke-linejoin="round"/>
<path d="M321.96 533.592H219.908V548.267H321.96V533.592Z" fill="white" stroke="#71B7F0" stroke-width="1.93987" stroke-linejoin="round"/>
<path d="M225.523 533.862V544.27" stroke="#71B7F0" stroke-width="1.93987" stroke-linejoin="round"/>
<path d="M231.089 547.605V536.093" stroke="#71B7F0" stroke-width="1.93987" stroke-linejoin="round"/>
<path d="M238.15 533.862V546.502" stroke="#71B7F0" stroke-width="1.93987" stroke-linejoin="round"/>
<path d="M245.96 533.494V542.775" stroke="#71B7F0" stroke-width="1.93987" stroke-linejoin="round"/>
<path d="M253.022 534.229V547.237" stroke="#71B7F0" stroke-width="1.93987" stroke-linejoin="round"/>
<path d="M260.071 547.605V539.808" stroke="#71B7F0" stroke-width="1.93987" stroke-linejoin="round"/>
<path d="M266.398 534.229V541.671" stroke="#71B7F0" stroke-width="1.93987" stroke-linejoin="round"/>
<path d="M275.311 545.386V540.923" stroke="#71B7F0" stroke-width="1.93987" stroke-linejoin="round"/>
<path d="M292.977 534.119H286.933V547.789H292.977V534.119Z" fill="#71B7F0" stroke="#71B7F0" stroke-width="1.93987" stroke-linejoin="round"/>
<path d="M297.109 534.119H295.196V547.789H297.109V534.119Z" fill="#71B7F0" stroke="#71B7F0" stroke-width="1.93987" stroke-linejoin="round"/>
<path d="M317.056 518.88H215.004V533.555H317.056V518.88Z" fill="white" stroke="#71B7F0" stroke-width="1.93987" stroke-linejoin="round"/>
<path d="M220.619 519.15V529.558" stroke="#71B7F0" stroke-width="1.93987" stroke-linejoin="round"/>
<path d="M226.185 532.893V521.381" stroke="#71B7F0" stroke-width="1.93987" stroke-linejoin="round"/>
<path d="M233.247 519.15V531.79" stroke="#71B7F0" stroke-width="1.93987" stroke-linejoin="round"/>
<path d="M241.056 518.782V528.063" stroke="#71B7F0" stroke-width="1.93987" stroke-linejoin="round"/>
<path d="M248.118 519.517V532.525" stroke="#71B7F0" stroke-width="1.93987" stroke-linejoin="round"/>
<path d="M255.167 532.893V525.096" stroke="#71B7F0" stroke-width="1.93987" stroke-linejoin="round"/>
<path d="M261.494 519.517V526.959" stroke="#71B7F0" stroke-width="1.93987" stroke-linejoin="round"/>
<path d="M270.407 530.674V526.211" stroke="#71B7F0" stroke-width="1.93987" stroke-linejoin="round"/>
<path d="M288.073 519.407H282.029V533.077H288.073V519.407Z" fill="#71B7F0" stroke="#71B7F0" stroke-width="1.93987" stroke-linejoin="round"/>
<path d="M292.205 519.407H290.292V533.077H292.205V519.407Z" fill="#71B7F0" stroke="#71B7F0" stroke-width="1.93987" stroke-linejoin="round"/>
<path d="M321.96 504.168H219.908V518.843H321.96V504.168Z" fill="white" stroke="#71B7F0" stroke-width="1.93987" stroke-linejoin="round"/>
<path d="M225.523 504.438V514.846" stroke="#71B7F0" stroke-width="1.93987" stroke-linejoin="round"/>
<path d="M231.089 518.181V506.669" stroke="#71B7F0" stroke-width="1.93987" stroke-linejoin="round"/>
<path d="M238.15 504.438V517.078" stroke="#71B7F0" stroke-width="1.93987" stroke-linejoin="round"/>
<path d="M245.96 504.07V513.351" stroke="#71B7F0" stroke-width="1.93987" stroke-linejoin="round"/>
<path d="M253.022 504.805V517.813" stroke="#71B7F0" stroke-width="1.93987" stroke-linejoin="round"/>
<path d="M260.071 518.181V510.384" stroke="#71B7F0" stroke-width="1.93987" stroke-linejoin="round"/>
<path d="M266.398 504.805V512.247" stroke="#71B7F0" stroke-width="1.93987" stroke-linejoin="round"/>
<path d="M275.311 515.962V511.499" stroke="#71B7F0" stroke-width="1.93987" stroke-linejoin="round"/>
<path d="M292.977 504.695H286.933V518.365H292.977V504.695Z" fill="#71B7F0" stroke="#71B7F0" stroke-width="1.93987" stroke-linejoin="round"/>
<path d="M297.109 504.695H295.196V518.365H297.109V504.695Z" fill="#71B7F0" stroke="#71B7F0" stroke-width="1.93987" stroke-linejoin="round"/>
<path d="M315.83 489.456H213.778V504.131H315.83V489.456Z" fill="white" stroke="#71B7F0" stroke-width="1.93987" stroke-linejoin="round"/>
<path d="M219.393 489.726V500.134" stroke="#71B7F0" stroke-width="1.93987" stroke-linejoin="round"/>
<path d="M224.959 503.469V491.957" stroke="#71B7F0" stroke-width="1.93987" stroke-linejoin="round"/>
<path d="M232.02 489.726V502.366" stroke="#71B7F0" stroke-width="1.93987" stroke-linejoin="round"/>
<path d="M239.83 489.358V498.639" stroke="#71B7F0" stroke-width="1.93987" stroke-linejoin="round"/>
<path d="M246.892 490.093V503.101" stroke="#71B7F0" stroke-width="1.93987" stroke-linejoin="round"/>
<path d="M253.941 503.469V495.672" stroke="#71B7F0" stroke-width="1.93987" stroke-linejoin="round"/>
<path d="M260.268 490.093V497.535" stroke="#71B7F0" stroke-width="1.93987" stroke-linejoin="round"/>
<path d="M269.181 501.25V496.787" stroke="#71B7F0" stroke-width="1.93987" stroke-linejoin="round"/>
<path d="M286.847 489.983H280.803V503.653H286.847V489.983Z" fill="#71B7F0" stroke="#71B7F0" stroke-width="1.93987" stroke-linejoin="round"/>
<path d="M290.979 489.983H289.066V503.653H290.979V489.983Z" fill="#71B7F0" stroke="#71B7F0" stroke-width="1.93987" stroke-linejoin="round"/>
<path d="M313.378 474.744H211.326V489.419H313.378V474.744Z" fill="white" stroke="#71B7F0" stroke-width="1.93987" stroke-linejoin="round"/>
<path d="M216.941 475.014V485.422" stroke="#71B7F0" stroke-width="1.93987" stroke-linejoin="round"/>
<path d="M222.507 488.757V477.245" stroke="#71B7F0" stroke-width="1.93987" stroke-linejoin="round"/>
<path d="M229.569 475.014V487.654" stroke="#71B7F0" stroke-width="1.93987" stroke-linejoin="round"/>
<path d="M237.378 474.646V483.927" stroke="#71B7F0" stroke-width="1.93987" stroke-linejoin="round"/>
<path d="M244.44 475.381V488.389" stroke="#71B7F0" stroke-width="1.93987" stroke-linejoin="round"/>
<path d="M251.489 488.757V480.96" stroke="#71B7F0" stroke-width="1.93987" stroke-linejoin="round"/>
<path d="M257.816 475.381V482.823" stroke="#71B7F0" stroke-width="1.93987" stroke-linejoin="round"/>
<path d="M266.729 486.538V482.075" stroke="#71B7F0" stroke-width="1.93987" stroke-linejoin="round"/>
<path d="M284.395 475.271H278.351V488.941H284.395V475.271Z" fill="#71B7F0" stroke="#71B7F0" stroke-width="1.93987" stroke-linejoin="round"/>
<path d="M288.527 475.271H286.614V488.941H288.527V475.271Z" fill="#71B7F0" stroke="#71B7F0" stroke-width="1.93987" stroke-linejoin="round"/>
<path d="M314.604 460.032H212.552V474.707H314.604V460.032Z" fill="white" stroke="#71B7F0" stroke-width="1.93987" stroke-linejoin="round"/>
<path d="M218.167 460.302V470.71" stroke="#71B7F0" stroke-width="1.93987" stroke-linejoin="round"/>
<path d="M223.733 474.045V462.533" stroke="#71B7F0" stroke-width="1.93987" stroke-linejoin="round"/>
<path d="M230.794 460.302V472.942" stroke="#71B7F0" stroke-width="1.93987" stroke-linejoin="round"/>
<path d="M238.604 459.934V469.215" stroke="#71B7F0" stroke-width="1.93987" stroke-linejoin="round"/>
<path d="M245.666 460.67V473.677" stroke="#71B7F0" stroke-width="1.93987" stroke-linejoin="round"/>
<path d="M252.715 474.045V466.248" stroke="#71B7F0" stroke-width="1.93987" stroke-linejoin="round"/>
<path d="M259.042 460.67V468.111" stroke="#71B7F0" stroke-width="1.93987" stroke-linejoin="round"/>
<path d="M267.955 471.826V467.363" stroke="#71B7F0" stroke-width="1.93987" stroke-linejoin="round"/>
<path d="M285.621 460.559H279.577V474.229H285.621V460.559Z" fill="#71B7F0" stroke="#71B7F0" stroke-width="1.93987" stroke-linejoin="round"/>
<path d="M289.753 460.559H287.84V474.229H289.753V460.559Z" fill="#71B7F0" stroke="#71B7F0" stroke-width="1.93987" stroke-linejoin="round"/>
<path d="M309.7 445.32H207.648V459.995H309.7V445.32Z" fill="white" stroke="#71B7F0" stroke-width="1.93987" stroke-linejoin="round"/>
<path d="M213.263 445.59V455.998" stroke="#71B7F0" stroke-width="1.93987" stroke-linejoin="round"/>
<path d="M218.829 459.333V447.821" stroke="#71B7F0" stroke-width="1.93987" stroke-linejoin="round"/>
<path d="M225.891 445.59V458.23" stroke="#71B7F0" stroke-width="1.93987" stroke-linejoin="round"/>
<path d="M233.7 445.222V454.503" stroke="#71B7F0" stroke-width="1.93987" stroke-linejoin="round"/>
<path d="M240.75 445.957V458.965" stroke="#71B7F0" stroke-width="1.93987" stroke-linejoin="round"/>
<path d="M247.811 459.333V451.536" stroke="#71B7F0" stroke-width="1.93987" stroke-linejoin="round"/>
<path d="M254.138 445.957V453.399" stroke="#71B7F0" stroke-width="1.93987" stroke-linejoin="round"/>
<path d="M263.051 457.114V452.651" stroke="#71B7F0" stroke-width="1.93987" stroke-linejoin="round"/>
<path d="M280.717 445.847H274.673V459.517H280.717V445.847Z" fill="#71B7F0" stroke="#71B7F0" stroke-width="1.93987" stroke-linejoin="round"/>
<path d="M284.849 445.847H282.936V459.517H284.849V445.847Z" fill="#71B7F0" stroke="#71B7F0" stroke-width="1.93987" stroke-linejoin="round"/>
<path d="M319.508 430.608H217.456V445.283H319.508V430.608Z" fill="white" stroke="#71B7F0" stroke-width="1.93987" stroke-linejoin="round"/>
<path d="M223.071 430.878V441.286" stroke="#71B7F0" stroke-width="1.93987" stroke-linejoin="round"/>
<path d="M228.637 444.621V433.109" stroke="#71B7F0" stroke-width="1.93987" stroke-linejoin="round"/>
<path d="M235.699 430.878V443.518" stroke="#71B7F0" stroke-width="1.93987" stroke-linejoin="round"/>
<path d="M243.508 430.51V439.791" stroke="#71B7F0" stroke-width="1.93987" stroke-linejoin="round"/>
<path d="M250.57 431.245V444.253" stroke="#71B7F0" stroke-width="1.93987" stroke-linejoin="round"/>
<path d="M257.619 444.621V436.824" stroke="#71B7F0" stroke-width="1.93987" stroke-linejoin="round"/>
<path d="M263.946 431.245V438.687" stroke="#71B7F0" stroke-width="1.93987" stroke-linejoin="round"/>
<path d="M272.859 442.402V437.939" stroke="#71B7F0" stroke-width="1.93987" stroke-linejoin="round"/>
<path d="M290.525 431.135H284.481V444.805H290.525V431.135Z" fill="#71B7F0" stroke="#71B7F0" stroke-width="1.93987" stroke-linejoin="round"/>
<path d="M294.657 431.135H292.744V444.805H294.657V431.135Z" fill="#71B7F0" stroke="#71B7F0" stroke-width="1.93987" stroke-linejoin="round"/>
<path d="M315.83 415.896H213.778V430.571H315.83V415.896Z" fill="white" stroke="#71B7F0" stroke-width="1.93987" stroke-linejoin="round"/>
<path d="M219.393 416.166V426.574" stroke="#71B7F0" stroke-width="1.93987" stroke-linejoin="round"/>
<path d="M224.959 429.909V418.397" stroke="#71B7F0" stroke-width="1.93987" stroke-linejoin="round"/>
<path d="M232.02 416.166V428.806" stroke="#71B7F0" stroke-width="1.93987" stroke-linejoin="round"/>
<path d="M239.83 415.798V425.079" stroke="#71B7F0" stroke-width="1.93987" stroke-linejoin="round"/>
<path d="M246.892 416.534V429.541" stroke="#71B7F0" stroke-width="1.93987" stroke-linejoin="round"/>
<path d="M253.941 429.909V422.112" stroke="#71B7F0" stroke-width="1.93987" stroke-linejoin="round"/>
<path d="M260.268 416.534V423.975" stroke="#71B7F0" stroke-width="1.93987" stroke-linejoin="round"/>
<path d="M269.181 427.69V423.227" stroke="#71B7F0" stroke-width="1.93987" stroke-linejoin="round"/>
<path d="M286.847 416.423H280.803V430.093H286.847V416.423Z" fill="#71B7F0" stroke="#71B7F0" stroke-width="1.93987" stroke-linejoin="round"/>
<path d="M290.979 416.423H289.066V430.093H290.979V416.423Z" fill="#71B7F0" stroke="#71B7F0" stroke-width="1.93987" stroke-linejoin="round"/>
<path d="M473.809 563.124C501.236 556.767 518.316 529.379 511.959 501.953C505.602 474.526 478.215 457.446 450.788 463.803C423.361 470.16 406.281 497.547 412.638 524.974C418.995 552.401 446.382 569.481 473.809 563.124Z" fill="white" stroke="#5A7EC1" stroke-width="1.93987" stroke-linejoin="round"/>
<path d="M492.321 549.554C512.229 529.646 512.229 497.369 492.321 477.461C472.413 457.553 440.137 457.553 420.229 477.461C400.321 497.369 400.321 529.646 420.229 549.554C440.137 569.461 472.413 569.461 492.321 549.554Z" fill="white" stroke="#5A7EC1" stroke-width="1.93987" stroke-linejoin="round"/>
<path d="M485.256 542.488C501.262 526.483 501.262 500.532 485.256 484.526C469.25 468.521 443.3 468.521 427.294 484.526C411.288 500.532 411.288 526.483 427.294 542.488C443.3 558.494 469.25 558.494 485.256 542.488Z" fill="white" stroke="#5A7EC1" stroke-width="1.93987" stroke-linejoin="round"/>
<path d="M418.838 513.51C418.841 502.946 422.924 492.79 430.233 485.163C437.543 477.536 447.516 473.026 458.07 472.574C457.494 472.574 456.906 472.574 456.305 472.574C445.435 472.574 435.01 476.892 427.324 484.578C419.638 492.264 415.32 502.689 415.32 513.559C415.32 524.429 419.638 534.854 427.324 542.54C435.01 550.226 445.435 554.544 456.305 554.544C456.906 554.544 457.531 554.544 458.07 554.544C447.497 554.098 437.506 549.576 430.192 541.926C422.879 534.277 418.81 524.093 418.838 513.51Z" fill="white" stroke="#5A7EC1" stroke-width="1.93987" stroke-linejoin="round"/>
<path d="M494.274 474.192H490.388" stroke="#5A7EC1" stroke-width="1.93987" stroke-linejoin="round"/>
<path d="M499.227 478.802H496.395" stroke="#5A7EC1" stroke-width="1.93987" stroke-linejoin="round"/>
<path d="M505.602 485.876H502.415" stroke="#5A7EC1" stroke-width="1.93987" stroke-linejoin="round"/>
<path d="M509.146 494.728H504.891" stroke="#5A7EC1" stroke-width="1.93987" stroke-linejoin="round"/>
<path d="M512.333 504.291H508.434" stroke="#5A7EC1" stroke-width="1.93987" stroke-linejoin="round"/>
<path d="M512.333 524.458H508.079" stroke="#5A7EC1" stroke-width="1.93987" stroke-linejoin="round"/>
<path d="M495.696 548.537H499.227" stroke="#5A7EC1" stroke-width="1.93987" stroke-linejoin="round"/>
<path d="M489.677 553.134H493.563" stroke="#5A7EC1" stroke-width="1.93987" stroke-linejoin="round"/>
<path d="M483.301 558.087H487.2" stroke="#5A7EC1" stroke-width="1.93987" stroke-linejoin="round"/>
<path d="M487.556 469.239H481.536" stroke="#5A7EC1" stroke-width="1.93987" stroke-linejoin="round"/>
<path d="M473.359 486.722H446.926V494.078H449.17C452.038 494.078 453.289 495.696 453.289 499.374V499.987H446.926V505.112H453.252C453.056 508.716 451.291 509.93 448.434 509.93H446.926V517.286H448.066C451.744 517.286 453.363 519.052 453.363 523.833V531.912C453.363 536.105 453.657 536.914 454.098 538.238H462.325C461.595 536.239 461.294 534.109 461.442 531.986V524.054C461.442 518.684 460.118 514.797 456.084 513.105C459.088 511.696 460.743 509.035 461.209 505.124H473.359V500.049H461.368V498.626C461.453 496.302 460.995 493.989 460.032 491.871H473.359V486.722Z" fill="#5A7EC1"/>
<path d="M525.206 434.703C553.36 434.703 576.183 411.88 576.183 383.726C576.183 355.572 553.36 332.749 525.206 332.749C497.052 332.749 474.229 355.572 474.229 383.726C474.229 411.88 497.052 434.703 525.206 434.703Z" fill="white" stroke="#5A7EC1" stroke-width="1.93987" stroke-linejoin="round"/>
<path d="M519.211 434.703C547.365 434.703 570.188 411.88 570.188 383.726C570.188 355.572 547.365 332.749 519.211 332.749C491.057 332.749 468.234 355.572 468.234 383.726C468.234 411.88 491.057 434.703 519.211 434.703Z" fill="white" stroke="#5A7EC1" stroke-width="1.93987" stroke-linejoin="round"/>
<path d="M519.211 424.711C541.846 424.711 560.196 406.361 560.196 383.726C560.196 361.09 541.846 342.741 519.211 342.741C496.576 342.741 478.226 361.09 478.226 383.726C478.226 406.361 496.576 424.711 519.211 424.711Z" fill="white" stroke="#5A7EC1" stroke-width="1.93987" stroke-linejoin="round"/>
<path d="M481.818 383.738C481.821 373.174 485.903 363.018 493.213 355.391C500.523 347.764 510.495 343.254 521.05 342.802C520.462 342.802 519.873 342.802 519.285 342.802C513.843 342.708 508.438 343.698 503.384 345.715C498.33 347.732 493.728 350.736 489.847 354.55C485.965 358.365 482.883 362.914 480.779 367.933C478.674 372.952 477.591 378.339 477.591 383.781C477.591 389.223 478.674 394.61 480.779 399.629C482.883 404.647 485.965 409.197 489.847 413.011C493.728 416.826 498.33 419.829 503.384 421.847C508.438 423.864 513.843 424.854 519.285 424.76C519.873 424.76 520.462 424.76 521.05 424.76C510.48 424.307 500.495 419.785 493.183 412.14C485.871 404.494 481.799 394.317 481.818 383.738Z" fill="white" stroke="#5A7EC1" stroke-width="1.93987" stroke-linejoin="round"/>
<path d="M557.205 344.42H553.306" stroke="#5A7EC1" stroke-width="1.93987" stroke-linejoin="round"/>
<path d="M562.158 349.018H559.326" stroke="#5A7EC1" stroke-width="1.93987" stroke-linejoin="round"/>
<path d="M568.533 356.092H565.345" stroke="#5A7EC1" stroke-width="1.93987" stroke-linejoin="round"/>
<path d="M572.064 364.943H567.822" stroke="#5A7EC1" stroke-width="1.93987" stroke-linejoin="round"/>
<path d="M575.251 374.506H571.365" stroke="#5A7EC1" stroke-width="1.93987" stroke-linejoin="round"/>
<path d="M575.251 394.674H571.01" stroke="#5A7EC1" stroke-width="1.93987" stroke-linejoin="round"/>
<path d="M558.615 418.753H562.158" stroke="#5A7EC1" stroke-width="1.93987" stroke-linejoin="round"/>
<path d="M552.595 423.35H556.494" stroke="#5A7EC1" stroke-width="1.93987" stroke-linejoin="round"/>
<path d="M546.232 428.303H550.118" stroke="#5A7EC1" stroke-width="1.93987" stroke-linejoin="round"/>
<path d="M550.474 339.455H544.454" stroke="#5A7EC1" stroke-width="1.93987" stroke-linejoin="round"/>
<path d="M540.078 387.624V382.193H536.142L538.594 360.064H531.912L529.632 382.193H526.297L524.103 360.064H516.747L514.614 382.193H511.242L508.876 360.064H501.434L503.886 382.193H499.105V387.624H504.487L505.137 393.46H499.105V398.891H505.737L506.853 408.822H517.372L518.426 398.891H521.871L522.938 408.822H533.114L534.217 398.891H540.016V393.46H534.818L535.48 387.624H540.078ZM511.88 387.624H514.086L513.522 393.46H512.468L511.88 387.624ZM519.076 393.46L519.701 387.624H520.731L521.357 393.46H519.076ZM528.492 393.46H527.425L526.849 387.624H529.093L528.492 393.46Z" fill="#5A7EC1"/>
<path d="M554.679 285.48C574.587 265.572 574.587 233.296 554.679 213.388C534.771 193.48 502.494 193.48 482.586 213.388C462.679 233.296 462.679 265.572 482.586 285.48C502.494 305.388 534.771 305.388 554.679 285.48Z" fill="white" stroke="#5A7EC1" stroke-width="1.93987" stroke-linejoin="round"/>
<path d="M524.57 298.965C551.943 292.378 568.793 264.849 562.206 237.476C555.62 210.104 528.09 193.254 500.718 199.84C473.345 206.427 456.495 233.957 463.082 261.329C469.668 288.702 497.198 305.552 524.57 298.965Z" fill="white" stroke="#5A7EC1" stroke-width="1.93987" stroke-linejoin="round"/>
<path d="M522.201 289.267C544.213 283.99 557.78 261.868 552.503 239.857C547.227 217.845 525.105 204.278 503.093 209.554C481.081 214.831 467.515 236.952 472.791 258.964C478.068 280.976 500.189 294.543 522.201 289.267Z" fill="white" stroke="#5A7EC1" stroke-width="1.93987" stroke-linejoin="round"/>
<path d="M475.185 249.43C475.188 238.865 479.271 228.71 486.58 221.083C493.89 213.456 503.863 208.945 514.417 208.494C513.829 208.494 513.191 208.494 512.652 208.494C501.782 208.494 491.357 212.812 483.671 220.498C475.985 228.184 471.667 238.609 471.667 249.479C471.667 260.349 475.985 270.773 483.671 278.46C491.357 286.146 501.782 290.464 512.652 290.464C513.24 290.464 513.878 290.464 514.417 290.464C503.845 290.014 493.856 285.491 486.543 277.843C479.23 270.194 475.16 260.012 475.185 249.43Z" fill="white" stroke="#5A7EC1" stroke-width="1.93987" stroke-linejoin="round"/>
<path d="M550.633 210.112H546.735" stroke="#5A7EC1" stroke-width="1.93987" stroke-linejoin="round"/>
<path d="M555.586 214.722H552.754" stroke="#5A7EC1" stroke-width="1.93987" stroke-linejoin="round"/>
<path d="M561.949 221.796H558.774" stroke="#5A7EC1" stroke-width="1.93987" stroke-linejoin="round"/>
<path d="M565.493 230.647H561.251" stroke="#5A7EC1" stroke-width="1.93987" stroke-linejoin="round"/>
<path d="M568.68 240.21H564.781" stroke="#5A7EC1" stroke-width="1.93987" stroke-linejoin="round"/>
<path d="M568.68 260.378H564.438" stroke="#5A7EC1" stroke-width="1.93987" stroke-linejoin="round"/>
<path d="M552.043 284.457H555.586" stroke="#5A7EC1" stroke-width="1.93987" stroke-linejoin="round"/>
<path d="M546.024 289.054H549.922" stroke="#5A7EC1" stroke-width="1.93987" stroke-linejoin="round"/>
<path d="M539.648 294.007H543.547" stroke="#5A7EC1" stroke-width="1.93987" stroke-linejoin="round"/>
<path d="M543.903 205.159H537.883" stroke="#5A7EC1" stroke-width="1.93987" stroke-linejoin="round"/>
<path d="M517.519 224.934H505.615V249.197H498.859V256.087H505.615V262.977H499.129V268.212H505.615V276.365H513.694V268.212H519.971V262.977H513.694V257.043H517.507C525.598 257.043 529.558 252.556 529.558 244.33V237.648C529.632 229.409 525.611 224.934 517.519 224.934ZM521.491 244.844C521.491 248.522 520.094 249.748 517.519 249.748H513.694V232.278H517.507C520.081 232.278 521.479 233.504 521.479 237.182L521.491 244.844Z" fill="#5A7EC1"/>
<path d="M471.704 166.442C499.857 166.442 522.681 143.619 522.681 115.465C522.681 87.3108 499.857 64.4876 471.704 64.4876C443.55 64.4876 420.726 87.3108 420.726 115.465C420.726 143.619 443.55 166.442 471.704 166.442Z" fill="white" stroke="#5A7EC1" stroke-width="1.93987" stroke-linejoin="round"/>
<path d="M465.708 166.442C493.862 166.442 516.685 143.619 516.685 115.465C516.685 87.3108 493.862 64.4876 465.708 64.4876C437.554 64.4876 414.731 87.3108 414.731 115.465C414.731 143.619 437.554 166.442 465.708 166.442Z" fill="white" stroke="#5A7EC1" stroke-width="1.93987" stroke-linejoin="round"/>
<path d="M474.074 155.557C496.234 150.94 510.454 129.233 505.837 107.073C501.22 84.9137 479.513 70.6929 457.353 75.3101C435.194 79.9274 420.973 101.634 425.59 123.794C430.208 145.953 451.914 160.174 474.074 155.557Z" fill="white" stroke="#5A7EC1" stroke-width="1.93987" stroke-linejoin="round"/>
<path d="M428.254 115.465C428.254 104.899 432.335 94.7424 439.646 87.1145C446.956 79.4866 456.93 74.9774 467.486 74.5285C466.898 74.5285 466.26 74.5285 465.721 74.5285C454.851 74.5285 444.426 78.8466 436.74 86.5328C429.054 94.219 424.735 104.644 424.735 115.514C424.735 126.384 429.054 136.808 436.74 144.495C444.426 152.181 454.851 156.499 465.721 156.499C466.309 156.499 466.947 156.499 467.486 156.499C456.913 156.049 446.925 151.526 439.612 143.878C432.299 136.229 428.229 126.047 428.254 115.465Z" fill="white" stroke="#5A7EC1" stroke-width="1.93987" stroke-linejoin="round"/>
<path d="M503.702 76.1469H499.803" stroke="#5A7EC1" stroke-width="1.93987" stroke-linejoin="round"/>
<path d="M508.655 80.7444H505.823" stroke="#5A7EC1" stroke-width="1.93987" stroke-linejoin="round"/>
<path d="M515.03 87.8306H511.843" stroke="#5A7EC1" stroke-width="1.93987" stroke-linejoin="round"/>
<path d="M518.561 96.6824H514.319" stroke="#5A7EC1" stroke-width="1.93987" stroke-linejoin="round"/>
<path d="M521.749 106.233H517.85" stroke="#5A7EC1" stroke-width="1.93987" stroke-linejoin="round"/>
<path d="M521.749 126.413H517.507" stroke="#5A7EC1" stroke-width="1.93987" stroke-linejoin="round"/>
<path d="M505.112 150.479H508.655" stroke="#5A7EC1" stroke-width="1.93987" stroke-linejoin="round"/>
<path d="M499.092 155.089H502.991" stroke="#5A7EC1" stroke-width="1.93987" stroke-linejoin="round"/>
<path d="M492.729 160.042H496.616" stroke="#5A7EC1" stroke-width="1.93987" stroke-linejoin="round"/>
<path d="M496.971 71.1938H490.952" stroke="#5A7EC1" stroke-width="1.93987" stroke-linejoin="round"/>
<path d="M479.378 98.1904V90.8344H457.997V127.529H452.198V132.433H457.997V142.277H466.076V132.433H472.635V127.529H466.076V121.043H476.509V113.687H466.076V98.1904H479.378Z" fill="#5A7EC1"/>
<path d="M333.735 135.058C361.162 128.701 378.242 101.313 371.885 73.8867C365.528 46.46 338.141 29.3797 310.714 35.7369C283.287 42.0941 266.207 69.4814 272.564 96.9081C278.921 124.335 306.309 141.415 333.735 135.058Z" fill="white" stroke="#5A7EC1" stroke-width="1.93987" stroke-linejoin="round"/>
<path d="M352.275 121.47C372.183 101.563 372.183 69.2857 352.275 49.378C332.367 29.4702 300.09 29.4702 280.182 49.378C260.275 69.2858 260.275 101.563 280.182 121.47C300.09 141.378 332.367 141.378 352.275 121.47Z" fill="white" stroke="#5A7EC1" stroke-width="1.93987" stroke-linejoin="round"/>
<path d="M345.21 114.405C361.215 98.3994 361.215 72.449 345.21 56.4433C329.204 40.4376 303.253 40.4376 287.248 56.4433C271.242 72.449 271.242 98.3994 287.248 114.405C303.253 130.411 329.204 130.411 345.21 114.405Z" fill="white" stroke="#5A7EC1" stroke-width="1.93987" stroke-linejoin="round"/>
<path d="M278.78 85.4277C278.78 74.8611 282.861 64.7028 290.171 57.0729C297.481 49.4431 307.455 44.9313 318.012 44.4793C317.424 44.4793 316.835 44.4793 316.247 44.4793C310.806 44.3852 305.4 45.3756 300.346 47.3927C295.292 49.4098 290.69 52.4133 286.809 56.2279C282.928 60.0425 279.845 64.5918 277.741 69.6104C275.636 74.629 274.553 80.0164 274.553 85.4583C274.553 90.9002 275.636 96.2876 277.741 101.306C279.845 106.325 282.928 110.874 286.809 114.689C290.69 118.503 295.292 121.507 300.346 123.524C305.4 125.541 310.806 126.531 316.247 126.437C316.835 126.437 317.424 126.437 318.012 126.437C307.445 125.985 297.461 121.465 290.15 113.822C282.838 106.179 278.764 96.0048 278.78 85.4277Z" fill="white" stroke="#5A7EC1" stroke-width="1.93987" stroke-linejoin="round"/>
<path d="M354.216 46.1099H350.317" stroke="#5A7EC1" stroke-width="1.93987" stroke-linejoin="round"/>
<path d="M359.169 50.7073H356.337" stroke="#5A7EC1" stroke-width="1.93987" stroke-linejoin="round"/>
<path d="M365.544 57.7936H362.357" stroke="#5A7EC1" stroke-width="1.93987" stroke-linejoin="round"/>
<path d="M369.087 66.6331H364.833" stroke="#5A7EC1" stroke-width="1.93987" stroke-linejoin="round"/>
<path d="M372.275 76.1959H368.376" stroke="#5A7EC1" stroke-width="1.93987" stroke-linejoin="round"/>
<path d="M372.275 96.3759H368.021" stroke="#5A7EC1" stroke-width="1.93987" stroke-linejoin="round"/>
<path d="M355.638 120.442H359.169" stroke="#5A7EC1" stroke-width="1.93987" stroke-linejoin="round"/>
<path d="M349.618 125.04H353.505" stroke="#5A7EC1" stroke-width="1.93987" stroke-linejoin="round"/>
<path d="M343.243 130.005H347.142" stroke="#5A7EC1" stroke-width="1.93987" stroke-linejoin="round"/>
<path d="M347.485 41.1568H341.478" stroke="#5A7EC1" stroke-width="1.93987" stroke-linejoin="round"/>
<path d="M327.17 75.4603V71.7087C327.17 63.4823 323.272 58.7744 315.34 58.7744C307.407 58.7744 303.509 63.4823 303.509 71.7087V78.8441H301.449V82.8776H303.509V86.9234H301.449V90.9692H303.509V98.4601C303.509 106.687 307.407 111.394 315.34 111.394C323.272 111.394 327.17 106.687 327.17 98.4601V94.402H319.532V99.0363C319.532 102.714 318.135 104.026 315.56 104.026C312.986 104.026 311.588 102.714 311.588 99.0363V90.9692H322.904V86.9234H311.588V82.8776H322.904V78.8441H311.588V71.1938C311.588 67.5158 312.986 66.1304 315.56 66.1304C318.135 66.1304 319.532 67.5281 319.532 71.1938V75.4603H327.17Z" fill="#5A7EC1"/>
<path d="M171.652 166.442C199.806 166.442 222.629 143.619 222.629 115.465C222.629 87.3108 199.806 64.4876 171.652 64.4876C143.498 64.4876 120.675 87.3108 120.675 115.465C120.675 143.619 143.498 166.442 171.652 166.442Z" fill="white" stroke="#5A7EC1" stroke-width="1.93987" stroke-linejoin="round"/>
<path d="M165.657 166.442C193.811 166.442 216.634 143.619 216.634 115.465C216.634 87.3108 193.811 64.4876 165.657 64.4876C137.503 64.4876 114.68 87.3108 114.68 115.465C114.68 143.619 137.503 166.442 165.657 166.442Z" fill="white" stroke="#5A7EC1" stroke-width="1.93987" stroke-linejoin="round"/>
<path d="M174.938 155.386C196.986 150.259 210.703 128.23 205.576 106.183C200.45 84.1358 178.421 70.4187 156.374 75.5453C134.326 80.6718 120.609 102.701 125.736 124.748C130.862 146.795 152.891 160.512 174.938 155.386Z" fill="white" stroke="#5A7EC1" stroke-width="1.93987" stroke-linejoin="round"/>
<path d="M128.215 115.465C128.212 104.898 132.292 94.7398 139.603 87.1112C146.914 79.4827 156.89 74.9745 167.447 74.5285C166.871 74.5285 166.221 74.5285 165.682 74.5285C154.812 74.5285 144.387 78.8466 136.701 86.5328C129.015 94.219 124.696 104.644 124.696 115.514C124.696 126.384 129.015 136.808 136.701 144.495C144.387 152.181 154.812 156.499 165.682 156.499C166.27 156.499 166.908 156.499 167.447 156.499C156.873 156.052 146.883 151.53 139.569 143.881C132.256 136.231 128.187 126.048 128.215 115.465Z" fill="white" stroke="#5A7EC1" stroke-width="1.93987" stroke-linejoin="round"/>
<path d="M203.651 76.1469H199.764" stroke="#5A7EC1" stroke-width="1.93987" stroke-linejoin="round"/>
<path d="M208.604 80.7444H205.772" stroke="#5A7EC1" stroke-width="1.93987" stroke-linejoin="round"/>
<path d="M214.979 87.8306H211.791" stroke="#5A7EC1" stroke-width="1.93987" stroke-linejoin="round"/>
<path d="M218.522 96.6824H214.268" stroke="#5A7EC1" stroke-width="1.93987" stroke-linejoin="round"/>
<path d="M221.71 106.233H217.811" stroke="#5A7EC1" stroke-width="1.93987" stroke-linejoin="round"/>
<path d="M221.71 126.413H217.456" stroke="#5A7EC1" stroke-width="1.93987" stroke-linejoin="round"/>
<path d="M205.073 150.479H208.604" stroke="#5A7EC1" stroke-width="1.93987" stroke-linejoin="round"/>
<path d="M199.053 155.089H202.94" stroke="#5A7EC1" stroke-width="1.93987" stroke-linejoin="round"/>
<path d="M192.678 160.042H196.577" stroke="#5A7EC1" stroke-width="1.93987" stroke-linejoin="round"/>
<path d="M196.932 71.1938H190.913" stroke="#5A7EC1" stroke-width="1.93987" stroke-linejoin="round"/>
<path d="M178.248 105.117V100.054C178.248 91.8151 174.215 87.1196 166.344 87.1196C158.473 87.1196 154.476 91.8151 154.476 100.054C154.476 109.016 157.933 112.387 159.699 117.463H154.795V123.703H160.753C160.606 129 157.59 132.089 153.765 132.089V139.139H177.77V131.783H163.843C165.054 130.795 166.046 129.565 166.756 128.171C167.465 126.778 167.876 125.252 167.962 123.691H176.336V117.463H167.447C166.049 111.885 162.543 108.722 162.543 99.5389C162.543 95.8609 164.002 94.4633 166.577 94.4633C169.151 94.4633 170.622 95.8609 170.622 99.5389V105.117H178.248Z" fill="#5A7EC1"/>
<path d="M131.545 285.473C151.453 265.565 151.453 233.288 131.545 213.38C111.637 193.472 79.3602 193.472 59.4524 213.38C39.5446 233.288 39.5446 265.565 59.4524 285.473C79.3602 305.38 111.637 305.38 131.545 285.473Z" fill="white" stroke="#5A7EC1" stroke-width="1.93987" stroke-linejoin="round"/>
<path d="M101.367 299.006C128.748 292.458 145.637 264.952 139.088 237.57C132.54 210.189 105.034 193.3 77.6524 199.848C50.2707 206.397 33.3821 233.903 39.9306 261.285C46.4791 288.666 73.9849 305.555 101.367 299.006Z" fill="white" stroke="#5A7EC1" stroke-width="1.93987" stroke-linejoin="round"/>
<path d="M99.0459 289.291C121.062 284.03 134.644 261.918 129.383 239.902C124.122 217.887 102.009 204.304 79.9938 209.565C57.9782 214.827 44.396 236.939 49.6571 258.954C54.9182 280.97 77.0303 294.552 99.0459 289.291Z" fill="white" stroke="#5A7EC1" stroke-width="1.93987" stroke-linejoin="round"/>
<path d="M52.056 249.43C52.0589 238.865 56.1412 228.71 63.4509 221.083C70.7606 213.456 80.7332 208.945 91.288 208.494C90.6995 208.494 90.062 208.494 89.5225 208.494C78.6526 208.494 68.2278 212.812 60.5416 220.498C52.8554 228.184 48.5374 238.609 48.5374 249.479C48.5374 260.349 52.8554 270.773 60.5416 278.46C68.2278 286.146 78.6526 290.464 89.5225 290.464C90.111 290.464 90.7485 290.464 91.288 290.464C80.7152 290.014 70.7265 285.491 63.4135 277.843C56.1005 270.194 52.0306 260.012 52.056 249.43Z" fill="white" stroke="#5A7EC1" stroke-width="1.93987" stroke-linejoin="round"/>
<path d="M127.504 210.112H123.605" stroke="#5A7EC1" stroke-width="1.93987" stroke-linejoin="round"/>
<path d="M132.457 214.722H129.625" stroke="#5A7EC1" stroke-width="1.93987" stroke-linejoin="round"/>
<path d="M138.832 221.796H135.645" stroke="#5A7EC1" stroke-width="1.93987" stroke-linejoin="round"/>
<path d="M142.363 230.647H138.121" stroke="#5A7EC1" stroke-width="1.93987" stroke-linejoin="round"/>
<path d="M145.551 240.21H141.664" stroke="#5A7EC1" stroke-width="1.93987" stroke-linejoin="round"/>
<path d="M145.551 260.378H141.309" stroke="#5A7EC1" stroke-width="1.93987" stroke-linejoin="round"/>
<path d="M128.914 284.457H132.457" stroke="#5A7EC1" stroke-width="1.93987" stroke-linejoin="round"/>
<path d="M122.894 289.054H126.793" stroke="#5A7EC1" stroke-width="1.93987" stroke-linejoin="round"/>
<path d="M116.531 294.007H120.418" stroke="#5A7EC1" stroke-width="1.93987" stroke-linejoin="round"/>
<path d="M120.773 205.159H114.754" stroke="#5A7EC1" stroke-width="1.93987" stroke-linejoin="round"/>
<path d="M87.4138 235.466C87.4138 231.788 88.885 230.402 91.4473 230.402C94.0097 230.402 95.4931 231.8 95.4931 235.466V237.599H103.131V235.98C103.131 229.005 100.201 224.591 94.4633 223.414V219.601H87.8552V223.414C82.191 224.64 79.2732 229.078 79.2732 235.98C79.2732 250.692 95.0763 251.195 95.0763 261.726C95.0763 265.404 93.458 266.729 90.8834 266.729C88.3088 266.729 86.7027 265.404 86.7027 261.726V257.681H79.1138V261.212C79.1138 268.2 82.0439 272.675 87.8552 273.852V277.603H94.4633V273.852C100.201 272.626 103.205 268.2 103.205 261.212C103.205 246.561 87.4138 246.046 87.4138 235.466Z" fill="#5A7EC1"/>
<path d="M89.1915 434.703C117.345 434.703 140.169 411.88 140.169 383.726C140.169 355.572 117.345 332.749 89.1915 332.749C61.0376 332.749 38.2144 355.572 38.2144 383.726C38.2144 411.88 61.0376 434.703 89.1915 434.703Z" fill="white" stroke="#5A7EC1" stroke-width="1.93987" stroke-linejoin="round"/>
<path d="M83.1964 434.703C111.35 434.703 134.173 411.88 134.173 383.726C134.173 355.572 111.35 332.749 83.1964 332.749C55.0425 332.749 32.2193 355.572 32.2193 383.726C32.2193 411.88 55.0425 434.703 83.1964 434.703Z" fill="white" stroke="#5A7EC1" stroke-width="1.93987" stroke-linejoin="round"/>
<path d="M83.1964 424.711C105.832 424.711 124.182 406.361 124.182 383.726C124.182 361.09 105.832 342.741 83.1964 342.741C60.5609 342.741 42.2112 361.09 42.2112 383.726C42.2112 406.361 60.5609 424.711 83.1964 424.711Z" fill="white" stroke="#5A7EC1" stroke-width="1.93987" stroke-linejoin="round"/>
<path d="M45.7421 383.738C45.7481 373.174 49.8313 363.021 57.1404 355.394C64.4495 347.768 74.4204 343.257 84.9741 342.802C84.3856 342.802 83.7971 342.802 83.2087 342.802C77.7676 342.708 72.3622 343.698 67.308 345.715C62.2537 347.732 57.6518 350.736 53.7706 354.55C49.8895 358.365 46.8069 362.914 44.7026 367.933C42.5984 372.952 41.5146 378.339 41.5146 383.781C41.5146 389.223 42.5984 394.61 44.7026 399.629C46.8069 404.647 49.8895 409.197 53.7706 413.011C57.6518 416.826 62.2537 419.829 67.308 421.847C72.3622 423.864 77.7676 424.854 83.2087 424.76C83.7971 424.76 84.3856 424.76 84.9741 424.76C74.4055 424.304 64.4221 419.781 57.1107 412.137C49.7993 404.492 45.726 394.316 45.7421 383.738Z" fill="white" stroke="#5A7EC1" stroke-width="1.93987" stroke-linejoin="round"/>
<path d="M121.19 344.42H117.291" stroke="#5A7EC1" stroke-width="1.93987" stroke-linejoin="round"/>
<path d="M126.143 349.018H123.311" stroke="#5A7EC1" stroke-width="1.93987" stroke-linejoin="round"/>
<path d="M132.518 356.092H129.331" stroke="#5A7EC1" stroke-width="1.93987" stroke-linejoin="round"/>
<path d="M136.049 364.943H131.807" stroke="#5A7EC1" stroke-width="1.93987" stroke-linejoin="round"/>
<path d="M139.237 374.506H135.338" stroke="#5A7EC1" stroke-width="1.93987" stroke-linejoin="round"/>
<path d="M139.237 394.674H134.995" stroke="#5A7EC1" stroke-width="1.93987" stroke-linejoin="round"/>
<path d="M122.6 418.753H126.143" stroke="#5A7EC1" stroke-width="1.93987" stroke-linejoin="round"/>
<path d="M116.58 423.35H120.479" stroke="#5A7EC1" stroke-width="1.93987" stroke-linejoin="round"/>
<path d="M110.217 428.303H114.104" stroke="#5A7EC1" stroke-width="1.93987" stroke-linejoin="round"/>
<path d="M114.459 339.455H108.44" stroke="#5A7EC1" stroke-width="1.93987" stroke-linejoin="round"/>
<path d="M92.7715 381.899C96.3759 380.207 97.9942 376.823 97.9942 371.539V369.7C97.9942 363.313 95.6526 359.549 90.3808 358.323V349.741H86.2491V357.869H83.0002V349.753H78.8686V357.869H73.8175V409.361H78.8686V416.656H83.0002V409.361H86.2491V416.656H90.3808V408.969C95.9345 407.743 98.8034 403.722 98.8034 397.175V392.982C98.8034 387.477 97.1115 383.591 92.7715 381.899ZM81.8968 365.213H85.82C88.6889 365.213 89.9271 366.831 89.9271 370.509V373.378C89.9271 377.485 88.1004 378.809 85.0231 378.809H81.8968V365.213ZM90.724 396.893C90.724 400.706 89.2651 401.956 86.5434 401.956H81.8968V386.19H85.5013C89.1793 386.19 90.7118 387.661 90.7118 392.443L90.724 396.893Z" fill="#5A7EC1"/>
<path d="M192.291 549.557C212.198 529.65 212.198 497.373 192.291 477.465C172.383 457.557 140.106 457.557 120.198 477.465C100.29 497.373 100.29 529.65 120.198 549.557C140.106 569.465 172.383 569.465 192.291 549.557Z" fill="white" stroke="#5A7EC1" stroke-width="1.93987" stroke-linejoin="round"/>
<path d="M158.243 563.867C186.047 559.443 205 533.317 200.577 505.513C196.153 477.709 170.027 458.755 142.223 463.179C114.419 467.602 95.4653 493.728 99.8889 521.532C104.313 549.337 130.438 568.29 158.243 563.867Z" fill="white" stroke="#5A7EC1" stroke-width="1.93987" stroke-linejoin="round"/>
<path d="M187.676 530.217C196.894 509.543 187.607 485.312 166.933 476.094C146.259 466.877 122.028 476.164 112.81 496.838C103.593 517.511 112.88 541.743 133.554 550.96C154.227 560.178 178.459 550.891 187.676 530.217Z" fill="white" stroke="#5A7EC1" stroke-width="1.93987" stroke-linejoin="round"/>
<path d="M112.792 513.51C112.798 502.947 116.881 492.793 124.19 485.166C131.499 477.54 141.47 473.029 152.024 472.574C151.436 472.574 150.798 472.574 150.259 472.574C139.389 472.574 128.964 476.892 121.278 484.578C113.591 492.264 109.273 502.689 109.273 513.559C109.273 524.429 113.591 534.854 121.278 542.54C128.964 550.226 139.389 554.544 150.259 554.544C150.847 554.544 151.485 554.544 152.024 554.544C141.451 554.095 131.462 549.572 124.15 541.923C116.837 534.274 112.767 524.092 112.792 513.51Z" fill="white" stroke="#5A7EC1" stroke-width="1.93987" stroke-linejoin="round"/>
<path d="M188.252 474.192H184.354" stroke="#5A7EC1" stroke-width="1.93987" stroke-linejoin="round"/>
<path d="M193.205 478.802H190.373" stroke="#5A7EC1" stroke-width="1.93987" stroke-linejoin="round"/>
<path d="M199.568 485.876H196.393" stroke="#5A7EC1" stroke-width="1.93987" stroke-linejoin="round"/>
<path d="M203.111 494.728H198.87" stroke="#5A7EC1" stroke-width="1.93987" stroke-linejoin="round"/>
<path d="M206.299 504.291H202.4" stroke="#5A7EC1" stroke-width="1.93987" stroke-linejoin="round"/>
<path d="M206.299 524.458H202.057" stroke="#5A7EC1" stroke-width="1.93987" stroke-linejoin="round"/>
<path d="M189.662 548.537H193.205" stroke="#5A7EC1" stroke-width="1.93987" stroke-linejoin="round"/>
<path d="M183.643 553.134H187.541" stroke="#5A7EC1" stroke-width="1.93987" stroke-linejoin="round"/>
<path d="M177.28 558.087H181.166" stroke="#5A7EC1" stroke-width="1.93987" stroke-linejoin="round"/>
<path d="M181.522 469.239H175.502" stroke="#5A7EC1" stroke-width="1.93987" stroke-linejoin="round"/>
<path d="M165.51 489.444L156.107 520.964H162.237V524.998H155.555V528.308H162.237V532.354H155.555V540.874H147.463V532.354H140.782V528.308H147.463V524.998H140.782V520.964H146.801L137.471 489.444H145.894L151.84 512.137L157.786 489.444H165.51Z" fill="#5A7EC1"/>
<path d="M336.083 552.718L346.37 563.752C346.37 563.752 359.684 570.74 360.334 571.181C360.983 571.623 360.334 577.728 360.334 577.728H314.395C314.182 577.726 313.972 577.682 313.776 577.599C313.58 577.515 313.403 577.393 313.255 577.24C313.106 577.087 312.99 576.907 312.912 576.708C312.834 576.51 312.797 576.298 312.802 576.085L313.194 563.972C313.194 563.972 330.162 550.02 336.083 552.718Z" fill="white" stroke="#5A7EC1" stroke-width="1.93987" stroke-miterlimit="10"/>
<path d="M360.628 573.106H312.9L312.802 576.048C312.797 576.261 312.834 576.473 312.912 576.671C312.99 576.87 313.106 577.051 313.255 577.204C313.403 577.356 313.58 577.478 313.776 577.562C313.972 577.646 314.182 577.69 314.395 577.691H360.334C360.334 577.691 360.616 574.994 360.628 573.106Z" fill="white" stroke="#5A7EC1" stroke-width="1.93987" stroke-miterlimit="10"/>
<path d="M251.808 556.04C252.041 558.302 252.041 560.582 251.808 562.844C251.367 564.806 245.041 569.171 244.599 571.794C244.341 573.527 244.271 575.282 244.391 577.029H277.775C278.671 574.211 279.041 571.252 278.866 568.3C278.437 564.156 277.493 556.04 277.493 556.04H251.808Z" fill="white" stroke="#5A7EC1" stroke-width="1.93987" stroke-miterlimit="10"/>
<path d="M278.658 573.547H244.452C244.368 574.706 244.368 575.87 244.452 577.029H277.836C278.191 575.889 278.466 574.726 278.658 573.547Z" fill="white" stroke="#5A7EC1" stroke-width="1.93987" stroke-miterlimit="10"/>
<path d="M257.84 349.41L254.714 393.117V537.368L251.808 542.762V556.04H277.554C277.554 556.04 279.638 544.418 279.638 542.762C279.638 541.107 278.805 538.606 278.805 536.951C278.805 535.296 295.809 397.224 295.809 397.224L299.132 396.39L309.921 546.036L307.469 549.346L313.28 565.542L332.381 553.502L336.12 552.669V541.892C335.336 538.768 334.925 535.562 334.894 532.341C334.894 527.364 335.311 399.725 335.311 399.725L334.894 348.233L257.84 349.41Z" fill="#5A7EC1" stroke="#5A7EC1" stroke-width="1.93987" stroke-miterlimit="10"/>
<path d="M322.512 280.754L337.224 316.001L340.902 340.521L347.951 346.345C347.951 346.345 361.437 317.534 361.744 314.469C362.05 311.404 338.756 255.927 337.53 251.943C336.304 247.958 330.787 246.426 330.787 246.426H324.964" fill="white"/>
<path d="M322.512 280.754L337.224 316.001L340.902 340.521L347.951 346.345C347.951 346.345 361.437 317.534 361.744 314.469C362.05 311.404 338.756 255.927 337.53 251.943C336.304 247.958 330.787 246.426 330.787 246.426H324.964" stroke="#5A7EC1" stroke-width="1.93987" stroke-miterlimit="10"/>
<path d="M337.837 313.856C337.837 313.856 341.515 303.742 349.79 303.742" stroke="#5A7EC1" stroke-width="1.93987" stroke-miterlimit="10"/>
<path d="M339.982 335.005C339.982 335.005 346.725 327.955 351.016 338.989" stroke="#5A7EC1" stroke-width="1.93987" stroke-miterlimit="10"/>
<path d="M349.79 343.587C349.79 343.587 345.806 337.763 343.66 337.457C341.515 337.15 339.063 338.989 339.063 338.989L334.159 342.974C334.159 342.974 328.948 350.023 329.561 351.556C330.174 353.088 333.546 364.122 334.465 364.429C335.385 364.735 339.982 361.057 339.982 361.057C339.982 361.057 346.725 355.234 347.338 351.862C347.96 349.049 348.779 346.284 349.79 343.587Z" fill="white" stroke="#5A7EC1" stroke-width="1.93987" stroke-miterlimit="10"/>
<path d="M332.626 264.203L334.465 332.859C334.465 332.859 338.143 343.586 336.917 346.958C336.224 348.932 334.94 350.644 333.239 351.862C333.239 351.862 267.955 353.088 263.97 352.781C262.772 352.669 261.61 352.312 260.555 351.732C259.501 351.152 258.577 350.362 257.84 349.41L240.063 249.797L277.763 231.101C283.794 229.425 289.941 228.196 296.153 227.423C303.509 226.81 333.546 248.571 333.546 248.571L334.159 251.023" fill="white"/>
<path d="M332.626 264.203L334.465 332.859C334.465 332.859 338.143 343.586 336.917 346.958C336.224 348.932 334.94 350.644 333.239 351.862C333.239 351.862 267.955 353.088 263.97 352.781C262.772 352.669 261.61 352.312 260.555 351.732C259.501 351.152 258.577 350.362 257.84 349.41L240.063 249.797L277.763 231.101C283.794 229.425 289.941 228.196 296.153 227.423C303.509 226.81 333.546 248.571 333.546 248.571L334.159 251.023" stroke="#5A7EC1" stroke-width="1.93987" stroke-miterlimit="10"/>
<path d="M293.394 251.023L302.283 259.299L295.846 325.503L305.041 344.2L315.769 323.664L305.961 260.218L313.01 247.652L301.976 239.989L293.394 251.023Z" fill="#5A7EC1" stroke="#5A7EC1" stroke-width="1.93987" stroke-miterlimit="10"/>
<path d="M286.651 218.841L279.908 223.132L275.004 234.473L287.877 260.832L297.379 247.652L304.256 251.134L309.945 247.346L321.286 257.154C321.286 257.154 313.93 235.086 311.784 229.262C310.105 225.122 307.082 221.668 303.202 219.454C301.363 218.228 290.636 217.615 286.651 218.841Z" fill="white" stroke="#5A7EC1" stroke-width="1.93987" stroke-miterlimit="10"/>
<path d="M308.768 169.617C308.768 169.617 315.376 174.435 317.485 177.745C319.594 181.056 319.287 184.954 320.501 186.168C321.715 187.382 328.617 189.172 328.617 191.881C328.617 194.591 323.505 199.102 323.505 199.102C323.505 199.102 324.412 213.238 323.198 215.335C321.984 217.431 309.97 218.044 309.97 218.044C309.97 218.044 308.744 234.595 308.744 239.401C308.744 244.207 304.232 251.134 304.232 251.134L295.233 242.748C295.233 242.748 286.504 230.12 285.302 226.504C284.101 222.887 285.658 209.646 285.658 209.646C285.658 209.646 271.522 194.934 273.398 182.282C275.274 169.629 295.049 168.796 295.65 167.57C296.251 166.344 292.646 164.272 296.876 162.764C301.106 161.256 310.865 166.013 308.768 169.617Z" fill="white" stroke="#5A7EC1" stroke-width="1.93987" stroke-miterlimit="10"/>
<path d="M296.692 162.702C292.487 164.198 296.091 166.307 295.466 167.508C294.841 168.71 275.016 169.617 273.214 182.22C271.412 194.824 285.658 209.646 285.658 209.646C285.658 209.646 285.658 209.94 285.584 210.418L287.472 209.045C287.472 209.045 283.794 203.933 284.162 200.328C284.53 196.724 288.674 195.817 289.569 196.712C290.464 197.607 291.383 200.022 294.081 200.623C296.778 201.223 295.589 197.018 295.589 197.018L293.137 189.491C293.137 189.491 301.559 182.882 301.253 180.774C300.946 178.665 296.692 175.931 296.692 175.931L308.731 169.617C310.865 166.013 300.946 161.194 296.692 162.702Z" fill="#5A7EC1" stroke="#5A7EC1" stroke-width="1.93987" stroke-miterlimit="10"/>
<path d="M318.184 184.93C319.336 188.608 318.282 192.286 315.818 193.07C313.353 193.855 310.435 191.428 309.271 187.701C308.106 183.974 309.173 180.345 311.637 179.56C314.101 178.775 317.019 181.203 318.184 184.93Z" stroke="#5A7EC1" stroke-width="1.93987" stroke-miterlimit="10"/>
<path d="M318.037 178.653C319.961 179.18 321.825 181.227 322.695 184.035C322.903 185.101 322.985 186.187 322.941 187.272" stroke="#5A7EC1" stroke-width="1.93987" stroke-miterlimit="10"/>
<path d="M316.112 187.455C316.406 188.927 316.185 190.202 315.609 190.324C315.033 190.447 314.383 189.343 314.052 187.872C313.721 186.401 313.979 185.126 314.543 185.016C315.106 184.905 315.818 185.996 316.112 187.455Z" fill="#5A7EC1"/>
<path d="M309.271 187.701L289.508 196.687" stroke="#5A7EC1" stroke-width="1.93987" stroke-miterlimit="10"/>
<path d="M318.184 184.93L322.401 183.103" stroke="#5A7EC1" stroke-width="1.93987" stroke-miterlimit="10"/>
<path d="M321.592 202.29C321.592 202.29 317.497 204.742 314.028 200.034" stroke="#5A7EC1" stroke-width="1.93987" stroke-miterlimit="10"/>
<path d="M309.97 218.044L299.524 217.615L309.332 225.891L309.97 218.044Z" fill="#5A7EC1" stroke="#5A7EC1" stroke-width="1.93987" stroke-miterlimit="10"/>
<path d="M287.411 209.021L291.249 210.565L293.701 208.113" stroke="#5A7EC1" stroke-width="1.93987" stroke-miterlimit="10"/>
<path d="M240.063 249.798L210.026 317.841L225.045 328.262L254.162 290.354" fill="white"/>
<path d="M240.063 249.798L210.026 317.841L225.045 328.262L254.162 290.354" stroke="#5A7EC1" stroke-width="1.93987" stroke-miterlimit="10"/>
<path d="M227.19 306.193L253.243 343.893L241.596 352.168C241.596 352.168 208.8 323.97 208.494 321.212C208.187 318.453 214.011 309.258 214.011 309.258" fill="white"/>
<path d="M227.19 306.193L253.243 343.893L241.596 352.168C241.596 352.168 208.8 323.97 208.494 321.212C208.187 318.453 214.011 309.258 214.011 309.258" stroke="#5A7EC1" stroke-width="1.93987" stroke-miterlimit="10"/>
<path d="M238.224 349.103L249.871 339.908" stroke="#5A7EC1" stroke-width="1.93987" stroke-miterlimit="10"/>
<path d="M253.243 343.893C253.243 343.893 266.079 355.356 266.729 356.582C267.164 357.26 267.42 358.037 267.474 358.841C267.527 359.645 267.377 360.45 267.035 361.18C266.674 361.752 266.185 362.233 265.606 362.584C265.027 362.935 264.375 363.147 263.7 363.203C263.7 363.203 260.635 369.026 256.651 369.639C252.666 370.252 247.762 368.413 247.149 365.961L245.923 361.057L241.632 352.169L253.243 343.893Z" fill="white" stroke="#5A7EC1" stroke-width="1.93987" stroke-miterlimit="10"/>
<path d="M245.887 361.057C245.887 361.057 249.871 365.348 252.017 366.267" stroke="#5A7EC1" stroke-width="1.93987" stroke-miterlimit="10"/>
<path d="M543.676 577.691H581.682" stroke="#E9EEF9" stroke-width="2.15466" stroke-miterlimit="10"/>
<path d="M25.746 577.691H545.57" stroke="#E9EEF9" stroke-width="2.15466" stroke-miterlimit="10"/>
</svg>
