<svg width="14" height="14" viewBox="0 0 14 14" fill="none" xmlns="http://www.w3.org/2000/svg">
<circle cx="7.34219" cy="7.1083" r="5.09072" fill="white"/>
<path d="M6.28723 7.92634H7.95156L8.39725 6.29004H6.73292L6.28723 7.92634Z" fill="#0FA958"/>
<path d="M7.3422 0.972168C3.95341 0.972168 1.20605 3.71952 1.20605 7.10831C1.20605 10.4971 3.95341 13.2445 7.3422 13.2445C10.731 13.2445 13.4783 10.4971 13.4783 7.10831C13.4783 3.71952 10.731 0.972168 7.3422 0.972168ZM10.894 6.29016H9.6455L9.19961 7.92646H10.4477L10.1133 9.15369H8.86478L8.53036 10.3809H7.28186L7.61669 9.15369H5.95195L5.61753 10.3809H4.36903L4.70386 9.15369H3.45597L3.79039 7.92646H5.03889L5.48479 6.29016H4.2367L4.57111 5.06293H5.81921L6.15404 3.8357H7.40213L7.06771 5.06293H8.73203L9.06686 3.8357H10.315L9.98053 5.06293H11.2284L10.894 6.29016Z" fill="#0FA958"/>
</svg>
