<svg width="156" height="418" viewBox="0 0 156 418" fill="none" xmlns="http://www.w3.org/2000/svg">
<path d="M129.142 391.386L139.428 402.42C139.428 402.42 152.743 409.408 153.392 409.849C154.042 410.291 153.392 416.396 153.392 416.396H107.454C107.241 416.395 107.031 416.351 106.835 416.267C106.639 416.183 106.462 416.062 106.313 415.909C106.165 415.756 106.048 415.575 105.971 415.377C105.893 415.178 105.855 414.966 105.86 414.753L106.253 402.641C106.253 402.641 123.22 388.689 129.142 391.386Z" fill="white" stroke="#5A7EC1" stroke-width="1.93987" stroke-miterlimit="10"/>
<path d="M153.687 411.774H105.958L105.86 414.717C105.855 414.93 105.893 415.141 105.971 415.34C106.048 415.538 106.165 415.719 106.313 415.872C106.462 416.025 106.639 416.147 106.835 416.23C107.031 416.314 107.241 416.358 107.454 416.36H153.392C153.392 416.36 153.674 413.662 153.687 411.774Z" fill="white" stroke="#5A7EC1" stroke-width="1.93987" stroke-miterlimit="10"/>
<path d="M44.8668 394.708C45.0993 396.971 45.0993 399.251 44.8668 401.513C44.4255 403.474 38.0993 407.839 37.658 410.462C37.3997 412.195 37.3298 413.95 37.4495 415.697H70.8335C71.7302 412.879 72.1001 409.92 71.9247 406.968C71.4956 402.824 70.5515 394.708 70.5515 394.708H44.8668Z" fill="white" stroke="#5A7EC1" stroke-width="1.93987" stroke-miterlimit="10"/>
<path d="M71.7162 412.216H37.5108C37.4263 413.375 37.4263 414.538 37.5108 415.697H70.8948C71.2499 414.558 71.5244 413.394 71.7162 412.216Z" fill="white" stroke="#5A7EC1" stroke-width="1.93987" stroke-miterlimit="10"/>
<path d="M50.8987 188.078L47.7724 231.785V376.036L44.8668 381.431V394.708H70.6128C70.6128 394.708 72.697 383.086 72.697 381.431C72.697 379.776 71.8633 377.275 71.8633 375.62C71.8633 373.964 88.868 235.892 88.868 235.892L92.1904 235.059L102.979 384.704L100.527 388.014L106.338 404.21L125.44 392.171L129.179 391.337V380.56C128.395 377.436 127.983 374.231 127.953 371.01C127.953 366.032 128.37 238.393 128.37 238.393L127.953 186.901L50.8987 188.078Z" fill="#5A7EC1" stroke="#5A7EC1" stroke-width="1.93987" stroke-miterlimit="10"/>
<path d="M115.57 119.422L130.282 154.67L133.96 179.19L141.01 185.013C141.01 185.013 154.496 156.202 154.802 153.137C155.109 150.072 131.815 94.5958 130.589 90.6113C129.363 86.6268 123.846 85.0943 123.846 85.0943H118.022" fill="white"/>
<path d="M115.57 119.422L130.282 154.67L133.96 179.19L141.01 185.013C141.01 185.013 154.496 156.202 154.802 153.137C155.109 150.072 131.815 94.5958 130.589 90.6113C129.363 86.6268 123.846 85.0943 123.846 85.0943H118.022" stroke="#5A7EC1" stroke-width="1.93987" stroke-miterlimit="10"/>
<path d="M130.895 152.524C130.895 152.524 134.573 142.41 142.849 142.41" stroke="#5A7EC1" stroke-width="1.93987" stroke-miterlimit="10"/>
<path d="M133.041 173.673C133.041 173.673 139.784 166.623 144.075 177.657" stroke="#5A7EC1" stroke-width="1.93987" stroke-miterlimit="10"/>
<path d="M142.849 182.255C142.849 182.255 138.864 176.431 136.719 176.125C134.573 175.818 132.121 177.657 132.121 177.657L127.217 181.642C127.217 181.642 122.007 188.691 122.62 190.224C123.233 191.756 126.604 202.79 127.524 203.097C128.443 203.403 133.041 199.725 133.041 199.725C133.041 199.725 139.784 193.902 140.397 190.53C141.019 187.718 141.838 184.952 142.849 182.255Z" fill="white" stroke="#5A7EC1" stroke-width="1.93987" stroke-miterlimit="10"/>
<path d="M125.685 102.871L127.524 171.527C127.524 171.527 131.202 182.255 129.976 185.626C129.283 187.6 127.999 189.313 126.298 190.53C126.298 190.53 61.0132 191.756 57.0287 191.45C55.8306 191.337 54.6683 190.98 53.6139 190.4C52.5594 189.82 51.6353 189.03 50.8987 188.078L33.1217 88.4658L70.8212 69.7693C76.8526 68.0935 82.9992 66.8642 89.2112 66.0913C96.5672 65.4783 126.604 87.2398 126.604 87.2398L127.217 89.6918" fill="white"/>
<path d="M125.685 102.871L127.524 171.527C127.524 171.527 131.202 182.255 129.976 185.626C129.283 187.6 127.999 189.313 126.298 190.53C126.298 190.53 61.0132 191.756 57.0287 191.45C55.8306 191.337 54.6683 190.98 53.6139 190.4C52.5594 189.82 51.6353 189.03 50.8987 188.078L33.1217 88.4658L70.8212 69.7693C76.8526 68.0935 82.9992 66.8642 89.2112 66.0913C96.5672 65.4783 126.604 87.2398 126.604 87.2398L127.217 89.6918" stroke="#5A7EC1" stroke-width="1.93987" stroke-miterlimit="10"/>
<path d="M86.4528 89.6918L95.3413 97.9673L88.9048 164.171L98.0998 182.868L108.827 162.332L99.0193 98.8868L106.069 86.3203L95.0348 78.6578L86.4528 89.6918Z" fill="#5A7EC1" stroke="#5A7EC1" stroke-width="1.93987" stroke-miterlimit="10"/>
<path d="M79.7097 57.5093L72.9667 61.8003L68.0627 73.1408L80.9357 99.4998L90.4372 86.3203L97.3151 89.8022L103.004 86.0138L114.344 95.8218C114.344 95.8218 106.988 73.7538 104.843 67.9303C103.163 63.7908 100.141 60.3363 96.2607 58.1223C94.4217 56.8963 83.6942 56.2833 79.7097 57.5093Z" fill="white" stroke="#5A7EC1" stroke-width="1.93987" stroke-miterlimit="10"/>
<path d="M101.827 8.28543C101.827 8.28543 108.435 13.1036 110.544 16.4138C112.652 19.724 112.346 23.6227 113.56 24.8364C114.773 26.0502 121.676 27.8401 121.676 30.5496C121.676 33.259 116.563 37.7707 116.563 37.7707C116.563 37.7707 117.47 51.9065 116.257 54.003C115.043 56.0994 103.028 56.7124 103.028 56.7124C103.028 56.7124 101.802 73.2634 101.802 78.0694C101.802 82.8753 97.2905 89.8022 97.2905 89.8022L88.2917 81.4163C88.2917 81.4163 79.5625 68.7885 78.3611 65.1718C77.1596 61.5551 78.7166 48.3143 78.7166 48.3143C78.7166 48.3143 64.5808 33.6023 66.4566 20.95C68.3324 8.29768 88.1077 7.46399 88.7085 6.23799C89.3092 5.01199 85.7048 2.94006 89.9345 1.43208C94.1642 -0.0759041 103.923 4.68099 101.827 8.28543Z" fill="white" stroke="#5A7EC1" stroke-width="1.93987" stroke-miterlimit="10"/>
<path d="M89.7506 1.37079C85.5455 2.86651 89.1499 4.97523 88.5246 6.17671C87.8994 7.37819 68.075 8.28543 66.2727 20.8887C64.4705 33.492 78.7166 48.3143 78.7166 48.3143C78.7166 48.3143 78.7166 48.6086 78.6431 49.0867L80.5311 47.7136C80.5311 47.7136 76.8531 42.6012 77.2209 38.9967C77.5887 35.3923 81.7326 34.485 82.6276 35.38C83.5226 36.275 84.4421 38.6902 87.1392 39.291C89.8365 39.8917 88.6472 35.6865 88.6472 35.6865L86.1952 28.1589C86.1952 28.1589 94.6179 21.5507 94.3114 19.442C94.0049 17.3333 89.7506 14.5993 89.7506 14.5993L101.79 8.28543C103.923 4.68099 94.0049 -0.137189 89.7506 1.37079Z" fill="#5A7EC1" stroke="#5A7EC1" stroke-width="1.93987" stroke-miterlimit="10"/>
<path d="M111.242 23.5982C112.395 27.2762 111.341 30.9542 108.876 31.7388C106.412 32.5234 103.494 30.096 102.329 26.3689C101.165 22.6419 102.231 19.0129 104.696 18.2283C107.16 17.4437 110.078 19.8711 111.242 23.5982Z" stroke="#5A7EC1" stroke-width="1.93987" stroke-miterlimit="10"/>
<path d="M111.095 17.321C113.02 17.8482 114.884 19.8956 115.754 22.7032C115.961 23.7689 116.044 24.8551 115.999 25.9398" stroke="#5A7EC1" stroke-width="1.93987" stroke-miterlimit="10"/>
<path d="M109.17 26.1237C109.465 27.5949 109.244 28.87 108.668 28.9926C108.092 29.1152 107.442 28.0118 107.111 26.5406C106.78 25.0694 107.037 23.7943 107.601 23.684C108.165 23.5736 108.876 24.6648 109.17 26.1237Z" fill="#5A7EC1"/>
<path d="M102.329 26.3689L82.5663 35.3555" stroke="#5A7EC1" stroke-width="1.93987" stroke-miterlimit="10"/>
<path d="M111.242 23.5982L115.46 21.7714" stroke="#5A7EC1" stroke-width="1.93987" stroke-miterlimit="10"/>
<path d="M114.651 40.9583C114.651 40.9583 110.556 43.4103 107.086 38.7025" stroke="#5A7EC1" stroke-width="1.93987" stroke-miterlimit="10"/>
<path d="M103.028 56.7124L92.5828 56.2833L102.391 64.5588L103.028 56.7124Z" fill="#5A7EC1" stroke="#5A7EC1" stroke-width="1.93987" stroke-miterlimit="10"/>
<path d="M80.4698 47.6891L84.3072 49.2338L86.7592 46.7818" stroke="#5A7EC1" stroke-width="1.93987" stroke-miterlimit="10"/>
<path d="M33.1217 88.4658L3.08472 156.509L18.1032 166.93L47.2207 129.022" fill="white"/>
<path d="M33.1217 88.4658L3.08472 156.509L18.1032 166.93L47.2207 129.022" stroke="#5A7EC1" stroke-width="1.93987" stroke-miterlimit="10"/>
<path d="M20.2487 144.862L46.3012 182.561L34.6542 190.837C34.6542 190.837 1.85872 162.639 1.55222 159.88C1.24572 157.122 7.06922 147.927 7.06922 147.927" fill="white"/>
<path d="M20.2487 144.862L46.3012 182.561L34.6542 190.837C34.6542 190.837 1.85872 162.639 1.55222 159.88C1.24572 157.122 7.06922 147.927 7.06922 147.927" stroke="#5A7EC1" stroke-width="1.93987" stroke-miterlimit="10"/>
<path d="M31.2827 187.772L42.9297 178.577" stroke="#5A7EC1" stroke-width="1.93987" stroke-miterlimit="10"/>
<path d="M46.3013 182.561C46.3013 182.561 59.1375 194.024 59.7873 195.25C60.2226 195.928 60.479 196.706 60.5326 197.51C60.5862 198.314 60.4352 199.118 60.0938 199.848C59.7329 200.421 59.2437 200.902 58.6649 201.253C58.0862 201.604 57.4337 201.815 56.759 201.871C56.759 201.871 53.694 207.694 49.7095 208.307C45.725 208.92 40.821 207.081 40.208 204.629L38.982 199.725L34.691 190.837L46.3013 182.561Z" fill="white" stroke="#5A7EC1" stroke-width="1.93987" stroke-miterlimit="10"/>
<path d="M38.9452 199.725C38.9452 199.725 42.9297 204.016 45.0752 204.936" stroke="#5A7EC1" stroke-width="1.93987" stroke-miterlimit="10"/>
</svg>
