<svg width="568" height="573" viewBox="0 0 568 573" fill="none" xmlns="http://www.w3.org/2000/svg">
<path d="M450.868 549.792C478.295 543.435 495.375 516.048 489.018 488.621C482.661 461.194 455.273 444.114 427.847 450.471C400.42 456.828 383.34 484.216 389.697 511.642C396.054 539.069 423.441 556.149 450.868 549.792Z" fill="white" stroke="#5A7EC1" stroke-width="1.93987" stroke-linejoin="round"/>
<path d="M469.38 536.222C489.288 516.314 489.288 484.037 469.38 464.129C449.472 444.222 417.195 444.222 397.287 464.129C377.38 484.037 377.38 516.314 397.287 536.222C417.195 556.13 449.472 556.13 469.38 536.222Z" fill="white" stroke="#5A7EC1" stroke-width="1.93987" stroke-linejoin="round"/>
<path d="M462.315 529.157C478.32 513.151 478.32 487.2 462.315 471.195C446.309 455.189 420.359 455.189 404.353 471.195C388.347 487.2 388.347 513.151 404.353 529.157C420.359 545.162 446.309 545.162 462.315 529.157Z" fill="white" stroke="#5A7EC1" stroke-width="1.93987" stroke-linejoin="round"/>
<path d="M395.897 500.178C395.9 489.614 399.982 479.459 407.292 471.832C414.602 464.204 424.574 459.694 435.129 459.242C434.553 459.242 433.964 459.242 433.364 459.242C422.494 459.242 412.069 463.56 404.383 471.247C396.696 478.933 392.378 489.358 392.378 500.227C392.378 511.097 396.696 521.522 404.383 529.208C412.069 536.895 422.494 541.213 433.364 541.213C433.964 541.213 434.59 541.213 435.129 541.213C424.555 540.766 414.565 536.244 407.251 528.595C399.938 520.945 395.869 510.762 395.897 500.178Z" fill="white" stroke="#5A7EC1" stroke-width="1.93987" stroke-linejoin="round"/>
<path d="M471.333 460.861H467.446" stroke="#5A7EC1" stroke-width="1.93987" stroke-linejoin="round"/>
<path d="M476.286 465.47H473.454" stroke="#5A7EC1" stroke-width="1.93987" stroke-linejoin="round"/>
<path d="M482.661 472.544H479.474" stroke="#5A7EC1" stroke-width="1.93987" stroke-linejoin="round"/>
<path d="M486.204 481.396H481.95" stroke="#5A7EC1" stroke-width="1.93987" stroke-linejoin="round"/>
<path d="M489.392 490.959H485.493" stroke="#5A7EC1" stroke-width="1.93987" stroke-linejoin="round"/>
<path d="M489.392 511.127H485.138" stroke="#5A7EC1" stroke-width="1.93987" stroke-linejoin="round"/>
<path d="M472.755 535.205H476.286" stroke="#5A7EC1" stroke-width="1.93987" stroke-linejoin="round"/>
<path d="M466.735 539.803H470.622" stroke="#5A7EC1" stroke-width="1.93987" stroke-linejoin="round"/>
<path d="M460.36 544.756H464.259" stroke="#5A7EC1" stroke-width="1.93987" stroke-linejoin="round"/>
<path d="M464.614 455.908H458.595" stroke="#5A7EC1" stroke-width="1.93987" stroke-linejoin="round"/>
<path d="M450.417 473.39H423.985V480.746H426.228C429.097 480.746 430.348 482.365 430.348 486.043V486.656H423.985V491.78H430.311C430.115 495.385 428.349 496.598 425.493 496.598H423.985V503.954H425.125C428.803 503.954 430.421 505.72 430.421 510.501V518.581C430.421 522.774 430.715 523.583 431.157 524.907H439.383C438.654 522.908 438.353 520.777 438.501 518.654V510.722C438.501 505.352 437.177 501.466 433.143 499.774C436.147 498.364 437.802 495.704 438.268 491.793H450.417V486.717H438.427V485.295C438.512 482.97 438.054 480.657 437.091 478.54H450.417V473.39Z" fill="#5A7EC1"/>
<path d="M502.265 421.371C530.419 421.371 553.242 398.548 553.242 370.394C553.242 342.24 530.419 319.417 502.265 319.417C474.111 319.417 451.288 342.24 451.288 370.394C451.288 398.548 474.111 421.371 502.265 421.371Z" fill="white" stroke="#5A7EC1" stroke-width="1.93987" stroke-linejoin="round"/>
<path d="M496.27 421.371C524.424 421.371 547.247 398.548 547.247 370.394C547.247 342.24 524.424 319.417 496.27 319.417C468.116 319.417 445.293 342.24 445.293 370.394C445.293 398.548 468.116 421.371 496.27 421.371Z" fill="white" stroke="#5A7EC1" stroke-width="1.93987" stroke-linejoin="round"/>
<path d="M496.27 411.379C518.905 411.379 537.255 393.03 537.255 370.394C537.255 347.759 518.905 329.409 496.27 329.409C473.634 329.409 455.285 347.759 455.285 370.394C455.285 393.03 473.634 411.379 496.27 411.379Z" fill="white" stroke="#5A7EC1" stroke-width="1.93987" stroke-linejoin="round"/>
<path d="M458.877 370.406C458.88 359.842 462.962 349.687 470.272 342.059C477.581 334.432 487.554 329.922 498.109 329.47C497.52 329.47 496.932 329.47 496.343 329.47C490.902 329.376 485.497 330.366 480.443 332.384C475.388 334.401 470.786 337.404 466.905 341.219C463.024 345.033 459.942 349.583 457.837 354.601C455.733 359.62 454.649 365.007 454.649 370.449C454.649 375.891 455.733 381.279 457.837 386.297C459.942 391.316 463.024 395.865 466.905 399.68C470.786 403.494 475.388 406.498 480.443 408.515C485.497 410.532 490.902 411.522 496.343 411.428C496.932 411.428 497.52 411.428 498.109 411.428C487.539 410.976 477.554 406.454 470.242 398.808C462.93 391.162 458.858 380.986 458.877 370.406Z" fill="white" stroke="#5A7EC1" stroke-width="1.93987" stroke-linejoin="round"/>
<path d="M534.263 331.088H530.365" stroke="#5A7EC1" stroke-width="1.93987" stroke-linejoin="round"/>
<path d="M539.217 335.686H536.385" stroke="#5A7EC1" stroke-width="1.93987" stroke-linejoin="round"/>
<path d="M545.592 342.76H542.404" stroke="#5A7EC1" stroke-width="1.93987" stroke-linejoin="round"/>
<path d="M549.123 351.612H544.881" stroke="#5A7EC1" stroke-width="1.93987" stroke-linejoin="round"/>
<path d="M552.31 361.175H548.424" stroke="#5A7EC1" stroke-width="1.93987" stroke-linejoin="round"/>
<path d="M552.31 381.342H548.068" stroke="#5A7EC1" stroke-width="1.93987" stroke-linejoin="round"/>
<path d="M535.673 405.421H539.216" stroke="#5A7EC1" stroke-width="1.93987" stroke-linejoin="round"/>
<path d="M529.654 410.018H533.552" stroke="#5A7EC1" stroke-width="1.93987" stroke-linejoin="round"/>
<path d="M523.291 414.971H527.177" stroke="#5A7EC1" stroke-width="1.93987" stroke-linejoin="round"/>
<path d="M527.533 326.123H521.513" stroke="#5A7EC1" stroke-width="1.93987" stroke-linejoin="round"/>
<path d="M517.136 374.293V368.862H513.201L515.653 346.732H508.971L506.691 368.862H503.356L501.161 346.732H493.805L491.672 368.862H488.301L485.935 346.732H478.493L480.945 368.862H476.163V374.293H481.545L482.195 380.128H476.163V385.56H482.796L483.912 395.49H494.431L495.485 385.56H498.93L499.997 395.49H510.173L511.276 385.56H517.075V380.128H511.877L512.539 374.293H517.136ZM488.938 374.293H491.145L490.581 380.128H489.527L488.938 374.293ZM496.135 380.128L496.76 374.293H497.79L498.415 380.128H496.135ZM505.551 380.128H504.484L503.908 374.293H506.151L505.551 380.128Z" fill="#5A7EC1"/>
<path d="M531.738 272.149C551.645 252.241 551.645 219.964 531.738 200.056C511.83 180.148 479.553 180.148 459.645 200.056C439.737 219.964 439.737 252.241 459.645 272.148C479.553 292.056 511.83 292.056 531.738 272.149Z" fill="white" stroke="#5A7EC1" stroke-width="1.93987" stroke-linejoin="round"/>
<path d="M501.629 285.633C529.002 279.047 545.852 251.517 539.265 224.145C532.678 196.772 505.149 179.922 477.776 186.509C450.404 193.095 433.554 220.625 440.14 247.997C446.727 275.37 474.257 292.22 501.629 285.633Z" fill="white" stroke="#5A7EC1" stroke-width="1.93987" stroke-linejoin="round"/>
<path d="M499.26 275.935C521.272 270.658 534.839 248.537 529.562 226.525C524.286 204.513 502.164 190.946 480.152 196.223C458.14 201.499 444.573 223.621 449.85 245.633C455.126 267.645 477.248 281.211 499.26 275.935Z" fill="white" stroke="#5A7EC1" stroke-width="1.93987" stroke-linejoin="round"/>
<path d="M452.244 236.098C452.247 225.534 456.329 215.378 463.639 207.751C470.949 200.124 480.921 195.614 491.476 195.162C490.888 195.162 490.25 195.162 489.711 195.162C478.841 195.162 468.416 199.48 460.73 207.166C453.044 214.852 448.725 225.277 448.725 236.147C448.725 247.017 453.044 257.442 460.73 265.128C468.416 272.814 478.841 277.132 489.711 277.132C490.299 277.132 490.937 277.132 491.476 277.132C480.903 276.683 470.915 272.16 463.602 264.511C456.289 256.862 452.219 246.68 452.244 236.098Z" fill="white" stroke="#5A7EC1" stroke-width="1.93987" stroke-linejoin="round"/>
<path d="M527.692 196.78H523.793" stroke="#5A7EC1" stroke-width="1.93987" stroke-linejoin="round"/>
<path d="M532.645 201.39H529.813" stroke="#5A7EC1" stroke-width="1.93987" stroke-linejoin="round"/>
<path d="M539.008 208.464H535.833" stroke="#5A7EC1" stroke-width="1.93987" stroke-linejoin="round"/>
<path d="M542.551 217.316H538.309" stroke="#5A7EC1" stroke-width="1.93987" stroke-linejoin="round"/>
<path d="M545.739 226.878H541.84" stroke="#5A7EC1" stroke-width="1.93987" stroke-linejoin="round"/>
<path d="M545.739 247.046H541.497" stroke="#5A7EC1" stroke-width="1.93987" stroke-linejoin="round"/>
<path d="M529.102 271.125H532.645" stroke="#5A7EC1" stroke-width="1.93987" stroke-linejoin="round"/>
<path d="M523.082 275.722H526.981" stroke="#5A7EC1" stroke-width="1.93987" stroke-linejoin="round"/>
<path d="M516.707 280.675H520.606" stroke="#5A7EC1" stroke-width="1.93987" stroke-linejoin="round"/>
<path d="M520.961 191.827H514.942" stroke="#5A7EC1" stroke-width="1.93987" stroke-linejoin="round"/>
<path d="M494.578 211.603H482.673V235.865H475.918V242.755H482.673V249.645H476.188V254.88H482.673V263.033H490.753V254.88H497.03V249.645H490.753V243.711H494.566C502.657 243.711 506.617 239.224 506.617 230.998V224.316C506.691 216.077 502.669 211.603 494.578 211.603ZM498.55 231.513C498.55 235.191 497.152 236.417 494.578 236.417H490.753V218.946H494.566C497.14 218.946 498.538 220.172 498.538 223.85L498.55 231.513Z" fill="#5A7EC1"/>
<path d="M448.762 153.11C476.916 153.11 499.739 130.287 499.739 102.133C499.739 73.9791 476.916 51.1559 448.762 51.1559C420.608 51.1559 397.785 73.9791 397.785 102.133C397.785 130.287 420.608 153.11 448.762 153.11Z" fill="white" stroke="#5A7EC1" stroke-width="1.93987" stroke-linejoin="round"/>
<path d="M442.767 153.11C470.921 153.11 493.744 130.287 493.744 102.133C493.744 73.9791 470.921 51.1559 442.767 51.1559C414.613 51.1559 391.79 73.9791 391.79 102.133C391.79 130.287 414.613 153.11 442.767 153.11Z" fill="white" stroke="#5A7EC1" stroke-width="1.93987" stroke-linejoin="round"/>
<path d="M451.133 142.225C473.292 137.608 487.513 115.901 482.896 93.7416C478.279 71.582 456.572 57.3612 434.412 61.9784C412.253 66.5957 398.032 88.3026 402.649 110.462C407.266 132.622 428.973 146.843 451.133 142.225Z" fill="white" stroke="#5A7EC1" stroke-width="1.93987" stroke-linejoin="round"/>
<path d="M405.313 102.133C405.313 91.5677 409.394 81.4107 416.704 73.7828C424.015 66.1549 433.989 61.6458 444.545 61.1968C443.956 61.1968 443.319 61.1968 442.779 61.1968C431.909 61.1968 421.485 65.5149 413.798 73.2011C406.112 80.8873 401.794 91.3121 401.794 102.182C401.794 113.052 406.112 123.477 413.798 131.163C421.485 138.849 431.909 143.167 442.779 143.167C443.368 143.167 444.005 143.167 444.545 143.167C433.972 142.718 423.983 138.195 416.67 130.546C409.357 122.897 405.287 112.715 405.313 102.133Z" fill="white" stroke="#5A7EC1" stroke-width="1.93987" stroke-linejoin="round"/>
<path d="M480.761 62.8152H476.862" stroke="#5A7EC1" stroke-width="1.93987" stroke-linejoin="round"/>
<path d="M485.714 67.4127H482.882" stroke="#5A7EC1" stroke-width="1.93987" stroke-linejoin="round"/>
<path d="M492.089 74.4989H488.901" stroke="#5A7EC1" stroke-width="1.93987" stroke-linejoin="round"/>
<path d="M495.62 83.3507H491.378" stroke="#5A7EC1" stroke-width="1.93987" stroke-linejoin="round"/>
<path d="M498.808 92.9012H494.909" stroke="#5A7EC1" stroke-width="1.93987" stroke-linejoin="round"/>
<path d="M498.808 113.081H494.566" stroke="#5A7EC1" stroke-width="1.93987" stroke-linejoin="round"/>
<path d="M482.171 137.148H485.714" stroke="#5A7EC1" stroke-width="1.93987" stroke-linejoin="round"/>
<path d="M476.151 141.757H480.05" stroke="#5A7EC1" stroke-width="1.93987" stroke-linejoin="round"/>
<path d="M469.788 146.71H473.675" stroke="#5A7EC1" stroke-width="1.93987" stroke-linejoin="round"/>
<path d="M474.03 57.8621H468.01" stroke="#5A7EC1" stroke-width="1.93987" stroke-linejoin="round"/>
<path d="M456.437 84.8587V77.5027H435.056V114.197H429.257V119.101H435.056V128.946H443.135V119.101H449.694V114.197H443.135V107.711H453.568V100.355H443.135V84.8587H456.437Z" fill="#5A7EC1"/>
<path d="M310.794 121.726C338.221 115.369 355.301 87.9818 348.944 60.555C342.587 33.1283 315.2 16.048 287.773 22.4052C260.346 28.7624 243.266 56.1497 249.623 83.5764C255.98 111.003 283.367 128.083 310.794 121.726Z" fill="white" stroke="#5A7EC1" stroke-width="1.93987" stroke-linejoin="round"/>
<path d="M329.334 108.139C349.241 88.231 349.241 55.9541 329.334 36.0463C309.426 16.1385 277.149 16.1385 257.241 36.0463C237.333 55.9541 237.333 88.2309 257.241 108.139C277.149 128.047 309.426 128.047 329.334 108.139Z" fill="white" stroke="#5A7EC1" stroke-width="1.93987" stroke-linejoin="round"/>
<path d="M322.268 101.073C338.274 85.0677 338.274 59.1173 322.268 43.1116C306.263 27.1059 280.312 27.1059 264.306 43.1116C248.301 59.1173 248.301 85.0677 264.306 101.073C280.312 117.079 306.263 117.079 322.268 101.073Z" fill="white" stroke="#5A7EC1" stroke-width="1.93987" stroke-linejoin="round"/>
<path d="M255.839 72.096C255.839 61.5294 259.92 51.3711 267.23 43.7412C274.54 36.1114 284.514 31.5996 295.071 31.1476C294.482 31.1476 293.894 31.1476 293.305 31.1476C287.864 31.0535 282.459 32.0439 277.405 34.061C272.351 36.0781 267.749 39.0816 263.867 42.8962C259.986 46.7108 256.904 51.2601 254.799 56.2787C252.695 61.2973 251.611 66.6847 251.611 72.1266C251.611 77.5685 252.695 82.956 254.799 87.9746C256.904 92.9932 259.986 97.5425 263.867 101.357C267.749 105.172 272.351 108.175 277.405 110.192C282.459 112.209 287.864 113.2 293.305 113.106C293.894 113.106 294.482 113.106 295.071 113.106C284.503 112.653 274.52 108.133 267.208 100.49C259.897 92.8469 255.823 82.6731 255.839 72.096Z" fill="white" stroke="#5A7EC1" stroke-width="1.93987" stroke-linejoin="round"/>
<path d="M331.275 32.7782H327.376" stroke="#5A7EC1" stroke-width="1.93987" stroke-linejoin="round"/>
<path d="M336.228 37.3757H333.396" stroke="#5A7EC1" stroke-width="1.93987" stroke-linejoin="round"/>
<path d="M342.603 44.4619H339.415" stroke="#5A7EC1" stroke-width="1.93987" stroke-linejoin="round"/>
<path d="M346.146 53.3014H341.892" stroke="#5A7EC1" stroke-width="1.93987" stroke-linejoin="round"/>
<path d="M349.334 62.8642H345.435" stroke="#5A7EC1" stroke-width="1.93987" stroke-linejoin="round"/>
<path d="M349.334 83.0442H345.079" stroke="#5A7EC1" stroke-width="1.93987" stroke-linejoin="round"/>
<path d="M332.697 107.111H336.228" stroke="#5A7EC1" stroke-width="1.93987" stroke-linejoin="round"/>
<path d="M326.677 111.708H330.564" stroke="#5A7EC1" stroke-width="1.93987" stroke-linejoin="round"/>
<path d="M320.302 116.673H324.201" stroke="#5A7EC1" stroke-width="1.93987" stroke-linejoin="round"/>
<path d="M324.544 27.8251H318.536" stroke="#5A7EC1" stroke-width="1.93987" stroke-linejoin="round"/>
<path d="M304.229 62.1286V58.3771C304.229 50.1506 300.33 45.4427 292.398 45.4427C284.466 45.4427 280.567 50.1506 280.567 58.3771V65.5124H278.508V69.5459H280.567V73.5917H278.508V77.6375H280.567V85.1284C280.567 93.3548 284.466 98.0627 292.398 98.0627C300.33 98.0627 304.229 93.3548 304.229 85.1284V81.0703H296.591V85.7046C296.591 89.3826 295.194 90.6944 292.619 90.6944C290.044 90.6944 288.647 89.3826 288.647 85.7046V77.6375H299.963V73.5917H288.647V69.5459H299.963V65.5124H288.647V57.8621C288.647 54.1841 290.044 52.7987 292.619 52.7987C295.194 52.7987 296.591 54.1964 296.591 57.8621V62.1286H304.229Z" fill="#5A7EC1"/>
<path d="M148.711 153.11C176.865 153.11 199.688 130.287 199.688 102.133C199.688 73.9791 176.865 51.1559 148.711 51.1559C120.557 51.1559 97.7339 73.9791 97.7339 102.133C97.7339 130.287 120.557 153.11 148.711 153.11Z" fill="white" stroke="#5A7EC1" stroke-width="1.93987" stroke-linejoin="round"/>
<path d="M142.716 153.11C170.87 153.11 193.693 130.287 193.693 102.133C193.693 73.9791 170.87 51.1559 142.716 51.1559C114.562 51.1559 91.7388 73.9791 91.7388 102.133C91.7388 130.287 114.562 153.11 142.716 153.11Z" fill="white" stroke="#5A7EC1" stroke-width="1.93987" stroke-linejoin="round"/>
<path d="M151.997 142.054C174.044 136.927 187.761 114.899 182.635 92.8514C177.508 70.8041 155.48 57.087 133.432 62.2136C111.385 67.3401 97.6679 89.3688 102.794 111.416C107.921 133.463 129.95 147.18 151.997 142.054Z" fill="white" stroke="#5A7EC1" stroke-width="1.93987" stroke-linejoin="round"/>
<path d="M105.274 102.133C105.271 91.5668 109.351 81.4081 116.662 73.7795C123.973 66.151 133.949 61.6428 144.506 61.1968C143.93 61.1968 143.28 61.1968 142.74 61.1968C131.87 61.1968 121.446 65.5149 113.759 73.2011C106.073 80.8873 101.755 91.3121 101.755 102.182C101.755 113.052 106.073 123.477 113.759 131.163C121.446 138.849 131.87 143.167 142.74 143.167C143.329 143.167 143.966 143.167 144.506 143.167C133.932 142.721 123.941 138.199 116.628 130.549C109.314 122.9 105.245 112.716 105.274 102.133Z" fill="white" stroke="#5A7EC1" stroke-width="1.93987" stroke-linejoin="round"/>
<path d="M180.71 62.8152H176.823" stroke="#5A7EC1" stroke-width="1.93987" stroke-linejoin="round"/>
<path d="M185.663 67.4127H182.831" stroke="#5A7EC1" stroke-width="1.93987" stroke-linejoin="round"/>
<path d="M192.038 74.4989H188.85" stroke="#5A7EC1" stroke-width="1.93987" stroke-linejoin="round"/>
<path d="M195.581 83.3507H191.327" stroke="#5A7EC1" stroke-width="1.93987" stroke-linejoin="round"/>
<path d="M198.769 92.9012H194.87" stroke="#5A7EC1" stroke-width="1.93987" stroke-linejoin="round"/>
<path d="M198.769 113.081H194.514" stroke="#5A7EC1" stroke-width="1.93987" stroke-linejoin="round"/>
<path d="M182.132 137.148H185.663" stroke="#5A7EC1" stroke-width="1.93987" stroke-linejoin="round"/>
<path d="M176.112 141.757H179.998" stroke="#5A7EC1" stroke-width="1.93987" stroke-linejoin="round"/>
<path d="M169.737 146.71H173.636" stroke="#5A7EC1" stroke-width="1.93987" stroke-linejoin="round"/>
<path d="M173.991 57.8621H167.971" stroke="#5A7EC1" stroke-width="1.93987" stroke-linejoin="round"/>
<path d="M155.307 91.7855V86.7222C155.307 78.4834 151.273 73.7879 143.402 73.7879C135.531 73.7879 131.535 78.4834 131.535 86.7222C131.535 95.6842 134.992 99.0557 136.757 104.131H131.853V110.372H137.812C137.665 115.668 134.649 118.758 130.824 118.758V125.807H154.829V118.451H140.901C142.113 117.463 143.105 116.233 143.814 114.84C144.524 113.446 144.934 111.92 145.021 110.359H153.394V104.131H144.506C143.108 98.5531 139.602 95.39 139.602 86.2072C139.602 82.5292 141.061 81.1316 143.635 81.1316C146.21 81.1316 147.681 82.5292 147.681 86.2072V91.7855H155.307Z" fill="#5A7EC1"/>
<path d="M108.604 272.141C128.511 252.233 128.511 219.956 108.604 200.048C88.6958 180.141 56.4189 180.141 36.5111 200.048C16.6034 219.956 16.6034 252.233 36.5111 272.141C56.4189 292.049 88.6958 292.049 108.604 272.141Z" fill="white" stroke="#5A7EC1" stroke-width="1.93987" stroke-linejoin="round"/>
<path d="M78.4254 285.675C105.807 279.126 122.696 251.62 116.147 224.239C109.599 196.857 82.0928 179.968 54.7111 186.517C27.3295 193.065 10.4408 220.571 16.9893 247.953C23.5378 275.335 51.0437 292.223 78.4254 285.675Z" fill="white" stroke="#5A7EC1" stroke-width="1.93987" stroke-linejoin="round"/>
<path d="M76.1046 275.959C98.1202 270.698 111.702 248.586 106.441 226.57C101.18 204.555 79.0681 190.973 57.0525 196.234C35.0369 201.495 21.4547 223.607 26.7158 245.623C31.9769 267.638 54.089 281.22 76.1046 275.959Z" fill="white" stroke="#5A7EC1" stroke-width="1.93987" stroke-linejoin="round"/>
<path d="M29.1147 236.098C29.1177 225.534 33.1999 215.378 40.5096 207.751C47.8193 200.124 57.7919 195.614 68.3467 195.162C67.7582 195.162 67.1207 195.162 66.5812 195.162C55.7113 195.162 45.2866 199.48 37.6004 207.166C29.9141 214.852 25.5961 225.277 25.5961 236.147C25.5961 247.017 29.9141 257.442 37.6004 265.128C45.2866 272.814 55.7113 277.132 66.5812 277.132C67.1697 277.132 67.8073 277.132 68.3467 277.132C57.7739 276.683 47.7852 272.16 40.4722 264.511C33.1592 256.862 29.0893 246.68 29.1147 236.098Z" fill="white" stroke="#5A7EC1" stroke-width="1.93987" stroke-linejoin="round"/>
<path d="M104.563 196.78H100.664" stroke="#5A7EC1" stroke-width="1.93987" stroke-linejoin="round"/>
<path d="M109.516 201.39H106.684" stroke="#5A7EC1" stroke-width="1.93987" stroke-linejoin="round"/>
<path d="M115.891 208.464H112.703" stroke="#5A7EC1" stroke-width="1.93987" stroke-linejoin="round"/>
<path d="M119.422 217.316H115.18" stroke="#5A7EC1" stroke-width="1.93987" stroke-linejoin="round"/>
<path d="M122.61 226.878H118.723" stroke="#5A7EC1" stroke-width="1.93987" stroke-linejoin="round"/>
<path d="M122.609 247.046H118.367" stroke="#5A7EC1" stroke-width="1.93987" stroke-linejoin="round"/>
<path d="M105.973 271.125H109.516" stroke="#5A7EC1" stroke-width="1.93987" stroke-linejoin="round"/>
<path d="M99.9529 275.722H103.852" stroke="#5A7EC1" stroke-width="1.93987" stroke-linejoin="round"/>
<path d="M93.59 280.675H97.4764" stroke="#5A7EC1" stroke-width="1.93987" stroke-linejoin="round"/>
<path d="M97.832 191.827H91.8123" stroke="#5A7EC1" stroke-width="1.93987" stroke-linejoin="round"/>
<path d="M64.4725 222.134C64.4725 218.456 65.9437 217.07 68.506 217.07C71.0684 217.07 72.5518 218.468 72.5518 222.134V224.267H80.1898V222.649C80.1898 215.673 77.2597 211.259 71.522 210.082V206.269H64.9139V210.082C59.2498 211.308 56.3319 215.746 56.3319 222.649C56.3319 237.361 72.135 237.863 72.135 248.395C72.135 252.073 70.5167 253.397 67.9421 253.397C65.3675 253.397 63.7614 252.073 63.7614 248.395V244.349H56.1725V247.88C56.1725 254.868 59.1026 259.343 64.9139 260.52V264.271H71.522V260.52C77.2597 259.294 80.2634 254.868 80.2634 247.88C80.2634 233.229 64.4725 232.714 64.4725 222.134Z" fill="#5A7EC1"/>
<path d="M66.2502 421.371C94.4041 421.371 117.227 398.548 117.227 370.394C117.227 342.24 94.4041 319.417 66.2502 319.417C38.0963 319.417 15.2731 342.24 15.2731 370.394C15.2731 398.548 38.0963 421.371 66.2502 421.371Z" fill="white" stroke="#5A7EC1" stroke-width="1.93987" stroke-linejoin="round"/>
<path d="M60.2551 421.371C88.409 421.371 111.232 398.548 111.232 370.394C111.232 342.24 88.409 319.417 60.2551 319.417C32.1012 319.417 9.27802 342.24 9.27802 370.394C9.27802 398.548 32.1012 421.371 60.2551 421.371Z" fill="white" stroke="#5A7EC1" stroke-width="1.93987" stroke-linejoin="round"/>
<path d="M60.2551 411.379C82.8906 411.379 101.24 393.03 101.24 370.394C101.24 347.759 82.8906 329.409 60.2551 329.409C37.6196 329.409 19.2699 347.759 19.2699 370.394C19.2699 393.03 37.6196 411.379 60.2551 411.379Z" fill="white" stroke="#5A7EC1" stroke-width="1.93987" stroke-linejoin="round"/>
<path d="M22.8008 370.406C22.8068 359.843 26.89 349.689 34.1991 342.063C41.5082 334.436 51.4791 329.925 62.0328 329.47C61.4443 329.47 60.8559 329.47 60.2674 329.47C54.8263 329.376 49.4209 330.366 44.3667 332.384C39.3124 334.401 34.7105 337.404 30.8293 341.219C26.9482 345.033 23.8656 349.583 21.7613 354.601C19.6571 359.62 18.5734 365.007 18.5734 370.449C18.5734 375.891 19.6571 381.279 21.7613 386.297C23.8656 391.316 26.9482 395.865 30.8293 399.68C34.7105 403.494 39.3124 406.498 44.3667 408.515C49.4209 410.532 54.8263 411.522 60.2674 411.428C60.8559 411.428 61.4443 411.428 62.0328 411.428C51.4643 410.973 41.4808 406.45 34.1694 398.805C26.858 391.16 22.7847 380.985 22.8008 370.406Z" fill="white" stroke="#5A7EC1" stroke-width="1.93987" stroke-linejoin="round"/>
<path d="M98.2488 331.088H94.3502" stroke="#5A7EC1" stroke-width="1.93987" stroke-linejoin="round"/>
<path d="M103.202 335.686H100.37" stroke="#5A7EC1" stroke-width="1.93987" stroke-linejoin="round"/>
<path d="M109.577 342.76H106.389" stroke="#5A7EC1" stroke-width="1.93987" stroke-linejoin="round"/>
<path d="M113.108 351.612H108.866" stroke="#5A7EC1" stroke-width="1.93987" stroke-linejoin="round"/>
<path d="M116.296 361.175H112.397" stroke="#5A7EC1" stroke-width="1.93987" stroke-linejoin="round"/>
<path d="M116.296 381.342H112.054" stroke="#5A7EC1" stroke-width="1.93987" stroke-linejoin="round"/>
<path d="M99.6588 405.421H103.202" stroke="#5A7EC1" stroke-width="1.93987" stroke-linejoin="round"/>
<path d="M93.639 410.018H97.5377" stroke="#5A7EC1" stroke-width="1.93987" stroke-linejoin="round"/>
<path d="M87.2761 414.971H91.1625" stroke="#5A7EC1" stroke-width="1.93987" stroke-linejoin="round"/>
<path d="M91.5181 326.123H85.4984" stroke="#5A7EC1" stroke-width="1.93987" stroke-linejoin="round"/>
<path d="M69.8302 368.567C73.4346 366.875 75.0529 363.492 75.0529 358.208V356.369C75.0529 349.981 72.7113 346.217 67.4395 344.991V336.409H63.3079V344.538H60.059V336.422H55.9273V344.538H50.8762V396.03H55.9273V403.324H60.059V396.03H63.3079V403.324H67.4395V395.637C72.9933 394.411 75.8621 390.39 75.8621 383.843V379.65C75.8621 374.146 74.1702 370.259 69.8302 368.567ZM58.9556 351.881H62.8788C65.7476 351.881 66.9859 353.5 66.9859 357.178V360.047C66.9859 364.154 65.1591 365.478 62.0819 365.478H58.9556V351.881ZM67.7828 383.561C67.7828 387.374 66.3238 388.625 63.6021 388.625H58.9556V372.858H62.56C66.238 372.858 67.7705 374.329 67.7705 379.111L67.7828 383.561Z" fill="#5A7EC1"/>
<path d="M169.349 536.226C189.257 516.318 189.257 484.041 169.349 464.133C149.442 444.225 117.165 444.225 97.2569 464.133C77.3491 484.041 77.3492 516.318 97.2569 536.226C117.165 556.134 149.442 556.134 169.349 536.226Z" fill="white" stroke="#5A7EC1" stroke-width="1.93987" stroke-linejoin="round"/>
<path d="M135.301 550.535C163.105 546.111 182.059 519.985 177.635 492.181C173.212 464.377 147.086 445.423 119.282 449.847C91.4776 454.271 72.524 480.397 76.9477 508.201C81.3713 536.005 107.497 554.959 135.301 550.535Z" fill="white" stroke="#5A7EC1" stroke-width="1.93987" stroke-linejoin="round"/>
<path d="M164.735 516.885C173.953 496.212 164.666 471.98 143.992 462.762C123.318 453.545 99.0864 462.832 89.8689 483.506C80.6514 504.18 89.9385 528.411 110.612 537.629C131.286 546.846 155.518 537.559 164.735 516.885Z" fill="white" stroke="#5A7EC1" stroke-width="1.93987" stroke-linejoin="round"/>
<path d="M89.8507 500.178C89.8567 489.615 93.9399 479.461 101.249 471.835C108.558 464.208 118.529 459.697 129.083 459.242C128.494 459.242 127.857 459.242 127.317 459.242C116.447 459.242 106.023 463.56 98.3364 471.247C90.6502 478.933 86.3321 489.358 86.3321 500.227C86.3321 511.097 90.6502 521.522 98.3364 529.208C106.023 536.895 116.447 541.213 127.317 541.213C127.906 541.213 128.543 541.213 129.083 541.213C118.51 540.763 108.521 536.24 101.208 528.591C93.8953 520.942 89.8253 510.761 89.8507 500.178Z" fill="white" stroke="#5A7EC1" stroke-width="1.93987" stroke-linejoin="round"/>
<path d="M165.311 460.861H161.412" stroke="#5A7EC1" stroke-width="1.93987" stroke-linejoin="round"/>
<path d="M170.264 465.47H167.432" stroke="#5A7EC1" stroke-width="1.93987" stroke-linejoin="round"/>
<path d="M176.627 472.544H173.452" stroke="#5A7EC1" stroke-width="1.93987" stroke-linejoin="round"/>
<path d="M180.17 481.396H175.928" stroke="#5A7EC1" stroke-width="1.93987" stroke-linejoin="round"/>
<path d="M183.358 490.959H179.459" stroke="#5A7EC1" stroke-width="1.93987" stroke-linejoin="round"/>
<path d="M183.358 511.127H179.116" stroke="#5A7EC1" stroke-width="1.93987" stroke-linejoin="round"/>
<path d="M166.721 535.205H170.264" stroke="#5A7EC1" stroke-width="1.93987" stroke-linejoin="round"/>
<path d="M160.701 539.803H164.6" stroke="#5A7EC1" stroke-width="1.93987" stroke-linejoin="round"/>
<path d="M154.338 544.756H158.225" stroke="#5A7EC1" stroke-width="1.93987" stroke-linejoin="round"/>
<path d="M158.58 455.908H152.561" stroke="#5A7EC1" stroke-width="1.93987" stroke-linejoin="round"/>
<path d="M142.569 476.112L133.165 507.632H139.295V511.666H132.614V514.976H139.295V519.022H132.614V527.543H124.522V519.022H117.84V514.976H124.522V511.666H117.84V507.632H123.86L114.53 476.112H122.953L128.899 498.805L134.845 476.112H142.569Z" fill="#5A7EC1"/>
</svg>
