<svg width="360" height="463" viewBox="0 0 360 463" fill="none" xmlns="http://www.w3.org/2000/svg">
<path d="M327.123 172.834C327.123 172.834 328.974 154.322 321.569 145.985C314.164 137.648 303.056 147.836 305.827 158.944C308.598 170.051 327.123 172.834 327.123 172.834Z" fill="#5A7EC1"/>
<path d="M305.803 255.307C305.803 255.307 308.733 226.496 297.221 213.476C285.709 200.456 268.373 216.37 272.701 233.681C277.028 250.992 305.803 255.307 305.803 255.307Z" fill="#5A7EC1"/>
<path d="M299.599 302.067C299.599 302.067 296.436 273.244 282.435 262.945C268.434 252.647 254.813 271.76 262.647 287.796C270.482 303.832 299.599 302.067 299.599 302.067Z" fill="#5A7EC1"/>
<path d="M328.974 326.195C311.933 329.48 296.657 354.135 296.657 354.135C296.657 354.135 322.182 368.246 336.146 357.151C350.11 346.056 346.028 322.921 328.974 326.195Z" fill="#5A7EC1"/>
<path d="M334.614 369.632C310.216 374.327 288.381 409.599 288.381 409.599C288.381 409.599 324.904 429.792 344.888 413.903C364.871 398.014 359.011 364.936 334.614 369.632Z" fill="#5A7EC1"/>
<path d="M294.769 354.527C295.541 354.527 295.995 354.527 295.995 354.527C295.995 354.527 295.835 353.154 295.455 350.849C297.405 339.926 299.378 326.182 301.72 309.754L302.701 302.913C309.346 306.064 328.447 313.788 339.812 304.727C353.776 293.62 349.693 270.497 332.64 273.783C320.306 276.149 308.904 289.721 303.547 297.016C305.055 286.595 306.698 275.389 308.549 263.656C308.868 261.67 309.223 259.611 309.616 257.465C316.175 262.308 332.223 272.447 344.63 266.268C360.568 258.311 361.402 234.833 344.042 234.502C331.536 234.269 317.634 245.058 310.842 251.114C313.294 238.756 316.812 224.486 320.502 210.387C324.487 213.378 335.104 220.33 343.269 216.259C353.519 211.147 354.034 196.092 342.889 195.883C334.785 195.724 325.799 202.773 321.483 206.647C324.45 195.417 327.515 184.445 330.298 174.771C334.883 178.02 344.495 183.623 352.011 179.872C362.248 174.759 362.775 159.704 351.631 159.495C344.544 159.361 336.784 164.718 332.015 168.666C336.085 154.604 339.272 144.232 340.094 141.547C344.238 138.801 356.743 130.219 358.827 125.082C359.424 123.612 359.727 122.04 359.716 120.454C359.706 118.868 359.383 117.3 358.767 115.839C358.15 114.378 357.252 113.052 356.123 111.938C354.995 110.824 353.657 109.943 352.188 109.346C350.719 108.749 349.147 108.446 347.561 108.457C345.975 108.467 344.407 108.79 342.946 109.406C341.484 110.023 340.159 110.921 339.045 112.05C337.931 113.178 337.05 114.516 336.453 115.985C334.454 120.889 337.127 134.804 338.279 140.21L337.544 139.977C337.433 140.309 333.277 153.745 327.92 172.368L327.589 172.699L327.773 172.859C324.891 182.912 321.643 194.449 318.541 206.231C318.712 200.64 318.381 188.65 312.815 182.397C305.459 174.06 294.303 184.248 297.086 195.356C299.538 205.287 314.618 208.548 317.781 209.136C313.625 224.988 309.726 241.098 307.163 254.498L306.587 255.087L306.992 255.43C306.477 258.127 306.023 260.726 305.643 263.178C303.007 279.876 300.739 295.52 298.802 309.325C296.951 322.259 295.345 333.526 293.788 343.052C291.483 333.82 287.008 321.389 278.794 315.345C264.805 305.034 251.172 324.159 259.006 340.196C265.001 352.456 283.44 354.307 291.777 354.491C291.458 356.134 291.152 357.703 290.833 359.199C289.607 365.145 287.572 381.524 285.598 399.497C282.852 386.256 276.403 364.103 262.831 354.135C242.823 339.423 223.317 366.751 234.523 389.689C243.926 408.95 274.797 410.261 284.458 410.188C281.81 435.284 279.456 460.184 279.272 462.097L282.165 462.366C282.251 461.496 290.441 374.965 293.677 359.848C294.045 358.156 294.401 356.452 294.769 354.527Z" fill="#5A7EC1"/>
<path d="M55.8581 80.0016C55.8581 80.0016 48.1343 63.2422 38.0198 61.0599C27.9053 58.8776 24.0557 74.6562 31.8162 82.1839C39.5768 89.7115 55.8581 80.0016 55.8581 80.0016Z" fill="#5A7EC1"/>
<path d="M79.8141 163.149C79.8141 163.149 67.7747 136.998 52.0207 133.615C36.2666 130.231 30.2346 154.8 42.3353 166.533C54.4359 178.265 79.8141 163.149 79.8141 163.149Z" fill="#5A7EC1"/>
<path d="M98.0692 206.5C98.0692 206.5 81.1627 184.346 64.7711 184.812C48.3795 185.278 46.945 210.178 61.2279 218.564C75.5108 226.95 98.0692 206.5 98.0692 206.5Z" fill="#5A7EC1"/>
<path d="M133.709 207.69C121.621 221.531 121.621 252.169 121.621 252.169C121.621 252.169 149.193 247.436 154.894 229.022C160.595 210.607 145.81 193.836 133.709 207.69Z" fill="#5A7EC1"/>
<path d="M159.909 240.51C142.61 260.322 142.598 304.151 142.598 304.151C142.598 304.151 182.038 297.384 190.215 271.049C198.393 244.715 177.183 220.697 159.909 240.51Z" fill="#5A7EC1"/>
<path d="M120.284 253.738L121.241 252.917C121.241 252.917 120.432 251.862 118.997 250.207C115.123 239.749 109.863 226.913 103.574 211.6L100.95 205.213C107.877 203.546 127.076 197.624 131.723 182.606C137.436 164.216 122.638 147.419 110.538 161.273C101.796 171.277 99.3811 190.072 98.7068 199.708C94.7223 189.974 90.4681 179.479 86.1158 168.408C85.3924 166.545 84.6446 164.583 83.8967 162.524C91.5838 162.327 109.557 160.415 116.447 147.15C125.336 130.084 114.302 109.83 100.166 120.852C89.9777 128.772 84.1665 146.88 81.7145 156.406C77.5706 144.403 73.2551 130.145 69.2093 115.948C73.9048 115.874 85.9196 114.808 90.4558 106.079C96.1567 95.1182 89.0827 82.1348 80.0103 89.1966C73.4144 94.3335 69.6874 106.115 68.1304 112.16C64.9428 100.807 62.0004 89.5766 59.3522 79.6338C64.6608 79.3886 75.1799 77.8438 79.3605 69.8258C85.0614 58.8776 77.9874 45.882 68.915 52.956C63.1528 57.4432 59.5729 66.9937 57.7339 73.3812C54.0559 58.9144 51.4077 48.1378 50.7334 45.3303C52.7073 40.3405 58.494 24.991 57.6113 19.3146C56.5569 12.4858 50.6476 8.50126 44.4195 10.4138C38.1915 12.3264 34.0108 19.4127 35.0651 26.2415C35.9111 31.6972 44.9835 41.6278 48.5511 45.4161L47.8401 45.6981C47.9136 46.0414 51.2606 60.0423 56.2136 79.1679C56.1523 79.4621 56.1156 79.6706 56.1156 79.6706H56.3485C59.0334 90.0057 62.172 101.739 65.5313 113.717C62.8954 108.911 56.6428 99.0046 49.0538 97.4108C38.9516 95.2162 35.0774 110.995 42.8503 118.522C49.7894 125.253 63.5329 118.216 66.3649 116.647C70.9134 132.671 75.8051 148.756 80.4271 161.702L80.2555 162.573H80.7459C81.694 165.18 82.6176 167.632 83.5167 169.929C89.6467 185.671 95.7031 200.272 100.987 213.157C105.891 225.221 110.256 235.74 113.75 244.751C107.301 238.499 97.5053 230.959 87.8812 231.265C71.5019 231.707 70.0552 256.631 84.3381 265.017C95.2617 271.429 111.028 260.984 117.832 255.736C118.396 257.314 118.924 258.834 119.414 260.297C121.351 266.133 127.898 281.139 135.278 297.568C126.463 288.225 110.243 273.795 94.3423 274.274C70.9134 274.899 68.8292 310.563 89.2666 322.553C106.431 332.619 131.919 313.653 139.655 307.302C150.015 330.118 160.497 352.578 161.319 354.307L163.771 352.652C163.403 351.855 126.905 273.82 121.976 259.01C121.523 257.257 120.922 255.528 120.284 253.738Z" fill="#5A7EC1"/>
<path d="M26.3359 294.27C26.3359 294.27 17.9256 286.435 11.6239 287.551C5.3223 288.667 6.71994 298.683 13.0216 301.197C19.3232 303.71 26.3359 294.27 26.3359 294.27Z" fill="#5A7EC1"/>
<path d="M59.769 336.53C59.769 336.53 46.6631 324.27 36.7815 326.072C26.8999 327.874 29.2293 343.42 38.976 347.331C48.7227 351.242 59.769 336.53 59.769 336.53Z" fill="#5A7EC1"/>
<path d="M80.5252 357.2C80.5252 357.2 65.5434 348.422 56.2136 352.541C46.8837 356.661 51.9226 371.373 62.1229 372.832C72.3232 374.291 80.5252 357.2 80.5252 357.2Z" fill="#5A7EC1"/>
<path d="M101.343 349.476C97.6646 360.302 104.873 377.969 104.873 377.969C104.873 377.969 119.586 368.725 118.592 356.771C117.599 344.818 105.045 338.639 101.343 349.476Z" fill="#5A7EC1"/>
<path d="M124.183 362.215C118.887 377.711 129.259 403.04 129.259 403.04C129.259 403.04 150.395 389.824 148.875 372.709C147.354 355.594 129.467 346.706 124.183 362.215Z" fill="#5A7EC1"/>
<path d="M104.481 379.182C104.714 378.741 104.837 378.484 104.837 378.484C104.837 378.484 104.113 378.067 102.9 377.454C98.2041 372.341 92.1476 366.187 84.902 358.843L81.886 355.778C85.4782 353.179 95.1391 345.234 94.2809 335.488C93.2265 323.522 80.7336 317.355 77.031 328.193C74.3584 336.027 77.3989 347.429 79.2869 353.142C74.6894 348.471 69.7731 343.432 64.6485 338.075C63.778 337.167 62.8953 336.211 61.9758 335.206C66.3526 333.281 76.2587 327.936 77.1046 318.655C78.1958 306.726 67.0637 297.653 61.5099 307.339C57.5131 314.315 58.4449 326.121 59.2663 332.19C54.0435 326.244 48.2323 319.047 42.4946 311.789C45.1918 310.637 51.8613 307.192 52.413 301.086C53.1118 293.424 45.9642 287.6 42.4088 293.828C39.822 298.352 40.4472 306.015 40.9866 309.864C36.4627 304.065 32.0859 298.315 28.2485 293.191C31.2522 291.793 36.9409 288.422 37.4558 282.807C38.1546 275.144 31.007 269.321 27.4516 275.536C25.1835 279.484 25.3797 285.835 25.8333 289.954C20.2672 282.5 16.2214 276.897 15.1793 275.438C15.1793 272.104 14.8483 261.891 12.9971 258.826C10.778 255.148 6.42571 254.241 3.29941 256.815C1.74055 258.219 0.721725 260.123 0.419446 262.199C0.117167 264.275 0.550482 266.391 1.64431 268.18C3.40975 271.123 10.9864 274.715 13.9043 276.039L13.561 276.37C13.6959 276.554 18.9186 283.836 26.2992 293.681L26.3605 294H26.4953C30.4798 299.321 35.0773 305.365 39.8219 311.446C37.1738 309.3 31.2399 305.095 26.4831 305.941C20.1324 307.069 21.5791 317.073 27.8807 319.574C33.4713 321.818 39.7361 314.511 40.9989 312.942C47.3986 321.107 54.019 329.223 59.7322 335.586L59.8425 336.125L60.1368 336.027C61.2892 337.253 62.4049 338.479 63.4715 339.632C70.7539 347.245 77.6563 354.246 83.7495 360.474C89.4504 366.26 94.4157 371.299 98.5596 375.664C93.3614 373.58 85.9441 371.557 80.4638 373.972C71.1217 378.091 76.1729 392.803 86.3854 394.262C94.195 395.378 100.815 385.68 103.488 380.997C104.199 381.781 104.861 382.542 105.474 383.265C107.926 386.171 115.282 393.294 123.423 400.993C116.14 397.695 103.378 393.208 94.3176 397.205C80.9665 403.102 88.1877 424.177 102.789 426.236C115.049 427.977 125.274 411.034 128.229 405.554C139.594 416.257 150.947 426.714 151.817 427.511L152.847 425.979C152.455 425.611 112.99 389.199 106.663 381.843C106.026 380.972 105.266 380.065 104.481 379.182Z" fill="#5A7EC1"/>
<path d="M280.314 39.9114C280.314 39.9114 282.766 28.6812 278.561 23.8018C274.356 18.9223 266.522 25.3097 267.527 31.9669C268.532 38.6241 280.314 39.9114 280.314 39.9114Z" fill="#5A7EC1"/>
<path d="M260.992 90.2142C260.992 90.2142 264.818 72.7192 258.271 65.1057C251.724 57.4922 239.501 67.4596 241.107 77.8316C242.713 88.2036 260.992 90.2142 260.992 90.2142Z" fill="#5A7EC1"/>
<path d="M253.783 118.608C253.783 118.608 253.71 101.26 245.398 95.3143C237.085 89.3682 227.008 101.224 230.968 110.75C234.928 120.276 253.783 118.608 253.783 118.608Z" fill="#5A7EC1"/>
<path d="M271.058 132.585C259.84 134.926 248.34 150.153 248.34 150.153C248.34 150.153 263.812 158.147 273.571 151.146C283.33 144.146 282.264 130.243 271.058 132.585Z" fill="#5A7EC1"/>
<path d="M271.732 158.723C255.696 162.07 239.231 183.856 239.231 183.856C239.231 183.856 261.372 195.295 275.324 185.278C289.276 175.262 287.768 155.388 271.732 158.723Z" fill="#5A7EC1"/>
<path d="M247.09 150.484H247.874C247.874 150.484 247.874 149.663 247.776 148.302C249.775 141.657 251.981 133.308 254.605 123.328C254.956 121.972 255.324 120.586 255.708 119.172C259.779 120.938 271.536 125.204 279.481 119.491C289.289 112.491 288.173 98.649 277.029 100.929C268.925 102.621 260.661 111.056 256.714 115.641C258.393 109.303 260.22 102.499 262.218 95.3634C262.55 94.1374 262.917 92.9114 263.322 91.5995C267.208 94.3826 276.808 100.182 285.267 96.1848C296.093 91.0479 298.214 76.8385 287.057 76.9979C279.015 77.1205 269.329 83.9371 264.536 87.7377C266.988 80.21 270.2 71.5054 273.534 62.9112C275.901 64.6398 282.264 68.6121 287.805 65.9884C294.744 62.6905 296.105 53.569 288.945 53.7284C283.735 53.802 277.47 58.2523 274.417 60.6798C277.102 53.8265 279.824 47.1325 282.276 41.2232C285.01 43.0867 290.858 46.2743 295.909 43.8469C302.86 40.5489 304.209 31.4275 297.049 31.5868C292.501 31.5868 287.143 35.0564 283.821 37.5329C287.413 28.951 290.159 22.6248 290.882 20.9697C293.739 19.2288 302.37 13.7853 304.074 10.6345C306.109 6.83391 304.663 2.64099 300.85 1.25561C298.855 0.644016 296.71 0.743583 294.78 1.53731C292.851 2.33104 291.256 3.76974 290.269 5.60791C288.639 8.63613 289.411 16.9729 289.791 20.2096L289.338 20.087C289.24 20.2954 285.66 28.4973 280.927 39.8746L280.694 40.083L280.805 40.1688C278.255 46.2988 275.398 53.3484 272.578 60.5327C273.081 57.1612 273.669 49.9155 270.518 46.2498C266.313 41.3458 258.467 47.7578 259.484 54.4027C260.404 60.3611 269.869 62.0162 271.867 62.3104C268.116 71.9836 264.511 81.8038 261.936 89.969L261.532 90.3368L261.765 90.5329C261.25 92.1758 260.784 93.7573 260.367 95.2408C257.535 105.392 255.022 114.857 252.815 123.279C250.743 131.15 248.941 137.991 247.286 143.778C246.44 138.249 244.392 130.832 239.525 127.337C231.213 121.404 221.135 133.247 225.083 142.773C228.111 150.067 239.856 150.803 245.214 150.742C244.907 151.747 244.589 152.691 244.282 153.598C243.056 157.276 240.604 167.17 238.152 178.118C237.282 170.174 234.633 156.909 226.579 151.146C214.699 142.65 200.269 159.593 205.921 173.214C210.665 184.665 230.441 184.812 236.681 184.567C233.26 199.794 230.048 214.898 229.803 216.051L231.654 216.161C231.765 215.622 242.934 163.149 246.048 153.942C246.379 152.642 246.734 151.563 247.09 150.484Z" fill="#5A7EC1"/>
</svg>
