<svg width="194" height="326" viewBox="0 0 194 326" fill="none" xmlns="http://www.w3.org/2000/svg">
<path d="M192.349 309.684H90.2971V324.36H192.349V309.684Z" fill="white" stroke="#71B7F0" stroke-width="1.93987" stroke-linejoin="round"/>
<path d="M95.8999 309.954V320.363" stroke="#71B7F0" stroke-width="1.93987" stroke-linejoin="round"/>
<path d="M101.478 323.697V312.185" stroke="#71B7F0" stroke-width="1.93987" stroke-linejoin="round"/>
<path d="M108.54 309.954V322.594" stroke="#71B7F0" stroke-width="1.93987" stroke-linejoin="round"/>
<path d="M116.337 309.586V318.867" stroke="#71B7F0" stroke-width="1.93987" stroke-linejoin="round"/>
<path d="M123.399 310.322V323.33" stroke="#71B7F0" stroke-width="1.93987" stroke-linejoin="round"/>
<path d="M130.461 323.697V315.9" stroke="#71B7F0" stroke-width="1.93987" stroke-linejoin="round"/>
<path d="M136.775 310.322V317.764" stroke="#71B7F0" stroke-width="1.93987" stroke-linejoin="round"/>
<path d="M145.688 321.478V317.016" stroke="#71B7F0" stroke-width="1.93987" stroke-linejoin="round"/>
<path d="M163.354 310.211H157.31V323.881H163.354V310.211Z" fill="#71B7F0" stroke="#71B7F0" stroke-width="1.93987" stroke-linejoin="round"/>
<path d="M167.486 310.211H165.573V323.881H167.486V310.211Z" fill="#71B7F0" stroke="#71B7F0" stroke-width="1.93987" stroke-linejoin="round"/>
<path d="M187.433 294.972H85.3807V309.648H187.433V294.972Z" fill="white" stroke="#71B7F0" stroke-width="1.93987" stroke-linejoin="round"/>
<path d="M90.9958 295.242V305.651" stroke="#71B7F0" stroke-width="1.93987" stroke-linejoin="round"/>
<path d="M96.5741 308.985V297.473" stroke="#71B7F0" stroke-width="1.93987" stroke-linejoin="round"/>
<path d="M103.636 295.242V307.882" stroke="#71B7F0" stroke-width="1.93987" stroke-linejoin="round"/>
<path d="M111.433 294.874V304.155" stroke="#71B7F0" stroke-width="1.93987" stroke-linejoin="round"/>
<path d="M118.495 295.61V308.618" stroke="#71B7F0" stroke-width="1.93987" stroke-linejoin="round"/>
<path d="M125.557 308.985V301.188" stroke="#71B7F0" stroke-width="1.93987" stroke-linejoin="round"/>
<path d="M131.871 295.61V303.052" stroke="#71B7F0" stroke-width="1.93987" stroke-linejoin="round"/>
<path d="M140.784 306.766V302.304" stroke="#71B7F0" stroke-width="1.93987" stroke-linejoin="round"/>
<path d="M158.45 295.499H152.406V309.169H158.45V295.499Z" fill="#71B7F0" stroke="#71B7F0" stroke-width="1.93987" stroke-linejoin="round"/>
<path d="M162.582 295.499H160.669V309.169H162.582V295.499Z" fill="#71B7F0" stroke="#71B7F0" stroke-width="1.93987" stroke-linejoin="round"/>
<path d="M191.123 280.26H89.071V294.936H191.123V280.26Z" fill="white" stroke="#71B7F0" stroke-width="1.93987" stroke-linejoin="round"/>
<path d="M94.6738 280.53V290.939" stroke="#71B7F0" stroke-width="1.93987" stroke-linejoin="round"/>
<path d="M100.252 294.273V282.761" stroke="#71B7F0" stroke-width="1.93987" stroke-linejoin="round"/>
<path d="M107.314 280.53V293.17" stroke="#71B7F0" stroke-width="1.93987" stroke-linejoin="round"/>
<path d="M115.111 280.162V289.443" stroke="#71B7F0" stroke-width="1.93987" stroke-linejoin="round"/>
<path d="M122.173 280.898V293.906" stroke="#71B7F0" stroke-width="1.93987" stroke-linejoin="round"/>
<path d="M129.235 294.273V286.476" stroke="#71B7F0" stroke-width="1.93987" stroke-linejoin="round"/>
<path d="M135.549 280.898V288.34" stroke="#71B7F0" stroke-width="1.93987" stroke-linejoin="round"/>
<path d="M144.462 292.054V287.592" stroke="#71B7F0" stroke-width="1.93987" stroke-linejoin="round"/>
<path d="M162.128 280.788H156.084V294.457H162.128V280.788Z" fill="#71B7F0" stroke="#71B7F0" stroke-width="1.93987" stroke-linejoin="round"/>
<path d="M166.26 280.788H164.347V294.457H166.26V280.788Z" fill="#71B7F0" stroke="#71B7F0" stroke-width="1.93987" stroke-linejoin="round"/>
<path d="M187.433 265.548H85.3807V280.224H187.433V265.548Z" fill="white" stroke="#71B7F0" stroke-width="1.93987" stroke-linejoin="round"/>
<path d="M90.9958 265.818V276.227" stroke="#71B7F0" stroke-width="1.93987" stroke-linejoin="round"/>
<path d="M96.5741 279.561V268.049" stroke="#71B7F0" stroke-width="1.93987" stroke-linejoin="round"/>
<path d="M103.636 265.818V278.458" stroke="#71B7F0" stroke-width="1.93987" stroke-linejoin="round"/>
<path d="M111.433 265.45V274.731" stroke="#71B7F0" stroke-width="1.93987" stroke-linejoin="round"/>
<path d="M118.495 266.186V279.194" stroke="#71B7F0" stroke-width="1.93987" stroke-linejoin="round"/>
<path d="M125.557 279.561V271.764" stroke="#71B7F0" stroke-width="1.93987" stroke-linejoin="round"/>
<path d="M131.871 266.186V273.628" stroke="#71B7F0" stroke-width="1.93987" stroke-linejoin="round"/>
<path d="M140.784 277.342V272.88" stroke="#71B7F0" stroke-width="1.93987" stroke-linejoin="round"/>
<path d="M158.45 266.075H152.406V279.745H158.45V266.075Z" fill="#71B7F0" stroke="#71B7F0" stroke-width="1.93987" stroke-linejoin="round"/>
<path d="M162.582 266.075H160.669V279.745H162.582V266.075Z" fill="#71B7F0" stroke="#71B7F0" stroke-width="1.93987" stroke-linejoin="round"/>
<path d="M191.123 250.836H89.071V265.512H191.123V250.836Z" fill="white" stroke="#71B7F0" stroke-width="1.93987" stroke-linejoin="round"/>
<path d="M94.6738 251.106V261.515" stroke="#71B7F0" stroke-width="1.93987" stroke-linejoin="round"/>
<path d="M100.252 264.849V253.337" stroke="#71B7F0" stroke-width="1.93987" stroke-linejoin="round"/>
<path d="M107.314 251.106V263.746" stroke="#71B7F0" stroke-width="1.93987" stroke-linejoin="round"/>
<path d="M115.111 250.738V260.019" stroke="#71B7F0" stroke-width="1.93987" stroke-linejoin="round"/>
<path d="M122.173 251.474V264.482" stroke="#71B7F0" stroke-width="1.93987" stroke-linejoin="round"/>
<path d="M129.235 264.849V257.052" stroke="#71B7F0" stroke-width="1.93987" stroke-linejoin="round"/>
<path d="M135.549 251.474V258.916" stroke="#71B7F0" stroke-width="1.93987" stroke-linejoin="round"/>
<path d="M144.462 262.63V258.168" stroke="#71B7F0" stroke-width="1.93987" stroke-linejoin="round"/>
<path d="M162.128 251.363H156.084V265.033H162.128V251.363Z" fill="#71B7F0" stroke="#71B7F0" stroke-width="1.93987" stroke-linejoin="round"/>
<path d="M166.26 251.363H164.347V265.033H166.26V251.363Z" fill="#71B7F0" stroke="#71B7F0" stroke-width="1.93987" stroke-linejoin="round"/>
<path d="M191.123 236.124H89.071V250.8H191.123V236.124Z" fill="white" stroke="#71B7F0" stroke-width="1.93987" stroke-linejoin="round"/>
<path d="M94.6738 236.394V246.803" stroke="#71B7F0" stroke-width="1.93987" stroke-linejoin="round"/>
<path d="M100.252 250.137V238.625" stroke="#71B7F0" stroke-width="1.93987" stroke-linejoin="round"/>
<path d="M107.314 236.394V249.034" stroke="#71B7F0" stroke-width="1.93987" stroke-linejoin="round"/>
<path d="M115.111 236.026V245.307" stroke="#71B7F0" stroke-width="1.93987" stroke-linejoin="round"/>
<path d="M122.173 236.762V249.77" stroke="#71B7F0" stroke-width="1.93987" stroke-linejoin="round"/>
<path d="M129.235 250.137V242.34" stroke="#71B7F0" stroke-width="1.93987" stroke-linejoin="round"/>
<path d="M135.549 236.762V244.204" stroke="#71B7F0" stroke-width="1.93987" stroke-linejoin="round"/>
<path d="M144.462 247.918V243.456" stroke="#71B7F0" stroke-width="1.93987" stroke-linejoin="round"/>
<path d="M162.128 236.651H156.084V250.321H162.128V236.651Z" fill="#71B7F0" stroke="#71B7F0" stroke-width="1.93987" stroke-linejoin="round"/>
<path d="M166.26 236.651H164.347V250.321H166.26V236.651Z" fill="#71B7F0" stroke="#71B7F0" stroke-width="1.93987" stroke-linejoin="round"/>
<path d="M189.897 221.412H87.8451V236.088H189.897V221.412Z" fill="white" stroke="#71B7F0" stroke-width="1.93987" stroke-linejoin="round"/>
<path d="M93.4479 221.682V232.091" stroke="#71B7F0" stroke-width="1.93987" stroke-linejoin="round"/>
<path d="M99.0261 235.425V223.913" stroke="#71B7F0" stroke-width="1.93987" stroke-linejoin="round"/>
<path d="M106.088 221.682V234.322" stroke="#71B7F0" stroke-width="1.93987" stroke-linejoin="round"/>
<path d="M113.885 221.314V230.595" stroke="#71B7F0" stroke-width="1.93987" stroke-linejoin="round"/>
<path d="M120.947 222.05V235.058" stroke="#71B7F0" stroke-width="1.93987" stroke-linejoin="round"/>
<path d="M128.009 235.425V227.628" stroke="#71B7F0" stroke-width="1.93987" stroke-linejoin="round"/>
<path d="M134.323 222.05V229.492" stroke="#71B7F0" stroke-width="1.93987" stroke-linejoin="round"/>
<path d="M143.236 233.206V228.744" stroke="#71B7F0" stroke-width="1.93987" stroke-linejoin="round"/>
<path d="M160.902 221.939H154.858V235.609H160.902V221.939Z" fill="#71B7F0" stroke="#71B7F0" stroke-width="1.93987" stroke-linejoin="round"/>
<path d="M165.034 221.939H163.121V235.609H165.034V221.939Z" fill="#71B7F0" stroke="#71B7F0" stroke-width="1.93987" stroke-linejoin="round"/>
<path d="M183.755 206.7H81.7028V221.375H183.755V206.7Z" fill="white" stroke="#71B7F0" stroke-width="1.93987" stroke-linejoin="round"/>
<path d="M87.3179 206.97V217.379" stroke="#71B7F0" stroke-width="1.93987" stroke-linejoin="round"/>
<path d="M92.8961 220.713V209.201" stroke="#71B7F0" stroke-width="1.93987" stroke-linejoin="round"/>
<path d="M99.9579 206.97V219.61" stroke="#71B7F0" stroke-width="1.93987" stroke-linejoin="round"/>
<path d="M107.755 206.602V215.883" stroke="#71B7F0" stroke-width="1.93987" stroke-linejoin="round"/>
<path d="M114.817 207.338V220.346" stroke="#71B7F0" stroke-width="1.93987" stroke-linejoin="round"/>
<path d="M121.879 220.713V212.916" stroke="#71B7F0" stroke-width="1.93987" stroke-linejoin="round"/>
<path d="M128.193 207.338V214.78" stroke="#71B7F0" stroke-width="1.93987" stroke-linejoin="round"/>
<path d="M137.106 218.494V214.032" stroke="#71B7F0" stroke-width="1.93987" stroke-linejoin="round"/>
<path d="M154.772 207.227H148.728V220.897H154.772V207.227Z" fill="#71B7F0" stroke="#71B7F0" stroke-width="1.93987" stroke-linejoin="round"/>
<path d="M158.904 207.227H156.991V220.897H158.904V207.227Z" fill="#71B7F0" stroke="#71B7F0" stroke-width="1.93987" stroke-linejoin="round"/>
<path d="M184.981 191.988H82.9287V206.664H184.981V191.988Z" fill="white" stroke="#71B7F0" stroke-width="1.93987" stroke-linejoin="round"/>
<path d="M88.5438 192.258V202.667" stroke="#71B7F0" stroke-width="1.93987" stroke-linejoin="round"/>
<path d="M94.1222 206.001V194.489" stroke="#71B7F0" stroke-width="1.93987" stroke-linejoin="round"/>
<path d="M101.184 192.258V204.898" stroke="#71B7F0" stroke-width="1.93987" stroke-linejoin="round"/>
<path d="M108.981 191.89V201.171" stroke="#71B7F0" stroke-width="1.93987" stroke-linejoin="round"/>
<path d="M116.043 192.626V205.634" stroke="#71B7F0" stroke-width="1.93987" stroke-linejoin="round"/>
<path d="M123.105 206.001V198.204" stroke="#71B7F0" stroke-width="1.93987" stroke-linejoin="round"/>
<path d="M129.419 192.626V200.068" stroke="#71B7F0" stroke-width="1.93987" stroke-linejoin="round"/>
<path d="M138.332 203.782V199.32" stroke="#71B7F0" stroke-width="1.93987" stroke-linejoin="round"/>
<path d="M155.998 192.515H149.954V206.185H155.998V192.515Z" fill="#71B7F0" stroke="#71B7F0" stroke-width="1.93987" stroke-linejoin="round"/>
<path d="M160.13 192.515H158.217V206.185H160.13V192.515Z" fill="#71B7F0" stroke="#71B7F0" stroke-width="1.93987" stroke-linejoin="round"/>
<path d="M183.755 177.276H81.7028V191.951H183.755V177.276Z" fill="white" stroke="#71B7F0" stroke-width="1.93987" stroke-linejoin="round"/>
<path d="M87.3179 177.546V187.955" stroke="#71B7F0" stroke-width="1.93987" stroke-linejoin="round"/>
<path d="M92.8961 191.289V179.777" stroke="#71B7F0" stroke-width="1.93987" stroke-linejoin="round"/>
<path d="M99.9579 177.546V190.186" stroke="#71B7F0" stroke-width="1.93987" stroke-linejoin="round"/>
<path d="M107.755 177.178V186.459" stroke="#71B7F0" stroke-width="1.93987" stroke-linejoin="round"/>
<path d="M114.817 177.914V190.922" stroke="#71B7F0" stroke-width="1.93987" stroke-linejoin="round"/>
<path d="M121.879 191.289V183.492" stroke="#71B7F0" stroke-width="1.93987" stroke-linejoin="round"/>
<path d="M128.193 177.914V185.356" stroke="#71B7F0" stroke-width="1.93987" stroke-linejoin="round"/>
<path d="M137.106 189.07V184.608" stroke="#71B7F0" stroke-width="1.93987" stroke-linejoin="round"/>
<path d="M154.772 177.803H148.728V191.473H154.772V177.803Z" fill="#71B7F0" stroke="#71B7F0" stroke-width="1.93987" stroke-linejoin="round"/>
<path d="M158.904 177.803H156.991V191.473H158.904V177.803Z" fill="#71B7F0" stroke="#71B7F0" stroke-width="1.93987" stroke-linejoin="round"/>
<path d="M191.123 162.564H89.071V177.239H191.123V162.564Z" fill="white" stroke="#71B7F0" stroke-width="1.93987" stroke-linejoin="round"/>
<path d="M94.6738 162.834V173.243" stroke="#71B7F0" stroke-width="1.93987" stroke-linejoin="round"/>
<path d="M100.252 176.577V165.065" stroke="#71B7F0" stroke-width="1.93987" stroke-linejoin="round"/>
<path d="M107.314 162.834V175.474" stroke="#71B7F0" stroke-width="1.93987" stroke-linejoin="round"/>
<path d="M115.111 162.466V171.747" stroke="#71B7F0" stroke-width="1.93987" stroke-linejoin="round"/>
<path d="M122.173 163.202V176.21" stroke="#71B7F0" stroke-width="1.93987" stroke-linejoin="round"/>
<path d="M129.235 176.577V168.78" stroke="#71B7F0" stroke-width="1.93987" stroke-linejoin="round"/>
<path d="M135.549 163.202V170.644" stroke="#71B7F0" stroke-width="1.93987" stroke-linejoin="round"/>
<path d="M144.462 174.358V169.896" stroke="#71B7F0" stroke-width="1.93987" stroke-linejoin="round"/>
<path d="M162.128 163.092H156.084V176.761H162.128V163.092Z" fill="#71B7F0" stroke="#71B7F0" stroke-width="1.93987" stroke-linejoin="round"/>
<path d="M166.26 163.092H164.347V176.761H166.26V163.092Z" fill="#71B7F0" stroke="#71B7F0" stroke-width="1.93987" stroke-linejoin="round"/>
<path d="M187.433 148.122H85.3807V162.797H187.433V148.122Z" fill="white" stroke="#71B7F0" stroke-width="1.93987" stroke-linejoin="round"/>
<path d="M90.9958 148.392V158.8" stroke="#71B7F0" stroke-width="1.93987" stroke-linejoin="round"/>
<path d="M96.5741 162.147V150.623" stroke="#71B7F0" stroke-width="1.93987" stroke-linejoin="round"/>
<path d="M103.636 148.392V161.032" stroke="#71B7F0" stroke-width="1.93987" stroke-linejoin="round"/>
<path d="M111.433 148.024V157.317" stroke="#71B7F0" stroke-width="1.93987" stroke-linejoin="round"/>
<path d="M118.495 148.772V161.767" stroke="#71B7F0" stroke-width="1.93987" stroke-linejoin="round"/>
<path d="M125.557 162.147V154.338" stroke="#71B7F0" stroke-width="1.93987" stroke-linejoin="round"/>
<path d="M131.871 148.772V156.201" stroke="#71B7F0" stroke-width="1.93987" stroke-linejoin="round"/>
<path d="M140.784 159.916V155.453" stroke="#71B7F0" stroke-width="1.93987" stroke-linejoin="round"/>
<path d="M158.45 148.661H152.406V162.331H158.45V148.661Z" fill="#71B7F0" stroke="#71B7F0" stroke-width="1.93987" stroke-linejoin="round"/>
<path d="M162.582 148.661H160.669V162.331H162.582V148.661Z" fill="#71B7F0" stroke="#71B7F0" stroke-width="1.93987" stroke-linejoin="round"/>
<path d="M191.123 133.41H89.071V148.085H191.123V133.41Z" fill="white" stroke="#71B7F0" stroke-width="1.93987" stroke-linejoin="round"/>
<path d="M94.6738 133.68V144.088" stroke="#71B7F0" stroke-width="1.93987" stroke-linejoin="round"/>
<path d="M100.252 147.435V135.911" stroke="#71B7F0" stroke-width="1.93987" stroke-linejoin="round"/>
<path d="M107.314 133.68V146.32" stroke="#71B7F0" stroke-width="1.93987" stroke-linejoin="round"/>
<path d="M115.111 133.312V142.605" stroke="#71B7F0" stroke-width="1.93987" stroke-linejoin="round"/>
<path d="M122.173 134.06V147.055" stroke="#71B7F0" stroke-width="1.93987" stroke-linejoin="round"/>
<path d="M129.235 147.435V139.626" stroke="#71B7F0" stroke-width="1.93987" stroke-linejoin="round"/>
<path d="M135.549 134.06V141.489" stroke="#71B7F0" stroke-width="1.93987" stroke-linejoin="round"/>
<path d="M144.462 145.204V140.741" stroke="#71B7F0" stroke-width="1.93987" stroke-linejoin="round"/>
<path d="M162.128 133.949H156.084V147.619H162.128V133.949Z" fill="#71B7F0" stroke="#71B7F0" stroke-width="1.93987" stroke-linejoin="round"/>
<path d="M166.26 133.949H164.347V147.619H166.26V133.949Z" fill="#71B7F0" stroke="#71B7F0" stroke-width="1.93987" stroke-linejoin="round"/>
<path d="M187.433 118.698H85.3807V133.373H187.433V118.698Z" fill="white" stroke="#71B7F0" stroke-width="1.93987" stroke-linejoin="round"/>
<path d="M90.9958 118.968V129.376" stroke="#71B7F0" stroke-width="1.93987" stroke-linejoin="round"/>
<path d="M96.5741 132.723V121.199" stroke="#71B7F0" stroke-width="1.93987" stroke-linejoin="round"/>
<path d="M103.636 118.968V131.608" stroke="#71B7F0" stroke-width="1.93987" stroke-linejoin="round"/>
<path d="M111.433 118.6V127.893" stroke="#71B7F0" stroke-width="1.93987" stroke-linejoin="round"/>
<path d="M118.495 119.348V132.343" stroke="#71B7F0" stroke-width="1.93987" stroke-linejoin="round"/>
<path d="M125.557 132.723V124.914" stroke="#71B7F0" stroke-width="1.93987" stroke-linejoin="round"/>
<path d="M131.871 119.348V126.777" stroke="#71B7F0" stroke-width="1.93987" stroke-linejoin="round"/>
<path d="M140.784 130.492V126.029" stroke="#71B7F0" stroke-width="1.93987" stroke-linejoin="round"/>
<path d="M158.45 119.237H152.406V132.907H158.45V119.237Z" fill="#71B7F0" stroke="#71B7F0" stroke-width="1.93987" stroke-linejoin="round"/>
<path d="M162.582 119.237H160.669V132.907H162.582V119.237Z" fill="#71B7F0" stroke="#71B7F0" stroke-width="1.93987" stroke-linejoin="round"/>
<path d="M187.433 103.986H85.3807V118.661H187.433V103.986Z" fill="white" stroke="#71B7F0" stroke-width="1.93987" stroke-linejoin="round"/>
<path d="M90.9958 104.256V114.664" stroke="#71B7F0" stroke-width="1.93987" stroke-linejoin="round"/>
<path d="M96.5741 118.011V106.487" stroke="#71B7F0" stroke-width="1.93987" stroke-linejoin="round"/>
<path d="M103.636 104.256V116.896" stroke="#71B7F0" stroke-width="1.93987" stroke-linejoin="round"/>
<path d="M111.433 103.888V113.181" stroke="#71B7F0" stroke-width="1.93987" stroke-linejoin="round"/>
<path d="M118.495 104.636V117.631" stroke="#71B7F0" stroke-width="1.93987" stroke-linejoin="round"/>
<path d="M125.557 118.011V110.202" stroke="#71B7F0" stroke-width="1.93987" stroke-linejoin="round"/>
<path d="M131.871 104.636V112.065" stroke="#71B7F0" stroke-width="1.93987" stroke-linejoin="round"/>
<path d="M140.784 115.78V111.317" stroke="#71B7F0" stroke-width="1.93987" stroke-linejoin="round"/>
<path d="M158.45 104.525H152.406V118.195H158.45V104.525Z" fill="#71B7F0" stroke="#71B7F0" stroke-width="1.93987" stroke-linejoin="round"/>
<path d="M162.582 104.525H160.669V118.195H162.582V104.525Z" fill="#71B7F0" stroke="#71B7F0" stroke-width="1.93987" stroke-linejoin="round"/>
<path d="M187.433 89.274H85.3807V103.949H187.433V89.274Z" fill="white" stroke="#71B7F0" stroke-width="1.93987" stroke-linejoin="round"/>
<path d="M90.9958 89.5437V99.9525" stroke="#71B7F0" stroke-width="1.93987" stroke-linejoin="round"/>
<path d="M96.5741 103.299V91.775" stroke="#71B7F0" stroke-width="1.93987" stroke-linejoin="round"/>
<path d="M103.636 89.5437V102.184" stroke="#71B7F0" stroke-width="1.93987" stroke-linejoin="round"/>
<path d="M111.433 89.1759V98.469" stroke="#71B7F0" stroke-width="1.93987" stroke-linejoin="round"/>
<path d="M118.495 89.9238V102.919" stroke="#71B7F0" stroke-width="1.93987" stroke-linejoin="round"/>
<path d="M125.557 103.299V95.4898" stroke="#71B7F0" stroke-width="1.93987" stroke-linejoin="round"/>
<path d="M131.871 89.9238V97.3533" stroke="#71B7F0" stroke-width="1.93987" stroke-linejoin="round"/>
<path d="M140.784 101.068V96.6055" stroke="#71B7F0" stroke-width="1.93987" stroke-linejoin="round"/>
<path d="M158.45 89.8134H152.406V103.483H158.45V89.8134Z" fill="#71B7F0" stroke="#71B7F0" stroke-width="1.93987" stroke-linejoin="round"/>
<path d="M162.582 89.8134H160.669V103.483H162.582V89.8134Z" fill="#71B7F0" stroke="#71B7F0" stroke-width="1.93987" stroke-linejoin="round"/>
<path d="M182.529 74.562H80.4767V89.2372H182.529V74.562Z" fill="white" stroke="#71B7F0" stroke-width="1.93987" stroke-linejoin="round"/>
<path d="M86.0918 74.8317V85.2405" stroke="#71B7F0" stroke-width="1.93987" stroke-linejoin="round"/>
<path d="M91.6702 88.5874V77.063" stroke="#71B7F0" stroke-width="1.93987" stroke-linejoin="round"/>
<path d="M98.7319 74.8317V87.4718" stroke="#71B7F0" stroke-width="1.93987" stroke-linejoin="round"/>
<path d="M106.529 74.4639V83.757" stroke="#71B7F0" stroke-width="1.93987" stroke-linejoin="round"/>
<path d="M113.591 75.2118V88.2073" stroke="#71B7F0" stroke-width="1.93987" stroke-linejoin="round"/>
<path d="M120.653 88.5875V80.7778" stroke="#71B7F0" stroke-width="1.93987" stroke-linejoin="round"/>
<path d="M126.967 75.2118V82.6413" stroke="#71B7F0" stroke-width="1.93987" stroke-linejoin="round"/>
<path d="M135.88 86.3561V81.8935" stroke="#71B7F0" stroke-width="1.93987" stroke-linejoin="round"/>
<path d="M153.546 75.1014H147.502V88.7713H153.546V75.1014Z" fill="#71B7F0" stroke="#71B7F0" stroke-width="1.93987" stroke-linejoin="round"/>
<path d="M157.678 75.1014H155.765V88.7713H157.678V75.1014Z" fill="#71B7F0" stroke="#71B7F0" stroke-width="1.93987" stroke-linejoin="round"/>
<path d="M187.433 59.85H85.3807V74.5252H187.433V59.85Z" fill="white" stroke="#71B7F0" stroke-width="1.93987" stroke-linejoin="round"/>
<path d="M90.9958 60.1197V70.5284" stroke="#71B7F0" stroke-width="1.93987" stroke-linejoin="round"/>
<path d="M96.5741 73.8754V62.351" stroke="#71B7F0" stroke-width="1.93987" stroke-linejoin="round"/>
<path d="M103.636 60.1197V72.7598" stroke="#71B7F0" stroke-width="1.93987" stroke-linejoin="round"/>
<path d="M111.433 59.7519V69.045" stroke="#71B7F0" stroke-width="1.93987" stroke-linejoin="round"/>
<path d="M118.495 60.4998V73.4953" stroke="#71B7F0" stroke-width="1.93987" stroke-linejoin="round"/>
<path d="M125.557 73.8755V66.0658" stroke="#71B7F0" stroke-width="1.93987" stroke-linejoin="round"/>
<path d="M131.871 60.4998V67.9293" stroke="#71B7F0" stroke-width="1.93987" stroke-linejoin="round"/>
<path d="M140.784 71.6441V67.1814" stroke="#71B7F0" stroke-width="1.93987" stroke-linejoin="round"/>
<path d="M158.45 60.3894H152.406V74.0593H158.45V60.3894Z" fill="#71B7F0" stroke="#71B7F0" stroke-width="1.93987" stroke-linejoin="round"/>
<path d="M162.582 60.3894H160.669V74.0593H162.582V60.3894Z" fill="#71B7F0" stroke="#71B7F0" stroke-width="1.93987" stroke-linejoin="round"/>
<path d="M181.303 45.138H79.2507V59.8132H181.303V45.138Z" fill="white" stroke="#71B7F0" stroke-width="1.93987" stroke-linejoin="round"/>
<path d="M84.8658 45.4077V55.8165" stroke="#71B7F0" stroke-width="1.93987" stroke-linejoin="round"/>
<path d="M90.4442 59.1634V47.639" stroke="#71B7F0" stroke-width="1.93987" stroke-linejoin="round"/>
<path d="M97.506 45.4077V58.0478" stroke="#71B7F0" stroke-width="1.93987" stroke-linejoin="round"/>
<path d="M105.303 45.0399V54.333" stroke="#71B7F0" stroke-width="1.93987" stroke-linejoin="round"/>
<path d="M112.365 45.7878V58.7834" stroke="#71B7F0" stroke-width="1.93987" stroke-linejoin="round"/>
<path d="M119.427 59.1634V51.3538" stroke="#71B7F0" stroke-width="1.93987" stroke-linejoin="round"/>
<path d="M125.741 45.7878V53.2173" stroke="#71B7F0" stroke-width="1.93987" stroke-linejoin="round"/>
<path d="M134.654 56.9321V52.4695" stroke="#71B7F0" stroke-width="1.93987" stroke-linejoin="round"/>
<path d="M152.32 45.6774H146.276V59.3473H152.32V45.6774Z" fill="#71B7F0" stroke="#71B7F0" stroke-width="1.93987" stroke-linejoin="round"/>
<path d="M156.452 45.6774H154.539V59.3473H156.452V45.6774Z" fill="#71B7F0" stroke="#71B7F0" stroke-width="1.93987" stroke-linejoin="round"/>
<path d="M187.433 30.426H85.3807V45.1012H187.433V30.426Z" fill="white" stroke="#71B7F0" stroke-width="1.93987" stroke-linejoin="round"/>
<path d="M90.9958 30.6957V41.1044" stroke="#71B7F0" stroke-width="1.93987" stroke-linejoin="round"/>
<path d="M96.5741 44.4514V32.927" stroke="#71B7F0" stroke-width="1.93987" stroke-linejoin="round"/>
<path d="M103.636 30.6957V43.3358" stroke="#71B7F0" stroke-width="1.93987" stroke-linejoin="round"/>
<path d="M111.433 30.3279V39.621" stroke="#71B7F0" stroke-width="1.93987" stroke-linejoin="round"/>
<path d="M118.495 31.0758V44.0714" stroke="#71B7F0" stroke-width="1.93987" stroke-linejoin="round"/>
<path d="M125.557 44.4514V36.6418" stroke="#71B7F0" stroke-width="1.93987" stroke-linejoin="round"/>
<path d="M131.871 31.0758V38.5053" stroke="#71B7F0" stroke-width="1.93987" stroke-linejoin="round"/>
<path d="M140.784 42.2201V37.7575" stroke="#71B7F0" stroke-width="1.93987" stroke-linejoin="round"/>
<path d="M158.45 30.9654H152.406V44.6353H158.45V30.9654Z" fill="#71B7F0" stroke="#71B7F0" stroke-width="1.93987" stroke-linejoin="round"/>
<path d="M162.582 30.9654H160.669V44.6353H162.582V30.9654Z" fill="#71B7F0" stroke="#71B7F0" stroke-width="1.93987" stroke-linejoin="round"/>
<path d="M182.529 15.714H80.4767V30.3892H182.529V15.714Z" fill="white" stroke="#71B7F0" stroke-width="1.93987" stroke-linejoin="round"/>
<path d="M86.0918 15.9837V26.3924" stroke="#71B7F0" stroke-width="1.93987" stroke-linejoin="round"/>
<path d="M91.6702 29.7394V18.215" stroke="#71B7F0" stroke-width="1.93987" stroke-linejoin="round"/>
<path d="M98.7319 15.9837V28.6237" stroke="#71B7F0" stroke-width="1.93987" stroke-linejoin="round"/>
<path d="M106.529 15.6159V24.909" stroke="#71B7F0" stroke-width="1.93987" stroke-linejoin="round"/>
<path d="M113.591 16.3638V29.3594" stroke="#71B7F0" stroke-width="1.93987" stroke-linejoin="round"/>
<path d="M120.653 29.7394V21.9298" stroke="#71B7F0" stroke-width="1.93987" stroke-linejoin="round"/>
<path d="M126.967 16.3638V23.7933" stroke="#71B7F0" stroke-width="1.93987" stroke-linejoin="round"/>
<path d="M135.88 27.5081V23.0455" stroke="#71B7F0" stroke-width="1.93987" stroke-linejoin="round"/>
<path d="M153.546 16.2534H147.502V29.9233H153.546V16.2534Z" fill="#71B7F0" stroke="#71B7F0" stroke-width="1.93987" stroke-linejoin="round"/>
<path d="M157.678 16.2534H155.765V29.9233H157.678V16.2534Z" fill="#71B7F0" stroke="#71B7F0" stroke-width="1.93987" stroke-linejoin="round"/>
<path d="M187.433 1.00199H85.3807V15.6772H187.433V1.00199Z" fill="white" stroke="#71B7F0" stroke-width="1.93987" stroke-linejoin="round"/>
<path d="M90.9958 1.27171V11.6805" stroke="#71B7F0" stroke-width="1.93987" stroke-linejoin="round"/>
<path d="M96.5741 15.0274V3.50304" stroke="#71B7F0" stroke-width="1.93987" stroke-linejoin="round"/>
<path d="M103.636 1.27171V13.9118" stroke="#71B7F0" stroke-width="1.93987" stroke-linejoin="round"/>
<path d="M111.433 0.9039V10.197" stroke="#71B7F0" stroke-width="1.93987" stroke-linejoin="round"/>
<path d="M118.495 1.65176V14.6474" stroke="#71B7F0" stroke-width="1.93987" stroke-linejoin="round"/>
<path d="M125.557 15.0274V7.21781" stroke="#71B7F0" stroke-width="1.93987" stroke-linejoin="round"/>
<path d="M131.871 1.65176V9.08132" stroke="#71B7F0" stroke-width="1.93987" stroke-linejoin="round"/>
<path d="M140.784 12.7961V8.33346" stroke="#71B7F0" stroke-width="1.93987" stroke-linejoin="round"/>
<path d="M158.45 1.54144H152.406V15.2113H158.45V1.54144Z" fill="#71B7F0" stroke="#71B7F0" stroke-width="1.93987" stroke-linejoin="round"/>
<path d="M162.582 1.54144H160.669V15.2113H162.582V1.54144Z" fill="#71B7F0" stroke="#71B7F0" stroke-width="1.93987" stroke-linejoin="round"/>
<path d="M109.889 309.684H7.8363V324.36H109.889V309.684Z" fill="white" stroke="#71B7F0" stroke-width="1.93987" stroke-linejoin="round"/>
<path d="M13.4514 309.954V320.363" stroke="#71B7F0" stroke-width="1.93987" stroke-linejoin="round"/>
<path d="M19.0175 323.697V312.185" stroke="#71B7F0" stroke-width="1.93987" stroke-linejoin="round"/>
<path d="M26.0791 309.954V322.594" stroke="#71B7F0" stroke-width="1.93987" stroke-linejoin="round"/>
<path d="M33.8888 309.586V318.867" stroke="#71B7F0" stroke-width="1.93987" stroke-linejoin="round"/>
<path d="M40.9506 310.322V323.33" stroke="#71B7F0" stroke-width="1.93987" stroke-linejoin="round"/>
<path d="M48 323.697V315.9" stroke="#71B7F0" stroke-width="1.93987" stroke-linejoin="round"/>
<path d="M54.3262 310.322V317.764" stroke="#71B7F0" stroke-width="1.93987" stroke-linejoin="round"/>
<path d="M63.2393 321.478V317.016" stroke="#71B7F0" stroke-width="1.93987" stroke-linejoin="round"/>
<path d="M80.9059 310.211H74.8617V323.881H80.9059V310.211Z" fill="#71B7F0" stroke="#71B7F0" stroke-width="1.93987" stroke-linejoin="round"/>
<path d="M85.0376 310.211H83.125V323.881H85.0376V310.211Z" fill="#71B7F0" stroke="#71B7F0" stroke-width="1.93987" stroke-linejoin="round"/>
<path d="M109.889 294.972H7.8363V309.648H109.889V294.972Z" fill="white" stroke="#71B7F0" stroke-width="1.93987" stroke-linejoin="round"/>
<path d="M13.4514 295.242V305.651" stroke="#71B7F0" stroke-width="1.93987" stroke-linejoin="round"/>
<path d="M19.0175 308.985V297.473" stroke="#71B7F0" stroke-width="1.93987" stroke-linejoin="round"/>
<path d="M26.0791 295.242V307.882" stroke="#71B7F0" stroke-width="1.93987" stroke-linejoin="round"/>
<path d="M33.8888 294.874V304.155" stroke="#71B7F0" stroke-width="1.93987" stroke-linejoin="round"/>
<path d="M40.9506 295.61V308.618" stroke="#71B7F0" stroke-width="1.93987" stroke-linejoin="round"/>
<path d="M48 308.985V301.188" stroke="#71B7F0" stroke-width="1.93987" stroke-linejoin="round"/>
<path d="M54.3262 295.61V303.052" stroke="#71B7F0" stroke-width="1.93987" stroke-linejoin="round"/>
<path d="M63.2393 306.766V302.304" stroke="#71B7F0" stroke-width="1.93987" stroke-linejoin="round"/>
<path d="M80.9059 295.499H74.8617V309.169H80.9059V295.499Z" fill="#71B7F0" stroke="#71B7F0" stroke-width="1.93987" stroke-linejoin="round"/>
<path d="M85.0376 295.499H83.125V309.169H85.0376V295.499Z" fill="#71B7F0" stroke="#71B7F0" stroke-width="1.93987" stroke-linejoin="round"/>
<path d="M116.019 280.26H13.9663V294.936H116.019V280.26Z" fill="white" stroke="#71B7F0" stroke-width="1.93987" stroke-linejoin="round"/>
<path d="M19.5814 280.53V290.939" stroke="#71B7F0" stroke-width="1.93987" stroke-linejoin="round"/>
<path d="M25.1473 294.273V282.761" stroke="#71B7F0" stroke-width="1.93987" stroke-linejoin="round"/>
<path d="M32.2091 280.53V293.17" stroke="#71B7F0" stroke-width="1.93987" stroke-linejoin="round"/>
<path d="M40.0188 280.162V289.443" stroke="#71B7F0" stroke-width="1.93987" stroke-linejoin="round"/>
<path d="M47.0806 280.898V293.906" stroke="#71B7F0" stroke-width="1.93987" stroke-linejoin="round"/>
<path d="M54.13 294.273V286.476" stroke="#71B7F0" stroke-width="1.93987" stroke-linejoin="round"/>
<path d="M60.4562 280.898V288.34" stroke="#71B7F0" stroke-width="1.93987" stroke-linejoin="round"/>
<path d="M69.3691 292.054V287.592" stroke="#71B7F0" stroke-width="1.93987" stroke-linejoin="round"/>
<path d="M87.0359 280.788H80.9917V294.457H87.0359V280.788Z" fill="#71B7F0" stroke="#71B7F0" stroke-width="1.93987" stroke-linejoin="round"/>
<path d="M91.1676 280.788H89.255V294.457H91.1676V280.788Z" fill="#71B7F0" stroke="#71B7F0" stroke-width="1.93987" stroke-linejoin="round"/>
<path d="M111.114 265.548H9.06226V280.224H111.114V265.548Z" fill="white" stroke="#71B7F0" stroke-width="1.93987" stroke-linejoin="round"/>
<path d="M14.6774 265.818V276.227" stroke="#71B7F0" stroke-width="1.93987" stroke-linejoin="round"/>
<path d="M20.2434 279.561V268.049" stroke="#71B7F0" stroke-width="1.93987" stroke-linejoin="round"/>
<path d="M27.3052 265.818V278.458" stroke="#71B7F0" stroke-width="1.93987" stroke-linejoin="round"/>
<path d="M35.1147 265.45V274.731" stroke="#71B7F0" stroke-width="1.93987" stroke-linejoin="round"/>
<path d="M42.1765 266.186V279.194" stroke="#71B7F0" stroke-width="1.93987" stroke-linejoin="round"/>
<path d="M49.226 279.561V271.764" stroke="#71B7F0" stroke-width="1.93987" stroke-linejoin="round"/>
<path d="M55.5522 266.186V273.628" stroke="#71B7F0" stroke-width="1.93987" stroke-linejoin="round"/>
<path d="M64.4652 277.342V272.88" stroke="#71B7F0" stroke-width="1.93987" stroke-linejoin="round"/>
<path d="M82.1318 266.075H76.0876V279.745H82.1318V266.075Z" fill="#71B7F0" stroke="#71B7F0" stroke-width="1.93987" stroke-linejoin="round"/>
<path d="M86.2635 266.075H84.351V279.745H86.2635V266.075Z" fill="#71B7F0" stroke="#71B7F0" stroke-width="1.93987" stroke-linejoin="round"/>
<path d="M116.019 250.836H13.9663V265.512H116.019V250.836Z" fill="white" stroke="#71B7F0" stroke-width="1.93987" stroke-linejoin="round"/>
<path d="M19.5814 251.106V261.515" stroke="#71B7F0" stroke-width="1.93987" stroke-linejoin="round"/>
<path d="M25.1473 264.849V253.337" stroke="#71B7F0" stroke-width="1.93987" stroke-linejoin="round"/>
<path d="M32.2091 251.106V263.746" stroke="#71B7F0" stroke-width="1.93987" stroke-linejoin="round"/>
<path d="M40.0188 250.738V260.019" stroke="#71B7F0" stroke-width="1.93987" stroke-linejoin="round"/>
<path d="M47.0806 251.474V264.482" stroke="#71B7F0" stroke-width="1.93987" stroke-linejoin="round"/>
<path d="M54.13 264.849V257.052" stroke="#71B7F0" stroke-width="1.93987" stroke-linejoin="round"/>
<path d="M60.4562 251.474V258.916" stroke="#71B7F0" stroke-width="1.93987" stroke-linejoin="round"/>
<path d="M69.3691 262.63V258.168" stroke="#71B7F0" stroke-width="1.93987" stroke-linejoin="round"/>
<path d="M87.0359 251.363H80.9917V265.033H87.0359V251.363Z" fill="#71B7F0" stroke="#71B7F0" stroke-width="1.93987" stroke-linejoin="round"/>
<path d="M91.1676 251.363H89.255V265.033H91.1676V251.363Z" fill="#71B7F0" stroke="#71B7F0" stroke-width="1.93987" stroke-linejoin="round"/>
<path d="M109.889 236.124H7.8363V250.8H109.889V236.124Z" fill="white" stroke="#71B7F0" stroke-width="1.93987" stroke-linejoin="round"/>
<path d="M13.4514 236.394V246.803" stroke="#71B7F0" stroke-width="1.93987" stroke-linejoin="round"/>
<path d="M19.0175 250.137V238.625" stroke="#71B7F0" stroke-width="1.93987" stroke-linejoin="round"/>
<path d="M26.0791 236.394V249.034" stroke="#71B7F0" stroke-width="1.93987" stroke-linejoin="round"/>
<path d="M33.8888 236.026V245.307" stroke="#71B7F0" stroke-width="1.93987" stroke-linejoin="round"/>
<path d="M40.9506 236.762V249.77" stroke="#71B7F0" stroke-width="1.93987" stroke-linejoin="round"/>
<path d="M48 250.137V242.34" stroke="#71B7F0" stroke-width="1.93987" stroke-linejoin="round"/>
<path d="M54.3262 236.762V244.204" stroke="#71B7F0" stroke-width="1.93987" stroke-linejoin="round"/>
<path d="M63.2393 247.918V243.456" stroke="#71B7F0" stroke-width="1.93987" stroke-linejoin="round"/>
<path d="M80.9059 236.651H74.8617V250.321H80.9059V236.651Z" fill="#71B7F0" stroke="#71B7F0" stroke-width="1.93987" stroke-linejoin="round"/>
<path d="M85.0376 236.651H83.125V250.321H85.0376V236.651Z" fill="#71B7F0" stroke="#71B7F0" stroke-width="1.93987" stroke-linejoin="round"/>
<path d="M107.437 221.412H5.38428V236.088H107.437V221.412Z" fill="white" stroke="#71B7F0" stroke-width="1.93987" stroke-linejoin="round"/>
<path d="M10.9994 221.682V232.091" stroke="#71B7F0" stroke-width="1.93987" stroke-linejoin="round"/>
<path d="M16.5654 235.425V223.913" stroke="#71B7F0" stroke-width="1.93987" stroke-linejoin="round"/>
<path d="M23.6272 221.682V234.322" stroke="#71B7F0" stroke-width="1.93987" stroke-linejoin="round"/>
<path d="M31.4368 221.314V230.595" stroke="#71B7F0" stroke-width="1.93987" stroke-linejoin="round"/>
<path d="M38.4985 222.05V235.058" stroke="#71B7F0" stroke-width="1.93987" stroke-linejoin="round"/>
<path d="M45.548 235.425V227.628" stroke="#71B7F0" stroke-width="1.93987" stroke-linejoin="round"/>
<path d="M51.8741 222.05V229.492" stroke="#71B7F0" stroke-width="1.93987" stroke-linejoin="round"/>
<path d="M60.7872 233.206V228.744" stroke="#71B7F0" stroke-width="1.93987" stroke-linejoin="round"/>
<path d="M78.4539 221.939H72.4097V235.609H78.4539V221.939Z" fill="#71B7F0" stroke="#71B7F0" stroke-width="1.93987" stroke-linejoin="round"/>
<path d="M82.5855 221.939H80.673V235.609H82.5855V221.939Z" fill="#71B7F0" stroke="#71B7F0" stroke-width="1.93987" stroke-linejoin="round"/>
<path d="M108.662 206.7H6.61023V221.375H108.662V206.7Z" fill="white" stroke="#71B7F0" stroke-width="1.93987" stroke-linejoin="round"/>
<path d="M12.2253 206.97V217.379" stroke="#71B7F0" stroke-width="1.93987" stroke-linejoin="round"/>
<path d="M17.7914 220.713V209.201" stroke="#71B7F0" stroke-width="1.93987" stroke-linejoin="round"/>
<path d="M24.8531 206.97V219.61" stroke="#71B7F0" stroke-width="1.93987" stroke-linejoin="round"/>
<path d="M32.6628 206.602V215.883" stroke="#71B7F0" stroke-width="1.93987" stroke-linejoin="round"/>
<path d="M39.7245 207.338V220.346" stroke="#71B7F0" stroke-width="1.93987" stroke-linejoin="round"/>
<path d="M46.774 220.713V212.916" stroke="#71B7F0" stroke-width="1.93987" stroke-linejoin="round"/>
<path d="M53.1002 207.338V214.78" stroke="#71B7F0" stroke-width="1.93987" stroke-linejoin="round"/>
<path d="M62.0132 218.494V214.032" stroke="#71B7F0" stroke-width="1.93987" stroke-linejoin="round"/>
<path d="M79.6799 207.227H73.6357V220.897H79.6799V207.227Z" fill="#71B7F0" stroke="#71B7F0" stroke-width="1.93987" stroke-linejoin="round"/>
<path d="M83.8115 207.227H81.8989V220.897H83.8115V207.227Z" fill="#71B7F0" stroke="#71B7F0" stroke-width="1.93987" stroke-linejoin="round"/>
<path d="M103.759 191.988H1.7063V206.664H103.759V191.988Z" fill="white" stroke="#71B7F0" stroke-width="1.93987" stroke-linejoin="round"/>
<path d="M7.32141 192.258V202.667" stroke="#71B7F0" stroke-width="1.93987" stroke-linejoin="round"/>
<path d="M12.8875 206.001V194.489" stroke="#71B7F0" stroke-width="1.93987" stroke-linejoin="round"/>
<path d="M19.9492 192.258V204.898" stroke="#71B7F0" stroke-width="1.93987" stroke-linejoin="round"/>
<path d="M27.7588 191.89V201.171" stroke="#71B7F0" stroke-width="1.93987" stroke-linejoin="round"/>
<path d="M34.8082 192.626V205.634" stroke="#71B7F0" stroke-width="1.93987" stroke-linejoin="round"/>
<path d="M41.87 206.001V198.204" stroke="#71B7F0" stroke-width="1.93987" stroke-linejoin="round"/>
<path d="M48.1962 192.626V200.068" stroke="#71B7F0" stroke-width="1.93987" stroke-linejoin="round"/>
<path d="M57.1093 203.782V199.32" stroke="#71B7F0" stroke-width="1.93987" stroke-linejoin="round"/>
<path d="M74.7759 192.515H68.7317V206.185H74.7759V192.515Z" fill="#71B7F0" stroke="#71B7F0" stroke-width="1.93987" stroke-linejoin="round"/>
<path d="M78.9076 192.515H76.995V206.185H78.9076V192.515Z" fill="#71B7F0" stroke="#71B7F0" stroke-width="1.93987" stroke-linejoin="round"/>
<path d="M113.567 177.276H11.5143V191.951H113.567V177.276Z" fill="white" stroke="#71B7F0" stroke-width="1.93987" stroke-linejoin="round"/>
<path d="M17.1294 177.546V187.955" stroke="#71B7F0" stroke-width="1.93987" stroke-linejoin="round"/>
<path d="M22.6954 191.289V179.777" stroke="#71B7F0" stroke-width="1.93987" stroke-linejoin="round"/>
<path d="M29.7572 177.546V190.186" stroke="#71B7F0" stroke-width="1.93987" stroke-linejoin="round"/>
<path d="M37.5668 177.178V186.459" stroke="#71B7F0" stroke-width="1.93987" stroke-linejoin="round"/>
<path d="M44.6285 177.914V190.922" stroke="#71B7F0" stroke-width="1.93987" stroke-linejoin="round"/>
<path d="M51.678 191.289V183.492" stroke="#71B7F0" stroke-width="1.93987" stroke-linejoin="round"/>
<path d="M58.0042 177.914V185.356" stroke="#71B7F0" stroke-width="1.93987" stroke-linejoin="round"/>
<path d="M66.9172 189.07V184.608" stroke="#71B7F0" stroke-width="1.93987" stroke-linejoin="round"/>
<path d="M84.5839 177.803H78.5397V191.473H84.5839V177.803Z" fill="#71B7F0" stroke="#71B7F0" stroke-width="1.93987" stroke-linejoin="round"/>
<path d="M88.7155 177.803H86.803V191.473H88.7155V177.803Z" fill="#71B7F0" stroke="#71B7F0" stroke-width="1.93987" stroke-linejoin="round"/>
<path d="M109.889 162.564H7.8363V177.239H109.889V162.564Z" fill="white" stroke="#71B7F0" stroke-width="1.93987" stroke-linejoin="round"/>
<path d="M13.4514 162.834V173.243" stroke="#71B7F0" stroke-width="1.93987" stroke-linejoin="round"/>
<path d="M19.0175 176.577V165.065" stroke="#71B7F0" stroke-width="1.93987" stroke-linejoin="round"/>
<path d="M26.0791 162.834V175.474" stroke="#71B7F0" stroke-width="1.93987" stroke-linejoin="round"/>
<path d="M33.8888 162.466V171.747" stroke="#71B7F0" stroke-width="1.93987" stroke-linejoin="round"/>
<path d="M40.9506 163.202V176.21" stroke="#71B7F0" stroke-width="1.93987" stroke-linejoin="round"/>
<path d="M48 176.577V168.78" stroke="#71B7F0" stroke-width="1.93987" stroke-linejoin="round"/>
<path d="M54.3262 163.202V170.644" stroke="#71B7F0" stroke-width="1.93987" stroke-linejoin="round"/>
<path d="M63.2393 174.358V169.896" stroke="#71B7F0" stroke-width="1.93987" stroke-linejoin="round"/>
<path d="M80.9059 163.092H74.8617V176.761H80.9059V163.092Z" fill="#71B7F0" stroke="#71B7F0" stroke-width="1.93987" stroke-linejoin="round"/>
<path d="M85.0376 163.092H83.125V176.761H85.0376V163.092Z" fill="#71B7F0" stroke="#71B7F0" stroke-width="1.93987" stroke-linejoin="round"/>
</svg>
