<svg width="570" height="512" viewBox="0 0 570 512" fill="none" xmlns="http://www.w3.org/2000/svg">
<path d="M552.977 313.748C534.918 362.09 498.04 414.415 446.143 429.912C367.679 453.329 358.362 516.529 217.911 510.669C197.395 509.914 177.022 506.929 157.151 501.768C147.451 499.204 137.922 496.031 128.622 492.266C46.5655 459.029 3.76588 385.886 0.22274 309.359C-4.46058 208.692 65.7647 160.719 111.409 132.631C157.053 104.544 212.063 -4.26372 350.172 0.358302C371.263 0.991087 392.21 4.05175 412.6 9.47974C459.078 22.0585 506.316 49.8764 533.778 90.5429C535.838 93.6079 537.807 96.7301 539.687 99.9095C576.443 162.252 577.583 247.839 552.977 313.748Z" fill="#E2EAF8"/>
<path opacity="0.7" d="M552.977 313.748C534.918 362.09 498.04 414.415 446.143 429.912C367.679 453.329 358.362 516.529 217.911 510.669C197.395 509.914 177.022 506.929 157.151 501.768C147.451 499.204 137.922 496.031 128.622 492.266C46.5655 459.029 3.76588 385.886 0.22274 309.359C-4.46058 208.692 65.7647 160.719 111.409 132.631C157.053 104.544 212.063 -4.26372 350.172 0.358302C371.263 0.991087 392.21 4.05175 412.6 9.47974C459.078 22.0585 506.316 49.8764 533.778 90.5429C535.838 93.6079 537.807 96.7301 539.687 99.9095C576.443 162.252 577.583 247.839 552.977 313.748Z" fill="white"/>
</svg>
