<svg width="19" height="19" viewBox="0 0 19 19" fill="none" xmlns="http://www.w3.org/2000/svg">
<path d="M17.141 7.32619L16.2515 7.17533C16.1723 6.95488 16.0828 6.73862 15.9839 6.52833L16.5077 5.79547C16.9635 5.15515 16.8903 4.29035 16.3354 3.74091L15.2664 2.67182C14.9643 2.36968 14.5638 2.20324 14.1388 2.20324C13.804 2.20324 13.484 2.30636 13.2154 2.49967L12.4797 3.02364C12.2522 2.91606 12.0213 2.82101 11.7889 2.7389L11.6418 1.86728C11.5124 1.09531 10.8502 0.535156 10.0672 0.535156H8.55696C7.77413 0.535156 7.11197 1.09531 6.98282 1.86575L6.8282 2.77146C6.60985 2.85121 6.39455 2.94181 6.18371 3.04298L5.46142 2.52277C5.1906 2.32779 4.86926 2.22481 4.53205 2.22481C4.10286 2.22481 3.70219 2.39153 3.40339 2.69436L2.33193 3.76235C1.77859 4.31568 1.70609 5.17978 2.15964 5.8169L2.69196 6.56479C2.59385 6.77591 2.50561 6.99316 2.42768 7.21485L1.55592 7.36195C0.784093 7.49152 0.223938 8.15369 0.223938 8.93651V10.4468C0.223938 11.2296 0.784093 11.8918 1.55453 12.0211L2.46024 12.1755C2.53999 12.394 2.63073 12.6095 2.73176 12.8202L2.2135 13.5411C1.75772 14.1814 1.83092 15.0463 2.38579 15.5956L3.45475 16.6647C3.75688 16.9668 4.15741 17.1333 4.58243 17.1333C4.91713 17.1333 5.23722 17.0302 5.50568 16.837L6.25357 16.3047C6.45008 16.396 6.65382 16.4796 6.863 16.5549L7.01121 17.4443C7.14078 18.2162 7.80294 18.7763 8.58577 18.7763H10.0995C10.8823 18.7763 11.5446 18.2162 11.6739 17.4453L11.8248 16.5556C12.0452 16.4764 12.2615 16.3869 12.4718 16.288L13.2023 16.8101C13.4731 17.0051 13.7944 17.1082 14.1317 17.1082C14.5565 17.1082 14.9571 16.9418 15.2592 16.6397L16.3282 15.5706C16.8816 15.0172 16.954 14.1531 16.5004 13.516L15.9761 12.7797C16.0777 12.5645 16.1674 12.3484 16.2447 12.1335L17.133 11.9854C17.9048 11.8559 18.465 11.1937 18.465 10.4109V8.90367C18.4737 8.12001 17.9176 7.45701 17.141 7.32619ZM17.3961 10.4109C17.3961 10.6696 17.211 10.8885 16.9566 10.9312L15.7784 11.1276C15.5611 11.1638 15.3857 11.3171 15.3204 11.528C15.2158 11.8671 15.072 12.2138 14.8935 12.5578C14.7924 12.7518 14.8086 12.983 14.9355 13.1608L15.6298 14.1359C15.7796 14.3463 15.7555 14.6319 15.5725 14.8149L14.5035 15.8838C14.4018 15.9856 14.2732 16.0394 14.1317 16.0394C14.02 16.0394 13.9147 16.006 13.8253 15.9417L12.8545 15.2478C12.6759 15.1197 12.4438 15.1035 12.2488 15.2055C11.9223 15.3764 11.5754 15.5202 11.2176 15.6325C11.0088 15.6979 10.8565 15.8727 10.8201 16.0879L10.62 17.2673C10.5773 17.5224 10.3584 17.7075 10.0995 17.7075H8.58577C8.32691 17.7075 8.10814 17.5224 8.06542 17.268L7.86905 16.0898C7.83314 15.8738 7.68117 15.6987 7.47242 15.6328C7.11976 15.5214 6.78395 15.3834 6.47402 15.2224C6.38954 15.1785 6.29811 15.1569 6.20709 15.1569C6.08935 15.1569 5.97217 15.1931 5.87183 15.2645L4.88359 15.9679C4.79453 16.032 4.69321 16.0645 4.58243 16.0645C4.4409 16.0645 4.31231 16.0108 4.21057 15.9089L3.13967 14.8381C2.95694 14.6572 2.9337 14.3725 3.08275 14.163L3.77289 13.203C3.90273 13.0228 3.9186 12.789 3.81394 12.5923C3.63845 12.2632 3.49302 11.9181 3.38154 11.5664C3.31558 11.359 3.14148 11.2075 2.92716 11.1709L1.73281 10.9673C1.47785 10.9244 1.29276 10.7055 1.29276 10.4468V8.93651C1.29276 8.6778 1.47785 8.45888 1.73323 8.41602L2.89696 8.21965C3.11448 8.18305 3.28969 8.02927 3.35441 7.81773C3.46421 7.4584 3.60547 7.11089 3.77428 6.78524C3.87476 6.59165 3.85861 6.36105 3.73211 6.18305L3.03042 5.19718C2.88054 4.98676 2.90461 4.70118 3.08706 4.51873L4.15964 3.44977L4.16353 3.44574C4.25998 3.34762 4.3908 3.29363 4.53205 3.29363C4.64367 3.29363 4.74916 3.32703 4.83683 3.39021L5.801 4.08424C5.9815 4.21423 6.21558 4.22982 6.41153 4.12516C6.74067 3.94967 7.0858 3.80424 7.43707 3.6929C7.64443 3.62707 7.79598 3.45325 7.83286 3.23838L8.03661 2.04403C8.07933 1.78907 8.29825 1.60397 8.5571 1.60397H10.0674C10.3261 1.60397 10.545 1.78907 10.5879 2.04444L10.7842 3.20859C10.821 3.42625 10.975 3.60133 11.1867 3.6659C11.5476 3.77557 11.9075 3.92364 12.2566 4.10623C12.4506 4.20755 12.6818 4.19168 12.8605 4.06462L13.8377 3.36864C13.9267 3.30448 14.028 3.27205 14.1389 3.27205C14.2803 3.27205 14.4089 3.32577 14.5107 3.42765L15.5815 4.49841C15.7642 4.67933 15.7876 4.96407 15.6376 5.17463L14.943 6.14645C14.8155 6.32514 14.7997 6.557 14.9014 6.75128C15.0724 7.07777 15.2161 7.42472 15.3285 7.78266C15.3941 7.99141 15.5687 8.14367 15.7839 8.17999L16.9624 8.37997L16.9633 8.38011C17.2176 8.42284 17.3998 8.63855 17.3961 8.89309V10.4109Z" fill="white" fill-opacity="0.5"/>
<path d="M9.34437 6.10938C7.38877 6.10938 5.79779 7.70036 5.79779 9.65596C5.79779 11.6116 7.38877 13.2025 9.34437 13.2025C11.3 13.2025 12.891 11.6116 12.891 9.65596C12.891 7.70036 11.3 6.10938 9.34437 6.10938ZM9.34437 12.1337C7.97815 12.1337 6.86661 11.0222 6.86661 9.65596C6.86661 8.28974 7.97815 7.17819 9.34437 7.17819C10.7106 7.17819 11.8221 8.28974 11.8221 9.65596C11.8221 11.0222 10.7106 12.1337 9.34437 12.1337Z" fill="white" fill-opacity="0.5"/>
</svg>
