<svg width="24" height="431" viewBox="0 0 24 431" fill="none" xmlns="http://www.w3.org/2000/svg">
<g opacity="0.5">
<path d="M9.43703 75.047L9.52447 75.3906H9.87897H21.4466C21.5906 75.3906 21.7072 75.5072 21.7072 75.6511C21.7072 75.7951 21.5905 75.9117 21.4466 75.9117H9.87901H9.52451L9.43708 76.2553C9.22054 77.106 8.55624 77.7703 7.70549 77.9869C6.42262 78.3134 5.118 77.5381 4.79151 76.2553L4.70407 75.9117H4.34957H2.81456C2.67059 75.9117 2.55396 75.7951 2.55396 75.6512C2.55396 75.5072 2.67063 75.3906 2.81456 75.3906H4.34952H4.70402L4.79146 75.047C5.008 74.1963 5.6723 73.532 6.52305 73.3154C7.80592 72.9889 9.11054 73.7642 9.43703 75.047Z" stroke="white" stroke-width="0.912058"/>
<path d="M18.7531 67.8805L18.8405 68.2241H19.195H21.4466C21.5905 68.2241 21.7072 68.3407 21.7072 68.4847C21.7072 68.6286 21.5905 68.7453 21.4466 68.7453H19.195H18.8405L18.7531 69.0888C18.5365 69.9396 17.8722 70.6039 17.0215 70.8204C15.7386 71.1469 14.434 70.3716 14.1075 69.0888L14.0201 68.7453H13.6656H2.81455C2.67062 68.7453 2.55395 68.6286 2.55395 68.4847C2.55395 68.3407 2.67062 68.2241 2.81455 68.2241H13.6656H14.0201L14.1075 67.8805C14.324 67.0298 14.9883 66.3655 15.8391 66.1489C17.122 65.8224 18.4266 66.5977 18.7531 67.8805Z" stroke="white" stroke-width="0.912058"/>
<path d="M17.3198 82.213L17.4073 82.5566H17.7618H21.4466C21.5906 82.5566 21.7072 82.6732 21.7072 82.8171C21.7072 82.9611 21.5905 83.0777 21.4466 83.0777H17.7618H17.4073L17.3199 83.4213C17.1033 84.272 16.439 84.9363 15.5883 85.1529C14.3054 85.4794 13.0008 84.7041 12.6743 83.4213L12.5869 83.0777H12.2323H2.81456C2.67065 83.0777 2.55396 82.961 2.55396 82.8171C2.55396 82.6733 2.67061 82.5566 2.81456 82.5566H12.2323H12.5868L12.6742 82.213C12.8908 81.3623 13.5551 80.698 14.4058 80.4814C15.6887 80.155 16.9933 80.9302 17.3198 82.213Z" stroke="white" stroke-width="0.912058"/>
</g>
<path opacity="0.5" d="M5.74615 0.861816V4.11102H6.81022V1.94488H11.5985V17.1079H8.93834V18.1909H15.3227V17.1079H12.6626V1.94488H17.4509V4.11102H18.515V0.861816L5.74615 0.861816Z" fill="white"/>
<g opacity="0.5">
<path d="M12.1306 117.605C6.59865 117.605 2.09792 122.106 2.09792 127.638C2.09792 133.17 6.59865 137.671 12.1306 137.671C17.6625 137.671 22.1632 133.17 22.1632 127.638C22.1632 122.106 17.6625 117.605 12.1306 117.605ZM12.1306 136.798C7.07934 136.798 2.97032 132.689 2.97032 127.638C2.97032 122.587 7.07934 118.478 12.1306 118.478C17.1818 118.478 21.2908 122.587 21.2908 127.638C21.2908 132.689 17.1818 136.798 12.1306 136.798Z" fill="white"/>
<path d="M9.94887 125.893C9.94887 125.172 9.36174 124.584 8.64027 124.584C7.91879 124.584 7.33166 125.172 7.33166 125.893C7.33166 126.615 7.91879 127.202 8.64027 127.202C9.36174 127.202 9.94887 126.615 9.94887 125.893ZM8.20406 125.893C8.20406 125.653 8.39992 125.457 8.64027 125.457C8.88061 125.457 9.07647 125.653 9.07647 125.893C9.07647 126.133 8.88061 126.329 8.64027 126.329C8.39992 126.329 8.20406 126.133 8.20406 125.893Z" fill="white"/>
<path d="M15.6196 124.584C14.8981 124.584 14.311 125.172 14.311 125.893C14.311 126.615 14.8981 127.202 15.6196 127.202C16.3411 127.202 16.9282 126.615 16.9282 125.893C16.9282 125.172 16.3411 124.584 15.6196 124.584ZM15.6196 126.329C15.3792 126.329 15.1834 126.133 15.1834 125.893C15.1834 125.653 15.3792 125.457 15.6196 125.457C15.8599 125.457 16.0558 125.653 16.0558 125.893C16.0558 126.133 15.8599 126.329 15.6196 126.329Z" fill="white"/>
<path d="M16.3481 129.93C16.1684 129.769 15.8922 129.785 15.7322 129.964C14.8222 130.981 13.5101 131.564 12.1313 131.564C10.7529 131.564 9.44038 130.981 8.53047 129.964C8.36951 129.785 8.09426 129.769 7.91455 129.93C7.73483 130.091 7.72 130.366 7.88053 130.546C8.95576 131.747 10.5052 132.436 12.1313 132.436C13.7579 132.436 15.3073 131.747 16.3821 130.546C16.5426 130.366 16.5274 130.091 16.3481 129.93Z" fill="white"/>
</g>
<path opacity="0.5" d="M17.2901 351.479C16.2697 350.423 14.9695 349.704 13.5541 349.413C12.1387 349.122 10.6716 349.271 9.33827 349.843C8.00498 350.414 6.8654 351.381 6.06366 352.622C5.26192 353.863 4.83403 355.322 4.8341 356.815V366.318C4.8341 366.392 4.86257 366.463 4.91325 366.515C4.96393 366.568 5.03266 366.597 5.10433 366.597H9.15792C9.22959 366.597 9.29833 366.568 9.34901 366.515C9.39968 366.463 9.42816 366.392 9.42816 366.318V356.815C9.42816 356.074 9.71287 355.363 10.2197 354.838C10.7265 354.314 11.4138 354.02 12.1305 354.02C12.8473 354.02 13.5346 354.314 14.0414 354.838C14.5482 355.363 14.8329 356.074 14.8329 356.815V366.318C14.8329 366.392 14.8614 366.463 14.9121 366.515C14.9628 366.568 15.0315 366.597 15.1032 366.597H19.1568C19.2284 366.597 19.2972 366.568 19.3478 366.515C19.3985 366.463 19.427 366.392 19.427 366.318V356.815C19.4296 355.823 19.2421 354.841 18.8753 353.925C18.5085 353.009 17.9697 352.178 17.2901 351.479ZM8.88768 366.038H5.37457V363.802H8.88768V366.038ZM18.8865 366.038H15.3734V363.802H18.8865V366.038ZM18.8865 363.243H15.3734V356.815C15.3734 355.925 15.0318 355.072 14.4236 354.443C13.8154 353.814 12.9906 353.461 12.1305 353.461C11.2705 353.461 10.4456 353.814 9.83749 354.443C9.22934 355.072 8.88768 355.925 8.88768 356.815V363.243H5.37457V356.815C5.37457 352.962 8.4053 349.827 12.1305 349.827C13.0178 349.827 13.8963 350.008 14.7159 350.359C15.5356 350.71 16.2804 351.225 16.9077 351.874C17.5351 352.523 18.0327 353.293 18.3723 354.141C18.7118 354.989 18.8865 355.897 18.8865 356.815V363.243Z" fill="white"/>
<g opacity="0.5">
<path d="M21.0709 253.741L15.4602 247.906C16.8493 246.567 17.716 244.691 17.716 242.614C17.716 238.559 14.4175 235.261 10.363 235.261C6.30846 235.261 3.00998 238.559 3.00998 242.614C3.00998 246.668 6.30846 249.967 10.363 249.967C11.8756 249.967 13.2828 249.507 14.453 248.721L20.1403 254.636C20.2671 254.767 20.4363 254.834 20.6057 254.834C20.7667 254.834 20.9279 254.774 21.053 254.654C21.31 254.406 21.318 253.998 21.0709 253.741ZM4.30104 242.614C4.30104 239.271 7.02043 236.552 10.363 236.552C13.7055 236.552 16.4249 239.271 16.4249 242.614C16.4249 245.956 13.7055 248.676 10.363 248.676C7.02043 248.676 4.30104 245.956 4.30104 242.614Z" fill="white"/>
<path d="M13.655 241.968H11.0085V239.322C11.0085 238.965 10.7195 238.676 10.3629 238.676C10.0063 238.676 9.7174 238.965 9.7174 239.322V241.968H7.07082C6.71423 241.968 6.42529 242.257 6.42529 242.614C6.42529 242.97 6.71423 243.259 7.07082 243.259H9.71731V245.906C9.71731 246.263 10.0063 246.551 10.3628 246.551C10.7194 246.551 11.0084 246.263 11.0084 245.906V243.259H13.6549C14.0115 243.259 14.3004 242.97 14.3004 242.614C14.3004 242.257 14.0115 241.968 13.655 241.968Z" fill="white"/>
</g>
<g opacity="0.5">
<path d="M1.24499 183.605L1.24523 183.601C1.2524 183.473 1.28516 183.347 1.34157 183.231C1.39798 183.116 1.47691 183.012 1.57373 182.928L3.11721 181.545C3.12617 181.534 3.13593 181.524 3.14641 181.515L5.23114 179.651C5.24039 179.64 5.2505 179.63 5.26137 179.62L7.2783 177.816L17.5445 168.617C17.6392 168.531 17.7501 168.464 17.8709 168.421C17.9917 168.378 18.1199 168.359 18.2479 168.366C18.3778 168.372 18.5052 168.404 18.6226 168.461C18.7399 168.517 18.8449 168.596 18.9313 168.693L23.4221 173.705C23.5088 173.801 23.5756 173.914 23.6187 174.036C23.6617 174.158 23.6801 174.287 23.6729 174.416L23.6726 174.42C23.6653 174.548 23.6326 174.674 23.5764 174.789C23.5202 174.904 23.4418 175.007 23.3455 175.091L7.37344 189.403C7.27886 189.49 7.16792 189.557 7.04712 189.6C6.92633 189.643 6.79809 189.662 6.66994 189.655C6.54001 189.649 6.41264 189.617 6.2953 189.561C6.17796 189.505 6.07301 189.426 5.9866 189.328L1.49574 184.316C1.40901 184.22 1.34219 184.108 1.29914 183.986C1.2561 183.864 1.23769 183.735 1.24499 183.605ZM3.59243 181.954C3.58344 181.965 3.57379 181.975 3.56355 181.984L1.9891 183.395C1.95387 183.426 1.92514 183.463 1.9046 183.505C1.88407 183.547 1.87215 183.592 1.86955 183.639L1.86946 183.641C1.8669 183.688 1.87372 183.735 1.8895 183.779C1.90529 183.824 1.92974 183.865 1.96144 183.9L6.45268 188.911C6.48405 188.946 6.52225 188.975 6.56503 188.996C6.6078 189.017 6.65427 189.028 6.70168 189.031C6.74764 189.033 6.79365 189.027 6.837 189.011C6.88035 188.996 6.92016 188.972 6.95405 188.941L22.9291 174.626L22.9292 174.624C22.9641 174.594 22.9926 174.557 23.013 174.516C23.0335 174.474 23.0454 174.429 23.0483 174.383C23.0508 174.336 23.044 174.289 23.0282 174.245C23.0124 174.2 22.988 174.159 22.9563 174.124L18.4652 169.111C18.4338 169.075 18.3956 169.046 18.3528 169.025C18.3101 169.005 18.2636 168.993 18.2162 168.991C18.1702 168.988 18.1242 168.995 18.0809 169.01C18.0375 169.026 17.9977 169.05 17.9638 169.081L5.70807 180.058C5.69883 180.07 5.68884 180.08 5.67815 180.09L3.59243 181.954Z" fill="white"/>
<path d="M13.6169 172.255C13.6203 172.194 13.6419 172.134 13.679 172.085C13.7162 172.035 13.7671 171.998 13.8255 171.978C13.8838 171.957 13.9469 171.954 14.0068 171.97C14.0667 171.985 14.1207 172.018 14.162 172.064L14.8559 172.838C14.9095 172.9 14.9367 172.981 14.9315 173.063C14.9263 173.145 14.8892 173.221 14.8281 173.276C14.767 173.331 14.6869 173.359 14.605 173.355C14.5231 173.352 14.4459 173.316 14.3901 173.256L13.6962 172.482C13.6688 172.451 13.6477 172.415 13.6341 172.376C13.6204 172.338 13.6146 172.297 13.6169 172.255Z" fill="white"/>
<path d="M11.4804 174.17C11.4838 174.108 11.5054 174.049 11.5425 173.999C11.5797 173.95 11.6306 173.913 11.689 173.892C11.7473 173.872 11.8104 173.869 11.8703 173.884C11.9302 173.9 11.9842 173.932 12.0255 173.978L13.1371 175.218C13.1645 175.249 13.1856 175.285 13.1992 175.323C13.2128 175.362 13.2186 175.403 13.2163 175.444C13.2141 175.485 13.2038 175.525 13.186 175.562C13.1682 175.599 13.1433 175.633 13.1127 175.66C13.0821 175.687 13.0464 175.709 13.0076 175.722C12.9689 175.736 12.9278 175.742 12.8868 175.739C12.8458 175.737 12.8056 175.727 12.7686 175.709C12.7316 175.691 12.6984 175.666 12.671 175.636L11.5598 174.396C11.5044 174.334 11.4759 174.253 11.4804 174.17Z" fill="white"/>
<path d="M9.34368 176.086C9.34707 176.024 9.3687 175.964 9.40583 175.915C9.44296 175.866 9.49392 175.828 9.55226 175.808C9.61061 175.787 9.67372 175.784 9.73363 175.8C9.79353 175.815 9.84753 175.848 9.88881 175.894L10.5836 176.669C10.6373 176.731 10.6644 176.811 10.6592 176.893C10.654 176.975 10.6169 177.052 10.5558 177.106C10.4947 177.161 10.4146 177.19 10.3327 177.186C10.2508 177.182 10.1736 177.146 10.1179 177.086L9.424 176.311C9.39642 176.281 9.37513 176.245 9.36134 176.206C9.34756 176.168 9.34156 176.127 9.34368 176.086Z" fill="white"/>
<path d="M7.20568 178C7.20908 177.939 7.23071 177.879 7.26784 177.83C7.30497 177.78 7.35593 177.743 7.41427 177.722C7.47262 177.702 7.53573 177.699 7.59564 177.715C7.65554 177.73 7.70954 177.763 7.75082 177.809L8.86202 179.049C8.91567 179.111 8.94282 179.192 8.93762 179.274C8.93242 179.356 8.89528 179.432 8.83421 179.487C8.77314 179.541 8.69302 179.57 8.61111 179.566C8.5292 179.562 8.45205 179.527 8.39627 179.467L7.28509 178.226C7.25762 178.195 7.23645 178.16 7.22282 178.121C7.20919 178.082 7.20337 178.041 7.20568 178Z" fill="white"/>
<path d="M5.06803 179.916C5.07143 179.854 5.09306 179.795 5.13019 179.745C5.16731 179.696 5.21827 179.658 5.27662 179.638C5.33496 179.617 5.39808 179.615 5.45798 179.63C5.51789 179.645 5.57189 179.678 5.61317 179.724L6.30706 180.498C6.36072 180.56 6.38787 180.641 6.38267 180.723C6.37747 180.804 6.34033 180.881 6.27926 180.936C6.21819 180.99 6.13807 181.019 6.05616 181.015C5.97425 181.011 5.89709 180.976 5.84132 180.916L5.14742 180.141C5.09207 180.08 5.06351 179.998 5.06803 179.916Z" fill="white"/>
<path d="M2.93169 181.83C2.93509 181.768 2.95672 181.709 2.99384 181.66C3.03097 181.61 3.08193 181.573 3.14028 181.552C3.19862 181.532 3.26174 181.529 3.32164 181.544C3.38154 181.56 3.43555 181.593 3.47682 181.639L4.58805 182.878C4.64344 182.94 4.67202 183.021 4.6675 183.104C4.66299 183.187 4.62576 183.265 4.564 183.32C4.50223 183.376 4.42099 183.404 4.33816 183.4C4.25532 183.395 4.17767 183.358 4.12229 183.296L3.01108 182.056C2.98357 182.025 2.96238 181.99 2.94876 181.951C2.93513 181.912 2.92933 181.871 2.93169 181.83Z" fill="white"/>
<path d="M17.4768 173.209C17.492 172.938 17.5873 172.677 17.7505 172.46C17.9138 172.243 18.1378 172.078 18.3942 171.988C18.6506 171.898 18.928 171.886 19.1913 171.953C19.4547 172.021 19.6922 172.164 19.8739 172.366C20.0253 172.535 20.1328 172.738 20.1869 172.958C20.241 173.178 20.2399 173.408 20.1838 173.627C20.1278 173.846 20.0184 174.049 19.8655 174.216C19.7126 174.383 19.5208 174.509 19.3071 174.585C19.0935 174.66 18.8646 174.681 18.6408 174.646C18.417 174.612 18.2052 174.523 18.0241 174.387C17.8431 174.251 17.6984 174.072 17.6029 173.867C17.5074 173.661 17.4641 173.435 17.4768 173.209ZM19.4085 172.783C19.3095 172.672 19.1799 172.593 19.0361 172.557C18.8923 172.52 18.7407 172.526 18.6007 172.575C18.4606 172.625 18.3382 172.714 18.2491 172.833C18.16 172.952 18.1081 173.094 18.0999 173.242C18.0918 173.391 18.1278 173.538 18.2035 173.666C18.2791 173.794 18.3909 173.896 18.5247 173.96C18.6586 174.024 18.8085 174.048 18.9555 174.027C19.1024 174.006 19.2399 173.941 19.3504 173.842C19.4986 173.71 19.5879 173.523 19.5988 173.325C19.6097 173.126 19.5413 172.931 19.4085 172.783Z" fill="white"/>
</g>
<g opacity="0.5">
<path d="M18.479 418.856H8.16844V416.043C8.16844 413.852 9.94585 412.07 12.1306 412.07C14.3153 412.07 16.0927 413.852 16.0927 416.043C16.0927 416.26 16.2672 416.434 16.4825 416.434C16.6978 416.434 16.8723 416.26 16.8723 416.043C16.8723 413.422 14.7452 411.288 12.1306 411.288C9.5159 411.288 7.38897 413.422 7.38897 416.043V418.856H5.78225C5.25938 418.856 4.8341 419.282 4.8341 419.807V430.038C4.8341 430.562 5.25938 430.989 5.78225 430.989H18.479C19.0017 430.989 19.427 430.562 19.427 430.038V419.807C19.427 419.282 19.0017 418.856 18.479 418.856ZM18.6476 430.038C18.6476 430.131 18.5721 430.207 18.479 430.207H5.78225C5.68916 430.207 5.61356 430.131 5.61356 430.038V419.807C5.61356 419.714 5.68916 419.638 5.78225 419.638H18.479C18.5721 419.638 18.6476 419.714 18.6476 419.807V430.038Z" fill="white"/>
<path d="M12.1285 422.78C11.3249 422.78 10.6713 423.447 10.6713 424.267C10.6713 424.948 11.1219 425.517 11.7322 425.695V426.754C11.7322 426.977 11.9096 427.158 12.1285 427.158C12.3472 427.158 12.5246 426.977 12.5246 426.754V425.695C13.1372 425.518 13.5899 424.948 13.5899 424.267C13.5899 423.447 12.9343 422.78 12.1285 422.78ZM12.1285 424.95C11.7618 424.95 11.4637 424.643 11.4637 424.267C11.4637 423.893 11.7618 423.589 12.1285 423.589C12.4973 423.589 12.7975 423.893 12.7975 424.267C12.7975 424.643 12.4973 424.95 12.1285 424.95Z" fill="white"/>
</g>
<g opacity="0.5">
<path d="M18.0114 295.4C16.519 295.4 15.3038 294.185 15.3038 292.692C15.3038 291.199 16.519 289.984 18.0114 289.984C19.504 289.984 20.7191 291.199 20.7191 292.692C20.7191 294.185 19.504 295.4 18.0114 295.4ZM18.0114 291.067C17.1161 291.067 16.3868 291.796 16.3868 292.692C16.3868 293.588 17.1161 294.317 18.0114 294.317C18.9068 294.317 19.6361 293.588 19.6361 292.692C19.6361 291.796 18.9068 291.067 18.0114 291.067Z" fill="white"/>
<path d="M18.0114 307.313C16.519 307.313 15.3038 306.099 15.3038 304.606C15.3038 303.112 16.519 301.898 18.0114 301.898C19.504 301.898 20.7191 303.112 20.7191 304.606C20.7191 306.099 19.504 307.313 18.0114 307.313ZM18.0114 302.981C17.1161 302.981 16.3868 303.71 16.3868 304.606C16.3868 305.502 17.1161 306.23 18.0114 306.23C18.9068 306.23 19.6361 305.502 19.6361 304.606C19.6361 303.71 18.9068 302.981 18.0114 302.981Z" fill="white"/>
<path d="M7.54179 301.357C6.04926 301.357 4.83411 300.142 4.83411 298.649C4.83411 297.156 6.04926 295.941 7.54179 295.941C9.03432 295.941 10.2495 297.156 10.2495 298.649C10.2495 300.142 9.03432 301.357 7.54179 301.357ZM7.54179 297.024C6.64646 297.024 5.91718 297.753 5.91718 298.649C5.91718 299.545 6.64646 300.274 7.54179 300.274C8.43712 300.274 9.1664 299.545 9.1664 298.649C9.1664 297.753 8.43712 297.024 7.54179 297.024Z" fill="white"/>
<path d="M9.42712 298.122C9.23859 298.122 9.05521 298.024 8.95632 297.849C8.80824 297.589 8.89854 297.258 9.15847 297.11L15.8584 293.291C16.1175 293.141 16.449 293.232 16.5963 293.493C16.7443 293.753 16.654 294.084 16.3941 294.232L9.69419 298.051C9.60971 298.099 9.51808 298.122 9.42712 298.122Z" fill="white"/>
<path d="M16.1262 304.079C16.0352 304.079 15.9435 304.056 15.859 304.007L9.15908 300.188C8.89915 300.04 8.80898 299.709 8.95693 299.449C9.10421 299.188 9.435 299.098 9.69493 299.247L16.3947 303.067C16.6547 303.215 16.745 303.545 16.597 303.805C16.4973 303.981 16.3139 304.079 16.1262 304.079Z" fill="white"/>
</g>
</svg>
