<svg width="20" height="20" viewBox="0 0 20 20" fill="none" xmlns="http://www.w3.org/2000/svg">
<circle cx="9.95532" cy="9.8977" r="8.41528" fill="white"/>
<path d="M9.95523 1.1709C8.2292 1.1709 6.54194 1.68273 5.10679 2.64166C3.67165 3.60059 2.5531 4.96355 1.89258 6.55819C1.23205 8.15284 1.05923 9.90754 1.39596 11.6004C1.73269 13.2933 2.56386 14.8483 3.78434 16.0687C5.00483 17.2892 6.55982 18.1204 8.25269 18.4571C9.94555 18.7939 11.7003 18.621 13.2949 17.9605C14.8895 17.3 16.2525 16.1814 17.2114 14.7463C18.1704 13.3112 18.6822 11.6239 18.6822 9.89786C18.6822 7.58332 17.7627 5.36359 16.1261 3.72697C14.4895 2.09034 12.2698 1.1709 9.95523 1.1709ZM14.3569 5.48529L10.9043 10.9887H12.137C12.2816 10.9887 12.4204 11.0462 12.5227 11.1485C12.6249 11.2508 12.6824 11.3895 12.6824 11.5342C12.6824 11.6788 12.6249 11.8176 12.5227 11.9198C12.4204 12.0221 12.2816 12.0796 12.137 12.0796H10.637V13.1705H12.137C12.2816 13.1705 12.4204 13.2279 12.5227 13.3302C12.6249 13.4325 12.6824 13.5712 12.6824 13.7159C12.6824 13.8606 12.6249 13.9993 12.5227 14.1016C12.4204 14.2039 12.2816 14.2613 12.137 14.2613H10.637V15.7613C10.637 15.9421 10.5652 16.1155 10.4373 16.2434C10.3095 16.3712 10.1361 16.4431 9.95523 16.4431C9.77441 16.4431 9.60099 16.3712 9.47313 16.2434C9.34527 16.1155 9.27344 15.9421 9.27344 15.7613V14.2613H7.77349C7.62884 14.2613 7.4901 14.2039 7.38781 14.1016C7.28552 13.9993 7.22806 13.8606 7.22806 13.7159C7.22806 13.5712 7.28552 13.4325 7.38781 13.3302C7.4901 13.2279 7.62884 13.1705 7.77349 13.1705H9.27344V12.0796H7.77349C7.62884 12.0796 7.4901 12.0221 7.38781 11.9198C7.28552 11.8176 7.22806 11.6788 7.22806 11.5342C7.22806 11.3895 7.28552 11.2508 7.38781 11.1485C7.4901 11.0462 7.62884 10.9887 7.77349 10.9887H9.00618L5.55357 5.48529C5.50594 5.40936 5.47373 5.3248 5.45878 5.23643C5.44383 5.14805 5.44643 5.0576 5.46644 4.97023C5.48644 4.88286 5.52346 4.80029 5.57538 4.72723C5.6273 4.65417 5.6931 4.59205 5.76902 4.54441C5.84495 4.49678 5.92951 4.46457 6.01788 4.44962C6.10626 4.43467 6.19671 4.43727 6.28408 4.45727C6.37145 4.47728 6.45402 4.5143 6.52708 4.56622C6.60014 4.61813 6.66226 4.68393 6.7099 4.75986L9.95523 9.94149L13.2006 4.76531C13.2482 4.68939 13.3103 4.62359 13.3834 4.57167C13.4564 4.51975 13.539 4.48274 13.6264 4.46273C13.7138 4.44272 13.8042 4.44012 13.8926 4.45507C13.981 4.47002 14.0655 4.50223 14.1414 4.54987C14.2174 4.5975 14.2832 4.65962 14.3351 4.73268C14.387 4.80574 14.424 4.88832 14.444 4.97568C14.464 5.06305 14.4666 5.15351 14.4517 5.24188C14.4367 5.33025 14.4045 5.41482 14.3569 5.49074V5.48529Z" fill="#099AF6"/>
</svg>
