<svg width="56" height="16" viewBox="0 0 56 16" fill="none" xmlns="http://www.w3.org/2000/svg">
<path d="M50.9103 0.447266L49.9019 1.45401L52.9558 4.51296H43.8515C40.3158 4.51296 37.4394 7.38945 37.4394 10.9251V15.9123H38.8643V10.9251C38.8643 8.17515 41.1016 5.93788 43.8515 5.93788H52.9558L49.9019 8.99683L50.9103 10.0036L55.6805 5.22545L50.9103 0.447266Z" fill="white" fill-opacity="0.5"/>
<path d="M5.72716 0.447266L6.73562 1.45401L3.68176 4.51296H12.786C16.3217 4.51296 19.1982 7.38945 19.1982 10.9251V15.9123H17.7732V10.9251C17.7732 8.17515 15.536 5.93788 12.786 5.93788H3.68176L6.73562 8.99683L5.72716 10.0036L0.957027 5.22545L5.72716 0.447266Z" fill="white" fill-opacity="0.5"/>
</svg>
