<svg width="20" height="19" viewBox="0 0 20 19" fill="none" xmlns="http://www.w3.org/2000/svg">
<g opacity="0.5">
<path d="M10.2387 15.8477C9.88149 15.8477 9.59186 16.1373 9.59186 16.4945V18.3337C9.59186 18.691 9.88149 18.9806 10.2387 18.9806C10.5961 18.9806 10.8856 18.691 10.8856 18.3337V16.4945C10.8856 16.1372 10.596 15.8477 10.2387 15.8477Z" fill="white"/>
<path d="M10.2387 3.15755C10.5961 3.15755 10.8856 2.86792 10.8856 2.51067V0.671292C10.8856 0.314043 10.5961 0.0244141 10.2387 0.0244141C9.88149 0.0244141 9.59186 0.314043 9.59186 0.671292V2.51067C9.59186 2.86792 9.88149 3.15755 10.2387 3.15755Z" fill="white"/>
<path d="M4.83844 13.9891L3.53744 15.2894C3.28473 15.542 3.28464 15.9516 3.53718 16.2042C3.66354 16.3306 3.82914 16.3938 3.99474 16.3938C4.16025 16.3938 4.32568 16.3306 4.45204 16.2045L5.75304 14.9041C6.00575 14.6516 6.00584 14.242 5.7533 13.9894C5.50058 13.7367 5.09107 13.7367 4.83844 13.9891Z" fill="white"/>
<path d="M15.1833 5.20499C15.3488 5.20499 15.5144 5.14186 15.6407 5.01559L16.9415 3.71528C17.1942 3.46265 17.1943 3.05313 16.9417 2.80042C16.6891 2.5477 16.2796 2.54762 16.0269 2.80033L14.726 4.10064C14.4734 4.35318 14.4733 4.76279 14.7259 5.01541C14.8521 5.14186 15.0177 5.20499 15.1833 5.20499Z" fill="white"/>
<path d="M3.89443 9.50283C3.89443 9.14559 3.6048 8.85596 3.24756 8.85596H1.40835C1.0511 8.85596 0.761475 9.14559 0.761475 9.50283C0.761475 9.86008 1.0511 10.1497 1.40835 10.1497H3.24756C3.6048 10.1497 3.89443 9.86008 3.89443 9.50283Z" fill="white"/>
<path d="M19.0712 8.85596H17.2312C16.8738 8.85596 16.5843 9.14559 16.5843 9.50283C16.5843 9.86008 16.8738 10.1497 17.2312 10.1497H19.0712C19.4286 10.1497 19.7181 9.86008 19.7181 9.50283C19.7181 9.14567 19.4286 8.85596 19.0712 8.85596Z" fill="white"/>
<path d="M4.83823 5.01548C4.9645 5.14175 5.1301 5.20489 5.29562 5.20489C5.46113 5.20489 5.62673 5.14175 5.753 5.01548C6.00563 4.76285 6.00563 4.35325 5.753 4.10062L4.45269 2.80031C4.20006 2.54768 3.79046 2.54768 3.53792 2.80031C3.28529 3.05294 3.28529 3.46254 3.53792 3.71508L4.83823 5.01548Z" fill="white"/>
<path d="M15.6414 13.9888C15.3888 13.7362 14.9792 13.7361 14.7265 13.9887C14.4738 14.2414 14.4738 14.651 14.7264 14.9035L16.0266 16.2038C16.1529 16.3302 16.3185 16.3933 16.4841 16.3933C16.6496 16.3933 16.8152 16.3302 16.9414 16.2039C17.1942 15.9513 17.1942 15.5417 16.9415 15.2891L15.6414 13.9888Z" fill="white"/>
<path d="M10.2395 4.46777C7.46339 4.46777 5.20483 6.7265 5.20483 9.50281C5.20483 12.279 7.46339 14.5377 10.2395 14.5377C13.0159 14.5377 15.2747 12.279 15.2747 9.50281C15.2747 6.7265 13.0158 4.46777 10.2395 4.46777ZM10.2395 13.2439C8.17676 13.2439 6.49859 11.5657 6.49859 9.50281C6.49859 7.43987 8.17676 5.76153 10.2395 5.76153C12.3026 5.76153 13.9809 7.43987 13.9809 9.50281C13.9809 11.5657 12.3026 13.2439 10.2395 13.2439Z" fill="white"/>
</g>
</svg>
