<svg width="914" height="417" viewBox="0 0 914 417" fill="none" xmlns="http://www.w3.org/2000/svg">
<line x1="0.668167" y1="1.19729" x2="838.342" y2="1.19729" stroke="white" stroke-opacity="0.1" stroke-width="0.912058"/>
<line x1="0.668159" y1="33.1192" x2="838.342" y2="33.1192" stroke="white" stroke-opacity="0.1" stroke-width="0.912058"/>
<line x1="0.668159" y1="65.041" x2="838.342" y2="65.041" stroke="white" stroke-opacity="0.1" stroke-width="0.912058"/>
<line x1="0.668167" y1="96.9634" x2="838.342" y2="96.9634" stroke="white" stroke-opacity="0.1" stroke-width="0.912058"/>
<line x1="0.668159" y1="128.885" x2="838.342" y2="128.885" stroke="white" stroke-opacity="0.1" stroke-width="0.912058"/>
<line x1="0.668167" y1="160.808" x2="838.342" y2="160.808" stroke="white" stroke-opacity="0.1" stroke-width="0.912058"/>
<line x1="0.668167" y1="192.73" x2="838.342" y2="192.73" stroke="white" stroke-opacity="0.1" stroke-width="0.912058"/>
<line x1="0.668159" y1="224.651" x2="838.342" y2="224.651" stroke="white" stroke-opacity="0.1" stroke-width="0.912058"/>
<line x1="0.668167" y1="256.573" x2="838.342" y2="256.573" stroke="white" stroke-opacity="0.1" stroke-width="0.912058"/>
<line x1="0.668167" y1="288.496" x2="838.342" y2="288.496" stroke="#FF971D" stroke-width="0.912058" stroke-dasharray="1.82 1.82"/>
<line x1="0.668159" y1="320.418" x2="838.342" y2="320.418" stroke="white" stroke-opacity="0.1" stroke-width="0.912058"/>
<line x1="0.668167" y1="352.34" x2="838.342" y2="352.34" stroke="white" stroke-opacity="0.1" stroke-width="0.912058"/>
<line x1="0.668167" y1="384.262" x2="838.342" y2="384.262" stroke="white" stroke-opacity="0.1" stroke-width="0.912058"/>
<line x1="0.668159" y1="416.184" x2="913.638" y2="416.184" stroke="white" stroke-opacity="0.1" stroke-width="0.912058"/>
<line x1="88.6564" y1="1.65332" x2="88.6564" y2="416.64" stroke="white" stroke-opacity="0.1" stroke-width="0.912058"/>
<line x1="163.012" y1="1.65332" x2="163.012" y2="416.64" stroke="white" stroke-opacity="0.1" stroke-width="0.912058"/>
<line x1="237.367" y1="1.65332" x2="237.367" y2="416.64" stroke="white" stroke-opacity="0.1" stroke-width="0.912058"/>
<line x1="311.722" y1="1.65332" x2="311.722" y2="416.64" stroke="white" stroke-opacity="0.1" stroke-width="0.912058"/>
<line x1="386.077" y1="1.65332" x2="386.077" y2="416.64" stroke="white" stroke-opacity="0.1" stroke-width="0.912058"/>
<line x1="460.433" y1="1.65332" x2="460.433" y2="416.64" stroke="white" stroke-opacity="0.1" stroke-width="0.912058"/>
<line x1="534.788" y1="1.65332" x2="534.788" y2="416.64" stroke="white" stroke-opacity="0.1" stroke-width="0.912058"/>
<line x1="609.144" y1="1.65332" x2="609.144" y2="416.64" stroke="white" stroke-opacity="0.1" stroke-width="0.912058"/>
<line x1="757.854" y1="1.65332" x2="757.854" y2="416.64" stroke="white" stroke-opacity="0.1" stroke-width="0.912058"/>
<line x1="832.21" y1="1.65332" x2="832.209" y2="416.64" stroke="white" stroke-opacity="0.1" stroke-width="0.912058"/>
<line x1="683.499" y1="1.65332" x2="683.499" y2="416.64" stroke="white" stroke-opacity="0.1" stroke-width="0.912058"/>
<line x1="14.3011" y1="1.65332" x2="14.3011" y2="416.64" stroke="white" stroke-opacity="0.1" stroke-width="0.912058"/>
</svg>
