<svg width="819" height="417" viewBox="0 0 819 417" fill="none" xmlns="http://www.w3.org/2000/svg">
<line x1="3.62937" y1="0.828613" x2="3.62937" y2="30.143" stroke="#16C782" stroke-width="0.912058"/>
<line x1="10.2195" y1="21.8984" x2="10.2195" y2="107.093" stroke="#16C782" stroke-width="0.912058"/>
<line x1="16.8096" y1="48.4648" x2="16.8096" y2="81.4436" stroke="#16C782" stroke-width="0.912058"/>
<line x1="23.3997" y1="53.0449" x2="23.3997" y2="88.7719" stroke="#16C782" stroke-width="0.912058"/>
<line x1="29.9899" y1="55.793" x2="29.9899" y2="86.9396" stroke="#EA3943" stroke-width="0.912058"/>
<line x1="36.5799" y1="63.1221" x2="36.5799" y2="117.171" stroke="#EA3943" stroke-width="0.912058"/>
<line x1="43.1701" y1="99.7651" x2="43.1701" y2="144.653" stroke="#EA3943" stroke-width="0.912058"/>
<line x1="48.8188" y1="108.926" x2="48.8188" y2="133.66" stroke="#16C782" stroke-width="0.912058"/>
<line x1="55.4088" y1="114.422" x2="55.4089" y2="149.233" stroke="#16C782" stroke-width="0.912058"/>
<line x1="61.999" y1="78.6953" x2="61.999" y2="149.233" stroke="#16C782" stroke-width="0.912058"/>
<line x1="68.5891" y1="67.7021" x2="68.5891" y2="89.688" stroke="#EA3943" stroke-width="0.912058"/>
<line x1="75.1792" y1="53.9609" x2="75.1792" y2="85.1075" stroke="#EA3943" stroke-width="0.912058"/>
<line x1="81.7694" y1="70.4507" x2="81.7694" y2="98.849" stroke="#EA3943" stroke-width="0.912058"/>
<line x1="88.3595" y1="44.8003" x2="88.3595" y2="92.4362" stroke="#EA3943" stroke-width="0.912058"/>
<line x1="121.31" y1="44.8003" x2="121.31" y2="93.3523" stroke="#EA3943" stroke-width="0.912058"/>
<line x1="128.842" y1="41.1362" x2="128.842" y2="71.3667" stroke="#EA3943" stroke-width="0.912058"/>
<line x1="134.49" y1="37.4717" x2="134.49" y2="71.3665" stroke="#EA3943" stroke-width="0.912058"/>
<line x1="140.139" y1="30.1431" x2="140.139" y2="54.8771" stroke="#16C782" stroke-width="0.912058"/>
<line x1="146.729" y1="26.4785" x2="146.729" y2="62.2055" stroke="#16C782" stroke-width="0.912058"/>
<line x1="153.319" y1="29.2271" x2="153.319" y2="87.8559" stroke="#16C782" stroke-width="0.912058"/>
<line x1="159.909" y1="53.9609" x2="159.909" y2="78.695" stroke="#16C782" stroke-width="0.912058"/>
<line x1="166.499" y1="44.8003" x2="166.499" y2="135.492" stroke="#EA3943" stroke-width="0.912058"/>
<line x1="174.031" y1="107.093" x2="174.031" y2="162.058" stroke="#EA3943" stroke-width="0.912058"/>
<line x1="179.68" y1="105.261" x2="179.68" y2="131.827" stroke="#EA3943" stroke-width="0.912058"/>
<line x1="186.27" y1="113.506" x2="186.27" y2="154.729" stroke="#16C782" stroke-width="0.912058"/>
<line x1="192.86" y1="122.667" x2="192.86" y2="180.38" stroke="#16C782" stroke-width="0.912058"/>
<line x1="199.45" y1="151.981" x2="199.45" y2="195.953" stroke="#16C782" stroke-width="0.912058"/>
<line x1="206.04" y1="159.31" x2="206.04" y2="196.869" stroke="#16C782" stroke-width="0.912058"/>
<line x1="212.63" y1="162.058" x2="212.63" y2="290.309" stroke="#16C782" stroke-width="0.912058"/>
<line x1="219.22" y1="186.792" x2="219.22" y2="263.742" stroke="#EA3943" stroke-width="0.912058"/>
<line x1="225.81" y1="193.205" x2="225.811" y2="277.484" stroke="#EA3943" stroke-width="0.912058"/>
<line x1="231.459" y1="225.267" x2="231.459" y2="260.994" stroke="#EA3943" stroke-width="0.912058"/>
<line x1="238.049" y1="230.764" x2="238.049" y2="300.385" stroke="#EA3943" stroke-width="0.912058"/>
<line x1="244.639" y1="215.19" x2="244.639" y2="268.323" stroke="#EA3943" stroke-width="0.912058"/>
<line x1="251.23" y1="215.19" x2="251.23" y2="249.085" stroke="#16C782" stroke-width="0.912058"/>
<line x1="264.41" y1="210.61" x2="264.41" y2="242.673" stroke="#16C782" stroke-width="0.912058"/>
<line x1="257.82" y1="206.946" x2="257.82" y2="236.26" stroke="#16C782" stroke-width="0.912058"/>
<line x1="271" y1="225.267" x2="271" y2="266.491" stroke="#16C782" stroke-width="0.912058"/>
<line x1="277.59" y1="239.924" x2="277.59" y2="275.651" stroke="#EA3943" stroke-width="0.912058"/>
<line x1="284.18" y1="248.169" x2="284.18" y2="278.399" stroke="#EA3943" stroke-width="0.912058"/>
<line x1="290.77" y1="238.092" x2="290.77" y2="271.071" stroke="#16C782" stroke-width="0.912058"/>
<line x1="297.36" y1="234.428" x2="297.36" y2="256.414" stroke="#16C782" stroke-width="0.912058"/>
<line x1="303.95" y1="231.68" x2="303.95" y2="254.582" stroke="#16C782" stroke-width="0.912058"/>
<line x1="310.541" y1="219.771" x2="310.541" y2="242.673" stroke="#EA3943" stroke-width="0.912058"/>
<line x1="316.189" y1="221.603" x2="316.189" y2="258.246" stroke="#EA3943" stroke-width="0.912058"/>
<line x1="322.779" y1="234.428" x2="322.779" y2="264.658" stroke="#EA3943" stroke-width="0.912058"/>
<line x1="329.369" y1="248.169" x2="329.369" y2="260.994" stroke="#16C782" stroke-width="0.912058"/>
<line x1="335.96" y1="245.421" x2="335.96" y2="279.316" stroke="#16C782" stroke-width="0.912058"/>
<line x1="342.55" y1="271.071" x2="342.55" y2="301.302" stroke="#16C782" stroke-width="0.912058"/>
<line x1="349.14" y1="238.092" x2="349.14" y2="287.56" stroke="#16C782" stroke-width="0.912058"/>
<line x1="355.73" y1="229.848" x2="355.73" y2="255.498" stroke="#16C782" stroke-width="0.912058"/>
<line x1="362.32" y1="237.176" x2="362.32" y2="254.582" stroke="#EA3943" stroke-width="0.912058"/>
<line x1="368.91" y1="239.008" x2="368.91" y2="266.491" stroke="#EA3943" stroke-width="0.912058"/>
<line x1="375.5" y1="220.687" x2="375.5" y2="265.575" stroke="#EA3943" stroke-width="0.912058"/>
<line x1="382.09" y1="205.114" x2="382.09" y2="228.016" stroke="#16C782" stroke-width="0.912058"/>
<line x1="388.68" y1="202.365" x2="388.68" y2="220.687" stroke="#16C782" stroke-width="0.912058"/>
<line x1="395.271" y1="210.61" x2="395.271" y2="234.428" stroke="#16C782" stroke-width="0.912058"/>
<line x1="401.861" y1="218.854" x2="401.861" y2="240.84" stroke="#16C782" stroke-width="0.912058"/>
<line x1="407.509" y1="231.68" x2="407.509" y2="261.91" stroke="#16C782" stroke-width="0.912058"/>
<line x1="414.1" y1="249.085" x2="414.1" y2="265.575" stroke="#16C782" stroke-width="0.912058"/>
<line x1="420.69" y1="251.833" x2="420.69" y2="279.316" stroke="#16C782" stroke-width="0.912058"/>
<line x1="427.28" y1="255.498" x2="427.28" y2="298.553" stroke="#16C782" stroke-width="0.912058"/>
<line x1="433.87" y1="263.742" x2="433.87" y2="317.791" stroke="#EA3943" stroke-width="0.912058"/>
<line x1="94.9495" y1="39.3037" x2="94.9495" y2="54.877" stroke="#16C782" stroke-width="0.912058"/>
<line x1="101.54" y1="44.8003" x2="101.54" y2="67.7022" stroke="#16C782" stroke-width="0.912058"/>
<line x1="108.13" y1="35.6396" x2="108.13" y2="59.4576" stroke="#16C782" stroke-width="0.912058"/>
<line x1="114.72" y1="52.1289" x2="114.72" y2="92.4362" stroke="#16C782" stroke-width="0.912058"/>
<line x1="688.06" y1="192.289" x2="688.06" y2="205.114" stroke="#EA3943" stroke-width="0.912058"/>
<line x1="752.079" y1="119.002" x2="752.079" y2="131.827" stroke="#EA3943" stroke-width="0.912058"/>
<line x1="816.097" y1="27.395" x2="816.097" y2="40.2201" stroke="#EA3943" stroke-width="0.912058"/>
<line x1="681.47" y1="193.205" x2="681.47" y2="231.68" stroke="#EA3943" stroke-width="0.912058"/>
<line x1="745.488" y1="119.918" x2="745.488" y2="158.394" stroke="#EA3943" stroke-width="0.912058"/>
<line x1="809.507" y1="28.311" x2="809.507" y2="66.7862" stroke="#EA3943" stroke-width="0.912058"/>
<line x1="674.88" y1="208.778" x2="674.88" y2="223.435" stroke="#EA3943" stroke-width="0.912058"/>
<line x1="738.898" y1="135.492" x2="738.898" y2="150.149" stroke="#EA3943" stroke-width="0.912058"/>
<line x1="802.916" y1="43.8843" x2="802.917" y2="58.5415" stroke="#EA3943" stroke-width="0.912058"/>
<line x1="668.29" y1="206.03" x2="668.29" y2="227.1" stroke="#EA3943" stroke-width="0.912058"/>
<line x1="732.308" y1="132.744" x2="732.308" y2="153.813" stroke="#EA3943" stroke-width="0.912058"/>
<line x1="796.326" y1="41.1362" x2="796.326" y2="62.206" stroke="#EA3943" stroke-width="0.912058"/>
<line x1="662.641" y1="219.771" x2="662.641" y2="250.001" stroke="#16C782" stroke-width="0.912058"/>
<line x1="726.659" y1="128.163" x2="726.659" y2="158.394" stroke="#16C782" stroke-width="0.912058"/>
<line x1="790.678" y1="54.877" x2="790.678" y2="85.1075" stroke="#16C782" stroke-width="0.912058"/>
<line x1="656.051" y1="209.694" x2="656.051" y2="260.994" stroke="#16C782" stroke-width="0.912058"/>
<line x1="720.069" y1="118.086" x2="720.069" y2="169.387" stroke="#16C782" stroke-width="0.912058"/>
<line x1="784.088" y1="44.8003" x2="784.088" y2="96.1005" stroke="#16C782" stroke-width="0.912058"/>
<line x1="649.461" y1="258.246" x2="649.461" y2="273.819" stroke="#16C782" stroke-width="0.912058"/>
<line x1="713.479" y1="166.638" x2="713.479" y2="182.211" stroke="#16C782" stroke-width="0.912058"/>
<line x1="777.498" y1="93.3525" x2="777.498" y2="108.926" stroke="#16C782" stroke-width="0.912058"/>
<line x1="642.871" y1="266.491" x2="642.871" y2="278.4" stroke="#16C782" stroke-width="0.912058"/>
<line x1="706.889" y1="174.883" x2="706.889" y2="186.792" stroke="#16C782" stroke-width="0.912058"/>
<line x1="770.907" y1="101.597" x2="770.907" y2="113.506" stroke="#16C782" stroke-width="0.912058"/>
<line x1="636.281" y1="274.735" x2="636.281" y2="292.141" stroke="#16C782" stroke-width="0.912058"/>
<line x1="700.299" y1="183.128" x2="700.299" y2="200.533" stroke="#16C782" stroke-width="0.912058"/>
<line x1="764.317" y1="109.842" x2="764.317" y2="127.247" stroke="#16C782" stroke-width="0.912058"/>
<line x1="629.691" y1="284.812" x2="629.691" y2="294.889" stroke="#16C782" stroke-width="0.912058"/>
<line x1="693.709" y1="193.205" x2="693.709" y2="203.281" stroke="#16C782" stroke-width="0.912058"/>
<line x1="757.727" y1="119.918" x2="757.727" y2="129.995" stroke="#16C782" stroke-width="0.912058"/>
<line x1="623.1" y1="282.064" x2="623.1" y2="315.043" stroke="#EA3943" stroke-width="0.912058"/>
<line x1="616.51" y1="299.469" x2="616.51" y2="316.875" stroke="#16C782" stroke-width="0.912058"/>
<line x1="609.92" y1="292.141" x2="609.92" y2="306.798" stroke="#16C782" stroke-width="0.912058"/>
<line x1="603.33" y1="286.645" x2="603.33" y2="300.386" stroke="#16C782" stroke-width="0.912058"/>
<line x1="596.74" y1="291.225" x2="596.74" y2="299.469" stroke="#EA3943" stroke-width="0.912058"/>
<line x1="590.15" y1="288.477" x2="590.15" y2="301.302" stroke="#EA3943" stroke-width="0.912058"/>
<line x1="583.56" y1="279.316" x2="583.56" y2="300.386" stroke="#EA3943" stroke-width="0.912058"/>
<line x1="577.911" y1="280.232" x2="577.911" y2="295.805" stroke="#EA3943" stroke-width="0.912058"/>
<line x1="571.321" y1="278.4" x2="571.321" y2="290.309" stroke="#16C782" stroke-width="0.912058"/>
<line x1="564.731" y1="265.575" x2="564.731" y2="285.728" stroke="#16C782" stroke-width="0.912058"/>
<line x1="558.141" y1="265.575" x2="558.141" y2="279.316" stroke="#16C782" stroke-width="0.912058"/>
<line x1="551.551" y1="269.239" x2="551.551" y2="282.064" stroke="#16C782" stroke-width="0.912058"/>
<line x1="544.961" y1="271.071" x2="544.961" y2="289.393" stroke="#EA3943" stroke-width="0.912058"/>
<line x1="538.37" y1="271.987" x2="538.37" y2="290.309" stroke="#EA3943" stroke-width="0.912058"/>
<line x1="531.78" y1="261.91" x2="531.78" y2="274.735" stroke="#EA3943" stroke-width="0.912058"/>
<line x1="525.19" y1="260.994" x2="525.19" y2="277.484" stroke="#16C782" stroke-width="0.912058"/>
<line x1="518.6" y1="260.078" x2="518.6" y2="281.148" stroke="#16C782" stroke-width="0.912058"/>
<line x1="512.01" y1="253.666" x2="512.01" y2="269.239" stroke="#16C782" stroke-width="0.912058"/>
<line x1="505.42" y1="262.826" x2="505.42" y2="279.316" stroke="#16C782" stroke-width="0.912058"/>
<line x1="498.83" y1="271.987" x2="498.83" y2="284.812" stroke="#16C782" stroke-width="0.912058"/>
<line x1="492.24" y1="261.91" x2="492.24" y2="284.812" stroke="#EA3943" stroke-width="0.912058"/>
<line x1="486.591" y1="251.833" x2="486.591" y2="271.987" stroke="#EA3943" stroke-width="0.912058"/>
<line x1="480.001" y1="247.253" x2="480.001" y2="270.155" stroke="#EA3943" stroke-width="0.912058"/>
<line x1="473.41" y1="259.162" x2="473.41" y2="273.819" stroke="#16C782" stroke-width="0.912058"/>
<line x1="466.821" y1="264.659" x2="466.821" y2="291.225" stroke="#16C782" stroke-width="0.912058"/>
<line x1="460.23" y1="283.896" x2="460.23" y2="309.546" stroke="#16C782" stroke-width="0.912058"/>
<line x1="453.64" y1="257.33" x2="453.64" y2="298.553" stroke="#16C782" stroke-width="0.912058"/>
<line x1="447.05" y1="260.078" x2="447.05" y2="288.476" stroke="#EA3943" stroke-width="0.912058"/>
<line x1="440.46" y1="262.826" x2="440.46" y2="294.889" stroke="#EA3943" stroke-width="0.912058"/>
<rect x="1.29047" y="11.8218" width="4.70723" height="14.6572" fill="#16C782"/>
<rect x="7.88062" y="25.5625" width="4.70723" height="36.643" fill="#16C782"/>
<rect x="14.4707" y="61.2896" width="4.70723" height="6.41253" fill="#16C782"/>
<rect x="21.0608" y="58.5415" width="4.70723" height="9.16076" fill="#16C782"/>
<rect x="27.651" y="58.5415" width="4.70723" height="26.5662" fill="#EA3943"/>
<rect x="34.241" y="84.1914" width="4.70723" height="21.0697" fill="#EA3943"/>
<rect x="40.8312" y="104.345" width="4.70723" height="5.49646" fill="#EA3943"/>
<rect x="46.4799" y="108.926" width="4.70723" height="10.9929" fill="#16C782"/>
<rect x="53.0699" y="119.002" width="4.70723" height="10.9929" fill="#16C782"/>
<rect x="59.6601" y="81.4434" width="4.70723" height="48.552" fill="#16C782"/>
<rect x="66.2502" y="72.2827" width="4.70723" height="10.9929" fill="#EA3943"/>
<rect x="72.8403" y="72.2827" width="4.70723" height="2.74823" fill="#EA3943"/>
<rect x="79.4304" y="74.1147" width="4.70723" height="12.8251" fill="#EA3943"/>
<rect x="86.0206" y="46.6323" width="4.70723" height="40.3073" fill="#EA3943"/>
<rect x="118.971" y="49.3809" width="4.70723" height="41.2234" fill="#EA3943"/>
<rect x="125.561" y="49.3809" width="4.70723" height="10.9929" fill="#EA3943"/>
<rect x="132.151" y="50.2969" width="4.70723" height="10.0768" fill="#EA3943"/>
<rect x="137.8" y="35.6396" width="4.70723" height="15.5733" fill="#16C782"/>
<rect x="144.39" y="35.6396" width="4.70723" height="7.32861" fill="#16C782"/>
<rect x="150.98" y="41.1362" width="4.70723" height="24.734" fill="#16C782"/>
<rect x="157.57" y="56.7095" width="4.70723" height="9.16076" fill="#16C782"/>
<rect x="164.161" y="56.7095" width="4.70723" height="70.5378" fill="#EA3943"/>
<rect x="170.751" y="123.583" width="4.70723" height="3.6643" fill="#EA3943"/>
<rect x="177.341" y="121.751" width="4.70723" height="2.74823" fill="#EA3943"/>
<rect x="183.931" y="121.751" width="4.70723" height="31.1466" fill="#16C782"/>
<rect x="190.521" y="151.065" width="4.70723" height="3.6643" fill="#16C782"/>
<rect x="197.111" y="153.813" width="4.70723" height="28.3984" fill="#16C782"/>
<rect x="0.349014" y="406.65" width="5.64867" height="10.0768" fill="#16C782"/>
<rect x="6.93917" y="376.42" width="5.64867" height="40.3073" fill="#16C782"/>
<rect x="13.5292" y="395.657" width="5.64867" height="21.0697" fill="#16C782"/>
<rect x="20.1194" y="402.07" width="5.64867" height="14.6572" fill="#16C782"/>
<rect x="26.7095" y="390.161" width="5.64867" height="26.5662" fill="#16C782"/>
<rect x="33.2996" y="391.993" width="5.64867" height="24.734" fill="#16C782"/>
<rect x="39.8897" y="380.084" width="4.70723" height="36.643" fill="#EA3943"/>
<rect x="52.1285" y="402.986" width="5.64867" height="13.7411" fill="#EA3943"/>
<rect x="45.5384" y="404.818" width="5.64867" height="11.909" fill="#EA3943"/>
<rect x="58.7186" y="397.49" width="5.64867" height="19.2376" fill="#EA3943"/>
<rect x="65.3088" y="402.986" width="5.64867" height="13.7411" fill="#EA3943"/>
<rect x="71.8988" y="402.07" width="5.64867" height="14.6572" fill="#EA3943"/>
<rect x="78.489" y="402.986" width="5.64867" height="13.7411" fill="#16C782"/>
<rect x="85.0791" y="401.154" width="5.64867" height="15.5733" fill="#16C782"/>
<rect x="91.6693" y="408.482" width="5.64867" height="8.24468" fill="#16C782"/>
<rect x="98.2593" y="410.314" width="5.64867" height="6.41253" fill="#16C782"/>
<rect x="104.849" y="404.818" width="5.64867" height="11.909" fill="#16C782"/>
<rect x="111.44" y="398.406" width="5.64867" height="18.3215" fill="#EA3943"/>
<rect x="118.03" y="398.406" width="5.64867" height="18.3215" fill="#EA3943"/>
<rect x="124.62" y="400.238" width="5.64867" height="16.4894" fill="#16C782"/>
<rect x="131.21" y="402.986" width="4.70723" height="13.7411" fill="#16C782"/>
<rect x="136.859" y="406.65" width="5.64867" height="10.0768" fill="#16C782"/>
<rect x="143.449" y="407.566" width="5.64867" height="9.16076" fill="#16C782"/>
<rect x="150.039" y="395.657" width="5.64867" height="21.0697" fill="#16C782"/>
<rect x="156.629" y="402.986" width="5.64867" height="13.7411" fill="#16C782"/>
<rect x="163.219" y="396.573" width="5.64867" height="20.1537" fill="#16C782"/>
<rect x="169.809" y="387.413" width="5.64867" height="29.3144" fill="#EA3943"/>
<rect x="176.399" y="402.986" width="5.64867" height="13.7411" fill="#EA3943"/>
<rect x="182.989" y="404.818" width="5.64867" height="11.909" fill="#EA3943"/>
<rect x="189.58" y="398.406" width="5.64867" height="18.3215" fill="#16C782"/>
<rect x="196.17" y="378.252" width="5.64867" height="38.4752" fill="#16C782"/>
<rect x="202.76" y="396.573" width="5.64867" height="20.1537" fill="#16C782"/>
<rect x="209.35" y="315.959" width="5.64867" height="100.768" fill="#16C782"/>
<rect x="215.94" y="370.007" width="5.64867" height="46.7199" fill="#EA3943"/>
<rect x="222.53" y="375.504" width="4.70723" height="41.2234" fill="#EA3943"/>
<rect x="228.179" y="398.406" width="5.64867" height="18.3215" fill="#EA3943"/>
<rect x="234.769" y="386.497" width="5.64867" height="30.2305" fill="#EA3943"/>
<rect x="241.359" y="384.665" width="5.64867" height="32.0627" fill="#EA3943"/>
<rect x="247.949" y="398.406" width="5.64867" height="18.3215" fill="#16C782"/>
<rect x="254.539" y="402.986" width="5.64867" height="13.7411" fill="#16C782"/>
<rect x="261.129" y="402.986" width="5.64867" height="13.7411" fill="#16C782"/>
<rect x="267.72" y="396.573" width="5.64867" height="20.1537" fill="#16C782"/>
<rect x="274.31" y="402.07" width="5.64867" height="14.6572" fill="#EA3943"/>
<rect x="280.9" y="406.65" width="5.64867" height="10.0768" fill="#EA3943"/>
<rect x="287.49" y="402.07" width="5.64867" height="14.6572" fill="#16C782"/>
<rect x="294.08" y="402.07" width="5.64867" height="14.6572" fill="#16C782"/>
<rect x="300.67" y="402.986" width="5.64867" height="13.7411" fill="#16C782"/>
<rect x="307.26" y="402.986" width="4.70723" height="13.7411" fill="#EA3943"/>
<rect x="312.909" y="397.49" width="5.64867" height="19.2376" fill="#EA3943"/>
<rect x="319.499" y="402.986" width="5.64867" height="13.7411" fill="#EA3943"/>
<rect x="326.089" y="407.566" width="5.64867" height="9.16076" fill="#16C782"/>
<rect x="332.679" y="400.238" width="5.64867" height="16.4894" fill="#16C782"/>
<rect x="339.269" y="387.413" width="5.64867" height="29.3144" fill="#16C782"/>
<rect x="345.859" y="389.245" width="5.64867" height="27.4823" fill="#16C782"/>
<rect x="352.45" y="398.406" width="5.64867" height="18.3215" fill="#16C782"/>
<rect x="359.04" y="403.902" width="5.64867" height="12.8251" fill="#EA3943"/>
<rect x="365.63" y="403.902" width="5.64867" height="12.8251" fill="#EA3943"/>
<rect x="372.22" y="404.818" width="5.64867" height="11.909" fill="#EA3943"/>
<rect x="378.81" y="396.573" width="5.64867" height="20.1537" fill="#16C782"/>
<rect x="385.4" y="402.986" width="5.64867" height="13.7411" fill="#16C782"/>
<rect x="391.99" y="402.986" width="5.64867" height="13.7411" fill="#16C782"/>
<rect x="398.58" y="404.818" width="4.70723" height="11.909" fill="#16C782"/>
<rect x="404.229" y="402.986" width="5.64867" height="13.7411" fill="#16C782"/>
<rect x="410.819" y="405.734" width="5.64867" height="10.9929" fill="#16C782"/>
<rect x="417.409" y="403.902" width="5.64867" height="12.8251" fill="#16C782"/>
<rect x="424" y="389.245" width="5.64867" height="27.4823" fill="#16C782"/>
<rect x="430.59" y="385.581" width="5.64867" height="31.1466" fill="#EA3943"/>
<rect x="437.18" y="397.49" width="5.64867" height="19.2376" fill="#EA3943"/>
<rect x="443.77" y="401.154" width="5.64867" height="15.5733" fill="#EA3943"/>
<rect x="450.36" y="400.238" width="5.64867" height="16.4894" fill="#16C782"/>
<rect x="456.95" y="405.734" width="5.64867" height="10.9929" fill="#16C782"/>
<rect x="463.54" y="405.734" width="5.64867" height="10.9929" fill="#16C782"/>
<rect x="470.13" y="405.734" width="5.64867" height="10.9929" fill="#16C782"/>
<rect x="476.72" y="405.734" width="5.64867" height="10.9929" fill="#EA3943"/>
<rect x="483.31" y="405.734" width="4.70723" height="10.9929" fill="#EA3943"/>
<rect x="488.959" y="405.734" width="5.64867" height="10.9929" fill="#EA3943"/>
<rect x="495.549" y="409.398" width="5.64867" height="7.32861" fill="#16C782"/>
<rect x="515.32" y="408.482" width="5.64867" height="8.24468" fill="#16C782"/>
<rect x="521.91" y="408.482" width="5.64867" height="8.24468" fill="#16C782"/>
<rect x="535.09" y="406.65" width="5.64867" height="10.0768" fill="#EA3943"/>
<rect x="541.68" y="410.314" width="5.64867" height="6.41253" fill="#EA3943"/>
<rect x="554.86" y="410.314" width="5.64867" height="6.41253" fill="#16C782"/>
<rect x="561.45" y="410.314" width="5.64867" height="6.41253" fill="#16C782"/>
<rect x="568.041" y="410.314" width="5.64867" height="6.41253" fill="#16C782"/>
<rect x="574.631" y="407.566" width="4.70723" height="9.16076" fill="#EA3943"/>
<rect x="580.279" y="408.482" width="5.64867" height="8.24468" fill="#EA3943"/>
<rect x="586.87" y="410.314" width="5.64867" height="6.41253" fill="#EA3943"/>
<rect x="606.64" y="408.482" width="5.64867" height="8.24468" fill="#16C782"/>
<rect x="613.23" y="404.818" width="5.64867" height="11.909" fill="#16C782"/>
<rect x="619.82" y="401.154" width="5.64867" height="15.5733" fill="#EA3943"/>
<rect x="626.41" y="408.482" width="5.64867" height="8.24468" fill="#16C782"/>
<rect x="690.428" y="408.482" width="5.64867" height="8.24468" fill="#16C782"/>
<rect x="754.447" y="408.482" width="5.64867" height="8.24468" fill="#16C782"/>
<rect x="633" y="409.398" width="5.64867" height="7.32861" fill="#16C782"/>
<rect x="697.019" y="409.398" width="5.64867" height="7.32861" fill="#16C782"/>
<rect x="761.037" y="409.398" width="5.64867" height="7.32861" fill="#16C782"/>
<rect x="646.181" y="409.398" width="5.64867" height="7.32861" fill="#16C782"/>
<rect x="710.199" y="409.398" width="5.64867" height="7.32861" fill="#16C782"/>
<rect x="774.217" y="409.398" width="5.64867" height="7.32861" fill="#16C782"/>
<rect x="652.771" y="388.329" width="5.64867" height="28.3984" fill="#16C782"/>
<rect x="716.789" y="388.329" width="5.64867" height="28.3984" fill="#16C782"/>
<rect x="780.807" y="388.329" width="5.64867" height="28.3984" fill="#16C782"/>
<rect x="659.361" y="397.49" width="4.70723" height="19.2376" fill="#16C782"/>
<rect x="723.379" y="397.49" width="4.70723" height="19.2376" fill="#16C782"/>
<rect x="787.397" y="397.49" width="4.70723" height="19.2376" fill="#16C782"/>
<rect x="665.01" y="403.902" width="5.64867" height="12.8251" fill="#EA3943"/>
<rect x="729.028" y="403.902" width="5.64867" height="12.8251" fill="#EA3943"/>
<rect x="793.046" y="403.902" width="5.64867" height="12.8251" fill="#EA3943"/>
<rect x="671.6" y="408.482" width="5.64867" height="8.24468" fill="#EA3943"/>
<rect x="735.618" y="408.482" width="5.64867" height="8.24468" fill="#EA3943"/>
<rect x="799.636" y="408.482" width="5.64867" height="8.24468" fill="#EA3943"/>
<rect x="678.19" y="404.818" width="5.64867" height="11.909" fill="#EA3943"/>
<rect x="742.208" y="404.818" width="5.64867" height="11.909" fill="#EA3943"/>
<rect x="806.226" y="404.818" width="5.64867" height="11.909" fill="#EA3943"/>
<rect x="203.701" y="181.295" width="4.70723" height="7.32861" fill="#16C782"/>
<rect x="210.291" y="187.708" width="4.70723" height="58.6289" fill="#16C782"/>
<rect x="216.881" y="208.778" width="4.70723" height="37.5591" fill="#EA3943"/>
<rect x="223.472" y="209.694" width="4.70723" height="31.1466" fill="#EA3943"/>
<rect x="229.12" y="236.26" width="4.70723" height="5.49646" fill="#EA3943"/>
<rect x="235.71" y="239.008" width="4.70723" height="27.4823" fill="#EA3943"/>
<rect x="242.3" y="226.184" width="4.70723" height="39.3913" fill="#EA3943"/>
<rect x="248.891" y="226.184" width="4.70723" height="7.32861" fill="#16C782"/>
<rect x="262.071" y="221.603" width="4.70723" height="8.24468" fill="#16C782"/>
<rect x="255.481" y="221.603" width="4.70723" height="10.0768" fill="#16C782"/>
<rect x="268.661" y="228.932" width="4.70723" height="27.4823" fill="#16C782"/>
<rect x="275.251" y="255.498" width="4.70723" height="10.9929" fill="#EA3943"/>
<rect x="281.841" y="256.414" width="4.70723" height="10.0768" fill="#EA3943"/>
<rect x="288.431" y="239.924" width="4.70723" height="17.4054" fill="#16C782"/>
<rect x="295.021" y="240.84" width="4.70723" height="6.41253" fill="#16C782"/>
<rect x="301.612" y="238.092" width="4.70723" height="9.16076" fill="#16C782"/>
<rect x="308.202" y="222.519" width="4.70723" height="16.4894" fill="#EA3943"/>
<rect x="313.85" y="222.519" width="4.70723" height="22.9019" fill="#EA3943"/>
<rect x="320.44" y="244.505" width="4.70723" height="13.7411" fill="#EA3943"/>
<rect x="327.031" y="254.582" width="4.70723" height="3.6643" fill="#16C782"/>
<rect x="333.621" y="254.582" width="4.70723" height="21.9858" fill="#16C782"/>
<rect x="340.211" y="275.651" width="4.70723" height="2.74823" fill="#16C782"/>
<rect x="346.801" y="239.924" width="4.70723" height="38.4752" fill="#16C782"/>
<rect x="353.391" y="239.924" width="4.70723" height="7.32861" fill="#16C782"/>
<rect x="359.981" y="239.924" width="4.70723" height="7.32861" fill="#EA3943"/>
<rect x="366.571" y="239.924" width="4.70723" height="18.3215" fill="#EA3943"/>
<rect x="373.161" y="224.351" width="4.70723" height="33.8948" fill="#EA3943"/>
<rect x="379.752" y="209.694" width="4.70723" height="15.5733" fill="#16C782"/>
<rect x="386.342" y="209.694" width="4.70723" height="4.58038" fill="#16C782"/>
<rect x="392.932" y="213.358" width="4.70723" height="18.3215" fill="#16C782"/>
<rect x="399.522" y="230.764" width="4.70723" height="3.6643" fill="#16C782"/>
<rect x="405.171" y="232.596" width="4.70723" height="22.9019" fill="#16C782"/>
<rect x="411.761" y="254.582" width="4.70723" height="3.6643" fill="#16C782"/>
<rect x="418.351" y="256.414" width="4.70723" height="1.83215" fill="#16C782"/>
<rect x="424.941" y="256.414" width="4.70723" height="38.4752" fill="#16C782"/>
<rect x="431.531" y="285.729" width="4.70723" height="9.16076" fill="#EA3943"/>
<rect x="92.6107" y="45.7163" width="4.70723" height="1.83215" fill="#16C782"/>
<rect x="99.2008" y="45.7163" width="4.70723" height="12.8251" fill="#16C782"/>
<rect x="105.791" y="52.1289" width="4.70723" height="6.41253" fill="#16C782"/>
<rect x="112.381" y="52.1289" width="4.70723" height="38.4752" fill="#16C782"/>
<rect x="685.721" y="194.121" width="4.70723" height="6.41253" fill="#EA3943"/>
<rect x="749.74" y="120.834" width="4.70723" height="6.41253" fill="#EA3943"/>
<rect x="813.758" y="29.2271" width="4.70723" height="6.41253" fill="#EA3943"/>
<rect x="679.131" y="194.121" width="4.70723" height="21.0697" fill="#EA3943"/>
<rect x="743.149" y="120.834" width="4.70723" height="21.0697" fill="#EA3943"/>
<rect x="807.168" y="29.2271" width="4.70723" height="21.0697" fill="#EA3943"/>
<rect x="672.541" y="214.274" width="4.70723" height="1.83215" fill="#EA3943"/>
<rect x="736.559" y="140.988" width="4.70723" height="1.83215" fill="#EA3943"/>
<rect x="800.578" y="49.3809" width="4.70723" height="1.83215" fill="#EA3943"/>
<rect x="665.951" y="214.274" width="4.70723" height="7.32861" fill="#EA3943"/>
<rect x="729.969" y="140.988" width="4.70723" height="7.32861" fill="#EA3943"/>
<rect x="793.987" y="49.3809" width="4.70723" height="7.32861" fill="#EA3943"/>
<rect x="660.302" y="219.771" width="4.70723" height="21.9858" fill="#16C782"/>
<rect x="724.32" y="128.163" width="4.70723" height="21.9858" fill="#16C782"/>
<rect x="788.339" y="54.877" width="4.70723" height="21.9858" fill="#16C782"/>
<rect x="653.712" y="240.84" width="4.70723" height="18.3215" fill="#16C782"/>
<rect x="717.73" y="149.233" width="4.70723" height="18.3215" fill="#16C782"/>
<rect x="781.749" y="75.9468" width="4.70723" height="18.3215" fill="#16C782"/>
<rect x="647.122" y="258.246" width="4.70723" height="11.909" fill="#16C782"/>
<rect x="711.14" y="166.638" width="4.70723" height="11.909" fill="#16C782"/>
<rect x="775.159" y="93.3525" width="4.70723" height="11.909" fill="#16C782"/>
<rect x="640.532" y="269.239" width="4.70723" height="6.41253" fill="#16C782"/>
<rect x="704.55" y="177.631" width="4.70723" height="6.41253" fill="#16C782"/>
<rect x="768.568" y="104.345" width="4.70723" height="6.41253" fill="#16C782"/>
<rect x="633.942" y="274.735" width="4.70723" height="13.7411" fill="#16C782"/>
<rect x="697.96" y="183.128" width="4.70723" height="13.7411" fill="#16C782"/>
<rect x="761.979" y="109.842" width="4.70723" height="13.7411" fill="#16C782"/>
<rect x="627.352" y="287.561" width="4.70723" height="2.74823" fill="#16C782"/>
<rect x="691.37" y="195.953" width="4.70723" height="2.74823" fill="#16C782"/>
<rect x="755.388" y="122.667" width="4.70723" height="2.74823" fill="#16C782"/>
<rect x="620.762" y="289.393" width="4.70723" height="22.9019" fill="#EA3943"/>
<rect x="614.171" y="302.218" width="4.70723" height="10.0768" fill="#16C782"/>
<rect x="607.581" y="293.057" width="4.70723" height="10.0768" fill="#16C782"/>
<rect x="600.991" y="293.057" width="4.70723" height="3.6643" fill="#16C782"/>
<rect x="594.401" y="294.889" width="4.70723" height="2.74823" fill="#16C782"/>
<rect x="587.811" y="292.141" width="4.70723" height="5.49646" fill="#EA3943"/>
<rect x="581.221" y="282.98" width="4.70723" height="10.0768" fill="#EA3943"/>
<rect x="575.572" y="282.98" width="4.70723" height="1.83215" fill="#EA3943"/>
<rect x="568.982" y="280.232" width="4.70723" height="4.58038" fill="#16C782"/>
<rect x="562.392" y="269.239" width="4.70723" height="11.909" fill="#16C782"/>
<rect x="555.802" y="269.239" width="4.70723" height="8.24468" fill="#16C782"/>
<rect x="549.212" y="273.819" width="4.70723" height="3.6643" fill="#16C782"/>
<rect x="542.622" y="273.819" width="4.70723" height="9.16076" fill="#EA3943"/>
<rect x="536.031" y="272.903" width="4.70723" height="10.0768" fill="#EA3943"/>
<rect x="529.441" y="269.239" width="4.70723" height="4.58038" fill="#EA3943"/>
<rect x="522.851" y="269.239" width="4.70723" height="6.41253" fill="#16C782"/>
<rect x="516.261" y="260.078" width="4.70723" height="15.5733" fill="#16C782"/>
<rect x="509.671" y="260.078" width="4.70723" height="6.41253" fill="#16C782"/>
<rect x="503.081" y="265.575" width="4.70723" height="9.16076" fill="#16C782"/>
<rect x="496.491" y="273.819" width="4.70723" height="3.6643" fill="#16C782"/>
<rect x="489.901" y="261.91" width="4.70723" height="14.6572" fill="#EA3943"/>
<rect x="484.252" y="253.666" width="4.70723" height="9.16076" fill="#EA3943"/>
<rect x="477.662" y="253.666" width="4.70723" height="14.6572" fill="#EA3943"/>
<rect x="471.072" y="264.659" width="4.70723" height="3.6643" fill="#16C782"/>
<rect x="464.482" y="265.575" width="4.70723" height="22.9019" fill="#16C782"/>
<rect x="457.891" y="288.477" width="4.70723" height="7.32861" fill="#16C782"/>
<rect x="451.301" y="265.575" width="4.70723" height="30.2305" fill="#16C782"/>
<rect x="444.711" y="265.575" width="4.70723" height="10.0768" fill="#EA3943"/>
<rect x="438.121" y="274.735" width="4.70723" height="11.909" fill="#EA3943"/>
</svg>
