<svg width="37" height="37" viewBox="0 0 37 37" fill="none" xmlns="http://www.w3.org/2000/svg">
<rect x="1.99512" y="19.1152" width="9.34811" height="17.258" rx="2.87634" fill="#FFB1F3"/>
<rect x="14.2195" y="11.2051" width="10.0672" height="25.168" rx="2.87634" fill="#FB5BE1"/>
<rect x="27.1631" y="1.85693" width="9.34811" height="34.5161" rx="2.87634" fill="#FFB1F3"/>
<circle cx="7.02865" cy="6.89071" r="6.47177" fill="#434343"/>
<path fill-rule="evenodd" clip-rule="evenodd" d="M6.11594 4.21251L9.40296 5.03449C9.60466 5.08493 9.72183 5.28787 9.66466 5.48778L8.73301 8.7454C8.67584 8.94531 8.46597 9.06647 8.26427 9.01603C8.06256 8.96559 7.94539 8.76264 8.00256 8.56274L8.6843 6.17896L4.94375 8.33857C4.76673 8.44077 4.54038 8.38012 4.43817 8.2031C4.33597 8.02608 4.39662 7.79972 4.57364 7.69752L8.31419 5.53791L5.90891 4.93643C5.7072 4.88599 5.59003 4.68304 5.6472 4.48314C5.70437 4.28323 5.91423 4.16207 6.11594 4.21251Z" fill="white"/>
</svg>
