<svg width="111" height="33" viewBox="0 0 111 33" fill="none" xmlns="http://www.w3.org/2000/svg">
<g clip-path="url(#clip0_37_11833)">
<path d="M7.33464 32.3781L0.707031 0.423828H5.40159L10.3263 26.1153L21.5564 0.423828H26.7112L11.8911 32.3781H7.33464Z" fill="#B7B7B6"/>
<path d="M33.1759 8.12669L26.4102 23.0524H35.6382L33.1759 8.12669ZM24.5232 27.2124L22.1759 32.3781H17.5273L32.1863 0.423828H36.0985L41.6675 32.3781H37.2031L36.3286 27.2124H24.5232Z" fill="#B7B7B6"/>
<path d="M57.869 28.1267V32.3781H44.4297V0.423828H48.9862V28.1267H57.869Z" fill="#B7B7B6"/>
<path d="M75.6368 8.12669L68.8711 23.0524H78.0992L75.6368 8.12669ZM66.9841 27.2124L64.6368 32.3781H59.9883L74.6473 0.423828H78.5594L84.1284 32.3781H79.664L78.7895 27.2124H66.9841Z" fill="#B7B7B6"/>
<path d="M96.5329 15.3953C101.227 15.3953 102.976 13.0181 102.976 10.001C102.976 6.98383 101.227 4.6524 96.5329 4.6524H91.4471V15.3724L96.5329 15.3953ZM94.2316 19.6467H91.4471V32.3781H86.8906V0.423828H97.2693C103.989 0.423828 107.556 4.8124 107.556 10.001C107.556 14.6181 104.748 18.6181 99.4094 19.441L110.478 32.3553H104.955L94.2316 19.6467Z" fill="#B7B7B6"/>
</g>
<defs>
<clipPath id="clip0_37_11833">
<rect width="110" height="32" fill="white" transform="translate(0.5 0.400391)"/>
</clipPath>
</defs>
</svg>
