<svg width="20" height="21" viewBox="0 0 20 21" fill="none" xmlns="http://www.w3.org/2000/svg">
<path d="M1.66659 5.04065L2.73325 4.00813L16.6666 17.6016L15.6083 18.6423L13.0416 16.1382C12.0833 16.4472 11.0666 16.6098 9.99992 16.6098C5.83325 16.6098 2.27492 14.0813 0.833252 10.5122C1.40825 9.0813 2.32492 7.82114 3.49159 6.82114L1.66659 5.04065ZM9.99992 8.07317C10.663 8.07317 11.2988 8.33014 11.7677 8.78754C12.2365 9.24495 12.4999 9.86532 12.4999 10.5122C12.5003 10.7891 12.4524 11.064 12.3583 11.3252L9.16658 8.21138C9.43431 8.1195 9.71611 8.07276 9.99992 8.07317ZM9.99992 4.41463C14.1666 4.41463 17.7249 6.94309 19.1666 10.5122C18.4865 12.1977 17.3307 13.6607 15.8333 14.7317L14.6499 13.5691C15.8023 12.7914 16.7318 11.7391 17.3499 10.5122C16.6762 9.17068 15.6303 8.04046 14.331 7.25C13.0317 6.45954 11.5311 6.04055 9.99992 6.04065C9.09158 6.04065 8.19992 6.18699 7.36658 6.44715L6.08325 5.20325C7.28325 4.69919 8.60825 4.41463 9.99992 4.41463ZM2.64992 10.5122C3.32362 11.8537 4.36956 12.9839 5.66886 13.7744C6.96816 14.5648 8.4687 14.9838 9.99992 14.9837C10.5749 14.9837 11.1416 14.9268 11.6666 14.813L9.76658 12.9512C9.18672 12.8906 8.64561 12.6381 8.23323 12.2358C7.82085 11.8335 7.56207 11.3056 7.49992 10.7398L4.66658 7.96748C3.84158 8.65854 3.14992 9.52032 2.64992 10.5122Z" fill="#5A7EC1"/>
</svg>
