<svg width="20" height="21" viewBox="0 0 20 21" fill="none" xmlns="http://www.w3.org/2000/svg">
<path d="M1.66659 5.01626L2.73325 3.98374L16.6666 17.5772L15.6083 18.6179L13.0416 16.1138C12.0833 16.4228 11.0666 16.5854 9.99992 16.5854C5.83325 16.5854 2.27492 14.0569 0.833252 10.4878C1.40825 9.05691 2.32492 7.79675 3.49159 6.79675L1.66659 5.01626ZM9.99992 8.04878C10.663 8.04878 11.2988 8.30575 11.7677 8.76316C12.2365 9.22056 12.4999 9.84094 12.4999 10.4878C12.5003 10.7647 12.4524 11.0396 12.3583 11.3008L9.16658 8.18699C9.43431 8.09511 9.71611 8.04837 9.99992 8.04878ZM9.99992 4.39025C14.1666 4.39025 17.7249 6.9187 19.1666 10.4878C18.4865 12.1733 17.3307 13.6364 15.8333 14.7073L14.6499 13.5447C15.8023 12.767 16.7318 11.7147 17.3499 10.4878C16.6762 9.14629 15.6303 8.01607 14.331 7.22562C13.0317 6.43516 11.5311 6.01616 9.99992 6.01626C9.09158 6.01626 8.19992 6.1626 7.36658 6.42277L6.08325 5.17886C7.28325 4.6748 8.60825 4.39025 9.99992 4.39025ZM2.64992 10.4878C3.32362 11.8293 4.36956 12.9595 5.66886 13.75C6.96816 14.5405 8.4687 14.9594 9.99992 14.9594C10.5749 14.9594 11.1416 14.9024 11.6666 14.7886L9.76658 12.9268C9.18672 12.8662 8.64561 12.6137 8.23323 12.2114C7.82085 11.8091 7.56207 11.2812 7.49992 10.7154L4.66658 7.94309C3.84158 8.63415 3.14992 9.49594 2.64992 10.4878Z" fill="#5A7EC1"/>
</svg>
