<svg width="20" height="20" viewBox="0 0 20 20" fill="none" xmlns="http://www.w3.org/2000/svg">
<path fill-rule="evenodd" clip-rule="evenodd" d="M18.1277 10.1473C18.1277 14.666 14.4648 18.3289 9.94617 18.3289C5.42752 18.3289 1.76465 14.666 1.76465 10.1473C1.76465 5.62869 5.42752 1.96582 9.94617 1.96582C14.4648 1.96582 18.1277 5.62869 18.1277 10.1473Z" fill="#F6921A"/>
<path fill-rule="evenodd" clip-rule="evenodd" d="M9.94624 4.625C10.109 4.625 10.2651 4.68965 10.3801 4.80472C10.4952 4.9198 10.5599 5.07587 10.5599 5.23861V5.49797C11.8934 5.73687 13.0143 6.73911 13.0143 8.10215C13.0143 8.26489 12.9497 8.42096 12.8346 8.53604C12.7195 8.65111 12.5634 8.71576 12.4007 8.71576C12.238 8.71576 12.0819 8.65111 11.9668 8.53604C11.8517 8.42096 11.7871 8.26489 11.7871 8.10215C11.7871 7.54744 11.3256 6.95919 10.5599 6.74974V9.58873C11.8934 9.82763 13.0143 10.8299 13.0143 12.1929C13.0143 13.556 11.8934 14.5582 10.5599 14.7971V15.0564C10.5599 15.2192 10.4952 15.3753 10.3801 15.4903C10.2651 15.6054 10.109 15.6701 9.94624 15.6701C9.7835 15.6701 9.62743 15.6054 9.51235 15.4903C9.39728 15.3753 9.33263 15.2192 9.33263 15.0564V14.7971C7.99904 14.5582 6.87817 13.556 6.87817 12.1929C6.87817 12.0302 6.94282 11.8741 7.0579 11.759C7.17297 11.6439 7.32905 11.5793 7.49179 11.5793C7.65453 11.5793 7.8106 11.6439 7.92568 11.759C8.04075 11.8741 8.1054 12.0302 8.1054 12.1929C8.1054 12.7476 8.56684 13.3359 9.33263 13.5445V10.7063C7.99904 10.4674 6.87817 9.46519 6.87817 8.10215C6.87817 6.73911 7.99904 5.73687 9.33263 5.49797V5.23861C9.33263 5.07587 9.39728 4.9198 9.51235 4.80472C9.62743 4.68965 9.7835 4.625 9.94624 4.625ZM9.33263 6.74974C8.56684 6.95919 8.1054 7.54744 8.1054 8.10215C8.1054 8.65685 8.56684 9.24511 9.33263 9.45374V6.74974ZM11.7871 12.1929C11.7871 11.6382 11.3256 11.0499 10.5599 10.8413V13.5445C11.3256 13.3359 11.7871 12.7476 11.7871 12.1929Z" fill="white"/>
</svg>
