<svg width="17" height="17" viewBox="0 0 17 17" fill="none" xmlns="http://www.w3.org/2000/svg">
<g clip-path="url(#clip0_37_11905)">
<path d="M8.90527 16.9702C13.3236 16.9702 16.9053 13.3885 16.9053 8.97021C16.9053 4.55194 13.3236 0.970215 8.90527 0.970215C4.487 0.970215 0.905273 4.55194 0.905273 8.97021C0.905273 13.3885 4.487 16.9702 8.90527 16.9702Z" fill="#DFE3FF"/>
<path d="M7.30272 10.9117L11.8187 6.18337C12.0901 5.89916 12.5303 5.89916 12.8017 6.18337C13.0732 6.46759 13.0732 6.92841 12.8017 7.21263L7.30272 12.9702L4.10886 9.62613C3.83741 9.34191 3.83741 8.8811 4.10886 8.59688C4.38031 8.31266 4.82042 8.31266 5.09188 8.59688L7.30272 10.9117Z" fill="#40196D"/>
</g>
<defs>
<clipPath id="clip0_37_11905">
<rect width="16" height="16" fill="white" transform="translate(0.905273 0.970215)"/>
</clipPath>
</defs>
</svg>
