<svg width="11" height="13" viewBox="0 0 11 13" fill="none" xmlns="http://www.w3.org/2000/svg">
<path fill-rule="evenodd" clip-rule="evenodd" d="M8.14969 1.59886C8.14969 1.23738 7.85665 0.944336 7.49517 0.944336C7.13369 0.944336 6.84065 1.23738 6.84065 1.59886V1.93675H4.22224V1.59886C4.22224 1.23738 3.9292 0.944336 3.56772 0.944336C3.20624 0.944336 2.9132 1.23738 2.9132 1.59886V1.93675H2.09504C1.18473 1.93675 0.45874 2.68074 0.45874 3.58365V5.56837V10.5303C0.45874 11.4333 1.18473 12.1773 2.09504 12.1773H8.96752C9.87784 12.1773 10.6038 11.4333 10.6038 10.5303V5.56837V3.58365C10.6038 2.68074 9.87784 1.93675 8.96752 1.93675H8.14969V1.59886ZM9.29479 4.91385V3.58365C9.29479 3.39041 9.14166 3.24579 8.96752 3.24579H8.14969V3.58363C8.14969 3.94511 7.85665 4.23815 7.49517 4.23815C7.13369 4.23815 6.84065 3.94511 6.84065 3.58363V3.24579H4.22224V3.58363C4.22224 3.94511 3.9292 4.23815 3.56772 4.23815C3.20624 4.23815 2.9132 3.94511 2.9132 3.58363V3.24579H2.09504C1.92091 3.24579 1.76778 3.39041 1.76778 3.58365V4.91385H9.29479ZM1.76778 6.2229H9.29479V10.5303C9.29479 10.7236 9.14166 10.8682 8.96752 10.8682H2.09504C1.92091 10.8682 1.76778 10.7236 1.76778 10.5303V6.2229Z" fill="white" fill-opacity="0.5"/>
</svg>
