<svg width="247" height="219" viewBox="0 0 247 219" fill="none" xmlns="http://www.w3.org/2000/svg">
<rect x="0.979248" y="0.530762" width="245.911" height="217.95" rx="14.3388" fill="url(#paint0_linear_34_1027)"/>
<path d="M230.347 182.549H212.776V182.682H230.347V182.549Z" fill="#EBEBEB"/>
<path d="M167.383 183.993H162.773V184.125H167.383V183.993Z" fill="#EBEBEB"/>
<path d="M212.245 177.626H202.064V177.759H212.245V177.626Z" fill="#EBEBEB"/>
<path d="M42.4048 178.518H19.491V178.65H42.4048V178.518Z" fill="#EBEBEB"/>
<path d="M50.4901 178.518H47.1318V178.65H50.4901V178.518Z" fill="#EBEBEB"/>
<path d="M111.11 180.756H61.4089V180.889H111.11V180.756Z" fill="#EBEBEB"/>
<path d="M117.396 150.352H14.955C14.1524 150.35 13.3833 150.03 12.8163 149.462C12.2493 148.894 11.9309 148.125 11.9309 147.322V3.31875C11.9379 2.52084 12.2594 1.7579 12.8256 1.19566C13.3918 0.633422 14.157 0.317285 14.955 0.315918H117.396C118.2 0.315918 118.97 0.635082 119.538 1.2032C120.106 1.77131 120.426 2.54184 120.426 3.34528V147.322C120.426 148.126 120.106 148.896 119.538 149.464C118.97 150.032 118.2 150.352 117.396 150.352ZM14.955 0.422026C14.1876 0.423431 13.4522 0.72924 12.9101 1.27233C12.368 1.81542 12.0635 2.55141 12.0635 3.31875V147.322C12.0635 148.09 12.368 148.826 12.9101 149.369C13.4522 149.912 14.1876 150.217 14.955 150.219H117.396C118.164 150.217 118.9 149.912 119.443 149.369C119.986 148.826 120.292 148.09 120.293 147.322V3.31875C120.292 2.55092 119.986 1.81494 119.443 1.27201C118.9 0.729068 118.164 0.423428 117.396 0.422026H14.955Z" fill="#EBEBEB"/>
<path d="M232.157 150.352H129.71C128.907 150.35 128.137 150.031 127.569 149.463C127.002 148.895 126.682 148.125 126.681 147.322V3.31875C126.689 2.52036 127.012 1.75743 127.579 1.19533C128.146 0.633236 128.912 0.31727 129.71 0.315918H232.157C232.954 0.318679 233.717 0.635433 234.282 1.19752C234.848 1.75962 235.168 2.52176 235.175 3.31875V147.322C235.175 148.124 234.858 148.893 234.292 149.461C233.726 150.028 232.958 150.349 232.157 150.352ZM129.71 0.422026C128.942 0.423428 128.206 0.729068 127.663 1.27201C127.12 1.81494 126.815 2.55092 126.813 3.31875V147.322C126.815 148.09 127.12 148.826 127.663 149.369C128.206 149.912 128.942 150.217 129.71 150.219H232.157C232.924 150.217 233.66 149.912 234.203 149.369C234.746 148.826 235.052 148.09 235.053 147.322V3.31875C235.052 2.55092 234.746 1.81494 234.203 1.27201C233.66 0.729068 232.924 0.423428 232.157 0.422026H129.71Z" fill="#EBEBEB"/>
<path d="M70.937 76.4424H67.3665V174.146H70.937V76.4424Z" fill="#F5F5F5"/>
<path d="M85.0544 88.8462H81.4839V174.146H85.0544V88.8462Z" fill="#F5F5F5"/>
<path d="M99.0395 101.25H95.469V174.146H99.0395V101.25Z" fill="#F5F5F5"/>
<path d="M113.03 92.979H109.459V174.146H113.03V92.979Z" fill="#F5F5F5"/>
<path d="M127.02 88.8462H123.449V174.146H127.02V88.8462Z" fill="#F5F5F5"/>
<path d="M141.005 80.5757H137.435V174.146H141.005V80.5757Z" fill="#F5F5F5"/>
<path d="M154.995 84.7134H151.425V174.146H154.995V84.7134Z" fill="#F5F5F5"/>
<path d="M168.986 80.5752H165.415V174.146H168.986V80.5752Z" fill="#F5F5F5"/>
<path d="M182.971 72.3047H179.4V174.141H182.971V72.3047Z" fill="#F5F5F5"/>
<path d="M196.961 64.0391H193.39V174.147H196.961V64.0391Z" fill="#F5F5F5"/>
<path d="M210.946 55.7671H207.375V174.146H210.946V55.7671Z" fill="#F5F5F5"/>
<path d="M97.2356 95.4406C97.0366 95.4327 96.8477 95.3514 96.705 95.2125L66.8146 66.0701C66.6634 65.9224 66.577 65.7206 66.5745 65.5092C66.572 65.2977 66.6536 65.094 66.8014 64.9427C66.9491 64.7915 67.1509 64.7051 67.3623 64.7026C67.5738 64.7001 67.7775 64.7817 67.9288 64.9295L97.3364 93.6049L138.755 63.3644C138.916 63.25 139.112 63.1987 139.308 63.2203C139.504 63.2418 139.685 63.3347 139.816 63.4811L153.377 78.8348L209.508 46.6737C209.599 46.6218 209.699 46.5883 209.803 46.5752C209.907 46.562 210.012 46.5694 210.113 46.597C210.214 46.6246 210.309 46.6718 210.391 46.736C210.474 46.8001 210.543 46.8799 210.595 46.9708C210.647 47.0617 210.681 47.162 210.694 47.2659C210.707 47.3697 210.699 47.4752 210.672 47.5762C210.644 47.6771 210.597 47.7717 210.533 47.8545C210.469 47.9372 210.389 48.0065 210.298 48.0584L153.605 80.5485C153.446 80.6384 153.26 80.6712 153.08 80.6413C152.899 80.6114 152.735 80.5206 152.613 80.384L139.105 65.1045L97.7237 95.2867C97.5823 95.3904 97.4108 95.4445 97.2356 95.4406Z" fill="#F0F0F0"/>
<path d="M93.8669 173.536L67.7805 70.6597L69.0856 65.5188H67.7274V36.1377H64.2259V65.5188H62.8677L64.1728 70.6597L38.0811 173.536H41.694L64.2259 84.6817V174.077H67.7274V84.6817L90.2593 173.536H93.8669Z" fill="#E0E0E0"/>
<path d="M85.6321 69.6378C88.1945 58.7814 81.4708 47.9032 70.6143 45.3409C59.7578 42.7785 48.8797 49.5022 46.3173 60.3587C43.7549 71.2152 50.4787 82.0933 61.3351 84.6557C72.1916 87.218 83.0698 80.4943 85.6321 69.6378Z" fill="#E6E6E6"/>
<path d="M65.9768 82.2461C75.4995 82.2461 83.2192 74.5264 83.2192 65.0037C83.2192 55.4809 75.4995 47.7612 65.9768 47.7612C56.4541 47.7612 48.7344 55.4809 48.7344 65.0037C48.7344 74.5264 56.4541 82.2461 65.9768 82.2461Z" fill="#F5F5F5"/>
<path d="M65.9768 78.5015C73.4309 78.5015 79.4737 72.4587 79.4737 65.0046C79.4737 57.5505 73.4309 51.5078 65.9768 51.5078C58.5227 51.5078 52.48 57.5505 52.48 65.0046C52.48 72.4587 58.5227 78.5015 65.9768 78.5015Z" fill="#E6E6E6"/>
<path d="M70.2125 75.2213C75.8567 72.8834 78.5369 66.4127 76.199 60.7686C73.8612 55.1244 67.3904 52.4441 61.7463 54.782C56.1021 57.1199 53.4218 63.5906 55.7597 69.2348C58.0976 74.879 64.5683 77.5592 70.2125 75.2213Z" fill="#F5F5F5"/>
<path d="M73.4463 66.7614C74.4203 62.6349 71.8646 58.5003 67.7382 57.5264C63.6118 56.5524 59.4771 59.108 58.5032 63.2345C57.5293 67.3609 60.0849 71.4956 64.2113 72.4695C68.3377 73.4434 72.4724 70.8878 73.4463 66.7614Z" fill="#E6E6E6"/>
<path d="M68.0887 70.0954C70.9013 68.9304 72.2369 65.7059 71.0719 62.8933C69.9069 60.0807 66.6824 58.7451 63.8698 59.9101C61.0572 61.0751 59.7215 64.2996 60.8866 67.1122C62.0516 69.9248 65.2761 71.2605 68.0887 70.0954Z" fill="#F5F5F5"/>
<path d="M68.4755 65.0041C68.4755 65.4996 68.3285 65.984 68.0532 66.3959C67.7778 66.8078 67.3864 67.1288 66.9285 67.3181C66.4706 67.5075 65.9668 67.5568 65.4809 67.4598C64.995 67.3627 64.5488 67.1237 64.1988 66.7729C63.8489 66.4222 63.6108 65.9755 63.5148 65.4894C63.4187 65.0033 63.4691 64.4996 63.6594 64.0422C63.8498 63.5847 64.1716 63.194 64.5841 62.9194C64.9966 62.6449 65.4812 62.499 65.9767 62.5C66.3053 62.5 66.6307 62.5648 66.9342 62.6907C67.2377 62.8166 67.5134 63.0012 67.7455 63.2338C67.9776 63.4664 68.1616 63.7425 68.2869 64.0462C68.4121 64.35 68.4762 64.6755 68.4755 65.0041Z" fill="#E6E6E6"/>
<path d="M40.0547 48.3452L40.6011 51.9953L36.8025 53.2739L40.6011 55.2687L44.3892 53.9371L43.726 50.34L40.0547 48.3452Z" fill="#E6E6E6"/>
<path d="M65.9764 65.5346C65.8917 65.5336 65.8083 65.5137 65.7324 65.4763L38.553 51.5444C38.432 51.478 38.3417 51.367 38.3012 51.2351C38.2607 51.1032 38.2732 50.9607 38.336 50.8379C38.3988 50.715 38.507 50.6214 38.6377 50.577C38.7683 50.5326 38.9111 50.5409 39.0358 50.6L66.2152 64.5107C66.3401 64.5743 66.4348 64.6848 66.4785 64.818C66.5223 64.9512 66.5115 65.0963 66.4486 65.2216C66.4075 65.3131 66.3413 65.391 66.2578 65.4464C66.1742 65.5018 66.0767 65.5324 65.9764 65.5346Z" fill="#E0E0E0"/>
<path d="M103.379 42.3132C103.377 41.5832 103.546 40.8628 103.872 40.21C104.199 39.5571 104.674 38.9901 105.26 38.5545C105.846 38.1189 106.526 37.8269 107.245 37.702C107.964 37.5771 108.703 37.6228 109.401 37.8354C109.194 36.4278 109.292 34.9919 109.69 33.6257C110.087 32.2595 110.775 30.9951 111.705 29.9186C112.636 28.8421 113.787 27.9788 115.082 27.3876C116.376 26.7964 117.782 26.4911 119.205 26.4926C119.816 26.4924 120.425 26.5492 121.025 26.6624C122.001 25.0578 123.473 23.8142 125.218 23.1193C126.963 22.4243 128.887 22.3157 130.699 22.8098C132.511 23.3038 134.114 24.3738 135.264 25.8583C136.415 27.3427 137.052 29.1612 137.079 31.0393H137.228C139.344 31.0393 141.373 31.8799 142.87 33.3764C144.366 34.8728 145.207 36.9023 145.207 39.0185C145.207 41.1348 144.366 43.1643 142.87 44.6607C141.373 46.1571 139.344 46.9978 137.228 46.9978H107.921C106.702 46.9632 105.546 46.4541 104.697 45.579C103.849 44.7039 103.376 43.532 103.379 42.3132Z" fill="#F0F0F0"/>
<path d="M186.615 39.7454C186.615 39.1474 186.853 38.5739 187.275 38.151C187.698 37.7282 188.272 37.4906 188.87 37.4906C189.089 37.4926 189.307 37.5248 189.517 37.5861C189.483 37.3577 189.466 37.1273 189.464 36.8964C189.464 36.1946 189.618 35.5013 189.916 34.8659C190.214 34.2305 190.649 33.6687 191.189 33.2203C191.729 32.772 192.361 32.4483 193.041 32.2721C193.72 32.0959 194.43 32.0717 195.12 32.2012C195.592 31.4297 196.303 30.8326 197.144 30.4998C197.985 30.167 198.912 30.1164 199.785 30.3558C200.657 30.5952 201.428 31.1115 201.982 31.8271C202.536 32.5426 202.842 33.4187 202.855 34.3233H202.924C203.944 34.3233 204.922 34.7286 205.644 35.4499C206.365 36.1713 206.77 37.1496 206.77 38.1697C206.77 39.1898 206.365 40.1682 205.644 40.8895C204.922 41.6109 203.944 42.0161 202.924 42.0161H188.806C188.216 42.0008 187.656 41.7542 187.246 41.3294C186.836 40.9046 186.609 40.3357 186.615 39.7454Z" fill="#F0F0F0"/>
<path d="M41.9114 42.5519C41.9114 42.3529 41.9506 42.1559 42.027 41.9721C42.1033 41.7883 42.2151 41.6214 42.3561 41.4809C42.4971 41.3404 42.6644 41.2291 42.8484 41.1535C43.0325 41.0778 43.2297 41.0392 43.4287 41.0399C43.5761 41.0395 43.7227 41.061 43.8637 41.1036C43.8406 40.949 43.8282 40.793 43.8266 40.6367C43.8335 39.7946 44.1711 38.9889 44.7666 38.3935C45.3621 37.798 46.1677 37.4604 47.0098 37.4535C47.2093 37.4543 47.4082 37.4738 47.604 37.5118C47.9189 36.9902 48.3953 36.5854 48.9609 36.3589C49.5266 36.1324 50.1507 36.0965 50.7386 36.2567C51.3264 36.4169 51.8461 36.7644 52.2187 37.2465C52.5913 37.7286 52.7965 38.3191 52.8033 38.9284H52.851C53.5167 38.9585 54.1451 39.2442 54.6055 39.7259C55.0659 40.2077 55.3229 40.8484 55.3229 41.5147C55.3229 42.1811 55.0659 42.8218 54.6055 43.3035C54.1451 43.7853 53.5167 44.0709 52.851 44.1011H43.3862C43.1877 44.0963 42.992 44.0524 42.8104 43.9719C42.6288 43.8914 42.4648 43.776 42.3278 43.6321C42.1909 43.4882 42.0836 43.3188 42.0121 43.1334C41.9407 42.9481 41.9064 42.7505 41.9114 42.5519Z" fill="#F0F0F0"/>
<path d="M124.293 197.972C181.104 197.972 227.159 195.283 227.159 191.967C227.159 188.65 181.104 185.961 124.293 185.961C67.482 185.961 21.4275 188.65 21.4275 191.967C21.4275 195.283 67.482 197.972 124.293 197.972Z" fill="#F5F5F5"/>
<path d="M65.0747 90.804L68.7142 88.7243C68.7142 88.7243 70.1148 86.565 70.5339 86.4642C70.953 86.3634 75.5687 86.4642 75.5687 86.4642C75.5687 86.4642 74.8737 89.4565 74.7994 90.0454C74.7252 90.6342 70.3217 90.0454 70.3217 90.0454L66.7565 92.1675L65.0747 90.804Z" fill="#EBB376"/>
<path d="M31.1785 187.595L27.3693 186.836C27.3012 186.836 27.2352 186.859 27.1821 186.901C27.129 186.944 27.092 187.003 27.0775 187.069L26.0535 190.879C26.032 191.009 26.0597 191.142 26.1313 191.253C26.2029 191.364 26.3133 191.444 26.4408 191.478H26.5522C27.8998 191.478 28.8813 191.372 30.5684 191.372C31.6295 191.372 34.749 191.483 36.1868 191.483C37.6245 191.483 37.8155 190.062 37.2478 189.934C34.5952 189.356 32.6216 188.56 31.778 187.812C31.6146 187.663 31.3992 187.585 31.1785 187.595Z" fill="#263238"/>
<path d="M77.7973 187.467H73.6379C73.5696 187.466 73.503 187.489 73.4497 187.531C73.3964 187.574 73.3597 187.634 73.3461 187.701L72.667 190.778C72.6471 190.908 72.6762 191.041 72.7488 191.151C72.8213 191.26 72.9321 191.339 73.0596 191.372H73.171C74.5186 191.346 75.4948 191.266 77.1872 191.266C78.2482 191.266 81.3678 191.372 82.8055 191.372C84.2433 191.372 84.429 189.956 83.8401 189.823C81.1874 189.25 79.2138 188.449 78.3703 187.701C78.2954 187.625 78.206 187.566 78.1076 187.526C78.0091 187.486 77.9036 187.466 77.7973 187.467Z" fill="#263238"/>
<path d="M38.5214 117.389L56.1352 112.922C60.1301 121.644 74.7888 157.455 78.3434 187.25L72.3802 188.762C72.3802 188.762 61.8225 144.823 52.9679 131.995C52.9679 131.995 52.4957 151.497 51.5354 154.336C50.7449 156.67 32.6165 187.903 32.6165 187.903L26.7275 187.239C26.7275 187.239 41.5295 155.365 42.3996 151.391C43.015 148.685 40.3199 128.811 40.3199 128.811C39.8477 127.039 39.1368 119.702 39.1368 119.702C39.1368 119.702 38.6062 117.755 38.5214 117.389Z" fill="#5A7EC1"/>
<path opacity="0.2" d="M52.9731 132.006C54.4679 134.267 55.7722 136.648 56.8726 139.126C55.6524 132.26 51.8696 125.613 51.8696 125.613L52.9731 132.006Z" fill="black"/>
<path opacity="0.3" d="M38.5214 117.389L56.1352 112.922C60.1301 121.644 74.7888 157.455 78.3434 187.25L72.3802 188.762C72.3802 188.762 61.8225 144.823 52.9679 131.995C52.9679 131.995 52.4957 151.497 51.5354 154.336C50.7449 156.67 32.6165 187.903 32.6165 187.903L26.7275 187.239C26.7275 187.239 41.5295 155.365 42.3996 151.391C43.015 148.685 40.3199 128.811 40.3199 128.811C39.8477 127.039 39.1368 119.702 39.1368 119.702C39.1368 119.702 38.6062 117.755 38.5214 117.389Z" fill="black"/>
<path d="M69.1442 91.1065C69.1442 91.1065 61.1119 96.5286 58.9951 96.8151C58.1515 96.9318 56.4113 96.6453 54.6128 96.2846C51.8859 95.701 49.0422 94.8839 49.0422 94.8839L48.6867 92.1941L48.3101 89.3186C48.9467 89.1064 57.2549 92.5018 58.4964 93.0324C59.7378 93.5629 67.7648 88.7881 67.7648 88.7881L69.1442 91.1065Z" fill="#263238"/>
<path d="M44.3042 116.148L44.8241 118.185L39.1367 119.703L38.6062 117.591L44.3042 116.148Z" fill="black"/>
<path d="M53.2756 113.872L53.769 115.803L45.4555 118.02L44.9355 115.988L53.2756 113.872Z" fill="black"/>
<path d="M57.0424 114.933L54.3951 115.639L53.907 113.713L56.3368 113.098L57.0424 114.933Z" fill="black"/>
<path d="M48.7525 117.142L52.0334 116.31L51.4335 113.944L48.1526 114.776L48.7525 117.142Z" fill="white"/>
<path d="M56.3312 113.091L38.6006 117.59C37.7359 115.251 36.8552 112.895 35.9957 110.598C35.3644 108.916 34.7436 107.266 34.1388 105.669C33.9867 105.259 33.8329 104.856 33.6773 104.46L33.1467 103.048C32.7541 102.016 32.3757 101.02 32.0114 100.061L31.0352 97.5096L30.5736 96.3L29.6982 94.0186L48.3148 89.2969C54.4531 100.008 56.3312 113.091 56.3312 113.091Z" fill="#263238"/>
<path d="M36.4572 93.5622C38.3725 94.48 41.9058 92.8619 41.9058 92.8619C41.9058 92.8619 43.0783 91.5674 42.378 90.9944C40.9562 91.1801 41.0464 90.7132 40.5318 89.9864C40.2375 89.5276 40.0356 89.0158 39.9376 88.4797C39.8739 88.1836 39.8261 87.8843 39.7943 87.5831L34.2078 85.5776C35.4757 87.6255 37.444 91.5037 36.4572 93.5622Z" fill="#EBB376"/>
<path opacity="0.2" d="M35.9058 87.4087C36.9138 90.0879 39.3861 90.1675 40.532 89.9871C40.2378 89.5283 40.0359 89.0165 39.9378 88.4804L35.9058 87.4087Z" fill="black"/>
<path d="M43.1845 77.2432C43.1845 77.2432 44.6435 81.6466 42.5373 83.7953C40.4311 85.944 39.0039 77.5243 39.0039 77.5243L43.1845 77.2432Z" fill="#263238"/>
<path d="M36.1817 88.5916C36.8119 89.2493 37.6404 89.6822 38.5402 89.824C39.4399 89.9658 40.3614 89.8087 41.1634 89.3768C42.2148 88.8334 43.0194 87.9093 43.4129 86.7931C43.4659 86.6445 43.5137 86.4854 43.5561 86.3262C44.267 83.3605 43.8214 78.4637 40.5904 77.1479C39.8783 76.8544 39.1029 76.7478 38.338 76.8385C37.5731 76.9292 36.8441 77.2141 36.2204 77.6661C35.5967 78.1181 35.099 78.7221 34.7746 79.4207C34.4502 80.1193 34.31 80.8894 34.3672 81.6575C34.5582 84.9627 34.5158 86.9045 36.1817 88.5916Z" fill="#EBB376"/>
<path d="M39.3699 82.597C39.3699 82.8622 39.5078 83.0798 39.6882 83.0798C39.8686 83.0798 40.0012 82.8622 40.0065 82.597C40.0118 82.3317 39.8633 82.1089 39.6882 82.1089C39.5131 82.1089 39.3699 82.3264 39.3699 82.597Z" fill="#263238"/>
<path d="M42.405 82.5966C42.405 82.8671 42.5483 83.0847 42.7234 83.0847C42.8984 83.0847 43.0364 82.8618 43.0417 82.5966C43.047 82.3313 42.8931 82.1138 42.7234 82.1138C42.5536 82.1138 42.405 82.3419 42.405 82.5966Z" fill="#263238"/>
<path d="M41.4391 82.7295C41.7563 83.551 42.1866 84.3242 42.7177 85.0267C42.5335 85.1587 42.3225 85.2485 42.0997 85.2897C41.8769 85.331 41.6477 85.3227 41.4285 85.2655L41.4391 82.7295Z" fill="#D58745"/>
<path d="M43.5136 81.3553C43.4881 81.3683 43.46 81.3751 43.4314 81.3751C43.4028 81.3751 43.3746 81.3683 43.3491 81.3553C43.1922 81.2346 43.0092 81.1526 42.8147 81.1157C42.6203 81.0788 42.4199 81.0882 42.2297 81.143C42.191 81.1578 42.148 81.1566 42.1102 81.1397C42.0724 81.1228 42.0429 81.0915 42.0281 81.0528C42.0133 81.0142 42.0145 80.9712 42.0314 80.9334C42.0484 80.8956 42.0796 80.866 42.1183 80.8512C42.3562 80.7761 42.6088 80.7595 42.8545 80.8029C43.1002 80.8463 43.3318 80.9485 43.5295 81.1006C43.5469 81.1118 43.5618 81.1265 43.5734 81.1436C43.585 81.1607 43.593 81.18 43.597 81.2003C43.6009 81.2206 43.6008 81.2415 43.5965 81.2618C43.5922 81.282 43.5838 81.3012 43.572 81.3181C43.5541 81.3329 43.5345 81.3454 43.5136 81.3553Z" fill="#263238"/>
<path d="M38.7708 81.392C38.7404 81.388 38.7114 81.3771 38.6859 81.3602C38.6567 81.3304 38.6404 81.2904 38.6404 81.2488C38.6404 81.2071 38.6567 81.1671 38.6859 81.1374C38.8713 80.9676 39.095 80.8452 39.338 80.7805C39.5809 80.7158 39.8359 80.7109 40.0812 80.766C40.1199 80.7783 40.1525 80.8049 40.1722 80.8404C40.1919 80.8759 40.1973 80.9176 40.1873 80.957C40.175 80.9971 40.1478 81.031 40.1113 81.0517C40.0748 81.0724 40.0318 81.0784 39.991 81.0684C39.7975 81.0295 39.5975 81.0371 39.4075 81.0906C39.2175 81.1441 39.0429 81.242 38.8981 81.3761C38.8791 81.3874 38.858 81.3947 38.8361 81.3975C38.8142 81.4002 38.7919 81.3984 38.7708 81.392Z" fill="#263238"/>
<path d="M36.7865 77.562L37.1048 78.1721C36.0437 78.5806 36.309 79.8327 36.5743 80.3898C37.1048 81.5888 36.4947 83.5146 35.5981 84.3157C35.5981 84.3157 35.5397 83.7852 35.0994 83.9337C34.659 84.0823 34.9137 86.8305 35.8474 88.1038C35.8474 88.1038 34.4733 86.9737 33.5926 84.1194C32.7809 81.4668 32.5899 79.2544 33.0939 78.1933L36.7865 77.562Z" fill="#263238"/>
<path d="M32.9244 84.3741C33.1049 84.7446 33.3567 85.0758 33.6653 85.3489C33.9739 85.622 34.3333 85.8316 34.723 85.9657C35.784 86.3159 36.3146 85.398 36.1023 84.3741C35.8795 83.4775 35.0784 82.1777 33.9802 82.2785C33.7486 82.3043 33.5272 82.3875 33.3359 82.5205C33.1446 82.6536 32.9895 82.8322 32.8846 83.0403C32.7798 83.2484 32.7285 83.4793 32.7355 83.7122C32.7424 83.9451 32.8074 84.1726 32.9244 84.3741Z" fill="#EBB376"/>
<path d="M36.7547 89.9178C38.3145 91.0107 41.3544 91.3661 42.8453 89.3872C44.3361 87.4083 43.8586 84.2304 43.8586 84.2304C43.6874 84.9402 43.3612 85.6033 42.9036 86.1722C42.0601 85.1535 40.6276 85.7318 40.6276 85.7318C40.3258 85.339 39.8926 85.0678 39.4074 84.9678C38.7124 84.8989 36.7547 85.0156 36.7547 85.0156C36.1287 84.6177 36.1021 82.8457 36.1021 82.8457L35.7202 83.164C35.7202 83.164 35.1896 88.8195 36.7547 89.9178Z" fill="#263238"/>
<path d="M40.9248 78.6867C40.9248 78.6867 44.6386 76.8829 44.1982 75.0791C43.7579 73.2753 42.6756 75.3337 42.6756 75.3337C42.6756 75.3337 43.1743 73.965 42.1981 73.7421C41.2219 73.5193 41.5296 74.3947 40.9991 74.9199C40.4686 75.4452 35.3224 74.6812 33.6618 75.7104C32.0012 76.7397 33.2692 80.2996 33.2692 80.2996C34.2499 79.315 35.4966 78.6379 36.8565 78.3514C38.2163 78.065 39.6302 78.1815 40.9248 78.6867Z" fill="#263238"/>
<path opacity="0.2" d="M36.7547 89.9178C38.3145 91.0107 41.3544 91.3661 42.8453 89.3872C44.3361 87.4083 43.8586 84.2304 43.8586 84.2304C43.6874 84.9402 43.3612 85.6033 42.9036 86.1722C42.0601 85.1535 40.6276 85.7318 40.6276 85.7318C40.3258 85.339 39.8926 85.0678 39.4074 84.9678C38.7124 84.8989 36.7547 85.0156 36.7547 85.0156C36.1287 84.6177 36.1021 82.8457 36.1021 82.8457L35.7202 83.164C35.7202 83.164 35.1896 88.8195 36.7547 89.9178Z" fill="white"/>
<path d="M40.7867 86.7398C40.5012 87.1219 40.244 87.5244 40.0174 87.9441L39.7786 87.8539C38.7176 87.4666 38.3356 86.9361 38.2507 86.4586C38.2164 86.2273 38.2364 85.9912 38.3091 85.7689C38.3477 85.6402 38.403 85.5172 38.4735 85.4028C39.0316 85.9356 39.6973 86.3427 40.4259 86.5965C40.6434 86.692 40.7867 86.7398 40.7867 86.7398Z" fill="#263238"/>
<path d="M40.4259 86.6024L40.1872 86.9526C39.1792 86.5865 38.516 86.1939 38.3091 85.7748C38.3477 85.6461 38.403 85.523 38.4735 85.4087C39.0316 85.9415 39.6973 86.3485 40.4259 86.6024Z" fill="white"/>
<path d="M39.7784 87.8538C38.7174 87.4665 38.3354 86.936 38.2505 86.4585C38.6557 86.6161 39.0307 86.8423 39.3593 87.127C39.5719 87.3192 39.7186 87.5735 39.7784 87.8538Z" fill="#DE5753"/>
<path d="M42.6065 92.8677L42.2935 95.6159L48.0233 107.823L47.4556 109.442L45.5828 108.577L41.4977 96.1252L38.4949 94.0932L40.6807 92.8942L42.6065 92.8677Z" fill="#5A7EC1"/>
<path d="M36.5845 90.99L40.3778 92.5551L40.5317 89.9873L43.3276 90.677L43.5664 94.5871L40.8765 93.4888L39.7518 95.993L34.9717 92.7991L36.5845 90.99Z" fill="#263238"/>
<path opacity="0.2" d="M36.5845 90.99L40.3778 92.5551L40.5317 89.9873L43.3276 90.677L43.5664 94.5871L40.8765 93.4888L39.7518 95.993L34.9717 92.7991L36.5845 90.99Z" fill="white"/>
<path opacity="0.2" d="M33.1417 103.049C32.7491 102.016 32.3707 101.02 32.0064 100.062L31.0302 97.5097L30.5686 96.3001C31.0991 96.0401 32.452 96.194 32.8287 96.8306C34.2081 99.2393 33.1417 103.049 33.1417 103.049Z" fill="black"/>
<path opacity="0.2" d="M39.7895 105.744C39.5629 106.786 39.1042 107.764 38.4474 108.604C37.7906 109.445 36.9528 110.126 35.9962 110.598C35.3649 108.917 34.7441 107.267 34.1393 105.67C33.9872 105.259 33.8334 104.856 33.6778 104.46L33.1472 103.049L39.2908 103.829L39.7895 105.744Z" fill="black"/>
<path opacity="0.2" d="M54.6129 96.2638C51.8859 95.6802 49.0422 94.8632 49.0422 94.8632L48.6868 92.1733C48.6868 92.1733 53.7003 92.7092 54.6129 96.2638Z" fill="black"/>
<path d="M29.6932 158.946C29.5269 158.952 29.363 158.905 29.2246 158.812C29.0862 158.72 28.9803 158.586 28.9218 158.431C28.8632 158.275 28.8549 158.105 28.8981 157.944C28.9414 157.783 29.0339 157.64 29.1627 157.535C38.0173 150.266 37.8475 138.876 37.6831 127.857C37.5557 119.548 37.439 111.696 41.3491 106.359C46.8348 98.8575 68.8998 86.9576 72.5552 86.618C75.1707 86.3581 154.947 64.187 196.77 52.4993C196.973 52.4423 197.191 52.4684 197.375 52.5719C197.559 52.6754 197.694 52.8477 197.751 53.051C197.808 53.2543 197.782 53.472 197.679 53.656C197.575 53.8401 197.403 53.9755 197.199 54.0325C192.249 55.4172 75.9825 87.9019 72.7038 88.2044C69.5577 88.4961 47.7155 100.348 42.633 107.304C39.0412 112.211 39.1526 119.803 39.2747 127.835C39.4338 138.701 39.6195 151.02 30.1707 158.771C30.0353 158.881 29.8674 158.942 29.6932 158.946Z" fill="#263238"/>
<path opacity="0.4" d="M197.226 54.0273L186.318 57.0832C156.316 65.4551 75.4359 87.9604 72.7302 88.2098C69.5841 88.5016 47.7419 100.354 42.6594 107.309C39.0677 112.217 39.1791 119.809 39.3011 127.841C39.4603 138.706 39.646 151.025 30.1971 158.776C30.0485 158.9 29.8596 158.964 29.6666 158.957C29.5003 158.962 29.3364 158.916 29.198 158.823C29.0596 158.731 28.9537 158.597 28.8951 158.441C28.8366 158.286 28.8283 158.115 28.8715 157.955C28.9148 157.794 29.0073 157.651 29.136 157.546C37.9907 150.277 37.8209 138.887 37.6565 127.867C37.5291 119.559 37.4124 111.707 41.3225 106.37C46.8082 98.8683 68.8732 86.9683 72.5286 86.6288C74.9903 86.3847 145.668 66.7655 188.865 54.7117L196.743 52.51C196.946 52.453 197.164 52.4791 197.348 52.5826C197.532 52.6861 197.668 52.8584 197.725 53.0618C197.781 53.2651 197.755 53.4827 197.652 53.6668C197.548 53.8509 197.376 53.9863 197.173 54.0433L197.226 54.0273Z" fill="white"/>
<path opacity="0.2" d="M197.226 54.0273L186.318 57.0832C187.083 56.1862 187.956 55.3878 188.918 54.7064L196.796 52.5046C197 52.4477 197.217 52.4738 197.401 52.5772C197.586 52.6807 197.721 52.8531 197.778 53.0564C197.835 53.2597 197.809 53.4774 197.705 53.6614C197.602 53.8455 197.43 53.9809 197.226 54.0379V54.0273Z" fill="black"/>
<path d="M35.1152 104.195L39.2852 103.829C39.2852 103.829 41.4657 102.449 41.8849 102.539C42.304 102.63 46.4581 104.662 46.4581 104.662C46.4581 104.662 44.5747 107.086 44.2617 107.59C43.9487 108.094 40.1978 105.717 40.1978 105.717L36.0649 106.158L35.1152 104.195Z" fill="#EBB376"/>
<path d="M29.6932 94.0186C27.7992 95.3714 22.8652 106.401 23.3905 108.104C23.9157 109.807 39.2694 106.449 39.2694 106.449L38.5903 103.579H30.3299L32.2929 100.48C32.2929 100.48 33.5025 99.3027 32.7597 96.5651C32.2239 94.5915 29.6932 94.0186 29.6932 94.0186Z" fill="#263238"/>
<path d="M189.66 95.1275L186.514 93.6367C186.514 93.6367 184.922 90.5914 184.456 90.1033C183.989 89.6153 181.734 91.5093 181.734 91.8382C181.734 92.1671 183.368 95.2442 183.792 95.4299C184.424 95.5227 185.066 95.5227 185.697 95.4299L188.689 96.8783L189.66 95.1275Z" fill="#9F5B53"/>
<path d="M197.003 76.2564L197.634 74.0016C197.634 74.0016 198.632 71.0624 198.526 70.3834C198.331 69.5796 198.079 68.7906 197.772 68.0225C197.772 68.0225 195.013 71.3808 195.013 71.7999C195.013 72.219 196.106 73.7416 196.106 73.7416L195.576 76.2564H197.003Z" fill="#9F5B53"/>
<path d="M199.427 93.0528C199.427 93.0528 197.05 90.0977 196.35 87.3495C195.65 84.6013 197.767 75.6777 197.767 75.6777L195.533 75.0835C195.533 75.0835 192.88 84.214 192.79 87.5458C192.7 90.8776 197.655 100.655 197.655 100.655L199.427 93.0528Z" fill="#5A7EC1"/>
<path opacity="0.2" d="M197.99 99.1863L197.65 100.635C197.65 100.635 195.942 97.2657 194.546 93.8066C195.998 94.8497 197.093 96.3151 197.682 98.0032C197.817 98.3885 197.919 98.7842 197.99 99.1863Z" fill="black"/>
<path d="M212.012 99.5254C211.982 100.142 211.907 100.755 211.789 101.361C211.545 102.687 211.131 104.252 210.659 105.977C210.404 106.884 210.128 107.855 209.884 108.879C208.701 113.479 208.059 115.309 207.184 121.182L190.392 117.198C191.3 112.17 192.684 107.24 194.525 102.475C195.013 101.207 195.586 99.9392 196.165 98.6872C197.092 96.724 198.183 94.8427 199.427 93.0635C199.427 93.0635 202.144 95.5464 210.675 97.0372C211.709 97.1963 212.065 98.0983 212.012 99.5254Z" fill="#5A7EC1"/>
<path opacity="0.2" d="M209.9 97.6108C209.9 98.1413 211.911 100.667 211.789 101.325C211.561 101.478 211.29 101.648 210.983 101.855C205.3 105.16 197.846 103.484 194.536 102.46C195.024 101.192 196.128 98.8629 196.7 97.6108L200.685 98.4968C200.685 98.4968 207.2 97.0113 209.9 97.6108Z" fill="black"/>
<path d="M203.073 94.0662C203.683 93.8327 208.691 95.0795 208.32 95.1856C207.948 95.2917 206.081 101.021 203.465 100.592C200.85 100.162 200.897 94.8938 203.073 94.0662Z" fill="#5A7EC1"/>
<path d="M180.397 187.945L177.246 188.629L175.405 181.382L178.561 180.698L180.397 187.945Z" fill="#9F5B53"/>
<path d="M176.461 187.314H180.382C180.445 187.314 180.507 187.336 180.557 187.377C180.606 187.417 180.64 187.474 180.652 187.536L181.289 190.407C181.303 190.468 181.304 190.532 181.293 190.594C181.282 190.655 181.259 190.715 181.225 190.768C181.191 190.82 181.147 190.866 181.095 190.901C181.043 190.937 180.984 190.962 180.923 190.974H180.817C179.549 190.974 178.625 190.874 177.034 190.874C176.052 190.874 173.092 190.974 171.728 190.974C170.365 190.974 170.201 189.637 170.752 189.515C173.241 188.985 175.113 188.221 175.909 187.51C175.983 187.442 176.071 187.39 176.165 187.356C176.26 187.323 176.36 187.308 176.461 187.314Z" fill="#263238"/>
<path d="M175.394 187.881C175.175 187.898 174.956 187.84 174.773 187.717C174.714 187.668 174.668 187.605 174.64 187.533C174.612 187.462 174.603 187.384 174.614 187.308C174.612 187.263 174.622 187.219 174.645 187.18C174.668 187.142 174.701 187.11 174.741 187.091C175.102 186.905 176.142 187.547 176.259 187.621C176.272 187.628 176.283 187.639 176.29 187.652C176.297 187.666 176.299 187.681 176.296 187.696C176.294 187.711 176.287 187.725 176.277 187.737C176.267 187.748 176.253 187.756 176.238 187.759C175.962 187.831 175.679 187.872 175.394 187.881ZM174.911 187.213C174.88 187.202 174.847 187.202 174.816 187.213C174.816 187.213 174.768 187.239 174.763 187.303C174.757 187.353 174.764 187.404 174.782 187.451C174.801 187.498 174.831 187.54 174.869 187.573C175.229 187.738 175.639 187.759 176.015 187.632C175.677 187.422 175.303 187.28 174.911 187.213Z" fill="#5A7EC1"/>
<path d="M176.216 187.764H176.179C175.85 187.584 175.203 186.873 175.267 186.533C175.279 186.476 175.31 186.425 175.356 186.388C175.401 186.352 175.458 186.332 175.516 186.332C175.574 186.324 175.633 186.329 175.689 186.346C175.745 186.364 175.796 186.393 175.84 186.432C176.211 186.735 176.291 187.663 176.296 187.706C176.297 187.72 176.294 187.733 176.287 187.745C176.281 187.758 176.271 187.768 176.259 187.775C176.252 187.777 176.244 187.777 176.236 187.775C176.229 187.773 176.222 187.77 176.216 187.764ZM175.569 186.454H175.532C175.431 186.454 175.426 186.512 175.421 186.533C175.378 186.745 175.792 187.281 176.121 187.531C176.103 187.169 175.975 186.821 175.755 186.533C175.731 186.508 175.702 186.488 175.67 186.474C175.638 186.461 175.604 186.454 175.569 186.454Z" fill="#5A7EC1"/>
<path d="M207.322 121.623C207.322 121.623 204.6 134.6 198.234 138.069C197.503 138.48 196.703 138.752 195.873 138.87C195.873 138.87 189.416 141.523 183.835 144.033C180.44 145.566 177.368 147.062 176.27 147.9C173.362 150.112 180.482 184.65 180.482 184.65L175.643 184.703C175.643 184.703 165.463 154.123 167.155 146.096C168.847 138.069 187.119 125.782 187.119 125.782L189.931 118.047L207.322 121.623Z" fill="#263238"/>
<path opacity="0.2" d="M198.234 138.085C197.503 138.496 196.703 138.768 195.873 138.886C195.873 138.886 189.416 141.539 183.835 144.049C187.427 137.443 193.83 133.151 193.83 133.151L198.234 138.085Z" fill="black"/>
<path d="M220.962 187.945L217.811 188.629L215.97 181.382L219.126 180.698L220.962 187.945Z" fill="#9F5B53"/>
<path d="M217.025 187.314H220.946C221.01 187.314 221.072 187.336 221.121 187.377C221.171 187.417 221.204 187.474 221.217 187.536L221.853 190.407C221.867 190.468 221.869 190.532 221.858 190.594C221.847 190.655 221.824 190.715 221.79 190.768C221.756 190.82 221.711 190.866 221.659 190.901C221.607 190.937 221.549 190.962 221.487 190.974H221.381C220.113 190.974 219.19 190.874 217.598 190.874C216.617 190.874 213.656 190.974 212.293 190.974C210.929 190.974 210.765 189.637 211.317 189.515C213.805 188.985 215.678 188.221 216.474 187.51C216.548 187.442 216.635 187.39 216.73 187.356C216.824 187.323 216.925 187.308 217.025 187.314Z" fill="#263238"/>
<path d="M215.959 187.881C215.739 187.898 215.521 187.84 215.338 187.717C215.279 187.668 215.233 187.605 215.205 187.533C215.177 187.462 215.168 187.384 215.179 187.308C215.177 187.263 215.187 187.219 215.21 187.18C215.233 187.142 215.266 187.11 215.306 187.091C215.667 186.905 216.707 187.547 216.824 187.621C216.837 187.628 216.848 187.639 216.855 187.652C216.861 187.666 216.864 187.681 216.861 187.696C216.859 187.711 216.852 187.725 216.842 187.737C216.831 187.748 216.818 187.756 216.803 187.759C216.527 187.831 216.244 187.872 215.959 187.881ZM215.476 187.213C215.445 187.202 215.412 187.202 215.381 187.213C215.381 187.213 215.333 187.239 215.328 187.303C215.322 187.353 215.329 187.404 215.347 187.451C215.366 187.498 215.396 187.54 215.434 187.573C215.794 187.738 216.204 187.759 216.58 187.632C216.242 187.422 215.868 187.28 215.476 187.213Z" fill="#5A7EC1"/>
<path d="M216.781 187.765H216.744C216.415 187.584 215.768 186.873 215.831 186.534C215.843 186.477 215.875 186.425 215.92 186.389C215.966 186.352 216.022 186.332 216.081 186.332C216.139 186.324 216.198 186.329 216.254 186.347C216.309 186.364 216.361 186.394 216.404 186.433C216.776 186.735 216.855 187.664 216.861 187.706C216.861 187.72 216.858 187.734 216.852 187.746C216.845 187.758 216.835 187.768 216.823 187.775C216.816 187.777 216.808 187.778 216.801 187.776C216.793 187.774 216.786 187.77 216.781 187.765ZM216.134 186.454H216.075C215.975 186.454 215.969 186.512 215.964 186.534C215.921 186.746 216.335 187.282 216.664 187.531C216.644 187.164 216.51 186.812 216.282 186.523C216.242 186.484 216.189 186.46 216.134 186.454Z" fill="#5A7EC1"/>
<path d="M208.41 96.8145C207.619 97.345 203.974 97.1434 203.974 97.1434L202.282 98.995L202.117 95.9338C202.117 95.9338 200.977 95.4616 201.29 95.1327C201.686 95.1622 202.085 95.1122 202.462 94.9856C202.84 94.8589 203.188 94.6582 203.486 94.3952C204.224 93.6737 204.367 92.5118 204.356 91.3605C204.356 91.3605 204.356 91.3287 204.356 91.3181L207.47 89.7265L209.624 88.6177C208.611 90.8035 207.163 94.9045 208.41 96.8145Z" fill="#9F5B53"/>
<path opacity="0.2" d="M208.5 90.4533C207.47 93.0582 204.786 94.2201 203.465 94.3899C204.202 93.6683 204.346 92.5064 204.335 91.3552C204.337 91.3394 204.337 91.3232 204.335 91.3074L207.449 89.7158C207.454 90.1402 208.648 90.0554 208.5 90.4533Z" fill="black"/>
<path d="M210.478 90.3469C210.478 90.3469 212.5 91.4079 213.174 90.14C213.847 88.872 212.887 88.7977 213.879 88.3414C214.871 87.8852 216.282 87.5669 215.959 86.6066C215.635 85.6463 214.633 85.5455 215.747 84.4844C216.861 83.4234 217.105 81.9273 215.439 81.6355C213.773 81.3437 214.41 80.0439 214.325 79.5133C214.24 78.9828 213.306 78.6114 212.293 78.8236C211.28 79.0358 210.855 77.5344 210.229 77.0676C209.603 76.6007 208.738 77.1737 208.51 77.805C208.282 78.4363 207.683 77.5981 206.791 77.492C205.9 77.3859 206.107 78.3249 205.831 79.2003C205.555 80.0757 205.009 79.508 204.372 80.2296C203.735 80.9511 203.677 85.8745 210.478 90.3469Z" fill="#263238"/>
<path d="M211.359 87.323C209.837 89.7104 208.972 91.2861 207.264 92.0606C207.034 92.1667 206.796 92.2553 206.553 92.3259C203.232 93.3021 200.494 90.103 201.37 86.9357C201.536 86.364 201.749 85.8068 202.006 85.2698C203.195 82.7816 205.481 80.235 208.213 80.5692C208.784 80.6344 209.336 80.8115 209.838 81.0904C210.34 81.3693 210.782 81.7444 211.139 82.1943C211.496 82.6443 211.76 83.1602 211.917 83.7125C212.074 84.2648 212.121 84.8427 212.055 85.413C211.974 86.095 211.736 86.7489 211.359 87.323Z" fill="#9F5B53"/>
<path d="M206.686 85.7318C206.574 85.9705 206.335 86.0766 206.187 85.9971C206.038 85.9175 206.022 85.6575 206.144 85.4347C206.266 85.2119 206.5 85.0898 206.643 85.1694C206.786 85.249 206.813 85.5143 206.686 85.7318Z" fill="#263238"/>
<path d="M204.112 84.3152C204.079 84.4149 204.008 84.4979 203.915 84.5465C203.822 84.595 203.714 84.6053 203.613 84.5751C203.47 84.4903 203.449 84.2409 203.576 84.0128C203.703 83.7846 203.926 83.6679 204.075 83.7528C204.223 83.8377 204.234 84.0977 204.112 84.3152Z" fill="#263238"/>
<path d="M204.871 84.8828C204.211 85.4248 203.481 85.8746 202.701 86.2198C202.794 86.4184 202.93 86.594 203.099 86.7343C203.267 86.8746 203.465 86.976 203.677 87.0315L204.871 84.8828Z" fill="#892B29"/>
<path d="M208.224 85.1371C208.196 85.1413 208.168 85.1382 208.142 85.1279C208.116 85.1177 208.093 85.1007 208.075 85.0788C207.968 84.9202 207.824 84.7894 207.656 84.6972C207.489 84.6049 207.301 84.5539 207.11 84.5482C207.088 84.5524 207.065 84.5516 207.043 84.546C207.021 84.5403 207.001 84.5299 206.983 84.5154C206.966 84.501 206.952 84.4829 206.942 84.4624C206.932 84.442 206.927 84.4196 206.927 84.397C206.927 84.3744 206.932 84.3521 206.942 84.3316C206.952 84.3111 206.966 84.293 206.983 84.2786C207.001 84.2642 207.021 84.2537 207.043 84.2481C207.065 84.2424 207.088 84.2416 207.11 84.2458C207.352 84.2474 207.589 84.3077 207.803 84.4213C208.016 84.535 208.199 84.6987 208.335 84.8984C208.348 84.9139 208.357 84.9318 208.363 84.951C208.368 84.9702 208.37 84.9903 208.367 85.0101C208.365 85.0299 208.358 85.049 208.348 85.0663C208.338 85.0836 208.325 85.0986 208.309 85.1106C208.283 85.1262 208.254 85.1353 208.224 85.1371Z" fill="#263238"/>
<path d="M204.298 88.4535C204.654 88.5693 205.033 88.5974 205.402 88.5355C205.772 88.4736 206.121 88.3236 206.42 88.098C206.433 88.0826 206.441 88.0628 206.441 88.0423C206.441 88.0218 206.433 88.0021 206.42 87.9866C206.405 87.972 206.385 87.9639 206.364 87.9639C206.343 87.9639 206.323 87.972 206.308 87.9866C206.025 88.1902 205.698 88.325 205.354 88.3803C205.009 88.4355 204.657 88.4097 204.324 88.3049C204.315 88.3008 204.305 88.2987 204.295 88.2989C204.284 88.2991 204.274 88.3016 204.265 88.3062C204.256 88.3107 204.248 88.3173 204.242 88.3253C204.235 88.3334 204.231 88.3427 204.229 88.3527C204.225 88.362 204.222 88.3721 204.223 88.3824C204.223 88.3926 204.225 88.4026 204.23 88.4117C204.234 88.4209 204.241 88.4289 204.249 88.4352C204.257 88.4415 204.266 88.4459 204.276 88.4482L204.298 88.4535Z" fill="#263238"/>
<path d="M203.873 82.1139C203.865 82.0844 203.865 82.0532 203.873 82.0237C203.891 81.9874 203.921 81.9594 203.959 81.9455C203.997 81.9316 204.038 81.933 204.075 81.9494C204.298 82.049 204.493 82.2009 204.644 82.3921C204.796 82.5832 204.899 82.8081 204.945 83.0476C204.949 83.0876 204.938 83.1278 204.913 83.1596C204.889 83.1913 204.852 83.2121 204.812 83.2174C204.772 83.2219 204.732 83.2105 204.7 83.1857C204.669 83.1609 204.648 83.1247 204.643 83.0847C204.601 82.8975 204.516 82.7227 204.394 82.5743C204.272 82.4259 204.118 82.3082 203.942 82.2306C203.923 82.2169 203.907 82.1995 203.896 82.1794C203.884 82.1593 203.876 82.137 203.873 82.1139Z" fill="#263238"/>
<path d="M206.059 80.7929C206.834 80.8884 207.216 81.8539 207.216 81.8539C208.152 82.1962 209.058 82.6187 209.922 83.1166C210.185 83.3315 210.383 83.6157 210.494 83.9373C210.605 84.2588 210.623 84.6048 210.548 84.9363C210.521 85.191 209.895 85.4244 209.895 85.4244C209.895 85.4244 208.749 88.1302 208.436 88.8782L208.595 91.3771C210.701 90.0454 212.388 88.1455 213.46 85.8966C215.269 82.1298 207.72 78.814 207.72 78.814L206.059 80.7929Z" fill="#263238"/>
<path d="M210.903 91.1005C210.198 91.4868 209.368 91.5783 208.595 91.3551C207.571 91.0474 207.63 89.997 208.388 89.3232C209.068 88.7396 210.431 88.1613 211.222 88.8404C211.395 88.9882 211.527 89.1772 211.608 89.39C211.689 89.6028 211.714 89.8325 211.683 90.0578C211.651 90.2831 211.563 90.4968 211.427 90.679C211.29 90.8613 211.11 91.0062 210.903 91.1005Z" fill="#9F5B53"/>
<path d="M208.319 95.1853L204.101 96.4003L202.282 98.8673L202.775 95.8485C202.775 95.8485 202.324 95.1535 203.072 94.0659L200.504 94.5965L198.955 97.1855L201.969 96.4799L202.175 99.488L203.931 97.4189L205.369 99.6896L209.645 96.9786L208.319 95.1853Z" fill="#5A7EC1"/>
<path opacity="0.2" d="M208.319 95.1853L204.101 96.4003L202.282 98.8673L202.775 95.8485C202.775 95.8485 202.324 95.1535 203.072 94.0659L200.504 94.5965L198.955 97.1855L201.969 96.4799L202.175 99.488L203.931 97.4189L205.369 99.6896L209.645 96.9786L208.319 95.1853Z" fill="black"/>
<path d="M190.615 115.441L189.958 118.062L207.317 121.622L207.577 118.71L190.615 115.441Z" fill="black"/>
<path d="M198.366 116.816C198.228 116.62 194.366 115.787 194 116.063C194 116.063 193.252 118.646 193.379 118.917C193.506 119.188 197.263 119.713 197.623 119.787C197.984 119.861 198.504 117.034 198.366 116.816ZM197.305 119.469C197.019 119.41 193.931 118.981 193.825 118.758C193.719 118.535 194.355 116.413 194.355 116.413C194.658 116.185 197.83 116.869 197.942 117.028C198.053 117.188 197.592 119.501 197.305 119.442V119.469Z" fill="white"/>
<path d="M197.454 117.696L196.684 117.537C196.614 117.523 196.542 117.537 196.481 117.574C196.42 117.611 196.375 117.67 196.355 117.738C196.344 117.777 196.341 117.817 196.347 117.857C196.352 117.896 196.366 117.934 196.387 117.968C196.408 118.002 196.436 118.031 196.469 118.054C196.502 118.076 196.539 118.092 196.578 118.099L197.347 118.248C197.422 118.263 197.499 118.247 197.563 118.205C197.626 118.162 197.67 118.097 197.684 118.022C197.699 117.948 197.684 117.87 197.641 117.807C197.599 117.744 197.533 117.7 197.459 117.685L197.454 117.696Z" fill="white"/>
<path d="M207.316 121.622C207.316 121.622 207.651 141.252 207.099 146.982C206.547 152.711 220.85 184.071 220.85 184.071H216.219C216.219 184.071 202.186 161.11 198.971 154.043C195.756 146.976 193.379 130.116 193.379 130.116L207.316 121.622Z" fill="#263238"/>
<path d="M212.07 98.1469C211.354 96.5234 200.356 98.9268 199.364 98.6456C198.372 98.3644 188.047 94.0405 188.047 94.0405L187.151 96.3431C187.151 96.3431 196.409 101.648 198.435 102.487C200.462 103.325 208.563 102.922 210.638 102.025C210.993 101.872 211.313 101.648 211.579 101.368C211.845 101.087 212.051 100.756 212.185 100.393C212.319 100.03 212.378 99.6442 212.358 99.2581C212.338 98.872 212.24 98.494 212.07 98.1469Z" fill="#5A7EC1"/>
<path d="M210.123 55.9851L206.792 34.7637L189.241 47.1729L195.077 49.6452C189.443 62.5585 171.166 100.391 139.716 128.287C99.5596 163.912 43.3546 181.441 42.7922 181.611L45.9012 191.76C48.2886 191.028 104.833 173.414 146.777 136.207C180.201 106.561 198.993 67.4606 204.892 53.7728L210.123 55.9851Z" fill="#5A7EC1"/>
<path opacity="0.4" d="M206.94 52.2714L206.792 34.7637L189.241 47.1729L195.077 49.6452C189.443 62.5585 171.166 100.391 139.716 128.287C99.5596 163.912 43.3546 181.441 42.7922 181.611L43.779 188.046C46.1664 187.314 102.711 171.292 144.655 134.085C178.079 104.439 195.809 64.8079 201.709 51.1201L206.94 52.2714Z" fill="white"/>
<path d="M203.873 56.8823C203.791 56.883 203.708 56.8705 203.629 56.8452L193.438 53.5506C193.333 53.5234 193.235 53.475 193.149 53.4084C193.063 53.3419 192.992 53.2585 192.94 53.1635C192.888 53.0685 192.855 52.9637 192.845 52.8558C192.835 52.7478 192.847 52.6389 192.88 52.5357C192.913 52.4325 192.967 52.3372 193.039 52.2556C193.11 52.1741 193.198 52.108 193.296 52.0614C193.394 52.0149 193.5 51.9888 193.608 51.9849C193.717 51.981 193.825 51.9992 193.926 52.0385L204.118 55.3279C204.299 55.3853 204.454 55.5059 204.554 55.6677C204.654 55.8296 204.693 56.0219 204.663 56.21C204.634 56.398 204.538 56.5692 204.393 56.6926C204.248 56.8159 204.064 56.8832 203.873 56.8823Z" fill="#263238"/>
<path opacity="0.4" d="M203.873 56.8823C203.791 56.883 203.708 56.8705 203.629 56.8452L193.438 53.5506C193.333 53.5234 193.235 53.475 193.149 53.4084C193.063 53.3419 192.992 53.2585 192.94 53.1635C192.888 53.0685 192.855 52.9637 192.845 52.8558C192.835 52.7478 192.847 52.6389 192.88 52.5357C192.913 52.4325 192.967 52.3372 193.039 52.2556C193.11 52.1741 193.198 52.108 193.296 52.0614C193.394 52.0149 193.5 51.9888 193.608 51.9849C193.717 51.981 193.825 51.9992 193.926 52.0385L204.118 55.3279C204.299 55.3853 204.454 55.5059 204.554 55.6677C204.654 55.8296 204.693 56.0219 204.663 56.21C204.634 56.398 204.538 56.5692 204.393 56.6926C204.248 56.8159 204.064 56.8832 203.873 56.8823Z" fill="white"/>
<path d="M81.8126 156.198C81.6016 156.198 81.3992 156.114 81.2499 155.965C81.1007 155.815 81.0168 155.613 81.0168 155.402C81.0168 130.074 88.3754 126.753 89.7548 126.344L113.151 109.977L113.204 109.946L203.088 56.6478C203.269 56.5445 203.484 56.5166 203.686 56.57C203.887 56.6234 204.06 56.7539 204.166 56.9333C204.273 57.1128 204.305 57.3269 204.255 57.5296C204.205 57.7322 204.077 57.9071 203.9 58.0166L114.059 111.298L90.5506 127.745C90.4504 127.815 90.3364 127.862 90.2163 127.883C90.158 127.883 82.6085 129.74 82.6085 155.418C82.6043 155.626 82.5186 155.824 82.3698 155.97C82.221 156.116 82.021 156.198 81.8126 156.198Z" fill="#263238"/>
<path opacity="0.4" d="M81.8126 156.198C81.6016 156.198 81.3992 156.114 81.2499 155.965C81.1007 155.815 81.0168 155.613 81.0168 155.402C81.0168 130.074 88.3754 126.753 89.7548 126.344L113.151 109.977L113.204 109.946L203.088 56.6478C203.269 56.5445 203.484 56.5166 203.686 56.57C203.887 56.6234 204.06 56.7539 204.166 56.9333C204.273 57.1128 204.305 57.3269 204.255 57.5296C204.205 57.7322 204.077 57.9071 203.9 58.0166L114.059 111.298L90.5506 127.745C90.4504 127.815 90.3364 127.862 90.2163 127.883C90.158 127.883 82.6085 129.74 82.6085 155.418C82.6043 155.626 82.5186 155.824 82.3698 155.97C82.221 156.116 82.021 156.198 81.8126 156.198Z" fill="white"/>
<path d="M87.9246 129.916C87.9246 129.916 83.8342 132.568 80.7252 133.369C79.9579 133.629 79.1345 133.675 78.3431 133.502C76.03 132.77 77.4041 128.292 78.7835 125.464C79.0063 125.003 79.2291 124.589 79.436 124.239L83.4787 126.738C83.4787 126.738 81.0276 130.234 81.3088 130.451C81.59 130.669 85.3674 128.563 85.5531 128.494C85.7388 128.425 87.9246 129.916 87.9246 129.916Z" fill="#5A7EC1"/>
<path opacity="0.2" d="M87.9246 129.916C87.9246 129.916 83.8342 132.568 80.7252 133.369C79.8621 130.792 79.2127 128.148 78.7834 125.464C79.0063 125.003 79.2291 124.589 79.436 124.239L83.4787 126.738C83.4787 126.738 81.0276 130.234 81.3088 130.451C81.59 130.669 85.3674 128.563 85.5531 128.494C85.7388 128.425 87.9246 129.916 87.9246 129.916Z" fill="black"/>
<path d="M107.846 114.519L110.244 112.397C110.436 111.791 110.699 111.211 111.029 110.667C111.289 110.45 115.655 110.11 115.655 110.11C115.655 110.11 115.74 112.418 115.395 113.018C115.051 113.617 111.485 113.877 111.485 113.877L109.575 115.718L107.846 114.519Z" fill="#EEC1BB"/>
<path d="M120.621 164.808C119.937 174.655 118.107 188.63 118.107 188.63L115.751 189.16C115.751 189.16 113.576 177.462 113.921 166.607C113.982 164.241 114.206 161.881 114.589 159.546C114.589 159.546 106.429 156.41 100.763 153.604C98.0576 152.267 95.9196 150.999 95.5111 150.182C94.2484 147.662 99.9888 141.741 99.9888 141.741C100.169 141.884 103.634 144.091 107.666 146.707C113.019 150.176 119.369 154.367 120.399 155.413C121.014 156.012 120.961 159.896 120.621 164.808Z" fill="#EEC1BB"/>
<path opacity="0.2" d="M120.621 164.809C118.444 165.598 116.202 166.196 113.921 166.597C113.982 164.23 114.206 161.871 114.589 159.535C114.589 159.535 106.43 156.4 100.763 153.593L107.66 146.696C113.014 150.166 119.364 154.357 120.393 155.402C121.014 156.013 120.961 159.896 120.621 164.809Z" fill="black"/>
<path d="M102.254 140.096C102.254 140.096 124.892 153.11 127.969 156.049C131.046 158.989 148.809 186.454 148.809 186.454L147.313 187.882C147.313 187.882 132.564 175.223 126.68 163.19L102.275 151.397L102.254 140.096Z" fill="#EEC1BB"/>
<path d="M85.0332 116.068C85.0697 116.093 85.1088 116.115 85.1499 116.132C85.7057 116.447 86.3191 116.647 86.9537 116.721C88.8 116.885 89.9884 116.471 90.6674 115.548C91.6118 114.179 91.5906 111.994 91.0707 109.421C90.8985 108.391 90.5636 107.395 90.0786 106.471C90.0786 106.471 90.0786 106.434 90.0786 106.428L90.0149 106.322C89.7196 105.805 89.2992 105.369 88.7923 105.056C88.2853 104.743 87.7079 104.562 87.1129 104.529C86.5947 104.486 86.0734 104.5 85.5584 104.571C80.5183 105.224 80.7889 113.723 85.0332 116.068Z" fill="#EEC1BB"/>
<path opacity="0.2" d="M85.1707 116.132C85.7278 116.429 86.3398 116.61 86.9692 116.662C88.8101 116.827 89.9932 116.349 90.6829 115.421C89.651 115.832 88.5135 115.897 87.4413 115.607C87.0479 115.515 86.6387 115.515 86.2452 115.606C85.8517 115.697 85.4842 115.877 85.1707 116.132Z" fill="black"/>
<path d="M84.8313 120.281C84.391 121.703 86.2107 122.456 86.2107 122.456C89.3939 121.395 90.1101 119.84 90.1101 119.84C87.6697 118.249 88.7414 114.567 88.7414 114.567L88.2108 114.779L84.4971 115.172C84.4971 115.172 85.3406 117.204 85.4361 117.66C85.903 120.053 84.8313 120.281 84.8313 120.281Z" fill="#EBB376"/>
<path d="M90.1101 106.423C90.1101 106.423 90.8847 109.93 87.7386 111.919C87.7386 111.919 86.8102 115.808 84.6933 116.163C81.8072 116.641 78.6824 112.879 79.0962 108.539C79.6373 102.926 87.8182 101.33 90.1101 106.423Z" fill="#263238"/>
<path d="M89.2768 110.667C89.1973 110.137 88.6243 109.245 87.7807 109.495C86.9372 109.744 86.7197 112.009 88.9797 112.195C89.3246 112.259 89.4625 111.834 89.2768 110.667Z" fill="#EBB376"/>
<path d="M147.822 184.767L145.381 186.645C145.331 186.686 145.296 186.742 145.282 186.804C145.268 186.867 145.275 186.932 145.302 186.99L146.543 189.643C146.57 189.699 146.608 189.749 146.654 189.791C146.7 189.833 146.754 189.865 146.813 189.886C146.871 189.906 146.933 189.915 146.996 189.912C147.058 189.908 147.119 189.893 147.175 189.866C147.206 189.851 147.237 189.833 147.265 189.813C148.252 189.022 148.283 188.9 149.541 187.935C150.31 187.34 152.724 185.621 153.785 184.799C154.846 183.977 154.178 182.815 153.668 183.054C151.376 184.115 149.424 184.682 148.363 184.603C148.168 184.588 147.975 184.647 147.822 184.767Z" fill="#263238"/>
<path d="M148.353 184.719C148.339 184.726 148.324 184.728 148.309 184.726C148.294 184.723 148.28 184.717 148.269 184.706C148.258 184.696 148.251 184.682 148.248 184.668C148.245 184.653 148.246 184.638 148.252 184.624C148.3 184.496 148.735 183.356 149.127 183.287C149.171 183.277 149.216 183.281 149.257 183.297C149.299 183.313 149.335 183.341 149.361 183.377C149.415 183.431 149.454 183.498 149.476 183.571C149.497 183.644 149.499 183.722 149.483 183.796C149.42 184.013 149.282 184.201 149.095 184.327C148.864 184.486 148.614 184.617 148.353 184.719ZM148.464 184.502C148.838 184.375 149.15 184.109 149.334 183.759C149.345 183.709 149.342 183.657 149.327 183.608C149.313 183.559 149.286 183.514 149.249 183.478C149.207 183.435 149.17 183.425 149.154 183.441C149.121 183.447 149.09 183.462 149.064 183.483C148.801 183.782 148.597 184.127 148.464 184.502Z" fill="#5A7EC1"/>
<path d="M148.347 184.746C148.334 184.746 148.321 184.743 148.309 184.738C148.297 184.732 148.286 184.724 148.278 184.714C148.278 184.677 147.747 183.897 147.859 183.43C147.872 183.373 147.895 183.319 147.929 183.272C147.963 183.225 148.006 183.185 148.055 183.154C148.1 183.118 148.156 183.098 148.214 183.098C148.272 183.098 148.328 183.118 148.374 183.154C148.633 183.382 148.554 184.332 148.4 184.677L148.374 184.703L148.347 184.746ZM147.992 183.441C147.99 183.807 148.099 184.166 148.305 184.47C148.431 184.073 148.412 183.644 148.251 183.26C148.251 183.26 148.193 183.202 148.119 183.26H148.087C148.035 183.307 148.001 183.371 147.992 183.441Z" fill="#5A7EC1"/>
<path d="M118.521 187.065L115.438 187.123C115.375 187.127 115.315 187.151 115.267 187.192C115.219 187.234 115.186 187.29 115.173 187.352L114.595 190.222C114.577 190.342 114.607 190.463 114.677 190.562C114.747 190.661 114.852 190.729 114.971 190.752C115.006 190.757 115.042 190.757 115.077 190.752C116.335 190.705 116.436 190.625 118.022 190.593C118.998 190.593 121.943 190.62 123.29 190.593C124.638 190.567 124.786 189.23 124.234 189.118C121.746 188.63 119.873 187.919 119.067 187.224C118.912 187.103 118.716 187.046 118.521 187.065Z" fill="#263238"/>
<path d="M118.796 187.404C118.781 187.401 118.766 187.394 118.756 187.382C118.745 187.371 118.739 187.356 118.738 187.34C118.734 187.326 118.735 187.311 118.741 187.297C118.746 187.284 118.757 187.273 118.77 187.266C118.881 187.192 119.905 186.534 120.266 186.709C120.307 186.727 120.342 186.757 120.366 186.795C120.391 186.832 120.404 186.876 120.404 186.921C120.414 186.996 120.406 187.073 120.379 187.145C120.352 187.216 120.308 187.28 120.25 187.329C120.072 187.458 119.854 187.52 119.634 187.505C119.352 187.503 119.071 187.469 118.796 187.404ZM119.014 187.292C119.39 187.413 119.798 187.384 120.154 187.213C120.192 187.178 120.22 187.135 120.237 187.087C120.254 187.039 120.258 186.987 120.25 186.937C120.25 186.878 120.218 186.852 120.202 186.852C120.169 186.844 120.135 186.844 120.101 186.852C119.714 186.929 119.345 187.078 119.014 187.292Z" fill="#5A7EC1"/>
<path d="M118.775 187.42C118.762 187.414 118.752 187.404 118.746 187.391C118.739 187.379 118.736 187.365 118.738 187.351C118.738 187.309 118.796 186.386 119.162 186.073C119.206 186.033 119.257 186.004 119.313 185.986C119.369 185.969 119.428 185.964 119.486 185.972C119.544 185.97 119.6 185.989 119.646 186.025C119.691 186.061 119.723 186.111 119.735 186.168C119.804 186.502 119.205 187.229 118.849 187.41H118.812C118.801 187.418 118.788 187.421 118.775 187.42ZM119.263 186.163C119.044 186.457 118.919 186.81 118.902 187.176C119.231 186.921 119.629 186.375 119.581 186.168C119.581 186.168 119.581 186.094 119.47 186.094H119.433C119.37 186.095 119.309 186.119 119.263 186.163Z" fill="#5A7EC1"/>
<path d="M101.623 136.61L90.3914 141.327C85.7492 129.788 79.4358 124.238 79.4358 124.238C83.9347 118.843 92.2429 116.36 92.2429 116.36C93.4701 117.359 94.5287 118.548 95.3784 119.883C96.3151 121.332 97.1313 122.857 97.8189 124.44C99.4876 128.36 100.762 132.437 101.623 136.61Z" fill="#5A7EC1"/>
<path d="M90.0041 108.768C90.0041 108.768 93.5322 105.17 90.1527 102.799C86.7732 100.427 83.4202 103.595 83.4202 103.595C83.4202 103.595 75.3932 105.616 77.1546 110.948C78.9159 116.28 80.0407 116.72 77.5206 119.49C75.0006 122.259 72.4328 126.344 75.0642 128.917C77.6957 131.49 86.7679 128.732 89.4895 124.784C92.2112 120.837 87.256 112.471 90.0041 108.768Z" fill="#263238"/>
<path d="M100.806 133.151L88.6035 137.337C88.6035 137.337 91.3039 150.627 93.2616 152.85C95.2193 155.073 108.308 165.366 110.159 164.554C112.011 163.742 124.293 152.85 124.293 152.85L103.512 138.6L100.806 133.151Z" fill="#263238"/>
<path d="M99.0287 135.65L101.623 134.791L100.981 133.507L98.5247 134.372L99.0287 135.65Z" fill="black"/>
<path d="M91.272 136.924L88.614 137.858L88.9695 138.993L91.5691 138.128L91.272 136.924Z" fill="black"/>
<path d="M92.126 137.942L98.5084 135.825L98.0309 134.542L91.7759 136.743L92.126 137.942Z" fill="black"/>
<path opacity="0.2" d="M97.8186 124.461C95.1341 124.148 93.6221 120.111 93.6221 120.111C94.2027 120.007 94.7892 119.937 95.3781 119.904C96.3148 121.354 97.1311 122.878 97.8186 124.461Z" fill="black"/>
<path d="M92.2431 116.36C95.1611 115.925 101.687 118.291 102.254 118.265C102.822 118.238 109.151 113.262 109.151 113.262L110.796 114.71C110.796 114.71 104.164 121.549 102.801 121.607C101.437 121.665 94.3122 121.151 94.3122 121.151C94.3122 121.151 92.5668 120.53 92.2325 118.954C92.029 118.101 92.0326 117.212 92.2431 116.36Z" fill="#5A7EC1"/>
<path d="M26.7891 217.047H220.722" stroke="#263238" stroke-width="0.716941"/>
<defs>
<linearGradient id="paint0_linear_34_1027" x1="123.935" y1="0.530762" x2="124.293" y2="262.931" gradientUnits="userSpaceOnUse">
<stop stop-color="white"/>
<stop offset="1" stop-color="white" stop-opacity="0"/>
</linearGradient>
</defs>
</svg>
